M48
; DRILL file {KiCad (6.0.1)} date Tue Mar 15 18:58:53 2022
; FORMAT={-:-/ absolute / metric / decimal}
; #@! TF.CreationDate,2022-03-15T18:58:53+01:00
; #@! TF.GenerationSoftware,Kicad,Pcbnew,(6.0.1)
; #@! TF.FileFunction,Plated,1,3,Blind
FMAT,2
METRIC
; #@! TA.AperFunction,Plated,Buried,ViaDrill
T1C0.500
%
G90
G05
T1
X126.25Y-97.5
X126.75Y-98.49
X139.0Y-107.25
X139.25Y-108.5
X139.975Y-94.1
X139.975Y-95.325
X140.24Y-114.125
X142.6Y-87.8
X142.6Y-89.0
X162.7Y-102.175
X186.25Y-93.5
X186.25Y-94.75
X186.25Y-96.0
X187.5Y-93.5
X187.5Y-94.75
X187.5Y-96.0
X188.75Y-90.75
X188.75Y-92.0
X188.75Y-93.5
X188.75Y-94.75
X188.75Y-96.0
T0
M30
