%TF.GenerationSoftware,KiCad,Pcbnew,(6.0.1)*%
%TF.CreationDate,2022-03-17T09:26:44+01:00*%
%TF.ProjectId,SignalGenerator,5369676e-616c-4476-956e-657261746f72,0.3*%
%TF.SameCoordinates,Original*%
%TF.FileFunction,Copper,L1,Top*%
%TF.FilePolarity,Positive*%
%FSLAX46Y46*%
G04 Gerber Fmt 4.6, Leading zero omitted, Abs format (unit mm)*
G04 Created by KiCad (PCBNEW (6.0.1)) date 2022-03-17 09:26:44*
%MOMM*%
%LPD*%
G01*
G04 APERTURE LIST*
G04 Aperture macros list*
%AMRoundRect*
0 Rectangle with rounded corners*
0 $1 Rounding radius*
0 $2 $3 $4 $5 $6 $7 $8 $9 X,Y pos of 4 corners*
0 Add a 4 corners polygon primitive as box body*
4,1,4,$2,$3,$4,$5,$6,$7,$8,$9,$2,$3,0*
0 Add four circle primitives for the rounded corners*
1,1,$1+$1,$2,$3*
1,1,$1+$1,$4,$5*
1,1,$1+$1,$6,$7*
1,1,$1+$1,$8,$9*
0 Add four rect primitives between the rounded corners*
20,1,$1+$1,$2,$3,$4,$5,0*
20,1,$1+$1,$4,$5,$6,$7,0*
20,1,$1+$1,$6,$7,$8,$9,0*
20,1,$1+$1,$8,$9,$2,$3,0*%
G04 Aperture macros list end*
%TA.AperFunction,ComponentPad*%
%ADD10R,1.700000X1.700000*%
%TD*%
%TA.AperFunction,ComponentPad*%
%ADD11O,1.700000X1.700000*%
%TD*%
%TA.AperFunction,SMDPad,CuDef*%
%ADD12RoundRect,0.250000X-0.350000X-0.450000X0.350000X-0.450000X0.350000X0.450000X-0.350000X0.450000X0*%
%TD*%
%TA.AperFunction,SMDPad,CuDef*%
%ADD13RoundRect,0.250000X-0.475000X0.337500X-0.475000X-0.337500X0.475000X-0.337500X0.475000X0.337500X0*%
%TD*%
%TA.AperFunction,SMDPad,CuDef*%
%ADD14RoundRect,0.250000X-0.400000X-0.625000X0.400000X-0.625000X0.400000X0.625000X-0.400000X0.625000X0*%
%TD*%
%TA.AperFunction,SMDPad,CuDef*%
%ADD15RoundRect,0.250000X0.337500X0.475000X-0.337500X0.475000X-0.337500X-0.475000X0.337500X-0.475000X0*%
%TD*%
%TA.AperFunction,SMDPad,CuDef*%
%ADD16RoundRect,0.250000X0.475000X-0.337500X0.475000X0.337500X-0.475000X0.337500X-0.475000X-0.337500X0*%
%TD*%
%TA.AperFunction,SMDPad,CuDef*%
%ADD17RoundRect,0.250000X0.275000X-0.400000X0.275000X0.400000X-0.275000X0.400000X-0.275000X-0.400000X0*%
%TD*%
%TA.AperFunction,SMDPad,CuDef*%
%ADD18R,1.400000X0.300000*%
%TD*%
%TA.AperFunction,SMDPad,CuDef*%
%ADD19RoundRect,0.250000X-0.337500X-0.475000X0.337500X-0.475000X0.337500X0.475000X-0.337500X0.475000X0*%
%TD*%
%TA.AperFunction,SMDPad,CuDef*%
%ADD20RoundRect,0.250000X0.450000X-0.350000X0.450000X0.350000X-0.450000X0.350000X-0.450000X-0.350000X0*%
%TD*%
%TA.AperFunction,SMDPad,CuDef*%
%ADD21RoundRect,0.250000X-0.412500X-0.650000X0.412500X-0.650000X0.412500X0.650000X-0.412500X0.650000X0*%
%TD*%
%TA.AperFunction,SMDPad,CuDef*%
%ADD22R,1.980000X3.000000*%
%TD*%
%TA.AperFunction,ComponentPad*%
%ADD23R,3.000000X3.000000*%
%TD*%
%TA.AperFunction,ComponentPad*%
%ADD24C,3.000000*%
%TD*%
%TA.AperFunction,SMDPad,CuDef*%
%ADD25RoundRect,0.250000X0.400000X0.275000X-0.400000X0.275000X-0.400000X-0.275000X0.400000X-0.275000X0*%
%TD*%
%TA.AperFunction,SMDPad,CuDef*%
%ADD26RoundRect,0.250000X0.650000X-0.412500X0.650000X0.412500X-0.650000X0.412500X-0.650000X-0.412500X0*%
%TD*%
%TA.AperFunction,SMDPad,CuDef*%
%ADD27R,2.250000X1.500000*%
%TD*%
%TA.AperFunction,SMDPad,CuDef*%
%ADD28R,2.250000X1.575000*%
%TD*%
%TA.AperFunction,SMDPad,CuDef*%
%ADD29R,2.250000X1.450000*%
%TD*%
%TA.AperFunction,SMDPad,CuDef*%
%ADD30RoundRect,0.250000X0.350000X0.450000X-0.350000X0.450000X-0.350000X-0.450000X0.350000X-0.450000X0*%
%TD*%
%TA.AperFunction,SMDPad,CuDef*%
%ADD31R,0.550000X1.600000*%
%TD*%
%TA.AperFunction,SMDPad,CuDef*%
%ADD32R,1.600000X0.550000*%
%TD*%
%TA.AperFunction,SMDPad,CuDef*%
%ADD33RoundRect,0.250000X-0.450000X0.350000X-0.450000X-0.350000X0.450000X-0.350000X0.450000X0.350000X0*%
%TD*%
%TA.AperFunction,SMDPad,CuDef*%
%ADD34RoundRect,0.150000X-0.150000X0.825000X-0.150000X-0.825000X0.150000X-0.825000X0.150000X0.825000X0*%
%TD*%
%TA.AperFunction,ViaPad*%
%ADD35C,1.000000*%
%TD*%
%TA.AperFunction,ViaPad*%
%ADD36C,0.800000*%
%TD*%
%TA.AperFunction,Conductor*%
%ADD37C,1.000000*%
%TD*%
%TA.AperFunction,Conductor*%
%ADD38C,0.600000*%
%TD*%
%TA.AperFunction,Conductor*%
%ADD39C,1.500000*%
%TD*%
%TA.AperFunction,Conductor*%
%ADD40C,0.300000*%
%TD*%
%TA.AperFunction,Conductor*%
%ADD41C,0.250000*%
%TD*%
G04 APERTURE END LIST*
D10*
X184000000Y-108775000D03*
D11*
X184000000Y-111315000D03*
X184000000Y-113855000D03*
D10*
X177300000Y-106775000D03*
D11*
X177300000Y-109315000D03*
X177300000Y-111855000D03*
D10*
X122501920Y-108367377D03*
D11*
X122501920Y-105827377D03*
X125041920Y-108367377D03*
X125041920Y-105827377D03*
X127581920Y-108367377D03*
X127581920Y-105827377D03*
X130121920Y-108367377D03*
X130121920Y-105827377D03*
X132661920Y-108367377D03*
X132661920Y-105827377D03*
D12*
X142080000Y-116245000D03*
X144080000Y-116245000D03*
D13*
X179939160Y-95408819D03*
X179939160Y-97483819D03*
D14*
X150526920Y-96982377D03*
X153626920Y-96982377D03*
D12*
X156000000Y-102175000D03*
X158000000Y-102175000D03*
D10*
X127611920Y-92072377D03*
D11*
X125071920Y-92072377D03*
X127611920Y-89532377D03*
X125071920Y-89532377D03*
X127611920Y-86992377D03*
X125071920Y-86992377D03*
X127611920Y-84452377D03*
X125071920Y-84452377D03*
D15*
X148394420Y-97012377D03*
X146319420Y-97012377D03*
D16*
X162802255Y-114230244D03*
X162802255Y-112155244D03*
D13*
X178069160Y-89598819D03*
X178069160Y-91673819D03*
D17*
X181969160Y-97411319D03*
X181969160Y-95461319D03*
D15*
X177456660Y-99686319D03*
X175381660Y-99686319D03*
D18*
X177619160Y-97456319D03*
X177619160Y-96956319D03*
X177619160Y-96456319D03*
X177619160Y-95956319D03*
X177619160Y-95456319D03*
X173219160Y-95456319D03*
X173219160Y-95956319D03*
X173219160Y-96456319D03*
X173219160Y-96956319D03*
X173219160Y-97456319D03*
D12*
X142080000Y-112045000D03*
X144080000Y-112045000D03*
D19*
X140759420Y-107312377D03*
X142834420Y-107312377D03*
D10*
X173525000Y-115575000D03*
D11*
X176065000Y-115575000D03*
D20*
X130576920Y-92092377D03*
X130576920Y-90092377D03*
D12*
X169177255Y-106267744D03*
X171177255Y-106267744D03*
D21*
X150037500Y-105275000D03*
X153162500Y-105275000D03*
X150037500Y-102675000D03*
X153162500Y-102675000D03*
D22*
X186509160Y-85786319D03*
X181249160Y-85786319D03*
X181249160Y-90786319D03*
X186509160Y-90786319D03*
D12*
X156000000Y-106375000D03*
X158000000Y-106375000D03*
D20*
X166952255Y-106367744D03*
X166952255Y-104367744D03*
D12*
X157000000Y-115275000D03*
X159000000Y-115275000D03*
D23*
X153332980Y-86042020D03*
D24*
X158332980Y-86042020D03*
X163332980Y-86042020D03*
X168332980Y-86042020D03*
D25*
X137871920Y-108622377D03*
X135921920Y-108622377D03*
D13*
X146036920Y-103194877D03*
X146036920Y-105269877D03*
D10*
X140051920Y-85247377D03*
D11*
X140051920Y-87787377D03*
X137511920Y-85247377D03*
X137511920Y-87787377D03*
X134971920Y-85247377D03*
X134971920Y-87787377D03*
D20*
X173227495Y-101592504D03*
X173227495Y-99592504D03*
D26*
X184269160Y-98128819D03*
X184269160Y-95003819D03*
D10*
X181325000Y-102600000D03*
D11*
X183865000Y-102600000D03*
X186405000Y-102600000D03*
D27*
X140226920Y-105232377D03*
D28*
X143526920Y-105232377D03*
D29*
X143526920Y-103232377D03*
X140226920Y-103232377D03*
D15*
X158037500Y-100075000D03*
X155962500Y-100075000D03*
X137894420Y-104762377D03*
X135819420Y-104762377D03*
D10*
X149425000Y-109650000D03*
D11*
X151965000Y-109650000D03*
X149425000Y-112190000D03*
X151965000Y-112190000D03*
X149425000Y-114730000D03*
X151965000Y-114730000D03*
D13*
X172000000Y-108937500D03*
X172000000Y-111012500D03*
D30*
X144080000Y-114145000D03*
X142080000Y-114145000D03*
D19*
X184171660Y-82276319D03*
X186246660Y-82276319D03*
D31*
X135166920Y-100872377D03*
X135966920Y-100872377D03*
X136766920Y-100872377D03*
X137566920Y-100872377D03*
X138366920Y-100872377D03*
X139166920Y-100872377D03*
X139966920Y-100872377D03*
X140766920Y-100872377D03*
D32*
X142216920Y-99422377D03*
X142216920Y-98622377D03*
X142216920Y-97822377D03*
X142216920Y-97022377D03*
X142216920Y-96222377D03*
X142216920Y-95422377D03*
X142216920Y-94622377D03*
X142216920Y-93822377D03*
D31*
X140766920Y-92372377D03*
X139966920Y-92372377D03*
X139166920Y-92372377D03*
X138366920Y-92372377D03*
X137566920Y-92372377D03*
X136766920Y-92372377D03*
X135966920Y-92372377D03*
X135166920Y-92372377D03*
D32*
X133716920Y-93822377D03*
X133716920Y-94622377D03*
X133716920Y-95422377D03*
X133716920Y-96222377D03*
X133716920Y-97022377D03*
X133716920Y-97822377D03*
X133716920Y-98622377D03*
X133716920Y-99422377D03*
D30*
X130006920Y-97432377D03*
X128006920Y-97432377D03*
D33*
X124436920Y-94942377D03*
X124436920Y-96942377D03*
D30*
X158000000Y-104275000D03*
X156000000Y-104275000D03*
D16*
X162827255Y-109380244D03*
X162827255Y-107305244D03*
D34*
X169486255Y-109297744D03*
X168216255Y-109297744D03*
X166946255Y-109297744D03*
X165676255Y-109297744D03*
X165676255Y-114247744D03*
X166946255Y-114247744D03*
X168216255Y-114247744D03*
X169486255Y-114247744D03*
D35*
X188750000Y-96000000D03*
X139250000Y-108500000D03*
X187500000Y-94750000D03*
X187500000Y-96000000D03*
X142600000Y-87800000D03*
X188750000Y-92000000D03*
X188750000Y-93500000D03*
X186250000Y-96000000D03*
X188750000Y-90750000D03*
X142600000Y-89000000D03*
X139970000Y-95320000D03*
X186250000Y-94750000D03*
X126250000Y-97500000D03*
X187500000Y-93500000D03*
X188750000Y-94750000D03*
X140240000Y-114125000D03*
X162700000Y-102175000D03*
X139975000Y-94100000D03*
X186250000Y-93500000D03*
X139000000Y-107250000D03*
X126750000Y-98490357D03*
X186500000Y-100250000D03*
X181750000Y-81500000D03*
X182000000Y-94000000D03*
X151500000Y-100775000D03*
X161250000Y-105500000D03*
X163750000Y-104250000D03*
X153625000Y-98800000D03*
X179250000Y-80250000D03*
X154000000Y-117175000D03*
X178000000Y-86500000D03*
X182750000Y-93250000D03*
X161250000Y-104250000D03*
X155200000Y-115275000D03*
X180500000Y-80250000D03*
X173050000Y-106230000D03*
X135921920Y-107578080D03*
X178000000Y-81500000D03*
X179250000Y-85250000D03*
X135921920Y-106328080D03*
X173060000Y-107480000D03*
X178000000Y-84000000D03*
X183000000Y-80250000D03*
X144500000Y-107000000D03*
X178075000Y-93075000D03*
X180500000Y-82750000D03*
X187750000Y-100250000D03*
X178000000Y-85250000D03*
X175400000Y-101175000D03*
X178000000Y-80250000D03*
X187750000Y-99000000D03*
X179250000Y-86500000D03*
X138566420Y-102500000D03*
X163750000Y-105500000D03*
X162500000Y-104250000D03*
X179250000Y-82750000D03*
X155200000Y-116475000D03*
X180500000Y-81500000D03*
X176800000Y-93100000D03*
X179250000Y-81500000D03*
X162500000Y-105500000D03*
X179250000Y-84000000D03*
X181750000Y-80250000D03*
X178000000Y-82750000D03*
X186500000Y-99000000D03*
X156400000Y-116975000D03*
X180819516Y-94069516D03*
X160500000Y-112000000D03*
X159250000Y-110750000D03*
X156750000Y-109500000D03*
X158000000Y-110750000D03*
X159250000Y-109500000D03*
X158000000Y-112000000D03*
X156750000Y-112000000D03*
X159250000Y-112000000D03*
X160500000Y-110750000D03*
X160500000Y-109500000D03*
X158000000Y-109500000D03*
X156750000Y-110750000D03*
X173700000Y-112875000D03*
D36*
X148900000Y-100575000D03*
D35*
X141850000Y-108605000D03*
X140430000Y-111401877D03*
D36*
X140500000Y-99075000D03*
X140200000Y-97375000D03*
X146900000Y-99704377D03*
X142240480Y-91999520D03*
X145386420Y-90499520D03*
X147520697Y-94173357D03*
X145290480Y-94519520D03*
D37*
X137871920Y-108622377D02*
X139127623Y-108622377D01*
D38*
X137566920Y-99598355D02*
X137566920Y-100872377D01*
D37*
X139970000Y-95320000D02*
X139970000Y-94105000D01*
X130016920Y-89532377D02*
X130576920Y-90092377D01*
X126250000Y-97500000D02*
X126250000Y-97990357D01*
X139127623Y-108622377D02*
X139250000Y-108500000D01*
X186500000Y-90795479D02*
X186509160Y-90786319D01*
D39*
X179962140Y-97460839D02*
X181969160Y-97460839D01*
D37*
X138520000Y-95320000D02*
X139970000Y-95320000D01*
D38*
X139966920Y-92372377D02*
X139966920Y-94091920D01*
D37*
X137871920Y-108128080D02*
X137871920Y-104784877D01*
D38*
X137592409Y-99572866D02*
X137566920Y-99598355D01*
D37*
X188198671Y-83917711D02*
X186557279Y-82276319D01*
D38*
X139966920Y-94091920D02*
X139975000Y-94100000D01*
D37*
X182069090Y-97411319D02*
X181969160Y-97411319D01*
X140051920Y-87787377D02*
X142587377Y-87787377D01*
X139970000Y-94105000D02*
X139975000Y-94100000D01*
D40*
X177619160Y-96956319D02*
X179411660Y-96956319D01*
D37*
X184269160Y-95003819D02*
X184269160Y-95211249D01*
X139250000Y-107500000D02*
X139000000Y-107250000D01*
X138515000Y-95325000D02*
X138520000Y-95320000D01*
X127611920Y-89532377D02*
X130016920Y-89532377D01*
X184269160Y-93026319D02*
X186509160Y-90786319D01*
X184269160Y-95003819D02*
X184269160Y-93026319D01*
D39*
X179939160Y-97483819D02*
X179962140Y-97460839D01*
D37*
X142080000Y-114145000D02*
X140260000Y-114145000D01*
X186557279Y-82276319D02*
X186246660Y-82276319D01*
X137871920Y-108128080D02*
X138750000Y-107250000D01*
X126317623Y-97432377D02*
X126250000Y-97500000D01*
X124436920Y-96942377D02*
X124994543Y-97500000D01*
D38*
X139166920Y-100872377D02*
X139166920Y-99598355D01*
D41*
X156000000Y-104175000D02*
X158000000Y-102175000D01*
D37*
X184269160Y-95211249D02*
X182069090Y-97411319D01*
D41*
X156000000Y-104275000D02*
X156000000Y-104175000D01*
D37*
X127611920Y-86992377D02*
X127611920Y-89532377D01*
X140260000Y-114145000D02*
X140240000Y-114125000D01*
D38*
X139166920Y-99598355D02*
X139141431Y-99572866D01*
D37*
X138515000Y-95325000D02*
X137592409Y-96247591D01*
X138750000Y-107250000D02*
X139000000Y-107250000D01*
X139250000Y-108500000D02*
X139250000Y-107500000D01*
D38*
X137566920Y-100872377D02*
X137566920Y-104434877D01*
D37*
X142600000Y-87800000D02*
X142600000Y-89000000D01*
X142587377Y-87787377D02*
X142600000Y-87800000D01*
D40*
X179411660Y-96956319D02*
X179939160Y-97483819D01*
D37*
X126250000Y-97990357D02*
X126750000Y-98490357D01*
X159400000Y-102175000D02*
X162700000Y-102175000D01*
X137871920Y-104784877D02*
X137894420Y-104762377D01*
X137871920Y-108622377D02*
X137871920Y-108128080D01*
D38*
X137566920Y-104434877D02*
X137894420Y-104762377D01*
D37*
X124994543Y-97500000D02*
X126250000Y-97500000D01*
X128006920Y-97432377D02*
X126317623Y-97432377D01*
X158000000Y-102175000D02*
X159400000Y-102175000D01*
D38*
X139141431Y-99572866D02*
X137592409Y-99572866D01*
D37*
X137592409Y-96247591D02*
X137592409Y-99572866D01*
X188198671Y-89096808D02*
X188198671Y-83917711D01*
X186509160Y-90786319D02*
X188198671Y-89096808D01*
X187750000Y-99000000D02*
X186500000Y-100250000D01*
D38*
X135921920Y-107578080D02*
X135921920Y-106328080D01*
D37*
X179250000Y-81500000D02*
X179250000Y-80250000D01*
X178050000Y-93100000D02*
X178075000Y-93075000D01*
X178000000Y-85250000D02*
X178000000Y-84000000D01*
X181969160Y-95219160D02*
X180819516Y-94069516D01*
X176050000Y-92350000D02*
X176050000Y-87675000D01*
X180712841Y-85250000D02*
X181249160Y-85786319D01*
D38*
X146036920Y-105269877D02*
X143564420Y-105269877D01*
D37*
X175381660Y-99686319D02*
X175381660Y-101156660D01*
D39*
X181916660Y-95408819D02*
X181969160Y-95461319D01*
D37*
X156400000Y-116975000D02*
X156400000Y-115875000D01*
D40*
X176569649Y-94654851D02*
X176800000Y-94424501D01*
X175363711Y-96956319D02*
X176363711Y-95956319D01*
D38*
X135921920Y-106328080D02*
X135921920Y-104864877D01*
D37*
X179250000Y-81500000D02*
X178000000Y-81500000D01*
D40*
X176569649Y-95955830D02*
X176569649Y-94654851D01*
D38*
X143564420Y-105269877D02*
X143526920Y-105232377D01*
D37*
X171177255Y-106267744D02*
X173012256Y-106267744D01*
X186405000Y-101595000D02*
X187750000Y-100250000D01*
X154687500Y-98800000D02*
X153625000Y-98800000D01*
X178000000Y-82750000D02*
X178000000Y-81500000D01*
X172000000Y-108937500D02*
X172000000Y-108540000D01*
X177225000Y-86500000D02*
X178000000Y-86500000D01*
X184171660Y-82276319D02*
X184171660Y-81421660D01*
X173012256Y-106267744D02*
X173050000Y-106230000D01*
X125071920Y-86992377D02*
X125071920Y-89532377D01*
D40*
X179391660Y-95956319D02*
X179939160Y-95408819D01*
D37*
X181969160Y-94280840D02*
X181969160Y-94030840D01*
D40*
X173219160Y-96956319D02*
X175363711Y-96956319D01*
D37*
X155200000Y-116475000D02*
X155900000Y-116475000D01*
X178000000Y-86500000D02*
X178000000Y-85250000D01*
D40*
X174268182Y-96956319D02*
X176800000Y-94424501D01*
D37*
X173050000Y-107470000D02*
X173060000Y-107480000D01*
X181750000Y-80250000D02*
X180500000Y-80250000D01*
X186405000Y-100345000D02*
X186500000Y-100250000D01*
D38*
X142834420Y-105924877D02*
X143526920Y-105232377D01*
D37*
X173050000Y-106230000D02*
X173050000Y-107470000D01*
D38*
X138366920Y-102300500D02*
X138566420Y-102500000D01*
D37*
X180500000Y-81500000D02*
X180500000Y-80250000D01*
X181969160Y-95461319D02*
X181969160Y-94280840D01*
X178075000Y-91679659D02*
X178069160Y-91673819D01*
X153626920Y-98798080D02*
X153625000Y-98800000D01*
X176800000Y-93100000D02*
X178050000Y-93100000D01*
D39*
X179939160Y-95408819D02*
X181916660Y-95408819D01*
D38*
X172000000Y-108937500D02*
X169846499Y-108937500D01*
D37*
X186500000Y-99000000D02*
X187500000Y-99000000D01*
D38*
X143526920Y-105232377D02*
X143526920Y-106026920D01*
D37*
X153162500Y-105275000D02*
X153162500Y-102675000D01*
X186500000Y-100250000D02*
X187500000Y-100250000D01*
X153626920Y-96982377D02*
X153626920Y-98798080D01*
X181930484Y-94069516D02*
X182000000Y-94000000D01*
D38*
X135921920Y-104864877D02*
X135819420Y-104762377D01*
D40*
X176570138Y-95956319D02*
X176569649Y-95955830D01*
D37*
X153162500Y-102437500D02*
X151500000Y-100775000D01*
D38*
X134971920Y-88721920D02*
X134971920Y-87787377D01*
X172000000Y-107090489D02*
X171177255Y-106267744D01*
D37*
X154700000Y-116475000D02*
X154000000Y-117175000D01*
X178000000Y-81500000D02*
X178000000Y-80250000D01*
X156400000Y-115875000D02*
X157000000Y-115275000D01*
X134754420Y-105827377D02*
X135819420Y-104762377D01*
D40*
X173219160Y-96956319D02*
X174268182Y-96956319D01*
D37*
X182000000Y-94000000D02*
X182750000Y-93250000D01*
D40*
X176800000Y-94424501D02*
X176800000Y-93100000D01*
D37*
X180819516Y-94069516D02*
X181930484Y-94069516D01*
X181750000Y-81500000D02*
X180500000Y-81500000D01*
X179250000Y-80250000D02*
X178000000Y-80250000D01*
X179250000Y-85250000D02*
X179250000Y-84000000D01*
X172000000Y-108540000D02*
X173060000Y-107480000D01*
X155900000Y-116475000D02*
X156400000Y-116975000D01*
D38*
X142834420Y-107312377D02*
X142834420Y-105924877D01*
D37*
X178075000Y-93075000D02*
X178075000Y-91679659D01*
X186405000Y-102600000D02*
X186405000Y-101595000D01*
X187750000Y-100250000D02*
X187750000Y-99000000D01*
X178000000Y-84000000D02*
X178000000Y-82750000D01*
X153162500Y-102675000D02*
X153162500Y-102437500D01*
X176800000Y-93100000D02*
X176050000Y-92350000D01*
X186405000Y-102600000D02*
X186405000Y-100345000D01*
X175381660Y-101156660D02*
X175400000Y-101175000D01*
X179250000Y-86500000D02*
X178000000Y-86500000D01*
D38*
X136766920Y-100872377D02*
X136766920Y-103814877D01*
D37*
X181969160Y-94030840D02*
X182000000Y-94000000D01*
D38*
X137566920Y-91316920D02*
X134971920Y-88721920D01*
D37*
X179939160Y-94949872D02*
X180819516Y-94069516D01*
D40*
X177619160Y-95956319D02*
X176570138Y-95956319D01*
D37*
X186500000Y-100250000D02*
X186500000Y-99000000D01*
X183000000Y-80250000D02*
X181750000Y-80250000D01*
X155200000Y-116475000D02*
X154700000Y-116475000D01*
X184171660Y-81421660D02*
X183000000Y-80250000D01*
X149425000Y-114730000D02*
X151965000Y-114730000D01*
X179250000Y-84000000D02*
X179250000Y-82750000D01*
X176050000Y-87675000D02*
X177225000Y-86500000D01*
X179250000Y-86500000D02*
X180535479Y-86500000D01*
X178000000Y-82750000D02*
X179250000Y-82750000D01*
D38*
X135921920Y-108622377D02*
X135921920Y-107578080D01*
D37*
X179250000Y-82750000D02*
X179250000Y-81500000D01*
X179250000Y-86500000D02*
X179250000Y-85250000D01*
X155962500Y-100075000D02*
X154687500Y-98800000D01*
D38*
X139298797Y-103232377D02*
X138566420Y-102500000D01*
D37*
X179939160Y-95408819D02*
X179939160Y-94949872D01*
D38*
X143526920Y-106026920D02*
X144500000Y-107000000D01*
D37*
X180500000Y-81500000D02*
X179250000Y-81500000D01*
X180500000Y-80250000D02*
X179250000Y-80250000D01*
D38*
X136766920Y-103814877D02*
X135819420Y-104762377D01*
D37*
X154655000Y-114730000D02*
X155200000Y-115275000D01*
X180535479Y-86500000D02*
X181249160Y-85786319D01*
X180500000Y-82750000D02*
X179250000Y-82750000D01*
D38*
X169846499Y-108937500D02*
X169486255Y-109297744D01*
D37*
X155200000Y-115275000D02*
X155200000Y-116475000D01*
X151965000Y-114730000D02*
X154655000Y-114730000D01*
X179250000Y-85250000D02*
X180712841Y-85250000D01*
X179250000Y-84000000D02*
X178000000Y-84000000D01*
X151965000Y-112190000D02*
X151965000Y-114730000D01*
D38*
X172000000Y-108937500D02*
X172000000Y-107090489D01*
D37*
X132661920Y-105827377D02*
X134754420Y-105827377D01*
X181750000Y-81500000D02*
X181750000Y-80250000D01*
D40*
X177619160Y-95956319D02*
X179391660Y-95956319D01*
D38*
X138366920Y-100872377D02*
X138366920Y-102300500D01*
D37*
X157000000Y-115275000D02*
X155200000Y-115275000D01*
X181969160Y-95461319D02*
X181969160Y-95219160D01*
D39*
X181249160Y-85786319D02*
X181249160Y-85198819D01*
D37*
X179250000Y-85250000D02*
X178000000Y-85250000D01*
D40*
X176363711Y-95956319D02*
X177619160Y-95956319D01*
D38*
X137566920Y-92372377D02*
X137566920Y-91316920D01*
D37*
X180500000Y-82750000D02*
X180500000Y-81500000D01*
D38*
X129696920Y-99489877D02*
X129696920Y-97742377D01*
X124512933Y-83102866D02*
X123226920Y-84388879D01*
X125124439Y-99489877D02*
X129696920Y-99489877D01*
X134971920Y-85247377D02*
X132827409Y-83102866D01*
X133716920Y-97022377D02*
X130416920Y-97022377D01*
X123226920Y-97592358D02*
X125124439Y-99489877D01*
X130416920Y-97022377D02*
X130006920Y-97432377D01*
X132827409Y-83102866D02*
X124512933Y-83102866D01*
X123226920Y-84388879D02*
X123226920Y-97592358D01*
X129696920Y-97742377D02*
X130006920Y-97432377D01*
D40*
X141565453Y-102021888D02*
X141701431Y-102157866D01*
X139966920Y-101972377D02*
X140016431Y-102021888D01*
X140016431Y-102021888D02*
X141565453Y-102021888D01*
X141701431Y-104105457D02*
X140574511Y-105232377D01*
D38*
X140759420Y-105764877D02*
X140226920Y-105232377D01*
D40*
X141701431Y-102157866D02*
X141701431Y-104105457D01*
X139966920Y-100872377D02*
X139966920Y-101972377D01*
D38*
X140759420Y-107312377D02*
X140759420Y-105764877D01*
D40*
X140574511Y-105232377D02*
X140226920Y-105232377D01*
D38*
X143750000Y-103009297D02*
X143526920Y-103232377D01*
X143526920Y-103232377D02*
X145999420Y-103232377D01*
X142622377Y-100872377D02*
X143750000Y-102000000D01*
X140766920Y-100872377D02*
X142622377Y-100872377D01*
X145999420Y-103232377D02*
X146036920Y-103194877D01*
X143750000Y-102000000D02*
X143750000Y-103009297D01*
D40*
X178231311Y-95456319D02*
X181249160Y-92438470D01*
X177619160Y-95456319D02*
X178231311Y-95456319D01*
D37*
X181249160Y-90786319D02*
X180061660Y-89598819D01*
D40*
X181249160Y-92438470D02*
X181249160Y-90786319D01*
D37*
X180061660Y-89598819D02*
X178069160Y-89598819D01*
D40*
X176570138Y-96456319D02*
X177619160Y-96456319D01*
X176569649Y-96456808D02*
X176570138Y-96456319D01*
X176569649Y-98799308D02*
X176569649Y-96456808D01*
X177456660Y-99686319D02*
X176569649Y-98799308D01*
D37*
X162827255Y-112130244D02*
X162802255Y-112155244D01*
X160655244Y-112155244D02*
X160500000Y-112000000D01*
X160619756Y-109380244D02*
X160500000Y-109500000D01*
X162827255Y-109380244D02*
X160619756Y-109380244D01*
X162827255Y-109380244D02*
X162827255Y-112130244D01*
D38*
X162909755Y-109297744D02*
X162827255Y-109380244D01*
X165676255Y-109297744D02*
X162909755Y-109297744D01*
D37*
X162802255Y-112155244D02*
X160655244Y-112155244D01*
D38*
X165658755Y-114230244D02*
X165676255Y-114247744D01*
X162802255Y-114230244D02*
X165658755Y-114230244D01*
D37*
X173700000Y-112875000D02*
X170858999Y-112875000D01*
D38*
X168216255Y-114247744D02*
X169486255Y-114247744D01*
X173700000Y-112712500D02*
X172000000Y-111012500D01*
D37*
X170858999Y-112875000D02*
X169486255Y-114247744D01*
D38*
X173700000Y-112875000D02*
X173700000Y-112712500D01*
D40*
X178746180Y-98583339D02*
X183814640Y-98583339D01*
X183814640Y-98583339D02*
X184269160Y-98128819D01*
X177619160Y-97456319D02*
X178746180Y-98583339D01*
X150496920Y-97012377D02*
X150526920Y-96982377D01*
X148394420Y-97012377D02*
X150496920Y-97012377D01*
X142216920Y-97022377D02*
X146309420Y-97022377D01*
X146309420Y-97022377D02*
X146319420Y-97012377D01*
X128516440Y-100501897D02*
X128496920Y-100482377D01*
X133716920Y-97822377D02*
X132616920Y-97822377D01*
X130597880Y-100501897D02*
X128516440Y-100501897D01*
X130946440Y-100153337D02*
X130597880Y-100501897D01*
X121302409Y-105330522D02*
X121302409Y-107167866D01*
X126150554Y-100482377D02*
X121302409Y-105330522D01*
X128496920Y-100482377D02*
X126150554Y-100482377D01*
X121302409Y-107167866D02*
X122501920Y-108367377D01*
X132616920Y-97822377D02*
X130946440Y-99492857D01*
X130946440Y-99492857D02*
X130946440Y-100153337D01*
X131445960Y-99793337D02*
X131445960Y-100360244D01*
X131445960Y-100360244D02*
X130804787Y-101001417D01*
X126376920Y-100981897D02*
X126357462Y-100981897D01*
X126396440Y-101001417D02*
X126376920Y-100981897D01*
X133716920Y-98622377D02*
X132616920Y-98622377D01*
X126357462Y-100981897D02*
X122501920Y-104837439D01*
X130804787Y-101001417D02*
X126396440Y-101001417D01*
X122501920Y-104837439D02*
X122501920Y-105827377D01*
X132616920Y-98622377D02*
X131445960Y-99793337D01*
X123740165Y-104305622D02*
X123740165Y-107065622D01*
X131536440Y-101602857D02*
X126442930Y-101602857D01*
X133716920Y-99422377D02*
X131536440Y-101602857D01*
X126442930Y-101602857D02*
X123740165Y-104305622D01*
X123740165Y-107065622D02*
X125041920Y-108367377D01*
X125041920Y-105827377D02*
X127242400Y-103626897D01*
X133846920Y-100872377D02*
X135166920Y-100872377D01*
X131092400Y-103626897D02*
X133846920Y-100872377D01*
X127242400Y-103626897D02*
X131092400Y-103626897D01*
X133686902Y-104126417D02*
X135966920Y-101846399D01*
X126382409Y-107167866D02*
X126382409Y-105330522D01*
X126382409Y-105330522D02*
X127586514Y-104126417D01*
X127586514Y-104126417D02*
X133686902Y-104126417D01*
X127581920Y-108367377D02*
X126382409Y-107167866D01*
X135966920Y-101846399D02*
X135966920Y-100872377D01*
X143924769Y-99422377D02*
X147111440Y-102609048D01*
X147111440Y-102609048D02*
X147111440Y-105855706D01*
D41*
X150037500Y-102675000D02*
X150037500Y-101712500D01*
X142080000Y-112045000D02*
X141073123Y-112045000D01*
D40*
X147111440Y-105855706D02*
X143464769Y-109502377D01*
X128781889Y-104627408D02*
X127581920Y-105827377D01*
D41*
X141073123Y-112045000D02*
X140430000Y-111401877D01*
D40*
X142216920Y-99422377D02*
X143924769Y-99422377D01*
X132165065Y-107026888D02*
X131336920Y-106198743D01*
X131336920Y-106198743D02*
X131336920Y-104652377D01*
X133861431Y-108084737D02*
X133861431Y-107851399D01*
X131336920Y-104652377D02*
X131311951Y-104627408D01*
X143464769Y-109502377D02*
X143127377Y-109502377D01*
X133861431Y-107851399D02*
X133036920Y-107026888D01*
X135279071Y-109502377D02*
X133861431Y-108084737D01*
D41*
X141850000Y-108605000D02*
X142747377Y-109502377D01*
D40*
X133036920Y-107026888D02*
X132165065Y-107026888D01*
D41*
X142747377Y-109502377D02*
X143127377Y-109502377D01*
X150037500Y-101712500D02*
X148900000Y-100575000D01*
D40*
X143127377Y-109502377D02*
X135279071Y-109502377D01*
D41*
X140847377Y-99422377D02*
X142216920Y-99422377D01*
X140500000Y-99075000D02*
X140847377Y-99422377D01*
D40*
X131311951Y-104627408D02*
X128781889Y-104627408D01*
X147610960Y-102402141D02*
X147610960Y-106062613D01*
X131776920Y-110022377D02*
X130121920Y-108367377D01*
D41*
X149050480Y-104287980D02*
X149050480Y-101854857D01*
D40*
X147610960Y-106062613D02*
X143651196Y-110022377D01*
X142216920Y-98622377D02*
X143831196Y-98622377D01*
D41*
X150037500Y-105275000D02*
X149050480Y-104287980D01*
X149050480Y-101854857D02*
X146900000Y-99704377D01*
X156000000Y-106375000D02*
X155875480Y-106499520D01*
X140200000Y-97375000D02*
X141447377Y-98622377D01*
X155875480Y-106499520D02*
X151262020Y-106499520D01*
X141447377Y-98622377D02*
X142216920Y-98622377D01*
D40*
X143831196Y-98622377D02*
X147610960Y-102402141D01*
X143651196Y-110022377D02*
X131776920Y-110022377D01*
D41*
X151262020Y-106499520D02*
X150037500Y-105275000D01*
X158037500Y-100075000D02*
X158037500Y-100137500D01*
X141193952Y-116245000D02*
X138132623Y-113183671D01*
X151004877Y-98979877D02*
X144895123Y-98979877D01*
D40*
X128922409Y-108864232D02*
X128922409Y-107026888D01*
D41*
X152000000Y-99975000D02*
X151004877Y-98979877D01*
D40*
X143737623Y-97822377D02*
X144895123Y-98979877D01*
X143827623Y-110552377D02*
X138132623Y-110552377D01*
X138132623Y-110552377D02*
X136677377Y-110552377D01*
X128922409Y-107026888D02*
X130121920Y-105827377D01*
D41*
X158037500Y-100137500D02*
X156000000Y-102175000D01*
X153800000Y-99975000D02*
X152000000Y-99975000D01*
X142080000Y-116245000D02*
X141193952Y-116245000D01*
X156000000Y-102175000D02*
X153800000Y-99975000D01*
D40*
X147195123Y-101279877D02*
X148110479Y-102195233D01*
X148110480Y-106269520D02*
X143827623Y-110552377D01*
X142216920Y-97822377D02*
X143737623Y-97822377D01*
X148110479Y-102195233D02*
X148110480Y-106269520D01*
X136677377Y-110552377D02*
X130610554Y-110552377D01*
D41*
X138132623Y-113183671D02*
X138132623Y-110552377D01*
D40*
X144895123Y-98979877D02*
X147195123Y-101279877D01*
X130610554Y-110552377D02*
X128922409Y-108864232D01*
X142406920Y-93822377D02*
X142216920Y-93822377D01*
X140051920Y-85247377D02*
X143205492Y-85247377D01*
X144128706Y-92100591D02*
X142406920Y-93822377D01*
X143205492Y-85247377D02*
X144128706Y-86170591D01*
X144128706Y-86170591D02*
X144128706Y-92100591D01*
X140766920Y-91398355D02*
X140766920Y-92372377D01*
X154146678Y-94922858D02*
X147030480Y-94922857D01*
X141139777Y-91999520D02*
X140766920Y-92372377D01*
X139840942Y-90472377D02*
X140766920Y-91398355D01*
X136312409Y-88287866D02*
X138496920Y-90472377D01*
X173219160Y-95956319D02*
X155180139Y-95956319D01*
X142240480Y-91999520D02*
X141139777Y-91999520D01*
X155180139Y-95956319D02*
X154146678Y-94922858D01*
X145386420Y-93278797D02*
X145386420Y-90499520D01*
X147030480Y-94922857D02*
X145386420Y-93278797D01*
X138496920Y-90472377D02*
X139840942Y-90472377D01*
X137511920Y-85247377D02*
X136312409Y-86446888D01*
X136312409Y-86446888D02*
X136312409Y-88287866D01*
X144636920Y-85972377D02*
X144636920Y-93972377D01*
X137511920Y-87787377D02*
X138852409Y-86446888D01*
X154340480Y-94409520D02*
X147756860Y-94409520D01*
X145290480Y-94519520D02*
X145187623Y-94622377D01*
X155387279Y-95456319D02*
X154340480Y-94409520D01*
X173219160Y-95456319D02*
X155387279Y-95456319D01*
X138852409Y-84047866D02*
X139567898Y-83332377D01*
X143986920Y-94622377D02*
X142216920Y-94622377D01*
X138852409Y-86446888D02*
X138852409Y-84047866D01*
X144636920Y-93972377D02*
X143986920Y-94622377D01*
X145187623Y-94622377D02*
X143986920Y-94622377D01*
X141996920Y-83332377D02*
X144636920Y-85972377D01*
X139567898Y-83332377D02*
X141996920Y-83332377D01*
X147756860Y-94409520D02*
X147520697Y-94173357D01*
D38*
X132112206Y-95422377D02*
X130576920Y-93887091D01*
X127611920Y-92072377D02*
X130556920Y-92072377D01*
X130556920Y-92072377D02*
X130576920Y-92092377D01*
X133716920Y-95422377D02*
X132112206Y-95422377D01*
X130576920Y-93887091D02*
X130576920Y-92092377D01*
X133716920Y-96222377D02*
X125716920Y-96222377D01*
X124436920Y-92707377D02*
X125071920Y-92072377D01*
X125716920Y-96222377D02*
X124436920Y-94942377D01*
X124436920Y-94942377D02*
X124436920Y-92707377D01*
X132146920Y-87752377D02*
X128846920Y-84452377D01*
X133716920Y-94622377D02*
X132442898Y-94622377D01*
X132146920Y-94326399D02*
X132146920Y-87752377D01*
X128846920Y-84452377D02*
X127611920Y-84452377D01*
X132442898Y-94622377D02*
X132146920Y-94326399D01*
X166946255Y-115295568D02*
X166366823Y-115875000D01*
X173525000Y-115575000D02*
X173580000Y-115575000D01*
X159600000Y-115875000D02*
X159000000Y-115275000D01*
X166946255Y-114247744D02*
X166946255Y-115295568D01*
X167672951Y-116022264D02*
X173077736Y-116022264D01*
X173580000Y-115575000D02*
X177300000Y-111855000D01*
X166946255Y-115295568D02*
X167672951Y-116022264D01*
D40*
X166946255Y-114247744D02*
X166946255Y-115083436D01*
D38*
X166366823Y-115875000D02*
X159600000Y-115875000D01*
X177300000Y-109315000D02*
X177300000Y-111855000D01*
X173077736Y-116022264D02*
X173525000Y-115575000D01*
X177300000Y-106775000D02*
X175542264Y-105017264D01*
X170242264Y-105017264D02*
X169177255Y-106082273D01*
X168216255Y-107228744D02*
X168216255Y-109297744D01*
X169177255Y-106082273D02*
X169177255Y-106267744D01*
X169177255Y-106267744D02*
X168216255Y-107228744D01*
X175542264Y-105017264D02*
X170242264Y-105017264D01*
X166946255Y-109297744D02*
X166946255Y-106373744D01*
D40*
X165902735Y-103447265D02*
X165902735Y-105318224D01*
D38*
X166946255Y-106373744D02*
X166952255Y-106367744D01*
D40*
X167757496Y-101592504D02*
X165902735Y-103447265D01*
X165902735Y-105318224D02*
X166952255Y-106367744D01*
X173227495Y-101592504D02*
X167757496Y-101592504D01*
X173219160Y-99584169D02*
X173227495Y-99592504D01*
X173219160Y-97456319D02*
X173219160Y-99584169D01*
X166952255Y-104367744D02*
X177158234Y-104367744D01*
X180125489Y-101400489D02*
X182665489Y-101400489D01*
X182665489Y-101400489D02*
X183865000Y-102600000D01*
X177158234Y-104367744D02*
X180125489Y-101400489D01*
D38*
X183240978Y-111315000D02*
X181325000Y-109399022D01*
X181325000Y-109399022D02*
X181325000Y-102600000D01*
X184000000Y-111315000D02*
X183240978Y-111315000D01*
D40*
X154973711Y-96456319D02*
X153939769Y-95422377D01*
X173219160Y-96456319D02*
X154973711Y-96456319D01*
X153939769Y-95422377D02*
X142216920Y-95422377D01*
D41*
X146475000Y-109650000D02*
X144080000Y-112045000D01*
X149425000Y-109650000D02*
X146475000Y-109650000D01*
X144080000Y-114145000D02*
X144080000Y-112045000D01*
X158000000Y-104275000D02*
X158000000Y-106375000D01*
X154725000Y-109650000D02*
X151965000Y-109650000D01*
X158000000Y-106375000D02*
X154725000Y-109650000D01*
X149425000Y-112190000D02*
X145370000Y-116245000D01*
X145370000Y-116245000D02*
X144080000Y-116245000D01*
%TA.AperFunction,Conductor*%
G36*
X164442121Y-103020002D02*
G01*
X164488614Y-103073658D01*
X164500000Y-103126000D01*
X164500000Y-107624000D01*
X164479998Y-107692121D01*
X164426342Y-107738614D01*
X164374000Y-107750000D01*
X160126000Y-107750000D01*
X160057879Y-107729998D01*
X160011386Y-107676342D01*
X160000000Y-107624000D01*
X160000000Y-104545618D01*
X160020002Y-104477497D01*
X160029204Y-104464955D01*
X161059303Y-103228836D01*
X161118278Y-103189310D01*
X161156098Y-103183500D01*
X162632226Y-103183500D01*
X162647145Y-103184386D01*
X162678777Y-103188158D01*
X162684912Y-103187686D01*
X162684914Y-103187686D01*
X162734489Y-103183871D01*
X162744156Y-103183500D01*
X162749769Y-103183500D01*
X162786591Y-103179890D01*
X162789212Y-103179660D01*
X162795818Y-103179152D01*
X162869831Y-103173457D01*
X162869835Y-103173456D01*
X162875972Y-103172984D01*
X162881903Y-103171328D01*
X162886345Y-103170545D01*
X162890708Y-103169681D01*
X162896833Y-103169080D01*
X162980131Y-103143931D01*
X162982665Y-103143195D01*
X163060525Y-103121456D01*
X163060526Y-103121456D01*
X163066463Y-103119798D01*
X163071967Y-103117018D01*
X163076164Y-103115390D01*
X163080273Y-103113696D01*
X163086169Y-103111916D01*
X163162994Y-103071068D01*
X163165336Y-103069854D01*
X163237502Y-103033400D01*
X163242996Y-103030625D01*
X163247847Y-103026835D01*
X163251585Y-103024463D01*
X163255348Y-103021963D01*
X163257515Y-103020810D01*
X163258063Y-103020645D01*
X163260503Y-103019222D01*
X163260591Y-103019175D01*
X163260916Y-103019784D01*
X163326447Y-103000000D01*
X164374000Y-103000000D01*
X164442121Y-103020002D01*
G37*
%TD.AperFunction*%
%TA.AperFunction,Conductor*%
G36*
X161742118Y-108670004D02*
G01*
X161788612Y-108723658D01*
X161800000Y-108776004D01*
X161800000Y-112773723D01*
X161779998Y-112841844D01*
X161726342Y-112888337D01*
X161673725Y-112899723D01*
X155973981Y-112887198D01*
X155905906Y-112867046D01*
X155859532Y-112813288D01*
X155848260Y-112761069D01*
X155851616Y-109471349D01*
X155871688Y-109403249D01*
X155888521Y-109382383D01*
X156583843Y-108687061D01*
X156646155Y-108653035D01*
X156672934Y-108650156D01*
X157452507Y-108650132D01*
X161673996Y-108650004D01*
X161742118Y-108670004D01*
G37*
%TD.AperFunction*%
%TA.AperFunction,Conductor*%
G36*
X189442121Y-89520002D02*
G01*
X189488614Y-89573658D01*
X189500000Y-89626000D01*
X189500000Y-96624000D01*
X189479998Y-96692121D01*
X189426342Y-96738614D01*
X189374000Y-96750000D01*
X185783462Y-96750000D01*
X185720949Y-96733399D01*
X184063487Y-95786278D01*
X184014265Y-95735114D01*
X184000000Y-95676879D01*
X184000000Y-89626000D01*
X184020002Y-89557879D01*
X184073658Y-89511386D01*
X184126000Y-89500000D01*
X189374000Y-89500000D01*
X189442121Y-89520002D01*
G37*
%TD.AperFunction*%
M02*
