%TF.GenerationSoftware,KiCad,Pcbnew,(6.0.1)*%
%TF.CreationDate,2022-03-15T16:21:16+01:00*%
%TF.ProjectId,SignalGenerator,5369676e-616c-4476-956e-657261746f72,0.3*%
%TF.SameCoordinates,Original*%
%TF.FileFunction,Copper,L4,Bot*%
%TF.FilePolarity,Positive*%
%FSLAX46Y46*%
G04 Gerber Fmt 4.6, Leading zero omitted, Abs format (unit mm)*
G04 Created by KiCad (PCBNEW (6.0.1)) date 2022-03-15 16:21:16*
%MOMM*%
%LPD*%
G01*
G04 APERTURE LIST*
%TA.AperFunction,ComponentPad*%
%ADD10R,1.700000X1.700000*%
%TD*%
%TA.AperFunction,ComponentPad*%
%ADD11O,1.700000X1.700000*%
%TD*%
%TA.AperFunction,ComponentPad*%
%ADD12R,3.000000X3.000000*%
%TD*%
%TA.AperFunction,ComponentPad*%
%ADD13C,3.000000*%
%TD*%
%TA.AperFunction,ViaPad*%
%ADD14C,1.000000*%
%TD*%
%TA.AperFunction,ViaPad*%
%ADD15C,0.800000*%
%TD*%
%TA.AperFunction,Conductor*%
%ADD16C,3.000000*%
%TD*%
%TA.AperFunction,Conductor*%
%ADD17C,1.000000*%
%TD*%
%TA.AperFunction,Conductor*%
%ADD18C,0.300000*%
%TD*%
G04 APERTURE END LIST*
D10*
X184000000Y-108775000D03*
D11*
X184000000Y-111315000D03*
X184000000Y-113855000D03*
D10*
X177300000Y-106775000D03*
D11*
X177300000Y-109315000D03*
X177300000Y-111855000D03*
D10*
X122501920Y-108367377D03*
D11*
X122501920Y-105827377D03*
X125041920Y-108367377D03*
X125041920Y-105827377D03*
X127581920Y-108367377D03*
X127581920Y-105827377D03*
X130121920Y-108367377D03*
X130121920Y-105827377D03*
X132661920Y-108367377D03*
X132661920Y-105827377D03*
D10*
X149000000Y-110575000D03*
D11*
X151540000Y-110575000D03*
X149000000Y-113115000D03*
X151540000Y-113115000D03*
D10*
X127611920Y-92072377D03*
D11*
X125071920Y-92072377D03*
X127611920Y-89532377D03*
X125071920Y-89532377D03*
X127611920Y-86992377D03*
X125071920Y-86992377D03*
X127611920Y-84452377D03*
X125071920Y-84452377D03*
D10*
X173525000Y-115575000D03*
D11*
X176065000Y-115575000D03*
D12*
X153332980Y-86042020D03*
D13*
X158332980Y-86042020D03*
X163332980Y-86042020D03*
X168332980Y-86042020D03*
D10*
X140051920Y-85247377D03*
D11*
X140051920Y-87787377D03*
X137511920Y-85247377D03*
X137511920Y-87787377D03*
X134971920Y-85247377D03*
X134971920Y-87787377D03*
D10*
X181325000Y-102600000D03*
D11*
X183865000Y-102600000D03*
X186405000Y-102600000D03*
D14*
X160500000Y-112000000D03*
X159250000Y-110750000D03*
X156750000Y-109500000D03*
X158000000Y-110750000D03*
X159250000Y-109500000D03*
X158000000Y-112000000D03*
X156750000Y-112000000D03*
X159250000Y-112000000D03*
X160500000Y-110750000D03*
X160500000Y-109500000D03*
X158000000Y-109500000D03*
X156750000Y-110750000D03*
X173700000Y-112875000D03*
D15*
X142240480Y-91999520D03*
X145386420Y-90499520D03*
X147520697Y-94173357D03*
X145290480Y-94519520D03*
D16*
X163332980Y-98242020D02*
X163332980Y-86042020D01*
D17*
X160500000Y-112000000D02*
X165924511Y-117424511D01*
D16*
X156750000Y-104825000D02*
X163332980Y-98242020D01*
D17*
X155675000Y-110575000D02*
X156750000Y-109500000D01*
X151540000Y-110575000D02*
X155675000Y-110575000D01*
X165924511Y-117424511D02*
X180430489Y-117424511D01*
D16*
X156750000Y-109500000D02*
X156750000Y-104825000D01*
D17*
X180430489Y-117424511D02*
X184000000Y-113855000D01*
D16*
X170425000Y-81900000D02*
X172725000Y-84200000D01*
D17*
X174454751Y-112120249D02*
X173700000Y-112875000D01*
D16*
X168300000Y-101125000D02*
X171095249Y-103920249D01*
X158332980Y-98292952D02*
X150500000Y-106125932D01*
X174454751Y-103920249D02*
X178050000Y-103920249D01*
X158332980Y-86042020D02*
X158332980Y-98292952D01*
D17*
X149000000Y-107775000D02*
X150500000Y-106275000D01*
D16*
X171095249Y-103920249D02*
X174454751Y-103920249D01*
X172725000Y-84200000D02*
X172725000Y-87525000D01*
D17*
X174454751Y-103920249D02*
X174454751Y-112120249D01*
X179145249Y-103920249D02*
X184000000Y-108775000D01*
X149000000Y-110575000D02*
X149000000Y-107775000D01*
D16*
X150500000Y-106125932D02*
X150500000Y-106275000D01*
D17*
X178050000Y-103920249D02*
X179145249Y-103920249D01*
D16*
X172725000Y-87525000D02*
X168300000Y-91950000D01*
X168300000Y-91950000D02*
X168300000Y-101125000D01*
X162475000Y-81900000D02*
X170425000Y-81900000D01*
X158332980Y-86042020D02*
X162475000Y-81900000D01*
D18*
X143740480Y-90499520D02*
X142240480Y-91999520D01*
X145386420Y-90499520D02*
X143740480Y-90499520D01*
X147520697Y-94173357D02*
X145636643Y-94173357D01*
X145636643Y-94173357D02*
X145290480Y-94519520D01*
%TA.AperFunction,Conductor*%
G36*
X161742121Y-108670002D02*
G01*
X161788614Y-108723658D01*
X161800000Y-108776000D01*
X161800000Y-112774000D01*
X161779998Y-112842121D01*
X161726342Y-112888614D01*
X161674000Y-112900000D01*
X155976000Y-112900000D01*
X155907879Y-112879998D01*
X155861386Y-112826342D01*
X155850000Y-112774000D01*
X155850000Y-108776000D01*
X155870002Y-108707879D01*
X155923658Y-108661386D01*
X155976000Y-108650000D01*
X161674000Y-108650000D01*
X161742121Y-108670002D01*
G37*
%TD.AperFunction*%
M02*
