%TF.GenerationSoftware,KiCad,Pcbnew,(6.0.1)*%
%TF.CreationDate,2022-03-15T16:21:16+01:00*%
%TF.ProjectId,SignalGenerator,5369676e-616c-4476-956e-657261746f72,0.3*%
%TF.SameCoordinates,Original*%
%TF.FileFunction,Copper,L1,Top*%
%TF.FilePolarity,Positive*%
%FSLAX46Y46*%
G04 Gerber Fmt 4.6, Leading zero omitted, Abs format (unit mm)*
G04 Created by KiCad (PCBNEW (6.0.1)) date 2022-03-15 16:21:16*
%MOMM*%
%LPD*%
G01*
G04 APERTURE LIST*
G04 Aperture macros list*
%AMRoundRect*
0 Rectangle with rounded corners*
0 $1 Rounding radius*
0 $2 $3 $4 $5 $6 $7 $8 $9 X,Y pos of 4 corners*
0 Add a 4 corners polygon primitive as box body*
4,1,4,$2,$3,$4,$5,$6,$7,$8,$9,$2,$3,0*
0 Add four circle primitives for the rounded corners*
1,1,$1+$1,$2,$3*
1,1,$1+$1,$4,$5*
1,1,$1+$1,$6,$7*
1,1,$1+$1,$8,$9*
0 Add four rect primitives between the rounded corners*
20,1,$1+$1,$2,$3,$4,$5,0*
20,1,$1+$1,$4,$5,$6,$7,0*
20,1,$1+$1,$6,$7,$8,$9,0*
20,1,$1+$1,$8,$9,$2,$3,0*%
G04 Aperture macros list end*
%TA.AperFunction,ComponentPad*%
%ADD10R,1.700000X1.700000*%
%TD*%
%TA.AperFunction,ComponentPad*%
%ADD11O,1.700000X1.700000*%
%TD*%
%TA.AperFunction,SMDPad,CuDef*%
%ADD12RoundRect,0.250000X-0.475000X0.337500X-0.475000X-0.337500X0.475000X-0.337500X0.475000X0.337500X0*%
%TD*%
%TA.AperFunction,SMDPad,CuDef*%
%ADD13RoundRect,0.250000X-0.400000X-0.625000X0.400000X-0.625000X0.400000X0.625000X-0.400000X0.625000X0*%
%TD*%
%TA.AperFunction,SMDPad,CuDef*%
%ADD14RoundRect,0.250000X0.337500X0.475000X-0.337500X0.475000X-0.337500X-0.475000X0.337500X-0.475000X0*%
%TD*%
%TA.AperFunction,SMDPad,CuDef*%
%ADD15RoundRect,0.250000X0.475000X-0.337500X0.475000X0.337500X-0.475000X0.337500X-0.475000X-0.337500X0*%
%TD*%
%TA.AperFunction,SMDPad,CuDef*%
%ADD16RoundRect,0.250000X0.275000X-0.400000X0.275000X0.400000X-0.275000X0.400000X-0.275000X-0.400000X0*%
%TD*%
%TA.AperFunction,SMDPad,CuDef*%
%ADD17R,1.400000X0.300000*%
%TD*%
%TA.AperFunction,SMDPad,CuDef*%
%ADD18RoundRect,0.250000X-0.337500X-0.475000X0.337500X-0.475000X0.337500X0.475000X-0.337500X0.475000X0*%
%TD*%
%TA.AperFunction,SMDPad,CuDef*%
%ADD19RoundRect,0.250000X0.450000X-0.350000X0.450000X0.350000X-0.450000X0.350000X-0.450000X-0.350000X0*%
%TD*%
%TA.AperFunction,SMDPad,CuDef*%
%ADD20RoundRect,0.250000X-0.350000X-0.450000X0.350000X-0.450000X0.350000X0.450000X-0.350000X0.450000X0*%
%TD*%
%TA.AperFunction,SMDPad,CuDef*%
%ADD21R,1.980000X3.000000*%
%TD*%
%TA.AperFunction,ComponentPad*%
%ADD22R,3.000000X3.000000*%
%TD*%
%TA.AperFunction,ComponentPad*%
%ADD23C,3.000000*%
%TD*%
%TA.AperFunction,SMDPad,CuDef*%
%ADD24RoundRect,0.250000X0.400000X0.275000X-0.400000X0.275000X-0.400000X-0.275000X0.400000X-0.275000X0*%
%TD*%
%TA.AperFunction,SMDPad,CuDef*%
%ADD25RoundRect,0.250000X0.650000X-0.412500X0.650000X0.412500X-0.650000X0.412500X-0.650000X-0.412500X0*%
%TD*%
%TA.AperFunction,SMDPad,CuDef*%
%ADD26R,2.250000X1.500000*%
%TD*%
%TA.AperFunction,SMDPad,CuDef*%
%ADD27R,2.250000X1.575000*%
%TD*%
%TA.AperFunction,SMDPad,CuDef*%
%ADD28R,2.250000X1.450000*%
%TD*%
%TA.AperFunction,SMDPad,CuDef*%
%ADD29R,0.550000X1.600000*%
%TD*%
%TA.AperFunction,SMDPad,CuDef*%
%ADD30R,1.600000X0.550000*%
%TD*%
%TA.AperFunction,SMDPad,CuDef*%
%ADD31RoundRect,0.250000X0.350000X0.450000X-0.350000X0.450000X-0.350000X-0.450000X0.350000X-0.450000X0*%
%TD*%
%TA.AperFunction,SMDPad,CuDef*%
%ADD32RoundRect,0.250000X-0.450000X0.350000X-0.450000X-0.350000X0.450000X-0.350000X0.450000X0.350000X0*%
%TD*%
%TA.AperFunction,SMDPad,CuDef*%
%ADD33RoundRect,0.150000X-0.150000X0.825000X-0.150000X-0.825000X0.150000X-0.825000X0.150000X0.825000X0*%
%TD*%
%TA.AperFunction,ViaPad*%
%ADD34C,0.800000*%
%TD*%
%TA.AperFunction,ViaPad*%
%ADD35C,1.000000*%
%TD*%
%TA.AperFunction,Conductor*%
%ADD36C,1.000000*%
%TD*%
%TA.AperFunction,Conductor*%
%ADD37C,0.600000*%
%TD*%
%TA.AperFunction,Conductor*%
%ADD38C,1.500000*%
%TD*%
%TA.AperFunction,Conductor*%
%ADD39C,0.300000*%
%TD*%
G04 APERTURE END LIST*
D10*
X184000000Y-108775000D03*
D11*
X184000000Y-111315000D03*
X184000000Y-113855000D03*
D10*
X177300000Y-106775000D03*
D11*
X177300000Y-109315000D03*
X177300000Y-111855000D03*
D10*
X122501920Y-108367377D03*
D11*
X122501920Y-105827377D03*
X125041920Y-108367377D03*
X125041920Y-105827377D03*
X127581920Y-108367377D03*
X127581920Y-105827377D03*
X130121920Y-108367377D03*
X130121920Y-105827377D03*
X132661920Y-108367377D03*
X132661920Y-105827377D03*
D12*
X179939160Y-95408819D03*
X179939160Y-97483819D03*
D13*
X150526920Y-96982377D03*
X153626920Y-96982377D03*
D10*
X149000000Y-110575000D03*
D11*
X151540000Y-110575000D03*
X149000000Y-113115000D03*
X151540000Y-113115000D03*
D10*
X127611920Y-92072377D03*
D11*
X125071920Y-92072377D03*
X127611920Y-89532377D03*
X125071920Y-89532377D03*
X127611920Y-86992377D03*
X125071920Y-86992377D03*
X127611920Y-84452377D03*
X125071920Y-84452377D03*
D14*
X148394420Y-97012377D03*
X146319420Y-97012377D03*
D15*
X162802255Y-114230244D03*
X162802255Y-112155244D03*
D12*
X178069160Y-89598819D03*
X178069160Y-91673819D03*
D16*
X181969160Y-97411319D03*
X181969160Y-95461319D03*
D14*
X177456660Y-99686319D03*
X175381660Y-99686319D03*
D17*
X177619160Y-97456319D03*
X177619160Y-96956319D03*
X177619160Y-96456319D03*
X177619160Y-95956319D03*
X177619160Y-95456319D03*
X173219160Y-95456319D03*
X173219160Y-95956319D03*
X173219160Y-96456319D03*
X173219160Y-96956319D03*
X173219160Y-97456319D03*
D18*
X140759420Y-107312377D03*
X142834420Y-107312377D03*
D10*
X173525000Y-115575000D03*
D11*
X176065000Y-115575000D03*
D19*
X130576920Y-92092377D03*
X130576920Y-90092377D03*
D20*
X169177255Y-106267744D03*
X171177255Y-106267744D03*
D21*
X186509160Y-85786319D03*
X181249160Y-85786319D03*
X181249160Y-90786319D03*
X186509160Y-90786319D03*
D19*
X166952255Y-106367744D03*
X166952255Y-104367744D03*
D20*
X157000000Y-115275000D03*
X159000000Y-115275000D03*
D22*
X153332980Y-86042020D03*
D23*
X158332980Y-86042020D03*
X163332980Y-86042020D03*
X168332980Y-86042020D03*
D24*
X137871920Y-108622377D03*
X135921920Y-108622377D03*
D12*
X146036920Y-103194877D03*
X146036920Y-105269877D03*
D10*
X140051920Y-85247377D03*
D11*
X140051920Y-87787377D03*
X137511920Y-85247377D03*
X137511920Y-87787377D03*
X134971920Y-85247377D03*
X134971920Y-87787377D03*
D19*
X173227495Y-101592504D03*
X173227495Y-99592504D03*
D25*
X184269160Y-98128819D03*
X184269160Y-95003819D03*
D10*
X181325000Y-102600000D03*
D11*
X183865000Y-102600000D03*
X186405000Y-102600000D03*
D26*
X140226920Y-105232377D03*
D27*
X143526920Y-105232377D03*
D28*
X143526920Y-103232377D03*
X140226920Y-103232377D03*
D14*
X137894420Y-104762377D03*
X135819420Y-104762377D03*
D12*
X172000000Y-108937500D03*
X172000000Y-111012500D03*
D18*
X184171660Y-82276319D03*
X186246660Y-82276319D03*
D29*
X135166920Y-100872377D03*
X135966920Y-100872377D03*
X136766920Y-100872377D03*
X137566920Y-100872377D03*
X138366920Y-100872377D03*
X139166920Y-100872377D03*
X139966920Y-100872377D03*
X140766920Y-100872377D03*
D30*
X142216920Y-99422377D03*
X142216920Y-98622377D03*
X142216920Y-97822377D03*
X142216920Y-97022377D03*
X142216920Y-96222377D03*
X142216920Y-95422377D03*
X142216920Y-94622377D03*
X142216920Y-93822377D03*
D29*
X140766920Y-92372377D03*
X139966920Y-92372377D03*
X139166920Y-92372377D03*
X138366920Y-92372377D03*
X137566920Y-92372377D03*
X136766920Y-92372377D03*
X135966920Y-92372377D03*
X135166920Y-92372377D03*
D30*
X133716920Y-93822377D03*
X133716920Y-94622377D03*
X133716920Y-95422377D03*
X133716920Y-96222377D03*
X133716920Y-97022377D03*
X133716920Y-97822377D03*
X133716920Y-98622377D03*
X133716920Y-99422377D03*
D31*
X130006920Y-97432377D03*
X128006920Y-97432377D03*
D32*
X124436920Y-94942377D03*
X124436920Y-96942377D03*
D15*
X162827255Y-109380244D03*
X162827255Y-107305244D03*
D33*
X169486255Y-109297744D03*
X168216255Y-109297744D03*
X166946255Y-109297744D03*
X165676255Y-109297744D03*
X165676255Y-114247744D03*
X166946255Y-114247744D03*
X168216255Y-114247744D03*
X169486255Y-114247744D03*
D34*
X143600000Y-115775000D03*
D35*
X188750000Y-96000000D03*
X139250000Y-108500000D03*
X187500000Y-94750000D03*
D34*
X145600000Y-113875000D03*
X145600000Y-114875000D03*
D35*
X187500000Y-96000000D03*
X142600000Y-87800000D03*
X188750000Y-92000000D03*
X188750000Y-93500000D03*
D34*
X144600000Y-113875000D03*
D35*
X186250000Y-96000000D03*
D34*
X144600000Y-114875000D03*
D35*
X139975000Y-95325000D03*
X188750000Y-90750000D03*
D34*
X143600000Y-114875000D03*
D35*
X142600000Y-89000000D03*
X186250000Y-94750000D03*
X126250000Y-97500000D03*
X187500000Y-93500000D03*
X188750000Y-94750000D03*
D34*
X145600000Y-115775000D03*
D35*
X139975000Y-94100000D03*
D34*
X144600000Y-115775000D03*
D35*
X186250000Y-93500000D03*
X139000000Y-107250000D03*
X126750000Y-98490357D03*
D34*
X143600000Y-113875000D03*
D35*
X186500000Y-100250000D03*
X181750000Y-81500000D03*
X182000000Y-94000000D03*
X161250000Y-105500000D03*
X163750000Y-104250000D03*
X153625000Y-98800000D03*
X179250000Y-80250000D03*
X178000000Y-86500000D03*
X182750000Y-93250000D03*
X161250000Y-104250000D03*
X155200000Y-115275000D03*
X180500000Y-80250000D03*
X135921920Y-107578080D03*
X152600000Y-115275000D03*
X178000000Y-81500000D03*
X179250000Y-85250000D03*
X174400000Y-106475000D03*
X135921920Y-106328080D03*
X183000000Y-81500000D03*
X178000000Y-84000000D03*
X183000000Y-80250000D03*
X144500000Y-107000000D03*
X178075000Y-93075000D03*
X174400000Y-107675000D03*
X180500000Y-82750000D03*
X187750000Y-100250000D03*
X178000000Y-85250000D03*
X175400000Y-101175000D03*
X178000000Y-80250000D03*
X187750000Y-99000000D03*
X152600000Y-116475000D03*
X179250000Y-86500000D03*
X172955251Y-106419749D03*
X138566420Y-102500000D03*
X163750000Y-105500000D03*
X162500000Y-104250000D03*
X179250000Y-82750000D03*
X180500000Y-81500000D03*
X176800000Y-93100000D03*
X179250000Y-81500000D03*
X151400000Y-116475000D03*
X162500000Y-105500000D03*
X155200000Y-116475000D03*
X153900000Y-116475000D03*
X153900000Y-115275000D03*
X179250000Y-84000000D03*
X181750000Y-80250000D03*
X151400000Y-115275000D03*
X178000000Y-82750000D03*
X174400000Y-108875000D03*
X174400000Y-110175000D03*
X186500000Y-99000000D03*
X175400000Y-102325000D03*
X180819516Y-94069516D03*
X160500000Y-112000000D03*
X159250000Y-110750000D03*
X156750000Y-109500000D03*
X158000000Y-110750000D03*
X159250000Y-109500000D03*
X158000000Y-112000000D03*
X156750000Y-112000000D03*
X159250000Y-112000000D03*
X160500000Y-110750000D03*
X160500000Y-109500000D03*
X158000000Y-109500000D03*
X156750000Y-110750000D03*
X173700000Y-112875000D03*
D34*
X142240480Y-91999520D03*
X145386420Y-90499520D03*
X147520697Y-94173357D03*
X145290480Y-94519520D03*
D36*
X137871920Y-108622377D02*
X139127623Y-108622377D01*
D37*
X137566920Y-99598355D02*
X137566920Y-100872377D01*
D36*
X130016920Y-89532377D02*
X130576920Y-90092377D01*
X126250000Y-97500000D02*
X126250000Y-97990357D01*
X149000000Y-113115000D02*
X146360000Y-113115000D01*
X139127623Y-108622377D02*
X139250000Y-108500000D01*
X186500000Y-90795479D02*
X186509160Y-90786319D01*
D38*
X179962140Y-97460839D02*
X181969160Y-97460839D01*
D37*
X139966920Y-92372377D02*
X139966920Y-94091920D01*
D36*
X137871920Y-108128080D02*
X137871920Y-104784877D01*
X126250000Y-97990357D02*
X126750000Y-98490357D01*
D37*
X137592409Y-99572866D02*
X137566920Y-99598355D01*
D36*
X188198671Y-83917711D02*
X186557279Y-82276319D01*
D37*
X139966920Y-94091920D02*
X139975000Y-94100000D01*
D36*
X182069090Y-97411319D02*
X181969160Y-97411319D01*
X140051920Y-87787377D02*
X142587377Y-87787377D01*
D37*
X139975000Y-94100000D02*
X139975000Y-95325000D01*
D36*
X142600000Y-87800000D02*
X142600000Y-89000000D01*
D39*
X177619160Y-96956319D02*
X179411660Y-96956319D01*
D36*
X184269160Y-95003819D02*
X184269160Y-95211249D01*
X139250000Y-107500000D02*
X139000000Y-107250000D01*
X127611920Y-89532377D02*
X130016920Y-89532377D01*
X184269160Y-93026319D02*
X186509160Y-90786319D01*
X184269160Y-95003819D02*
X184269160Y-93026319D01*
D38*
X179939160Y-97483819D02*
X179962140Y-97460839D01*
D36*
X186557279Y-82276319D02*
X186246660Y-82276319D01*
X137871920Y-108128080D02*
X138750000Y-107250000D01*
X126317623Y-97432377D02*
X126250000Y-97500000D01*
X124436920Y-96942377D02*
X124994543Y-97500000D01*
X146360000Y-113115000D02*
X145600000Y-113875000D01*
D37*
X139166920Y-100872377D02*
X139166920Y-99598355D01*
D36*
X184269160Y-95211249D02*
X182069090Y-97411319D01*
X127611920Y-86992377D02*
X127611920Y-89532377D01*
D37*
X139166920Y-99598355D02*
X139141431Y-99572866D01*
D36*
X139975000Y-95325000D02*
X139975000Y-97995732D01*
X138750000Y-107250000D02*
X139000000Y-107250000D01*
X139250000Y-108500000D02*
X139250000Y-107500000D01*
D37*
X137566920Y-100872377D02*
X137566920Y-104434877D01*
D36*
X142587377Y-87787377D02*
X142600000Y-87800000D01*
D39*
X179411660Y-96956319D02*
X179939160Y-97483819D01*
D36*
X137871920Y-104784877D02*
X137894420Y-104762377D01*
X137871920Y-108622377D02*
X137871920Y-108128080D01*
D37*
X137566920Y-104434877D02*
X137894420Y-104762377D01*
D36*
X124994543Y-97500000D02*
X126250000Y-97500000D01*
X128006920Y-97432377D02*
X126317623Y-97432377D01*
D37*
X139141431Y-99572866D02*
X137592409Y-99572866D01*
D36*
X139141431Y-98829301D02*
X139141431Y-99572866D01*
X188198671Y-89096808D02*
X188198671Y-83917711D01*
X139975000Y-97995732D02*
X139141431Y-98829301D01*
X186509160Y-90786319D02*
X188198671Y-89096808D01*
X187750000Y-99000000D02*
X186500000Y-100250000D01*
D37*
X135921920Y-107578080D02*
X135921920Y-106328080D01*
D36*
X178050000Y-93100000D02*
X178075000Y-93075000D01*
X181969160Y-95219160D02*
X180819516Y-94069516D01*
X176050000Y-92350000D02*
X176050000Y-87675000D01*
D37*
X146036920Y-105269877D02*
X143564420Y-105269877D01*
D36*
X175381660Y-99686319D02*
X175381660Y-101156660D01*
D38*
X181916660Y-95408819D02*
X181969160Y-95461319D01*
D39*
X176569649Y-94654851D02*
X176800000Y-94424501D01*
X175363711Y-96956319D02*
X176363711Y-95956319D01*
D36*
X174400000Y-107675000D02*
X174400000Y-108875000D01*
D37*
X135921920Y-106328080D02*
X135921920Y-104864877D01*
D36*
X174337500Y-108937500D02*
X174400000Y-108875000D01*
X172955251Y-106419749D02*
X174344749Y-106419749D01*
D39*
X176569649Y-95955830D02*
X176569649Y-94654851D01*
D36*
X174400000Y-106475000D02*
X174400000Y-107675000D01*
D37*
X143564420Y-105269877D02*
X143526920Y-105232377D01*
D36*
X186405000Y-101595000D02*
X187750000Y-100250000D01*
X175400000Y-101175000D02*
X175400000Y-102150000D01*
X177225000Y-86500000D02*
X178000000Y-86500000D01*
X125071920Y-86992377D02*
X125071920Y-89532377D01*
D39*
X179391660Y-95956319D02*
X179939160Y-95408819D01*
D36*
X181969160Y-94280840D02*
X181969160Y-94030840D01*
D39*
X173219160Y-96956319D02*
X175363711Y-96956319D01*
X174268182Y-96956319D02*
X176800000Y-94424501D01*
D36*
X186405000Y-100345000D02*
X186500000Y-100250000D01*
D37*
X142834420Y-105924877D02*
X143526920Y-105232377D01*
X138366920Y-102300500D02*
X138566420Y-102500000D01*
D36*
X181969160Y-95461319D02*
X181969160Y-94280840D01*
X178075000Y-91679659D02*
X178069160Y-91673819D01*
X153626920Y-98798080D02*
X153625000Y-98800000D01*
X176800000Y-93100000D02*
X178050000Y-93100000D01*
D38*
X179939160Y-95408819D02*
X181916660Y-95408819D01*
D37*
X172000000Y-108937500D02*
X169846499Y-108937500D01*
D36*
X151540000Y-113115000D02*
X153040000Y-113115000D01*
D37*
X172803246Y-106267744D02*
X172955251Y-106419749D01*
D36*
X186500000Y-99000000D02*
X187500000Y-99000000D01*
D37*
X143526920Y-105232377D02*
X143526920Y-106026920D01*
D36*
X186500000Y-100250000D02*
X187500000Y-100250000D01*
X153626920Y-96982377D02*
X153626920Y-98798080D01*
X181930484Y-94069516D02*
X182000000Y-94000000D01*
D37*
X135921920Y-104864877D02*
X135819420Y-104762377D01*
D39*
X176570138Y-95956319D02*
X176569649Y-95955830D01*
D36*
X172000000Y-108937500D02*
X174337500Y-108937500D01*
D37*
X134971920Y-88721920D02*
X134971920Y-87787377D01*
X172000000Y-107090489D02*
X171177255Y-106267744D01*
D36*
X134754420Y-105827377D02*
X135819420Y-104762377D01*
D39*
X173219160Y-96956319D02*
X174268182Y-96956319D01*
D36*
X182000000Y-94000000D02*
X182750000Y-93250000D01*
D39*
X176800000Y-94424501D02*
X176800000Y-93100000D01*
D36*
X180819516Y-94069516D02*
X181930484Y-94069516D01*
D37*
X142834420Y-107312377D02*
X142834420Y-105924877D01*
D36*
X178075000Y-93075000D02*
X178075000Y-91679659D01*
D37*
X171177255Y-106267744D02*
X172803246Y-106267744D01*
D36*
X186405000Y-102600000D02*
X186405000Y-101595000D01*
X187750000Y-100250000D02*
X187750000Y-99000000D01*
X174344749Y-106419749D02*
X174400000Y-106475000D01*
X176800000Y-93100000D02*
X176050000Y-92350000D01*
X186405000Y-102600000D02*
X186405000Y-100345000D01*
X175381660Y-101156660D02*
X175400000Y-101175000D01*
D37*
X136766920Y-100872377D02*
X136766920Y-103814877D01*
D36*
X181969160Y-94030840D02*
X182000000Y-94000000D01*
D37*
X137566920Y-91316920D02*
X134971920Y-88721920D01*
D38*
X181249160Y-85198819D02*
X184171660Y-82276319D01*
D36*
X179939160Y-94949872D02*
X180819516Y-94069516D01*
D39*
X177619160Y-95956319D02*
X176570138Y-95956319D01*
D36*
X186500000Y-100250000D02*
X186500000Y-99000000D01*
X176050000Y-87675000D02*
X177225000Y-86500000D01*
D37*
X135921920Y-108622377D02*
X135921920Y-107578080D01*
X139298797Y-103232377D02*
X138566420Y-102500000D01*
D36*
X179939160Y-95408819D02*
X179939160Y-94949872D01*
D37*
X143526920Y-106026920D02*
X144500000Y-107000000D01*
D36*
X174400000Y-108875000D02*
X174400000Y-110175000D01*
X153040000Y-113115000D02*
X155200000Y-115275000D01*
D37*
X136766920Y-103814877D02*
X135819420Y-104762377D01*
X169846499Y-108937500D02*
X169486255Y-109297744D01*
X172000000Y-108937500D02*
X172000000Y-107090489D01*
D36*
X132661920Y-105827377D02*
X134754420Y-105827377D01*
D39*
X177619160Y-95956319D02*
X179391660Y-95956319D01*
D37*
X138366920Y-100872377D02*
X138366920Y-102300500D01*
D36*
X157000000Y-115275000D02*
X155200000Y-115275000D01*
X181969160Y-95461319D02*
X181969160Y-95219160D01*
D38*
X181249160Y-85786319D02*
X181249160Y-85198819D01*
D39*
X176363711Y-95956319D02*
X177619160Y-95956319D01*
D37*
X137566920Y-92372377D02*
X137566920Y-91316920D01*
X129696920Y-99489877D02*
X129696920Y-97742377D01*
X124512933Y-83102866D02*
X123226920Y-84388879D01*
X125124439Y-99489877D02*
X129696920Y-99489877D01*
X134971920Y-85247377D02*
X132827409Y-83102866D01*
X133716920Y-97022377D02*
X130416920Y-97022377D01*
X123226920Y-97592358D02*
X125124439Y-99489877D01*
X130416920Y-97022377D02*
X130006920Y-97432377D01*
X132827409Y-83102866D02*
X124512933Y-83102866D01*
X123226920Y-84388879D02*
X123226920Y-97592358D01*
X129696920Y-97742377D02*
X130006920Y-97432377D01*
D39*
X141565453Y-102021888D02*
X141701431Y-102157866D01*
X139966920Y-101972377D02*
X140016431Y-102021888D01*
X140016431Y-102021888D02*
X141565453Y-102021888D01*
X141701431Y-104105457D02*
X140574511Y-105232377D01*
D37*
X140759420Y-105764877D02*
X140226920Y-105232377D01*
D39*
X141701431Y-102157866D02*
X141701431Y-104105457D01*
X139966920Y-100872377D02*
X139966920Y-101972377D01*
D37*
X140759420Y-107312377D02*
X140759420Y-105764877D01*
D39*
X140574511Y-105232377D02*
X140226920Y-105232377D01*
D37*
X143750000Y-103009297D02*
X143526920Y-103232377D01*
X143526920Y-103232377D02*
X145999420Y-103232377D01*
X142622377Y-100872377D02*
X143750000Y-102000000D01*
X140766920Y-100872377D02*
X142622377Y-100872377D01*
X145999420Y-103232377D02*
X146036920Y-103194877D01*
X143750000Y-102000000D02*
X143750000Y-103009297D01*
D39*
X178231311Y-95456319D02*
X181249160Y-92438470D01*
X177619160Y-95456319D02*
X178231311Y-95456319D01*
D36*
X181249160Y-90786319D02*
X180061660Y-89598819D01*
D39*
X181249160Y-92438470D02*
X181249160Y-90786319D01*
D36*
X180061660Y-89598819D02*
X178069160Y-89598819D01*
D39*
X176570138Y-96456319D02*
X177619160Y-96456319D01*
X176569649Y-96456808D02*
X176570138Y-96456319D01*
X176569649Y-98799308D02*
X176569649Y-96456808D01*
X177456660Y-99686319D02*
X176569649Y-98799308D01*
D36*
X162827255Y-112130244D02*
X162802255Y-112155244D01*
X160655244Y-112155244D02*
X160500000Y-112000000D01*
X160619756Y-109380244D02*
X160500000Y-109500000D01*
X162827255Y-109380244D02*
X160619756Y-109380244D01*
X162827255Y-109380244D02*
X162827255Y-112130244D01*
D37*
X162909755Y-109297744D02*
X162827255Y-109380244D01*
X165676255Y-109297744D02*
X162909755Y-109297744D01*
D36*
X162802255Y-112155244D02*
X160655244Y-112155244D01*
D37*
X165658755Y-114230244D02*
X165676255Y-114247744D01*
X162802255Y-114230244D02*
X165658755Y-114230244D01*
D36*
X173700000Y-112875000D02*
X170858999Y-112875000D01*
D37*
X168216255Y-114247744D02*
X169486255Y-114247744D01*
X173700000Y-112712500D02*
X172000000Y-111012500D01*
D36*
X170858999Y-112875000D02*
X169486255Y-114247744D01*
D37*
X173700000Y-112875000D02*
X173700000Y-112712500D01*
D39*
X178746180Y-98583339D02*
X183814640Y-98583339D01*
X183814640Y-98583339D02*
X184269160Y-98128819D01*
X177619160Y-97456319D02*
X178746180Y-98583339D01*
X150496920Y-97012377D02*
X150526920Y-96982377D01*
X148394420Y-97012377D02*
X150496920Y-97012377D01*
X142216920Y-97022377D02*
X146309420Y-97022377D01*
X146309420Y-97022377D02*
X146319420Y-97012377D01*
X128516440Y-100501897D02*
X128496920Y-100482377D01*
X133716920Y-97822377D02*
X132616920Y-97822377D01*
X130597880Y-100501897D02*
X128516440Y-100501897D01*
X130946440Y-100153337D02*
X130597880Y-100501897D01*
X121302409Y-105330522D02*
X121302409Y-107167866D01*
X126150554Y-100482377D02*
X121302409Y-105330522D01*
X128496920Y-100482377D02*
X126150554Y-100482377D01*
X121302409Y-107167866D02*
X122501920Y-108367377D01*
X132616920Y-97822377D02*
X130946440Y-99492857D01*
X130946440Y-99492857D02*
X130946440Y-100153337D01*
X131445960Y-99793337D02*
X131445960Y-100360244D01*
X131445960Y-100360244D02*
X130804787Y-101001417D01*
X126376920Y-100981897D02*
X126357462Y-100981897D01*
X126396440Y-101001417D02*
X126376920Y-100981897D01*
X133716920Y-98622377D02*
X132616920Y-98622377D01*
X126357462Y-100981897D02*
X122501920Y-104837439D01*
X130804787Y-101001417D02*
X126396440Y-101001417D01*
X122501920Y-104837439D02*
X122501920Y-105827377D01*
X132616920Y-98622377D02*
X131445960Y-99793337D01*
X123740165Y-104305622D02*
X123740165Y-107065622D01*
X131536440Y-101602857D02*
X126442930Y-101602857D01*
X133716920Y-99422377D02*
X131536440Y-101602857D01*
X126442930Y-101602857D02*
X123740165Y-104305622D01*
X123740165Y-107065622D02*
X125041920Y-108367377D01*
X125041920Y-105827377D02*
X127242400Y-103626897D01*
X133846920Y-100872377D02*
X135166920Y-100872377D01*
X131092400Y-103626897D02*
X133846920Y-100872377D01*
X127242400Y-103626897D02*
X131092400Y-103626897D01*
X133686902Y-104126417D02*
X135966920Y-101846399D01*
X126382409Y-107167866D02*
X126382409Y-105330522D01*
X126382409Y-105330522D02*
X127586514Y-104126417D01*
X127586514Y-104126417D02*
X133686902Y-104126417D01*
X127581920Y-108367377D02*
X126382409Y-107167866D01*
X135966920Y-101846399D02*
X135966920Y-100872377D01*
X143924769Y-99422377D02*
X147111440Y-102609048D01*
X143464769Y-109502377D02*
X135279071Y-109502377D01*
X147111440Y-102609048D02*
X147111440Y-105855706D01*
X147111440Y-105855706D02*
X143464769Y-109502377D01*
X128781889Y-104627408D02*
X127581920Y-105827377D01*
X142216920Y-99422377D02*
X143924769Y-99422377D01*
X132165065Y-107026888D02*
X131336920Y-106198743D01*
X131336920Y-106198743D02*
X131336920Y-104652377D01*
X133861431Y-108084737D02*
X133861431Y-107851399D01*
X131336920Y-104652377D02*
X131311951Y-104627408D01*
X133861431Y-107851399D02*
X133036920Y-107026888D01*
X135279071Y-109502377D02*
X133861431Y-108084737D01*
X133036920Y-107026888D02*
X132165065Y-107026888D01*
X131311951Y-104627408D02*
X128781889Y-104627408D01*
X147610960Y-102402141D02*
X147610960Y-106062613D01*
X131776920Y-110022377D02*
X130121920Y-108367377D01*
X147610960Y-106062613D02*
X143651196Y-110022377D01*
X142216920Y-98622377D02*
X143831196Y-98622377D01*
X143831196Y-98622377D02*
X147610960Y-102402141D01*
X143651196Y-110022377D02*
X131776920Y-110022377D01*
X128922409Y-108864232D02*
X128922409Y-107026888D01*
X128922409Y-107026888D02*
X130121920Y-105827377D01*
X143827623Y-110552377D02*
X130610554Y-110552377D01*
X143737623Y-97822377D02*
X148110479Y-102195233D01*
X148110480Y-106269520D02*
X143827623Y-110552377D01*
X142216920Y-97822377D02*
X143737623Y-97822377D01*
X148110479Y-102195233D02*
X148110480Y-106269520D01*
X130610554Y-110552377D02*
X128922409Y-108864232D01*
X142406920Y-93822377D02*
X142216920Y-93822377D01*
X140051920Y-85247377D02*
X143205492Y-85247377D01*
X144128706Y-92100591D02*
X142406920Y-93822377D01*
X143205492Y-85247377D02*
X144128706Y-86170591D01*
X144128706Y-86170591D02*
X144128706Y-92100591D01*
X140766920Y-91398355D02*
X140766920Y-92372377D01*
X154146678Y-94922858D02*
X147030480Y-94922857D01*
X141139777Y-91999520D02*
X140766920Y-92372377D01*
X139840942Y-90472377D02*
X140766920Y-91398355D01*
X136312409Y-88287866D02*
X138496920Y-90472377D01*
X173219160Y-95956319D02*
X155180139Y-95956319D01*
X142240480Y-91999520D02*
X141139777Y-91999520D01*
X155180139Y-95956319D02*
X154146678Y-94922858D01*
X145386420Y-93278797D02*
X145386420Y-90499520D01*
X147030480Y-94922857D02*
X145386420Y-93278797D01*
X138496920Y-90472377D02*
X139840942Y-90472377D01*
X137511920Y-85247377D02*
X136312409Y-86446888D01*
X136312409Y-86446888D02*
X136312409Y-88287866D01*
X144636920Y-85972377D02*
X144636920Y-93972377D01*
X137511920Y-87787377D02*
X138852409Y-86446888D01*
X154340480Y-94409520D02*
X147756860Y-94409520D01*
X145290480Y-94519520D02*
X145187623Y-94622377D01*
X155387279Y-95456319D02*
X154340480Y-94409520D01*
X173219160Y-95456319D02*
X155387279Y-95456319D01*
X138852409Y-84047866D02*
X139567898Y-83332377D01*
X143986920Y-94622377D02*
X142216920Y-94622377D01*
X138852409Y-86446888D02*
X138852409Y-84047866D01*
X144636920Y-93972377D02*
X143986920Y-94622377D01*
X145187623Y-94622377D02*
X143986920Y-94622377D01*
X141996920Y-83332377D02*
X144636920Y-85972377D01*
X139567898Y-83332377D02*
X141996920Y-83332377D01*
X147756860Y-94409520D02*
X147520697Y-94173357D01*
D37*
X132112206Y-95422377D02*
X130576920Y-93887091D01*
X127611920Y-92072377D02*
X130556920Y-92072377D01*
X130556920Y-92072377D02*
X130576920Y-92092377D01*
X133716920Y-95422377D02*
X132112206Y-95422377D01*
X130576920Y-93887091D02*
X130576920Y-92092377D01*
X133716920Y-96222377D02*
X125716920Y-96222377D01*
X124436920Y-92707377D02*
X125071920Y-92072377D01*
X125716920Y-96222377D02*
X124436920Y-94942377D01*
X124436920Y-94942377D02*
X124436920Y-92707377D01*
X132146920Y-87752377D02*
X128846920Y-84452377D01*
X133716920Y-94622377D02*
X132442898Y-94622377D01*
X132146920Y-94326399D02*
X132146920Y-87752377D01*
X128846920Y-84452377D02*
X127611920Y-84452377D01*
X132442898Y-94622377D02*
X132146920Y-94326399D01*
X166946255Y-115295568D02*
X166366823Y-115875000D01*
X173525000Y-115575000D02*
X173580000Y-115575000D01*
X159600000Y-115875000D02*
X159000000Y-115275000D01*
X166946255Y-114247744D02*
X166946255Y-115295568D01*
X167672951Y-116022264D02*
X173077736Y-116022264D01*
X173580000Y-115575000D02*
X177300000Y-111855000D01*
X166946255Y-115295568D02*
X167672951Y-116022264D01*
D39*
X166946255Y-114247744D02*
X166946255Y-115083436D01*
D37*
X166366823Y-115875000D02*
X159600000Y-115875000D01*
X177300000Y-109315000D02*
X177300000Y-111855000D01*
X173077736Y-116022264D02*
X173525000Y-115575000D01*
X177300000Y-106775000D02*
X175542264Y-105017264D01*
X170242264Y-105017264D02*
X169177255Y-106082273D01*
X168216255Y-107228744D02*
X168216255Y-109297744D01*
X169177255Y-106082273D02*
X169177255Y-106267744D01*
X169177255Y-106267744D02*
X168216255Y-107228744D01*
X175542264Y-105017264D02*
X170242264Y-105017264D01*
X166946255Y-109297744D02*
X166946255Y-106373744D01*
D39*
X165902735Y-103447265D02*
X165902735Y-105318224D01*
D37*
X166946255Y-106373744D02*
X166952255Y-106367744D01*
D39*
X167757496Y-101592504D02*
X165902735Y-103447265D01*
X165902735Y-105318224D02*
X166952255Y-106367744D01*
X173227495Y-101592504D02*
X167757496Y-101592504D01*
X173219160Y-99584169D02*
X173227495Y-99592504D01*
X173219160Y-97456319D02*
X173219160Y-99584169D01*
X166952255Y-104367744D02*
X177158234Y-104367744D01*
X180125489Y-101400489D02*
X182665489Y-101400489D01*
X182665489Y-101400489D02*
X183865000Y-102600000D01*
X177158234Y-104367744D02*
X180125489Y-101400489D01*
D37*
X183240978Y-111315000D02*
X181325000Y-109399022D01*
X181325000Y-109399022D02*
X181325000Y-102600000D01*
X184000000Y-111315000D02*
X183240978Y-111315000D01*
D39*
X154973711Y-96456319D02*
X153939769Y-95422377D01*
X173219160Y-96456319D02*
X154973711Y-96456319D01*
X153939769Y-95422377D02*
X142216920Y-95422377D01*
%TA.AperFunction,Conductor*%
G36*
X184516411Y-79270002D02*
G01*
X184562904Y-79323658D01*
X184574288Y-79376708D01*
X184550704Y-83574708D01*
X184530320Y-83642715D01*
X184476404Y-83688906D01*
X184424706Y-83700000D01*
X182150000Y-83700000D01*
X182150000Y-87024000D01*
X182129998Y-87092121D01*
X182076342Y-87138614D01*
X182024000Y-87150000D01*
X177001000Y-87150000D01*
X176932879Y-87129998D01*
X176886386Y-87076342D01*
X176875000Y-87024000D01*
X176875000Y-79376000D01*
X176895002Y-79307879D01*
X176948658Y-79261386D01*
X177001000Y-79250000D01*
X184448290Y-79250000D01*
X184516411Y-79270002D01*
G37*
%TD.AperFunction*%
%TA.AperFunction,Conductor*%
G36*
X164442121Y-103020002D02*
G01*
X164488614Y-103073658D01*
X164500000Y-103126000D01*
X164500000Y-107624000D01*
X164479998Y-107692121D01*
X164426342Y-107738614D01*
X164374000Y-107750000D01*
X160126000Y-107750000D01*
X160057879Y-107729998D01*
X160011386Y-107676342D01*
X160000000Y-107624000D01*
X160000000Y-104545618D01*
X160020002Y-104477497D01*
X160029204Y-104464955D01*
X161212219Y-103045337D01*
X161271195Y-103005810D01*
X161309015Y-103000000D01*
X164374000Y-103000000D01*
X164442121Y-103020002D01*
G37*
%TD.AperFunction*%
%TA.AperFunction,Conductor*%
G36*
X161742118Y-108670004D02*
G01*
X161788612Y-108723658D01*
X161800000Y-108776004D01*
X161800000Y-112773723D01*
X161779998Y-112841844D01*
X161726342Y-112888337D01*
X161673725Y-112899723D01*
X155973981Y-112887198D01*
X155905906Y-112867046D01*
X155859532Y-112813288D01*
X155848260Y-112761069D01*
X155852325Y-108776048D01*
X155872397Y-108707948D01*
X155926100Y-108661510D01*
X155978320Y-108650177D01*
X158861359Y-108650089D01*
X161673996Y-108650004D01*
X161742118Y-108670004D01*
G37*
%TD.AperFunction*%
%TA.AperFunction,Conductor*%
G36*
X156042121Y-114595002D02*
G01*
X156088614Y-114648658D01*
X156100000Y-114701000D01*
X156100000Y-117349000D01*
X156079998Y-117417121D01*
X156026342Y-117463614D01*
X155974000Y-117475000D01*
X150726000Y-117475000D01*
X150657879Y-117454998D01*
X150611386Y-117401342D01*
X150600000Y-117349000D01*
X150600000Y-114701000D01*
X150620002Y-114632879D01*
X150673658Y-114586386D01*
X150726000Y-114575000D01*
X155974000Y-114575000D01*
X156042121Y-114595002D01*
G37*
%TD.AperFunction*%
%TA.AperFunction,Conductor*%
G36*
X146342121Y-112695002D02*
G01*
X146388614Y-112748658D01*
X146400000Y-112801000D01*
X146400000Y-116549000D01*
X146379998Y-116617121D01*
X146326342Y-116663614D01*
X146274000Y-116675000D01*
X142926000Y-116675000D01*
X142857879Y-116654998D01*
X142811386Y-116601342D01*
X142800000Y-116549000D01*
X142800000Y-112801000D01*
X142820002Y-112732879D01*
X142873658Y-112686386D01*
X142926000Y-112675000D01*
X146274000Y-112675000D01*
X146342121Y-112695002D01*
G37*
%TD.AperFunction*%
%TA.AperFunction,Conductor*%
G36*
X189442121Y-89520002D02*
G01*
X189488614Y-89573658D01*
X189500000Y-89626000D01*
X189500000Y-96624000D01*
X189479998Y-96692121D01*
X189426342Y-96738614D01*
X189374000Y-96750000D01*
X185783462Y-96750000D01*
X185720949Y-96733399D01*
X184063487Y-95786278D01*
X184014265Y-95735114D01*
X184000000Y-95676879D01*
X184000000Y-89626000D01*
X184020002Y-89557879D01*
X184073658Y-89511386D01*
X184126000Y-89500000D01*
X189374000Y-89500000D01*
X189442121Y-89520002D01*
G37*
%TD.AperFunction*%
M02*
