M48
; DRILL file {KiCad (6.0.1)} date Fri Feb 25 11:57:31 2022
; FORMAT={-:-/ absolute / metric / decimal}
; #@! TF.CreationDate,2022-02-25T11:57:31+01:00
; #@! TF.GenerationSoftware,Kicad,Pcbnew,(6.0.1)
; #@! TF.FileFunction,Plated,1,4,PTH
FMAT,2
METRIC
; #@! TA.AperFunction,Plated,PTH,ViaDrill
T1C0.400
; #@! TA.AperFunction,Plated,PTH,ViaDrill
T2C0.500
; #@! TA.AperFunction,Plated,PTH,ComponentDrill
T3C1.000
; #@! TA.AperFunction,Plated,PTH,ComponentDrill
T4C1.500
%
G90
G05
T1
X142.24Y-92.0
X145.29Y-94.52
X145.386Y-90.5
X147.521Y-94.173
T2
X156.75Y-109.5
X156.75Y-110.75
X156.75Y-112.0
X158.0Y-109.5
X158.0Y-110.75
X158.0Y-112.0
X159.25Y-109.5
X159.25Y-110.75
X159.25Y-112.0
X160.5Y-109.5
X160.5Y-110.75
X160.5Y-112.0
X173.7Y-112.875
T3
X122.502Y-105.827
X122.502Y-108.367
X125.042Y-105.827
X125.042Y-108.367
X125.072Y-84.452
X125.072Y-86.992
X125.072Y-89.532
X125.072Y-92.072
X127.582Y-105.827
X127.582Y-108.367
X127.612Y-84.452
X127.612Y-86.992
X127.612Y-89.532
X127.612Y-92.072
X130.122Y-105.827
X130.122Y-108.367
X132.662Y-105.827
X132.662Y-108.367
X134.972Y-85.247
X134.972Y-87.787
X137.512Y-85.247
X137.512Y-87.787
X140.052Y-85.247
X140.052Y-87.787
X173.525Y-115.575
X176.065Y-115.575
X177.3Y-106.775
X177.3Y-109.315
X177.3Y-111.855
X181.325Y-102.6
X183.865Y-102.6
X184.0Y-108.775
X184.0Y-111.315
X184.0Y-113.855
X186.405Y-102.6
T4
X153.333Y-86.042
X158.333Y-86.042
X163.333Y-86.042
X168.333Y-86.042
T0
M30
