%TF.GenerationSoftware,KiCad,Pcbnew,(6.0.1)*%
%TF.CreationDate,2022-03-15T18:58:51+01:00*%
%TF.ProjectId,SignalGenerator,5369676e-616c-4476-956e-657261746f72,0.3*%
%TF.SameCoordinates,Original*%
%TF.FileFunction,Legend,Top*%
%TF.FilePolarity,Positive*%
%FSLAX46Y46*%
G04 Gerber Fmt 4.6, Leading zero omitted, Abs format (unit mm)*
G04 Created by KiCad (PCBNEW (6.0.1)) date 2022-03-15 18:58:51*
%MOMM*%
%LPD*%
G01*
G04 APERTURE LIST*
G04 Aperture macros list*
%AMRoundRect*
0 Rectangle with rounded corners*
0 $1 Rounding radius*
0 $2 $3 $4 $5 $6 $7 $8 $9 X,Y pos of 4 corners*
0 Add a 4 corners polygon primitive as box body*
4,1,4,$2,$3,$4,$5,$6,$7,$8,$9,$2,$3,0*
0 Add four circle primitives for the rounded corners*
1,1,$1+$1,$2,$3*
1,1,$1+$1,$4,$5*
1,1,$1+$1,$6,$7*
1,1,$1+$1,$8,$9*
0 Add four rect primitives between the rounded corners*
20,1,$1+$1,$2,$3,$4,$5,0*
20,1,$1+$1,$4,$5,$6,$7,0*
20,1,$1+$1,$6,$7,$8,$9,0*
20,1,$1+$1,$8,$9,$2,$3,0*%
G04 Aperture macros list end*
%ADD10C,0.150000*%
%ADD11C,0.200000*%
%ADD12C,0.250000*%
%ADD13C,0.300000*%
%ADD14C,0.120000*%
%ADD15RoundRect,0.250000X0.337500X0.475000X-0.337500X0.475000X-0.337500X-0.475000X0.337500X-0.475000X0*%
%ADD16RoundRect,0.250000X-0.350000X-0.450000X0.350000X-0.450000X0.350000X0.450000X-0.350000X0.450000X0*%
%ADD17RoundRect,0.250000X0.350000X0.450000X-0.350000X0.450000X-0.350000X-0.450000X0.350000X-0.450000X0*%
%ADD18R,1.700000X1.700000*%
%ADD19O,1.700000X1.700000*%
%ADD20RoundRect,0.250000X-0.412500X-0.650000X0.412500X-0.650000X0.412500X0.650000X-0.412500X0.650000X0*%
%ADD21RoundRect,0.250000X-0.475000X0.337500X-0.475000X-0.337500X0.475000X-0.337500X0.475000X0.337500X0*%
%ADD22C,3.200000*%
%ADD23RoundRect,0.250000X-0.400000X-0.625000X0.400000X-0.625000X0.400000X0.625000X-0.400000X0.625000X0*%
%ADD24RoundRect,0.250000X0.475000X-0.337500X0.475000X0.337500X-0.475000X0.337500X-0.475000X-0.337500X0*%
%ADD25RoundRect,0.250000X0.275000X-0.400000X0.275000X0.400000X-0.275000X0.400000X-0.275000X-0.400000X0*%
%ADD26R,1.400000X0.300000*%
%ADD27RoundRect,0.250000X-0.337500X-0.475000X0.337500X-0.475000X0.337500X0.475000X-0.337500X0.475000X0*%
%ADD28RoundRect,0.250000X0.450000X-0.350000X0.450000X0.350000X-0.450000X0.350000X-0.450000X-0.350000X0*%
%ADD29R,1.980000X3.000000*%
%ADD30R,3.000000X3.000000*%
%ADD31C,3.000000*%
%ADD32RoundRect,0.250000X0.400000X0.275000X-0.400000X0.275000X-0.400000X-0.275000X0.400000X-0.275000X0*%
%ADD33RoundRect,0.250000X0.650000X-0.412500X0.650000X0.412500X-0.650000X0.412500X-0.650000X-0.412500X0*%
%ADD34R,2.250000X1.500000*%
%ADD35R,2.250000X1.575000*%
%ADD36R,2.250000X1.450000*%
%ADD37R,0.550000X1.600000*%
%ADD38R,1.600000X0.550000*%
%ADD39RoundRect,0.250000X-0.450000X0.350000X-0.450000X-0.350000X0.450000X-0.350000X0.450000X0.350000X0*%
%ADD40RoundRect,0.150000X-0.150000X0.825000X-0.150000X-0.825000X0.150000X-0.825000X0.150000X0.825000X0*%
G04 APERTURE END LIST*
D10*
X154921904Y-114295000D02*
X154826666Y-114247380D01*
X154683809Y-114247380D01*
X154540952Y-114295000D01*
X154445714Y-114390238D01*
X154398095Y-114485476D01*
X154350476Y-114675952D01*
X154350476Y-114818809D01*
X154398095Y-115009285D01*
X154445714Y-115104523D01*
X154540952Y-115199761D01*
X154683809Y-115247380D01*
X154779047Y-115247380D01*
X154921904Y-115199761D01*
X154969523Y-115152142D01*
X154969523Y-114818809D01*
X154779047Y-114818809D01*
X154931904Y-111755000D02*
X154836666Y-111707380D01*
X154693809Y-111707380D01*
X154550952Y-111755000D01*
X154455714Y-111850238D01*
X154408095Y-111945476D01*
X154360476Y-112135952D01*
X154360476Y-112278809D01*
X154408095Y-112469285D01*
X154455714Y-112564523D01*
X154550952Y-112659761D01*
X154693809Y-112707380D01*
X154789047Y-112707380D01*
X154931904Y-112659761D01*
X154979523Y-112612142D01*
X154979523Y-112278809D01*
X154789047Y-112278809D01*
X146751904Y-114445000D02*
X146656666Y-114397380D01*
X146513809Y-114397380D01*
X146370952Y-114445000D01*
X146275714Y-114540238D01*
X146228095Y-114635476D01*
X146180476Y-114825952D01*
X146180476Y-114968809D01*
X146228095Y-115159285D01*
X146275714Y-115254523D01*
X146370952Y-115349761D01*
X146513809Y-115397380D01*
X146609047Y-115397380D01*
X146751904Y-115349761D01*
X146799523Y-115302142D01*
X146799523Y-114968809D01*
X146609047Y-114968809D01*
X145628095Y-112629761D02*
X145770952Y-112677380D01*
X146009047Y-112677380D01*
X146104285Y-112629761D01*
X146151904Y-112582142D01*
X146199523Y-112486904D01*
X146199523Y-112391666D01*
X146151904Y-112296428D01*
X146104285Y-112248809D01*
X146009047Y-112201190D01*
X145818571Y-112153571D01*
X145723333Y-112105952D01*
X145675714Y-112058333D01*
X145628095Y-111963095D01*
X145628095Y-111867857D01*
X145675714Y-111772619D01*
X145723333Y-111725000D01*
X145818571Y-111677380D01*
X146056666Y-111677380D01*
X146199523Y-111725000D01*
X147151904Y-112677380D02*
X146580476Y-112677380D01*
X146866190Y-112677380D02*
X146866190Y-111677380D01*
X146770952Y-111820238D01*
X146675714Y-111915476D01*
X146580476Y-111963095D01*
X154791428Y-109393571D02*
X154934285Y-109441190D01*
X154981904Y-109488809D01*
X155029523Y-109584047D01*
X155029523Y-109726904D01*
X154981904Y-109822142D01*
X154934285Y-109869761D01*
X154839047Y-109917380D01*
X154458095Y-109917380D01*
X154458095Y-108917380D01*
X154791428Y-108917380D01*
X154886666Y-108965000D01*
X154934285Y-109012619D01*
X154981904Y-109107857D01*
X154981904Y-109203095D01*
X154934285Y-109298333D01*
X154886666Y-109345952D01*
X154791428Y-109393571D01*
X154458095Y-109393571D01*
X146401904Y-109711666D02*
X146878095Y-109711666D01*
X146306666Y-109997380D02*
X146640000Y-108997380D01*
X146973333Y-109997380D01*
X180485714Y-107227380D02*
X179914285Y-107227380D01*
X180200000Y-107227380D02*
X180200000Y-106227380D01*
X180104761Y-106370238D01*
X180009523Y-106465476D01*
X179914285Y-106513095D01*
X122014285Y-102522619D02*
X122061904Y-102475000D01*
X122157142Y-102427380D01*
X122395238Y-102427380D01*
X122490476Y-102475000D01*
X122538095Y-102522619D01*
X122585714Y-102617857D01*
X122585714Y-102713095D01*
X122538095Y-102855952D01*
X121966666Y-103427380D01*
X122585714Y-103427380D01*
X122214285Y-91722619D02*
X122261904Y-91675000D01*
X122357142Y-91627380D01*
X122595238Y-91627380D01*
X122690476Y-91675000D01*
X122738095Y-91722619D01*
X122785714Y-91817857D01*
X122785714Y-91913095D01*
X122738095Y-92055952D01*
X122166666Y-92627380D01*
X122785714Y-92627380D01*
X179866666Y-111427380D02*
X180485714Y-111427380D01*
X180152380Y-111808333D01*
X180295238Y-111808333D01*
X180390476Y-111855952D01*
X180438095Y-111903571D01*
X180485714Y-111998809D01*
X180485714Y-112236904D01*
X180438095Y-112332142D01*
X180390476Y-112379761D01*
X180295238Y-112427380D01*
X180009523Y-112427380D01*
X179914285Y-112379761D01*
X179866666Y-112332142D01*
X135928571Y-90927380D02*
X135928571Y-89927380D01*
X136261904Y-90641666D01*
X136595238Y-89927380D01*
X136595238Y-90927380D01*
X137261904Y-89927380D02*
X137452380Y-89927380D01*
X137547619Y-89975000D01*
X137642857Y-90070238D01*
X137690476Y-90260714D01*
X137690476Y-90594047D01*
X137642857Y-90784523D01*
X137547619Y-90879761D01*
X137452380Y-90927380D01*
X137261904Y-90927380D01*
X137166666Y-90879761D01*
X137071428Y-90784523D01*
X137023809Y-90594047D01*
X137023809Y-90260714D01*
X137071428Y-90070238D01*
X137166666Y-89975000D01*
X137261904Y-89927380D01*
X138071428Y-90879761D02*
X138214285Y-90927380D01*
X138452380Y-90927380D01*
X138547619Y-90879761D01*
X138595238Y-90832142D01*
X138642857Y-90736904D01*
X138642857Y-90641666D01*
X138595238Y-90546428D01*
X138547619Y-90498809D01*
X138452380Y-90451190D01*
X138261904Y-90403571D01*
X138166666Y-90355952D01*
X138119047Y-90308333D01*
X138071428Y-90213095D01*
X138071428Y-90117857D01*
X138119047Y-90022619D01*
X138166666Y-89975000D01*
X138261904Y-89927380D01*
X138500000Y-89927380D01*
X138642857Y-89975000D01*
X139071428Y-90927380D02*
X139071428Y-89927380D01*
D11*
X195283333Y-106796428D02*
X195235714Y-106844047D01*
X195092857Y-106939285D01*
X194997619Y-106986904D01*
X194854761Y-107034523D01*
X194616666Y-107082142D01*
X194426190Y-107082142D01*
X194188095Y-107034523D01*
X194045238Y-106986904D01*
X193950000Y-106939285D01*
X193807142Y-106844047D01*
X193759523Y-106796428D01*
X194807142Y-105844047D02*
X194854761Y-105891666D01*
X194902380Y-106034523D01*
X194902380Y-106129761D01*
X194854761Y-106272619D01*
X194759523Y-106367857D01*
X194664285Y-106415476D01*
X194473809Y-106463095D01*
X194330952Y-106463095D01*
X194140476Y-106415476D01*
X194045238Y-106367857D01*
X193950000Y-106272619D01*
X193902380Y-106129761D01*
X193902380Y-106034523D01*
X193950000Y-105891666D01*
X193997619Y-105844047D01*
X195283333Y-105510714D02*
X195235714Y-105463095D01*
X195092857Y-105367857D01*
X194997619Y-105320238D01*
X194854761Y-105272619D01*
X194616666Y-105225000D01*
X194426190Y-105225000D01*
X194188095Y-105272619D01*
X194045238Y-105320238D01*
X193950000Y-105367857D01*
X193807142Y-105463095D01*
X193759523Y-105510714D01*
X193997619Y-104034523D02*
X193950000Y-103986904D01*
X193902380Y-103891666D01*
X193902380Y-103653571D01*
X193950000Y-103558333D01*
X193997619Y-103510714D01*
X194092857Y-103463095D01*
X194188095Y-103463095D01*
X194330952Y-103510714D01*
X194902380Y-104082142D01*
X194902380Y-103463095D01*
X193902380Y-102844047D02*
X193902380Y-102748809D01*
X193950000Y-102653571D01*
X193997619Y-102605952D01*
X194092857Y-102558333D01*
X194283333Y-102510714D01*
X194521428Y-102510714D01*
X194711904Y-102558333D01*
X194807142Y-102605952D01*
X194854761Y-102653571D01*
X194902380Y-102748809D01*
X194902380Y-102844047D01*
X194854761Y-102939285D01*
X194807142Y-102986904D01*
X194711904Y-103034523D01*
X194521428Y-103082142D01*
X194283333Y-103082142D01*
X194092857Y-103034523D01*
X193997619Y-102986904D01*
X193950000Y-102939285D01*
X193902380Y-102844047D01*
X193997619Y-102129761D02*
X193950000Y-102082142D01*
X193902380Y-101986904D01*
X193902380Y-101748809D01*
X193950000Y-101653571D01*
X193997619Y-101605952D01*
X194092857Y-101558333D01*
X194188095Y-101558333D01*
X194330952Y-101605952D01*
X194902380Y-102177380D01*
X194902380Y-101558333D01*
X193997619Y-101177380D02*
X193950000Y-101129761D01*
X193902380Y-101034523D01*
X193902380Y-100796428D01*
X193950000Y-100701190D01*
X193997619Y-100653571D01*
X194092857Y-100605952D01*
X194188095Y-100605952D01*
X194330952Y-100653571D01*
X194902380Y-101225000D01*
X194902380Y-100605952D01*
X193902380Y-99129761D02*
X194616666Y-99129761D01*
X194759523Y-99177380D01*
X194854761Y-99272619D01*
X194902380Y-99415476D01*
X194902380Y-99510714D01*
X194902380Y-98510714D02*
X194854761Y-98605952D01*
X194807142Y-98653571D01*
X194711904Y-98701190D01*
X194426190Y-98701190D01*
X194330952Y-98653571D01*
X194283333Y-98605952D01*
X194235714Y-98510714D01*
X194235714Y-98367857D01*
X194283333Y-98272619D01*
X194330952Y-98225000D01*
X194426190Y-98177380D01*
X194711904Y-98177380D01*
X194807142Y-98225000D01*
X194854761Y-98272619D01*
X194902380Y-98367857D01*
X194902380Y-98510714D01*
X194902380Y-97320238D02*
X194378571Y-97320238D01*
X194283333Y-97367857D01*
X194235714Y-97463095D01*
X194235714Y-97653571D01*
X194283333Y-97748809D01*
X194854761Y-97320238D02*
X194902380Y-97415476D01*
X194902380Y-97653571D01*
X194854761Y-97748809D01*
X194759523Y-97796428D01*
X194664285Y-97796428D01*
X194569047Y-97748809D01*
X194521428Y-97653571D01*
X194521428Y-97415476D01*
X194473809Y-97320238D01*
X194854761Y-96415476D02*
X194902380Y-96510714D01*
X194902380Y-96701190D01*
X194854761Y-96796428D01*
X194807142Y-96844047D01*
X194711904Y-96891666D01*
X194426190Y-96891666D01*
X194330952Y-96844047D01*
X194283333Y-96796428D01*
X194235714Y-96701190D01*
X194235714Y-96510714D01*
X194283333Y-96415476D01*
X194902380Y-95986904D02*
X193902380Y-95986904D01*
X194902380Y-95558333D02*
X194378571Y-95558333D01*
X194283333Y-95605952D01*
X194235714Y-95701190D01*
X194235714Y-95844047D01*
X194283333Y-95939285D01*
X194330952Y-95986904D01*
X194902380Y-95082142D02*
X194235714Y-95082142D01*
X193902380Y-95082142D02*
X193950000Y-95129761D01*
X193997619Y-95082142D01*
X193950000Y-95034523D01*
X193902380Y-95082142D01*
X193997619Y-95082142D01*
X194902380Y-94605952D02*
X194235714Y-94605952D01*
X194330952Y-94605952D02*
X194283333Y-94558333D01*
X194235714Y-94463095D01*
X194235714Y-94320238D01*
X194283333Y-94225000D01*
X194378571Y-94177380D01*
X194902380Y-94177380D01*
X194378571Y-94177380D02*
X194283333Y-94129761D01*
X194235714Y-94034523D01*
X194235714Y-93891666D01*
X194283333Y-93796428D01*
X194378571Y-93748809D01*
X194902380Y-93748809D01*
X193902380Y-92605952D02*
X194902380Y-92367857D01*
X194188095Y-92177380D01*
X194902380Y-91986904D01*
X193902380Y-91748809D01*
X194854761Y-90986904D02*
X194902380Y-91082142D01*
X194902380Y-91272619D01*
X194854761Y-91367857D01*
X194759523Y-91415476D01*
X194378571Y-91415476D01*
X194283333Y-91367857D01*
X194235714Y-91272619D01*
X194235714Y-91082142D01*
X194283333Y-90986904D01*
X194378571Y-90939285D01*
X194473809Y-90939285D01*
X194569047Y-91415476D01*
X194854761Y-90558333D02*
X194902380Y-90463095D01*
X194902380Y-90272619D01*
X194854761Y-90177380D01*
X194759523Y-90129761D01*
X194711904Y-90129761D01*
X194616666Y-90177380D01*
X194569047Y-90272619D01*
X194569047Y-90415476D01*
X194521428Y-90510714D01*
X194426190Y-90558333D01*
X194378571Y-90558333D01*
X194283333Y-90510714D01*
X194235714Y-90415476D01*
X194235714Y-90272619D01*
X194283333Y-90177380D01*
X194235714Y-89844047D02*
X194235714Y-89463095D01*
X193902380Y-89701190D02*
X194759523Y-89701190D01*
X194854761Y-89653571D01*
X194902380Y-89558333D01*
X194902380Y-89463095D01*
X194902380Y-88986904D02*
X194854761Y-89082142D01*
X194759523Y-89129761D01*
X193902380Y-89129761D01*
X194235714Y-88177380D02*
X194902380Y-88177380D01*
X194235714Y-88605952D02*
X194759523Y-88605952D01*
X194854761Y-88558333D01*
X194902380Y-88463095D01*
X194902380Y-88320238D01*
X194854761Y-88225000D01*
X194807142Y-88177380D01*
X194235714Y-87701190D02*
X194902380Y-87701190D01*
X194330952Y-87701190D02*
X194283333Y-87653571D01*
X194235714Y-87558333D01*
X194235714Y-87415476D01*
X194283333Y-87320238D01*
X194378571Y-87272619D01*
X194902380Y-87272619D01*
X194902380Y-86367857D02*
X193902380Y-86367857D01*
X194854761Y-86367857D02*
X194902380Y-86463095D01*
X194902380Y-86653571D01*
X194854761Y-86748809D01*
X194807142Y-86796428D01*
X194711904Y-86844047D01*
X194426190Y-86844047D01*
X194330952Y-86796428D01*
X194283333Y-86748809D01*
X194235714Y-86653571D01*
X194235714Y-86463095D01*
X194283333Y-86367857D01*
D10*
X178738095Y-115275000D02*
X178642857Y-115227380D01*
X178500000Y-115227380D01*
X178357142Y-115275000D01*
X178261904Y-115370238D01*
X178214285Y-115465476D01*
X178166666Y-115655952D01*
X178166666Y-115798809D01*
X178214285Y-115989285D01*
X178261904Y-116084523D01*
X178357142Y-116179761D01*
X178500000Y-116227380D01*
X178595238Y-116227380D01*
X178738095Y-116179761D01*
X178785714Y-116132142D01*
X178785714Y-115798809D01*
X178595238Y-115798809D01*
X179214285Y-116227380D02*
X179214285Y-115227380D01*
X179785714Y-116227380D01*
X179785714Y-115227380D01*
X180261904Y-116227380D02*
X180261904Y-115227380D01*
X180500000Y-115227380D01*
X180642857Y-115275000D01*
X180738095Y-115370238D01*
X180785714Y-115465476D01*
X180833333Y-115655952D01*
X180833333Y-115798809D01*
X180785714Y-115989285D01*
X180738095Y-116084523D01*
X180642857Y-116179761D01*
X180500000Y-116227380D01*
X180261904Y-116227380D01*
X142085714Y-82927380D02*
X141514285Y-82927380D01*
X141800000Y-82927380D02*
X141800000Y-81927380D01*
X141704761Y-82070238D01*
X141609523Y-82165476D01*
X141514285Y-82213095D01*
X135152380Y-82422619D02*
X134676190Y-82755952D01*
X135152380Y-82994047D02*
X134152380Y-82994047D01*
X134152380Y-82613095D01*
X134200000Y-82517857D01*
X134247619Y-82470238D01*
X134342857Y-82422619D01*
X134485714Y-82422619D01*
X134580952Y-82470238D01*
X134628571Y-82517857D01*
X134676190Y-82613095D01*
X134676190Y-82994047D01*
X135104761Y-82041666D02*
X135152380Y-81898809D01*
X135152380Y-81660714D01*
X135104761Y-81565476D01*
X135057142Y-81517857D01*
X134961904Y-81470238D01*
X134866666Y-81470238D01*
X134771428Y-81517857D01*
X134723809Y-81565476D01*
X134676190Y-81660714D01*
X134628571Y-81851190D01*
X134580952Y-81946428D01*
X134533333Y-81994047D01*
X134438095Y-82041666D01*
X134342857Y-82041666D01*
X134247619Y-81994047D01*
X134200000Y-81946428D01*
X134152380Y-81851190D01*
X134152380Y-81613095D01*
X134200000Y-81470238D01*
X134152380Y-81184523D02*
X134152380Y-80613095D01*
X135152380Y-80898809D02*
X134152380Y-80898809D01*
X167604761Y-117132142D02*
X167557142Y-117179761D01*
X167414285Y-117227380D01*
X167319047Y-117227380D01*
X167176190Y-117179761D01*
X167080952Y-117084523D01*
X167033333Y-116989285D01*
X166985714Y-116798809D01*
X166985714Y-116655952D01*
X167033333Y-116465476D01*
X167080952Y-116370238D01*
X167176190Y-116275000D01*
X167319047Y-116227380D01*
X167414285Y-116227380D01*
X167557142Y-116275000D01*
X167604761Y-116322619D01*
X168414285Y-117179761D02*
X168319047Y-117227380D01*
X168128571Y-117227380D01*
X168033333Y-117179761D01*
X167985714Y-117084523D01*
X167985714Y-116703571D01*
X168033333Y-116608333D01*
X168128571Y-116560714D01*
X168319047Y-116560714D01*
X168414285Y-116608333D01*
X168461904Y-116703571D01*
X168461904Y-116798809D01*
X167985714Y-116894047D01*
X168890476Y-116560714D02*
X168890476Y-117227380D01*
X168890476Y-116655952D02*
X168938095Y-116608333D01*
X169033333Y-116560714D01*
X169176190Y-116560714D01*
X169271428Y-116608333D01*
X169319047Y-116703571D01*
X169319047Y-117227380D01*
X169652380Y-116560714D02*
X170033333Y-116560714D01*
X169795238Y-116227380D02*
X169795238Y-117084523D01*
X169842857Y-117179761D01*
X169938095Y-117227380D01*
X170033333Y-117227380D01*
X170747619Y-117179761D02*
X170652380Y-117227380D01*
X170461904Y-117227380D01*
X170366666Y-117179761D01*
X170319047Y-117084523D01*
X170319047Y-116703571D01*
X170366666Y-116608333D01*
X170461904Y-116560714D01*
X170652380Y-116560714D01*
X170747619Y-116608333D01*
X170795238Y-116703571D01*
X170795238Y-116798809D01*
X170319047Y-116894047D01*
X171223809Y-117227380D02*
X171223809Y-116560714D01*
X171223809Y-116751190D02*
X171271428Y-116655952D01*
X171319047Y-116608333D01*
X171414285Y-116560714D01*
X171509523Y-116560714D01*
X127885714Y-95127380D02*
X127314285Y-95127380D01*
X127600000Y-95127380D02*
X127600000Y-94127380D01*
X127504761Y-94270238D01*
X127409523Y-94365476D01*
X127314285Y-94413095D01*
D12*
X167638095Y-77225000D02*
X167542857Y-77177380D01*
X167400000Y-77177380D01*
X167257142Y-77225000D01*
X167161904Y-77320238D01*
X167114285Y-77415476D01*
X167066666Y-77605952D01*
X167066666Y-77748809D01*
X167114285Y-77939285D01*
X167161904Y-78034523D01*
X167257142Y-78129761D01*
X167400000Y-78177380D01*
X167495238Y-78177380D01*
X167638095Y-78129761D01*
X167685714Y-78082142D01*
X167685714Y-77748809D01*
X167495238Y-77748809D01*
X168114285Y-78177380D02*
X168114285Y-77177380D01*
X168685714Y-78177380D01*
X168685714Y-77177380D01*
X169161904Y-78177380D02*
X169161904Y-77177380D01*
X169400000Y-77177380D01*
X169542857Y-77225000D01*
X169638095Y-77320238D01*
X169685714Y-77415476D01*
X169733333Y-77605952D01*
X169733333Y-77748809D01*
X169685714Y-77939285D01*
X169638095Y-78034523D01*
X169542857Y-78129761D01*
X169400000Y-78177380D01*
X169161904Y-78177380D01*
D10*
X142800000Y-85627380D02*
X142800000Y-84627380D01*
X143847619Y-85532142D02*
X143800000Y-85579761D01*
X143657142Y-85627380D01*
X143561904Y-85627380D01*
X143419047Y-85579761D01*
X143323809Y-85484523D01*
X143276190Y-85389285D01*
X143228571Y-85198809D01*
X143228571Y-85055952D01*
X143276190Y-84865476D01*
X143323809Y-84770238D01*
X143419047Y-84675000D01*
X143561904Y-84627380D01*
X143657142Y-84627380D01*
X143800000Y-84675000D01*
X143847619Y-84722619D01*
X144276190Y-85627380D02*
X144276190Y-84627380D01*
X144657142Y-84627380D01*
X144752380Y-84675000D01*
X144800000Y-84722619D01*
X144847619Y-84817857D01*
X144847619Y-84960714D01*
X144800000Y-85055952D01*
X144752380Y-85103571D01*
X144657142Y-85151190D01*
X144276190Y-85151190D01*
X181685714Y-105627380D02*
X181114285Y-105627380D01*
X181400000Y-105627380D02*
X181400000Y-104627380D01*
X181304761Y-104770238D01*
X181209523Y-104865476D01*
X181114285Y-104913095D01*
D12*
X186538095Y-114046428D02*
X187300000Y-114046428D01*
X188300000Y-114427380D02*
X187728571Y-114427380D01*
X188014285Y-114427380D02*
X188014285Y-113427380D01*
X187919047Y-113570238D01*
X187823809Y-113665476D01*
X187728571Y-113713095D01*
X188680952Y-113522619D02*
X188728571Y-113475000D01*
X188823809Y-113427380D01*
X189061904Y-113427380D01*
X189157142Y-113475000D01*
X189204761Y-113522619D01*
X189252380Y-113617857D01*
X189252380Y-113713095D01*
X189204761Y-113855952D01*
X188633333Y-114427380D01*
X189252380Y-114427380D01*
X189538095Y-113427380D02*
X189871428Y-114427380D01*
X190204761Y-113427380D01*
X151814285Y-77796428D02*
X152576190Y-77796428D01*
X152195238Y-78177380D02*
X152195238Y-77415476D01*
X153528571Y-77177380D02*
X153052380Y-77177380D01*
X153004761Y-77653571D01*
X153052380Y-77605952D01*
X153147619Y-77558333D01*
X153385714Y-77558333D01*
X153480952Y-77605952D01*
X153528571Y-77653571D01*
X153576190Y-77748809D01*
X153576190Y-77986904D01*
X153528571Y-78082142D01*
X153480952Y-78129761D01*
X153385714Y-78177380D01*
X153147619Y-78177380D01*
X153052380Y-78129761D01*
X153004761Y-78082142D01*
X153861904Y-77177380D02*
X154195238Y-78177380D01*
X154528571Y-77177380D01*
D10*
X121885714Y-111427380D02*
X121314285Y-111427380D01*
X121600000Y-111427380D02*
X121600000Y-110427380D01*
X121504761Y-110570238D01*
X121409523Y-110665476D01*
X121314285Y-110713095D01*
X140752380Y-82946428D02*
X139752380Y-82946428D01*
X140466666Y-82613095D01*
X139752380Y-82279761D01*
X140752380Y-82279761D01*
X140752380Y-81803571D02*
X139752380Y-81803571D01*
X140704761Y-81375000D02*
X140752380Y-81232142D01*
X140752380Y-80994047D01*
X140704761Y-80898809D01*
X140657142Y-80851190D01*
X140561904Y-80803571D01*
X140466666Y-80803571D01*
X140371428Y-80851190D01*
X140323809Y-80898809D01*
X140276190Y-80994047D01*
X140228571Y-81184523D01*
X140180952Y-81279761D01*
X140133333Y-81327380D01*
X140038095Y-81375000D01*
X139942857Y-81375000D01*
X139847619Y-81327380D01*
X139800000Y-81279761D01*
X139752380Y-81184523D01*
X139752380Y-80946428D01*
X139800000Y-80803571D01*
X139752380Y-80184523D02*
X139752380Y-79994047D01*
X139800000Y-79898809D01*
X139895238Y-79803571D01*
X140085714Y-79755952D01*
X140419047Y-79755952D01*
X140609523Y-79803571D01*
X140704761Y-79898809D01*
X140752380Y-79994047D01*
X140752380Y-80184523D01*
X140704761Y-80279761D01*
X140609523Y-80375000D01*
X140419047Y-80422619D01*
X140085714Y-80422619D01*
X139895238Y-80375000D01*
X139800000Y-80279761D01*
X139752380Y-80184523D01*
X186066666Y-104627380D02*
X186685714Y-104627380D01*
X186352380Y-105008333D01*
X186495238Y-105008333D01*
X186590476Y-105055952D01*
X186638095Y-105103571D01*
X186685714Y-105198809D01*
X186685714Y-105436904D01*
X186638095Y-105532142D01*
X186590476Y-105579761D01*
X186495238Y-105627380D01*
X186209523Y-105627380D01*
X186114285Y-105579761D01*
X186066666Y-105532142D01*
X183614285Y-104722619D02*
X183661904Y-104675000D01*
X183757142Y-104627380D01*
X183995238Y-104627380D01*
X184090476Y-104675000D01*
X184138095Y-104722619D01*
X184185714Y-104817857D01*
X184185714Y-104913095D01*
X184138095Y-105055952D01*
X183566666Y-105627380D01*
X184185714Y-105627380D01*
D12*
X186971428Y-111927380D02*
X186971428Y-110927380D01*
X187352380Y-110927380D01*
X187447619Y-110975000D01*
X187495238Y-111022619D01*
X187542857Y-111117857D01*
X187542857Y-111260714D01*
X187495238Y-111355952D01*
X187447619Y-111403571D01*
X187352380Y-111451190D01*
X186971428Y-111451190D01*
X187971428Y-111927380D02*
X187971428Y-111260714D01*
X187971428Y-110927380D02*
X187923809Y-110975000D01*
X187971428Y-111022619D01*
X188019047Y-110975000D01*
X187971428Y-110927380D01*
X187971428Y-111022619D01*
X188447619Y-111260714D02*
X188447619Y-111927380D01*
X188447619Y-111355952D02*
X188495238Y-111308333D01*
X188590476Y-111260714D01*
X188733333Y-111260714D01*
X188828571Y-111308333D01*
X188876190Y-111403571D01*
X188876190Y-111927380D01*
X189304761Y-111022619D02*
X189352380Y-110975000D01*
X189447619Y-110927380D01*
X189685714Y-110927380D01*
X189780952Y-110975000D01*
X189828571Y-111022619D01*
X189876190Y-111117857D01*
X189876190Y-111213095D01*
X189828571Y-111355952D01*
X189257142Y-111927380D01*
X189876190Y-111927380D01*
D10*
X142214285Y-87622619D02*
X142261904Y-87575000D01*
X142357142Y-87527380D01*
X142595238Y-87527380D01*
X142690476Y-87575000D01*
X142738095Y-87622619D01*
X142785714Y-87717857D01*
X142785714Y-87813095D01*
X142738095Y-87955952D01*
X142166666Y-88527380D01*
X142785714Y-88527380D01*
X179914285Y-108722619D02*
X179961904Y-108675000D01*
X180057142Y-108627380D01*
X180295238Y-108627380D01*
X180390476Y-108675000D01*
X180438095Y-108722619D01*
X180485714Y-108817857D01*
X180485714Y-108913095D01*
X180438095Y-109055952D01*
X179866666Y-109627380D01*
X180485714Y-109627380D01*
X122552380Y-89860714D02*
X122552380Y-90336904D01*
X121552380Y-90336904D01*
X122457142Y-88955952D02*
X122504761Y-89003571D01*
X122552380Y-89146428D01*
X122552380Y-89241666D01*
X122504761Y-89384523D01*
X122409523Y-89479761D01*
X122314285Y-89527380D01*
X122123809Y-89575000D01*
X121980952Y-89575000D01*
X121790476Y-89527380D01*
X121695238Y-89479761D01*
X121600000Y-89384523D01*
X121552380Y-89241666D01*
X121552380Y-89146428D01*
X121600000Y-89003571D01*
X121647619Y-88955952D01*
X122552380Y-88527380D02*
X121552380Y-88527380D01*
X121552380Y-88289285D01*
X121600000Y-88146428D01*
X121695238Y-88051190D01*
X121790476Y-88003571D01*
X121980952Y-87955952D01*
X122123809Y-87955952D01*
X122314285Y-88003571D01*
X122409523Y-88051190D01*
X122504761Y-88146428D01*
X122552380Y-88289285D01*
X122552380Y-88527380D01*
X122552380Y-86765476D02*
X121552380Y-86765476D01*
X121647619Y-86336904D02*
X121600000Y-86289285D01*
X121552380Y-86194047D01*
X121552380Y-85955952D01*
X121600000Y-85860714D01*
X121647619Y-85813095D01*
X121742857Y-85765476D01*
X121838095Y-85765476D01*
X121980952Y-85813095D01*
X122552380Y-86384523D01*
X122552380Y-85765476D01*
X122457142Y-84765476D02*
X122504761Y-84813095D01*
X122552380Y-84955952D01*
X122552380Y-85051190D01*
X122504761Y-85194047D01*
X122409523Y-85289285D01*
X122314285Y-85336904D01*
X122123809Y-85384523D01*
X121980952Y-85384523D01*
X121790476Y-85336904D01*
X121695238Y-85289285D01*
X121600000Y-85194047D01*
X121552380Y-85051190D01*
X121552380Y-84955952D01*
X121600000Y-84813095D01*
X121647619Y-84765476D01*
X127609523Y-112727380D02*
X127609523Y-111727380D01*
X127990476Y-111727380D01*
X128085714Y-111775000D01*
X128133333Y-111822619D01*
X128180952Y-111917857D01*
X128180952Y-112060714D01*
X128133333Y-112155952D01*
X128085714Y-112203571D01*
X127990476Y-112251190D01*
X127609523Y-112251190D01*
X128752380Y-112727380D02*
X128657142Y-112679761D01*
X128609523Y-112632142D01*
X128561904Y-112536904D01*
X128561904Y-112251190D01*
X128609523Y-112155952D01*
X128657142Y-112108333D01*
X128752380Y-112060714D01*
X128895238Y-112060714D01*
X128990476Y-112108333D01*
X129038095Y-112155952D01*
X129085714Y-112251190D01*
X129085714Y-112536904D01*
X129038095Y-112632142D01*
X128990476Y-112679761D01*
X128895238Y-112727380D01*
X128752380Y-112727380D01*
X129514285Y-112727380D02*
X129514285Y-112060714D01*
X129514285Y-112251190D02*
X129561904Y-112155952D01*
X129609523Y-112108333D01*
X129704761Y-112060714D01*
X129800000Y-112060714D01*
X129990476Y-112060714D02*
X130371428Y-112060714D01*
X130133333Y-111727380D02*
X130133333Y-112584523D01*
X130180952Y-112679761D01*
X130276190Y-112727380D01*
X130371428Y-112727380D01*
X131466666Y-112727380D02*
X131466666Y-111727380D01*
X131704761Y-111727380D01*
X131847619Y-111775000D01*
X131942857Y-111870238D01*
X131990476Y-111965476D01*
X132038095Y-112155952D01*
X132038095Y-112298809D01*
X131990476Y-112489285D01*
X131942857Y-112584523D01*
X131847619Y-112679761D01*
X131704761Y-112727380D01*
X131466666Y-112727380D01*
X132538095Y-89975000D02*
X132442857Y-89927380D01*
X132300000Y-89927380D01*
X132157142Y-89975000D01*
X132061904Y-90070238D01*
X132014285Y-90165476D01*
X131966666Y-90355952D01*
X131966666Y-90498809D01*
X132014285Y-90689285D01*
X132061904Y-90784523D01*
X132157142Y-90879761D01*
X132300000Y-90927380D01*
X132395238Y-90927380D01*
X132538095Y-90879761D01*
X132585714Y-90832142D01*
X132585714Y-90498809D01*
X132395238Y-90498809D01*
X133014285Y-90927380D02*
X133014285Y-89927380D01*
X133585714Y-90927380D01*
X133585714Y-89927380D01*
X134061904Y-90927380D02*
X134061904Y-89927380D01*
X134300000Y-89927380D01*
X134442857Y-89975000D01*
X134538095Y-90070238D01*
X134585714Y-90165476D01*
X134633333Y-90355952D01*
X134633333Y-90498809D01*
X134585714Y-90689285D01*
X134538095Y-90784523D01*
X134442857Y-90879761D01*
X134300000Y-90927380D01*
X134061904Y-90927380D01*
X140385714Y-89927380D02*
X140719047Y-90927380D01*
X141052380Y-89927380D01*
X141242857Y-89927380D02*
X141814285Y-89927380D01*
X141528571Y-90927380D02*
X141528571Y-89927380D01*
X142671428Y-89975000D02*
X142576190Y-89927380D01*
X142433333Y-89927380D01*
X142290476Y-89975000D01*
X142195238Y-90070238D01*
X142147619Y-90165476D01*
X142100000Y-90355952D01*
X142100000Y-90498809D01*
X142147619Y-90689285D01*
X142195238Y-90784523D01*
X142290476Y-90879761D01*
X142433333Y-90927380D01*
X142528571Y-90927380D01*
X142671428Y-90879761D01*
X142719047Y-90832142D01*
X142719047Y-90498809D01*
X142528571Y-90498809D01*
D12*
X156338095Y-77796428D02*
X157100000Y-77796428D01*
X156719047Y-78177380D02*
X156719047Y-77415476D01*
X158100000Y-78177380D02*
X157528571Y-78177380D01*
X157814285Y-78177380D02*
X157814285Y-77177380D01*
X157719047Y-77320238D01*
X157623809Y-77415476D01*
X157528571Y-77463095D01*
X158480952Y-77272619D02*
X158528571Y-77225000D01*
X158623809Y-77177380D01*
X158861904Y-77177380D01*
X158957142Y-77225000D01*
X159004761Y-77272619D01*
X159052380Y-77367857D01*
X159052380Y-77463095D01*
X159004761Y-77605952D01*
X158433333Y-78177380D01*
X159052380Y-78177380D01*
X159338095Y-77177380D02*
X159671428Y-78177380D01*
X160004761Y-77177380D01*
D11*
X192854761Y-107067857D02*
X192902380Y-106925000D01*
X192902380Y-106686904D01*
X192854761Y-106591666D01*
X192807142Y-106544047D01*
X192711904Y-106496428D01*
X192616666Y-106496428D01*
X192521428Y-106544047D01*
X192473809Y-106591666D01*
X192426190Y-106686904D01*
X192378571Y-106877380D01*
X192330952Y-106972619D01*
X192283333Y-107020238D01*
X192188095Y-107067857D01*
X192092857Y-107067857D01*
X191997619Y-107020238D01*
X191950000Y-106972619D01*
X191902380Y-106877380D01*
X191902380Y-106639285D01*
X191950000Y-106496428D01*
X192902380Y-106067857D02*
X192235714Y-106067857D01*
X191902380Y-106067857D02*
X191950000Y-106115476D01*
X191997619Y-106067857D01*
X191950000Y-106020238D01*
X191902380Y-106067857D01*
X191997619Y-106067857D01*
X192235714Y-105163095D02*
X193045238Y-105163095D01*
X193140476Y-105210714D01*
X193188095Y-105258333D01*
X193235714Y-105353571D01*
X193235714Y-105496428D01*
X193188095Y-105591666D01*
X192854761Y-105163095D02*
X192902380Y-105258333D01*
X192902380Y-105448809D01*
X192854761Y-105544047D01*
X192807142Y-105591666D01*
X192711904Y-105639285D01*
X192426190Y-105639285D01*
X192330952Y-105591666D01*
X192283333Y-105544047D01*
X192235714Y-105448809D01*
X192235714Y-105258333D01*
X192283333Y-105163095D01*
X192235714Y-104686904D02*
X192902380Y-104686904D01*
X192330952Y-104686904D02*
X192283333Y-104639285D01*
X192235714Y-104544047D01*
X192235714Y-104401190D01*
X192283333Y-104305952D01*
X192378571Y-104258333D01*
X192902380Y-104258333D01*
X192902380Y-103353571D02*
X192378571Y-103353571D01*
X192283333Y-103401190D01*
X192235714Y-103496428D01*
X192235714Y-103686904D01*
X192283333Y-103782142D01*
X192854761Y-103353571D02*
X192902380Y-103448809D01*
X192902380Y-103686904D01*
X192854761Y-103782142D01*
X192759523Y-103829761D01*
X192664285Y-103829761D01*
X192569047Y-103782142D01*
X192521428Y-103686904D01*
X192521428Y-103448809D01*
X192473809Y-103353571D01*
X192902380Y-102734523D02*
X192854761Y-102829761D01*
X192759523Y-102877380D01*
X191902380Y-102877380D01*
X191950000Y-101067857D02*
X191902380Y-101163095D01*
X191902380Y-101305952D01*
X191950000Y-101448809D01*
X192045238Y-101544047D01*
X192140476Y-101591666D01*
X192330952Y-101639285D01*
X192473809Y-101639285D01*
X192664285Y-101591666D01*
X192759523Y-101544047D01*
X192854761Y-101448809D01*
X192902380Y-101305952D01*
X192902380Y-101210714D01*
X192854761Y-101067857D01*
X192807142Y-101020238D01*
X192473809Y-101020238D01*
X192473809Y-101210714D01*
X192854761Y-100210714D02*
X192902380Y-100305952D01*
X192902380Y-100496428D01*
X192854761Y-100591666D01*
X192759523Y-100639285D01*
X192378571Y-100639285D01*
X192283333Y-100591666D01*
X192235714Y-100496428D01*
X192235714Y-100305952D01*
X192283333Y-100210714D01*
X192378571Y-100163095D01*
X192473809Y-100163095D01*
X192569047Y-100639285D01*
X192235714Y-99734523D02*
X192902380Y-99734523D01*
X192330952Y-99734523D02*
X192283333Y-99686904D01*
X192235714Y-99591666D01*
X192235714Y-99448809D01*
X192283333Y-99353571D01*
X192378571Y-99305952D01*
X192902380Y-99305952D01*
X192854761Y-98448809D02*
X192902380Y-98544047D01*
X192902380Y-98734523D01*
X192854761Y-98829761D01*
X192759523Y-98877380D01*
X192378571Y-98877380D01*
X192283333Y-98829761D01*
X192235714Y-98734523D01*
X192235714Y-98544047D01*
X192283333Y-98448809D01*
X192378571Y-98401190D01*
X192473809Y-98401190D01*
X192569047Y-98877380D01*
X192902380Y-97972619D02*
X192235714Y-97972619D01*
X192426190Y-97972619D02*
X192330952Y-97925000D01*
X192283333Y-97877380D01*
X192235714Y-97782142D01*
X192235714Y-97686904D01*
X192902380Y-96925000D02*
X192378571Y-96925000D01*
X192283333Y-96972619D01*
X192235714Y-97067857D01*
X192235714Y-97258333D01*
X192283333Y-97353571D01*
X192854761Y-96925000D02*
X192902380Y-97020238D01*
X192902380Y-97258333D01*
X192854761Y-97353571D01*
X192759523Y-97401190D01*
X192664285Y-97401190D01*
X192569047Y-97353571D01*
X192521428Y-97258333D01*
X192521428Y-97020238D01*
X192473809Y-96925000D01*
X192235714Y-96591666D02*
X192235714Y-96210714D01*
X191902380Y-96448809D02*
X192759523Y-96448809D01*
X192854761Y-96401190D01*
X192902380Y-96305952D01*
X192902380Y-96210714D01*
X192902380Y-95734523D02*
X192854761Y-95829761D01*
X192807142Y-95877380D01*
X192711904Y-95925000D01*
X192426190Y-95925000D01*
X192330952Y-95877380D01*
X192283333Y-95829761D01*
X192235714Y-95734523D01*
X192235714Y-95591666D01*
X192283333Y-95496428D01*
X192330952Y-95448809D01*
X192426190Y-95401190D01*
X192711904Y-95401190D01*
X192807142Y-95448809D01*
X192854761Y-95496428D01*
X192902380Y-95591666D01*
X192902380Y-95734523D01*
X192902380Y-94972619D02*
X192235714Y-94972619D01*
X192426190Y-94972619D02*
X192330952Y-94925000D01*
X192283333Y-94877380D01*
X192235714Y-94782142D01*
X192235714Y-94686904D01*
X191902380Y-93734523D02*
X192902380Y-93401190D01*
X191902380Y-93067857D01*
X191902380Y-92544047D02*
X191902380Y-92448809D01*
X191950000Y-92353571D01*
X191997619Y-92305952D01*
X192092857Y-92258333D01*
X192283333Y-92210714D01*
X192521428Y-92210714D01*
X192711904Y-92258333D01*
X192807142Y-92305952D01*
X192854761Y-92353571D01*
X192902380Y-92448809D01*
X192902380Y-92544047D01*
X192854761Y-92639285D01*
X192807142Y-92686904D01*
X192711904Y-92734523D01*
X192521428Y-92782142D01*
X192283333Y-92782142D01*
X192092857Y-92734523D01*
X191997619Y-92686904D01*
X191950000Y-92639285D01*
X191902380Y-92544047D01*
X192807142Y-91782142D02*
X192854761Y-91734523D01*
X192902380Y-91782142D01*
X192854761Y-91829761D01*
X192807142Y-91782142D01*
X192902380Y-91782142D01*
X191902380Y-91401190D02*
X191902380Y-90782142D01*
X192283333Y-91115476D01*
X192283333Y-90972619D01*
X192330952Y-90877380D01*
X192378571Y-90829761D01*
X192473809Y-90782142D01*
X192711904Y-90782142D01*
X192807142Y-90829761D01*
X192854761Y-90877380D01*
X192902380Y-90972619D01*
X192902380Y-91258333D01*
X192854761Y-91353571D01*
X192807142Y-91401190D01*
D12*
X186638095Y-108746428D02*
X187400000Y-108746428D01*
X187019047Y-109127380D02*
X187019047Y-108365476D01*
X188400000Y-109127380D02*
X187828571Y-109127380D01*
X188114285Y-109127380D02*
X188114285Y-108127380D01*
X188019047Y-108270238D01*
X187923809Y-108365476D01*
X187828571Y-108413095D01*
X188780952Y-108222619D02*
X188828571Y-108175000D01*
X188923809Y-108127380D01*
X189161904Y-108127380D01*
X189257142Y-108175000D01*
X189304761Y-108222619D01*
X189352380Y-108317857D01*
X189352380Y-108413095D01*
X189304761Y-108555952D01*
X188733333Y-109127380D01*
X189352380Y-109127380D01*
X189638095Y-108127380D02*
X189971428Y-109127380D01*
X190304761Y-108127380D01*
D10*
X137904761Y-82965476D02*
X137952380Y-82822619D01*
X137952380Y-82584523D01*
X137904761Y-82489285D01*
X137857142Y-82441666D01*
X137761904Y-82394047D01*
X137666666Y-82394047D01*
X137571428Y-82441666D01*
X137523809Y-82489285D01*
X137476190Y-82584523D01*
X137428571Y-82775000D01*
X137380952Y-82870238D01*
X137333333Y-82917857D01*
X137238095Y-82965476D01*
X137142857Y-82965476D01*
X137047619Y-82917857D01*
X137000000Y-82870238D01*
X136952380Y-82775000D01*
X136952380Y-82536904D01*
X137000000Y-82394047D01*
X137857142Y-81394047D02*
X137904761Y-81441666D01*
X137952380Y-81584523D01*
X137952380Y-81679761D01*
X137904761Y-81822619D01*
X137809523Y-81917857D01*
X137714285Y-81965476D01*
X137523809Y-82013095D01*
X137380952Y-82013095D01*
X137190476Y-81965476D01*
X137095238Y-81917857D01*
X137000000Y-81822619D01*
X136952380Y-81679761D01*
X136952380Y-81584523D01*
X137000000Y-81441666D01*
X137047619Y-81394047D01*
X137952380Y-80489285D02*
X137952380Y-80965476D01*
X136952380Y-80965476D01*
X137952380Y-80155952D02*
X136952380Y-80155952D01*
X137952380Y-79584523D02*
X137380952Y-80013095D01*
X136952380Y-79584523D02*
X137523809Y-80155952D01*
D12*
X161138095Y-77796428D02*
X161900000Y-77796428D01*
X162900000Y-78177380D02*
X162328571Y-78177380D01*
X162614285Y-78177380D02*
X162614285Y-77177380D01*
X162519047Y-77320238D01*
X162423809Y-77415476D01*
X162328571Y-77463095D01*
X163280952Y-77272619D02*
X163328571Y-77225000D01*
X163423809Y-77177380D01*
X163661904Y-77177380D01*
X163757142Y-77225000D01*
X163804761Y-77272619D01*
X163852380Y-77367857D01*
X163852380Y-77463095D01*
X163804761Y-77605952D01*
X163233333Y-78177380D01*
X163852380Y-78177380D01*
X164138095Y-77177380D02*
X164471428Y-78177380D01*
X164804761Y-77177380D01*
D10*
X159753333Y-100412142D02*
X159705714Y-100459761D01*
X159562857Y-100507380D01*
X159467619Y-100507380D01*
X159324761Y-100459761D01*
X159229523Y-100364523D01*
X159181904Y-100269285D01*
X159134285Y-100078809D01*
X159134285Y-99935952D01*
X159181904Y-99745476D01*
X159229523Y-99650238D01*
X159324761Y-99555000D01*
X159467619Y-99507380D01*
X159562857Y-99507380D01*
X159705714Y-99555000D01*
X159753333Y-99602619D01*
X160705714Y-100507380D02*
X160134285Y-100507380D01*
X160420000Y-100507380D02*
X160420000Y-99507380D01*
X160324761Y-99650238D01*
X160229523Y-99745476D01*
X160134285Y-99793095D01*
X159677142Y-107167380D02*
X159343809Y-106691190D01*
X159105714Y-107167380D02*
X159105714Y-106167380D01*
X159486666Y-106167380D01*
X159581904Y-106215000D01*
X159629523Y-106262619D01*
X159677142Y-106357857D01*
X159677142Y-106500714D01*
X159629523Y-106595952D01*
X159581904Y-106643571D01*
X159486666Y-106691190D01*
X159105714Y-106691190D01*
X160629523Y-107167380D02*
X160058095Y-107167380D01*
X160343809Y-107167380D02*
X160343809Y-106167380D01*
X160248571Y-106310238D01*
X160153333Y-106405476D01*
X160058095Y-106453095D01*
X161486666Y-106500714D02*
X161486666Y-107167380D01*
X161248571Y-106119761D02*
X161010476Y-106834047D01*
X161629523Y-106834047D01*
X159687142Y-104777380D02*
X159353809Y-104301190D01*
X159115714Y-104777380D02*
X159115714Y-103777380D01*
X159496666Y-103777380D01*
X159591904Y-103825000D01*
X159639523Y-103872619D01*
X159687142Y-103967857D01*
X159687142Y-104110714D01*
X159639523Y-104205952D01*
X159591904Y-104253571D01*
X159496666Y-104301190D01*
X159115714Y-104301190D01*
X160639523Y-104777380D02*
X160068095Y-104777380D01*
X160353809Y-104777380D02*
X160353809Y-103777380D01*
X160258571Y-103920238D01*
X160163333Y-104015476D01*
X160068095Y-104063095D01*
X160972857Y-103777380D02*
X161591904Y-103777380D01*
X161258571Y-104158333D01*
X161401428Y-104158333D01*
X161496666Y-104205952D01*
X161544285Y-104253571D01*
X161591904Y-104348809D01*
X161591904Y-104586904D01*
X161544285Y-104682142D01*
X161496666Y-104729761D01*
X161401428Y-104777380D01*
X161115714Y-104777380D01*
X161020476Y-104729761D01*
X160972857Y-104682142D01*
X139087142Y-113267380D02*
X138753809Y-112791190D01*
X138515714Y-113267380D02*
X138515714Y-112267380D01*
X138896666Y-112267380D01*
X138991904Y-112315000D01*
X139039523Y-112362619D01*
X139087142Y-112457857D01*
X139087142Y-112600714D01*
X139039523Y-112695952D01*
X138991904Y-112743571D01*
X138896666Y-112791190D01*
X138515714Y-112791190D01*
X140039523Y-113267380D02*
X139468095Y-113267380D01*
X139753809Y-113267380D02*
X139753809Y-112267380D01*
X139658571Y-112410238D01*
X139563333Y-112505476D01*
X139468095Y-112553095D01*
X140420476Y-112362619D02*
X140468095Y-112315000D01*
X140563333Y-112267380D01*
X140801428Y-112267380D01*
X140896666Y-112315000D01*
X140944285Y-112362619D01*
X140991904Y-112457857D01*
X140991904Y-112553095D01*
X140944285Y-112695952D01*
X140372857Y-113267380D01*
X140991904Y-113267380D01*
X137897142Y-114727380D02*
X137563809Y-114251190D01*
X137325714Y-114727380D02*
X137325714Y-113727380D01*
X137706666Y-113727380D01*
X137801904Y-113775000D01*
X137849523Y-113822619D01*
X137897142Y-113917857D01*
X137897142Y-114060714D01*
X137849523Y-114155952D01*
X137801904Y-114203571D01*
X137706666Y-114251190D01*
X137325714Y-114251190D01*
X138849523Y-114727380D02*
X138278095Y-114727380D01*
X138563809Y-114727380D02*
X138563809Y-113727380D01*
X138468571Y-113870238D01*
X138373333Y-113965476D01*
X138278095Y-114013095D01*
X139801904Y-114727380D02*
X139230476Y-114727380D01*
X139516190Y-114727380D02*
X139516190Y-113727380D01*
X139420952Y-113870238D01*
X139325714Y-113965476D01*
X139230476Y-114013095D01*
X159827142Y-102627380D02*
X159493809Y-102151190D01*
X159255714Y-102627380D02*
X159255714Y-101627380D01*
X159636666Y-101627380D01*
X159731904Y-101675000D01*
X159779523Y-101722619D01*
X159827142Y-101817857D01*
X159827142Y-101960714D01*
X159779523Y-102055952D01*
X159731904Y-102103571D01*
X159636666Y-102151190D01*
X159255714Y-102151190D01*
X160779523Y-102627380D02*
X160208095Y-102627380D01*
X160493809Y-102627380D02*
X160493809Y-101627380D01*
X160398571Y-101770238D01*
X160303333Y-101865476D01*
X160208095Y-101913095D01*
X161398571Y-101627380D02*
X161493809Y-101627380D01*
X161589047Y-101675000D01*
X161636666Y-101722619D01*
X161684285Y-101817857D01*
X161731904Y-102008333D01*
X161731904Y-102246428D01*
X161684285Y-102436904D01*
X161636666Y-102532142D01*
X161589047Y-102579761D01*
X161493809Y-102627380D01*
X161398571Y-102627380D01*
X161303333Y-102579761D01*
X161255714Y-102532142D01*
X161208095Y-102436904D01*
X161160476Y-102246428D01*
X161160476Y-102008333D01*
X161208095Y-101817857D01*
X161255714Y-101722619D01*
X161303333Y-101675000D01*
X161398571Y-101627380D01*
X139843333Y-116717380D02*
X139510000Y-116241190D01*
X139271904Y-116717380D02*
X139271904Y-115717380D01*
X139652857Y-115717380D01*
X139748095Y-115765000D01*
X139795714Y-115812619D01*
X139843333Y-115907857D01*
X139843333Y-116050714D01*
X139795714Y-116145952D01*
X139748095Y-116193571D01*
X139652857Y-116241190D01*
X139271904Y-116241190D01*
X140319523Y-116717380D02*
X140510000Y-116717380D01*
X140605238Y-116669761D01*
X140652857Y-116622142D01*
X140748095Y-116479285D01*
X140795714Y-116288809D01*
X140795714Y-115907857D01*
X140748095Y-115812619D01*
X140700476Y-115765000D01*
X140605238Y-115717380D01*
X140414761Y-115717380D01*
X140319523Y-115765000D01*
X140271904Y-115812619D01*
X140224285Y-115907857D01*
X140224285Y-116145952D01*
X140271904Y-116241190D01*
X140319523Y-116288809D01*
X140414761Y-116336428D01*
X140605238Y-116336428D01*
X140700476Y-116288809D01*
X140748095Y-116241190D01*
X140795714Y-116145952D01*
X150361666Y-106772380D02*
X150361666Y-107486666D01*
X150314047Y-107629523D01*
X150218809Y-107724761D01*
X150075952Y-107772380D01*
X149980714Y-107772380D01*
X151266428Y-106772380D02*
X151075952Y-106772380D01*
X150980714Y-106820000D01*
X150933095Y-106867619D01*
X150837857Y-107010476D01*
X150790238Y-107200952D01*
X150790238Y-107581904D01*
X150837857Y-107677142D01*
X150885476Y-107724761D01*
X150980714Y-107772380D01*
X151171190Y-107772380D01*
X151266428Y-107724761D01*
X151314047Y-107677142D01*
X151361666Y-107581904D01*
X151361666Y-107343809D01*
X151314047Y-107248571D01*
X151266428Y-107200952D01*
X151171190Y-107153333D01*
X150980714Y-107153333D01*
X150885476Y-107200952D01*
X150837857Y-107248571D01*
X150790238Y-107343809D01*
X152523333Y-107522142D02*
X152475714Y-107569761D01*
X152332857Y-107617380D01*
X152237619Y-107617380D01*
X152094761Y-107569761D01*
X151999523Y-107474523D01*
X151951904Y-107379285D01*
X151904285Y-107188809D01*
X151904285Y-107045952D01*
X151951904Y-106855476D01*
X151999523Y-106760238D01*
X152094761Y-106665000D01*
X152237619Y-106617380D01*
X152332857Y-106617380D01*
X152475714Y-106665000D01*
X152523333Y-106712619D01*
X152856666Y-106617380D02*
X153475714Y-106617380D01*
X153142380Y-106998333D01*
X153285238Y-106998333D01*
X153380476Y-107045952D01*
X153428095Y-107093571D01*
X153475714Y-107188809D01*
X153475714Y-107426904D01*
X153428095Y-107522142D01*
X153380476Y-107569761D01*
X153285238Y-107617380D01*
X152999523Y-107617380D01*
X152904285Y-107569761D01*
X152856666Y-107522142D01*
X153163333Y-101242142D02*
X153115714Y-101289761D01*
X152972857Y-101337380D01*
X152877619Y-101337380D01*
X152734761Y-101289761D01*
X152639523Y-101194523D01*
X152591904Y-101099285D01*
X152544285Y-100908809D01*
X152544285Y-100765952D01*
X152591904Y-100575476D01*
X152639523Y-100480238D01*
X152734761Y-100385000D01*
X152877619Y-100337380D01*
X152972857Y-100337380D01*
X153115714Y-100385000D01*
X153163333Y-100432619D01*
X153544285Y-100432619D02*
X153591904Y-100385000D01*
X153687142Y-100337380D01*
X153925238Y-100337380D01*
X154020476Y-100385000D01*
X154068095Y-100432619D01*
X154115714Y-100527857D01*
X154115714Y-100623095D01*
X154068095Y-100765952D01*
X153496666Y-101337380D01*
X154115714Y-101337380D01*
X183404761Y-116927380D02*
X183071428Y-116451190D01*
X182833333Y-116927380D02*
X182833333Y-115927380D01*
X183214285Y-115927380D01*
X183309523Y-115975000D01*
X183357142Y-116022619D01*
X183404761Y-116117857D01*
X183404761Y-116260714D01*
X183357142Y-116355952D01*
X183309523Y-116403571D01*
X183214285Y-116451190D01*
X182833333Y-116451190D01*
X183690476Y-115927380D02*
X184023809Y-116927380D01*
X184357142Y-115927380D01*
X185214285Y-116927380D02*
X184642857Y-116927380D01*
X184928571Y-116927380D02*
X184928571Y-115927380D01*
X184833333Y-116070238D01*
X184738095Y-116165476D01*
X184642857Y-116213095D01*
X175704761Y-104527380D02*
X175371428Y-104051190D01*
X175133333Y-104527380D02*
X175133333Y-103527380D01*
X175514285Y-103527380D01*
X175609523Y-103575000D01*
X175657142Y-103622619D01*
X175704761Y-103717857D01*
X175704761Y-103860714D01*
X175657142Y-103955952D01*
X175609523Y-104003571D01*
X175514285Y-104051190D01*
X175133333Y-104051190D01*
X175990476Y-103527380D02*
X176323809Y-104527380D01*
X176657142Y-103527380D01*
X176942857Y-103622619D02*
X176990476Y-103575000D01*
X177085714Y-103527380D01*
X177323809Y-103527380D01*
X177419047Y-103575000D01*
X177466666Y-103622619D01*
X177514285Y-103717857D01*
X177514285Y-103813095D01*
X177466666Y-103955952D01*
X176895238Y-104527380D01*
X177514285Y-104527380D01*
X127916666Y-110202380D02*
X127916666Y-110916666D01*
X127869047Y-111059523D01*
X127773809Y-111154761D01*
X127630952Y-111202380D01*
X127535714Y-111202380D01*
X128916666Y-111202380D02*
X128345238Y-111202380D01*
X128630952Y-111202380D02*
X128630952Y-110202380D01*
X128535714Y-110345238D01*
X128440476Y-110440476D01*
X128345238Y-110488095D01*
X180336302Y-100489176D02*
X180383921Y-100536795D01*
X180431540Y-100679652D01*
X180431540Y-100774890D01*
X180383921Y-100917747D01*
X180288683Y-101012985D01*
X180193445Y-101060604D01*
X180002969Y-101108223D01*
X179860112Y-101108223D01*
X179669636Y-101060604D01*
X179574398Y-101012985D01*
X179479160Y-100917747D01*
X179431540Y-100774890D01*
X179431540Y-100679652D01*
X179479160Y-100536795D01*
X179526779Y-100489176D01*
X179526779Y-100108223D02*
X179479160Y-100060604D01*
X179431540Y-99965366D01*
X179431540Y-99727271D01*
X179479160Y-99632033D01*
X179526779Y-99584414D01*
X179622017Y-99536795D01*
X179717255Y-99536795D01*
X179860112Y-99584414D01*
X180431540Y-100155842D01*
X180431540Y-99536795D01*
X179764874Y-98679652D02*
X180431540Y-98679652D01*
X179383921Y-98917747D02*
X180098207Y-99155842D01*
X180098207Y-98536795D01*
X151910253Y-99502380D02*
X151576920Y-99026190D01*
X151338824Y-99502380D02*
X151338824Y-98502380D01*
X151719777Y-98502380D01*
X151815015Y-98550000D01*
X151862634Y-98597619D01*
X151910253Y-98692857D01*
X151910253Y-98835714D01*
X151862634Y-98930952D01*
X151815015Y-98978571D01*
X151719777Y-99026190D01*
X151338824Y-99026190D01*
X152243586Y-98502380D02*
X152862634Y-98502380D01*
X152529300Y-98883333D01*
X152672158Y-98883333D01*
X152767396Y-98930952D01*
X152815015Y-98978571D01*
X152862634Y-99073809D01*
X152862634Y-99311904D01*
X152815015Y-99407142D01*
X152767396Y-99454761D01*
X152672158Y-99502380D01*
X152386443Y-99502380D01*
X152291205Y-99454761D01*
X152243586Y-99407142D01*
X127666666Y-81227380D02*
X127666666Y-81941666D01*
X127619047Y-82084523D01*
X127523809Y-82179761D01*
X127380952Y-82227380D01*
X127285714Y-82227380D01*
X128047619Y-81227380D02*
X128666666Y-81227380D01*
X128333333Y-81608333D01*
X128476190Y-81608333D01*
X128571428Y-81655952D01*
X128619047Y-81703571D01*
X128666666Y-81798809D01*
X128666666Y-82036904D01*
X128619047Y-82132142D01*
X128571428Y-82179761D01*
X128476190Y-82227380D01*
X128190476Y-82227380D01*
X128095238Y-82179761D01*
X128047619Y-82132142D01*
X146618824Y-99144757D02*
X146618824Y-98144757D01*
X146856920Y-98144757D01*
X146999777Y-98192377D01*
X147095015Y-98287615D01*
X147142634Y-98382853D01*
X147190253Y-98573329D01*
X147190253Y-98716186D01*
X147142634Y-98906662D01*
X147095015Y-99001900D01*
X146999777Y-99097138D01*
X146856920Y-99144757D01*
X146618824Y-99144757D01*
X147571205Y-98239996D02*
X147618824Y-98192377D01*
X147714062Y-98144757D01*
X147952158Y-98144757D01*
X148047396Y-98192377D01*
X148095015Y-98239996D01*
X148142634Y-98335234D01*
X148142634Y-98430472D01*
X148095015Y-98573329D01*
X147523586Y-99144757D01*
X148142634Y-99144757D01*
X161479397Y-113835601D02*
X161527016Y-113883220D01*
X161574635Y-114026077D01*
X161574635Y-114121315D01*
X161527016Y-114264172D01*
X161431778Y-114359410D01*
X161336540Y-114407029D01*
X161146064Y-114454648D01*
X161003207Y-114454648D01*
X160812731Y-114407029D01*
X160717493Y-114359410D01*
X160622255Y-114264172D01*
X160574635Y-114121315D01*
X160574635Y-114026077D01*
X160622255Y-113883220D01*
X160669874Y-113835601D01*
X160669874Y-113454648D02*
X160622255Y-113407029D01*
X160574635Y-113311791D01*
X160574635Y-113073696D01*
X160622255Y-112978458D01*
X160669874Y-112930839D01*
X160765112Y-112883220D01*
X160860350Y-112883220D01*
X161003207Y-112930839D01*
X161574635Y-113502267D01*
X161574635Y-112883220D01*
X160669874Y-112502267D02*
X160622255Y-112454648D01*
X160574635Y-112359410D01*
X160574635Y-112121315D01*
X160622255Y-112026077D01*
X160669874Y-111978458D01*
X160765112Y-111930839D01*
X160860350Y-111930839D01*
X161003207Y-111978458D01*
X161574635Y-112549886D01*
X161574635Y-111930839D01*
X180007142Y-91467857D02*
X180054761Y-91515476D01*
X180102380Y-91658333D01*
X180102380Y-91753571D01*
X180054761Y-91896428D01*
X179959523Y-91991666D01*
X179864285Y-92039285D01*
X179673809Y-92086904D01*
X179530952Y-92086904D01*
X179340476Y-92039285D01*
X179245238Y-91991666D01*
X179150000Y-91896428D01*
X179102380Y-91753571D01*
X179102380Y-91658333D01*
X179150000Y-91515476D01*
X179197619Y-91467857D01*
X180102380Y-90515476D02*
X180102380Y-91086904D01*
X180102380Y-90801190D02*
X179102380Y-90801190D01*
X179245238Y-90896428D01*
X179340476Y-90991666D01*
X179388095Y-91086904D01*
X180102380Y-90039285D02*
X180102380Y-89848809D01*
X180054761Y-89753571D01*
X180007142Y-89705952D01*
X179864285Y-89610714D01*
X179673809Y-89563095D01*
X179292857Y-89563095D01*
X179197619Y-89610714D01*
X179150000Y-89658333D01*
X179102380Y-89753571D01*
X179102380Y-89944047D01*
X179150000Y-90039285D01*
X179197619Y-90086904D01*
X179292857Y-90134523D01*
X179530952Y-90134523D01*
X179626190Y-90086904D01*
X179673809Y-90039285D01*
X179721428Y-89944047D01*
X179721428Y-89753571D01*
X179673809Y-89658333D01*
X179626190Y-89610714D01*
X179530952Y-89563095D01*
X182326302Y-100529176D02*
X182373921Y-100576795D01*
X182421540Y-100719652D01*
X182421540Y-100814890D01*
X182373921Y-100957747D01*
X182278683Y-101052985D01*
X182183445Y-101100604D01*
X181992969Y-101148223D01*
X181850112Y-101148223D01*
X181659636Y-101100604D01*
X181564398Y-101052985D01*
X181469160Y-100957747D01*
X181421540Y-100814890D01*
X181421540Y-100719652D01*
X181469160Y-100576795D01*
X181516779Y-100529176D01*
X181516779Y-100148223D02*
X181469160Y-100100604D01*
X181421540Y-100005366D01*
X181421540Y-99767271D01*
X181469160Y-99672033D01*
X181516779Y-99624414D01*
X181612017Y-99576795D01*
X181707255Y-99576795D01*
X181850112Y-99624414D01*
X182421540Y-100195842D01*
X182421540Y-99576795D01*
X181421540Y-99243461D02*
X181421540Y-98624414D01*
X181802493Y-98957747D01*
X181802493Y-98814890D01*
X181850112Y-98719652D01*
X181897731Y-98672033D01*
X181992969Y-98624414D01*
X182231064Y-98624414D01*
X182326302Y-98672033D01*
X182373921Y-98719652D01*
X182421540Y-98814890D01*
X182421540Y-99100604D01*
X182373921Y-99195842D01*
X182326302Y-99243461D01*
X175776302Y-101723461D02*
X175728683Y-101771080D01*
X175585826Y-101818699D01*
X175490588Y-101818699D01*
X175347731Y-101771080D01*
X175252493Y-101675842D01*
X175204874Y-101580604D01*
X175157255Y-101390128D01*
X175157255Y-101247271D01*
X175204874Y-101056795D01*
X175252493Y-100961557D01*
X175347731Y-100866319D01*
X175490588Y-100818699D01*
X175585826Y-100818699D01*
X175728683Y-100866319D01*
X175776302Y-100913938D01*
X176157255Y-100913938D02*
X176204874Y-100866319D01*
X176300112Y-100818699D01*
X176538207Y-100818699D01*
X176633445Y-100866319D01*
X176681064Y-100913938D01*
X176728683Y-101009176D01*
X176728683Y-101104414D01*
X176681064Y-101247271D01*
X176109636Y-101818699D01*
X176728683Y-101818699D01*
X177347731Y-100818699D02*
X177442969Y-100818699D01*
X177538207Y-100866319D01*
X177585826Y-100913938D01*
X177633445Y-101009176D01*
X177681064Y-101199652D01*
X177681064Y-101437747D01*
X177633445Y-101628223D01*
X177585826Y-101723461D01*
X177538207Y-101771080D01*
X177442969Y-101818699D01*
X177347731Y-101818699D01*
X177252493Y-101771080D01*
X177204874Y-101723461D01*
X177157255Y-101628223D01*
X177109636Y-101437747D01*
X177109636Y-101199652D01*
X177157255Y-101009176D01*
X177204874Y-100913938D01*
X177252493Y-100866319D01*
X177347731Y-100818699D01*
X174727255Y-93448699D02*
X174727255Y-94258223D01*
X174774874Y-94353461D01*
X174822493Y-94401080D01*
X174917731Y-94448699D01*
X175108207Y-94448699D01*
X175203445Y-94401080D01*
X175251064Y-94353461D01*
X175298683Y-94258223D01*
X175298683Y-93448699D01*
X176203445Y-93448699D02*
X176012969Y-93448699D01*
X175917731Y-93496319D01*
X175870112Y-93543938D01*
X175774874Y-93686795D01*
X175727255Y-93877271D01*
X175727255Y-94258223D01*
X175774874Y-94353461D01*
X175822493Y-94401080D01*
X175917731Y-94448699D01*
X176108207Y-94448699D01*
X176203445Y-94401080D01*
X176251064Y-94353461D01*
X176298683Y-94258223D01*
X176298683Y-94020128D01*
X176251064Y-93924890D01*
X176203445Y-93877271D01*
X176108207Y-93829652D01*
X175917731Y-93829652D01*
X175822493Y-93877271D01*
X175774874Y-93924890D01*
X175727255Y-94020128D01*
X141174062Y-109649519D02*
X141126443Y-109697138D01*
X140983586Y-109744757D01*
X140888348Y-109744757D01*
X140745491Y-109697138D01*
X140650253Y-109601900D01*
X140602634Y-109506662D01*
X140555015Y-109316186D01*
X140555015Y-109173329D01*
X140602634Y-108982853D01*
X140650253Y-108887615D01*
X140745491Y-108792377D01*
X140888348Y-108744757D01*
X140983586Y-108744757D01*
X141126443Y-108792377D01*
X141174062Y-108839996D01*
X142126443Y-109744757D02*
X141555015Y-109744757D01*
X141840729Y-109744757D02*
X141840729Y-108744757D01*
X141745491Y-108887615D01*
X141650253Y-108982853D01*
X141555015Y-109030472D01*
X142983586Y-108744757D02*
X142793110Y-108744757D01*
X142697872Y-108792377D01*
X142650253Y-108839996D01*
X142555015Y-108982853D01*
X142507396Y-109173329D01*
X142507396Y-109554281D01*
X142555015Y-109649519D01*
X142602634Y-109697138D01*
X142697872Y-109744757D01*
X142888348Y-109744757D01*
X142983586Y-109697138D01*
X143031205Y-109649519D01*
X143078824Y-109554281D01*
X143078824Y-109316186D01*
X143031205Y-109220948D01*
X142983586Y-109173329D01*
X142888348Y-109125710D01*
X142697872Y-109125710D01*
X142602634Y-109173329D01*
X142555015Y-109220948D01*
X142507396Y-109316186D01*
X170647380Y-115908333D02*
X171361666Y-115908333D01*
X171504523Y-115955952D01*
X171599761Y-116051190D01*
X171647380Y-116194047D01*
X171647380Y-116289285D01*
X170980714Y-115003571D02*
X171647380Y-115003571D01*
X170599761Y-115241666D02*
X171314047Y-115479761D01*
X171314047Y-114860714D01*
X131009300Y-94179043D02*
X130533110Y-94512377D01*
X131009300Y-94750472D02*
X130009300Y-94750472D01*
X130009300Y-94369519D01*
X130056920Y-94274281D01*
X130104539Y-94226662D01*
X130199777Y-94179043D01*
X130342634Y-94179043D01*
X130437872Y-94226662D01*
X130485491Y-94274281D01*
X130533110Y-94369519D01*
X130533110Y-94750472D01*
X131009300Y-93226662D02*
X131009300Y-93798091D01*
X131009300Y-93512377D02*
X130009300Y-93512377D01*
X130152158Y-93607615D01*
X130247396Y-93702853D01*
X130295015Y-93798091D01*
X170010588Y-105070124D02*
X169677255Y-104593934D01*
X169439159Y-105070124D02*
X169439159Y-104070124D01*
X169820112Y-104070124D01*
X169915350Y-104117744D01*
X169962969Y-104165363D01*
X170010588Y-104260601D01*
X170010588Y-104403458D01*
X169962969Y-104498696D01*
X169915350Y-104546315D01*
X169820112Y-104593934D01*
X169439159Y-104593934D01*
X170915350Y-104070124D02*
X170439159Y-104070124D01*
X170391540Y-104546315D01*
X170439159Y-104498696D01*
X170534397Y-104451077D01*
X170772493Y-104451077D01*
X170867731Y-104498696D01*
X170915350Y-104546315D01*
X170962969Y-104641553D01*
X170962969Y-104879648D01*
X170915350Y-104974886D01*
X170867731Y-105022505D01*
X170772493Y-105070124D01*
X170534397Y-105070124D01*
X170439159Y-105022505D01*
X170391540Y-104974886D01*
X183069636Y-92738699D02*
X183736302Y-93738699D01*
X183736302Y-92738699D02*
X183069636Y-93738699D01*
X184641064Y-93738699D02*
X184069636Y-93738699D01*
X184355350Y-93738699D02*
X184355350Y-92738699D01*
X184260112Y-92881557D01*
X184164874Y-92976795D01*
X184069636Y-93024414D01*
X165752380Y-104831666D02*
X165276190Y-105165000D01*
X165752380Y-105403095D02*
X164752380Y-105403095D01*
X164752380Y-105022142D01*
X164800000Y-104926904D01*
X164847619Y-104879285D01*
X164942857Y-104831666D01*
X165085714Y-104831666D01*
X165180952Y-104879285D01*
X165228571Y-104926904D01*
X165276190Y-105022142D01*
X165276190Y-105403095D01*
X164752380Y-104498333D02*
X164752380Y-103831666D01*
X165752380Y-104260238D01*
X157833333Y-114077380D02*
X157500000Y-113601190D01*
X157261904Y-114077380D02*
X157261904Y-113077380D01*
X157642857Y-113077380D01*
X157738095Y-113125000D01*
X157785714Y-113172619D01*
X157833333Y-113267857D01*
X157833333Y-113410714D01*
X157785714Y-113505952D01*
X157738095Y-113553571D01*
X157642857Y-113601190D01*
X157261904Y-113601190D01*
X158404761Y-113505952D02*
X158309523Y-113458333D01*
X158261904Y-113410714D01*
X158214285Y-113315476D01*
X158214285Y-113267857D01*
X158261904Y-113172619D01*
X158309523Y-113125000D01*
X158404761Y-113077380D01*
X158595238Y-113077380D01*
X158690476Y-113125000D01*
X158738095Y-113172619D01*
X158785714Y-113267857D01*
X158785714Y-113315476D01*
X158738095Y-113410714D01*
X158690476Y-113458333D01*
X158595238Y-113505952D01*
X158404761Y-113505952D01*
X158309523Y-113553571D01*
X158261904Y-113601190D01*
X158214285Y-113696428D01*
X158214285Y-113886904D01*
X158261904Y-113982142D01*
X158309523Y-114029761D01*
X158404761Y-114077380D01*
X158595238Y-114077380D01*
X158690476Y-114029761D01*
X158738095Y-113982142D01*
X158785714Y-113886904D01*
X158785714Y-113696428D01*
X158738095Y-113601190D01*
X158690476Y-113553571D01*
X158595238Y-113505952D01*
X149116666Y-85677380D02*
X149116666Y-86391666D01*
X149069047Y-86534523D01*
X148973809Y-86629761D01*
X148830952Y-86677380D01*
X148735714Y-86677380D01*
X150069047Y-85677380D02*
X149592857Y-85677380D01*
X149545238Y-86153571D01*
X149592857Y-86105952D01*
X149688095Y-86058333D01*
X149926190Y-86058333D01*
X150021428Y-86105952D01*
X150069047Y-86153571D01*
X150116666Y-86248809D01*
X150116666Y-86486904D01*
X150069047Y-86582142D01*
X150021428Y-86629761D01*
X149926190Y-86677380D01*
X149688095Y-86677380D01*
X149592857Y-86629761D01*
X149545238Y-86582142D01*
X136750253Y-110719519D02*
X136702634Y-110767138D01*
X136559777Y-110814757D01*
X136464539Y-110814757D01*
X136321681Y-110767138D01*
X136226443Y-110671900D01*
X136178824Y-110576662D01*
X136131205Y-110386186D01*
X136131205Y-110243329D01*
X136178824Y-110052853D01*
X136226443Y-109957615D01*
X136321681Y-109862377D01*
X136464539Y-109814757D01*
X136559777Y-109814757D01*
X136702634Y-109862377D01*
X136750253Y-109909996D01*
X137226443Y-110814757D02*
X137416920Y-110814757D01*
X137512158Y-110767138D01*
X137559777Y-110719519D01*
X137655015Y-110576662D01*
X137702634Y-110386186D01*
X137702634Y-110005234D01*
X137655015Y-109909996D01*
X137607396Y-109862377D01*
X137512158Y-109814757D01*
X137321681Y-109814757D01*
X137226443Y-109862377D01*
X137178824Y-109909996D01*
X137131205Y-110005234D01*
X137131205Y-110243329D01*
X137178824Y-110338567D01*
X137226443Y-110386186D01*
X137321681Y-110433805D01*
X137512158Y-110433805D01*
X137607396Y-110386186D01*
X137655015Y-110338567D01*
X137702634Y-110243329D01*
X148074062Y-104875234D02*
X148121681Y-104922853D01*
X148169300Y-105065710D01*
X148169300Y-105160948D01*
X148121681Y-105303805D01*
X148026443Y-105399043D01*
X147931205Y-105446662D01*
X147740729Y-105494281D01*
X147597872Y-105494281D01*
X147407396Y-105446662D01*
X147312158Y-105399043D01*
X147216920Y-105303805D01*
X147169300Y-105160948D01*
X147169300Y-105065710D01*
X147216920Y-104922853D01*
X147264539Y-104875234D01*
X148169300Y-103922853D02*
X148169300Y-104494281D01*
X148169300Y-104208567D02*
X147169300Y-104208567D01*
X147312158Y-104303805D01*
X147407396Y-104399043D01*
X147455015Y-104494281D01*
X147169300Y-103589519D02*
X147169300Y-102922853D01*
X148169300Y-103351424D01*
X131952380Y-87008333D02*
X132666666Y-87008333D01*
X132809523Y-87055952D01*
X132904761Y-87151190D01*
X132952380Y-87294047D01*
X132952380Y-87389285D01*
X132047619Y-86579761D02*
X132000000Y-86532142D01*
X131952380Y-86436904D01*
X131952380Y-86198809D01*
X132000000Y-86103571D01*
X132047619Y-86055952D01*
X132142857Y-86008333D01*
X132238095Y-86008333D01*
X132380952Y-86055952D01*
X132952380Y-86627380D01*
X132952380Y-86008333D01*
X172029875Y-100759170D02*
X171553685Y-101092504D01*
X172029875Y-101330599D02*
X171029875Y-101330599D01*
X171029875Y-100949646D01*
X171077495Y-100854408D01*
X171125114Y-100806789D01*
X171220352Y-100759170D01*
X171363209Y-100759170D01*
X171458447Y-100806789D01*
X171506066Y-100854408D01*
X171553685Y-100949646D01*
X171553685Y-101330599D01*
X171029875Y-99902027D02*
X171029875Y-100092504D01*
X171077495Y-100187742D01*
X171125114Y-100235361D01*
X171267971Y-100330599D01*
X171458447Y-100378218D01*
X171839399Y-100378218D01*
X171934637Y-100330599D01*
X171982256Y-100282980D01*
X172029875Y-100187742D01*
X172029875Y-99997265D01*
X171982256Y-99902027D01*
X171934637Y-99854408D01*
X171839399Y-99806789D01*
X171601304Y-99806789D01*
X171506066Y-99854408D01*
X171458447Y-99902027D01*
X171410828Y-99997265D01*
X171410828Y-100187742D01*
X171458447Y-100282980D01*
X171506066Y-100330599D01*
X171601304Y-100378218D01*
X183707142Y-100457142D02*
X183659523Y-100504761D01*
X183516666Y-100552380D01*
X183421428Y-100552380D01*
X183278571Y-100504761D01*
X183183333Y-100409523D01*
X183135714Y-100314285D01*
X183088095Y-100123809D01*
X183088095Y-99980952D01*
X183135714Y-99790476D01*
X183183333Y-99695238D01*
X183278571Y-99600000D01*
X183421428Y-99552380D01*
X183516666Y-99552380D01*
X183659523Y-99600000D01*
X183707142Y-99647619D01*
X184088095Y-99647619D02*
X184135714Y-99600000D01*
X184230952Y-99552380D01*
X184469047Y-99552380D01*
X184564285Y-99600000D01*
X184611904Y-99647619D01*
X184659523Y-99742857D01*
X184659523Y-99838095D01*
X184611904Y-99980952D01*
X184040476Y-100552380D01*
X184659523Y-100552380D01*
X185516666Y-99552380D02*
X185326190Y-99552380D01*
X185230952Y-99600000D01*
X185183333Y-99647619D01*
X185088095Y-99790476D01*
X185040476Y-99980952D01*
X185040476Y-100361904D01*
X185088095Y-100457142D01*
X185135714Y-100504761D01*
X185230952Y-100552380D01*
X185421428Y-100552380D01*
X185516666Y-100504761D01*
X185564285Y-100457142D01*
X185611904Y-100361904D01*
X185611904Y-100123809D01*
X185564285Y-100028571D01*
X185516666Y-99980952D01*
X185421428Y-99933333D01*
X185230952Y-99933333D01*
X185135714Y-99980952D01*
X185088095Y-100028571D01*
X185040476Y-100123809D01*
X179399761Y-103933333D02*
X179447380Y-103790476D01*
X179447380Y-103552380D01*
X179399761Y-103457142D01*
X179352142Y-103409523D01*
X179256904Y-103361904D01*
X179161666Y-103361904D01*
X179066428Y-103409523D01*
X179018809Y-103457142D01*
X178971190Y-103552380D01*
X178923571Y-103742857D01*
X178875952Y-103838095D01*
X178828333Y-103885714D01*
X178733095Y-103933333D01*
X178637857Y-103933333D01*
X178542619Y-103885714D01*
X178495000Y-103838095D01*
X178447380Y-103742857D01*
X178447380Y-103504761D01*
X178495000Y-103361904D01*
X178447380Y-103028571D02*
X179447380Y-102790476D01*
X178733095Y-102600000D01*
X179447380Y-102409523D01*
X178447380Y-102171428D01*
X179447380Y-101266666D02*
X179447380Y-101838095D01*
X179447380Y-101552380D02*
X178447380Y-101552380D01*
X178590238Y-101647619D01*
X178685476Y-101742857D01*
X178733095Y-101838095D01*
X141973809Y-101126190D02*
X141973809Y-101602380D01*
X141640476Y-100602380D02*
X141973809Y-101126190D01*
X142307142Y-100602380D01*
X143164285Y-101602380D02*
X142592857Y-101602380D01*
X142878571Y-101602380D02*
X142878571Y-100602380D01*
X142783333Y-100745238D01*
X142688095Y-100840476D01*
X142592857Y-100888095D01*
X136214062Y-106799519D02*
X136166443Y-106847138D01*
X136023586Y-106894757D01*
X135928348Y-106894757D01*
X135785491Y-106847138D01*
X135690253Y-106751900D01*
X135642634Y-106656662D01*
X135595015Y-106466186D01*
X135595015Y-106323329D01*
X135642634Y-106132853D01*
X135690253Y-106037615D01*
X135785491Y-105942377D01*
X135928348Y-105894757D01*
X136023586Y-105894757D01*
X136166443Y-105942377D01*
X136214062Y-105989996D01*
X137166443Y-106894757D02*
X136595015Y-106894757D01*
X136880729Y-106894757D02*
X136880729Y-105894757D01*
X136785491Y-106037615D01*
X136690253Y-106132853D01*
X136595015Y-106180472D01*
X137785491Y-105894757D02*
X137880729Y-105894757D01*
X137975967Y-105942377D01*
X138023586Y-105989996D01*
X138071205Y-106085234D01*
X138118824Y-106275710D01*
X138118824Y-106513805D01*
X138071205Y-106704281D01*
X138023586Y-106799519D01*
X137975967Y-106847138D01*
X137880729Y-106894757D01*
X137785491Y-106894757D01*
X137690253Y-106847138D01*
X137642634Y-106799519D01*
X137595015Y-106704281D01*
X137547396Y-106513805D01*
X137547396Y-106275710D01*
X137595015Y-106085234D01*
X137642634Y-105989996D01*
X137690253Y-105942377D01*
X137785491Y-105894757D01*
X174037142Y-110617857D02*
X174084761Y-110665476D01*
X174132380Y-110808333D01*
X174132380Y-110903571D01*
X174084761Y-111046428D01*
X173989523Y-111141666D01*
X173894285Y-111189285D01*
X173703809Y-111236904D01*
X173560952Y-111236904D01*
X173370476Y-111189285D01*
X173275238Y-111141666D01*
X173180000Y-111046428D01*
X173132380Y-110903571D01*
X173132380Y-110808333D01*
X173180000Y-110665476D01*
X173227619Y-110617857D01*
X173227619Y-110236904D02*
X173180000Y-110189285D01*
X173132380Y-110094047D01*
X173132380Y-109855952D01*
X173180000Y-109760714D01*
X173227619Y-109713095D01*
X173322857Y-109665476D01*
X173418095Y-109665476D01*
X173560952Y-109713095D01*
X174132380Y-110284523D01*
X174132380Y-109665476D01*
X173132380Y-108760714D02*
X173132380Y-109236904D01*
X173608571Y-109284523D01*
X173560952Y-109236904D01*
X173513333Y-109141666D01*
X173513333Y-108903571D01*
X173560952Y-108808333D01*
X173608571Y-108760714D01*
X173703809Y-108713095D01*
X173941904Y-108713095D01*
X174037142Y-108760714D01*
X174084761Y-108808333D01*
X174132380Y-108903571D01*
X174132380Y-109141666D01*
X174084761Y-109236904D01*
X174037142Y-109284523D01*
X184566302Y-80953461D02*
X184518683Y-81001080D01*
X184375826Y-81048699D01*
X184280588Y-81048699D01*
X184137731Y-81001080D01*
X184042493Y-80905842D01*
X183994874Y-80810604D01*
X183947255Y-80620128D01*
X183947255Y-80477271D01*
X183994874Y-80286795D01*
X184042493Y-80191557D01*
X184137731Y-80096319D01*
X184280588Y-80048699D01*
X184375826Y-80048699D01*
X184518683Y-80096319D01*
X184566302Y-80143938D01*
X185518683Y-81048699D02*
X184947255Y-81048699D01*
X185232969Y-81048699D02*
X185232969Y-80048699D01*
X185137731Y-80191557D01*
X185042493Y-80286795D01*
X184947255Y-80334414D01*
X186090112Y-80477271D02*
X185994874Y-80429652D01*
X185947255Y-80382033D01*
X185899636Y-80286795D01*
X185899636Y-80239176D01*
X185947255Y-80143938D01*
X185994874Y-80096319D01*
X186090112Y-80048699D01*
X186280588Y-80048699D01*
X186375826Y-80096319D01*
X186423445Y-80143938D01*
X186471064Y-80239176D01*
X186471064Y-80286795D01*
X186423445Y-80382033D01*
X186375826Y-80429652D01*
X186280588Y-80477271D01*
X186090112Y-80477271D01*
X185994874Y-80524890D01*
X185947255Y-80572509D01*
X185899636Y-80667747D01*
X185899636Y-80858223D01*
X185947255Y-80953461D01*
X185994874Y-81001080D01*
X186090112Y-81048699D01*
X186280588Y-81048699D01*
X186375826Y-81001080D01*
X186423445Y-80953461D01*
X186471064Y-80858223D01*
X186471064Y-80667747D01*
X186423445Y-80572509D01*
X186375826Y-80524890D01*
X186280588Y-80477271D01*
X131369300Y-97384281D02*
X132178824Y-97384281D01*
X132274062Y-97336662D01*
X132321681Y-97289043D01*
X132369300Y-97193805D01*
X132369300Y-97003329D01*
X132321681Y-96908091D01*
X132274062Y-96860472D01*
X132178824Y-96812853D01*
X131369300Y-96812853D01*
X131464539Y-96384281D02*
X131416920Y-96336662D01*
X131369300Y-96241424D01*
X131369300Y-96003329D01*
X131416920Y-95908091D01*
X131464539Y-95860472D01*
X131559777Y-95812853D01*
X131655015Y-95812853D01*
X131797872Y-95860472D01*
X132369300Y-96431900D01*
X132369300Y-95812853D01*
X128833333Y-99627380D02*
X128500000Y-99151190D01*
X128261904Y-99627380D02*
X128261904Y-98627380D01*
X128642857Y-98627380D01*
X128738095Y-98675000D01*
X128785714Y-98722619D01*
X128833333Y-98817857D01*
X128833333Y-98960714D01*
X128785714Y-99055952D01*
X128738095Y-99103571D01*
X128642857Y-99151190D01*
X128261904Y-99151190D01*
X129690476Y-98960714D02*
X129690476Y-99627380D01*
X129452380Y-98579761D02*
X129214285Y-99294047D01*
X129833333Y-99294047D01*
X123019300Y-96099043D02*
X122543110Y-96432377D01*
X123019300Y-96670472D02*
X122019300Y-96670472D01*
X122019300Y-96289519D01*
X122066920Y-96194281D01*
X122114539Y-96146662D01*
X122209777Y-96099043D01*
X122352634Y-96099043D01*
X122447872Y-96146662D01*
X122495491Y-96194281D01*
X122543110Y-96289519D01*
X122543110Y-96670472D01*
X122114539Y-95718091D02*
X122066920Y-95670472D01*
X122019300Y-95575234D01*
X122019300Y-95337138D01*
X122066920Y-95241900D01*
X122114539Y-95194281D01*
X122209777Y-95146662D01*
X122305015Y-95146662D01*
X122447872Y-95194281D01*
X123019300Y-95765710D01*
X123019300Y-95146662D01*
X164827142Y-108137857D02*
X164874761Y-108185476D01*
X164922380Y-108328333D01*
X164922380Y-108423571D01*
X164874761Y-108566428D01*
X164779523Y-108661666D01*
X164684285Y-108709285D01*
X164493809Y-108756904D01*
X164350952Y-108756904D01*
X164160476Y-108709285D01*
X164065238Y-108661666D01*
X163970000Y-108566428D01*
X163922380Y-108423571D01*
X163922380Y-108328333D01*
X163970000Y-108185476D01*
X164017619Y-108137857D01*
X164017619Y-107756904D02*
X163970000Y-107709285D01*
X163922380Y-107614047D01*
X163922380Y-107375952D01*
X163970000Y-107280714D01*
X164017619Y-107233095D01*
X164112857Y-107185476D01*
X164208095Y-107185476D01*
X164350952Y-107233095D01*
X164922380Y-107804523D01*
X164922380Y-107185476D01*
X164922380Y-106233095D02*
X164922380Y-106804523D01*
X164922380Y-106518809D02*
X163922380Y-106518809D01*
X164065238Y-106614047D01*
X164160476Y-106709285D01*
X164208095Y-106804523D01*
X170552380Y-113736904D02*
X171361904Y-113736904D01*
X171457142Y-113689285D01*
X171504761Y-113641666D01*
X171552380Y-113546428D01*
X171552380Y-113355952D01*
X171504761Y-113260714D01*
X171457142Y-113213095D01*
X171361904Y-113165476D01*
X170552380Y-113165476D01*
X170552380Y-112213095D02*
X170552380Y-112689285D01*
X171028571Y-112736904D01*
X170980952Y-112689285D01*
X170933333Y-112594047D01*
X170933333Y-112355952D01*
X170980952Y-112260714D01*
X171028571Y-112213095D01*
X171123809Y-112165476D01*
X171361904Y-112165476D01*
X171457142Y-112213095D01*
X171504761Y-112260714D01*
X171552380Y-112355952D01*
X171552380Y-112594047D01*
X171504761Y-112689285D01*
X171457142Y-112736904D01*
D13*
D14*
X157261252Y-100810000D02*
X156738748Y-100810000D01*
X157261252Y-99340000D02*
X156738748Y-99340000D01*
X156772936Y-105640000D02*
X157227064Y-105640000D01*
X156772936Y-107110000D02*
X157227064Y-107110000D01*
X157227064Y-105010000D02*
X156772936Y-105010000D01*
X157227064Y-103540000D02*
X156772936Y-103540000D01*
X142852936Y-111310000D02*
X143307064Y-111310000D01*
X142852936Y-112780000D02*
X143307064Y-112780000D01*
X143307064Y-114880000D02*
X142852936Y-114880000D01*
X143307064Y-113410000D02*
X142852936Y-113410000D01*
X156772936Y-101440000D02*
X157227064Y-101440000D01*
X156772936Y-102910000D02*
X157227064Y-102910000D01*
X142852936Y-115510000D02*
X143307064Y-115510000D01*
X142852936Y-116980000D02*
X143307064Y-116980000D01*
X150695000Y-110920000D02*
X150695000Y-108320000D01*
X148095000Y-116060000D02*
X153295000Y-116060000D01*
X153295000Y-108320000D02*
X153295000Y-116060000D01*
X148095000Y-108320000D02*
X149425000Y-108320000D01*
X148095000Y-110920000D02*
X148095000Y-116060000D01*
X148095000Y-110920000D02*
X150695000Y-110920000D01*
X148095000Y-109650000D02*
X148095000Y-108320000D01*
X150695000Y-108320000D02*
X153295000Y-108320000D01*
X150888748Y-106185000D02*
X152311252Y-106185000D01*
X150888748Y-104365000D02*
X152311252Y-104365000D01*
X150888748Y-101765000D02*
X152311252Y-101765000D01*
X150888748Y-103585000D02*
X152311252Y-103585000D01*
X182670000Y-110045000D02*
X185330000Y-110045000D01*
X182670000Y-107445000D02*
X184000000Y-107445000D01*
X182670000Y-115185000D02*
X185330000Y-115185000D01*
X185330000Y-110045000D02*
X185330000Y-115185000D01*
X182670000Y-108775000D02*
X182670000Y-107445000D01*
X182670000Y-110045000D02*
X182670000Y-115185000D01*
X175970000Y-108045000D02*
X178630000Y-108045000D01*
X175970000Y-108045000D02*
X175970000Y-113185000D01*
X175970000Y-106775000D02*
X175970000Y-105445000D01*
X175970000Y-105445000D02*
X177300000Y-105445000D01*
X175970000Y-113185000D02*
X178630000Y-113185000D01*
X178630000Y-108045000D02*
X178630000Y-113185000D01*
X133991920Y-109697377D02*
X133991920Y-104497377D01*
X123771920Y-107097377D02*
X121171920Y-107097377D01*
X122501920Y-109697377D02*
X121171920Y-109697377D01*
X121171920Y-107097377D02*
X121171920Y-104497377D01*
X123771920Y-109697377D02*
X123771920Y-107097377D01*
X123771920Y-109697377D02*
X133991920Y-109697377D01*
X121171920Y-109697377D02*
X121171920Y-108367377D01*
X121171920Y-104497377D02*
X133991920Y-104497377D01*
X180674160Y-96185067D02*
X180674160Y-96707571D01*
X179204160Y-96185067D02*
X179204160Y-96707571D01*
X151349856Y-96072377D02*
X152803984Y-96072377D01*
X151349856Y-97892377D02*
X152803984Y-97892377D01*
X128941920Y-83122377D02*
X123741920Y-83122377D01*
X126341920Y-90802377D02*
X126341920Y-93402377D01*
X123741920Y-93402377D02*
X123741920Y-83122377D01*
X128941920Y-93402377D02*
X127611920Y-93402377D01*
X126341920Y-93402377D02*
X123741920Y-93402377D01*
X128941920Y-90802377D02*
X128941920Y-83122377D01*
X128941920Y-92072377D02*
X128941920Y-93402377D01*
X128941920Y-90802377D02*
X126341920Y-90802377D01*
X147618172Y-96277377D02*
X147095668Y-96277377D01*
X147618172Y-97747377D02*
X147095668Y-97747377D01*
X163537255Y-113453996D02*
X163537255Y-112931492D01*
X162067255Y-113453996D02*
X162067255Y-112931492D01*
X178804160Y-90375067D02*
X178804160Y-90897571D01*
X177334160Y-90375067D02*
X177334160Y-90897571D01*
X181184160Y-98321319D02*
X182754160Y-98321319D01*
X182754160Y-98321319D02*
X182754160Y-95436319D01*
X181184160Y-95436319D02*
X181184160Y-98321319D01*
X176680412Y-100421319D02*
X176157908Y-100421319D01*
X176680412Y-98951319D02*
X176157908Y-98951319D01*
D10*
X173744160Y-98131319D02*
X173744160Y-97831319D01*
X173744160Y-94781319D02*
X173744160Y-95081319D01*
X177094160Y-98131319D02*
X173744160Y-98131319D01*
X177094160Y-94781319D02*
X173744160Y-94781319D01*
X177094160Y-94781319D02*
X177094160Y-95081319D01*
X177094160Y-98131319D02*
X177094160Y-97906319D01*
X177094160Y-97906319D02*
X178319160Y-97906319D01*
D14*
X141535668Y-106577377D02*
X142058172Y-106577377D01*
X141535668Y-108047377D02*
X142058172Y-108047377D01*
X174795000Y-116905000D02*
X177395000Y-116905000D01*
X172195000Y-116905000D02*
X172195000Y-115575000D01*
X177395000Y-116905000D02*
X177395000Y-114245000D01*
X174795000Y-114245000D02*
X177395000Y-114245000D01*
X174795000Y-116905000D02*
X174795000Y-114245000D01*
X173525000Y-116905000D02*
X172195000Y-116905000D01*
X131311920Y-91319441D02*
X131311920Y-90865313D01*
X129841920Y-91319441D02*
X129841920Y-90865313D01*
X169950191Y-105532744D02*
X170404319Y-105532744D01*
X169950191Y-107002744D02*
X170404319Y-107002744D01*
X182439160Y-85546319D02*
X185319160Y-85546319D01*
X185319160Y-85546319D02*
X185319160Y-84086319D01*
X185319160Y-91026319D02*
X182439160Y-91026319D01*
X187579160Y-87486319D02*
X187579160Y-89086319D01*
X180179160Y-89086319D02*
X180179160Y-87486319D01*
X187819160Y-87486319D02*
X187579160Y-87486319D01*
X166217255Y-105594808D02*
X166217255Y-105140680D01*
X167687255Y-105594808D02*
X167687255Y-105140680D01*
X157772936Y-114540000D02*
X158227064Y-114540000D01*
X157772936Y-116010000D02*
X158227064Y-116010000D01*
X150712980Y-79922020D02*
X150712980Y-92662020D01*
X170952980Y-79922020D02*
X170952980Y-92662020D01*
X150332980Y-79542020D02*
X153332980Y-79542020D01*
X150332980Y-82542020D02*
X150332980Y-79542020D01*
X150712980Y-79922020D02*
X170952980Y-79922020D01*
X150712980Y-92662020D02*
X170952980Y-92662020D01*
X150712980Y-92662020D02*
X170952980Y-92662020D01*
X150712980Y-79922020D02*
X150712980Y-92662020D01*
X170952980Y-79922020D02*
X170952980Y-92662020D01*
X150712980Y-79922020D02*
X170952980Y-79922020D01*
X138781920Y-109407377D02*
X138781920Y-107837377D01*
X135896920Y-109407377D02*
X138781920Y-109407377D01*
X138781920Y-107837377D02*
X135896920Y-107837377D01*
X145301920Y-103971125D02*
X145301920Y-104493629D01*
X146771920Y-103971125D02*
X146771920Y-104493629D01*
X140051920Y-83917377D02*
X141381920Y-83917377D01*
X138781920Y-86517377D02*
X141381920Y-86517377D01*
X138781920Y-83917377D02*
X138781920Y-86517377D01*
X141381920Y-89117377D02*
X133641920Y-89117377D01*
X133641920Y-83917377D02*
X133641920Y-89117377D01*
X138781920Y-83917377D02*
X133641920Y-83917377D01*
X141381920Y-83917377D02*
X141381920Y-85247377D01*
X141381920Y-86517377D02*
X141381920Y-89117377D01*
X172492495Y-100819568D02*
X172492495Y-100365440D01*
X173962495Y-100819568D02*
X173962495Y-100365440D01*
X185179160Y-97277571D02*
X185179160Y-95855067D01*
X183359160Y-97277571D02*
X183359160Y-95855067D01*
X179995000Y-103930000D02*
X179995000Y-102600000D01*
X182595000Y-103930000D02*
X182595000Y-101270000D01*
X187735000Y-103930000D02*
X187735000Y-101270000D01*
X182595000Y-103930000D02*
X187735000Y-103930000D01*
X182595000Y-101270000D02*
X187735000Y-101270000D01*
X181325000Y-103930000D02*
X179995000Y-103930000D01*
X138951920Y-102382377D02*
X138951920Y-106082377D01*
X138951920Y-106082377D02*
X144526920Y-106082377D01*
X137118172Y-104027377D02*
X136595668Y-104027377D01*
X137118172Y-105497377D02*
X136595668Y-105497377D01*
X171265000Y-109713748D02*
X171265000Y-110236252D01*
X172735000Y-109713748D02*
X172735000Y-110236252D01*
X184947908Y-81541319D02*
X185470412Y-81541319D01*
X184947908Y-83011319D02*
X185470412Y-83011319D01*
D10*
X141591920Y-92997377D02*
X141266920Y-92997377D01*
X141591920Y-92997377D02*
X141591920Y-93322377D01*
X141591920Y-100247377D02*
X141266920Y-100247377D01*
X134341920Y-92997377D02*
X134666920Y-92997377D01*
X141591920Y-100247377D02*
X141591920Y-99922377D01*
X134341920Y-92997377D02*
X134341920Y-93322377D01*
X134341920Y-100247377D02*
X134566920Y-100247377D01*
X134566920Y-100247377D02*
X134566920Y-101672377D01*
X134341920Y-100247377D02*
X134341920Y-99922377D01*
D14*
X129233984Y-96697377D02*
X128779856Y-96697377D01*
X129233984Y-98167377D02*
X128779856Y-98167377D01*
X123701920Y-95715313D02*
X123701920Y-96169441D01*
X125171920Y-95715313D02*
X125171920Y-96169441D01*
X162092255Y-108603996D02*
X162092255Y-108081492D01*
X163562255Y-108603996D02*
X163562255Y-108081492D01*
X170141255Y-111772744D02*
X170141255Y-113722744D01*
X165021255Y-111772744D02*
X165021255Y-109822744D01*
X165021255Y-111772744D02*
X165021255Y-113722744D01*
X170141255Y-111772744D02*
X170141255Y-108322744D01*
%LPC*%
D15*
X158037500Y-100075000D03*
X155962500Y-100075000D03*
D16*
X156000000Y-106375000D03*
X158000000Y-106375000D03*
D17*
X158000000Y-104275000D03*
X156000000Y-104275000D03*
D16*
X142080000Y-112045000D03*
X144080000Y-112045000D03*
D17*
X144080000Y-114145000D03*
X142080000Y-114145000D03*
D16*
X156000000Y-102175000D03*
X158000000Y-102175000D03*
X142080000Y-116245000D03*
X144080000Y-116245000D03*
D18*
X149425000Y-109650000D03*
D19*
X151965000Y-109650000D03*
X149425000Y-112190000D03*
X151965000Y-112190000D03*
X149425000Y-114730000D03*
X151965000Y-114730000D03*
D20*
X150037500Y-105275000D03*
X153162500Y-105275000D03*
X153162500Y-102675000D03*
X150037500Y-102675000D03*
D18*
X184000000Y-108775000D03*
D19*
X184000000Y-111315000D03*
X184000000Y-113855000D03*
D18*
X177300000Y-106775000D03*
D19*
X177300000Y-109315000D03*
X177300000Y-111855000D03*
D18*
X122501920Y-108367377D03*
D19*
X122501920Y-105827377D03*
X125041920Y-108367377D03*
X125041920Y-105827377D03*
X127581920Y-108367377D03*
X127581920Y-105827377D03*
X130121920Y-108367377D03*
X130121920Y-105827377D03*
X132661920Y-108367377D03*
X132661920Y-105827377D03*
D21*
X179939160Y-95408819D03*
X179939160Y-97483819D03*
D22*
X124000000Y-114475000D03*
D23*
X150526920Y-96982377D03*
X153626920Y-96982377D03*
D18*
X127611920Y-92072377D03*
D19*
X125071920Y-92072377D03*
X127611920Y-89532377D03*
X125071920Y-89532377D03*
X127611920Y-86992377D03*
X125071920Y-86992377D03*
X127611920Y-84452377D03*
X125071920Y-84452377D03*
D15*
X148394420Y-97012377D03*
X146319420Y-97012377D03*
D24*
X162802255Y-114230244D03*
X162802255Y-112155244D03*
D21*
X178069160Y-89598819D03*
X178069160Y-91673819D03*
D25*
X181969160Y-97411319D03*
X181969160Y-95461319D03*
D15*
X177456660Y-99686319D03*
X175381660Y-99686319D03*
D26*
X177619160Y-97456319D03*
X177619160Y-96956319D03*
X177619160Y-96456319D03*
X177619160Y-95956319D03*
X177619160Y-95456319D03*
X173219160Y-95456319D03*
X173219160Y-95956319D03*
X173219160Y-96456319D03*
X173219160Y-96956319D03*
X173219160Y-97456319D03*
D27*
X140759420Y-107312377D03*
X142834420Y-107312377D03*
D18*
X173525000Y-115575000D03*
D19*
X176065000Y-115575000D03*
D28*
X130576920Y-92092377D03*
X130576920Y-90092377D03*
D16*
X169177255Y-106267744D03*
X171177255Y-106267744D03*
D22*
X124000000Y-78475000D03*
D29*
X186509160Y-85786319D03*
X181249160Y-85786319D03*
X181249160Y-90786319D03*
X186509160Y-90786319D03*
D22*
X194000000Y-114475000D03*
D28*
X166952255Y-106367744D03*
X166952255Y-104367744D03*
D16*
X157000000Y-115275000D03*
X159000000Y-115275000D03*
D30*
X153332980Y-86042020D03*
D31*
X158332980Y-86042020D03*
X163332980Y-86042020D03*
X168332980Y-86042020D03*
D32*
X137871920Y-108622377D03*
X135921920Y-108622377D03*
D21*
X146036920Y-103194877D03*
X146036920Y-105269877D03*
D18*
X140051920Y-85247377D03*
D19*
X140051920Y-87787377D03*
X137511920Y-85247377D03*
X137511920Y-87787377D03*
X134971920Y-85247377D03*
X134971920Y-87787377D03*
D28*
X173227495Y-101592504D03*
X173227495Y-99592504D03*
D33*
X184269160Y-98128819D03*
X184269160Y-95003819D03*
D18*
X181325000Y-102600000D03*
D19*
X183865000Y-102600000D03*
X186405000Y-102600000D03*
D34*
X140226920Y-105232377D03*
D35*
X143526920Y-105232377D03*
D36*
X143526920Y-103232377D03*
X140226920Y-103232377D03*
D15*
X137894420Y-104762377D03*
X135819420Y-104762377D03*
D22*
X194000000Y-78475000D03*
D21*
X172000000Y-108937500D03*
X172000000Y-111012500D03*
D27*
X184171660Y-82276319D03*
X186246660Y-82276319D03*
D37*
X135166920Y-100872377D03*
X135966920Y-100872377D03*
X136766920Y-100872377D03*
X137566920Y-100872377D03*
X138366920Y-100872377D03*
X139166920Y-100872377D03*
X139966920Y-100872377D03*
X140766920Y-100872377D03*
D38*
X142216920Y-99422377D03*
X142216920Y-98622377D03*
X142216920Y-97822377D03*
X142216920Y-97022377D03*
X142216920Y-96222377D03*
X142216920Y-95422377D03*
X142216920Y-94622377D03*
X142216920Y-93822377D03*
D37*
X140766920Y-92372377D03*
X139966920Y-92372377D03*
X139166920Y-92372377D03*
X138366920Y-92372377D03*
X137566920Y-92372377D03*
X136766920Y-92372377D03*
X135966920Y-92372377D03*
X135166920Y-92372377D03*
D38*
X133716920Y-93822377D03*
X133716920Y-94622377D03*
X133716920Y-95422377D03*
X133716920Y-96222377D03*
X133716920Y-97022377D03*
X133716920Y-97822377D03*
X133716920Y-98622377D03*
X133716920Y-99422377D03*
D17*
X130006920Y-97432377D03*
X128006920Y-97432377D03*
D39*
X124436920Y-94942377D03*
X124436920Y-96942377D03*
D24*
X162827255Y-109380244D03*
X162827255Y-107305244D03*
D40*
X169486255Y-109297744D03*
X168216255Y-109297744D03*
X166946255Y-109297744D03*
X165676255Y-109297744D03*
X165676255Y-114247744D03*
X166946255Y-114247744D03*
X168216255Y-114247744D03*
X169486255Y-114247744D03*
M02*
