M48
; DRILL file {KiCad (6.0.1)} date Tue Mar 15 16:21:22 2022
; FORMAT={-:-/ absolute / metric / decimal}
; #@! TF.CreationDate,2022-03-15T16:21:22+01:00
; #@! TF.GenerationSoftware,Kicad,Pcbnew,(6.0.1)
; #@! TF.FileFunction,Plated,1,2,Blind
FMAT,2
METRIC
; #@! TA.AperFunction,Plated,Buried,ViaDrill
T1C0.500
%
G90
G05
T1
X135.922Y-106.328
X135.922Y-107.578
X138.566Y-102.5
X144.5Y-107.0
X151.4Y-115.275
X151.4Y-116.475
X152.6Y-115.275
X152.6Y-116.475
X153.625Y-98.8
X153.9Y-115.275
X153.9Y-116.475
X155.2Y-115.275
X155.2Y-116.475
X161.25Y-104.25
X161.25Y-105.5
X162.5Y-104.25
X162.5Y-105.5
X163.75Y-104.25
X163.75Y-105.5
X172.955Y-106.42
X174.4Y-106.475
X174.4Y-107.675
X174.4Y-108.875
X174.4Y-110.175
X175.4Y-101.175
X175.4Y-102.325
X176.8Y-93.1
X178.0Y-80.25
X178.0Y-81.5
X178.0Y-82.75
X178.0Y-84.0
X178.0Y-85.25
X178.0Y-86.5
X178.075Y-93.075
X179.25Y-80.25
X179.25Y-81.5
X179.25Y-82.75
X179.25Y-84.0
X179.25Y-85.25
X179.25Y-86.5
X180.5Y-80.25
X180.5Y-81.5
X180.5Y-82.75
X180.82Y-94.07
X181.75Y-80.25
X181.75Y-81.5
X182.0Y-94.0
X182.75Y-93.25
X183.0Y-80.25
X183.0Y-81.5
X186.5Y-99.0
X186.5Y-100.25
X187.75Y-99.0
X187.75Y-100.25
T0
M30
