%TF.GenerationSoftware,KiCad,Pcbnew,(6.0.1)*%
%TF.CreationDate,2022-03-17T09:26:44+01:00*%
%TF.ProjectId,SignalGenerator,5369676e-616c-4476-956e-657261746f72,0.3*%
%TF.SameCoordinates,Original*%
%TF.FileFunction,Soldermask,Top*%
%TF.FilePolarity,Negative*%
%FSLAX46Y46*%
G04 Gerber Fmt 4.6, Leading zero omitted, Abs format (unit mm)*
G04 Created by KiCad (PCBNEW (6.0.1)) date 2022-03-17 09:26:44*
%MOMM*%
%LPD*%
G01*
G04 APERTURE LIST*
G04 Aperture macros list*
%AMRoundRect*
0 Rectangle with rounded corners*
0 $1 Rounding radius*
0 $2 $3 $4 $5 $6 $7 $8 $9 X,Y pos of 4 corners*
0 Add a 4 corners polygon primitive as box body*
4,1,4,$2,$3,$4,$5,$6,$7,$8,$9,$2,$3,0*
0 Add four circle primitives for the rounded corners*
1,1,$1+$1,$2,$3*
1,1,$1+$1,$4,$5*
1,1,$1+$1,$6,$7*
1,1,$1+$1,$8,$9*
0 Add four rect primitives between the rounded corners*
20,1,$1+$1,$2,$3,$4,$5,0*
20,1,$1+$1,$4,$5,$6,$7,0*
20,1,$1+$1,$6,$7,$8,$9,0*
20,1,$1+$1,$8,$9,$2,$3,0*%
G04 Aperture macros list end*
%ADD10R,1.700000X1.700000*%
%ADD11O,1.700000X1.700000*%
%ADD12RoundRect,0.250000X-0.350000X-0.450000X0.350000X-0.450000X0.350000X0.450000X-0.350000X0.450000X0*%
%ADD13RoundRect,0.250000X-0.475000X0.337500X-0.475000X-0.337500X0.475000X-0.337500X0.475000X0.337500X0*%
%ADD14C,3.200000*%
%ADD15RoundRect,0.250000X-0.400000X-0.625000X0.400000X-0.625000X0.400000X0.625000X-0.400000X0.625000X0*%
%ADD16RoundRect,0.250000X0.337500X0.475000X-0.337500X0.475000X-0.337500X-0.475000X0.337500X-0.475000X0*%
%ADD17RoundRect,0.250000X0.475000X-0.337500X0.475000X0.337500X-0.475000X0.337500X-0.475000X-0.337500X0*%
%ADD18RoundRect,0.250000X0.275000X-0.400000X0.275000X0.400000X-0.275000X0.400000X-0.275000X-0.400000X0*%
%ADD19R,1.400000X0.300000*%
%ADD20RoundRect,0.250000X-0.337500X-0.475000X0.337500X-0.475000X0.337500X0.475000X-0.337500X0.475000X0*%
%ADD21RoundRect,0.250000X0.450000X-0.350000X0.450000X0.350000X-0.450000X0.350000X-0.450000X-0.350000X0*%
%ADD22RoundRect,0.250000X-0.412500X-0.650000X0.412500X-0.650000X0.412500X0.650000X-0.412500X0.650000X0*%
%ADD23R,1.980000X3.000000*%
%ADD24R,3.000000X3.000000*%
%ADD25C,3.000000*%
%ADD26RoundRect,0.250000X0.400000X0.275000X-0.400000X0.275000X-0.400000X-0.275000X0.400000X-0.275000X0*%
%ADD27RoundRect,0.250000X0.650000X-0.412500X0.650000X0.412500X-0.650000X0.412500X-0.650000X-0.412500X0*%
%ADD28R,2.250000X1.500000*%
%ADD29R,2.250000X1.575000*%
%ADD30R,2.250000X1.450000*%
%ADD31RoundRect,0.250000X0.350000X0.450000X-0.350000X0.450000X-0.350000X-0.450000X0.350000X-0.450000X0*%
%ADD32R,0.550000X1.600000*%
%ADD33R,1.600000X0.550000*%
%ADD34RoundRect,0.250000X-0.450000X0.350000X-0.450000X-0.350000X0.450000X-0.350000X0.450000X0.350000X0*%
%ADD35RoundRect,0.150000X-0.150000X0.825000X-0.150000X-0.825000X0.150000X-0.825000X0.150000X0.825000X0*%
G04 APERTURE END LIST*
D10*
X184000000Y-108775000D03*
D11*
X184000000Y-111315000D03*
X184000000Y-113855000D03*
D10*
X177300000Y-106775000D03*
D11*
X177300000Y-109315000D03*
X177300000Y-111855000D03*
D10*
X122501920Y-108367377D03*
D11*
X122501920Y-105827377D03*
X125041920Y-108367377D03*
X125041920Y-105827377D03*
X127581920Y-108367377D03*
X127581920Y-105827377D03*
X130121920Y-108367377D03*
X130121920Y-105827377D03*
X132661920Y-108367377D03*
X132661920Y-105827377D03*
D12*
X142080000Y-116245000D03*
X144080000Y-116245000D03*
D13*
X179939160Y-95408819D03*
X179939160Y-97483819D03*
D14*
X124000000Y-114475000D03*
D15*
X150526920Y-96982377D03*
X153626920Y-96982377D03*
D12*
X156000000Y-102175000D03*
X158000000Y-102175000D03*
D10*
X127611920Y-92072377D03*
D11*
X125071920Y-92072377D03*
X127611920Y-89532377D03*
X125071920Y-89532377D03*
X127611920Y-86992377D03*
X125071920Y-86992377D03*
X127611920Y-84452377D03*
X125071920Y-84452377D03*
D16*
X148394420Y-97012377D03*
X146319420Y-97012377D03*
D17*
X162802255Y-114230244D03*
X162802255Y-112155244D03*
D13*
X178069160Y-89598819D03*
X178069160Y-91673819D03*
D18*
X181969160Y-97411319D03*
X181969160Y-95461319D03*
D16*
X177456660Y-99686319D03*
X175381660Y-99686319D03*
D19*
X177619160Y-97456319D03*
X177619160Y-96956319D03*
X177619160Y-96456319D03*
X177619160Y-95956319D03*
X177619160Y-95456319D03*
X173219160Y-95456319D03*
X173219160Y-95956319D03*
X173219160Y-96456319D03*
X173219160Y-96956319D03*
X173219160Y-97456319D03*
D12*
X142080000Y-112045000D03*
X144080000Y-112045000D03*
D20*
X140759420Y-107312377D03*
X142834420Y-107312377D03*
D10*
X173525000Y-115575000D03*
D11*
X176065000Y-115575000D03*
D21*
X130576920Y-92092377D03*
X130576920Y-90092377D03*
D12*
X169177255Y-106267744D03*
X171177255Y-106267744D03*
D14*
X124000000Y-78475000D03*
D22*
X150037500Y-105275000D03*
X153162500Y-105275000D03*
X150037500Y-102675000D03*
X153162500Y-102675000D03*
D23*
X186509160Y-85786319D03*
X181249160Y-85786319D03*
X181249160Y-90786319D03*
X186509160Y-90786319D03*
D12*
X156000000Y-106375000D03*
X158000000Y-106375000D03*
D14*
X194000000Y-114475000D03*
D21*
X166952255Y-106367744D03*
X166952255Y-104367744D03*
D12*
X157000000Y-115275000D03*
X159000000Y-115275000D03*
D24*
X153332980Y-86042020D03*
D25*
X158332980Y-86042020D03*
X163332980Y-86042020D03*
X168332980Y-86042020D03*
D26*
X137871920Y-108622377D03*
X135921920Y-108622377D03*
D13*
X146036920Y-103194877D03*
X146036920Y-105269877D03*
D10*
X140051920Y-85247377D03*
D11*
X140051920Y-87787377D03*
X137511920Y-85247377D03*
X137511920Y-87787377D03*
X134971920Y-85247377D03*
X134971920Y-87787377D03*
D21*
X173227495Y-101592504D03*
X173227495Y-99592504D03*
D27*
X184269160Y-98128819D03*
X184269160Y-95003819D03*
D10*
X181325000Y-102600000D03*
D11*
X183865000Y-102600000D03*
X186405000Y-102600000D03*
D28*
X140226920Y-105232377D03*
D29*
X143526920Y-105232377D03*
D30*
X143526920Y-103232377D03*
X140226920Y-103232377D03*
D16*
X158037500Y-100075000D03*
X155962500Y-100075000D03*
X137894420Y-104762377D03*
X135819420Y-104762377D03*
D10*
X149425000Y-109650000D03*
D11*
X151965000Y-109650000D03*
X149425000Y-112190000D03*
X151965000Y-112190000D03*
X149425000Y-114730000D03*
X151965000Y-114730000D03*
D14*
X194000000Y-78475000D03*
D13*
X172000000Y-108937500D03*
X172000000Y-111012500D03*
D31*
X144080000Y-114145000D03*
X142080000Y-114145000D03*
D20*
X184171660Y-82276319D03*
X186246660Y-82276319D03*
D32*
X135166920Y-100872377D03*
X135966920Y-100872377D03*
X136766920Y-100872377D03*
X137566920Y-100872377D03*
X138366920Y-100872377D03*
X139166920Y-100872377D03*
X139966920Y-100872377D03*
X140766920Y-100872377D03*
D33*
X142216920Y-99422377D03*
X142216920Y-98622377D03*
X142216920Y-97822377D03*
X142216920Y-97022377D03*
X142216920Y-96222377D03*
X142216920Y-95422377D03*
X142216920Y-94622377D03*
X142216920Y-93822377D03*
D32*
X140766920Y-92372377D03*
X139966920Y-92372377D03*
X139166920Y-92372377D03*
X138366920Y-92372377D03*
X137566920Y-92372377D03*
X136766920Y-92372377D03*
X135966920Y-92372377D03*
X135166920Y-92372377D03*
D33*
X133716920Y-93822377D03*
X133716920Y-94622377D03*
X133716920Y-95422377D03*
X133716920Y-96222377D03*
X133716920Y-97022377D03*
X133716920Y-97822377D03*
X133716920Y-98622377D03*
X133716920Y-99422377D03*
D31*
X130006920Y-97432377D03*
X128006920Y-97432377D03*
D34*
X124436920Y-94942377D03*
X124436920Y-96942377D03*
D31*
X158000000Y-104275000D03*
X156000000Y-104275000D03*
D17*
X162827255Y-109380244D03*
X162827255Y-107305244D03*
D35*
X169486255Y-109297744D03*
X168216255Y-109297744D03*
X166946255Y-109297744D03*
X165676255Y-109297744D03*
X165676255Y-114247744D03*
X166946255Y-114247744D03*
X168216255Y-114247744D03*
X169486255Y-114247744D03*
M02*
