M48
; DRILL file {KiCad (6.0.1)} date Thu Mar 17 09:25:01 2022
; FORMAT={-:-/ absolute / metric / decimal}
; #@! TF.CreationDate,2022-03-17T09:25:01+01:00
; #@! TF.GenerationSoftware,Kicad,Pcbnew,(6.0.1)
; #@! TF.FileFunction,MixedPlating,1,4
FMAT,2
METRIC
; #@! TA.AperFunction,Plated,PTH,ViaDrill
T1C0.400
; #@! TA.AperFunction,Plated,PTH,ViaDrill
T2C0.500
; #@! TA.AperFunction,Plated,PTH,ComponentDrill
T3C1.000
; #@! TA.AperFunction,Plated,PTH,ComponentDrill
T4C1.500
; #@! TA.AperFunction,NonPlated,NPTH,ComponentDrill
T5C3.200
%
G90
G05
T1
X140.2Y-97.375
X140.5Y-99.075
X142.24Y-92.0
X145.29Y-94.52
X145.386Y-90.5
X146.9Y-99.704
X147.521Y-94.173
X148.9Y-100.575
T2
X126.25Y-97.5
X126.75Y-98.49
X135.922Y-106.328
X135.922Y-107.578
X138.566Y-102.5
X139.0Y-107.25
X139.25Y-108.5
X139.97Y-95.32
X139.975Y-94.1
X140.24Y-114.125
X140.43Y-111.402
X141.85Y-108.605
X142.6Y-87.8
X142.6Y-89.0
X144.5Y-107.0
X151.5Y-100.775
X153.625Y-98.8
X154.0Y-117.175
X155.2Y-115.275
X155.2Y-116.475
X156.4Y-116.975
X156.75Y-109.5
X156.75Y-110.75
X156.75Y-112.0
X158.0Y-109.5
X158.0Y-110.75
X158.0Y-112.0
X159.25Y-109.5
X159.25Y-110.75
X159.25Y-112.0
X160.5Y-109.5
X160.5Y-110.75
X160.5Y-112.0
X161.25Y-104.25
X161.25Y-105.5
X162.5Y-104.25
X162.5Y-105.5
X162.7Y-102.175
X163.75Y-104.25
X163.75Y-105.5
X173.05Y-106.23
X173.06Y-107.48
X173.7Y-112.875
X175.4Y-101.175
X176.8Y-93.1
X178.0Y-80.25
X178.0Y-81.5
X178.0Y-82.75
X178.0Y-84.0
X178.0Y-85.25
X178.0Y-86.5
X178.075Y-93.075
X179.25Y-80.25
X179.25Y-81.5
X179.25Y-82.75
X179.25Y-84.0
X179.25Y-85.25
X179.25Y-86.5
X180.5Y-80.25
X180.5Y-81.5
X180.5Y-82.75
X180.82Y-94.07
X181.75Y-80.25
X181.75Y-81.5
X182.0Y-94.0
X182.75Y-93.25
X183.0Y-80.25
X186.25Y-93.5
X186.25Y-94.75
X186.25Y-96.0
X186.5Y-99.0
X186.5Y-100.25
X187.5Y-93.5
X187.5Y-94.75
X187.5Y-96.0
X187.75Y-99.0
X187.75Y-100.25
X188.75Y-90.75
X188.75Y-92.0
X188.75Y-93.5
X188.75Y-94.75
X188.75Y-96.0
T3
X122.502Y-105.827
X122.502Y-108.367
X125.042Y-105.827
X125.042Y-108.367
X125.072Y-84.452
X125.072Y-86.992
X125.072Y-89.532
X125.072Y-92.072
X127.582Y-105.827
X127.582Y-108.367
X127.612Y-84.452
X127.612Y-86.992
X127.612Y-89.532
X127.612Y-92.072
X130.122Y-105.827
X130.122Y-108.367
X132.662Y-105.827
X132.662Y-108.367
X134.972Y-85.247
X134.972Y-87.787
X137.512Y-85.247
X137.512Y-87.787
X140.052Y-85.247
X140.052Y-87.787
X149.425Y-109.65
X149.425Y-112.19
X149.425Y-114.73
X151.965Y-109.65
X151.965Y-112.19
X151.965Y-114.73
X173.525Y-115.575
X176.065Y-115.575
X177.3Y-106.775
X177.3Y-109.315
X177.3Y-111.855
X181.325Y-102.6
X183.865Y-102.6
X184.0Y-108.775
X184.0Y-111.315
X184.0Y-113.855
X186.405Y-102.6
T4
X153.333Y-86.042
X158.333Y-86.042
X163.333Y-86.042
X168.333Y-86.042
T5
X124.0Y-78.475
X124.0Y-114.475
X194.0Y-78.475
X194.0Y-114.475
T0
M30
