%TF.GenerationSoftware,KiCad,Pcbnew,(6.0.1)*%
%TF.CreationDate,2022-03-17T09:26:44+01:00*%
%TF.ProjectId,SignalGenerator,5369676e-616c-4476-956e-657261746f72,0.3*%
%TF.SameCoordinates,Original*%
%TF.FileFunction,Copper,L3,Inr*%
%TF.FilePolarity,Positive*%
%FSLAX46Y46*%
G04 Gerber Fmt 4.6, Leading zero omitted, Abs format (unit mm)*
G04 Created by KiCad (PCBNEW (6.0.1)) date 2022-03-17 09:26:44*
%MOMM*%
%LPD*%
G01*
G04 APERTURE LIST*
%TA.AperFunction,ComponentPad*%
%ADD10R,1.700000X1.700000*%
%TD*%
%TA.AperFunction,ComponentPad*%
%ADD11O,1.700000X1.700000*%
%TD*%
%TA.AperFunction,ComponentPad*%
%ADD12R,3.000000X3.000000*%
%TD*%
%TA.AperFunction,ComponentPad*%
%ADD13C,3.000000*%
%TD*%
%TA.AperFunction,ViaPad*%
%ADD14C,1.000000*%
%TD*%
%TA.AperFunction,ViaPad*%
%ADD15C,0.800000*%
%TD*%
%TA.AperFunction,Conductor*%
%ADD16C,0.250000*%
%TD*%
G04 APERTURE END LIST*
D10*
X184000000Y-108775000D03*
D11*
X184000000Y-111315000D03*
X184000000Y-113855000D03*
D10*
X177300000Y-106775000D03*
D11*
X177300000Y-109315000D03*
X177300000Y-111855000D03*
D10*
X122501920Y-108367377D03*
D11*
X122501920Y-105827377D03*
X125041920Y-108367377D03*
X125041920Y-105827377D03*
X127581920Y-108367377D03*
X127581920Y-105827377D03*
X130121920Y-108367377D03*
X130121920Y-105827377D03*
X132661920Y-108367377D03*
X132661920Y-105827377D03*
D10*
X127611920Y-92072377D03*
D11*
X125071920Y-92072377D03*
X127611920Y-89532377D03*
X125071920Y-89532377D03*
X127611920Y-86992377D03*
X125071920Y-86992377D03*
X127611920Y-84452377D03*
X125071920Y-84452377D03*
D10*
X173525000Y-115575000D03*
D11*
X176065000Y-115575000D03*
D12*
X153332980Y-86042020D03*
D13*
X158332980Y-86042020D03*
X163332980Y-86042020D03*
X168332980Y-86042020D03*
D10*
X140051920Y-85247377D03*
D11*
X140051920Y-87787377D03*
X137511920Y-85247377D03*
X137511920Y-87787377D03*
X134971920Y-85247377D03*
X134971920Y-87787377D03*
D10*
X181325000Y-102600000D03*
D11*
X183865000Y-102600000D03*
X186405000Y-102600000D03*
D10*
X149425000Y-109650000D03*
D11*
X151965000Y-109650000D03*
X149425000Y-112190000D03*
X151965000Y-112190000D03*
X149425000Y-114730000D03*
X151965000Y-114730000D03*
D14*
X188750000Y-96000000D03*
X139250000Y-108500000D03*
X187500000Y-94750000D03*
X187500000Y-96000000D03*
X142600000Y-87800000D03*
X188750000Y-92000000D03*
X188750000Y-93500000D03*
X186250000Y-96000000D03*
X188750000Y-90750000D03*
X142600000Y-89000000D03*
X139970000Y-95320000D03*
X186250000Y-94750000D03*
X126250000Y-97500000D03*
X187500000Y-93500000D03*
X188750000Y-94750000D03*
X140240000Y-114125000D03*
X162700000Y-102175000D03*
X139975000Y-94100000D03*
X186250000Y-93500000D03*
X139000000Y-107250000D03*
X126750000Y-98490357D03*
X160500000Y-112000000D03*
X159250000Y-110750000D03*
X156750000Y-109500000D03*
X158000000Y-110750000D03*
X159250000Y-109500000D03*
X158000000Y-112000000D03*
X156750000Y-112000000D03*
X159250000Y-112000000D03*
X160500000Y-110750000D03*
X160500000Y-109500000D03*
X158000000Y-109500000D03*
X156750000Y-110750000D03*
X173700000Y-112875000D03*
D15*
X148900000Y-100575000D03*
D14*
X141850000Y-108605000D03*
X140430000Y-111401877D03*
D15*
X140500000Y-99075000D03*
X140200000Y-97375000D03*
X146900000Y-99704377D03*
X142240480Y-91999520D03*
X145386420Y-90499520D03*
X147520697Y-94173357D03*
X145290480Y-94519520D03*
D16*
X142600000Y-87800000D02*
X142650000Y-87750000D01*
%TA.AperFunction,Conductor*%
G36*
X197142121Y-75245002D02*
G01*
X197188614Y-75298658D01*
X197200000Y-75351000D01*
X197200000Y-117599000D01*
X197179998Y-117667121D01*
X197126342Y-117713614D01*
X197074000Y-117725000D01*
X157056392Y-117725000D01*
X156988271Y-117704998D01*
X156941778Y-117651342D01*
X156931674Y-117581068D01*
X156961168Y-117516488D01*
X156969500Y-117507754D01*
X156973852Y-117503610D01*
X157000139Y-117478577D01*
X157077024Y-117362855D01*
X157092891Y-117338974D01*
X157092892Y-117338972D01*
X157096792Y-117333102D01*
X157158813Y-117169830D01*
X157183121Y-116996875D01*
X157183426Y-116975000D01*
X157163957Y-116801433D01*
X157106519Y-116636493D01*
X157013966Y-116488377D01*
X157002203Y-116476531D01*
X156998830Y-116473134D01*
X172166500Y-116473134D01*
X172173255Y-116535316D01*
X172224385Y-116671705D01*
X172311739Y-116788261D01*
X172428295Y-116875615D01*
X172564684Y-116926745D01*
X172626866Y-116933500D01*
X174423134Y-116933500D01*
X174485316Y-116926745D01*
X174621705Y-116875615D01*
X174738261Y-116788261D01*
X174825615Y-116671705D01*
X174836320Y-116643150D01*
X174869598Y-116554382D01*
X174912240Y-116497618D01*
X174978802Y-116472918D01*
X175048150Y-116488126D01*
X175082817Y-116516114D01*
X175111250Y-116548938D01*
X175283126Y-116691632D01*
X175476000Y-116804338D01*
X175684692Y-116884030D01*
X175689760Y-116885061D01*
X175689763Y-116885062D01*
X175797017Y-116906883D01*
X175903597Y-116928567D01*
X175908772Y-116928757D01*
X175908774Y-116928757D01*
X176121673Y-116936564D01*
X176121677Y-116936564D01*
X176126837Y-116936753D01*
X176131957Y-116936097D01*
X176131959Y-116936097D01*
X176343288Y-116909025D01*
X176343289Y-116909025D01*
X176348416Y-116908368D01*
X176353366Y-116906883D01*
X176557429Y-116845661D01*
X176557434Y-116845659D01*
X176562384Y-116844174D01*
X176762994Y-116745896D01*
X176944860Y-116616173D01*
X176977648Y-116583500D01*
X177088616Y-116472918D01*
X177103096Y-116458489D01*
X177138047Y-116409850D01*
X177230435Y-116281277D01*
X177233453Y-116277077D01*
X177236365Y-116271186D01*
X177330136Y-116081453D01*
X177330137Y-116081451D01*
X177332430Y-116076811D01*
X177384470Y-115905528D01*
X177395865Y-115868023D01*
X177395865Y-115868021D01*
X177397370Y-115863069D01*
X177426529Y-115641590D01*
X177426611Y-115638240D01*
X177428074Y-115578365D01*
X177428074Y-115578361D01*
X177428156Y-115575000D01*
X177409852Y-115352361D01*
X177355431Y-115135702D01*
X177266354Y-114930840D01*
X177170957Y-114783378D01*
X177147822Y-114747617D01*
X177147820Y-114747614D01*
X177145014Y-114743277D01*
X176994670Y-114578051D01*
X176990619Y-114574852D01*
X176990615Y-114574848D01*
X176823414Y-114442800D01*
X176823410Y-114442798D01*
X176819359Y-114439598D01*
X176623789Y-114331638D01*
X176618920Y-114329914D01*
X176618916Y-114329912D01*
X176418087Y-114258795D01*
X176418083Y-114258794D01*
X176413212Y-114257069D01*
X176408119Y-114256162D01*
X176408116Y-114256161D01*
X176198373Y-114218800D01*
X176198367Y-114218799D01*
X176193284Y-114217894D01*
X176119452Y-114216992D01*
X175975081Y-114215228D01*
X175975079Y-114215228D01*
X175969911Y-114215165D01*
X175749091Y-114248955D01*
X175536756Y-114318357D01*
X175338607Y-114421507D01*
X175334474Y-114424610D01*
X175334471Y-114424612D01*
X175164223Y-114552438D01*
X175159965Y-114555635D01*
X175103537Y-114614684D01*
X175079283Y-114640064D01*
X175017759Y-114675494D01*
X174946846Y-114672037D01*
X174889060Y-114630791D01*
X174870207Y-114597243D01*
X174828767Y-114486703D01*
X174825615Y-114478295D01*
X174738261Y-114361739D01*
X174621705Y-114274385D01*
X174485316Y-114223255D01*
X174423134Y-114216500D01*
X172626866Y-114216500D01*
X172564684Y-114223255D01*
X172428295Y-114274385D01*
X172311739Y-114361739D01*
X172224385Y-114478295D01*
X172173255Y-114614684D01*
X172166500Y-114676866D01*
X172166500Y-116473134D01*
X156998830Y-116473134D01*
X156942131Y-116416038D01*
X156890898Y-116364446D01*
X156743431Y-116270861D01*
X156676739Y-116247113D01*
X156585531Y-116214635D01*
X156585526Y-116214634D01*
X156578896Y-116212273D01*
X156571908Y-116211440D01*
X156571905Y-116211439D01*
X156454334Y-116197420D01*
X156405469Y-116191593D01*
X156398467Y-116192329D01*
X156398465Y-116192329D01*
X156238771Y-116209114D01*
X156238769Y-116209114D01*
X156231771Y-116209850D01*
X156082275Y-116260742D01*
X156011344Y-116263760D01*
X155950040Y-116227950D01*
X155922680Y-116182901D01*
X155908837Y-116143150D01*
X155906519Y-116136493D01*
X155813966Y-115988377D01*
X155790829Y-115965077D01*
X155757022Y-115902648D01*
X155762334Y-115831850D01*
X155790719Y-115789010D01*
X155790508Y-115788833D01*
X155792071Y-115786970D01*
X155793346Y-115785045D01*
X155800139Y-115778577D01*
X155896792Y-115633102D01*
X155958813Y-115469830D01*
X155983121Y-115296875D01*
X155983426Y-115275000D01*
X155963957Y-115101433D01*
X155906519Y-114936493D01*
X155813966Y-114788377D01*
X155805501Y-114779852D01*
X155743223Y-114717138D01*
X155690898Y-114664446D01*
X155680193Y-114657652D01*
X155594731Y-114603417D01*
X155543431Y-114570861D01*
X155500671Y-114555635D01*
X155385531Y-114514635D01*
X155385526Y-114514634D01*
X155378896Y-114512273D01*
X155371908Y-114511440D01*
X155371905Y-114511439D01*
X155254334Y-114497420D01*
X155205469Y-114491593D01*
X155198467Y-114492329D01*
X155198465Y-114492329D01*
X155038771Y-114509114D01*
X155038769Y-114509114D01*
X155031771Y-114509850D01*
X154866433Y-114566135D01*
X154815868Y-114597243D01*
X154723677Y-114653959D01*
X154723674Y-114653961D01*
X154717675Y-114657652D01*
X154592888Y-114779852D01*
X154589069Y-114785777D01*
X154589068Y-114785779D01*
X154520140Y-114892734D01*
X154498276Y-114926661D01*
X154495867Y-114933281D01*
X154495865Y-114933284D01*
X154441835Y-115081731D01*
X154438540Y-115090784D01*
X154416650Y-115264062D01*
X154433694Y-115437883D01*
X154488824Y-115603610D01*
X154492471Y-115609632D01*
X154492472Y-115609634D01*
X154549585Y-115703938D01*
X154579300Y-115753004D01*
X154611577Y-115786428D01*
X154644509Y-115849322D01*
X154638210Y-115920039D01*
X154609098Y-115963978D01*
X154592888Y-115979852D01*
X154498276Y-116126661D01*
X154495867Y-116133281D01*
X154495865Y-116133284D01*
X154442000Y-116281277D01*
X154438540Y-116290784D01*
X154437657Y-116297772D01*
X154437657Y-116297773D01*
X154432317Y-116340043D01*
X154403935Y-116405119D01*
X154344875Y-116444520D01*
X154273889Y-116445736D01*
X154265049Y-116442951D01*
X154227581Y-116429609D01*
X154185530Y-116414635D01*
X154185528Y-116414635D01*
X154178896Y-116412273D01*
X154171908Y-116411440D01*
X154171905Y-116411439D01*
X154054334Y-116397420D01*
X154005469Y-116391593D01*
X153998467Y-116392329D01*
X153998465Y-116392329D01*
X153838771Y-116409114D01*
X153838769Y-116409114D01*
X153831771Y-116409850D01*
X153666433Y-116466135D01*
X153620569Y-116494351D01*
X153523677Y-116553959D01*
X153523674Y-116553961D01*
X153517675Y-116557652D01*
X153392888Y-116679852D01*
X153389069Y-116685777D01*
X153389068Y-116685779D01*
X153314534Y-116801433D01*
X153298276Y-116826661D01*
X153295867Y-116833281D01*
X153295865Y-116833284D01*
X153240949Y-116984165D01*
X153238540Y-116990784D01*
X153216650Y-117164062D01*
X153233694Y-117337883D01*
X153288824Y-117503610D01*
X153292471Y-117509633D01*
X153292473Y-117509636D01*
X153307064Y-117533728D01*
X153325244Y-117602357D01*
X153303434Y-117669921D01*
X153248559Y-117714968D01*
X153199289Y-117725000D01*
X120826000Y-117725000D01*
X120757879Y-117704998D01*
X120711386Y-117651342D01*
X120700000Y-117599000D01*
X120700000Y-114607703D01*
X121890743Y-114607703D01*
X121891302Y-114611947D01*
X121891302Y-114611951D01*
X121897716Y-114660671D01*
X121928268Y-114892734D01*
X122004129Y-115170036D01*
X122005813Y-115173984D01*
X122104412Y-115405144D01*
X122116923Y-115434476D01*
X122138082Y-115469830D01*
X122239313Y-115638974D01*
X122264561Y-115681161D01*
X122444313Y-115905528D01*
X122461397Y-115921740D01*
X122630839Y-116082534D01*
X122652851Y-116103423D01*
X122886317Y-116271186D01*
X122890112Y-116273195D01*
X122890113Y-116273196D01*
X122910830Y-116284165D01*
X123140392Y-116405712D01*
X123410373Y-116504511D01*
X123691264Y-116565755D01*
X123719841Y-116568004D01*
X123914282Y-116583307D01*
X123914291Y-116583307D01*
X123916739Y-116583500D01*
X124072271Y-116583500D01*
X124074407Y-116583354D01*
X124074418Y-116583354D01*
X124282548Y-116569165D01*
X124282554Y-116569164D01*
X124286825Y-116568873D01*
X124291020Y-116568004D01*
X124291022Y-116568004D01*
X124486802Y-116527460D01*
X124568342Y-116510574D01*
X124839343Y-116414607D01*
X125094812Y-116282750D01*
X125098313Y-116280289D01*
X125098317Y-116280287D01*
X125236883Y-116182901D01*
X125330023Y-116117441D01*
X125459746Y-115996895D01*
X125537479Y-115924661D01*
X125537481Y-115924658D01*
X125540622Y-115921740D01*
X125722713Y-115699268D01*
X125872927Y-115454142D01*
X125880455Y-115436994D01*
X125986757Y-115194830D01*
X125988483Y-115190898D01*
X126018313Y-115086181D01*
X126060952Y-114936493D01*
X126067244Y-114914406D01*
X126098228Y-114696695D01*
X148062251Y-114696695D01*
X148062548Y-114701848D01*
X148062548Y-114701851D01*
X148067882Y-114794351D01*
X148075110Y-114919715D01*
X148076247Y-114924761D01*
X148076248Y-114924767D01*
X148078891Y-114936493D01*
X148124222Y-115137639D01*
X148208266Y-115344616D01*
X148259019Y-115427438D01*
X148322291Y-115530688D01*
X148324987Y-115535088D01*
X148471250Y-115703938D01*
X148643126Y-115846632D01*
X148836000Y-115959338D01*
X148840825Y-115961180D01*
X148840826Y-115961181D01*
X148876818Y-115974925D01*
X149044692Y-116039030D01*
X149049760Y-116040061D01*
X149049763Y-116040062D01*
X149157017Y-116061883D01*
X149263597Y-116083567D01*
X149268772Y-116083757D01*
X149268774Y-116083757D01*
X149481673Y-116091564D01*
X149481677Y-116091564D01*
X149486837Y-116091753D01*
X149491957Y-116091097D01*
X149491959Y-116091097D01*
X149703288Y-116064025D01*
X149703289Y-116064025D01*
X149708416Y-116063368D01*
X149713366Y-116061883D01*
X149917429Y-116000661D01*
X149917434Y-116000659D01*
X149922384Y-115999174D01*
X150122994Y-115900896D01*
X150304860Y-115771173D01*
X150463096Y-115613489D01*
X150522594Y-115530689D01*
X150593453Y-115432077D01*
X150594776Y-115433028D01*
X150641645Y-115389857D01*
X150711580Y-115377625D01*
X150777026Y-115405144D01*
X150804875Y-115436994D01*
X150864987Y-115535088D01*
X151011250Y-115703938D01*
X151183126Y-115846632D01*
X151376000Y-115959338D01*
X151380825Y-115961180D01*
X151380826Y-115961181D01*
X151416818Y-115974925D01*
X151584692Y-116039030D01*
X151589760Y-116040061D01*
X151589763Y-116040062D01*
X151697017Y-116061883D01*
X151803597Y-116083567D01*
X151808772Y-116083757D01*
X151808774Y-116083757D01*
X152021673Y-116091564D01*
X152021677Y-116091564D01*
X152026837Y-116091753D01*
X152031957Y-116091097D01*
X152031959Y-116091097D01*
X152243288Y-116064025D01*
X152243289Y-116064025D01*
X152248416Y-116063368D01*
X152253366Y-116061883D01*
X152457429Y-116000661D01*
X152457434Y-116000659D01*
X152462384Y-115999174D01*
X152662994Y-115900896D01*
X152844860Y-115771173D01*
X153003096Y-115613489D01*
X153062594Y-115530689D01*
X153130435Y-115436277D01*
X153133453Y-115432077D01*
X153154320Y-115389857D01*
X153230136Y-115236453D01*
X153230137Y-115236451D01*
X153232430Y-115231811D01*
X153297370Y-115018069D01*
X153326529Y-114796590D01*
X153326938Y-114779852D01*
X153328074Y-114733365D01*
X153328074Y-114733361D01*
X153328156Y-114730000D01*
X153309852Y-114507361D01*
X153255431Y-114290702D01*
X153166354Y-114085840D01*
X153126906Y-114024862D01*
X153047822Y-113902617D01*
X153047820Y-113902614D01*
X153045014Y-113898277D01*
X152894670Y-113733051D01*
X152890619Y-113729852D01*
X152890615Y-113729848D01*
X152723414Y-113597800D01*
X152723410Y-113597798D01*
X152719359Y-113594598D01*
X152678053Y-113571796D01*
X152628084Y-113521364D01*
X152613312Y-113451921D01*
X152638428Y-113385516D01*
X152665780Y-113358909D01*
X152709603Y-113327650D01*
X152844860Y-113231173D01*
X152859331Y-113216753D01*
X152950741Y-113125661D01*
X153003096Y-113073489D01*
X153039454Y-113022892D01*
X153130435Y-112896277D01*
X153133453Y-112892077D01*
X153154320Y-112849857D01*
X153230136Y-112696453D01*
X153230137Y-112696451D01*
X153232430Y-112691811D01*
X153277251Y-112544288D01*
X153295865Y-112483023D01*
X153295865Y-112483021D01*
X153297370Y-112478069D01*
X153326529Y-112256590D01*
X153327462Y-112218393D01*
X153328074Y-112193365D01*
X153328074Y-112193361D01*
X153328156Y-112190000D01*
X153311372Y-111985851D01*
X155736719Y-111985851D01*
X155737235Y-111991995D01*
X155751498Y-112161851D01*
X155753268Y-112182934D01*
X155763436Y-112218393D01*
X155805947Y-112366646D01*
X155807783Y-112373050D01*
X155813805Y-112384767D01*
X155891217Y-112535393D01*
X155898187Y-112548956D01*
X156021035Y-112703953D01*
X156025728Y-112707947D01*
X156025729Y-112707948D01*
X156163302Y-112825031D01*
X156171650Y-112832136D01*
X156344294Y-112928624D01*
X156532392Y-112989740D01*
X156728777Y-113013158D01*
X156734912Y-113012686D01*
X156734914Y-113012686D01*
X156919830Y-112998457D01*
X156919834Y-112998456D01*
X156925972Y-112997984D01*
X157116463Y-112944798D01*
X157121967Y-112942018D01*
X157121969Y-112942017D01*
X157287495Y-112858404D01*
X157287497Y-112858403D01*
X157292996Y-112855625D01*
X157298211Y-112851551D01*
X157298431Y-112851463D01*
X157303053Y-112848530D01*
X157303611Y-112849409D01*
X157364205Y-112825376D01*
X157437251Y-112840855D01*
X157594294Y-112928624D01*
X157782392Y-112989740D01*
X157978777Y-113013158D01*
X157984912Y-113012686D01*
X157984914Y-113012686D01*
X158169830Y-112998457D01*
X158169834Y-112998456D01*
X158175972Y-112997984D01*
X158366463Y-112944798D01*
X158371967Y-112942018D01*
X158371969Y-112942017D01*
X158537495Y-112858404D01*
X158537497Y-112858403D01*
X158542996Y-112855625D01*
X158548211Y-112851551D01*
X158548431Y-112851463D01*
X158553053Y-112848530D01*
X158553611Y-112849409D01*
X158614205Y-112825376D01*
X158687251Y-112840855D01*
X158844294Y-112928624D01*
X159032392Y-112989740D01*
X159228777Y-113013158D01*
X159234912Y-113012686D01*
X159234914Y-113012686D01*
X159419830Y-112998457D01*
X159419834Y-112998456D01*
X159425972Y-112997984D01*
X159616463Y-112944798D01*
X159621967Y-112942018D01*
X159621969Y-112942017D01*
X159787495Y-112858404D01*
X159787497Y-112858403D01*
X159792996Y-112855625D01*
X159798211Y-112851551D01*
X159798431Y-112851463D01*
X159803053Y-112848530D01*
X159803611Y-112849409D01*
X159864205Y-112825376D01*
X159937251Y-112840855D01*
X160094294Y-112928624D01*
X160282392Y-112989740D01*
X160478777Y-113013158D01*
X160484912Y-113012686D01*
X160484914Y-113012686D01*
X160669830Y-112998457D01*
X160669834Y-112998456D01*
X160675972Y-112997984D01*
X160866463Y-112944798D01*
X160871967Y-112942018D01*
X160871969Y-112942017D01*
X161032651Y-112860851D01*
X172686719Y-112860851D01*
X172687235Y-112866995D01*
X172702138Y-113044472D01*
X172703268Y-113057934D01*
X172710092Y-113081731D01*
X172752944Y-113231173D01*
X172757783Y-113248050D01*
X172774885Y-113281326D01*
X172830375Y-113389297D01*
X172848187Y-113423956D01*
X172971035Y-113578953D01*
X172975728Y-113582947D01*
X172975729Y-113582948D01*
X173039854Y-113637522D01*
X173121650Y-113707136D01*
X173294294Y-113803624D01*
X173482392Y-113864740D01*
X173678777Y-113888158D01*
X173684912Y-113887686D01*
X173684914Y-113887686D01*
X173869830Y-113873457D01*
X173869834Y-113873456D01*
X173875972Y-113872984D01*
X174059669Y-113821695D01*
X182637251Y-113821695D01*
X182637548Y-113826848D01*
X182637548Y-113826851D01*
X182649346Y-114031466D01*
X182650110Y-114044715D01*
X182651247Y-114049761D01*
X182651248Y-114049767D01*
X182671119Y-114137939D01*
X182699222Y-114262639D01*
X182783266Y-114469616D01*
X182806396Y-114507361D01*
X182876978Y-114622540D01*
X182899987Y-114660088D01*
X183046250Y-114828938D01*
X183218126Y-114971632D01*
X183411000Y-115084338D01*
X183619692Y-115164030D01*
X183624760Y-115165061D01*
X183624763Y-115165062D01*
X183731462Y-115186770D01*
X183838597Y-115208567D01*
X183843772Y-115208757D01*
X183843774Y-115208757D01*
X184056673Y-115216564D01*
X184056677Y-115216564D01*
X184061837Y-115216753D01*
X184066957Y-115216097D01*
X184066959Y-115216097D01*
X184278288Y-115189025D01*
X184278289Y-115189025D01*
X184283416Y-115188368D01*
X184288366Y-115186883D01*
X184492429Y-115125661D01*
X184492434Y-115125659D01*
X184497384Y-115124174D01*
X184697994Y-115025896D01*
X184879860Y-114896173D01*
X185038096Y-114738489D01*
X185097594Y-114655689D01*
X185132075Y-114607703D01*
X191890743Y-114607703D01*
X191891302Y-114611947D01*
X191891302Y-114611951D01*
X191897716Y-114660671D01*
X191928268Y-114892734D01*
X192004129Y-115170036D01*
X192005813Y-115173984D01*
X192104412Y-115405144D01*
X192116923Y-115434476D01*
X192138082Y-115469830D01*
X192239313Y-115638974D01*
X192264561Y-115681161D01*
X192444313Y-115905528D01*
X192461397Y-115921740D01*
X192630839Y-116082534D01*
X192652851Y-116103423D01*
X192886317Y-116271186D01*
X192890112Y-116273195D01*
X192890113Y-116273196D01*
X192910830Y-116284165D01*
X193140392Y-116405712D01*
X193410373Y-116504511D01*
X193691264Y-116565755D01*
X193719841Y-116568004D01*
X193914282Y-116583307D01*
X193914291Y-116583307D01*
X193916739Y-116583500D01*
X194072271Y-116583500D01*
X194074407Y-116583354D01*
X194074418Y-116583354D01*
X194282548Y-116569165D01*
X194282554Y-116569164D01*
X194286825Y-116568873D01*
X194291020Y-116568004D01*
X194291022Y-116568004D01*
X194486802Y-116527460D01*
X194568342Y-116510574D01*
X194839343Y-116414607D01*
X195094812Y-116282750D01*
X195098313Y-116280289D01*
X195098317Y-116280287D01*
X195236883Y-116182901D01*
X195330023Y-116117441D01*
X195459746Y-115996895D01*
X195537479Y-115924661D01*
X195537481Y-115924658D01*
X195540622Y-115921740D01*
X195722713Y-115699268D01*
X195872927Y-115454142D01*
X195880455Y-115436994D01*
X195986757Y-115194830D01*
X195988483Y-115190898D01*
X196018313Y-115086181D01*
X196060952Y-114936493D01*
X196067244Y-114914406D01*
X196104064Y-114655689D01*
X196107146Y-114634036D01*
X196107146Y-114634034D01*
X196107751Y-114629784D01*
X196107831Y-114614684D01*
X196109235Y-114346583D01*
X196109235Y-114346576D01*
X196109257Y-114342297D01*
X196107627Y-114329912D01*
X196075494Y-114085840D01*
X196071732Y-114057266D01*
X196068299Y-114044715D01*
X196022256Y-113876411D01*
X195995871Y-113779964D01*
X195967894Y-113714373D01*
X195884763Y-113519476D01*
X195884761Y-113519472D01*
X195883077Y-113515524D01*
X195749625Y-113292542D01*
X195737643Y-113272521D01*
X195737640Y-113272517D01*
X195735439Y-113268839D01*
X195555687Y-113044472D01*
X195402572Y-112899171D01*
X195350258Y-112849527D01*
X195350255Y-112849525D01*
X195347149Y-112846577D01*
X195149585Y-112704612D01*
X195117172Y-112681321D01*
X195117171Y-112681320D01*
X195113683Y-112678814D01*
X195091843Y-112667250D01*
X195052396Y-112646364D01*
X194859608Y-112544288D01*
X194693202Y-112483392D01*
X194593658Y-112446964D01*
X194593656Y-112446963D01*
X194589627Y-112445489D01*
X194308736Y-112384245D01*
X194277685Y-112381801D01*
X194085718Y-112366693D01*
X194085709Y-112366693D01*
X194083261Y-112366500D01*
X193927729Y-112366500D01*
X193925593Y-112366646D01*
X193925582Y-112366646D01*
X193717452Y-112380835D01*
X193717446Y-112380836D01*
X193713175Y-112381127D01*
X193708980Y-112381996D01*
X193708978Y-112381996D01*
X193622711Y-112399861D01*
X193431658Y-112439426D01*
X193160657Y-112535393D01*
X193143423Y-112544288D01*
X193030785Y-112602425D01*
X192905188Y-112667250D01*
X192901687Y-112669711D01*
X192901683Y-112669713D01*
X192787582Y-112749905D01*
X192669977Y-112832559D01*
X192632920Y-112866995D01*
X192465155Y-113022892D01*
X192459378Y-113028260D01*
X192277287Y-113250732D01*
X192127073Y-113495858D01*
X192125347Y-113499791D01*
X192125346Y-113499792D01*
X192022953Y-113733051D01*
X192011517Y-113759102D01*
X192010342Y-113763229D01*
X192010341Y-113763230D01*
X191981425Y-113864740D01*
X191932756Y-114035594D01*
X191892249Y-114320216D01*
X191892227Y-114324505D01*
X191892226Y-114324512D01*
X191890765Y-114603417D01*
X191890743Y-114607703D01*
X185132075Y-114607703D01*
X185165435Y-114561277D01*
X185168453Y-114557077D01*
X185190474Y-114512522D01*
X185265136Y-114361453D01*
X185265137Y-114361451D01*
X185267430Y-114356811D01*
X185309636Y-114217894D01*
X185330865Y-114148023D01*
X185330865Y-114148021D01*
X185332370Y-114143069D01*
X185361529Y-113921590D01*
X185362346Y-113888158D01*
X185363074Y-113858365D01*
X185363074Y-113858361D01*
X185363156Y-113855000D01*
X185344852Y-113632361D01*
X185290431Y-113415702D01*
X185201354Y-113210840D01*
X185125374Y-113093393D01*
X185082822Y-113027617D01*
X185082820Y-113027614D01*
X185080014Y-113023277D01*
X184929670Y-112858051D01*
X184925619Y-112854852D01*
X184925615Y-112854848D01*
X184758414Y-112722800D01*
X184758410Y-112722798D01*
X184754359Y-112719598D01*
X184713053Y-112696796D01*
X184663084Y-112646364D01*
X184648312Y-112576921D01*
X184673428Y-112510516D01*
X184700780Y-112483909D01*
X184764361Y-112438557D01*
X184879860Y-112356173D01*
X184887727Y-112348334D01*
X185006108Y-112230365D01*
X185038096Y-112198489D01*
X185097594Y-112115689D01*
X185165435Y-112021277D01*
X185168453Y-112017077D01*
X185183802Y-111986022D01*
X185265136Y-111821453D01*
X185265137Y-111821451D01*
X185267430Y-111816811D01*
X185332370Y-111603069D01*
X185361529Y-111381590D01*
X185363156Y-111315000D01*
X185344852Y-111092361D01*
X185290431Y-110875702D01*
X185201354Y-110670840D01*
X185129196Y-110559301D01*
X185082822Y-110487617D01*
X185082820Y-110487614D01*
X185080014Y-110483277D01*
X185064163Y-110465857D01*
X184932798Y-110321488D01*
X184901746Y-110257642D01*
X184910141Y-110187143D01*
X184955317Y-110132375D01*
X184981761Y-110118706D01*
X185088297Y-110078767D01*
X185096705Y-110075615D01*
X185213261Y-109988261D01*
X185300615Y-109871705D01*
X185351745Y-109735316D01*
X185358500Y-109673134D01*
X185358500Y-107876866D01*
X185351745Y-107814684D01*
X185300615Y-107678295D01*
X185213261Y-107561739D01*
X185096705Y-107474385D01*
X184960316Y-107423255D01*
X184898134Y-107416500D01*
X183101866Y-107416500D01*
X183039684Y-107423255D01*
X182903295Y-107474385D01*
X182786739Y-107561739D01*
X182699385Y-107678295D01*
X182648255Y-107814684D01*
X182641500Y-107876866D01*
X182641500Y-109673134D01*
X182648255Y-109735316D01*
X182699385Y-109871705D01*
X182786739Y-109988261D01*
X182903295Y-110075615D01*
X182911704Y-110078767D01*
X182911705Y-110078768D01*
X183020451Y-110119535D01*
X183077216Y-110162176D01*
X183101916Y-110228738D01*
X183086709Y-110298087D01*
X183067316Y-110324568D01*
X182940629Y-110457138D01*
X182937715Y-110461410D01*
X182937714Y-110461411D01*
X182919838Y-110487617D01*
X182814743Y-110641680D01*
X182778575Y-110719598D01*
X182726154Y-110832530D01*
X182720688Y-110844305D01*
X182660989Y-111059570D01*
X182637251Y-111281695D01*
X182637548Y-111286848D01*
X182637548Y-111286851D01*
X182649812Y-111499547D01*
X182650110Y-111504715D01*
X182651247Y-111509761D01*
X182651248Y-111509767D01*
X182666777Y-111578670D01*
X182699222Y-111722639D01*
X182783266Y-111929616D01*
X182806396Y-111967361D01*
X182891250Y-112105830D01*
X182899987Y-112120088D01*
X183046250Y-112288938D01*
X183218126Y-112431632D01*
X183241840Y-112445489D01*
X183291445Y-112474476D01*
X183340169Y-112526114D01*
X183353240Y-112595897D01*
X183326509Y-112661669D01*
X183286055Y-112695027D01*
X183273607Y-112701507D01*
X183269474Y-112704610D01*
X183269471Y-112704612D01*
X183099100Y-112832530D01*
X183094965Y-112835635D01*
X182940629Y-112997138D01*
X182937715Y-113001410D01*
X182937714Y-113001411D01*
X182866802Y-113105365D01*
X182814743Y-113181680D01*
X182720688Y-113384305D01*
X182660989Y-113599570D01*
X182637251Y-113821695D01*
X174059669Y-113821695D01*
X174066463Y-113819798D01*
X174071967Y-113817018D01*
X174071969Y-113817017D01*
X174237495Y-113733404D01*
X174237497Y-113733403D01*
X174242996Y-113730625D01*
X174398847Y-113608861D01*
X174528078Y-113459145D01*
X174625769Y-113287179D01*
X174688197Y-113099513D01*
X174712985Y-112903295D01*
X174713380Y-112875000D01*
X174694080Y-112678167D01*
X174687294Y-112655689D01*
X174655069Y-112548956D01*
X174636916Y-112488831D01*
X174544066Y-112314204D01*
X174445512Y-112193365D01*
X174422960Y-112165713D01*
X174422957Y-112165710D01*
X174419065Y-112160938D01*
X174412724Y-112155692D01*
X174271425Y-112038799D01*
X174271421Y-112038797D01*
X174266675Y-112034870D01*
X174092701Y-111940802D01*
X173903768Y-111882318D01*
X173897643Y-111881674D01*
X173897642Y-111881674D01*
X173713204Y-111862289D01*
X173713202Y-111862289D01*
X173707075Y-111861645D01*
X173624576Y-111869153D01*
X173516251Y-111879011D01*
X173516248Y-111879012D01*
X173510112Y-111879570D01*
X173504206Y-111881308D01*
X173504202Y-111881309D01*
X173399076Y-111912249D01*
X173320381Y-111935410D01*
X173314923Y-111938263D01*
X173314919Y-111938265D01*
X173235613Y-111979726D01*
X173145110Y-112027040D01*
X172990975Y-112150968D01*
X172863846Y-112302474D01*
X172860879Y-112307872D01*
X172860875Y-112307877D01*
X172802366Y-112414306D01*
X172768567Y-112475787D01*
X172766706Y-112481654D01*
X172766705Y-112481656D01*
X172711498Y-112655689D01*
X172708765Y-112664306D01*
X172686719Y-112860851D01*
X161032651Y-112860851D01*
X161037495Y-112858404D01*
X161037497Y-112858403D01*
X161042996Y-112855625D01*
X161188254Y-112742137D01*
X161193991Y-112737655D01*
X161198847Y-112733861D01*
X161315811Y-112598357D01*
X161324049Y-112588813D01*
X161324050Y-112588811D01*
X161328078Y-112584145D01*
X161425769Y-112412179D01*
X161488197Y-112224513D01*
X161512985Y-112028295D01*
X161513380Y-112000000D01*
X161495897Y-111821695D01*
X175937251Y-111821695D01*
X175937548Y-111826848D01*
X175937548Y-111826851D01*
X175944287Y-111943732D01*
X175950110Y-112044715D01*
X175951247Y-112049761D01*
X175951248Y-112049767D01*
X175969572Y-112131074D01*
X175999222Y-112262639D01*
X176083266Y-112469616D01*
X176199987Y-112660088D01*
X176346250Y-112828938D01*
X176518126Y-112971632D01*
X176711000Y-113084338D01*
X176715825Y-113086180D01*
X176715826Y-113086181D01*
X176750739Y-113099513D01*
X176919692Y-113164030D01*
X176924760Y-113165061D01*
X176924763Y-113165062D01*
X177032017Y-113186883D01*
X177138597Y-113208567D01*
X177143772Y-113208757D01*
X177143774Y-113208757D01*
X177356673Y-113216564D01*
X177356677Y-113216564D01*
X177361837Y-113216753D01*
X177366957Y-113216097D01*
X177366959Y-113216097D01*
X177578288Y-113189025D01*
X177578289Y-113189025D01*
X177583416Y-113188368D01*
X177653839Y-113167240D01*
X177792429Y-113125661D01*
X177792434Y-113125659D01*
X177797384Y-113124174D01*
X177997994Y-113025896D01*
X178179860Y-112896173D01*
X178183971Y-112892077D01*
X178267318Y-112809020D01*
X178338096Y-112738489D01*
X178351671Y-112719598D01*
X178465435Y-112561277D01*
X178468453Y-112557077D01*
X178475175Y-112543477D01*
X178565136Y-112361453D01*
X178565137Y-112361451D01*
X178567430Y-112356811D01*
X178632370Y-112143069D01*
X178661529Y-111921590D01*
X178662556Y-111879570D01*
X178663074Y-111858365D01*
X178663074Y-111858361D01*
X178663156Y-111855000D01*
X178644852Y-111632361D01*
X178590431Y-111415702D01*
X178501354Y-111210840D01*
X178450765Y-111132642D01*
X178382822Y-111027617D01*
X178382820Y-111027614D01*
X178380014Y-111023277D01*
X178229670Y-110858051D01*
X178225619Y-110854852D01*
X178225615Y-110854848D01*
X178058414Y-110722800D01*
X178058410Y-110722798D01*
X178054359Y-110719598D01*
X178013053Y-110696796D01*
X177963084Y-110646364D01*
X177948312Y-110576921D01*
X177973428Y-110510516D01*
X178000780Y-110483909D01*
X178044603Y-110452650D01*
X178179860Y-110356173D01*
X178183971Y-110352077D01*
X178334435Y-110202137D01*
X178338096Y-110198489D01*
X178342796Y-110191949D01*
X178465435Y-110021277D01*
X178468453Y-110017077D01*
X178510037Y-109932939D01*
X178565136Y-109821453D01*
X178565137Y-109821451D01*
X178567430Y-109816811D01*
X178609971Y-109676793D01*
X178630865Y-109608023D01*
X178630865Y-109608021D01*
X178632370Y-109603069D01*
X178661529Y-109381590D01*
X178662380Y-109346759D01*
X178663074Y-109318365D01*
X178663074Y-109318361D01*
X178663156Y-109315000D01*
X178644852Y-109092361D01*
X178590431Y-108875702D01*
X178501354Y-108670840D01*
X178402348Y-108517800D01*
X178382822Y-108487617D01*
X178382820Y-108487614D01*
X178380014Y-108483277D01*
X178376532Y-108479450D01*
X178232798Y-108321488D01*
X178201746Y-108257642D01*
X178210141Y-108187143D01*
X178255317Y-108132375D01*
X178281761Y-108118706D01*
X178388297Y-108078767D01*
X178396705Y-108075615D01*
X178513261Y-107988261D01*
X178600615Y-107871705D01*
X178651745Y-107735316D01*
X178658500Y-107673134D01*
X178658500Y-105876866D01*
X178651745Y-105814684D01*
X178600615Y-105678295D01*
X178513261Y-105561739D01*
X178396705Y-105474385D01*
X178260316Y-105423255D01*
X178198134Y-105416500D01*
X176401866Y-105416500D01*
X176339684Y-105423255D01*
X176203295Y-105474385D01*
X176086739Y-105561739D01*
X175999385Y-105678295D01*
X175948255Y-105814684D01*
X175941500Y-105876866D01*
X175941500Y-107673134D01*
X175948255Y-107735316D01*
X175999385Y-107871705D01*
X176086739Y-107988261D01*
X176203295Y-108075615D01*
X176211704Y-108078767D01*
X176211705Y-108078768D01*
X176320451Y-108119535D01*
X176377216Y-108162176D01*
X176401916Y-108228738D01*
X176386709Y-108298087D01*
X176367316Y-108324568D01*
X176240629Y-108457138D01*
X176237715Y-108461410D01*
X176237714Y-108461411D01*
X176205156Y-108509140D01*
X176114743Y-108641680D01*
X176067716Y-108742992D01*
X176024838Y-108835365D01*
X176020688Y-108844305D01*
X175960989Y-109059570D01*
X175937251Y-109281695D01*
X175937548Y-109286848D01*
X175937548Y-109286851D01*
X175943011Y-109381590D01*
X175950110Y-109504715D01*
X175951247Y-109509761D01*
X175951248Y-109509767D01*
X175972256Y-109602984D01*
X175999222Y-109722639D01*
X176037461Y-109816811D01*
X176076186Y-109912179D01*
X176083266Y-109929616D01*
X176085965Y-109934020D01*
X176174666Y-110078767D01*
X176199987Y-110120088D01*
X176346250Y-110288938D01*
X176518126Y-110431632D01*
X176567608Y-110460547D01*
X176591445Y-110474476D01*
X176640169Y-110526114D01*
X176653240Y-110595897D01*
X176626509Y-110661669D01*
X176586055Y-110695027D01*
X176573607Y-110701507D01*
X176569474Y-110704610D01*
X176569471Y-110704612D01*
X176399100Y-110832530D01*
X176394965Y-110835635D01*
X176240629Y-110997138D01*
X176237715Y-111001410D01*
X176237714Y-111001411D01*
X176179096Y-111087342D01*
X176114743Y-111181680D01*
X176101051Y-111211178D01*
X176032770Y-111358277D01*
X176020688Y-111384305D01*
X175960989Y-111599570D01*
X175937251Y-111821695D01*
X161495897Y-111821695D01*
X161494080Y-111803167D01*
X161436916Y-111613831D01*
X161344066Y-111439204D01*
X161344588Y-111438927D01*
X161324801Y-111375151D01*
X161341230Y-111310993D01*
X161343216Y-111307498D01*
X161395427Y-111215590D01*
X161422723Y-111167542D01*
X161422725Y-111167537D01*
X161425769Y-111162179D01*
X161488197Y-110974513D01*
X161512985Y-110778295D01*
X161513380Y-110750000D01*
X161494080Y-110553167D01*
X161491415Y-110544338D01*
X161468270Y-110467679D01*
X161436916Y-110363831D01*
X161344066Y-110189204D01*
X161344588Y-110188927D01*
X161324801Y-110125151D01*
X161341230Y-110060993D01*
X161343216Y-110057498D01*
X161386627Y-109981081D01*
X161422723Y-109917542D01*
X161422725Y-109917537D01*
X161425769Y-109912179D01*
X161488197Y-109724513D01*
X161512985Y-109528295D01*
X161513380Y-109500000D01*
X161494080Y-109303167D01*
X161486048Y-109276562D01*
X161453290Y-109168065D01*
X161436916Y-109113831D01*
X161344066Y-108939204D01*
X161242325Y-108814457D01*
X161222960Y-108790713D01*
X161222957Y-108790710D01*
X161219065Y-108785938D01*
X161212724Y-108780692D01*
X161071425Y-108663799D01*
X161071421Y-108663797D01*
X161066675Y-108659870D01*
X160892701Y-108565802D01*
X160703768Y-108507318D01*
X160697643Y-108506674D01*
X160697642Y-108506674D01*
X160513204Y-108487289D01*
X160513202Y-108487289D01*
X160507075Y-108486645D01*
X160424960Y-108494118D01*
X160316251Y-108504011D01*
X160316248Y-108504012D01*
X160310112Y-108504570D01*
X160304206Y-108506308D01*
X160304202Y-108506309D01*
X160199076Y-108537249D01*
X160120381Y-108560410D01*
X160114923Y-108563263D01*
X160114919Y-108563265D01*
X159950566Y-108649187D01*
X159950561Y-108649190D01*
X159945110Y-108652040D01*
X159942831Y-108653872D01*
X159875950Y-108674113D01*
X159814979Y-108658953D01*
X159804983Y-108653548D01*
X159642701Y-108565802D01*
X159453768Y-108507318D01*
X159447643Y-108506674D01*
X159447642Y-108506674D01*
X159263204Y-108487289D01*
X159263202Y-108487289D01*
X159257075Y-108486645D01*
X159174960Y-108494118D01*
X159066251Y-108504011D01*
X159066248Y-108504012D01*
X159060112Y-108504570D01*
X159054206Y-108506308D01*
X159054202Y-108506309D01*
X158949076Y-108537249D01*
X158870381Y-108560410D01*
X158864923Y-108563263D01*
X158864919Y-108563265D01*
X158700566Y-108649187D01*
X158700561Y-108649190D01*
X158695110Y-108652040D01*
X158692831Y-108653872D01*
X158625950Y-108674113D01*
X158564979Y-108658953D01*
X158554983Y-108653548D01*
X158392701Y-108565802D01*
X158203768Y-108507318D01*
X158197643Y-108506674D01*
X158197642Y-108506674D01*
X158013204Y-108487289D01*
X158013202Y-108487289D01*
X158007075Y-108486645D01*
X157924960Y-108494118D01*
X157816251Y-108504011D01*
X157816248Y-108504012D01*
X157810112Y-108504570D01*
X157804206Y-108506308D01*
X157804202Y-108506309D01*
X157699076Y-108537249D01*
X157620381Y-108560410D01*
X157614923Y-108563263D01*
X157614919Y-108563265D01*
X157450566Y-108649187D01*
X157450561Y-108649190D01*
X157445110Y-108652040D01*
X157442831Y-108653872D01*
X157375950Y-108674113D01*
X157314979Y-108658953D01*
X157304983Y-108653548D01*
X157142701Y-108565802D01*
X156953768Y-108507318D01*
X156947643Y-108506674D01*
X156947642Y-108506674D01*
X156763204Y-108487289D01*
X156763202Y-108487289D01*
X156757075Y-108486645D01*
X156674960Y-108494118D01*
X156566251Y-108504011D01*
X156566248Y-108504012D01*
X156560112Y-108504570D01*
X156554206Y-108506308D01*
X156554202Y-108506309D01*
X156449076Y-108537249D01*
X156370381Y-108560410D01*
X156364923Y-108563263D01*
X156364919Y-108563265D01*
X156291793Y-108601495D01*
X156195110Y-108652040D01*
X156040975Y-108775968D01*
X155913846Y-108927474D01*
X155910879Y-108932872D01*
X155910875Y-108932877D01*
X155861582Y-109022542D01*
X155818567Y-109100787D01*
X155816706Y-109106654D01*
X155816705Y-109106656D01*
X155792239Y-109183784D01*
X155758765Y-109289306D01*
X155736719Y-109485851D01*
X155737235Y-109491995D01*
X155752525Y-109674080D01*
X155753268Y-109682934D01*
X155766460Y-109728941D01*
X155791657Y-109816811D01*
X155807783Y-109873050D01*
X155898187Y-110048956D01*
X155902014Y-110053784D01*
X155904407Y-110057498D01*
X155924495Y-110125593D01*
X155908910Y-110186452D01*
X155818567Y-110350787D01*
X155816706Y-110356654D01*
X155816705Y-110356656D01*
X155776338Y-110483909D01*
X155758765Y-110539306D01*
X155736719Y-110735851D01*
X155737235Y-110741995D01*
X155752333Y-110921797D01*
X155753268Y-110932934D01*
X155754967Y-110938858D01*
X155788155Y-111054598D01*
X155807783Y-111123050D01*
X155898187Y-111298956D01*
X155902014Y-111303784D01*
X155904407Y-111307498D01*
X155924495Y-111375593D01*
X155908910Y-111436452D01*
X155818567Y-111600787D01*
X155816706Y-111606654D01*
X155816705Y-111606656D01*
X155782460Y-111714610D01*
X155758765Y-111789306D01*
X155736719Y-111985851D01*
X153311372Y-111985851D01*
X153309852Y-111967361D01*
X153255431Y-111750702D01*
X153166354Y-111545840D01*
X153070953Y-111398372D01*
X153047822Y-111362617D01*
X153047820Y-111362614D01*
X153045014Y-111358277D01*
X152894670Y-111193051D01*
X152890619Y-111189852D01*
X152890615Y-111189848D01*
X152723414Y-111057800D01*
X152723410Y-111057798D01*
X152719359Y-111054598D01*
X152678053Y-111031796D01*
X152628084Y-110981364D01*
X152613312Y-110911921D01*
X152638428Y-110845516D01*
X152665780Y-110818909D01*
X152727659Y-110774771D01*
X152844860Y-110691173D01*
X152869628Y-110666492D01*
X152938001Y-110598357D01*
X153003096Y-110533489D01*
X153008396Y-110526114D01*
X153130435Y-110356277D01*
X153133453Y-110352077D01*
X153160137Y-110298087D01*
X153230136Y-110156453D01*
X153230137Y-110156451D01*
X153232430Y-110151811D01*
X153280486Y-109993642D01*
X153295865Y-109943023D01*
X153295865Y-109943021D01*
X153297370Y-109938069D01*
X153326529Y-109716590D01*
X153326941Y-109699736D01*
X153328074Y-109653365D01*
X153328074Y-109653361D01*
X153328156Y-109650000D01*
X153309852Y-109427361D01*
X153255431Y-109210702D01*
X153166354Y-109005840D01*
X153123245Y-108939204D01*
X153047822Y-108822617D01*
X153047820Y-108822614D01*
X153045014Y-108818277D01*
X152894670Y-108653051D01*
X152890619Y-108649852D01*
X152890615Y-108649848D01*
X152723414Y-108517800D01*
X152723410Y-108517798D01*
X152719359Y-108514598D01*
X152706172Y-108507318D01*
X152655688Y-108479450D01*
X152523789Y-108406638D01*
X152518920Y-108404914D01*
X152518916Y-108404912D01*
X152318087Y-108333795D01*
X152318083Y-108333794D01*
X152313212Y-108332069D01*
X152308119Y-108331162D01*
X152308116Y-108331161D01*
X152098373Y-108293800D01*
X152098367Y-108293799D01*
X152093284Y-108292894D01*
X152019452Y-108291992D01*
X151875081Y-108290228D01*
X151875079Y-108290228D01*
X151869911Y-108290165D01*
X151649091Y-108323955D01*
X151436756Y-108393357D01*
X151408306Y-108408167D01*
X151255685Y-108487617D01*
X151238607Y-108496507D01*
X151234474Y-108499610D01*
X151234471Y-108499612D01*
X151066335Y-108625852D01*
X151059965Y-108630635D01*
X151003537Y-108689684D01*
X150979283Y-108715064D01*
X150917759Y-108750494D01*
X150846846Y-108747037D01*
X150789060Y-108705791D01*
X150770207Y-108672243D01*
X150728767Y-108561703D01*
X150725615Y-108553295D01*
X150638261Y-108436739D01*
X150521705Y-108349385D01*
X150385316Y-108298255D01*
X150323134Y-108291500D01*
X148526866Y-108291500D01*
X148464684Y-108298255D01*
X148328295Y-108349385D01*
X148211739Y-108436739D01*
X148124385Y-108553295D01*
X148073255Y-108689684D01*
X148066500Y-108751866D01*
X148066500Y-110548134D01*
X148073255Y-110610316D01*
X148124385Y-110746705D01*
X148211739Y-110863261D01*
X148328295Y-110950615D01*
X148336704Y-110953767D01*
X148336705Y-110953768D01*
X148445451Y-110994535D01*
X148502216Y-111037176D01*
X148526916Y-111103738D01*
X148511709Y-111173087D01*
X148492316Y-111199568D01*
X148385212Y-111311646D01*
X148365629Y-111332138D01*
X148362720Y-111336403D01*
X148362714Y-111336411D01*
X148305202Y-111420720D01*
X148239743Y-111516680D01*
X148203206Y-111595392D01*
X148188818Y-111626390D01*
X148145688Y-111719305D01*
X148085989Y-111934570D01*
X148062251Y-112156695D01*
X148062548Y-112161848D01*
X148062548Y-112161851D01*
X148069651Y-112285031D01*
X148075110Y-112379715D01*
X148076247Y-112384761D01*
X148076248Y-112384767D01*
X148095370Y-112469616D01*
X148124222Y-112597639D01*
X148208266Y-112804616D01*
X148246492Y-112866995D01*
X148322291Y-112990688D01*
X148324987Y-112995088D01*
X148471250Y-113163938D01*
X148643126Y-113306632D01*
X148713595Y-113347811D01*
X148716445Y-113349476D01*
X148765169Y-113401114D01*
X148778240Y-113470897D01*
X148751509Y-113536669D01*
X148711055Y-113570027D01*
X148698607Y-113576507D01*
X148694474Y-113579610D01*
X148694471Y-113579612D01*
X148529943Y-113703143D01*
X148519965Y-113710635D01*
X148494894Y-113736870D01*
X148385212Y-113851646D01*
X148365629Y-113872138D01*
X148239743Y-114056680D01*
X148224003Y-114090590D01*
X148164940Y-114217831D01*
X148145688Y-114259305D01*
X148085989Y-114474570D01*
X148062251Y-114696695D01*
X126098228Y-114696695D01*
X126104064Y-114655689D01*
X126107146Y-114634036D01*
X126107146Y-114634034D01*
X126107751Y-114629784D01*
X126107831Y-114614684D01*
X126109235Y-114346583D01*
X126109235Y-114346576D01*
X126109257Y-114342297D01*
X126107627Y-114329912D01*
X126075494Y-114085840D01*
X126071732Y-114057266D01*
X126068299Y-114044715D01*
X126022256Y-113876411D01*
X125995871Y-113779964D01*
X125967894Y-113714373D01*
X125884763Y-113519476D01*
X125884761Y-113519472D01*
X125883077Y-113515524D01*
X125749625Y-113292542D01*
X125737643Y-113272521D01*
X125737640Y-113272517D01*
X125735439Y-113268839D01*
X125555687Y-113044472D01*
X125402572Y-112899171D01*
X125350258Y-112849527D01*
X125350255Y-112849525D01*
X125347149Y-112846577D01*
X125149585Y-112704612D01*
X125117172Y-112681321D01*
X125117171Y-112681320D01*
X125113683Y-112678814D01*
X125091843Y-112667250D01*
X125052396Y-112646364D01*
X124859608Y-112544288D01*
X124693202Y-112483392D01*
X124593658Y-112446964D01*
X124593656Y-112446963D01*
X124589627Y-112445489D01*
X124308736Y-112384245D01*
X124277685Y-112381801D01*
X124085718Y-112366693D01*
X124085709Y-112366693D01*
X124083261Y-112366500D01*
X123927729Y-112366500D01*
X123925593Y-112366646D01*
X123925582Y-112366646D01*
X123717452Y-112380835D01*
X123717446Y-112380836D01*
X123713175Y-112381127D01*
X123708980Y-112381996D01*
X123708978Y-112381996D01*
X123622711Y-112399861D01*
X123431658Y-112439426D01*
X123160657Y-112535393D01*
X123143423Y-112544288D01*
X123030785Y-112602425D01*
X122905188Y-112667250D01*
X122901687Y-112669711D01*
X122901683Y-112669713D01*
X122787582Y-112749905D01*
X122669977Y-112832559D01*
X122632920Y-112866995D01*
X122465155Y-113022892D01*
X122459378Y-113028260D01*
X122277287Y-113250732D01*
X122127073Y-113495858D01*
X122125347Y-113499791D01*
X122125346Y-113499792D01*
X122022953Y-113733051D01*
X122011517Y-113759102D01*
X122010342Y-113763229D01*
X122010341Y-113763230D01*
X121981425Y-113864740D01*
X121932756Y-114035594D01*
X121892249Y-114320216D01*
X121892227Y-114324505D01*
X121892226Y-114324512D01*
X121890765Y-114603417D01*
X121890743Y-114607703D01*
X120700000Y-114607703D01*
X120700000Y-111387728D01*
X139416719Y-111387728D01*
X139417235Y-111393872D01*
X139429996Y-111545840D01*
X139433268Y-111584811D01*
X139443281Y-111619731D01*
X139480837Y-111750702D01*
X139487783Y-111774927D01*
X139504885Y-111808203D01*
X139574538Y-111943732D01*
X139578187Y-111950833D01*
X139701035Y-112105830D01*
X139705728Y-112109824D01*
X139705729Y-112109825D01*
X139840488Y-112224513D01*
X139851650Y-112234013D01*
X140024294Y-112330501D01*
X140212392Y-112391617D01*
X140408777Y-112415035D01*
X140414912Y-112414563D01*
X140414914Y-112414563D01*
X140599830Y-112400334D01*
X140599834Y-112400333D01*
X140605972Y-112399861D01*
X140796463Y-112346675D01*
X140801967Y-112343895D01*
X140801969Y-112343894D01*
X140967495Y-112260281D01*
X140967497Y-112260280D01*
X140972996Y-112257502D01*
X141128847Y-112135738D01*
X141231272Y-112017077D01*
X141254049Y-111990690D01*
X141254050Y-111990688D01*
X141258078Y-111986022D01*
X141355769Y-111814056D01*
X141418197Y-111626390D01*
X141442985Y-111430172D01*
X141443380Y-111401877D01*
X141424080Y-111205044D01*
X141418444Y-111186375D01*
X141390059Y-111092361D01*
X141366916Y-111015708D01*
X141274066Y-110841081D01*
X141172953Y-110717104D01*
X141152960Y-110692590D01*
X141152957Y-110692587D01*
X141149065Y-110687815D01*
X141142724Y-110682569D01*
X141001425Y-110565676D01*
X141001421Y-110565674D01*
X140996675Y-110561747D01*
X140822701Y-110467679D01*
X140633768Y-110409195D01*
X140627643Y-110408551D01*
X140627642Y-110408551D01*
X140443204Y-110389166D01*
X140443202Y-110389166D01*
X140437075Y-110388522D01*
X140354576Y-110396030D01*
X140246251Y-110405888D01*
X140246248Y-110405889D01*
X140240112Y-110406447D01*
X140234206Y-110408185D01*
X140234202Y-110408186D01*
X140165769Y-110428327D01*
X140050381Y-110462287D01*
X140044923Y-110465140D01*
X140044919Y-110465142D01*
X140009022Y-110483909D01*
X139875110Y-110553917D01*
X139720975Y-110677845D01*
X139593846Y-110829351D01*
X139590879Y-110834749D01*
X139590875Y-110834754D01*
X139514043Y-110974513D01*
X139498567Y-111002664D01*
X139496706Y-111008531D01*
X139496705Y-111008533D01*
X139440627Y-111185313D01*
X139438765Y-111191183D01*
X139416719Y-111387728D01*
X120700000Y-111387728D01*
X120700000Y-105794072D01*
X121139171Y-105794072D01*
X121139468Y-105799225D01*
X121139468Y-105799228D01*
X121144788Y-105891493D01*
X121152030Y-106017092D01*
X121153167Y-106022138D01*
X121153168Y-106022144D01*
X121171535Y-106103640D01*
X121201142Y-106235016D01*
X121241266Y-106333830D01*
X121267960Y-106399569D01*
X121285186Y-106441993D01*
X121323706Y-106504852D01*
X121399211Y-106628065D01*
X121401907Y-106632465D01*
X121548170Y-106801315D01*
X121552150Y-106804619D01*
X121556901Y-106808564D01*
X121596536Y-106867467D01*
X121598033Y-106938448D01*
X121560917Y-106998970D01*
X121520645Y-107023489D01*
X121479833Y-107038789D01*
X121405215Y-107066762D01*
X121288659Y-107154116D01*
X121201305Y-107270672D01*
X121150175Y-107407061D01*
X121143420Y-107469243D01*
X121143420Y-109265511D01*
X121150175Y-109327693D01*
X121201305Y-109464082D01*
X121288659Y-109580638D01*
X121405215Y-109667992D01*
X121541604Y-109719122D01*
X121603786Y-109725877D01*
X123400054Y-109725877D01*
X123462236Y-109719122D01*
X123598625Y-109667992D01*
X123715181Y-109580638D01*
X123802535Y-109464082D01*
X123824719Y-109404906D01*
X123846518Y-109346759D01*
X123889160Y-109289995D01*
X123955722Y-109265295D01*
X124025070Y-109280503D01*
X124059737Y-109308491D01*
X124088170Y-109341315D01*
X124260046Y-109484009D01*
X124452920Y-109596715D01*
X124457745Y-109598557D01*
X124457746Y-109598558D01*
X124507164Y-109617429D01*
X124661612Y-109676407D01*
X124666680Y-109677438D01*
X124666683Y-109677439D01*
X124722810Y-109688858D01*
X124880517Y-109720944D01*
X124885692Y-109721134D01*
X124885694Y-109721134D01*
X125098593Y-109728941D01*
X125098597Y-109728941D01*
X125103757Y-109729130D01*
X125108877Y-109728474D01*
X125108879Y-109728474D01*
X125320208Y-109701402D01*
X125320209Y-109701402D01*
X125325336Y-109700745D01*
X125330286Y-109699260D01*
X125534349Y-109638038D01*
X125534354Y-109638036D01*
X125539304Y-109636551D01*
X125739914Y-109538273D01*
X125921780Y-109408550D01*
X125948835Y-109381590D01*
X126022188Y-109308492D01*
X126080016Y-109250866D01*
X126210373Y-109069454D01*
X126211696Y-109070405D01*
X126258565Y-109027234D01*
X126328500Y-109015002D01*
X126393946Y-109042521D01*
X126421795Y-109074371D01*
X126481907Y-109172465D01*
X126628170Y-109341315D01*
X126800046Y-109484009D01*
X126992920Y-109596715D01*
X126997745Y-109598557D01*
X126997746Y-109598558D01*
X127047164Y-109617429D01*
X127201612Y-109676407D01*
X127206680Y-109677438D01*
X127206683Y-109677439D01*
X127262810Y-109688858D01*
X127420517Y-109720944D01*
X127425692Y-109721134D01*
X127425694Y-109721134D01*
X127638593Y-109728941D01*
X127638597Y-109728941D01*
X127643757Y-109729130D01*
X127648877Y-109728474D01*
X127648879Y-109728474D01*
X127860208Y-109701402D01*
X127860209Y-109701402D01*
X127865336Y-109700745D01*
X127870286Y-109699260D01*
X128074349Y-109638038D01*
X128074354Y-109638036D01*
X128079304Y-109636551D01*
X128279914Y-109538273D01*
X128461780Y-109408550D01*
X128488835Y-109381590D01*
X128562188Y-109308492D01*
X128620016Y-109250866D01*
X128750373Y-109069454D01*
X128751696Y-109070405D01*
X128798565Y-109027234D01*
X128868500Y-109015002D01*
X128933946Y-109042521D01*
X128961795Y-109074371D01*
X129021907Y-109172465D01*
X129168170Y-109341315D01*
X129340046Y-109484009D01*
X129532920Y-109596715D01*
X129537745Y-109598557D01*
X129537746Y-109598558D01*
X129587164Y-109617429D01*
X129741612Y-109676407D01*
X129746680Y-109677438D01*
X129746683Y-109677439D01*
X129802810Y-109688858D01*
X129960517Y-109720944D01*
X129965692Y-109721134D01*
X129965694Y-109721134D01*
X130178593Y-109728941D01*
X130178597Y-109728941D01*
X130183757Y-109729130D01*
X130188877Y-109728474D01*
X130188879Y-109728474D01*
X130400208Y-109701402D01*
X130400209Y-109701402D01*
X130405336Y-109700745D01*
X130410286Y-109699260D01*
X130614349Y-109638038D01*
X130614354Y-109638036D01*
X130619304Y-109636551D01*
X130819914Y-109538273D01*
X131001780Y-109408550D01*
X131028835Y-109381590D01*
X131102188Y-109308492D01*
X131160016Y-109250866D01*
X131290373Y-109069454D01*
X131291560Y-109070307D01*
X131338880Y-109026739D01*
X131408817Y-109014522D01*
X131474258Y-109042055D01*
X131502086Y-109073888D01*
X131559614Y-109167765D01*
X131565697Y-109176076D01*
X131705133Y-109337044D01*
X131712500Y-109344260D01*
X131876354Y-109480293D01*
X131884801Y-109486208D01*
X132068676Y-109593656D01*
X132077962Y-109598106D01*
X132276921Y-109674080D01*
X132286819Y-109676956D01*
X132390170Y-109697983D01*
X132404219Y-109696787D01*
X132407920Y-109686442D01*
X132407920Y-109685894D01*
X132915920Y-109685894D01*
X132919984Y-109699736D01*
X132933398Y-109701770D01*
X132940104Y-109700911D01*
X132950182Y-109698769D01*
X133154175Y-109637568D01*
X133163762Y-109633810D01*
X133355015Y-109540116D01*
X133363865Y-109534841D01*
X133537248Y-109411169D01*
X133545120Y-109404516D01*
X133695972Y-109254189D01*
X133702650Y-109246342D01*
X133826923Y-109073397D01*
X133832233Y-109064560D01*
X133926590Y-108873644D01*
X133930389Y-108864049D01*
X133992297Y-108660287D01*
X133994475Y-108650214D01*
X133995906Y-108639339D01*
X133993695Y-108625155D01*
X133980537Y-108621377D01*
X132934035Y-108621377D01*
X132918796Y-108625852D01*
X132917591Y-108627242D01*
X132915920Y-108634925D01*
X132915920Y-109685894D01*
X132407920Y-109685894D01*
X132407920Y-108590851D01*
X140836719Y-108590851D01*
X140839658Y-108625852D01*
X140851939Y-108772104D01*
X140853268Y-108787934D01*
X140861969Y-108818277D01*
X140905811Y-108971172D01*
X140907783Y-108978050D01*
X140998187Y-109153956D01*
X141121035Y-109308953D01*
X141125728Y-109312947D01*
X141125729Y-109312948D01*
X141266229Y-109432522D01*
X141271650Y-109437136D01*
X141444294Y-109533624D01*
X141632392Y-109594740D01*
X141828777Y-109618158D01*
X141834912Y-109617686D01*
X141834914Y-109617686D01*
X142019830Y-109603457D01*
X142019834Y-109603456D01*
X142025972Y-109602984D01*
X142216463Y-109549798D01*
X142221967Y-109547018D01*
X142221969Y-109547017D01*
X142387495Y-109463404D01*
X142387497Y-109463403D01*
X142392996Y-109460625D01*
X142548847Y-109338861D01*
X142678078Y-109189145D01*
X142775769Y-109017179D01*
X142838197Y-108829513D01*
X142862985Y-108633295D01*
X142863380Y-108605000D01*
X142844080Y-108408167D01*
X142839124Y-108391750D01*
X142811733Y-108301029D01*
X142786916Y-108218831D01*
X142694066Y-108044204D01*
X142595623Y-107923501D01*
X142572960Y-107895713D01*
X142572957Y-107895710D01*
X142569065Y-107890938D01*
X142562724Y-107885692D01*
X142421425Y-107768799D01*
X142421421Y-107768797D01*
X142416675Y-107764870D01*
X142242701Y-107670802D01*
X142053768Y-107612318D01*
X142047643Y-107611674D01*
X142047642Y-107611674D01*
X141863204Y-107592289D01*
X141863202Y-107592289D01*
X141857075Y-107591645D01*
X141780960Y-107598572D01*
X141666251Y-107609011D01*
X141666248Y-107609012D01*
X141660112Y-107609570D01*
X141654206Y-107611308D01*
X141654202Y-107611309D01*
X141598748Y-107627630D01*
X141470381Y-107665410D01*
X141464923Y-107668263D01*
X141464919Y-107668265D01*
X141400904Y-107701732D01*
X141295110Y-107757040D01*
X141140975Y-107880968D01*
X141013846Y-108032474D01*
X141010879Y-108037872D01*
X141010875Y-108037877D01*
X140969369Y-108113377D01*
X140918567Y-108205787D01*
X140916706Y-108211654D01*
X140916705Y-108211656D01*
X140881864Y-108321488D01*
X140858765Y-108394306D01*
X140836719Y-108590851D01*
X132407920Y-108590851D01*
X132407920Y-108239377D01*
X132427922Y-108171256D01*
X132481578Y-108124763D01*
X132533920Y-108113377D01*
X133980264Y-108113377D01*
X133993795Y-108109404D01*
X133995100Y-108100324D01*
X133953134Y-107933252D01*
X133949814Y-107923501D01*
X133864892Y-107728191D01*
X133860025Y-107719116D01*
X133761709Y-107567142D01*
X135138570Y-107567142D01*
X135155614Y-107740963D01*
X135157838Y-107747648D01*
X135157838Y-107747649D01*
X135163921Y-107765935D01*
X135210744Y-107906690D01*
X135214391Y-107912712D01*
X135214392Y-107912714D01*
X135291133Y-108039428D01*
X135301220Y-108056084D01*
X135422545Y-108181720D01*
X135468292Y-108211656D01*
X135545720Y-108262323D01*
X135568691Y-108277355D01*
X135575295Y-108279811D01*
X135575297Y-108279812D01*
X135624889Y-108298255D01*
X135732392Y-108338235D01*
X135739377Y-108339167D01*
X135898532Y-108360403D01*
X135898536Y-108360403D01*
X135905513Y-108361334D01*
X135912524Y-108360696D01*
X135912528Y-108360696D01*
X136072432Y-108346144D01*
X136072435Y-108346143D01*
X136079450Y-108345505D01*
X136115489Y-108333795D01*
X136238861Y-108293709D01*
X136238863Y-108293708D01*
X136245557Y-108291533D01*
X136280151Y-108270911D01*
X136389527Y-108205710D01*
X136389529Y-108205709D01*
X136395579Y-108202102D01*
X136522059Y-108081657D01*
X136618712Y-107936182D01*
X136680733Y-107772910D01*
X136699993Y-107635874D01*
X136704490Y-107603877D01*
X136704490Y-107603874D01*
X136705041Y-107599955D01*
X136705346Y-107578080D01*
X136685877Y-107404513D01*
X136628439Y-107239573D01*
X136535886Y-107091457D01*
X136527421Y-107082932D01*
X136487230Y-107042460D01*
X136458314Y-106989062D01*
X143716650Y-106989062D01*
X143733694Y-107162883D01*
X143735918Y-107169568D01*
X143735918Y-107169569D01*
X143739702Y-107180944D01*
X143788824Y-107328610D01*
X143792471Y-107334632D01*
X143792472Y-107334634D01*
X143873885Y-107469062D01*
X143879300Y-107478004D01*
X144000625Y-107603640D01*
X144016671Y-107614140D01*
X144131635Y-107689370D01*
X144146771Y-107699275D01*
X144153375Y-107701731D01*
X144153377Y-107701732D01*
X144211149Y-107723217D01*
X144310472Y-107760155D01*
X144317457Y-107761087D01*
X144476612Y-107782323D01*
X144476616Y-107782323D01*
X144483593Y-107783254D01*
X144490604Y-107782616D01*
X144490608Y-107782616D01*
X144650512Y-107768064D01*
X144650515Y-107768063D01*
X144657530Y-107767425D01*
X144687466Y-107757698D01*
X144816941Y-107715629D01*
X144816943Y-107715628D01*
X144823637Y-107713453D01*
X144899441Y-107668265D01*
X144967607Y-107627630D01*
X144967609Y-107627629D01*
X144973659Y-107624022D01*
X145100139Y-107503577D01*
X145185820Y-107374617D01*
X145192891Y-107363974D01*
X145192892Y-107363972D01*
X145196792Y-107358102D01*
X145258813Y-107194830D01*
X145277255Y-107063610D01*
X145282570Y-107025797D01*
X145282570Y-107025794D01*
X145283121Y-107021875D01*
X145283426Y-107000000D01*
X145263957Y-106826433D01*
X145257735Y-106808564D01*
X145217161Y-106692054D01*
X145206519Y-106661493D01*
X145133352Y-106544401D01*
X145117699Y-106519351D01*
X145113966Y-106513377D01*
X145105501Y-106504852D01*
X145019109Y-106417855D01*
X144990898Y-106389446D01*
X144980193Y-106382652D01*
X144894200Y-106328080D01*
X144843431Y-106295861D01*
X144765368Y-106268064D01*
X144685531Y-106239635D01*
X144685526Y-106239634D01*
X144678896Y-106237273D01*
X144671908Y-106236440D01*
X144671905Y-106236439D01*
X144554334Y-106222420D01*
X144505469Y-106216593D01*
X144498467Y-106217329D01*
X144498465Y-106217329D01*
X144338771Y-106234114D01*
X144338769Y-106234114D01*
X144331771Y-106234850D01*
X144166433Y-106291135D01*
X144112781Y-106324142D01*
X144023677Y-106378959D01*
X144023674Y-106378961D01*
X144017675Y-106382652D01*
X143892888Y-106504852D01*
X143889069Y-106510777D01*
X143889068Y-106510779D01*
X143877033Y-106529454D01*
X143798276Y-106651661D01*
X143795867Y-106658281D01*
X143795865Y-106658284D01*
X143742007Y-106806258D01*
X143738540Y-106815784D01*
X143716650Y-106989062D01*
X136458314Y-106989062D01*
X136453423Y-106980029D01*
X136458735Y-106909232D01*
X136489744Y-106862430D01*
X136522059Y-106831657D01*
X136618712Y-106686182D01*
X136680733Y-106522910D01*
X136698068Y-106399569D01*
X136704490Y-106353877D01*
X136704490Y-106353874D01*
X136705041Y-106349955D01*
X136705346Y-106328080D01*
X136685877Y-106154513D01*
X136672273Y-106115446D01*
X136630757Y-105996230D01*
X136628439Y-105989573D01*
X136535886Y-105841457D01*
X136527421Y-105832932D01*
X136417780Y-105722523D01*
X136412818Y-105717526D01*
X136402113Y-105710732D01*
X136339676Y-105671109D01*
X136265351Y-105623941D01*
X136225916Y-105609899D01*
X136107451Y-105567715D01*
X136107446Y-105567714D01*
X136100816Y-105565353D01*
X136093828Y-105564520D01*
X136093825Y-105564519D01*
X135976254Y-105550500D01*
X135927389Y-105544673D01*
X135920387Y-105545409D01*
X135920385Y-105545409D01*
X135760691Y-105562194D01*
X135760689Y-105562194D01*
X135753691Y-105562930D01*
X135618480Y-105608959D01*
X135598764Y-105615671D01*
X135588353Y-105619215D01*
X135533145Y-105653179D01*
X135445597Y-105707039D01*
X135445594Y-105707041D01*
X135439595Y-105710732D01*
X135314808Y-105832932D01*
X135310989Y-105838857D01*
X135310988Y-105838859D01*
X135273335Y-105897285D01*
X135220196Y-105979741D01*
X135217787Y-105986361D01*
X135217785Y-105986364D01*
X135189735Y-106063432D01*
X135160460Y-106143864D01*
X135138570Y-106317142D01*
X135155614Y-106490963D01*
X135157838Y-106497648D01*
X135157838Y-106497649D01*
X135159459Y-106502521D01*
X135210744Y-106656690D01*
X135214391Y-106662712D01*
X135214392Y-106662714D01*
X135295966Y-106797408D01*
X135301220Y-106806084D01*
X135306110Y-106811148D01*
X135306111Y-106811149D01*
X135358313Y-106865206D01*
X135391245Y-106928103D01*
X135384945Y-106998820D01*
X135355834Y-107042756D01*
X135341580Y-107056715D01*
X135314808Y-107082932D01*
X135310989Y-107088857D01*
X135310988Y-107088859D01*
X135233242Y-107209497D01*
X135220196Y-107229741D01*
X135217787Y-107236361D01*
X135217785Y-107236364D01*
X135182018Y-107334634D01*
X135160460Y-107393864D01*
X135138570Y-107567142D01*
X133761709Y-107567142D01*
X133744346Y-107540303D01*
X133738056Y-107532134D01*
X133594726Y-107374617D01*
X133587193Y-107367592D01*
X133420059Y-107235599D01*
X133411476Y-107229897D01*
X133374522Y-107209497D01*
X133324551Y-107159064D01*
X133309779Y-107089622D01*
X133334895Y-107023216D01*
X133362247Y-106996609D01*
X133412545Y-106960732D01*
X133541780Y-106868550D01*
X133547922Y-106862430D01*
X133696355Y-106714514D01*
X133700016Y-106710866D01*
X133706401Y-106701981D01*
X133827355Y-106533654D01*
X133830373Y-106529454D01*
X133833608Y-106522910D01*
X133927056Y-106333830D01*
X133927057Y-106333828D01*
X133929350Y-106329188D01*
X133980294Y-106161512D01*
X133992785Y-106120400D01*
X133992785Y-106120398D01*
X133994290Y-106115446D01*
X134023449Y-105893967D01*
X134023588Y-105888284D01*
X134024994Y-105830742D01*
X134024994Y-105830738D01*
X134025076Y-105827377D01*
X134006772Y-105604738D01*
X133977716Y-105489062D01*
X160466650Y-105489062D01*
X160483694Y-105662883D01*
X160485918Y-105669568D01*
X160485918Y-105669569D01*
X160501251Y-105715661D01*
X160538824Y-105828610D01*
X160542471Y-105834632D01*
X160542472Y-105834634D01*
X160578406Y-105893967D01*
X160629300Y-105978004D01*
X160750625Y-106103640D01*
X160896771Y-106199275D01*
X160903375Y-106201731D01*
X160903377Y-106201732D01*
X160968799Y-106226062D01*
X161060472Y-106260155D01*
X161067457Y-106261087D01*
X161226612Y-106282323D01*
X161226616Y-106282323D01*
X161233593Y-106283254D01*
X161240604Y-106282616D01*
X161240608Y-106282616D01*
X161400512Y-106268064D01*
X161400515Y-106268063D01*
X161407530Y-106267425D01*
X161443317Y-106255797D01*
X161566941Y-106215629D01*
X161566943Y-106215628D01*
X161573637Y-106213453D01*
X161690374Y-106143864D01*
X161717607Y-106127630D01*
X161717609Y-106127629D01*
X161723659Y-106124022D01*
X161787584Y-106063147D01*
X161850709Y-106030655D01*
X161921380Y-106037448D01*
X161965113Y-106066866D01*
X162000625Y-106103640D01*
X162146771Y-106199275D01*
X162153375Y-106201731D01*
X162153377Y-106201732D01*
X162218799Y-106226062D01*
X162310472Y-106260155D01*
X162317457Y-106261087D01*
X162476612Y-106282323D01*
X162476616Y-106282323D01*
X162483593Y-106283254D01*
X162490604Y-106282616D01*
X162490608Y-106282616D01*
X162650512Y-106268064D01*
X162650515Y-106268063D01*
X162657530Y-106267425D01*
X162693317Y-106255797D01*
X162816941Y-106215629D01*
X162816943Y-106215628D01*
X162823637Y-106213453D01*
X162940374Y-106143864D01*
X162967607Y-106127630D01*
X162967609Y-106127629D01*
X162973659Y-106124022D01*
X163037584Y-106063147D01*
X163100709Y-106030655D01*
X163171380Y-106037448D01*
X163215113Y-106066866D01*
X163250625Y-106103640D01*
X163396771Y-106199275D01*
X163403375Y-106201731D01*
X163403377Y-106201732D01*
X163468799Y-106226062D01*
X163560472Y-106260155D01*
X163567457Y-106261087D01*
X163726612Y-106282323D01*
X163726616Y-106282323D01*
X163733593Y-106283254D01*
X163740604Y-106282616D01*
X163740608Y-106282616D01*
X163900512Y-106268064D01*
X163900515Y-106268063D01*
X163907530Y-106267425D01*
X163943317Y-106255797D01*
X164056375Y-106219062D01*
X172266650Y-106219062D01*
X172283694Y-106392883D01*
X172338824Y-106558610D01*
X172342471Y-106564632D01*
X172342472Y-106564634D01*
X172405164Y-106668150D01*
X172429300Y-106708004D01*
X172434189Y-106713067D01*
X172434190Y-106713068D01*
X172456208Y-106735868D01*
X172478988Y-106759457D01*
X172491254Y-106772159D01*
X172524186Y-106835055D01*
X172517886Y-106905772D01*
X172488774Y-106949710D01*
X172452888Y-106984852D01*
X172449069Y-106990777D01*
X172449068Y-106990779D01*
X172362095Y-107125735D01*
X172358276Y-107131661D01*
X172355867Y-107138281D01*
X172355865Y-107138284D01*
X172307680Y-107270672D01*
X172298540Y-107295784D01*
X172276650Y-107469062D01*
X172293694Y-107642883D01*
X172295918Y-107649568D01*
X172295918Y-107649569D01*
X172303757Y-107673134D01*
X172348824Y-107808610D01*
X172352471Y-107814632D01*
X172352472Y-107814634D01*
X172424310Y-107933252D01*
X172439300Y-107958004D01*
X172560625Y-108083640D01*
X172623468Y-108124763D01*
X172694517Y-108171256D01*
X172706771Y-108179275D01*
X172713375Y-108181731D01*
X172713377Y-108181732D01*
X172723719Y-108185578D01*
X172870472Y-108240155D01*
X172877457Y-108241087D01*
X173036612Y-108262323D01*
X173036616Y-108262323D01*
X173043593Y-108263254D01*
X173050604Y-108262616D01*
X173050608Y-108262616D01*
X173210512Y-108248064D01*
X173210515Y-108248063D01*
X173217530Y-108247425D01*
X173275042Y-108228738D01*
X173376941Y-108195629D01*
X173376943Y-108195628D01*
X173383637Y-108193453D01*
X173484209Y-108133500D01*
X173527607Y-108107630D01*
X173527609Y-108107629D01*
X173533659Y-108104022D01*
X173660139Y-107983577D01*
X173756792Y-107838102D01*
X173818813Y-107674830D01*
X173838868Y-107532134D01*
X173842570Y-107505797D01*
X173842570Y-107505794D01*
X173843121Y-107501875D01*
X173843426Y-107480000D01*
X173842220Y-107469243D01*
X173824742Y-107313432D01*
X173823957Y-107306433D01*
X173766519Y-107141493D01*
X173692062Y-107022337D01*
X173677699Y-106999351D01*
X173673966Y-106993377D01*
X173667784Y-106987151D01*
X173632978Y-106952102D01*
X173620450Y-106939485D01*
X173586643Y-106877055D01*
X173591955Y-106806258D01*
X173622963Y-106759457D01*
X173645036Y-106738437D01*
X173645038Y-106738435D01*
X173650139Y-106733577D01*
X173746792Y-106588102D01*
X173808813Y-106424830D01*
X173828711Y-106283254D01*
X173832570Y-106255797D01*
X173832570Y-106255794D01*
X173833121Y-106251875D01*
X173833356Y-106235016D01*
X173833371Y-106233963D01*
X173833371Y-106233959D01*
X173833426Y-106230000D01*
X173813957Y-106056433D01*
X173756519Y-105891493D01*
X173663966Y-105743377D01*
X173655501Y-105734852D01*
X173590672Y-105669569D01*
X173540898Y-105619446D01*
X173530193Y-105612652D01*
X173461280Y-105568919D01*
X173393431Y-105525861D01*
X173320805Y-105500000D01*
X173235531Y-105469635D01*
X173235526Y-105469634D01*
X173228896Y-105467273D01*
X173221908Y-105466440D01*
X173221905Y-105466439D01*
X173104334Y-105452420D01*
X173055469Y-105446593D01*
X173048467Y-105447329D01*
X173048465Y-105447329D01*
X172888771Y-105464114D01*
X172888769Y-105464114D01*
X172881771Y-105464850D01*
X172716433Y-105521135D01*
X172676817Y-105545507D01*
X172573677Y-105608959D01*
X172573674Y-105608961D01*
X172567675Y-105612652D01*
X172442888Y-105734852D01*
X172439069Y-105740777D01*
X172439068Y-105740779D01*
X172353555Y-105873469D01*
X172348276Y-105881661D01*
X172345867Y-105888281D01*
X172345865Y-105888284D01*
X172291574Y-106037448D01*
X172288540Y-106045784D01*
X172266650Y-106219062D01*
X164056375Y-106219062D01*
X164066941Y-106215629D01*
X164066943Y-106215628D01*
X164073637Y-106213453D01*
X164190374Y-106143864D01*
X164217607Y-106127630D01*
X164217609Y-106127629D01*
X164223659Y-106124022D01*
X164350139Y-106003577D01*
X164420759Y-105897285D01*
X164442891Y-105863974D01*
X164442892Y-105863972D01*
X164446792Y-105858102D01*
X164508813Y-105694830D01*
X164529800Y-105545507D01*
X164532570Y-105525797D01*
X164532570Y-105525794D01*
X164533121Y-105521875D01*
X164533426Y-105500000D01*
X164513957Y-105326433D01*
X164456519Y-105161493D01*
X164363966Y-105013377D01*
X164355501Y-105004852D01*
X164315310Y-104964380D01*
X164281503Y-104901949D01*
X164286815Y-104831152D01*
X164317824Y-104784350D01*
X164350139Y-104753577D01*
X164446792Y-104608102D01*
X164508813Y-104444830D01*
X164533121Y-104271875D01*
X164533426Y-104250000D01*
X164513957Y-104076433D01*
X164456519Y-103911493D01*
X164363966Y-103763377D01*
X164355501Y-103754852D01*
X164245860Y-103644443D01*
X164240898Y-103639446D01*
X164230193Y-103632652D01*
X164146252Y-103579382D01*
X164093431Y-103545861D01*
X164028157Y-103522618D01*
X163959399Y-103498134D01*
X179966500Y-103498134D01*
X179973255Y-103560316D01*
X180024385Y-103696705D01*
X180111739Y-103813261D01*
X180228295Y-103900615D01*
X180364684Y-103951745D01*
X180426866Y-103958500D01*
X182223134Y-103958500D01*
X182285316Y-103951745D01*
X182421705Y-103900615D01*
X182538261Y-103813261D01*
X182625615Y-103696705D01*
X182646433Y-103641173D01*
X182669598Y-103579382D01*
X182712240Y-103522618D01*
X182778802Y-103497918D01*
X182848150Y-103513126D01*
X182882817Y-103541114D01*
X182911250Y-103573938D01*
X183083126Y-103716632D01*
X183276000Y-103829338D01*
X183484692Y-103909030D01*
X183489760Y-103910061D01*
X183489763Y-103910062D01*
X183597017Y-103931883D01*
X183703597Y-103953567D01*
X183708772Y-103953757D01*
X183708774Y-103953757D01*
X183921673Y-103961564D01*
X183921677Y-103961564D01*
X183926837Y-103961753D01*
X183931957Y-103961097D01*
X183931959Y-103961097D01*
X184143288Y-103934025D01*
X184143289Y-103934025D01*
X184148416Y-103933368D01*
X184221329Y-103911493D01*
X184357429Y-103870661D01*
X184357434Y-103870659D01*
X184362384Y-103869174D01*
X184562994Y-103770896D01*
X184744860Y-103641173D01*
X184903096Y-103483489D01*
X185033453Y-103302077D01*
X185034776Y-103303028D01*
X185081645Y-103259857D01*
X185151580Y-103247625D01*
X185217026Y-103275144D01*
X185244875Y-103306994D01*
X185304987Y-103405088D01*
X185451250Y-103573938D01*
X185623126Y-103716632D01*
X185816000Y-103829338D01*
X186024692Y-103909030D01*
X186029760Y-103910061D01*
X186029763Y-103910062D01*
X186137017Y-103931883D01*
X186243597Y-103953567D01*
X186248772Y-103953757D01*
X186248774Y-103953757D01*
X186461673Y-103961564D01*
X186461677Y-103961564D01*
X186466837Y-103961753D01*
X186471957Y-103961097D01*
X186471959Y-103961097D01*
X186683288Y-103934025D01*
X186683289Y-103934025D01*
X186688416Y-103933368D01*
X186761329Y-103911493D01*
X186897429Y-103870661D01*
X186897434Y-103870659D01*
X186902384Y-103869174D01*
X187102994Y-103770896D01*
X187284860Y-103641173D01*
X187443096Y-103483489D01*
X187573453Y-103302077D01*
X187593712Y-103261087D01*
X187670136Y-103106453D01*
X187670137Y-103106451D01*
X187672430Y-103101811D01*
X187737370Y-102888069D01*
X187766529Y-102666590D01*
X187768156Y-102600000D01*
X187749852Y-102377361D01*
X187695431Y-102160702D01*
X187606354Y-101955840D01*
X187502859Y-101795861D01*
X187487822Y-101772617D01*
X187487820Y-101772614D01*
X187485014Y-101768277D01*
X187334670Y-101603051D01*
X187330619Y-101599852D01*
X187330615Y-101599848D01*
X187163414Y-101467800D01*
X187163410Y-101467798D01*
X187159359Y-101464598D01*
X187121673Y-101443794D01*
X187107135Y-101435769D01*
X186963789Y-101356638D01*
X186958920Y-101354914D01*
X186958916Y-101354912D01*
X186758087Y-101283795D01*
X186758083Y-101283794D01*
X186753212Y-101282069D01*
X186748119Y-101281162D01*
X186748116Y-101281161D01*
X186656842Y-101264903D01*
X186593285Y-101233265D01*
X186556921Y-101172288D01*
X186559298Y-101101331D01*
X186599659Y-101042923D01*
X186652677Y-101017867D01*
X186657530Y-101017425D01*
X186718009Y-100997774D01*
X186816941Y-100965629D01*
X186816943Y-100965628D01*
X186823637Y-100963453D01*
X186973659Y-100874022D01*
X187037584Y-100813147D01*
X187100709Y-100780655D01*
X187171380Y-100787448D01*
X187215113Y-100816866D01*
X187250625Y-100853640D01*
X187396771Y-100949275D01*
X187403375Y-100951731D01*
X187403377Y-100951732D01*
X187469751Y-100976416D01*
X187560472Y-101010155D01*
X187567457Y-101011087D01*
X187726612Y-101032323D01*
X187726616Y-101032323D01*
X187733593Y-101033254D01*
X187740604Y-101032616D01*
X187740608Y-101032616D01*
X187900512Y-101018064D01*
X187900515Y-101018063D01*
X187907530Y-101017425D01*
X187968009Y-100997774D01*
X188066941Y-100965629D01*
X188066943Y-100965628D01*
X188073637Y-100963453D01*
X188223659Y-100874022D01*
X188350139Y-100753577D01*
X188446792Y-100608102D01*
X188508813Y-100444830D01*
X188531167Y-100285779D01*
X188532570Y-100275797D01*
X188532570Y-100275794D01*
X188533121Y-100271875D01*
X188533426Y-100250000D01*
X188513957Y-100076433D01*
X188456519Y-99911493D01*
X188363966Y-99763377D01*
X188355501Y-99754852D01*
X188315310Y-99714380D01*
X188281503Y-99651949D01*
X188286815Y-99581152D01*
X188317824Y-99534350D01*
X188339768Y-99513453D01*
X188350139Y-99503577D01*
X188413351Y-99408435D01*
X188442891Y-99363974D01*
X188442892Y-99363972D01*
X188446792Y-99358102D01*
X188508813Y-99194830D01*
X188533121Y-99021875D01*
X188533426Y-99000000D01*
X188513957Y-98826433D01*
X188510991Y-98817914D01*
X188458837Y-98668150D01*
X188456519Y-98661493D01*
X188363966Y-98513377D01*
X188355501Y-98504852D01*
X188245860Y-98394443D01*
X188240898Y-98389446D01*
X188230193Y-98382652D01*
X188183590Y-98353077D01*
X188093431Y-98295861D01*
X188034310Y-98274809D01*
X187935531Y-98239635D01*
X187935526Y-98239634D01*
X187928896Y-98237273D01*
X187921908Y-98236440D01*
X187921905Y-98236439D01*
X187804334Y-98222420D01*
X187755469Y-98216593D01*
X187748467Y-98217329D01*
X187748465Y-98217329D01*
X187588771Y-98234114D01*
X187588769Y-98234114D01*
X187581771Y-98234850D01*
X187416433Y-98291135D01*
X187370569Y-98319351D01*
X187273677Y-98378959D01*
X187273674Y-98378961D01*
X187267675Y-98382652D01*
X187253908Y-98396134D01*
X187213330Y-98435870D01*
X187150665Y-98469240D01*
X187079906Y-98463434D01*
X187035766Y-98434629D01*
X186995860Y-98394443D01*
X186990898Y-98389446D01*
X186980193Y-98382652D01*
X186933590Y-98353077D01*
X186843431Y-98295861D01*
X186784310Y-98274809D01*
X186685531Y-98239635D01*
X186685526Y-98239634D01*
X186678896Y-98237273D01*
X186671908Y-98236440D01*
X186671905Y-98236439D01*
X186554334Y-98222420D01*
X186505469Y-98216593D01*
X186498467Y-98217329D01*
X186498465Y-98217329D01*
X186338771Y-98234114D01*
X186338769Y-98234114D01*
X186331771Y-98234850D01*
X186166433Y-98291135D01*
X186120569Y-98319351D01*
X186023677Y-98378959D01*
X186023674Y-98378961D01*
X186017675Y-98382652D01*
X185892888Y-98504852D01*
X185889069Y-98510777D01*
X185889068Y-98510779D01*
X185816892Y-98622774D01*
X185798276Y-98651661D01*
X185795867Y-98658281D01*
X185795865Y-98658284D01*
X185740949Y-98809165D01*
X185738540Y-98815784D01*
X185716650Y-98989062D01*
X185733694Y-99162883D01*
X185788824Y-99328610D01*
X185792471Y-99334632D01*
X185792472Y-99334634D01*
X185834264Y-99403640D01*
X185879300Y-99478004D01*
X185884190Y-99483068D01*
X185884191Y-99483069D01*
X185936393Y-99537126D01*
X185969325Y-99600023D01*
X185963025Y-99670740D01*
X185933914Y-99714676D01*
X185897925Y-99749919D01*
X185892888Y-99754852D01*
X185889069Y-99760777D01*
X185889068Y-99760779D01*
X185807246Y-99887742D01*
X185798276Y-99901661D01*
X185795867Y-99908281D01*
X185795865Y-99908284D01*
X185748632Y-100038056D01*
X185738540Y-100065784D01*
X185716650Y-100239062D01*
X185733694Y-100412883D01*
X185735918Y-100419568D01*
X185735918Y-100419569D01*
X185741548Y-100436493D01*
X185788824Y-100578610D01*
X185792471Y-100584632D01*
X185792472Y-100584634D01*
X185853728Y-100685779D01*
X185879300Y-100728004D01*
X186000625Y-100853640D01*
X186146771Y-100949275D01*
X186293486Y-101003838D01*
X186350358Y-101046328D01*
X186375232Y-101112824D01*
X186360207Y-101182213D01*
X186310053Y-101232463D01*
X186268621Y-101246483D01*
X186226007Y-101253004D01*
X186089091Y-101273955D01*
X185876756Y-101343357D01*
X185846443Y-101359137D01*
X185683819Y-101443794D01*
X185678607Y-101446507D01*
X185674474Y-101449610D01*
X185674471Y-101449612D01*
X185504100Y-101577530D01*
X185499965Y-101580635D01*
X185496393Y-101584373D01*
X185352594Y-101734850D01*
X185345629Y-101742138D01*
X185238201Y-101899621D01*
X185183293Y-101944621D01*
X185112768Y-101952792D01*
X185049021Y-101921538D01*
X185028324Y-101897054D01*
X184947822Y-101772617D01*
X184947820Y-101772614D01*
X184945014Y-101768277D01*
X184794670Y-101603051D01*
X184790619Y-101599852D01*
X184790615Y-101599848D01*
X184623414Y-101467800D01*
X184623410Y-101467798D01*
X184619359Y-101464598D01*
X184581673Y-101443794D01*
X184567135Y-101435769D01*
X184423789Y-101356638D01*
X184418920Y-101354914D01*
X184418916Y-101354912D01*
X184218087Y-101283795D01*
X184218083Y-101283794D01*
X184213212Y-101282069D01*
X184208119Y-101281162D01*
X184208116Y-101281161D01*
X183998373Y-101243800D01*
X183998367Y-101243799D01*
X183993284Y-101242894D01*
X183919452Y-101241992D01*
X183775081Y-101240228D01*
X183775079Y-101240228D01*
X183769911Y-101240165D01*
X183549091Y-101273955D01*
X183336756Y-101343357D01*
X183306443Y-101359137D01*
X183143819Y-101443794D01*
X183138607Y-101446507D01*
X183134474Y-101449610D01*
X183134471Y-101449612D01*
X182964100Y-101577530D01*
X182959965Y-101580635D01*
X182885969Y-101658068D01*
X182879283Y-101665064D01*
X182817759Y-101700494D01*
X182746846Y-101697037D01*
X182689060Y-101655791D01*
X182670207Y-101622243D01*
X182628767Y-101511703D01*
X182625615Y-101503295D01*
X182538261Y-101386739D01*
X182421705Y-101299385D01*
X182285316Y-101248255D01*
X182223134Y-101241500D01*
X180426866Y-101241500D01*
X180364684Y-101248255D01*
X180228295Y-101299385D01*
X180111739Y-101386739D01*
X180024385Y-101503295D01*
X179973255Y-101639684D01*
X179966500Y-101701866D01*
X179966500Y-103498134D01*
X163959399Y-103498134D01*
X163935531Y-103489635D01*
X163935526Y-103489634D01*
X163928896Y-103487273D01*
X163921908Y-103486440D01*
X163921905Y-103486439D01*
X163804334Y-103472420D01*
X163755469Y-103466593D01*
X163748467Y-103467329D01*
X163748465Y-103467329D01*
X163588771Y-103484114D01*
X163588769Y-103484114D01*
X163581771Y-103484850D01*
X163416433Y-103541135D01*
X163369462Y-103570032D01*
X163273677Y-103628959D01*
X163273674Y-103628961D01*
X163267675Y-103632652D01*
X163238528Y-103661195D01*
X163213330Y-103685870D01*
X163150665Y-103719240D01*
X163079906Y-103713434D01*
X163035766Y-103684629D01*
X162995860Y-103644443D01*
X162990898Y-103639446D01*
X162980193Y-103632652D01*
X162896252Y-103579382D01*
X162843431Y-103545861D01*
X162778157Y-103522618D01*
X162685531Y-103489635D01*
X162685526Y-103489634D01*
X162678896Y-103487273D01*
X162671908Y-103486440D01*
X162671905Y-103486439D01*
X162554334Y-103472420D01*
X162505469Y-103466593D01*
X162498467Y-103467329D01*
X162498465Y-103467329D01*
X162338771Y-103484114D01*
X162338769Y-103484114D01*
X162331771Y-103484850D01*
X162166433Y-103541135D01*
X162119462Y-103570032D01*
X162023677Y-103628959D01*
X162023674Y-103628961D01*
X162017675Y-103632652D01*
X161988528Y-103661195D01*
X161963330Y-103685870D01*
X161900665Y-103719240D01*
X161829906Y-103713434D01*
X161785766Y-103684629D01*
X161745860Y-103644443D01*
X161740898Y-103639446D01*
X161730193Y-103632652D01*
X161646252Y-103579382D01*
X161593431Y-103545861D01*
X161528157Y-103522618D01*
X161435531Y-103489635D01*
X161435526Y-103489634D01*
X161428896Y-103487273D01*
X161421908Y-103486440D01*
X161421905Y-103486439D01*
X161304334Y-103472420D01*
X161255469Y-103466593D01*
X161248467Y-103467329D01*
X161248465Y-103467329D01*
X161088771Y-103484114D01*
X161088769Y-103484114D01*
X161081771Y-103484850D01*
X160916433Y-103541135D01*
X160869462Y-103570032D01*
X160773677Y-103628959D01*
X160773674Y-103628961D01*
X160767675Y-103632652D01*
X160642888Y-103754852D01*
X160548276Y-103901661D01*
X160545867Y-103908281D01*
X160545865Y-103908284D01*
X160527588Y-103958500D01*
X160488540Y-104065784D01*
X160466650Y-104239062D01*
X160483694Y-104412883D01*
X160538824Y-104578610D01*
X160629300Y-104728004D01*
X160634190Y-104733068D01*
X160634191Y-104733069D01*
X160686393Y-104787126D01*
X160719325Y-104850023D01*
X160713025Y-104920740D01*
X160683914Y-104964676D01*
X160647925Y-104999919D01*
X160642888Y-105004852D01*
X160639069Y-105010777D01*
X160639068Y-105010779D01*
X160564172Y-105126995D01*
X160548276Y-105151661D01*
X160545867Y-105158281D01*
X160545865Y-105158284D01*
X160490949Y-105309165D01*
X160488540Y-105315784D01*
X160466650Y-105489062D01*
X133977716Y-105489062D01*
X133952351Y-105388079D01*
X133863274Y-105183217D01*
X133765340Y-105031834D01*
X133744742Y-104999994D01*
X133744740Y-104999991D01*
X133741934Y-104995654D01*
X133591590Y-104830428D01*
X133587539Y-104827229D01*
X133587535Y-104827225D01*
X133420334Y-104695177D01*
X133420330Y-104695175D01*
X133416279Y-104691975D01*
X133220709Y-104584015D01*
X133215840Y-104582291D01*
X133215836Y-104582289D01*
X133015007Y-104511172D01*
X133015003Y-104511171D01*
X133010132Y-104509446D01*
X133005039Y-104508539D01*
X133005036Y-104508538D01*
X132795293Y-104471177D01*
X132795287Y-104471176D01*
X132790204Y-104470271D01*
X132716372Y-104469369D01*
X132572001Y-104467605D01*
X132571999Y-104467605D01*
X132566831Y-104467542D01*
X132346011Y-104501332D01*
X132133676Y-104570734D01*
X131935527Y-104673884D01*
X131931394Y-104676987D01*
X131931391Y-104676989D01*
X131761020Y-104804907D01*
X131756885Y-104808012D01*
X131753313Y-104811750D01*
X131649160Y-104920740D01*
X131602549Y-104969515D01*
X131495121Y-105126998D01*
X131440213Y-105171998D01*
X131369688Y-105180169D01*
X131305941Y-105148915D01*
X131285244Y-105124431D01*
X131204742Y-104999994D01*
X131204740Y-104999991D01*
X131201934Y-104995654D01*
X131051590Y-104830428D01*
X131047539Y-104827229D01*
X131047535Y-104827225D01*
X130880334Y-104695177D01*
X130880330Y-104695175D01*
X130876279Y-104691975D01*
X130680709Y-104584015D01*
X130675840Y-104582291D01*
X130675836Y-104582289D01*
X130475007Y-104511172D01*
X130475003Y-104511171D01*
X130470132Y-104509446D01*
X130465039Y-104508539D01*
X130465036Y-104508538D01*
X130255293Y-104471177D01*
X130255287Y-104471176D01*
X130250204Y-104470271D01*
X130176372Y-104469369D01*
X130032001Y-104467605D01*
X130031999Y-104467605D01*
X130026831Y-104467542D01*
X129806011Y-104501332D01*
X129593676Y-104570734D01*
X129395527Y-104673884D01*
X129391394Y-104676987D01*
X129391391Y-104676989D01*
X129221020Y-104804907D01*
X129216885Y-104808012D01*
X129213313Y-104811750D01*
X129109160Y-104920740D01*
X129062549Y-104969515D01*
X128955121Y-105126998D01*
X128900213Y-105171998D01*
X128829688Y-105180169D01*
X128765941Y-105148915D01*
X128745244Y-105124431D01*
X128664742Y-104999994D01*
X128664740Y-104999991D01*
X128661934Y-104995654D01*
X128511590Y-104830428D01*
X128507539Y-104827229D01*
X128507535Y-104827225D01*
X128340334Y-104695177D01*
X128340330Y-104695175D01*
X128336279Y-104691975D01*
X128140709Y-104584015D01*
X128135840Y-104582291D01*
X128135836Y-104582289D01*
X127935007Y-104511172D01*
X127935003Y-104511171D01*
X127930132Y-104509446D01*
X127925039Y-104508539D01*
X127925036Y-104508538D01*
X127715293Y-104471177D01*
X127715287Y-104471176D01*
X127710204Y-104470271D01*
X127636372Y-104469369D01*
X127492001Y-104467605D01*
X127491999Y-104467605D01*
X127486831Y-104467542D01*
X127266011Y-104501332D01*
X127053676Y-104570734D01*
X126855527Y-104673884D01*
X126851394Y-104676987D01*
X126851391Y-104676989D01*
X126681020Y-104804907D01*
X126676885Y-104808012D01*
X126673313Y-104811750D01*
X126569160Y-104920740D01*
X126522549Y-104969515D01*
X126415121Y-105126998D01*
X126360213Y-105171998D01*
X126289688Y-105180169D01*
X126225941Y-105148915D01*
X126205244Y-105124431D01*
X126124742Y-104999994D01*
X126124740Y-104999991D01*
X126121934Y-104995654D01*
X125971590Y-104830428D01*
X125967539Y-104827229D01*
X125967535Y-104827225D01*
X125800334Y-104695177D01*
X125800330Y-104695175D01*
X125796279Y-104691975D01*
X125600709Y-104584015D01*
X125595840Y-104582291D01*
X125595836Y-104582289D01*
X125395007Y-104511172D01*
X125395003Y-104511171D01*
X125390132Y-104509446D01*
X125385039Y-104508539D01*
X125385036Y-104508538D01*
X125175293Y-104471177D01*
X125175287Y-104471176D01*
X125170204Y-104470271D01*
X125096372Y-104469369D01*
X124952001Y-104467605D01*
X124951999Y-104467605D01*
X124946831Y-104467542D01*
X124726011Y-104501332D01*
X124513676Y-104570734D01*
X124315527Y-104673884D01*
X124311394Y-104676987D01*
X124311391Y-104676989D01*
X124141020Y-104804907D01*
X124136885Y-104808012D01*
X124133313Y-104811750D01*
X124029160Y-104920740D01*
X123982549Y-104969515D01*
X123875121Y-105126998D01*
X123820213Y-105171998D01*
X123749688Y-105180169D01*
X123685941Y-105148915D01*
X123665244Y-105124431D01*
X123584742Y-104999994D01*
X123584740Y-104999991D01*
X123581934Y-104995654D01*
X123431590Y-104830428D01*
X123427539Y-104827229D01*
X123427535Y-104827225D01*
X123260334Y-104695177D01*
X123260330Y-104695175D01*
X123256279Y-104691975D01*
X123060709Y-104584015D01*
X123055840Y-104582291D01*
X123055836Y-104582289D01*
X122855007Y-104511172D01*
X122855003Y-104511171D01*
X122850132Y-104509446D01*
X122845039Y-104508539D01*
X122845036Y-104508538D01*
X122635293Y-104471177D01*
X122635287Y-104471176D01*
X122630204Y-104470271D01*
X122556372Y-104469369D01*
X122412001Y-104467605D01*
X122411999Y-104467605D01*
X122406831Y-104467542D01*
X122186011Y-104501332D01*
X121973676Y-104570734D01*
X121775527Y-104673884D01*
X121771394Y-104676987D01*
X121771391Y-104676989D01*
X121601020Y-104804907D01*
X121596885Y-104808012D01*
X121593313Y-104811750D01*
X121489160Y-104920740D01*
X121442549Y-104969515D01*
X121316663Y-105154057D01*
X121300923Y-105187967D01*
X121238348Y-105322774D01*
X121222608Y-105356682D01*
X121162909Y-105571947D01*
X121139171Y-105794072D01*
X120700000Y-105794072D01*
X120700000Y-102489062D01*
X137783070Y-102489062D01*
X137800114Y-102662883D01*
X137855244Y-102828610D01*
X137858891Y-102834632D01*
X137858892Y-102834634D01*
X137891254Y-102888069D01*
X137945720Y-102978004D01*
X138067045Y-103103640D01*
X138213191Y-103199275D01*
X138219795Y-103201731D01*
X138219797Y-103201732D01*
X138257165Y-103215629D01*
X138376892Y-103260155D01*
X138383877Y-103261087D01*
X138543032Y-103282323D01*
X138543036Y-103282323D01*
X138550013Y-103283254D01*
X138557024Y-103282616D01*
X138557028Y-103282616D01*
X138716932Y-103268064D01*
X138716935Y-103268063D01*
X138723950Y-103267425D01*
X138753886Y-103257698D01*
X138883361Y-103215629D01*
X138883363Y-103215628D01*
X138890057Y-103213453D01*
X139040079Y-103124022D01*
X139166559Y-103003577D01*
X139243302Y-102888069D01*
X139259311Y-102863974D01*
X139259312Y-102863972D01*
X139263212Y-102858102D01*
X139325233Y-102694830D01*
X139349541Y-102521875D01*
X139349846Y-102500000D01*
X139330377Y-102326433D01*
X139272939Y-102161493D01*
X139180386Y-102013377D01*
X139171921Y-102004852D01*
X139094293Y-101926680D01*
X139057318Y-101889446D01*
X139050072Y-101884847D01*
X138920517Y-101802630D01*
X138909851Y-101795861D01*
X138832386Y-101768277D01*
X138751951Y-101739635D01*
X138751946Y-101739634D01*
X138745316Y-101737273D01*
X138738328Y-101736440D01*
X138738325Y-101736439D01*
X138620754Y-101722420D01*
X138571889Y-101716593D01*
X138564887Y-101717329D01*
X138564885Y-101717329D01*
X138405191Y-101734114D01*
X138405189Y-101734114D01*
X138398191Y-101734850D01*
X138232853Y-101791135D01*
X138177645Y-101825099D01*
X138090097Y-101878959D01*
X138090094Y-101878961D01*
X138084095Y-101882652D01*
X137959308Y-102004852D01*
X137955489Y-102010777D01*
X137955488Y-102010779D01*
X137868515Y-102145735D01*
X137864696Y-102151661D01*
X137804960Y-102315784D01*
X137783070Y-102489062D01*
X120700000Y-102489062D01*
X120700000Y-97375000D01*
X139286496Y-97375000D01*
X139306458Y-97564928D01*
X139365473Y-97746556D01*
X139460960Y-97911944D01*
X139465378Y-97916851D01*
X139465379Y-97916852D01*
X139575933Y-98039635D01*
X139588747Y-98053866D01*
X139743248Y-98166118D01*
X139749274Y-98168801D01*
X139749281Y-98168805D01*
X139836519Y-98207645D01*
X139890615Y-98253625D01*
X139911265Y-98321552D01*
X139891913Y-98389860D01*
X139878907Y-98407062D01*
X139822922Y-98469240D01*
X139760960Y-98538056D01*
X139665473Y-98703444D01*
X139606458Y-98885072D01*
X139605768Y-98891633D01*
X139605768Y-98891635D01*
X139599016Y-98955874D01*
X139586496Y-99075000D01*
X139606458Y-99264928D01*
X139665473Y-99446556D01*
X139668776Y-99452278D01*
X139668777Y-99452279D01*
X139702014Y-99509847D01*
X139760960Y-99611944D01*
X139765378Y-99616851D01*
X139765379Y-99616852D01*
X139810082Y-99666500D01*
X139888747Y-99753866D01*
X140043248Y-99866118D01*
X140049276Y-99868802D01*
X140049278Y-99868803D01*
X140145162Y-99911493D01*
X140217712Y-99943794D01*
X140311112Y-99963647D01*
X140398056Y-99982128D01*
X140398061Y-99982128D01*
X140404513Y-99983500D01*
X140595487Y-99983500D01*
X140601939Y-99982128D01*
X140601944Y-99982128D01*
X140688888Y-99963647D01*
X140782288Y-99943794D01*
X140854838Y-99911493D01*
X140950722Y-99868803D01*
X140950724Y-99868802D01*
X140956752Y-99866118D01*
X141111253Y-99753866D01*
X141155813Y-99704377D01*
X145986496Y-99704377D01*
X145987186Y-99710942D01*
X146003778Y-99868803D01*
X146006458Y-99894305D01*
X146065473Y-100075933D01*
X146068776Y-100081655D01*
X146068777Y-100081656D01*
X146102686Y-100140387D01*
X146160960Y-100241321D01*
X146165378Y-100246228D01*
X146165379Y-100246229D01*
X146192002Y-100275797D01*
X146288747Y-100383243D01*
X146443248Y-100495495D01*
X146449276Y-100498179D01*
X146449278Y-100498180D01*
X146611681Y-100570486D01*
X146617712Y-100573171D01*
X146700574Y-100590784D01*
X146798056Y-100611505D01*
X146798061Y-100611505D01*
X146804513Y-100612877D01*
X146995487Y-100612877D01*
X147001939Y-100611505D01*
X147001944Y-100611505D01*
X147099426Y-100590784D01*
X147173683Y-100575000D01*
X147986496Y-100575000D01*
X148006458Y-100764928D01*
X148065473Y-100946556D01*
X148068776Y-100952278D01*
X148068777Y-100952279D01*
X148076485Y-100965629D01*
X148160960Y-101111944D01*
X148165378Y-101116851D01*
X148165379Y-101116852D01*
X148282099Y-101246483D01*
X148288747Y-101253866D01*
X148387843Y-101325864D01*
X148433640Y-101359137D01*
X148443248Y-101366118D01*
X148449276Y-101368802D01*
X148449278Y-101368803D01*
X148611681Y-101441109D01*
X148617712Y-101443794D01*
X148703839Y-101462101D01*
X148798056Y-101482128D01*
X148798061Y-101482128D01*
X148804513Y-101483500D01*
X148995487Y-101483500D01*
X149001939Y-101482128D01*
X149001944Y-101482128D01*
X149096161Y-101462101D01*
X149182288Y-101443794D01*
X149188319Y-101441109D01*
X149350722Y-101368803D01*
X149350724Y-101368802D01*
X149356752Y-101366118D01*
X149366361Y-101359137D01*
X149412157Y-101325864D01*
X149511253Y-101253866D01*
X149517901Y-101246483D01*
X149634621Y-101116852D01*
X149634622Y-101116851D01*
X149639040Y-101111944D01*
X149723515Y-100965629D01*
X149731223Y-100952279D01*
X149731224Y-100952278D01*
X149734527Y-100946556D01*
X149793542Y-100764928D01*
X149793633Y-100764062D01*
X150716650Y-100764062D01*
X150733694Y-100937883D01*
X150735918Y-100944568D01*
X150735918Y-100944569D01*
X150757736Y-101010155D01*
X150788824Y-101103610D01*
X150792471Y-101109632D01*
X150792472Y-101109634D01*
X150875351Y-101246483D01*
X150879300Y-101253004D01*
X151000625Y-101378640D01*
X151146771Y-101474275D01*
X151153375Y-101476731D01*
X151153377Y-101476732D01*
X151171576Y-101483500D01*
X151310472Y-101535155D01*
X151317457Y-101536087D01*
X151476612Y-101557323D01*
X151476616Y-101557323D01*
X151483593Y-101558254D01*
X151490604Y-101557616D01*
X151490608Y-101557616D01*
X151650512Y-101543064D01*
X151650515Y-101543063D01*
X151657530Y-101542425D01*
X151752082Y-101511703D01*
X151816941Y-101490629D01*
X151816943Y-101490628D01*
X151823637Y-101488453D01*
X151867843Y-101462101D01*
X151967607Y-101402630D01*
X151967609Y-101402629D01*
X151973659Y-101399022D01*
X152100139Y-101278577D01*
X152176222Y-101164062D01*
X174616650Y-101164062D01*
X174633694Y-101337883D01*
X174635918Y-101344568D01*
X174635918Y-101344569D01*
X174643980Y-101368803D01*
X174688824Y-101503610D01*
X174692471Y-101509632D01*
X174692472Y-101509634D01*
X174760671Y-101622243D01*
X174779300Y-101653004D01*
X174900625Y-101778640D01*
X175046771Y-101874275D01*
X175053375Y-101876731D01*
X175053377Y-101876732D01*
X175084894Y-101888453D01*
X175210472Y-101935155D01*
X175217457Y-101936087D01*
X175376612Y-101957323D01*
X175376616Y-101957323D01*
X175383593Y-101958254D01*
X175390604Y-101957616D01*
X175390608Y-101957616D01*
X175550512Y-101943064D01*
X175550515Y-101943063D01*
X175557530Y-101942425D01*
X175621813Y-101921538D01*
X175716941Y-101890629D01*
X175716943Y-101890628D01*
X175723637Y-101888453D01*
X175873659Y-101799022D01*
X176000139Y-101678577D01*
X176080700Y-101557323D01*
X176092891Y-101538974D01*
X176092892Y-101538972D01*
X176096792Y-101533102D01*
X176158813Y-101369830D01*
X176183121Y-101196875D01*
X176183268Y-101186341D01*
X176183371Y-101178963D01*
X176183371Y-101178959D01*
X176183426Y-101175000D01*
X176163957Y-101001433D01*
X176106519Y-100836493D01*
X176013966Y-100688377D01*
X176005501Y-100679852D01*
X175921020Y-100594779D01*
X175890898Y-100564446D01*
X175880193Y-100557652D01*
X175782248Y-100495495D01*
X175743431Y-100470861D01*
X175688823Y-100451416D01*
X175585531Y-100414635D01*
X175585526Y-100414634D01*
X175578896Y-100412273D01*
X175571908Y-100411440D01*
X175571905Y-100411439D01*
X175454334Y-100397420D01*
X175405469Y-100391593D01*
X175398467Y-100392329D01*
X175398465Y-100392329D01*
X175238771Y-100409114D01*
X175238769Y-100409114D01*
X175231771Y-100409850D01*
X175066433Y-100466135D01*
X175025018Y-100491614D01*
X174923677Y-100553959D01*
X174923674Y-100553961D01*
X174917675Y-100557652D01*
X174792888Y-100679852D01*
X174789069Y-100685777D01*
X174789068Y-100685779D01*
X174742290Y-100758365D01*
X174698276Y-100826661D01*
X174695867Y-100833281D01*
X174695865Y-100833284D01*
X174640949Y-100984165D01*
X174638540Y-100990784D01*
X174616650Y-101164062D01*
X152176222Y-101164062D01*
X152196792Y-101133102D01*
X152258813Y-100969830D01*
X152279768Y-100820735D01*
X152282570Y-100800797D01*
X152282570Y-100800794D01*
X152283121Y-100796875D01*
X152283426Y-100775000D01*
X152263957Y-100601433D01*
X152206519Y-100436493D01*
X152113966Y-100288377D01*
X152105501Y-100279852D01*
X151995860Y-100169443D01*
X151990898Y-100164446D01*
X151980193Y-100157652D01*
X151933590Y-100128077D01*
X151843431Y-100070861D01*
X151767362Y-100043774D01*
X151685531Y-100014635D01*
X151685526Y-100014634D01*
X151678896Y-100012273D01*
X151671908Y-100011440D01*
X151671905Y-100011439D01*
X151554334Y-99997420D01*
X151505469Y-99991593D01*
X151498467Y-99992329D01*
X151498465Y-99992329D01*
X151338771Y-100009114D01*
X151338769Y-100009114D01*
X151331771Y-100009850D01*
X151166433Y-100066135D01*
X151111225Y-100100099D01*
X151023677Y-100153959D01*
X151023674Y-100153961D01*
X151017675Y-100157652D01*
X150892888Y-100279852D01*
X150889069Y-100285777D01*
X150889068Y-100285779D01*
X150820876Y-100391593D01*
X150798276Y-100426661D01*
X150795867Y-100433281D01*
X150795865Y-100433284D01*
X150744451Y-100574543D01*
X150738540Y-100590784D01*
X150716650Y-100764062D01*
X149793633Y-100764062D01*
X149813504Y-100575000D01*
X149796069Y-100409114D01*
X149794232Y-100391635D01*
X149794232Y-100391633D01*
X149793542Y-100385072D01*
X149734527Y-100203444D01*
X149714897Y-100169443D01*
X149665238Y-100083432D01*
X149639040Y-100038056D01*
X149511253Y-99896134D01*
X149356752Y-99783882D01*
X149350724Y-99781198D01*
X149350722Y-99781197D01*
X149188319Y-99708891D01*
X149188318Y-99708891D01*
X149182288Y-99706206D01*
X149088888Y-99686353D01*
X149001944Y-99667872D01*
X149001939Y-99667872D01*
X148995487Y-99666500D01*
X148804513Y-99666500D01*
X148798061Y-99667872D01*
X148798056Y-99667872D01*
X148711112Y-99686353D01*
X148617712Y-99706206D01*
X148611682Y-99708891D01*
X148611681Y-99708891D01*
X148449278Y-99781197D01*
X148449276Y-99781198D01*
X148443248Y-99783882D01*
X148288747Y-99896134D01*
X148160960Y-100038056D01*
X148134762Y-100083432D01*
X148085104Y-100169443D01*
X148065473Y-100203444D01*
X148006458Y-100385072D01*
X148005768Y-100391633D01*
X148005768Y-100391635D01*
X148003931Y-100409114D01*
X147986496Y-100575000D01*
X147173683Y-100575000D01*
X147182288Y-100573171D01*
X147188319Y-100570486D01*
X147350722Y-100498180D01*
X147350724Y-100498179D01*
X147356752Y-100495495D01*
X147511253Y-100383243D01*
X147607998Y-100275797D01*
X147634621Y-100246229D01*
X147634622Y-100246228D01*
X147639040Y-100241321D01*
X147697314Y-100140387D01*
X147731223Y-100081656D01*
X147731224Y-100081655D01*
X147734527Y-100075933D01*
X147793542Y-99894305D01*
X147796223Y-99868803D01*
X147812814Y-99710942D01*
X147813504Y-99704377D01*
X147806680Y-99639446D01*
X147794232Y-99521012D01*
X147794232Y-99521010D01*
X147793542Y-99514449D01*
X147734527Y-99332821D01*
X147639040Y-99167433D01*
X147630639Y-99158102D01*
X147515675Y-99030422D01*
X147515674Y-99030421D01*
X147511253Y-99025511D01*
X147356752Y-98913259D01*
X147350724Y-98910575D01*
X147350722Y-98910574D01*
X147188319Y-98838268D01*
X147188318Y-98838268D01*
X147182288Y-98835583D01*
X147088888Y-98815730D01*
X147001944Y-98797249D01*
X147001939Y-98797249D01*
X146995487Y-98795877D01*
X146804513Y-98795877D01*
X146798061Y-98797249D01*
X146798056Y-98797249D01*
X146711112Y-98815730D01*
X146617712Y-98835583D01*
X146611682Y-98838268D01*
X146611681Y-98838268D01*
X146449278Y-98910574D01*
X146449276Y-98910575D01*
X146443248Y-98913259D01*
X146288747Y-99025511D01*
X146284326Y-99030421D01*
X146284325Y-99030422D01*
X146169362Y-99158102D01*
X146160960Y-99167433D01*
X146065473Y-99332821D01*
X146006458Y-99514449D01*
X146005768Y-99521010D01*
X146005768Y-99521012D01*
X145993320Y-99639446D01*
X145986496Y-99704377D01*
X141155813Y-99704377D01*
X141189918Y-99666500D01*
X141234621Y-99616852D01*
X141234622Y-99616851D01*
X141239040Y-99611944D01*
X141297986Y-99509847D01*
X141331223Y-99452279D01*
X141331224Y-99452278D01*
X141334527Y-99446556D01*
X141393542Y-99264928D01*
X141413504Y-99075000D01*
X141400984Y-98955874D01*
X141394232Y-98891635D01*
X141394232Y-98891633D01*
X141393542Y-98885072D01*
X141362346Y-98789062D01*
X152841650Y-98789062D01*
X152858694Y-98962883D01*
X152860918Y-98969568D01*
X152860918Y-98969569D01*
X152869321Y-98994830D01*
X152913824Y-99128610D01*
X152917471Y-99134632D01*
X152917472Y-99134634D01*
X152957917Y-99201416D01*
X153004300Y-99278004D01*
X153125625Y-99403640D01*
X153131521Y-99407498D01*
X153247006Y-99483069D01*
X153271771Y-99499275D01*
X153278375Y-99501731D01*
X153278377Y-99501732D01*
X153315745Y-99515629D01*
X153435472Y-99560155D01*
X153442457Y-99561087D01*
X153601612Y-99582323D01*
X153601616Y-99582323D01*
X153608593Y-99583254D01*
X153615604Y-99582616D01*
X153615608Y-99582616D01*
X153775512Y-99568064D01*
X153775515Y-99568063D01*
X153782530Y-99567425D01*
X153875780Y-99537126D01*
X153941941Y-99515629D01*
X153941943Y-99515628D01*
X153948637Y-99513453D01*
X154024179Y-99468421D01*
X154092607Y-99427630D01*
X154092609Y-99427629D01*
X154098659Y-99424022D01*
X154225139Y-99303577D01*
X154311794Y-99173151D01*
X154317891Y-99163974D01*
X154317892Y-99163972D01*
X154321792Y-99158102D01*
X154383813Y-98994830D01*
X154405817Y-98838268D01*
X154407570Y-98825797D01*
X154407570Y-98825794D01*
X154408121Y-98821875D01*
X154408426Y-98800000D01*
X154388957Y-98626433D01*
X154331519Y-98461493D01*
X154238966Y-98313377D01*
X154230501Y-98304852D01*
X154168439Y-98242355D01*
X154115898Y-98189446D01*
X154105193Y-98182652D01*
X154019780Y-98128448D01*
X153968431Y-98095861D01*
X153940625Y-98085960D01*
X153810531Y-98039635D01*
X153810526Y-98039634D01*
X153803896Y-98037273D01*
X153796908Y-98036440D01*
X153796905Y-98036439D01*
X153679334Y-98022420D01*
X153630469Y-98016593D01*
X153623467Y-98017329D01*
X153623465Y-98017329D01*
X153463771Y-98034114D01*
X153463769Y-98034114D01*
X153456771Y-98034850D01*
X153291433Y-98091135D01*
X153236225Y-98125099D01*
X153148677Y-98178959D01*
X153148674Y-98178961D01*
X153142675Y-98182652D01*
X153017888Y-98304852D01*
X153014069Y-98310777D01*
X153014068Y-98310779D01*
X152959061Y-98396134D01*
X152923276Y-98451661D01*
X152920867Y-98458281D01*
X152920865Y-98458284D01*
X152865949Y-98609165D01*
X152863540Y-98615784D01*
X152841650Y-98789062D01*
X141362346Y-98789062D01*
X141334527Y-98703444D01*
X141239040Y-98538056D01*
X141176097Y-98468150D01*
X141115675Y-98401045D01*
X141115674Y-98401044D01*
X141111253Y-98396134D01*
X140985615Y-98304852D01*
X140962094Y-98287763D01*
X140962093Y-98287762D01*
X140956752Y-98283882D01*
X140950726Y-98281199D01*
X140950719Y-98281195D01*
X140863481Y-98242355D01*
X140809385Y-98196375D01*
X140788735Y-98128448D01*
X140808087Y-98060140D01*
X140821093Y-98042938D01*
X140934621Y-97916852D01*
X140934622Y-97916851D01*
X140939040Y-97911944D01*
X141034527Y-97746556D01*
X141093542Y-97564928D01*
X141113504Y-97375000D01*
X141093542Y-97185072D01*
X141034527Y-97003444D01*
X140939040Y-96838056D01*
X140811253Y-96696134D01*
X140656752Y-96583882D01*
X140650724Y-96581198D01*
X140650722Y-96581197D01*
X140488319Y-96508891D01*
X140488318Y-96508891D01*
X140482288Y-96506206D01*
X140388887Y-96486353D01*
X140301944Y-96467872D01*
X140301939Y-96467872D01*
X140295487Y-96466500D01*
X140104513Y-96466500D01*
X140098061Y-96467872D01*
X140098056Y-96467872D01*
X140011112Y-96486353D01*
X139917712Y-96506206D01*
X139911682Y-96508891D01*
X139911681Y-96508891D01*
X139749278Y-96581197D01*
X139749276Y-96581198D01*
X139743248Y-96583882D01*
X139588747Y-96696134D01*
X139460960Y-96838056D01*
X139365473Y-97003444D01*
X139306458Y-97185072D01*
X139286496Y-97375000D01*
X120700000Y-97375000D01*
X120700000Y-94519520D01*
X144376976Y-94519520D01*
X144377666Y-94526085D01*
X144393124Y-94673156D01*
X144396938Y-94709448D01*
X144455953Y-94891076D01*
X144551440Y-95056464D01*
X144555858Y-95061371D01*
X144555859Y-95061372D01*
X144574304Y-95081857D01*
X144679227Y-95198386D01*
X144833728Y-95310638D01*
X144839756Y-95313322D01*
X144839758Y-95313323D01*
X145002161Y-95385629D01*
X145008192Y-95388314D01*
X145101593Y-95408167D01*
X145188536Y-95426648D01*
X145188541Y-95426648D01*
X145194993Y-95428020D01*
X145385967Y-95428020D01*
X145392419Y-95426648D01*
X145392424Y-95426648D01*
X145479368Y-95408167D01*
X145572768Y-95388314D01*
X145578799Y-95385629D01*
X145741202Y-95313323D01*
X145741204Y-95313322D01*
X145747232Y-95310638D01*
X145901733Y-95198386D01*
X146006656Y-95081857D01*
X146025101Y-95061372D01*
X146025102Y-95061371D01*
X146029520Y-95056464D01*
X146125007Y-94891076D01*
X146184022Y-94709448D01*
X146187837Y-94673156D01*
X146203294Y-94526085D01*
X146203984Y-94519520D01*
X146187563Y-94363285D01*
X146184712Y-94336155D01*
X146184712Y-94336153D01*
X146184022Y-94329592D01*
X146133258Y-94173357D01*
X146607193Y-94173357D01*
X146607883Y-94179922D01*
X146625918Y-94351512D01*
X146627155Y-94363285D01*
X146686170Y-94544913D01*
X146781657Y-94710301D01*
X146786075Y-94715208D01*
X146786076Y-94715209D01*
X146847087Y-94782969D01*
X146909444Y-94852223D01*
X147063945Y-94964475D01*
X147069973Y-94967159D01*
X147069975Y-94967160D01*
X147232378Y-95039466D01*
X147238409Y-95042151D01*
X147328836Y-95061372D01*
X147418753Y-95080485D01*
X147418758Y-95080485D01*
X147425210Y-95081857D01*
X147616184Y-95081857D01*
X147622636Y-95080485D01*
X147622641Y-95080485D01*
X147712558Y-95061372D01*
X147802985Y-95042151D01*
X147809016Y-95039466D01*
X147971419Y-94967160D01*
X147971421Y-94967159D01*
X147977449Y-94964475D01*
X148131950Y-94852223D01*
X148194307Y-94782969D01*
X148255318Y-94715209D01*
X148255319Y-94715208D01*
X148259737Y-94710301D01*
X148355224Y-94544913D01*
X148414239Y-94363285D01*
X148415477Y-94351512D01*
X148433511Y-94179922D01*
X148434201Y-94173357D01*
X148422608Y-94063055D01*
X148422137Y-94058578D01*
X180036166Y-94058578D01*
X180053210Y-94232399D01*
X180108340Y-94398126D01*
X180111987Y-94404148D01*
X180111988Y-94404150D01*
X180193431Y-94538628D01*
X180198816Y-94547520D01*
X180320141Y-94673156D01*
X180356802Y-94697146D01*
X180453090Y-94760155D01*
X180466287Y-94768791D01*
X180472891Y-94771247D01*
X180472893Y-94771248D01*
X180510261Y-94785145D01*
X180629988Y-94829671D01*
X180636973Y-94830603D01*
X180796128Y-94851839D01*
X180796132Y-94851839D01*
X180803109Y-94852770D01*
X180810120Y-94852132D01*
X180810124Y-94852132D01*
X180970028Y-94837580D01*
X180970031Y-94837579D01*
X180977046Y-94836941D01*
X181006982Y-94827214D01*
X181136457Y-94785145D01*
X181136459Y-94785144D01*
X181143153Y-94782969D01*
X181185546Y-94757698D01*
X181287123Y-94697146D01*
X181287125Y-94697145D01*
X181293175Y-94693538D01*
X181361300Y-94628663D01*
X181424426Y-94596171D01*
X181495097Y-94602965D01*
X181517186Y-94614477D01*
X181612753Y-94677014D01*
X181646771Y-94699275D01*
X181653375Y-94701731D01*
X181653377Y-94701732D01*
X181684894Y-94713453D01*
X181810472Y-94760155D01*
X181817457Y-94761087D01*
X181976612Y-94782323D01*
X181976616Y-94782323D01*
X181983593Y-94783254D01*
X181990604Y-94782616D01*
X181990608Y-94782616D01*
X182150512Y-94768064D01*
X182150515Y-94768063D01*
X182157530Y-94767425D01*
X182187466Y-94757698D01*
X182316941Y-94715629D01*
X182316943Y-94715628D01*
X182323637Y-94713453D01*
X182473659Y-94624022D01*
X182600139Y-94503577D01*
X182670200Y-94398126D01*
X182692891Y-94363974D01*
X182692892Y-94363972D01*
X182696792Y-94358102D01*
X182744542Y-94232399D01*
X182756311Y-94201418D01*
X182756312Y-94201414D01*
X182758813Y-94194830D01*
X182768244Y-94127729D01*
X182797533Y-94063055D01*
X182857137Y-94024483D01*
X182881598Y-94019785D01*
X182900511Y-94018064D01*
X182900513Y-94018064D01*
X182907530Y-94017425D01*
X182914228Y-94015249D01*
X182914231Y-94015248D01*
X183066941Y-93965629D01*
X183066943Y-93965628D01*
X183073637Y-93963453D01*
X183204740Y-93885300D01*
X183217607Y-93877630D01*
X183217609Y-93877629D01*
X183223659Y-93874022D01*
X183350139Y-93753577D01*
X183446792Y-93608102D01*
X183508813Y-93444830D01*
X183527882Y-93309151D01*
X183532570Y-93275797D01*
X183532570Y-93275794D01*
X183533121Y-93271875D01*
X183533426Y-93250000D01*
X183513957Y-93076433D01*
X183456519Y-92911493D01*
X183363966Y-92763377D01*
X183358909Y-92758284D01*
X183245860Y-92644443D01*
X183240898Y-92639446D01*
X183230193Y-92632652D01*
X183160426Y-92588377D01*
X183093431Y-92545861D01*
X183050983Y-92530746D01*
X182935531Y-92489635D01*
X182935526Y-92489634D01*
X182928896Y-92487273D01*
X182921908Y-92486440D01*
X182921905Y-92486439D01*
X182804334Y-92472420D01*
X182755469Y-92466593D01*
X182748467Y-92467329D01*
X182748465Y-92467329D01*
X182588771Y-92484114D01*
X182588769Y-92484114D01*
X182581771Y-92484850D01*
X182416433Y-92541135D01*
X182380614Y-92563171D01*
X182273677Y-92628959D01*
X182273674Y-92628961D01*
X182267675Y-92632652D01*
X182142888Y-92754852D01*
X182139069Y-92760777D01*
X182139068Y-92760779D01*
X182119825Y-92790638D01*
X182048276Y-92901661D01*
X182045867Y-92908281D01*
X182045865Y-92908284D01*
X181990949Y-93059165D01*
X181988540Y-93065784D01*
X181981520Y-93121350D01*
X181953140Y-93186423D01*
X181894080Y-93225825D01*
X181869685Y-93230865D01*
X181838772Y-93234114D01*
X181838771Y-93234114D01*
X181831771Y-93234850D01*
X181666433Y-93291135D01*
X181640988Y-93306789D01*
X181523677Y-93378959D01*
X181523674Y-93378961D01*
X181517675Y-93382652D01*
X181512642Y-93387581D01*
X181460243Y-93438893D01*
X181397578Y-93472263D01*
X181326819Y-93466457D01*
X181304575Y-93455257D01*
X181162947Y-93365377D01*
X181096036Y-93341551D01*
X181005047Y-93309151D01*
X181005042Y-93309150D01*
X180998412Y-93306789D01*
X180991424Y-93305956D01*
X180991421Y-93305955D01*
X180866161Y-93291019D01*
X180824985Y-93286109D01*
X180817983Y-93286845D01*
X180817981Y-93286845D01*
X180658287Y-93303630D01*
X180658285Y-93303630D01*
X180651287Y-93304366D01*
X180485949Y-93360651D01*
X180450533Y-93382439D01*
X180343193Y-93448475D01*
X180343190Y-93448477D01*
X180337191Y-93452168D01*
X180212404Y-93574368D01*
X180208585Y-93580293D01*
X180208584Y-93580295D01*
X180121611Y-93715251D01*
X180117792Y-93721177D01*
X180115383Y-93727797D01*
X180115381Y-93727800D01*
X180072518Y-93845565D01*
X180058056Y-93885300D01*
X180036166Y-94058578D01*
X148422137Y-94058578D01*
X148414929Y-93989992D01*
X148414929Y-93989990D01*
X148414239Y-93983429D01*
X148355224Y-93801801D01*
X148337105Y-93770417D01*
X148295884Y-93699022D01*
X148259737Y-93636413D01*
X148238109Y-93612392D01*
X148136372Y-93499402D01*
X148136371Y-93499401D01*
X148131950Y-93494491D01*
X148031278Y-93421348D01*
X147982791Y-93386120D01*
X147982790Y-93386119D01*
X147977449Y-93382239D01*
X147971421Y-93379555D01*
X147971419Y-93379554D01*
X147809016Y-93307248D01*
X147809015Y-93307248D01*
X147802985Y-93304563D01*
X147709584Y-93284710D01*
X147622641Y-93266229D01*
X147622636Y-93266229D01*
X147616184Y-93264857D01*
X147425210Y-93264857D01*
X147418758Y-93266229D01*
X147418753Y-93266229D01*
X147331810Y-93284710D01*
X147238409Y-93304563D01*
X147232379Y-93307248D01*
X147232378Y-93307248D01*
X147069975Y-93379554D01*
X147069973Y-93379555D01*
X147063945Y-93382239D01*
X147058604Y-93386119D01*
X147058603Y-93386120D01*
X147010116Y-93421348D01*
X146909444Y-93494491D01*
X146905023Y-93499401D01*
X146905022Y-93499402D01*
X146803286Y-93612392D01*
X146781657Y-93636413D01*
X146745510Y-93699022D01*
X146704290Y-93770417D01*
X146686170Y-93801801D01*
X146627155Y-93983429D01*
X146626465Y-93989990D01*
X146626465Y-93989992D01*
X146618786Y-94063055D01*
X146607193Y-94173357D01*
X146133258Y-94173357D01*
X146125007Y-94147964D01*
X146029520Y-93982576D01*
X145941933Y-93885300D01*
X145906155Y-93845565D01*
X145906154Y-93845564D01*
X145901733Y-93840654D01*
X145747232Y-93728402D01*
X145741204Y-93725718D01*
X145741202Y-93725717D01*
X145578799Y-93653411D01*
X145578798Y-93653411D01*
X145572768Y-93650726D01*
X145479368Y-93630873D01*
X145392424Y-93612392D01*
X145392419Y-93612392D01*
X145385967Y-93611020D01*
X145194993Y-93611020D01*
X145188541Y-93612392D01*
X145188536Y-93612392D01*
X145101593Y-93630873D01*
X145008192Y-93650726D01*
X145002162Y-93653411D01*
X145002161Y-93653411D01*
X144839758Y-93725717D01*
X144839756Y-93725718D01*
X144833728Y-93728402D01*
X144679227Y-93840654D01*
X144674806Y-93845564D01*
X144674805Y-93845565D01*
X144639028Y-93885300D01*
X144551440Y-93982576D01*
X144455953Y-94147964D01*
X144396938Y-94329592D01*
X144396248Y-94336153D01*
X144396248Y-94336155D01*
X144393397Y-94363285D01*
X144376976Y-94519520D01*
X120700000Y-94519520D01*
X120700000Y-92039072D01*
X123709171Y-92039072D01*
X123722030Y-92262092D01*
X123723167Y-92267138D01*
X123723168Y-92267144D01*
X123746591Y-92371076D01*
X123771142Y-92480016D01*
X123855186Y-92686993D01*
X123896770Y-92754852D01*
X123918700Y-92790638D01*
X123971907Y-92877465D01*
X124118170Y-93046315D01*
X124290046Y-93189009D01*
X124482920Y-93301715D01*
X124691612Y-93381407D01*
X124696680Y-93382438D01*
X124696683Y-93382439D01*
X124803937Y-93404260D01*
X124910517Y-93425944D01*
X124915692Y-93426134D01*
X124915694Y-93426134D01*
X125128593Y-93433941D01*
X125128597Y-93433941D01*
X125133757Y-93434130D01*
X125138877Y-93433474D01*
X125138879Y-93433474D01*
X125350208Y-93406402D01*
X125350209Y-93406402D01*
X125355336Y-93405745D01*
X125360286Y-93404260D01*
X125564349Y-93343038D01*
X125564354Y-93343036D01*
X125569304Y-93341551D01*
X125769914Y-93243273D01*
X125951780Y-93113550D01*
X126060011Y-93005696D01*
X126122382Y-92971781D01*
X126193188Y-92976969D01*
X126249950Y-93019615D01*
X126266932Y-93050718D01*
X126305203Y-93152805D01*
X126311305Y-93169082D01*
X126398659Y-93285638D01*
X126515215Y-93372992D01*
X126651604Y-93424122D01*
X126713786Y-93430877D01*
X128510054Y-93430877D01*
X128572236Y-93424122D01*
X128708625Y-93372992D01*
X128825181Y-93285638D01*
X128912535Y-93169082D01*
X128942533Y-93089062D01*
X176016650Y-93089062D01*
X176033694Y-93262883D01*
X176035918Y-93269568D01*
X176035918Y-93269569D01*
X176047559Y-93304563D01*
X176088824Y-93428610D01*
X176092471Y-93434632D01*
X176092472Y-93434634D01*
X176148647Y-93527389D01*
X176179300Y-93578004D01*
X176300625Y-93703640D01*
X176344396Y-93732283D01*
X176424723Y-93784847D01*
X176446771Y-93799275D01*
X176453375Y-93801731D01*
X176453377Y-93801732D01*
X176453563Y-93801801D01*
X176610472Y-93860155D01*
X176617457Y-93861087D01*
X176776612Y-93882323D01*
X176776616Y-93882323D01*
X176783593Y-93883254D01*
X176790604Y-93882616D01*
X176790608Y-93882616D01*
X176950512Y-93868064D01*
X176950515Y-93868063D01*
X176957530Y-93867425D01*
X176987719Y-93857616D01*
X177116941Y-93815629D01*
X177116943Y-93815628D01*
X177123637Y-93813453D01*
X177259801Y-93732283D01*
X177267607Y-93727630D01*
X177267609Y-93727629D01*
X177273659Y-93724022D01*
X177350628Y-93650726D01*
X177363184Y-93638769D01*
X177426309Y-93606277D01*
X177496980Y-93613071D01*
X177540712Y-93642488D01*
X177570726Y-93673568D01*
X177570731Y-93673572D01*
X177575625Y-93678640D01*
X177721771Y-93774275D01*
X177728375Y-93776731D01*
X177728377Y-93776732D01*
X177750198Y-93784847D01*
X177885472Y-93835155D01*
X177892457Y-93836087D01*
X178051612Y-93857323D01*
X178051616Y-93857323D01*
X178058593Y-93858254D01*
X178065604Y-93857616D01*
X178065608Y-93857616D01*
X178225512Y-93843064D01*
X178225515Y-93843063D01*
X178232530Y-93842425D01*
X178332794Y-93809847D01*
X178391941Y-93790629D01*
X178391943Y-93790628D01*
X178398637Y-93788453D01*
X178499374Y-93728402D01*
X178542607Y-93702630D01*
X178542609Y-93702629D01*
X178548659Y-93699022D01*
X178675139Y-93578577D01*
X178759624Y-93451416D01*
X178767891Y-93438974D01*
X178767892Y-93438972D01*
X178771792Y-93433102D01*
X178833813Y-93269830D01*
X178855356Y-93116548D01*
X178857570Y-93100797D01*
X178857570Y-93100794D01*
X178858121Y-93096875D01*
X178858268Y-93086341D01*
X178858371Y-93078963D01*
X178858371Y-93078959D01*
X178858426Y-93075000D01*
X178838957Y-92901433D01*
X178830611Y-92877465D01*
X178783837Y-92743150D01*
X178781519Y-92736493D01*
X178688966Y-92588377D01*
X178680501Y-92579852D01*
X178595690Y-92494447D01*
X178565898Y-92464446D01*
X178555193Y-92457652D01*
X178508590Y-92428077D01*
X178418431Y-92370861D01*
X178390625Y-92360960D01*
X178260531Y-92314635D01*
X178260526Y-92314634D01*
X178253896Y-92312273D01*
X178246908Y-92311440D01*
X178246905Y-92311439D01*
X178129334Y-92297420D01*
X178080469Y-92291593D01*
X178073467Y-92292329D01*
X178073465Y-92292329D01*
X177913771Y-92309114D01*
X177913769Y-92309114D01*
X177906771Y-92309850D01*
X177741433Y-92366135D01*
X177724099Y-92376799D01*
X177598677Y-92453959D01*
X177598674Y-92453961D01*
X177592675Y-92457652D01*
X177574987Y-92474973D01*
X177513069Y-92535607D01*
X177450404Y-92568977D01*
X177379645Y-92563171D01*
X177335506Y-92534366D01*
X177295865Y-92494447D01*
X177295861Y-92494444D01*
X177290898Y-92489446D01*
X177283581Y-92484802D01*
X177233590Y-92453077D01*
X177143431Y-92395861D01*
X177115625Y-92385960D01*
X176985531Y-92339635D01*
X176985526Y-92339634D01*
X176978896Y-92337273D01*
X176971908Y-92336440D01*
X176971905Y-92336439D01*
X176854334Y-92322420D01*
X176805469Y-92316593D01*
X176798467Y-92317329D01*
X176798465Y-92317329D01*
X176638771Y-92334114D01*
X176638769Y-92334114D01*
X176631771Y-92334850D01*
X176466433Y-92391135D01*
X176411225Y-92425099D01*
X176323677Y-92478959D01*
X176323674Y-92478961D01*
X176317675Y-92482652D01*
X176192888Y-92604852D01*
X176189069Y-92610777D01*
X176189068Y-92610779D01*
X176111903Y-92730516D01*
X176098276Y-92751661D01*
X176095867Y-92758281D01*
X176095865Y-92758284D01*
X176055318Y-92869686D01*
X176038540Y-92915784D01*
X176016650Y-93089062D01*
X128942533Y-93089062D01*
X128963665Y-93032693D01*
X128970420Y-92970511D01*
X128970420Y-91999520D01*
X141326976Y-91999520D01*
X141346938Y-92189448D01*
X141405953Y-92371076D01*
X141501440Y-92536464D01*
X141505858Y-92541371D01*
X141505859Y-92541372D01*
X141624805Y-92673475D01*
X141629227Y-92678386D01*
X141783728Y-92790638D01*
X141789756Y-92793322D01*
X141789758Y-92793323D01*
X141952161Y-92865629D01*
X141958192Y-92868314D01*
X142051593Y-92888167D01*
X142138536Y-92906648D01*
X142138541Y-92906648D01*
X142144993Y-92908020D01*
X142335967Y-92908020D01*
X142342419Y-92906648D01*
X142342424Y-92906648D01*
X142429367Y-92888167D01*
X142522768Y-92868314D01*
X142528799Y-92865629D01*
X142691202Y-92793323D01*
X142691204Y-92793322D01*
X142697232Y-92790638D01*
X142851733Y-92678386D01*
X142856155Y-92673475D01*
X142975101Y-92541372D01*
X142975102Y-92541371D01*
X142979520Y-92536464D01*
X143075007Y-92371076D01*
X143134022Y-92189448D01*
X143153984Y-91999520D01*
X143134022Y-91809592D01*
X143075007Y-91627964D01*
X142979520Y-91462576D01*
X142918475Y-91394778D01*
X142856155Y-91325565D01*
X142856154Y-91325564D01*
X142851733Y-91320654D01*
X142697232Y-91208402D01*
X142691204Y-91205718D01*
X142691202Y-91205717D01*
X142528799Y-91133411D01*
X142528798Y-91133411D01*
X142522768Y-91130726D01*
X142429368Y-91110873D01*
X142342424Y-91092392D01*
X142342419Y-91092392D01*
X142335967Y-91091020D01*
X142144993Y-91091020D01*
X142138541Y-91092392D01*
X142138536Y-91092392D01*
X142051592Y-91110873D01*
X141958192Y-91130726D01*
X141952162Y-91133411D01*
X141952161Y-91133411D01*
X141789758Y-91205717D01*
X141789756Y-91205718D01*
X141783728Y-91208402D01*
X141629227Y-91320654D01*
X141624806Y-91325564D01*
X141624805Y-91325565D01*
X141562486Y-91394778D01*
X141501440Y-91462576D01*
X141405953Y-91627964D01*
X141346938Y-91809592D01*
X141326976Y-91999520D01*
X128970420Y-91999520D01*
X128970420Y-91174243D01*
X128963665Y-91112061D01*
X128912535Y-90975672D01*
X128825181Y-90859116D01*
X128708625Y-90771762D01*
X128589607Y-90727144D01*
X128532843Y-90684502D01*
X128508143Y-90617941D01*
X128523350Y-90548592D01*
X128544897Y-90519912D01*
X128565360Y-90499520D01*
X144472916Y-90499520D01*
X144492878Y-90689448D01*
X144551893Y-90871076D01*
X144647380Y-91036464D01*
X144651798Y-91041371D01*
X144651799Y-91041372D01*
X144679579Y-91072225D01*
X144775167Y-91178386D01*
X144929668Y-91290638D01*
X144935696Y-91293322D01*
X144935698Y-91293323D01*
X145098101Y-91365629D01*
X145104132Y-91368314D01*
X145197533Y-91388167D01*
X145284476Y-91406648D01*
X145284481Y-91406648D01*
X145290933Y-91408020D01*
X145481907Y-91408020D01*
X145488359Y-91406648D01*
X145488364Y-91406648D01*
X145575308Y-91388167D01*
X145668708Y-91368314D01*
X145674739Y-91365629D01*
X145837142Y-91293323D01*
X145837144Y-91293322D01*
X145843172Y-91290638D01*
X145997673Y-91178386D01*
X146093261Y-91072225D01*
X146121041Y-91041372D01*
X146121042Y-91041371D01*
X146125460Y-91036464D01*
X146220947Y-90871076D01*
X146279962Y-90689448D01*
X146299924Y-90499520D01*
X146279962Y-90309592D01*
X146220947Y-90127964D01*
X146125460Y-89962576D01*
X145997673Y-89820654D01*
X145862015Y-89722092D01*
X145848514Y-89712283D01*
X145848513Y-89712282D01*
X145843172Y-89708402D01*
X145837144Y-89705718D01*
X145837142Y-89705717D01*
X145674739Y-89633411D01*
X145674738Y-89633411D01*
X145668708Y-89630726D01*
X145575307Y-89610873D01*
X145488364Y-89592392D01*
X145488359Y-89592392D01*
X145481907Y-89591020D01*
X145290933Y-89591020D01*
X145284481Y-89592392D01*
X145284476Y-89592392D01*
X145197533Y-89610873D01*
X145104132Y-89630726D01*
X145098102Y-89633411D01*
X145098101Y-89633411D01*
X144935698Y-89705717D01*
X144935696Y-89705718D01*
X144929668Y-89708402D01*
X144924327Y-89712282D01*
X144924326Y-89712283D01*
X144910825Y-89722092D01*
X144775167Y-89820654D01*
X144647380Y-89962576D01*
X144551893Y-90127964D01*
X144492878Y-90309592D01*
X144472916Y-90499520D01*
X128565360Y-90499520D01*
X128645972Y-90419189D01*
X128652650Y-90411342D01*
X128776923Y-90238397D01*
X128782233Y-90229560D01*
X128876590Y-90038644D01*
X128880389Y-90029049D01*
X128942297Y-89825287D01*
X128944475Y-89815214D01*
X128945906Y-89804339D01*
X128943695Y-89790155D01*
X128930537Y-89786377D01*
X127483920Y-89786377D01*
X127415799Y-89766375D01*
X127369306Y-89712719D01*
X127357920Y-89660377D01*
X127357920Y-89260262D01*
X127865920Y-89260262D01*
X127870395Y-89275501D01*
X127871785Y-89276706D01*
X127879468Y-89278377D01*
X128930264Y-89278377D01*
X128943795Y-89274404D01*
X128945100Y-89265324D01*
X128903134Y-89098252D01*
X128899814Y-89088501D01*
X128814892Y-88893191D01*
X128810025Y-88884116D01*
X128694346Y-88705303D01*
X128688056Y-88697134D01*
X128544726Y-88539617D01*
X128537193Y-88532592D01*
X128370059Y-88400599D01*
X128361472Y-88394894D01*
X128324036Y-88374228D01*
X128274066Y-88323796D01*
X128259294Y-88254353D01*
X128284410Y-88187948D01*
X128311762Y-88161341D01*
X128487247Y-88036169D01*
X128495120Y-88029516D01*
X128645972Y-87879189D01*
X128652650Y-87871342D01*
X128736917Y-87754072D01*
X133609171Y-87754072D01*
X133609468Y-87759225D01*
X133609468Y-87759228D01*
X133620377Y-87948419D01*
X133622030Y-87977092D01*
X133623167Y-87982138D01*
X133623168Y-87982144D01*
X133638999Y-88052387D01*
X133671142Y-88195016D01*
X133723411Y-88323741D01*
X133745005Y-88376919D01*
X133755186Y-88401993D01*
X133805783Y-88484560D01*
X133869211Y-88588065D01*
X133871907Y-88592465D01*
X134018170Y-88761315D01*
X134190046Y-88904009D01*
X134382920Y-89016715D01*
X134591612Y-89096407D01*
X134596680Y-89097438D01*
X134596683Y-89097439D01*
X134691782Y-89116787D01*
X134810517Y-89140944D01*
X134815692Y-89141134D01*
X134815694Y-89141134D01*
X135028593Y-89148941D01*
X135028597Y-89148941D01*
X135033757Y-89149130D01*
X135038877Y-89148474D01*
X135038879Y-89148474D01*
X135250208Y-89121402D01*
X135250209Y-89121402D01*
X135255336Y-89120745D01*
X135260286Y-89119260D01*
X135464349Y-89058038D01*
X135464354Y-89058036D01*
X135469304Y-89056551D01*
X135669914Y-88958273D01*
X135851780Y-88828550D01*
X136010016Y-88670866D01*
X136069514Y-88588066D01*
X136140373Y-88489454D01*
X136141696Y-88490405D01*
X136188565Y-88447234D01*
X136258500Y-88435002D01*
X136323946Y-88462521D01*
X136351795Y-88494371D01*
X136411907Y-88592465D01*
X136558170Y-88761315D01*
X136730046Y-88904009D01*
X136922920Y-89016715D01*
X137131612Y-89096407D01*
X137136680Y-89097438D01*
X137136683Y-89097439D01*
X137231782Y-89116787D01*
X137350517Y-89140944D01*
X137355692Y-89141134D01*
X137355694Y-89141134D01*
X137568593Y-89148941D01*
X137568597Y-89148941D01*
X137573757Y-89149130D01*
X137578877Y-89148474D01*
X137578879Y-89148474D01*
X137790208Y-89121402D01*
X137790209Y-89121402D01*
X137795336Y-89120745D01*
X137800286Y-89119260D01*
X138004349Y-89058038D01*
X138004354Y-89058036D01*
X138009304Y-89056551D01*
X138209914Y-88958273D01*
X138391780Y-88828550D01*
X138550016Y-88670866D01*
X138609514Y-88588066D01*
X138680373Y-88489454D01*
X138681560Y-88490307D01*
X138728880Y-88446739D01*
X138798817Y-88434522D01*
X138864258Y-88462055D01*
X138892086Y-88493888D01*
X138949614Y-88587765D01*
X138955697Y-88596076D01*
X139095133Y-88757044D01*
X139102500Y-88764260D01*
X139266354Y-88900293D01*
X139274801Y-88906208D01*
X139458676Y-89013656D01*
X139467962Y-89018106D01*
X139666921Y-89094080D01*
X139676819Y-89096956D01*
X139780170Y-89117983D01*
X139794219Y-89116787D01*
X139797920Y-89106442D01*
X139797920Y-89105894D01*
X140305920Y-89105894D01*
X140309984Y-89119736D01*
X140323398Y-89121770D01*
X140330104Y-89120911D01*
X140340182Y-89118769D01*
X140544175Y-89057568D01*
X140553762Y-89053810D01*
X140745015Y-88960116D01*
X140753865Y-88954841D01*
X140927248Y-88831169D01*
X140935120Y-88824516D01*
X141085972Y-88674189D01*
X141092650Y-88666342D01*
X141216923Y-88493397D01*
X141222233Y-88484560D01*
X141316590Y-88293644D01*
X141320389Y-88284049D01*
X141382297Y-88080287D01*
X141384475Y-88070214D01*
X141385906Y-88059339D01*
X141383695Y-88045155D01*
X141370537Y-88041377D01*
X140324035Y-88041377D01*
X140308796Y-88045852D01*
X140307591Y-88047242D01*
X140305920Y-88054925D01*
X140305920Y-89105894D01*
X139797920Y-89105894D01*
X139797920Y-87659377D01*
X139817922Y-87591256D01*
X139823193Y-87586689D01*
X151324981Y-87586689D01*
X151325351Y-87593510D01*
X151330875Y-87644372D01*
X151334501Y-87659624D01*
X151379656Y-87780074D01*
X151388194Y-87795669D01*
X151464695Y-87897744D01*
X151477256Y-87910305D01*
X151579331Y-87986806D01*
X151594926Y-87995344D01*
X151715374Y-88040498D01*
X151730629Y-88044125D01*
X151781494Y-88049651D01*
X151788308Y-88050020D01*
X153060865Y-88050020D01*
X153076104Y-88045545D01*
X153077309Y-88044155D01*
X153078980Y-88036472D01*
X153078980Y-88031904D01*
X153586980Y-88031904D01*
X153591455Y-88047143D01*
X153592845Y-88048348D01*
X153600528Y-88050019D01*
X154877649Y-88050019D01*
X154884470Y-88049649D01*
X154935332Y-88044125D01*
X154950584Y-88040499D01*
X155071034Y-87995344D01*
X155086629Y-87986806D01*
X155188704Y-87910305D01*
X155201265Y-87897744D01*
X155277766Y-87795669D01*
X155286304Y-87780074D01*
X155331458Y-87659626D01*
X155335085Y-87644371D01*
X155340611Y-87593506D01*
X155340980Y-87586692D01*
X155340980Y-86314135D01*
X155336505Y-86298896D01*
X155335115Y-86297691D01*
X155327432Y-86296020D01*
X153605095Y-86296020D01*
X153589856Y-86300495D01*
X153588651Y-86301885D01*
X153586980Y-86309568D01*
X153586980Y-88031904D01*
X153078980Y-88031904D01*
X153078980Y-86314135D01*
X153074505Y-86298896D01*
X153073115Y-86297691D01*
X153065432Y-86296020D01*
X151343096Y-86296020D01*
X151327857Y-86300495D01*
X151326652Y-86301885D01*
X151324981Y-86309568D01*
X151324981Y-87586689D01*
X139823193Y-87586689D01*
X139871578Y-87544763D01*
X139923920Y-87533377D01*
X141370264Y-87533377D01*
X141383795Y-87529404D01*
X141385100Y-87520324D01*
X141343134Y-87353252D01*
X141339814Y-87343501D01*
X141254892Y-87148191D01*
X141250025Y-87139116D01*
X141134346Y-86960303D01*
X141128056Y-86952134D01*
X140984213Y-86794054D01*
X140953161Y-86730208D01*
X140961555Y-86659710D01*
X141006732Y-86604941D01*
X141033176Y-86591272D01*
X141119619Y-86558866D01*
X141148625Y-86547992D01*
X141265181Y-86460638D01*
X141352535Y-86344082D01*
X141403665Y-86207693D01*
X141410420Y-86145511D01*
X141410420Y-86020938D01*
X156319897Y-86020938D01*
X156335662Y-86294340D01*
X156336487Y-86298545D01*
X156336488Y-86298553D01*
X156364807Y-86442893D01*
X156388385Y-86563073D01*
X156389772Y-86567123D01*
X156389773Y-86567128D01*
X156468523Y-86797136D01*
X156477092Y-86822164D01*
X156495167Y-86858102D01*
X156570777Y-87008436D01*
X156600140Y-87066819D01*
X156602566Y-87070348D01*
X156602569Y-87070354D01*
X156698441Y-87209847D01*
X156755254Y-87292510D01*
X156939562Y-87495063D01*
X156942857Y-87497818D01*
X156942858Y-87497819D01*
X156980634Y-87529404D01*
X157149655Y-87670727D01*
X157153296Y-87673011D01*
X157378004Y-87813971D01*
X157378008Y-87813973D01*
X157381644Y-87816254D01*
X157449524Y-87846903D01*
X157627325Y-87927184D01*
X157627329Y-87927186D01*
X157631237Y-87928950D01*
X157635357Y-87930170D01*
X157635356Y-87930170D01*
X157889703Y-88005511D01*
X157889707Y-88005512D01*
X157893816Y-88006729D01*
X157898050Y-88007377D01*
X157898055Y-88007378D01*
X158160278Y-88047503D01*
X158160280Y-88047503D01*
X158164520Y-88048152D01*
X158303892Y-88050342D01*
X158434051Y-88052387D01*
X158434057Y-88052387D01*
X158438342Y-88052454D01*
X158710215Y-88019554D01*
X158975107Y-87950061D01*
X158979067Y-87948421D01*
X158979072Y-87948419D01*
X159145422Y-87879514D01*
X159228116Y-87845261D01*
X159464562Y-87707093D01*
X159680069Y-87538114D01*
X159684660Y-87533377D01*
X159804039Y-87410187D01*
X159870649Y-87341451D01*
X159873182Y-87338003D01*
X159873186Y-87337998D01*
X160030237Y-87124198D01*
X160032775Y-87120743D01*
X160039197Y-87108915D01*
X160161398Y-86883850D01*
X160161399Y-86883848D01*
X160163448Y-86880074D01*
X160242991Y-86669569D01*
X160258731Y-86627915D01*
X160258732Y-86627911D01*
X160260249Y-86623897D01*
X160307798Y-86416286D01*
X160320429Y-86361137D01*
X160320430Y-86361133D01*
X160321387Y-86356953D01*
X160321895Y-86351268D01*
X160345511Y-86086647D01*
X160345511Y-86086645D01*
X160345731Y-86084181D01*
X160346064Y-86052465D01*
X160346147Y-86044504D01*
X160346147Y-86044503D01*
X160346173Y-86042020D01*
X160344736Y-86020938D01*
X161319897Y-86020938D01*
X161335662Y-86294340D01*
X161336487Y-86298545D01*
X161336488Y-86298553D01*
X161364807Y-86442893D01*
X161388385Y-86563073D01*
X161389772Y-86567123D01*
X161389773Y-86567128D01*
X161468523Y-86797136D01*
X161477092Y-86822164D01*
X161495167Y-86858102D01*
X161570777Y-87008436D01*
X161600140Y-87066819D01*
X161602566Y-87070348D01*
X161602569Y-87070354D01*
X161698441Y-87209847D01*
X161755254Y-87292510D01*
X161939562Y-87495063D01*
X161942857Y-87497818D01*
X161942858Y-87497819D01*
X161980634Y-87529404D01*
X162149655Y-87670727D01*
X162153296Y-87673011D01*
X162378004Y-87813971D01*
X162378008Y-87813973D01*
X162381644Y-87816254D01*
X162449524Y-87846903D01*
X162627325Y-87927184D01*
X162627329Y-87927186D01*
X162631237Y-87928950D01*
X162635357Y-87930170D01*
X162635356Y-87930170D01*
X162889703Y-88005511D01*
X162889707Y-88005512D01*
X162893816Y-88006729D01*
X162898050Y-88007377D01*
X162898055Y-88007378D01*
X163160278Y-88047503D01*
X163160280Y-88047503D01*
X163164520Y-88048152D01*
X163303892Y-88050342D01*
X163434051Y-88052387D01*
X163434057Y-88052387D01*
X163438342Y-88052454D01*
X163710215Y-88019554D01*
X163975107Y-87950061D01*
X163979067Y-87948421D01*
X163979072Y-87948419D01*
X164145422Y-87879514D01*
X164228116Y-87845261D01*
X164464562Y-87707093D01*
X164680069Y-87538114D01*
X164684660Y-87533377D01*
X164804039Y-87410187D01*
X164870649Y-87341451D01*
X164873182Y-87338003D01*
X164873186Y-87337998D01*
X165030237Y-87124198D01*
X165032775Y-87120743D01*
X165039197Y-87108915D01*
X165161398Y-86883850D01*
X165161399Y-86883848D01*
X165163448Y-86880074D01*
X165242991Y-86669569D01*
X165258731Y-86627915D01*
X165258732Y-86627911D01*
X165260249Y-86623897D01*
X165307798Y-86416286D01*
X165320429Y-86361137D01*
X165320430Y-86361133D01*
X165321387Y-86356953D01*
X165321895Y-86351268D01*
X165345511Y-86086647D01*
X165345511Y-86086645D01*
X165345731Y-86084181D01*
X165346064Y-86052465D01*
X165346147Y-86044504D01*
X165346147Y-86044503D01*
X165346173Y-86042020D01*
X165344736Y-86020938D01*
X166319897Y-86020938D01*
X166335662Y-86294340D01*
X166336487Y-86298545D01*
X166336488Y-86298553D01*
X166364807Y-86442893D01*
X166388385Y-86563073D01*
X166389772Y-86567123D01*
X166389773Y-86567128D01*
X166468523Y-86797136D01*
X166477092Y-86822164D01*
X166495167Y-86858102D01*
X166570777Y-87008436D01*
X166600140Y-87066819D01*
X166602566Y-87070348D01*
X166602569Y-87070354D01*
X166698441Y-87209847D01*
X166755254Y-87292510D01*
X166939562Y-87495063D01*
X166942857Y-87497818D01*
X166942858Y-87497819D01*
X166980634Y-87529404D01*
X167149655Y-87670727D01*
X167153296Y-87673011D01*
X167378004Y-87813971D01*
X167378008Y-87813973D01*
X167381644Y-87816254D01*
X167449524Y-87846903D01*
X167627325Y-87927184D01*
X167627329Y-87927186D01*
X167631237Y-87928950D01*
X167635357Y-87930170D01*
X167635356Y-87930170D01*
X167889703Y-88005511D01*
X167889707Y-88005512D01*
X167893816Y-88006729D01*
X167898050Y-88007377D01*
X167898055Y-88007378D01*
X168160278Y-88047503D01*
X168160280Y-88047503D01*
X168164520Y-88048152D01*
X168303892Y-88050342D01*
X168434051Y-88052387D01*
X168434057Y-88052387D01*
X168438342Y-88052454D01*
X168710215Y-88019554D01*
X168975107Y-87950061D01*
X168979067Y-87948421D01*
X168979072Y-87948419D01*
X169145422Y-87879514D01*
X169228116Y-87845261D01*
X169464562Y-87707093D01*
X169680069Y-87538114D01*
X169684660Y-87533377D01*
X169804039Y-87410187D01*
X169870649Y-87341451D01*
X169873182Y-87338003D01*
X169873186Y-87337998D01*
X170030237Y-87124198D01*
X170032775Y-87120743D01*
X170039197Y-87108915D01*
X170161398Y-86883850D01*
X170161399Y-86883848D01*
X170163448Y-86880074D01*
X170242991Y-86669569D01*
X170258731Y-86627915D01*
X170258732Y-86627911D01*
X170260249Y-86623897D01*
X170291130Y-86489062D01*
X177216650Y-86489062D01*
X177233694Y-86662883D01*
X177235918Y-86669568D01*
X177235918Y-86669569D01*
X177257486Y-86734404D01*
X177288824Y-86828610D01*
X177292471Y-86834632D01*
X177292472Y-86834634D01*
X177368393Y-86959994D01*
X177379300Y-86978004D01*
X177500625Y-87103640D01*
X177510005Y-87109778D01*
X177620513Y-87182092D01*
X177646771Y-87199275D01*
X177653375Y-87201731D01*
X177653377Y-87201732D01*
X177675198Y-87209847D01*
X177810472Y-87260155D01*
X177817457Y-87261087D01*
X177976612Y-87282323D01*
X177976616Y-87282323D01*
X177983593Y-87283254D01*
X177990604Y-87282616D01*
X177990608Y-87282616D01*
X178150512Y-87268064D01*
X178150515Y-87268063D01*
X178157530Y-87267425D01*
X178210681Y-87250155D01*
X178316941Y-87215629D01*
X178316943Y-87215628D01*
X178323637Y-87213453D01*
X178445809Y-87140624D01*
X178467607Y-87127630D01*
X178467609Y-87127629D01*
X178473659Y-87124022D01*
X178537584Y-87063147D01*
X178600709Y-87030655D01*
X178671380Y-87037448D01*
X178715113Y-87066866D01*
X178750625Y-87103640D01*
X178760005Y-87109778D01*
X178870513Y-87182092D01*
X178896771Y-87199275D01*
X178903375Y-87201731D01*
X178903377Y-87201732D01*
X178925198Y-87209847D01*
X179060472Y-87260155D01*
X179067457Y-87261087D01*
X179226612Y-87282323D01*
X179226616Y-87282323D01*
X179233593Y-87283254D01*
X179240604Y-87282616D01*
X179240608Y-87282616D01*
X179400512Y-87268064D01*
X179400515Y-87268063D01*
X179407530Y-87267425D01*
X179460681Y-87250155D01*
X179566941Y-87215629D01*
X179566943Y-87215628D01*
X179573637Y-87213453D01*
X179695809Y-87140624D01*
X179717607Y-87127630D01*
X179717609Y-87127629D01*
X179723659Y-87124022D01*
X179850139Y-87003577D01*
X179932194Y-86880074D01*
X179942891Y-86863974D01*
X179942892Y-86863972D01*
X179946792Y-86858102D01*
X180008813Y-86694830D01*
X180027922Y-86558866D01*
X180032570Y-86525797D01*
X180032570Y-86525794D01*
X180033121Y-86521875D01*
X180033426Y-86500000D01*
X180013957Y-86326433D01*
X180011389Y-86319057D01*
X179968053Y-86194615D01*
X179956519Y-86161493D01*
X179863966Y-86013377D01*
X179855501Y-86004852D01*
X179815310Y-85964380D01*
X179781503Y-85901949D01*
X179786815Y-85831152D01*
X179817824Y-85784350D01*
X179834155Y-85768798D01*
X179850139Y-85753577D01*
X179920355Y-85647893D01*
X179942891Y-85613974D01*
X179942892Y-85613972D01*
X179946792Y-85608102D01*
X180008813Y-85444830D01*
X180033121Y-85271875D01*
X180033426Y-85250000D01*
X180013957Y-85076433D01*
X179956519Y-84911493D01*
X179863966Y-84763377D01*
X179855501Y-84754852D01*
X179815310Y-84714380D01*
X179781503Y-84651949D01*
X179786815Y-84581152D01*
X179817824Y-84534350D01*
X179850139Y-84503577D01*
X179946792Y-84358102D01*
X180008813Y-84194830D01*
X180026562Y-84068545D01*
X180032570Y-84025797D01*
X180032570Y-84025794D01*
X180033121Y-84021875D01*
X180033426Y-84000000D01*
X180013957Y-83826433D01*
X180006100Y-83803869D01*
X179958837Y-83668150D01*
X179956519Y-83661493D01*
X179914667Y-83594515D01*
X179904252Y-83577848D01*
X179885116Y-83509478D01*
X179905981Y-83441617D01*
X179960223Y-83395809D01*
X180030619Y-83386598D01*
X180080099Y-83405646D01*
X180117174Y-83429907D01*
X180146771Y-83449275D01*
X180153375Y-83451731D01*
X180153377Y-83451732D01*
X180175198Y-83459847D01*
X180310472Y-83510155D01*
X180317457Y-83511087D01*
X180476612Y-83532323D01*
X180476616Y-83532323D01*
X180483593Y-83533254D01*
X180490604Y-83532616D01*
X180490608Y-83532616D01*
X180650512Y-83518064D01*
X180650515Y-83518063D01*
X180657530Y-83517425D01*
X180696225Y-83504852D01*
X180816941Y-83465629D01*
X180816943Y-83465628D01*
X180823637Y-83463453D01*
X180973659Y-83374022D01*
X181100139Y-83253577D01*
X181163351Y-83158435D01*
X181192891Y-83113974D01*
X181192892Y-83113972D01*
X181196792Y-83108102D01*
X181258813Y-82944830D01*
X181283121Y-82771875D01*
X181283426Y-82750000D01*
X181263957Y-82576433D01*
X181206519Y-82411493D01*
X181154252Y-82327848D01*
X181135116Y-82259478D01*
X181155981Y-82191617D01*
X181210223Y-82145809D01*
X181280619Y-82136598D01*
X181330098Y-82155646D01*
X181396771Y-82199275D01*
X181403375Y-82201731D01*
X181403377Y-82201732D01*
X181425198Y-82209847D01*
X181560472Y-82260155D01*
X181567457Y-82261087D01*
X181726612Y-82282323D01*
X181726616Y-82282323D01*
X181733593Y-82283254D01*
X181740604Y-82282616D01*
X181740608Y-82282616D01*
X181900512Y-82268064D01*
X181900515Y-82268063D01*
X181907530Y-82267425D01*
X181946225Y-82254852D01*
X182066941Y-82215629D01*
X182066943Y-82215628D01*
X182073637Y-82213453D01*
X182223659Y-82124022D01*
X182350139Y-82003577D01*
X182446792Y-81858102D01*
X182508813Y-81694830D01*
X182533121Y-81521875D01*
X182533426Y-81500000D01*
X182513957Y-81326433D01*
X182456519Y-81161493D01*
X182404252Y-81077848D01*
X182385116Y-81009478D01*
X182405981Y-80941617D01*
X182460223Y-80895809D01*
X182530619Y-80886598D01*
X182580098Y-80905646D01*
X182646771Y-80949275D01*
X182653375Y-80951731D01*
X182653377Y-80951732D01*
X182675198Y-80959847D01*
X182810472Y-81010155D01*
X182817457Y-81011087D01*
X182976612Y-81032323D01*
X182976616Y-81032323D01*
X182983593Y-81033254D01*
X182990604Y-81032616D01*
X182990608Y-81032616D01*
X183150512Y-81018064D01*
X183150515Y-81018063D01*
X183157530Y-81017425D01*
X183196225Y-81004852D01*
X183316941Y-80965629D01*
X183316943Y-80965628D01*
X183323637Y-80963453D01*
X183473659Y-80874022D01*
X183600139Y-80753577D01*
X183696792Y-80608102D01*
X183758813Y-80444830D01*
X183773029Y-80343680D01*
X183782570Y-80275797D01*
X183782570Y-80275794D01*
X183783121Y-80271875D01*
X183783426Y-80250000D01*
X183763957Y-80076433D01*
X183706519Y-79911493D01*
X183613966Y-79763377D01*
X183605501Y-79754852D01*
X183535646Y-79684508D01*
X183490898Y-79639446D01*
X183480193Y-79632652D01*
X183433590Y-79603077D01*
X183343431Y-79545861D01*
X183315625Y-79535960D01*
X183185531Y-79489635D01*
X183185526Y-79489634D01*
X183178896Y-79487273D01*
X183171908Y-79486440D01*
X183171905Y-79486439D01*
X183054334Y-79472420D01*
X183005469Y-79466593D01*
X182998467Y-79467329D01*
X182998465Y-79467329D01*
X182838771Y-79484114D01*
X182838769Y-79484114D01*
X182831771Y-79484850D01*
X182666433Y-79541135D01*
X182611225Y-79575099D01*
X182523677Y-79628959D01*
X182523674Y-79628961D01*
X182517675Y-79632652D01*
X182488528Y-79661195D01*
X182463330Y-79685870D01*
X182400665Y-79719240D01*
X182329906Y-79713434D01*
X182285766Y-79684629D01*
X182282323Y-79681161D01*
X182240898Y-79639446D01*
X182230193Y-79632652D01*
X182183590Y-79603077D01*
X182093431Y-79545861D01*
X182065625Y-79535960D01*
X181935531Y-79489635D01*
X181935526Y-79489634D01*
X181928896Y-79487273D01*
X181921908Y-79486440D01*
X181921905Y-79486439D01*
X181804334Y-79472420D01*
X181755469Y-79466593D01*
X181748467Y-79467329D01*
X181748465Y-79467329D01*
X181588771Y-79484114D01*
X181588769Y-79484114D01*
X181581771Y-79484850D01*
X181416433Y-79541135D01*
X181361225Y-79575099D01*
X181273677Y-79628959D01*
X181273674Y-79628961D01*
X181267675Y-79632652D01*
X181238528Y-79661195D01*
X181213330Y-79685870D01*
X181150665Y-79719240D01*
X181079906Y-79713434D01*
X181035766Y-79684629D01*
X181032323Y-79681161D01*
X180990898Y-79639446D01*
X180980193Y-79632652D01*
X180933590Y-79603077D01*
X180843431Y-79545861D01*
X180815625Y-79535960D01*
X180685531Y-79489635D01*
X180685526Y-79489634D01*
X180678896Y-79487273D01*
X180671908Y-79486440D01*
X180671905Y-79486439D01*
X180554334Y-79472420D01*
X180505469Y-79466593D01*
X180498467Y-79467329D01*
X180498465Y-79467329D01*
X180338771Y-79484114D01*
X180338769Y-79484114D01*
X180331771Y-79484850D01*
X180166433Y-79541135D01*
X180111225Y-79575099D01*
X180023677Y-79628959D01*
X180023674Y-79628961D01*
X180017675Y-79632652D01*
X179988528Y-79661195D01*
X179963330Y-79685870D01*
X179900665Y-79719240D01*
X179829906Y-79713434D01*
X179785766Y-79684629D01*
X179782323Y-79681161D01*
X179740898Y-79639446D01*
X179730193Y-79632652D01*
X179683590Y-79603077D01*
X179593431Y-79545861D01*
X179565625Y-79535960D01*
X179435531Y-79489635D01*
X179435526Y-79489634D01*
X179428896Y-79487273D01*
X179421908Y-79486440D01*
X179421905Y-79486439D01*
X179304334Y-79472420D01*
X179255469Y-79466593D01*
X179248467Y-79467329D01*
X179248465Y-79467329D01*
X179088771Y-79484114D01*
X179088769Y-79484114D01*
X179081771Y-79484850D01*
X178916433Y-79541135D01*
X178861225Y-79575099D01*
X178773677Y-79628959D01*
X178773674Y-79628961D01*
X178767675Y-79632652D01*
X178738528Y-79661195D01*
X178713330Y-79685870D01*
X178650665Y-79719240D01*
X178579906Y-79713434D01*
X178535766Y-79684629D01*
X178532323Y-79681161D01*
X178490898Y-79639446D01*
X178480193Y-79632652D01*
X178433590Y-79603077D01*
X178343431Y-79545861D01*
X178315625Y-79535960D01*
X178185531Y-79489635D01*
X178185526Y-79489634D01*
X178178896Y-79487273D01*
X178171908Y-79486440D01*
X178171905Y-79486439D01*
X178054334Y-79472420D01*
X178005469Y-79466593D01*
X177998467Y-79467329D01*
X177998465Y-79467329D01*
X177838771Y-79484114D01*
X177838769Y-79484114D01*
X177831771Y-79484850D01*
X177666433Y-79541135D01*
X177611225Y-79575099D01*
X177523677Y-79628959D01*
X177523674Y-79628961D01*
X177517675Y-79632652D01*
X177392888Y-79754852D01*
X177298276Y-79901661D01*
X177295867Y-79908281D01*
X177295865Y-79908284D01*
X177240949Y-80059165D01*
X177238540Y-80065784D01*
X177216650Y-80239062D01*
X177233694Y-80412883D01*
X177288824Y-80578610D01*
X177379300Y-80728004D01*
X177384190Y-80733068D01*
X177384191Y-80733069D01*
X177436393Y-80787126D01*
X177469325Y-80850023D01*
X177463025Y-80920740D01*
X177433914Y-80964676D01*
X177432941Y-80965629D01*
X177392888Y-81004852D01*
X177298276Y-81151661D01*
X177238540Y-81315784D01*
X177216650Y-81489062D01*
X177233694Y-81662883D01*
X177288824Y-81828610D01*
X177379300Y-81978004D01*
X177384190Y-81983068D01*
X177384191Y-81983069D01*
X177436393Y-82037126D01*
X177469325Y-82100023D01*
X177463025Y-82170740D01*
X177433914Y-82214676D01*
X177432941Y-82215629D01*
X177392888Y-82254852D01*
X177298276Y-82401661D01*
X177238540Y-82565784D01*
X177216650Y-82739062D01*
X177233694Y-82912883D01*
X177288824Y-83078610D01*
X177292471Y-83084632D01*
X177292472Y-83084634D01*
X177366755Y-83207289D01*
X177379300Y-83228004D01*
X177384190Y-83233068D01*
X177384191Y-83233069D01*
X177436393Y-83287126D01*
X177469325Y-83350023D01*
X177463025Y-83420740D01*
X177433914Y-83464676D01*
X177432941Y-83465629D01*
X177392888Y-83504852D01*
X177298276Y-83651661D01*
X177295867Y-83658281D01*
X177295865Y-83658284D01*
X177241294Y-83808217D01*
X177238540Y-83815784D01*
X177216650Y-83989062D01*
X177233694Y-84162883D01*
X177235918Y-84169568D01*
X177235918Y-84169569D01*
X177255934Y-84229738D01*
X177288824Y-84328610D01*
X177292471Y-84334632D01*
X177292472Y-84334634D01*
X177365818Y-84455742D01*
X177379300Y-84478004D01*
X177384190Y-84483068D01*
X177384191Y-84483069D01*
X177436393Y-84537126D01*
X177469325Y-84600023D01*
X177463025Y-84670740D01*
X177433914Y-84714676D01*
X177407599Y-84740446D01*
X177392888Y-84754852D01*
X177389069Y-84760777D01*
X177389068Y-84760779D01*
X177377595Y-84778582D01*
X177298276Y-84901661D01*
X177295867Y-84908281D01*
X177295865Y-84908284D01*
X177264075Y-84995627D01*
X177238540Y-85065784D01*
X177216650Y-85239062D01*
X177233694Y-85412883D01*
X177235918Y-85419568D01*
X177235918Y-85419569D01*
X177238162Y-85426315D01*
X177288824Y-85578610D01*
X177292471Y-85584632D01*
X177292472Y-85584634D01*
X177375374Y-85721521D01*
X177379300Y-85728004D01*
X177384190Y-85733068D01*
X177384191Y-85733069D01*
X177436393Y-85787126D01*
X177469325Y-85850023D01*
X177463025Y-85920740D01*
X177433914Y-85964676D01*
X177397925Y-85999919D01*
X177392888Y-86004852D01*
X177389069Y-86010777D01*
X177389068Y-86010779D01*
X177302239Y-86145511D01*
X177298276Y-86151661D01*
X177295867Y-86158281D01*
X177295865Y-86158284D01*
X177244687Y-86298896D01*
X177238540Y-86315784D01*
X177216650Y-86489062D01*
X170291130Y-86489062D01*
X170307798Y-86416286D01*
X170320429Y-86361137D01*
X170320430Y-86361133D01*
X170321387Y-86356953D01*
X170321895Y-86351268D01*
X170345511Y-86086647D01*
X170345511Y-86086645D01*
X170345731Y-86084181D01*
X170346064Y-86052465D01*
X170346147Y-86044504D01*
X170346147Y-86044503D01*
X170346173Y-86042020D01*
X170344445Y-86016668D01*
X170327839Y-85773075D01*
X170327838Y-85773069D01*
X170327547Y-85768798D01*
X170326017Y-85761407D01*
X170272881Y-85504829D01*
X170272012Y-85500632D01*
X170180597Y-85242485D01*
X170054993Y-84999132D01*
X170049944Y-84991947D01*
X169899988Y-84778582D01*
X169897525Y-84775077D01*
X169783108Y-84651949D01*
X169714026Y-84577608D01*
X169714023Y-84577605D01*
X169711105Y-84574465D01*
X169707790Y-84571751D01*
X169707786Y-84571748D01*
X169502503Y-84403726D01*
X169499185Y-84401010D01*
X169265684Y-84257921D01*
X169257326Y-84254252D01*
X169018853Y-84149569D01*
X169018849Y-84149568D01*
X169014925Y-84147845D01*
X168751546Y-84072820D01*
X168747304Y-84072216D01*
X168747298Y-84072215D01*
X168545824Y-84043541D01*
X168480423Y-84034233D01*
X168336569Y-84033480D01*
X168210857Y-84032822D01*
X168210851Y-84032822D01*
X168206571Y-84032800D01*
X168202327Y-84033359D01*
X168202323Y-84033359D01*
X168094396Y-84047568D01*
X167935058Y-84068545D01*
X167930918Y-84069678D01*
X167930916Y-84069678D01*
X167861398Y-84088696D01*
X167670908Y-84140808D01*
X167666960Y-84142492D01*
X167422962Y-84246566D01*
X167422958Y-84246568D01*
X167419010Y-84248252D01*
X167354165Y-84287061D01*
X167187705Y-84386684D01*
X167187701Y-84386687D01*
X167184023Y-84388888D01*
X166970298Y-84560114D01*
X166901462Y-84632652D01*
X166790180Y-84749919D01*
X166781788Y-84758762D01*
X166621982Y-84981156D01*
X166493837Y-85223181D01*
X166492365Y-85227204D01*
X166492363Y-85227208D01*
X166419500Y-85426315D01*
X166399723Y-85480357D01*
X166341384Y-85747927D01*
X166332516Y-85860599D01*
X166320697Y-86010779D01*
X166319897Y-86020938D01*
X165344736Y-86020938D01*
X165344445Y-86016668D01*
X165327839Y-85773075D01*
X165327838Y-85773069D01*
X165327547Y-85768798D01*
X165326017Y-85761407D01*
X165272881Y-85504829D01*
X165272012Y-85500632D01*
X165180597Y-85242485D01*
X165054993Y-84999132D01*
X165049944Y-84991947D01*
X164899988Y-84778582D01*
X164897525Y-84775077D01*
X164783108Y-84651949D01*
X164714026Y-84577608D01*
X164714023Y-84577605D01*
X164711105Y-84574465D01*
X164707790Y-84571751D01*
X164707786Y-84571748D01*
X164502503Y-84403726D01*
X164499185Y-84401010D01*
X164265684Y-84257921D01*
X164257326Y-84254252D01*
X164018853Y-84149569D01*
X164018849Y-84149568D01*
X164014925Y-84147845D01*
X163751546Y-84072820D01*
X163747304Y-84072216D01*
X163747298Y-84072215D01*
X163545824Y-84043541D01*
X163480423Y-84034233D01*
X163336569Y-84033480D01*
X163210857Y-84032822D01*
X163210851Y-84032822D01*
X163206571Y-84032800D01*
X163202327Y-84033359D01*
X163202323Y-84033359D01*
X163094396Y-84047568D01*
X162935058Y-84068545D01*
X162930918Y-84069678D01*
X162930916Y-84069678D01*
X162861398Y-84088696D01*
X162670908Y-84140808D01*
X162666960Y-84142492D01*
X162422962Y-84246566D01*
X162422958Y-84246568D01*
X162419010Y-84248252D01*
X162354165Y-84287061D01*
X162187705Y-84386684D01*
X162187701Y-84386687D01*
X162184023Y-84388888D01*
X161970298Y-84560114D01*
X161901462Y-84632652D01*
X161790180Y-84749919D01*
X161781788Y-84758762D01*
X161621982Y-84981156D01*
X161493837Y-85223181D01*
X161492365Y-85227204D01*
X161492363Y-85227208D01*
X161419500Y-85426315D01*
X161399723Y-85480357D01*
X161341384Y-85747927D01*
X161332516Y-85860599D01*
X161320697Y-86010779D01*
X161319897Y-86020938D01*
X160344736Y-86020938D01*
X160344445Y-86016668D01*
X160327839Y-85773075D01*
X160327838Y-85773069D01*
X160327547Y-85768798D01*
X160326017Y-85761407D01*
X160272881Y-85504829D01*
X160272012Y-85500632D01*
X160180597Y-85242485D01*
X160054993Y-84999132D01*
X160049944Y-84991947D01*
X159899988Y-84778582D01*
X159897525Y-84775077D01*
X159783108Y-84651949D01*
X159714026Y-84577608D01*
X159714023Y-84577605D01*
X159711105Y-84574465D01*
X159707790Y-84571751D01*
X159707786Y-84571748D01*
X159502503Y-84403726D01*
X159499185Y-84401010D01*
X159265684Y-84257921D01*
X159257326Y-84254252D01*
X159018853Y-84149569D01*
X159018849Y-84149568D01*
X159014925Y-84147845D01*
X158751546Y-84072820D01*
X158747304Y-84072216D01*
X158747298Y-84072215D01*
X158545824Y-84043541D01*
X158480423Y-84034233D01*
X158336569Y-84033480D01*
X158210857Y-84032822D01*
X158210851Y-84032822D01*
X158206571Y-84032800D01*
X158202327Y-84033359D01*
X158202323Y-84033359D01*
X158094396Y-84047568D01*
X157935058Y-84068545D01*
X157930918Y-84069678D01*
X157930916Y-84069678D01*
X157861398Y-84088696D01*
X157670908Y-84140808D01*
X157666960Y-84142492D01*
X157422962Y-84246566D01*
X157422958Y-84246568D01*
X157419010Y-84248252D01*
X157354165Y-84287061D01*
X157187705Y-84386684D01*
X157187701Y-84386687D01*
X157184023Y-84388888D01*
X156970298Y-84560114D01*
X156901462Y-84632652D01*
X156790180Y-84749919D01*
X156781788Y-84758762D01*
X156621982Y-84981156D01*
X156493837Y-85223181D01*
X156492365Y-85227204D01*
X156492363Y-85227208D01*
X156419500Y-85426315D01*
X156399723Y-85480357D01*
X156341384Y-85747927D01*
X156332516Y-85860599D01*
X156320697Y-86010779D01*
X156319897Y-86020938D01*
X141410420Y-86020938D01*
X141410420Y-85769905D01*
X151324980Y-85769905D01*
X151329455Y-85785144D01*
X151330845Y-85786349D01*
X151338528Y-85788020D01*
X153060865Y-85788020D01*
X153076104Y-85783545D01*
X153077309Y-85782155D01*
X153078980Y-85774472D01*
X153078980Y-85769905D01*
X153586980Y-85769905D01*
X153591455Y-85785144D01*
X153592845Y-85786349D01*
X153600528Y-85788020D01*
X155322864Y-85788020D01*
X155338103Y-85783545D01*
X155339308Y-85782155D01*
X155340979Y-85774472D01*
X155340979Y-84497351D01*
X155340609Y-84490530D01*
X155335085Y-84439668D01*
X155331459Y-84424416D01*
X155286304Y-84303966D01*
X155277766Y-84288371D01*
X155201265Y-84186296D01*
X155188704Y-84173735D01*
X155086629Y-84097234D01*
X155071034Y-84088696D01*
X154950586Y-84043542D01*
X154935331Y-84039915D01*
X154884466Y-84034389D01*
X154877652Y-84034020D01*
X153605095Y-84034020D01*
X153589856Y-84038495D01*
X153588651Y-84039885D01*
X153586980Y-84047568D01*
X153586980Y-85769905D01*
X153078980Y-85769905D01*
X153078980Y-84052136D01*
X153074505Y-84036897D01*
X153073115Y-84035692D01*
X153065432Y-84034021D01*
X151788311Y-84034021D01*
X151781490Y-84034391D01*
X151730628Y-84039915D01*
X151715376Y-84043541D01*
X151594926Y-84088696D01*
X151579331Y-84097234D01*
X151477256Y-84173735D01*
X151464695Y-84186296D01*
X151388194Y-84288371D01*
X151379656Y-84303966D01*
X151334502Y-84424414D01*
X151330875Y-84439669D01*
X151325349Y-84490534D01*
X151324980Y-84497348D01*
X151324980Y-85769905D01*
X141410420Y-85769905D01*
X141410420Y-84349243D01*
X141403665Y-84287061D01*
X141352535Y-84150672D01*
X141265181Y-84034116D01*
X141148625Y-83946762D01*
X141012236Y-83895632D01*
X140950054Y-83888877D01*
X139153786Y-83888877D01*
X139091604Y-83895632D01*
X138955215Y-83946762D01*
X138838659Y-84034116D01*
X138751305Y-84150672D01*
X138748153Y-84159080D01*
X138706839Y-84269284D01*
X138664197Y-84326048D01*
X138597636Y-84350748D01*
X138528287Y-84335540D01*
X138495663Y-84309853D01*
X138445071Y-84254252D01*
X138445062Y-84254243D01*
X138441590Y-84250428D01*
X138437539Y-84247229D01*
X138437535Y-84247225D01*
X138270334Y-84115177D01*
X138270330Y-84115175D01*
X138266279Y-84111975D01*
X138070709Y-84004015D01*
X138065840Y-84002291D01*
X138065836Y-84002289D01*
X137865007Y-83931172D01*
X137865003Y-83931171D01*
X137860132Y-83929446D01*
X137855039Y-83928539D01*
X137855036Y-83928538D01*
X137645293Y-83891177D01*
X137645287Y-83891176D01*
X137640204Y-83890271D01*
X137566372Y-83889369D01*
X137422001Y-83887605D01*
X137421999Y-83887605D01*
X137416831Y-83887542D01*
X137196011Y-83921332D01*
X136983676Y-83990734D01*
X136953363Y-84006514D01*
X136823730Y-84073997D01*
X136785527Y-84093884D01*
X136781394Y-84096987D01*
X136781391Y-84096989D01*
X136611020Y-84224907D01*
X136606885Y-84228012D01*
X136579955Y-84256193D01*
X136476957Y-84363974D01*
X136452549Y-84389515D01*
X136345121Y-84546998D01*
X136290213Y-84591998D01*
X136219688Y-84600169D01*
X136155941Y-84568915D01*
X136135244Y-84544431D01*
X136054742Y-84419994D01*
X136054740Y-84419991D01*
X136051934Y-84415654D01*
X135901590Y-84250428D01*
X135897539Y-84247229D01*
X135897535Y-84247225D01*
X135730334Y-84115177D01*
X135730330Y-84115175D01*
X135726279Y-84111975D01*
X135530709Y-84004015D01*
X135525840Y-84002291D01*
X135525836Y-84002289D01*
X135325007Y-83931172D01*
X135325003Y-83931171D01*
X135320132Y-83929446D01*
X135315039Y-83928539D01*
X135315036Y-83928538D01*
X135105293Y-83891177D01*
X135105287Y-83891176D01*
X135100204Y-83890271D01*
X135026372Y-83889369D01*
X134882001Y-83887605D01*
X134881999Y-83887605D01*
X134876831Y-83887542D01*
X134656011Y-83921332D01*
X134443676Y-83990734D01*
X134413363Y-84006514D01*
X134283730Y-84073997D01*
X134245527Y-84093884D01*
X134241394Y-84096987D01*
X134241391Y-84096989D01*
X134071020Y-84224907D01*
X134066885Y-84228012D01*
X134039955Y-84256193D01*
X133936957Y-84363974D01*
X133912549Y-84389515D01*
X133909640Y-84393780D01*
X133909634Y-84393788D01*
X133838990Y-84497348D01*
X133786663Y-84574057D01*
X133763470Y-84624022D01*
X133699311Y-84762242D01*
X133692608Y-84776682D01*
X133632909Y-84991947D01*
X133609171Y-85214072D01*
X133609468Y-85219225D01*
X133609468Y-85219228D01*
X133611419Y-85253065D01*
X133622030Y-85437092D01*
X133623167Y-85442138D01*
X133623168Y-85442144D01*
X133637295Y-85504829D01*
X133671142Y-85655016D01*
X133723332Y-85783545D01*
X133752305Y-85854897D01*
X133755186Y-85861993D01*
X133792605Y-85923055D01*
X133869211Y-86048065D01*
X133871907Y-86052465D01*
X134018170Y-86221315D01*
X134153216Y-86333432D01*
X134176397Y-86352677D01*
X134190046Y-86364009D01*
X134260515Y-86405188D01*
X134263365Y-86406853D01*
X134312089Y-86458491D01*
X134325160Y-86528274D01*
X134298429Y-86594046D01*
X134257975Y-86627404D01*
X134245527Y-86633884D01*
X134241394Y-86636987D01*
X134241391Y-86636989D01*
X134091190Y-86749763D01*
X134066885Y-86768012D01*
X134019012Y-86818108D01*
X133956188Y-86883850D01*
X133912549Y-86929515D01*
X133909640Y-86933780D01*
X133909634Y-86933788D01*
X133891758Y-86959994D01*
X133786663Y-87114057D01*
X133770819Y-87148191D01*
X133708125Y-87283254D01*
X133692608Y-87316682D01*
X133632909Y-87531947D01*
X133609171Y-87754072D01*
X128736917Y-87754072D01*
X128776923Y-87698397D01*
X128782233Y-87689560D01*
X128876590Y-87498644D01*
X128880389Y-87489049D01*
X128942297Y-87285287D01*
X128944475Y-87275214D01*
X128945906Y-87264339D01*
X128943695Y-87250155D01*
X128930537Y-87246377D01*
X127884035Y-87246377D01*
X127868796Y-87250852D01*
X127867591Y-87252242D01*
X127865920Y-87259925D01*
X127865920Y-89260262D01*
X127357920Y-89260262D01*
X127357920Y-86864377D01*
X127377922Y-86796256D01*
X127431578Y-86749763D01*
X127483920Y-86738377D01*
X128930264Y-86738377D01*
X128943795Y-86734404D01*
X128945100Y-86725324D01*
X128903134Y-86558252D01*
X128899814Y-86548501D01*
X128814892Y-86353191D01*
X128810025Y-86344116D01*
X128694346Y-86165303D01*
X128688056Y-86157134D01*
X128544726Y-85999617D01*
X128537193Y-85992592D01*
X128370059Y-85860599D01*
X128361476Y-85854897D01*
X128324522Y-85834497D01*
X128274551Y-85784064D01*
X128259779Y-85714622D01*
X128284895Y-85648216D01*
X128312247Y-85621609D01*
X128364084Y-85584634D01*
X128491780Y-85493550D01*
X128534062Y-85451416D01*
X128646355Y-85339514D01*
X128650016Y-85335866D01*
X128709514Y-85253066D01*
X128777355Y-85158654D01*
X128780373Y-85154454D01*
X128801240Y-85112234D01*
X128877056Y-84958830D01*
X128877057Y-84958828D01*
X128879350Y-84954188D01*
X128944290Y-84740446D01*
X128973449Y-84518967D01*
X128973825Y-84503577D01*
X128974994Y-84455742D01*
X128974994Y-84455738D01*
X128975076Y-84452377D01*
X128956772Y-84229738D01*
X128902351Y-84013079D01*
X128813274Y-83808217D01*
X128714487Y-83655516D01*
X128694742Y-83624994D01*
X128694740Y-83624991D01*
X128691934Y-83620654D01*
X128541590Y-83455428D01*
X128537539Y-83452229D01*
X128537535Y-83452225D01*
X128370334Y-83320177D01*
X128370330Y-83320175D01*
X128366279Y-83316975D01*
X128170709Y-83209015D01*
X128165840Y-83207291D01*
X128165836Y-83207289D01*
X127965007Y-83136172D01*
X127965003Y-83136171D01*
X127960132Y-83134446D01*
X127955039Y-83133539D01*
X127955036Y-83133538D01*
X127745293Y-83096177D01*
X127745287Y-83096176D01*
X127740204Y-83095271D01*
X127666372Y-83094369D01*
X127522001Y-83092605D01*
X127521999Y-83092605D01*
X127516831Y-83092542D01*
X127296011Y-83126332D01*
X127083676Y-83195734D01*
X126885527Y-83298884D01*
X126881394Y-83301987D01*
X126881391Y-83301989D01*
X126711020Y-83429907D01*
X126706885Y-83433012D01*
X126552549Y-83594515D01*
X126445121Y-83751998D01*
X126390213Y-83796998D01*
X126319688Y-83805169D01*
X126255941Y-83773915D01*
X126235244Y-83749431D01*
X126154742Y-83624994D01*
X126154740Y-83624991D01*
X126151934Y-83620654D01*
X126001590Y-83455428D01*
X125997539Y-83452229D01*
X125997535Y-83452225D01*
X125830334Y-83320177D01*
X125830330Y-83320175D01*
X125826279Y-83316975D01*
X125630709Y-83209015D01*
X125625840Y-83207291D01*
X125625836Y-83207289D01*
X125425007Y-83136172D01*
X125425003Y-83136171D01*
X125420132Y-83134446D01*
X125415039Y-83133539D01*
X125415036Y-83133538D01*
X125205293Y-83096177D01*
X125205287Y-83096176D01*
X125200204Y-83095271D01*
X125126372Y-83094369D01*
X124982001Y-83092605D01*
X124981999Y-83092605D01*
X124976831Y-83092542D01*
X124756011Y-83126332D01*
X124543676Y-83195734D01*
X124345527Y-83298884D01*
X124341394Y-83301987D01*
X124341391Y-83301989D01*
X124171020Y-83429907D01*
X124166885Y-83433012D01*
X124012549Y-83594515D01*
X123886663Y-83779057D01*
X123864672Y-83826433D01*
X123817277Y-83928538D01*
X123792608Y-83981682D01*
X123732909Y-84196947D01*
X123709171Y-84419072D01*
X123709468Y-84424225D01*
X123709468Y-84424228D01*
X123719813Y-84603640D01*
X123722030Y-84642092D01*
X123723167Y-84647138D01*
X123723168Y-84647144D01*
X123724251Y-84651949D01*
X123771142Y-84860016D01*
X123855186Y-85066993D01*
X123905939Y-85149815D01*
X123969211Y-85253065D01*
X123971907Y-85257465D01*
X124118170Y-85426315D01*
X124290046Y-85569009D01*
X124356946Y-85608102D01*
X124363365Y-85611853D01*
X124412089Y-85663491D01*
X124425160Y-85733274D01*
X124398429Y-85799046D01*
X124357975Y-85832404D01*
X124345527Y-85838884D01*
X124341394Y-85841987D01*
X124341391Y-85841989D01*
X124171020Y-85969907D01*
X124166885Y-85973012D01*
X124163313Y-85976750D01*
X124063015Y-86081706D01*
X124012549Y-86134515D01*
X124009635Y-86138787D01*
X124009634Y-86138788D01*
X123924476Y-86263626D01*
X123886663Y-86319057D01*
X123867331Y-86360704D01*
X123794990Y-86516551D01*
X123792608Y-86521682D01*
X123732909Y-86736947D01*
X123709171Y-86959072D01*
X123709468Y-86964225D01*
X123709468Y-86964228D01*
X123720075Y-87148191D01*
X123722030Y-87182092D01*
X123723167Y-87187138D01*
X123723168Y-87187144D01*
X123740565Y-87264339D01*
X123771142Y-87400016D01*
X123819994Y-87520324D01*
X123849710Y-87593506D01*
X123855186Y-87606993D01*
X123971907Y-87797465D01*
X124118170Y-87966315D01*
X124290046Y-88109009D01*
X124360515Y-88150188D01*
X124363365Y-88151853D01*
X124412089Y-88203491D01*
X124425160Y-88273274D01*
X124398429Y-88339046D01*
X124357975Y-88372404D01*
X124345527Y-88378884D01*
X124341394Y-88381987D01*
X124341391Y-88381989D01*
X124171020Y-88509907D01*
X124166885Y-88513012D01*
X124012549Y-88674515D01*
X124009635Y-88678787D01*
X124009634Y-88678788D01*
X123956003Y-88757408D01*
X123886663Y-88859057D01*
X123864586Y-88906619D01*
X123794990Y-89056551D01*
X123792608Y-89061682D01*
X123732909Y-89276947D01*
X123709171Y-89499072D01*
X123709468Y-89504225D01*
X123709468Y-89504228D01*
X123714552Y-89592392D01*
X123722030Y-89722092D01*
X123723167Y-89727138D01*
X123723168Y-89727144D01*
X123736517Y-89786377D01*
X123771142Y-89940016D01*
X123855186Y-90146993D01*
X123971907Y-90337465D01*
X124118170Y-90506315D01*
X124290046Y-90649009D01*
X124348018Y-90682885D01*
X124363365Y-90691853D01*
X124412089Y-90743491D01*
X124425160Y-90813274D01*
X124398429Y-90879046D01*
X124357975Y-90912404D01*
X124345527Y-90918884D01*
X124341394Y-90921987D01*
X124341391Y-90921989D01*
X124182388Y-91041372D01*
X124166885Y-91053012D01*
X124130564Y-91091020D01*
X124020957Y-91205717D01*
X124012549Y-91214515D01*
X123886663Y-91399057D01*
X123792608Y-91601682D01*
X123732909Y-91816947D01*
X123709171Y-92039072D01*
X120700000Y-92039072D01*
X120700000Y-78607703D01*
X121890743Y-78607703D01*
X121928268Y-78892734D01*
X122004129Y-79170036D01*
X122116923Y-79434476D01*
X122149935Y-79489635D01*
X122242586Y-79644443D01*
X122264561Y-79681161D01*
X122444313Y-79905528D01*
X122461397Y-79921740D01*
X122620554Y-80072774D01*
X122652851Y-80103423D01*
X122675787Y-80119904D01*
X122881764Y-80267914D01*
X122886317Y-80271186D01*
X122890112Y-80273195D01*
X122890113Y-80273196D01*
X122911869Y-80284715D01*
X123140392Y-80405712D01*
X123410373Y-80504511D01*
X123691264Y-80565755D01*
X123719841Y-80568004D01*
X123914282Y-80583307D01*
X123914291Y-80583307D01*
X123916739Y-80583500D01*
X124072271Y-80583500D01*
X124074407Y-80583354D01*
X124074418Y-80583354D01*
X124282548Y-80569165D01*
X124282554Y-80569164D01*
X124286825Y-80568873D01*
X124291020Y-80568004D01*
X124291022Y-80568004D01*
X124427583Y-80539724D01*
X124568342Y-80510574D01*
X124839343Y-80414607D01*
X125094812Y-80282750D01*
X125098313Y-80280289D01*
X125098317Y-80280287D01*
X125212418Y-80200095D01*
X125330023Y-80117441D01*
X125540622Y-79921740D01*
X125722713Y-79699268D01*
X125872927Y-79454142D01*
X125988483Y-79190898D01*
X126067244Y-78914406D01*
X126107751Y-78629784D01*
X126107845Y-78611951D01*
X126107867Y-78607703D01*
X191890743Y-78607703D01*
X191928268Y-78892734D01*
X192004129Y-79170036D01*
X192116923Y-79434476D01*
X192149935Y-79489635D01*
X192242586Y-79644443D01*
X192264561Y-79681161D01*
X192444313Y-79905528D01*
X192461397Y-79921740D01*
X192620554Y-80072774D01*
X192652851Y-80103423D01*
X192675787Y-80119904D01*
X192881764Y-80267914D01*
X192886317Y-80271186D01*
X192890112Y-80273195D01*
X192890113Y-80273196D01*
X192911869Y-80284715D01*
X193140392Y-80405712D01*
X193410373Y-80504511D01*
X193691264Y-80565755D01*
X193719841Y-80568004D01*
X193914282Y-80583307D01*
X193914291Y-80583307D01*
X193916739Y-80583500D01*
X194072271Y-80583500D01*
X194074407Y-80583354D01*
X194074418Y-80583354D01*
X194282548Y-80569165D01*
X194282554Y-80569164D01*
X194286825Y-80568873D01*
X194291020Y-80568004D01*
X194291022Y-80568004D01*
X194427583Y-80539724D01*
X194568342Y-80510574D01*
X194839343Y-80414607D01*
X195094812Y-80282750D01*
X195098313Y-80280289D01*
X195098317Y-80280287D01*
X195212418Y-80200095D01*
X195330023Y-80117441D01*
X195540622Y-79921740D01*
X195722713Y-79699268D01*
X195872927Y-79454142D01*
X195988483Y-79190898D01*
X196067244Y-78914406D01*
X196107751Y-78629784D01*
X196107845Y-78611951D01*
X196109235Y-78346583D01*
X196109235Y-78346576D01*
X196109257Y-78342297D01*
X196071732Y-78057266D01*
X195995871Y-77779964D01*
X195883077Y-77515524D01*
X195735439Y-77268839D01*
X195555687Y-77044472D01*
X195347149Y-76846577D01*
X195113683Y-76678814D01*
X195091843Y-76667250D01*
X195068654Y-76654972D01*
X194859608Y-76544288D01*
X194589627Y-76445489D01*
X194308736Y-76384245D01*
X194277685Y-76381801D01*
X194085718Y-76366693D01*
X194085709Y-76366693D01*
X194083261Y-76366500D01*
X193927729Y-76366500D01*
X193925593Y-76366646D01*
X193925582Y-76366646D01*
X193717452Y-76380835D01*
X193717446Y-76380836D01*
X193713175Y-76381127D01*
X193708980Y-76381996D01*
X193708978Y-76381996D01*
X193572417Y-76410276D01*
X193431658Y-76439426D01*
X193160657Y-76535393D01*
X192905188Y-76667250D01*
X192901687Y-76669711D01*
X192901683Y-76669713D01*
X192891594Y-76676804D01*
X192669977Y-76832559D01*
X192459378Y-77028260D01*
X192277287Y-77250732D01*
X192127073Y-77495858D01*
X192011517Y-77759102D01*
X191932756Y-78035594D01*
X191892249Y-78320216D01*
X191892227Y-78324505D01*
X191892226Y-78324512D01*
X191890765Y-78603417D01*
X191890743Y-78607703D01*
X126107867Y-78607703D01*
X126109235Y-78346583D01*
X126109235Y-78346576D01*
X126109257Y-78342297D01*
X126071732Y-78057266D01*
X125995871Y-77779964D01*
X125883077Y-77515524D01*
X125735439Y-77268839D01*
X125555687Y-77044472D01*
X125347149Y-76846577D01*
X125113683Y-76678814D01*
X125091843Y-76667250D01*
X125068654Y-76654972D01*
X124859608Y-76544288D01*
X124589627Y-76445489D01*
X124308736Y-76384245D01*
X124277685Y-76381801D01*
X124085718Y-76366693D01*
X124085709Y-76366693D01*
X124083261Y-76366500D01*
X123927729Y-76366500D01*
X123925593Y-76366646D01*
X123925582Y-76366646D01*
X123717452Y-76380835D01*
X123717446Y-76380836D01*
X123713175Y-76381127D01*
X123708980Y-76381996D01*
X123708978Y-76381996D01*
X123572417Y-76410276D01*
X123431658Y-76439426D01*
X123160657Y-76535393D01*
X122905188Y-76667250D01*
X122901687Y-76669711D01*
X122901683Y-76669713D01*
X122891594Y-76676804D01*
X122669977Y-76832559D01*
X122459378Y-77028260D01*
X122277287Y-77250732D01*
X122127073Y-77495858D01*
X122011517Y-77759102D01*
X121932756Y-78035594D01*
X121892249Y-78320216D01*
X121892227Y-78324505D01*
X121892226Y-78324512D01*
X121890765Y-78603417D01*
X121890743Y-78607703D01*
X120700000Y-78607703D01*
X120700000Y-75351000D01*
X120720002Y-75282879D01*
X120773658Y-75236386D01*
X120826000Y-75225000D01*
X197074000Y-75225000D01*
X197142121Y-75245002D01*
G37*
%TD.AperFunction*%
M02*
