%TF.GenerationSoftware,KiCad,Pcbnew,(6.0.1)*%
%TF.CreationDate,2022-03-15T16:21:16+01:00*%
%TF.ProjectId,SignalGenerator,5369676e-616c-4476-956e-657261746f72,0.3*%
%TF.SameCoordinates,Original*%
%TF.FileFunction,Copper,L2,Inr*%
%TF.FilePolarity,Positive*%
%FSLAX46Y46*%
G04 Gerber Fmt 4.6, Leading zero omitted, Abs format (unit mm)*
G04 Created by KiCad (PCBNEW (6.0.1)) date 2022-03-15 16:21:16*
%MOMM*%
%LPD*%
G01*
G04 APERTURE LIST*
%TA.AperFunction,ComponentPad*%
%ADD10R,1.700000X1.700000*%
%TD*%
%TA.AperFunction,ComponentPad*%
%ADD11O,1.700000X1.700000*%
%TD*%
%TA.AperFunction,ComponentPad*%
%ADD12R,3.000000X3.000000*%
%TD*%
%TA.AperFunction,ComponentPad*%
%ADD13C,3.000000*%
%TD*%
%TA.AperFunction,ViaPad*%
%ADD14C,0.800000*%
%TD*%
%TA.AperFunction,ViaPad*%
%ADD15C,1.000000*%
%TD*%
G04 APERTURE END LIST*
D10*
X184000000Y-108775000D03*
D11*
X184000000Y-111315000D03*
X184000000Y-113855000D03*
D10*
X177300000Y-106775000D03*
D11*
X177300000Y-109315000D03*
X177300000Y-111855000D03*
D10*
X122501920Y-108367377D03*
D11*
X122501920Y-105827377D03*
X125041920Y-108367377D03*
X125041920Y-105827377D03*
X127581920Y-108367377D03*
X127581920Y-105827377D03*
X130121920Y-108367377D03*
X130121920Y-105827377D03*
X132661920Y-108367377D03*
X132661920Y-105827377D03*
D10*
X149000000Y-110575000D03*
D11*
X151540000Y-110575000D03*
X149000000Y-113115000D03*
X151540000Y-113115000D03*
D10*
X127611920Y-92072377D03*
D11*
X125071920Y-92072377D03*
X127611920Y-89532377D03*
X125071920Y-89532377D03*
X127611920Y-86992377D03*
X125071920Y-86992377D03*
X127611920Y-84452377D03*
X125071920Y-84452377D03*
D10*
X173525000Y-115575000D03*
D11*
X176065000Y-115575000D03*
D12*
X153332980Y-86042020D03*
D13*
X158332980Y-86042020D03*
X163332980Y-86042020D03*
X168332980Y-86042020D03*
D10*
X140051920Y-85247377D03*
D11*
X140051920Y-87787377D03*
X137511920Y-85247377D03*
X137511920Y-87787377D03*
X134971920Y-85247377D03*
X134971920Y-87787377D03*
D10*
X181325000Y-102600000D03*
D11*
X183865000Y-102600000D03*
X186405000Y-102600000D03*
D14*
X143600000Y-115775000D03*
D15*
X188750000Y-96000000D03*
X139250000Y-108500000D03*
X187500000Y-94750000D03*
D14*
X145600000Y-113875000D03*
X145600000Y-114875000D03*
D15*
X187500000Y-96000000D03*
X142600000Y-87800000D03*
X188750000Y-92000000D03*
X188750000Y-93500000D03*
D14*
X144600000Y-113875000D03*
D15*
X186250000Y-96000000D03*
D14*
X144600000Y-114875000D03*
D15*
X139975000Y-95325000D03*
X188750000Y-90750000D03*
D14*
X143600000Y-114875000D03*
D15*
X142600000Y-89000000D03*
X186250000Y-94750000D03*
X126250000Y-97500000D03*
X187500000Y-93500000D03*
X188750000Y-94750000D03*
D14*
X145600000Y-115775000D03*
D15*
X139975000Y-94100000D03*
D14*
X144600000Y-115775000D03*
D15*
X186250000Y-93500000D03*
X139000000Y-107250000D03*
X126750000Y-98490357D03*
D14*
X143600000Y-113875000D03*
D15*
X186500000Y-100250000D03*
X181750000Y-81500000D03*
X182000000Y-94000000D03*
X161250000Y-105500000D03*
X163750000Y-104250000D03*
X153625000Y-98800000D03*
X179250000Y-80250000D03*
X178000000Y-86500000D03*
X182750000Y-93250000D03*
X161250000Y-104250000D03*
X155200000Y-115275000D03*
X180500000Y-80250000D03*
X135921920Y-107578080D03*
X152600000Y-115275000D03*
X178000000Y-81500000D03*
X179250000Y-85250000D03*
X174400000Y-106475000D03*
X135921920Y-106328080D03*
X183000000Y-81500000D03*
X178000000Y-84000000D03*
X183000000Y-80250000D03*
X144500000Y-107000000D03*
X178075000Y-93075000D03*
X174400000Y-107675000D03*
X180500000Y-82750000D03*
X187750000Y-100250000D03*
X178000000Y-85250000D03*
X175400000Y-101175000D03*
X178000000Y-80250000D03*
X187750000Y-99000000D03*
X152600000Y-116475000D03*
X179250000Y-86500000D03*
X172955251Y-106419749D03*
X138566420Y-102500000D03*
X163750000Y-105500000D03*
X162500000Y-104250000D03*
X179250000Y-82750000D03*
X180500000Y-81500000D03*
X176800000Y-93100000D03*
X179250000Y-81500000D03*
X151400000Y-116475000D03*
X162500000Y-105500000D03*
X155200000Y-116475000D03*
X153900000Y-116475000D03*
X153900000Y-115275000D03*
X179250000Y-84000000D03*
X181750000Y-80250000D03*
X151400000Y-115275000D03*
X178000000Y-82750000D03*
X174400000Y-108875000D03*
X174400000Y-110175000D03*
X186500000Y-99000000D03*
X175400000Y-102325000D03*
X180819516Y-94069516D03*
X160500000Y-112000000D03*
X159250000Y-110750000D03*
X156750000Y-109500000D03*
X158000000Y-110750000D03*
X159250000Y-109500000D03*
X158000000Y-112000000D03*
X156750000Y-112000000D03*
X159250000Y-112000000D03*
X160500000Y-110750000D03*
X160500000Y-109500000D03*
X158000000Y-109500000D03*
X156750000Y-110750000D03*
X173700000Y-112875000D03*
D14*
X142240480Y-91999520D03*
X145386420Y-90499520D03*
X147520697Y-94173357D03*
X145290480Y-94519520D03*
%TA.AperFunction,Conductor*%
G36*
X197142121Y-75245002D02*
G01*
X197188614Y-75298658D01*
X197200000Y-75351000D01*
X197200000Y-117599000D01*
X197179998Y-117667121D01*
X197126342Y-117713614D01*
X197074000Y-117725000D01*
X120826000Y-117725000D01*
X120757879Y-117704998D01*
X120711386Y-117651342D01*
X120700000Y-117599000D01*
X120700000Y-114607703D01*
X121890743Y-114607703D01*
X121891302Y-114611947D01*
X121891302Y-114611951D01*
X121898153Y-114663990D01*
X121928268Y-114892734D01*
X122004129Y-115170036D01*
X122005813Y-115173984D01*
X122103687Y-115403444D01*
X122116923Y-115434476D01*
X122264561Y-115681161D01*
X122444313Y-115905528D01*
X122652851Y-116103423D01*
X122886317Y-116271186D01*
X122890112Y-116273195D01*
X122890113Y-116273196D01*
X122911869Y-116284715D01*
X123140392Y-116405712D01*
X123164699Y-116414607D01*
X123390078Y-116497084D01*
X123410373Y-116504511D01*
X123691264Y-116565755D01*
X123719841Y-116568004D01*
X123914282Y-116583307D01*
X123914291Y-116583307D01*
X123916739Y-116583500D01*
X124072271Y-116583500D01*
X124074407Y-116583354D01*
X124074418Y-116583354D01*
X124282548Y-116569165D01*
X124282554Y-116569164D01*
X124286825Y-116568873D01*
X124291020Y-116568004D01*
X124291022Y-116568004D01*
X124448867Y-116535316D01*
X124568342Y-116510574D01*
X124839343Y-116414607D01*
X125028740Y-116316852D01*
X125091005Y-116284715D01*
X125091006Y-116284715D01*
X125094812Y-116282750D01*
X125098313Y-116280289D01*
X125098317Y-116280287D01*
X125212417Y-116200096D01*
X125330023Y-116117441D01*
X125408403Y-116044606D01*
X125537479Y-115924661D01*
X125537481Y-115924658D01*
X125540622Y-115921740D01*
X125660727Y-115775000D01*
X142686496Y-115775000D01*
X142687186Y-115781565D01*
X142700525Y-115908475D01*
X142706458Y-115964928D01*
X142765473Y-116146556D01*
X142860960Y-116311944D01*
X142865378Y-116316851D01*
X142865379Y-116316852D01*
X142984325Y-116448955D01*
X142988747Y-116453866D01*
X143058454Y-116504511D01*
X143113732Y-116544673D01*
X143143248Y-116566118D01*
X143149276Y-116568802D01*
X143149278Y-116568803D01*
X143246613Y-116612139D01*
X143317712Y-116643794D01*
X143409466Y-116663297D01*
X143498056Y-116682128D01*
X143498061Y-116682128D01*
X143504513Y-116683500D01*
X143695487Y-116683500D01*
X143701939Y-116682128D01*
X143701944Y-116682128D01*
X143790534Y-116663297D01*
X143882288Y-116643794D01*
X144048752Y-116569680D01*
X144119118Y-116560246D01*
X144151247Y-116569680D01*
X144317712Y-116643794D01*
X144409466Y-116663297D01*
X144498056Y-116682128D01*
X144498061Y-116682128D01*
X144504513Y-116683500D01*
X144695487Y-116683500D01*
X144701939Y-116682128D01*
X144701944Y-116682128D01*
X144790534Y-116663297D01*
X144882288Y-116643794D01*
X145048752Y-116569680D01*
X145119118Y-116560246D01*
X145151247Y-116569680D01*
X145317712Y-116643794D01*
X145409466Y-116663297D01*
X145498056Y-116682128D01*
X145498061Y-116682128D01*
X145504513Y-116683500D01*
X145695487Y-116683500D01*
X145701939Y-116682128D01*
X145701944Y-116682128D01*
X145790534Y-116663297D01*
X145882288Y-116643794D01*
X145953387Y-116612139D01*
X146050722Y-116568803D01*
X146050724Y-116568802D01*
X146056752Y-116566118D01*
X146086269Y-116544673D01*
X146141546Y-116504511D01*
X146184733Y-116473134D01*
X172166500Y-116473134D01*
X172173255Y-116535316D01*
X172224385Y-116671705D01*
X172311739Y-116788261D01*
X172428295Y-116875615D01*
X172564684Y-116926745D01*
X172626866Y-116933500D01*
X174423134Y-116933500D01*
X174485316Y-116926745D01*
X174621705Y-116875615D01*
X174738261Y-116788261D01*
X174825615Y-116671705D01*
X174858682Y-116583500D01*
X174869798Y-116553848D01*
X174912440Y-116497084D01*
X174979001Y-116472384D01*
X175048350Y-116487592D01*
X175083017Y-116515580D01*
X175108218Y-116544673D01*
X175115580Y-116551883D01*
X175279434Y-116687916D01*
X175287881Y-116693831D01*
X175471756Y-116801279D01*
X175481042Y-116805729D01*
X175680001Y-116881703D01*
X175689899Y-116884579D01*
X175793250Y-116905606D01*
X175807299Y-116904410D01*
X175811000Y-116894065D01*
X175811000Y-116893517D01*
X176319000Y-116893517D01*
X176323064Y-116907359D01*
X176336478Y-116909393D01*
X176343184Y-116908534D01*
X176353262Y-116906392D01*
X176557255Y-116845191D01*
X176566842Y-116841433D01*
X176758095Y-116747739D01*
X176766945Y-116742464D01*
X176940328Y-116618792D01*
X176948200Y-116612139D01*
X177099052Y-116461812D01*
X177105730Y-116453965D01*
X177230003Y-116281020D01*
X177235313Y-116272183D01*
X177329670Y-116081267D01*
X177333469Y-116071672D01*
X177395377Y-115867910D01*
X177397555Y-115857837D01*
X177398986Y-115846962D01*
X177396775Y-115832778D01*
X177383617Y-115829000D01*
X176337115Y-115829000D01*
X176321876Y-115833475D01*
X176320671Y-115834865D01*
X176319000Y-115842548D01*
X176319000Y-116893517D01*
X175811000Y-116893517D01*
X175811000Y-115302885D01*
X176319000Y-115302885D01*
X176323475Y-115318124D01*
X176324865Y-115319329D01*
X176332548Y-115321000D01*
X177383344Y-115321000D01*
X177396875Y-115317027D01*
X177398180Y-115307947D01*
X177356214Y-115140875D01*
X177352894Y-115131124D01*
X177267972Y-114935814D01*
X177263105Y-114926739D01*
X177147426Y-114747926D01*
X177141136Y-114739757D01*
X176997806Y-114582240D01*
X176990273Y-114575215D01*
X176823139Y-114443222D01*
X176814552Y-114437517D01*
X176628117Y-114334599D01*
X176618705Y-114330369D01*
X176417959Y-114259280D01*
X176407988Y-114256646D01*
X176336837Y-114243972D01*
X176323540Y-114245432D01*
X176319000Y-114259989D01*
X176319000Y-115302885D01*
X175811000Y-115302885D01*
X175811000Y-114258102D01*
X175807082Y-114244758D01*
X175792806Y-114242771D01*
X175754324Y-114248660D01*
X175744288Y-114251051D01*
X175541868Y-114317212D01*
X175532359Y-114321209D01*
X175343463Y-114419542D01*
X175334738Y-114425036D01*
X175164433Y-114552905D01*
X175156726Y-114559748D01*
X175079478Y-114640584D01*
X175017954Y-114676014D01*
X174947042Y-114672557D01*
X174889255Y-114631311D01*
X174870402Y-114597763D01*
X174828767Y-114486703D01*
X174825615Y-114478295D01*
X174738261Y-114361739D01*
X174621705Y-114274385D01*
X174485316Y-114223255D01*
X174423134Y-114216500D01*
X172626866Y-114216500D01*
X172564684Y-114223255D01*
X172428295Y-114274385D01*
X172311739Y-114361739D01*
X172224385Y-114478295D01*
X172173255Y-114614684D01*
X172166500Y-114676866D01*
X172166500Y-116473134D01*
X146184733Y-116473134D01*
X146211253Y-116453866D01*
X146215675Y-116448955D01*
X146334621Y-116316852D01*
X146334622Y-116316851D01*
X146339040Y-116311944D01*
X146434527Y-116146556D01*
X146493542Y-115964928D01*
X146499476Y-115908475D01*
X146512814Y-115781565D01*
X146513504Y-115775000D01*
X146493542Y-115585072D01*
X146434527Y-115403444D01*
X146425611Y-115388001D01*
X146408872Y-115319007D01*
X146425611Y-115261998D01*
X146431224Y-115252277D01*
X146434527Y-115246556D01*
X146493542Y-115064928D01*
X146497645Y-115025896D01*
X146512814Y-114881565D01*
X146513504Y-114875000D01*
X146493542Y-114685072D01*
X146434527Y-114503444D01*
X146415859Y-114471109D01*
X146396743Y-114438000D01*
X146380005Y-114369005D01*
X146396743Y-114312000D01*
X146431223Y-114252279D01*
X146431224Y-114252278D01*
X146434527Y-114246556D01*
X146493542Y-114064928D01*
X146494348Y-114057266D01*
X146512814Y-113881565D01*
X146513504Y-113875000D01*
X146508443Y-113826851D01*
X146494232Y-113691635D01*
X146494232Y-113691633D01*
X146493542Y-113685072D01*
X146434527Y-113503444D01*
X146339040Y-113338056D01*
X146313569Y-113309767D01*
X146215675Y-113201045D01*
X146215674Y-113201044D01*
X146211253Y-113196134D01*
X146109072Y-113121895D01*
X146062094Y-113087763D01*
X146062093Y-113087762D01*
X146056752Y-113083882D01*
X146051840Y-113081695D01*
X147637251Y-113081695D01*
X147637548Y-113086848D01*
X147637548Y-113086851D01*
X147644507Y-113207534D01*
X147650110Y-113304715D01*
X147651247Y-113309761D01*
X147651248Y-113309767D01*
X147668645Y-113386962D01*
X147699222Y-113522639D01*
X147741737Y-113627342D01*
X147772517Y-113703143D01*
X147783266Y-113729616D01*
X147801335Y-113759102D01*
X147879974Y-113887429D01*
X147899987Y-113920088D01*
X148046250Y-114088938D01*
X148218126Y-114231632D01*
X148411000Y-114344338D01*
X148415825Y-114346180D01*
X148415826Y-114346181D01*
X148475371Y-114368919D01*
X148619692Y-114424030D01*
X148624760Y-114425061D01*
X148624763Y-114425062D01*
X148685982Y-114437517D01*
X148838597Y-114468567D01*
X148843772Y-114468757D01*
X148843774Y-114468757D01*
X149056673Y-114476564D01*
X149056677Y-114476564D01*
X149061837Y-114476753D01*
X149066957Y-114476097D01*
X149066959Y-114476097D01*
X149278288Y-114449025D01*
X149278289Y-114449025D01*
X149283416Y-114448368D01*
X149288366Y-114446883D01*
X149492429Y-114385661D01*
X149492434Y-114385659D01*
X149497384Y-114384174D01*
X149697994Y-114285896D01*
X149879860Y-114156173D01*
X150038096Y-113998489D01*
X150095761Y-113918240D01*
X150168453Y-113817077D01*
X150169640Y-113817930D01*
X150216960Y-113774362D01*
X150286897Y-113762145D01*
X150352338Y-113789678D01*
X150380166Y-113821511D01*
X150437694Y-113915388D01*
X150443777Y-113923699D01*
X150583213Y-114084667D01*
X150590580Y-114091883D01*
X150754434Y-114227916D01*
X150762881Y-114233831D01*
X150946756Y-114341279D01*
X150956042Y-114345729D01*
X151155001Y-114421703D01*
X151164899Y-114424579D01*
X151268250Y-114445606D01*
X151282299Y-114444410D01*
X151286000Y-114434065D01*
X151286000Y-114433517D01*
X151794000Y-114433517D01*
X151798064Y-114447359D01*
X151811478Y-114449393D01*
X151818184Y-114448534D01*
X151828262Y-114446392D01*
X152032255Y-114385191D01*
X152041842Y-114381433D01*
X152233095Y-114287739D01*
X152241945Y-114282464D01*
X152415328Y-114158792D01*
X152423200Y-114152139D01*
X152574052Y-114001812D01*
X152580730Y-113993965D01*
X152705003Y-113821020D01*
X152710313Y-113812183D01*
X152804670Y-113621267D01*
X152808469Y-113611672D01*
X152870377Y-113407910D01*
X152872555Y-113397837D01*
X152873986Y-113386962D01*
X152871775Y-113372778D01*
X152858617Y-113369000D01*
X151812115Y-113369000D01*
X151796876Y-113373475D01*
X151795671Y-113374865D01*
X151794000Y-113382548D01*
X151794000Y-114433517D01*
X151286000Y-114433517D01*
X151286000Y-112987000D01*
X151306002Y-112918879D01*
X151359658Y-112872386D01*
X151412000Y-112861000D01*
X152858344Y-112861000D01*
X152871875Y-112857027D01*
X152873180Y-112847947D01*
X152831214Y-112680875D01*
X152827894Y-112671124D01*
X152742972Y-112475814D01*
X152738105Y-112466739D01*
X152622426Y-112287926D01*
X152616136Y-112279757D01*
X152472806Y-112122240D01*
X152465273Y-112115215D01*
X152301468Y-111985851D01*
X155736719Y-111985851D01*
X155737235Y-111991995D01*
X155750337Y-112148023D01*
X155753268Y-112182934D01*
X155763436Y-112218393D01*
X155805947Y-112366646D01*
X155807783Y-112373050D01*
X155814006Y-112385158D01*
X155891217Y-112535393D01*
X155898187Y-112548956D01*
X156021035Y-112703953D01*
X156025728Y-112707947D01*
X156025729Y-112707948D01*
X156163302Y-112825031D01*
X156171650Y-112832136D01*
X156344294Y-112928624D01*
X156532392Y-112989740D01*
X156728777Y-113013158D01*
X156734912Y-113012686D01*
X156734914Y-113012686D01*
X156919830Y-112998457D01*
X156919834Y-112998456D01*
X156925972Y-112997984D01*
X157116463Y-112944798D01*
X157121967Y-112942018D01*
X157121969Y-112942017D01*
X157287495Y-112858404D01*
X157287497Y-112858403D01*
X157292996Y-112855625D01*
X157298211Y-112851551D01*
X157298431Y-112851463D01*
X157303053Y-112848530D01*
X157303611Y-112849409D01*
X157364205Y-112825376D01*
X157437251Y-112840855D01*
X157594294Y-112928624D01*
X157782392Y-112989740D01*
X157978777Y-113013158D01*
X157984912Y-113012686D01*
X157984914Y-113012686D01*
X158169830Y-112998457D01*
X158169834Y-112998456D01*
X158175972Y-112997984D01*
X158366463Y-112944798D01*
X158371967Y-112942018D01*
X158371969Y-112942017D01*
X158537495Y-112858404D01*
X158537497Y-112858403D01*
X158542996Y-112855625D01*
X158548211Y-112851551D01*
X158548431Y-112851463D01*
X158553053Y-112848530D01*
X158553611Y-112849409D01*
X158614205Y-112825376D01*
X158687251Y-112840855D01*
X158844294Y-112928624D01*
X159032392Y-112989740D01*
X159228777Y-113013158D01*
X159234912Y-113012686D01*
X159234914Y-113012686D01*
X159419830Y-112998457D01*
X159419834Y-112998456D01*
X159425972Y-112997984D01*
X159616463Y-112944798D01*
X159621967Y-112942018D01*
X159621969Y-112942017D01*
X159787495Y-112858404D01*
X159787497Y-112858403D01*
X159792996Y-112855625D01*
X159798211Y-112851551D01*
X159798431Y-112851463D01*
X159803053Y-112848530D01*
X159803611Y-112849409D01*
X159864205Y-112825376D01*
X159937251Y-112840855D01*
X160094294Y-112928624D01*
X160282392Y-112989740D01*
X160478777Y-113013158D01*
X160484912Y-113012686D01*
X160484914Y-113012686D01*
X160669830Y-112998457D01*
X160669834Y-112998456D01*
X160675972Y-112997984D01*
X160866463Y-112944798D01*
X160871967Y-112942018D01*
X160871969Y-112942017D01*
X161032651Y-112860851D01*
X172686719Y-112860851D01*
X172687235Y-112866995D01*
X172702138Y-113044472D01*
X172703268Y-113057934D01*
X172719719Y-113115304D01*
X172748809Y-113216753D01*
X172757783Y-113248050D01*
X172774885Y-113281326D01*
X172834764Y-113397837D01*
X172848187Y-113423956D01*
X172971035Y-113578953D01*
X172975728Y-113582947D01*
X172975729Y-113582948D01*
X173039854Y-113637522D01*
X173121650Y-113707136D01*
X173294294Y-113803624D01*
X173482392Y-113864740D01*
X173678777Y-113888158D01*
X173684912Y-113887686D01*
X173684914Y-113887686D01*
X173869830Y-113873457D01*
X173869834Y-113873456D01*
X173875972Y-113872984D01*
X174059669Y-113821695D01*
X182637251Y-113821695D01*
X182637548Y-113826848D01*
X182637548Y-113826851D01*
X182642924Y-113920088D01*
X182650110Y-114044715D01*
X182651247Y-114049761D01*
X182651248Y-114049767D01*
X182660076Y-114088938D01*
X182699222Y-114262639D01*
X182748572Y-114384174D01*
X182774706Y-114448534D01*
X182783266Y-114469616D01*
X182793737Y-114486703D01*
X182876978Y-114622540D01*
X182899987Y-114660088D01*
X183046250Y-114828938D01*
X183218126Y-114971632D01*
X183411000Y-115084338D01*
X183619692Y-115164030D01*
X183624760Y-115165061D01*
X183624763Y-115165062D01*
X183731462Y-115186770D01*
X183838597Y-115208567D01*
X183843772Y-115208757D01*
X183843774Y-115208757D01*
X184056673Y-115216564D01*
X184056677Y-115216564D01*
X184061837Y-115216753D01*
X184066957Y-115216097D01*
X184066959Y-115216097D01*
X184278288Y-115189025D01*
X184278289Y-115189025D01*
X184283416Y-115188368D01*
X184288366Y-115186883D01*
X184492429Y-115125661D01*
X184492434Y-115125659D01*
X184497384Y-115124174D01*
X184697994Y-115025896D01*
X184879860Y-114896173D01*
X185038096Y-114738489D01*
X185097594Y-114655689D01*
X185132075Y-114607703D01*
X191890743Y-114607703D01*
X191891302Y-114611947D01*
X191891302Y-114611951D01*
X191898153Y-114663990D01*
X191928268Y-114892734D01*
X192004129Y-115170036D01*
X192005813Y-115173984D01*
X192103687Y-115403444D01*
X192116923Y-115434476D01*
X192264561Y-115681161D01*
X192444313Y-115905528D01*
X192652851Y-116103423D01*
X192886317Y-116271186D01*
X192890112Y-116273195D01*
X192890113Y-116273196D01*
X192911869Y-116284715D01*
X193140392Y-116405712D01*
X193164699Y-116414607D01*
X193390078Y-116497084D01*
X193410373Y-116504511D01*
X193691264Y-116565755D01*
X193719841Y-116568004D01*
X193914282Y-116583307D01*
X193914291Y-116583307D01*
X193916739Y-116583500D01*
X194072271Y-116583500D01*
X194074407Y-116583354D01*
X194074418Y-116583354D01*
X194282548Y-116569165D01*
X194282554Y-116569164D01*
X194286825Y-116568873D01*
X194291020Y-116568004D01*
X194291022Y-116568004D01*
X194448867Y-116535316D01*
X194568342Y-116510574D01*
X194839343Y-116414607D01*
X195028740Y-116316852D01*
X195091005Y-116284715D01*
X195091006Y-116284715D01*
X195094812Y-116282750D01*
X195098313Y-116280289D01*
X195098317Y-116280287D01*
X195212417Y-116200096D01*
X195330023Y-116117441D01*
X195408403Y-116044606D01*
X195537479Y-115924661D01*
X195537481Y-115924658D01*
X195540622Y-115921740D01*
X195722713Y-115699268D01*
X195872927Y-115454142D01*
X195988483Y-115190898D01*
X196002733Y-115140875D01*
X196066068Y-114918534D01*
X196067244Y-114914406D01*
X196098948Y-114691635D01*
X196107146Y-114634036D01*
X196107146Y-114634034D01*
X196107751Y-114629784D01*
X196107831Y-114614684D01*
X196109235Y-114346583D01*
X196109235Y-114346576D01*
X196109257Y-114342297D01*
X196105269Y-114312000D01*
X196084753Y-114156173D01*
X196071732Y-114057266D01*
X196068299Y-114044715D01*
X196007222Y-113821457D01*
X195995871Y-113779964D01*
X195908072Y-113574123D01*
X195884763Y-113519476D01*
X195884761Y-113519472D01*
X195883077Y-113515524D01*
X195759934Y-113309767D01*
X195737643Y-113272521D01*
X195737640Y-113272517D01*
X195735439Y-113268839D01*
X195555687Y-113044472D01*
X195430441Y-112925618D01*
X195350258Y-112849527D01*
X195350255Y-112849525D01*
X195347149Y-112846577D01*
X195149585Y-112704612D01*
X195117172Y-112681321D01*
X195117171Y-112681320D01*
X195113683Y-112678814D01*
X195107806Y-112675702D01*
X195048507Y-112644305D01*
X194859608Y-112544288D01*
X194651816Y-112468247D01*
X194593658Y-112446964D01*
X194593656Y-112446963D01*
X194589627Y-112445489D01*
X194308736Y-112384245D01*
X194277685Y-112381801D01*
X194085718Y-112366693D01*
X194085709Y-112366693D01*
X194083261Y-112366500D01*
X193927729Y-112366500D01*
X193925593Y-112366646D01*
X193925582Y-112366646D01*
X193717452Y-112380835D01*
X193717446Y-112380836D01*
X193713175Y-112381127D01*
X193708980Y-112381996D01*
X193708978Y-112381996D01*
X193591493Y-112406326D01*
X193431658Y-112439426D01*
X193160657Y-112535393D01*
X192905188Y-112667250D01*
X192901687Y-112669711D01*
X192901683Y-112669713D01*
X192787582Y-112749905D01*
X192669977Y-112832559D01*
X192605442Y-112892529D01*
X192465155Y-113022892D01*
X192459378Y-113028260D01*
X192277287Y-113250732D01*
X192127073Y-113495858D01*
X192125347Y-113499791D01*
X192125346Y-113499792D01*
X192022798Y-113733404D01*
X192011517Y-113759102D01*
X192010342Y-113763229D01*
X192010341Y-113763230D01*
X191976632Y-113881565D01*
X191932756Y-114035594D01*
X191892249Y-114320216D01*
X191892227Y-114324505D01*
X191892226Y-114324512D01*
X191891030Y-114552905D01*
X191890743Y-114607703D01*
X185132075Y-114607703D01*
X185165435Y-114561277D01*
X185168453Y-114557077D01*
X185197789Y-114497721D01*
X185265136Y-114361453D01*
X185265137Y-114361451D01*
X185267430Y-114356811D01*
X185332370Y-114143069D01*
X185361529Y-113921590D01*
X185362346Y-113888158D01*
X185363074Y-113858365D01*
X185363074Y-113858361D01*
X185363156Y-113855000D01*
X185344852Y-113632361D01*
X185290431Y-113415702D01*
X185201354Y-113210840D01*
X185121142Y-113086851D01*
X185082822Y-113027617D01*
X185082820Y-113027614D01*
X185080014Y-113023277D01*
X184929670Y-112858051D01*
X184925619Y-112854852D01*
X184925615Y-112854848D01*
X184758414Y-112722800D01*
X184758410Y-112722798D01*
X184754359Y-112719598D01*
X184713053Y-112696796D01*
X184663084Y-112646364D01*
X184648312Y-112576921D01*
X184673428Y-112510516D01*
X184700780Y-112483909D01*
X184766554Y-112436993D01*
X184879860Y-112356173D01*
X185038096Y-112198489D01*
X185097594Y-112115689D01*
X185165435Y-112021277D01*
X185168453Y-112017077D01*
X185196887Y-111959546D01*
X185265136Y-111821453D01*
X185265137Y-111821451D01*
X185267430Y-111816811D01*
X185332370Y-111603069D01*
X185361529Y-111381590D01*
X185363156Y-111315000D01*
X185344852Y-111092361D01*
X185290431Y-110875702D01*
X185201354Y-110670840D01*
X185139352Y-110575000D01*
X185082822Y-110487617D01*
X185082820Y-110487614D01*
X185080014Y-110483277D01*
X185072006Y-110474476D01*
X184932798Y-110321488D01*
X184901746Y-110257642D01*
X184910141Y-110187143D01*
X184955317Y-110132375D01*
X184981761Y-110118706D01*
X185088297Y-110078767D01*
X185096705Y-110075615D01*
X185213261Y-109988261D01*
X185300615Y-109871705D01*
X185351745Y-109735316D01*
X185358500Y-109673134D01*
X185358500Y-107876866D01*
X185351745Y-107814684D01*
X185300615Y-107678295D01*
X185213261Y-107561739D01*
X185096705Y-107474385D01*
X184960316Y-107423255D01*
X184898134Y-107416500D01*
X183101866Y-107416500D01*
X183039684Y-107423255D01*
X182903295Y-107474385D01*
X182786739Y-107561739D01*
X182699385Y-107678295D01*
X182648255Y-107814684D01*
X182641500Y-107876866D01*
X182641500Y-109673134D01*
X182648255Y-109735316D01*
X182699385Y-109871705D01*
X182786739Y-109988261D01*
X182903295Y-110075615D01*
X182911704Y-110078767D01*
X182911705Y-110078768D01*
X183020451Y-110119535D01*
X183077216Y-110162176D01*
X183101916Y-110228738D01*
X183086709Y-110298087D01*
X183067316Y-110324568D01*
X182940629Y-110457138D01*
X182937715Y-110461410D01*
X182937714Y-110461411D01*
X182919838Y-110487617D01*
X182814743Y-110641680D01*
X182778575Y-110719598D01*
X182726154Y-110832530D01*
X182720688Y-110844305D01*
X182660989Y-111059570D01*
X182637251Y-111281695D01*
X182637548Y-111286848D01*
X182637548Y-111286851D01*
X182649701Y-111497618D01*
X182650110Y-111504715D01*
X182651247Y-111509761D01*
X182651248Y-111509767D01*
X182659196Y-111545032D01*
X182699222Y-111722639D01*
X182737360Y-111816562D01*
X182779173Y-111919535D01*
X182783266Y-111929616D01*
X182821492Y-111991995D01*
X182887523Y-112099748D01*
X182899987Y-112120088D01*
X183046250Y-112288938D01*
X183218126Y-112431632D01*
X183241840Y-112445489D01*
X183291445Y-112474476D01*
X183340169Y-112526114D01*
X183353240Y-112595897D01*
X183326509Y-112661669D01*
X183286055Y-112695027D01*
X183273607Y-112701507D01*
X183269474Y-112704610D01*
X183269471Y-112704612D01*
X183099100Y-112832530D01*
X183094965Y-112835635D01*
X182940629Y-112997138D01*
X182937715Y-113001410D01*
X182937714Y-113001411D01*
X182866802Y-113105365D01*
X182814743Y-113181680D01*
X182783935Y-113248050D01*
X182726039Y-113372778D01*
X182720688Y-113384305D01*
X182660989Y-113599570D01*
X182637251Y-113821695D01*
X174059669Y-113821695D01*
X174066463Y-113819798D01*
X174071967Y-113817018D01*
X174071969Y-113817017D01*
X174237495Y-113733404D01*
X174237497Y-113733403D01*
X174242996Y-113730625D01*
X174382968Y-113621267D01*
X174393991Y-113612655D01*
X174398847Y-113608861D01*
X174528078Y-113459145D01*
X174625769Y-113287179D01*
X174688197Y-113099513D01*
X174712985Y-112903295D01*
X174713380Y-112875000D01*
X174694080Y-112678167D01*
X174687294Y-112655689D01*
X174655069Y-112548956D01*
X174636916Y-112488831D01*
X174544066Y-112314204D01*
X174437005Y-112182934D01*
X174422960Y-112165713D01*
X174422957Y-112165710D01*
X174419065Y-112160938D01*
X174412724Y-112155692D01*
X174271425Y-112038799D01*
X174271421Y-112038797D01*
X174266675Y-112034870D01*
X174092701Y-111940802D01*
X173903768Y-111882318D01*
X173897643Y-111881674D01*
X173897642Y-111881674D01*
X173713204Y-111862289D01*
X173713202Y-111862289D01*
X173707075Y-111861645D01*
X173624576Y-111869153D01*
X173516251Y-111879011D01*
X173516248Y-111879012D01*
X173510112Y-111879570D01*
X173504206Y-111881308D01*
X173504202Y-111881309D01*
X173417975Y-111906687D01*
X173320381Y-111935410D01*
X173314923Y-111938263D01*
X173314919Y-111938265D01*
X173263712Y-111965036D01*
X173145110Y-112027040D01*
X172990975Y-112150968D01*
X172863846Y-112302474D01*
X172860879Y-112307872D01*
X172860875Y-112307877D01*
X172803354Y-112412509D01*
X172768567Y-112475787D01*
X172766706Y-112481654D01*
X172766705Y-112481656D01*
X172713526Y-112649297D01*
X172708765Y-112664306D01*
X172700963Y-112733861D01*
X172687422Y-112854588D01*
X172686719Y-112860851D01*
X161032651Y-112860851D01*
X161037495Y-112858404D01*
X161037497Y-112858403D01*
X161042996Y-112855625D01*
X161188254Y-112742137D01*
X161193991Y-112737655D01*
X161198847Y-112733861D01*
X161328078Y-112584145D01*
X161425769Y-112412179D01*
X161488197Y-112224513D01*
X161512985Y-112028295D01*
X161513380Y-112000000D01*
X161495897Y-111821695D01*
X175937251Y-111821695D01*
X175937548Y-111826848D01*
X175937548Y-111826851D01*
X175944287Y-111943732D01*
X175950110Y-112044715D01*
X175951247Y-112049761D01*
X175951248Y-112049767D01*
X175968106Y-112124568D01*
X175999222Y-112262639D01*
X176083266Y-112469616D01*
X176199987Y-112660088D01*
X176346250Y-112828938D01*
X176518126Y-112971632D01*
X176711000Y-113084338D01*
X176715825Y-113086180D01*
X176715826Y-113086181D01*
X176750739Y-113099513D01*
X176919692Y-113164030D01*
X176924760Y-113165061D01*
X176924763Y-113165062D01*
X177032017Y-113186883D01*
X177138597Y-113208567D01*
X177143772Y-113208757D01*
X177143774Y-113208757D01*
X177356673Y-113216564D01*
X177356677Y-113216564D01*
X177361837Y-113216753D01*
X177366957Y-113216097D01*
X177366959Y-113216097D01*
X177578288Y-113189025D01*
X177578289Y-113189025D01*
X177583416Y-113188368D01*
X177619971Y-113177401D01*
X177792429Y-113125661D01*
X177792434Y-113125659D01*
X177797384Y-113124174D01*
X177997994Y-113025896D01*
X178179860Y-112896173D01*
X178183686Y-112892361D01*
X178334435Y-112742137D01*
X178338096Y-112738489D01*
X178351671Y-112719598D01*
X178465435Y-112561277D01*
X178468453Y-112557077D01*
X178475175Y-112543477D01*
X178565136Y-112361453D01*
X178565137Y-112361451D01*
X178567430Y-112356811D01*
X178632370Y-112143069D01*
X178661529Y-111921590D01*
X178662556Y-111879570D01*
X178663074Y-111858365D01*
X178663074Y-111858361D01*
X178663156Y-111855000D01*
X178644852Y-111632361D01*
X178590431Y-111415702D01*
X178501354Y-111210840D01*
X178461906Y-111149862D01*
X178382822Y-111027617D01*
X178382820Y-111027614D01*
X178380014Y-111023277D01*
X178229670Y-110858051D01*
X178225619Y-110854852D01*
X178225615Y-110854848D01*
X178058414Y-110722800D01*
X178058410Y-110722798D01*
X178054359Y-110719598D01*
X178013053Y-110696796D01*
X177963084Y-110646364D01*
X177948312Y-110576921D01*
X177973428Y-110510516D01*
X178000780Y-110483909D01*
X178044603Y-110452650D01*
X178179860Y-110356173D01*
X178183686Y-110352361D01*
X178334435Y-110202137D01*
X178338096Y-110198489D01*
X178342796Y-110191949D01*
X178465435Y-110021277D01*
X178468453Y-110017077D01*
X178520297Y-109912179D01*
X178565136Y-109821453D01*
X178565137Y-109821451D01*
X178567430Y-109816811D01*
X178609971Y-109676793D01*
X178630865Y-109608023D01*
X178630865Y-109608021D01*
X178632370Y-109603069D01*
X178661529Y-109381590D01*
X178662146Y-109356358D01*
X178663074Y-109318357D01*
X178663156Y-109315000D01*
X178644852Y-109092361D01*
X178590431Y-108875702D01*
X178501354Y-108670840D01*
X178428788Y-108558670D01*
X178382822Y-108487617D01*
X178382820Y-108487614D01*
X178380014Y-108483277D01*
X178376532Y-108479450D01*
X178232798Y-108321488D01*
X178201746Y-108257642D01*
X178210141Y-108187143D01*
X178255317Y-108132375D01*
X178281761Y-108118706D01*
X178388297Y-108078767D01*
X178396705Y-108075615D01*
X178513261Y-107988261D01*
X178600615Y-107871705D01*
X178651745Y-107735316D01*
X178658500Y-107673134D01*
X178658500Y-105876866D01*
X178651745Y-105814684D01*
X178600615Y-105678295D01*
X178513261Y-105561739D01*
X178396705Y-105474385D01*
X178260316Y-105423255D01*
X178198134Y-105416500D01*
X176401866Y-105416500D01*
X176339684Y-105423255D01*
X176203295Y-105474385D01*
X176086739Y-105561739D01*
X175999385Y-105678295D01*
X175948255Y-105814684D01*
X175941500Y-105876866D01*
X175941500Y-107673134D01*
X175948255Y-107735316D01*
X175999385Y-107871705D01*
X176086739Y-107988261D01*
X176203295Y-108075615D01*
X176211704Y-108078767D01*
X176211705Y-108078768D01*
X176320451Y-108119535D01*
X176377216Y-108162176D01*
X176401916Y-108228738D01*
X176386709Y-108298087D01*
X176367316Y-108324568D01*
X176240629Y-108457138D01*
X176237715Y-108461410D01*
X176237714Y-108461411D01*
X176205156Y-108509140D01*
X176114743Y-108641680D01*
X176020688Y-108844305D01*
X175960989Y-109059570D01*
X175937251Y-109281695D01*
X175937548Y-109286848D01*
X175937548Y-109286851D01*
X175945312Y-109421507D01*
X175950110Y-109504715D01*
X175951247Y-109509761D01*
X175951248Y-109509767D01*
X175961585Y-109555635D01*
X175999222Y-109722639D01*
X176037461Y-109816811D01*
X176076186Y-109912179D01*
X176083266Y-109929616D01*
X176085965Y-109934020D01*
X176174666Y-110078767D01*
X176199987Y-110120088D01*
X176346250Y-110288938D01*
X176518126Y-110431632D01*
X176569087Y-110461411D01*
X176591445Y-110474476D01*
X176640169Y-110526114D01*
X176653240Y-110595897D01*
X176626509Y-110661669D01*
X176586055Y-110695027D01*
X176573607Y-110701507D01*
X176569474Y-110704610D01*
X176569471Y-110704612D01*
X176399100Y-110832530D01*
X176394965Y-110835635D01*
X176240629Y-110997138D01*
X176237715Y-111001410D01*
X176237714Y-111001411D01*
X176189659Y-111071857D01*
X176114743Y-111181680D01*
X176099003Y-111215590D01*
X176060306Y-111298956D01*
X176020688Y-111384305D01*
X175960989Y-111599570D01*
X175937251Y-111821695D01*
X161495897Y-111821695D01*
X161494080Y-111803167D01*
X161489022Y-111786412D01*
X161468245Y-111717596D01*
X161436916Y-111613831D01*
X161344066Y-111439204D01*
X161344588Y-111438927D01*
X161324801Y-111375151D01*
X161341230Y-111310993D01*
X161343216Y-111307498D01*
X161365211Y-111268779D01*
X161422723Y-111167542D01*
X161422725Y-111167537D01*
X161425769Y-111162179D01*
X161488197Y-110974513D01*
X161512985Y-110778295D01*
X161513380Y-110750000D01*
X161494080Y-110553167D01*
X161491415Y-110544338D01*
X161457386Y-110431632D01*
X161436916Y-110363831D01*
X161344066Y-110189204D01*
X161344588Y-110188927D01*
X161324801Y-110125151D01*
X161341230Y-110060993D01*
X161343216Y-110057498D01*
X161412470Y-109935590D01*
X161422723Y-109917542D01*
X161422725Y-109917537D01*
X161425769Y-109912179D01*
X161488197Y-109724513D01*
X161512985Y-109528295D01*
X161513203Y-109512686D01*
X161513331Y-109503523D01*
X161513331Y-109503520D01*
X161513380Y-109500000D01*
X161494080Y-109303167D01*
X161486048Y-109276562D01*
X161468335Y-109217894D01*
X161436916Y-109113831D01*
X161344066Y-108939204D01*
X161262839Y-108839610D01*
X161222960Y-108790713D01*
X161222957Y-108790710D01*
X161219065Y-108785938D01*
X161212724Y-108780692D01*
X161071425Y-108663799D01*
X161071421Y-108663797D01*
X161066675Y-108659870D01*
X160892701Y-108565802D01*
X160703768Y-108507318D01*
X160697643Y-108506674D01*
X160697642Y-108506674D01*
X160513204Y-108487289D01*
X160513202Y-108487289D01*
X160507075Y-108486645D01*
X160424576Y-108494153D01*
X160316251Y-108504011D01*
X160316248Y-108504012D01*
X160310112Y-108504570D01*
X160304206Y-108506308D01*
X160304202Y-108506309D01*
X160229500Y-108528295D01*
X160120381Y-108560410D01*
X160114923Y-108563263D01*
X160114919Y-108563265D01*
X159950566Y-108649187D01*
X159950561Y-108649190D01*
X159945110Y-108652040D01*
X159942831Y-108653872D01*
X159875950Y-108674113D01*
X159814979Y-108658953D01*
X159791717Y-108646375D01*
X159642701Y-108565802D01*
X159453768Y-108507318D01*
X159447643Y-108506674D01*
X159447642Y-108506674D01*
X159263204Y-108487289D01*
X159263202Y-108487289D01*
X159257075Y-108486645D01*
X159174576Y-108494153D01*
X159066251Y-108504011D01*
X159066248Y-108504012D01*
X159060112Y-108504570D01*
X159054206Y-108506308D01*
X159054202Y-108506309D01*
X158979500Y-108528295D01*
X158870381Y-108560410D01*
X158864923Y-108563263D01*
X158864919Y-108563265D01*
X158700566Y-108649187D01*
X158700561Y-108649190D01*
X158695110Y-108652040D01*
X158692831Y-108653872D01*
X158625950Y-108674113D01*
X158564979Y-108658953D01*
X158541717Y-108646375D01*
X158392701Y-108565802D01*
X158203768Y-108507318D01*
X158197643Y-108506674D01*
X158197642Y-108506674D01*
X158013204Y-108487289D01*
X158013202Y-108487289D01*
X158007075Y-108486645D01*
X157924576Y-108494153D01*
X157816251Y-108504011D01*
X157816248Y-108504012D01*
X157810112Y-108504570D01*
X157804206Y-108506308D01*
X157804202Y-108506309D01*
X157729500Y-108528295D01*
X157620381Y-108560410D01*
X157614923Y-108563263D01*
X157614919Y-108563265D01*
X157450566Y-108649187D01*
X157450561Y-108649190D01*
X157445110Y-108652040D01*
X157442831Y-108653872D01*
X157375950Y-108674113D01*
X157314979Y-108658953D01*
X157291717Y-108646375D01*
X157142701Y-108565802D01*
X156953768Y-108507318D01*
X156947643Y-108506674D01*
X156947642Y-108506674D01*
X156763204Y-108487289D01*
X156763202Y-108487289D01*
X156757075Y-108486645D01*
X156674576Y-108494153D01*
X156566251Y-108504011D01*
X156566248Y-108504012D01*
X156560112Y-108504570D01*
X156554206Y-108506308D01*
X156554202Y-108506309D01*
X156479500Y-108528295D01*
X156370381Y-108560410D01*
X156364923Y-108563263D01*
X156364919Y-108563265D01*
X156274147Y-108610720D01*
X156195110Y-108652040D01*
X156040975Y-108775968D01*
X155913846Y-108927474D01*
X155910879Y-108932872D01*
X155910875Y-108932877D01*
X155907397Y-108939204D01*
X155818567Y-109100787D01*
X155816706Y-109106654D01*
X155816705Y-109106656D01*
X155781743Y-109216869D01*
X155758765Y-109289306D01*
X155736719Y-109485851D01*
X155737235Y-109491995D01*
X155748890Y-109630791D01*
X155753268Y-109682934D01*
X155766460Y-109728941D01*
X155791657Y-109816811D01*
X155807783Y-109873050D01*
X155898187Y-110048956D01*
X155902014Y-110053784D01*
X155904407Y-110057498D01*
X155924495Y-110125593D01*
X155908910Y-110186452D01*
X155818567Y-110350787D01*
X155816706Y-110356654D01*
X155816705Y-110356656D01*
X155776338Y-110483909D01*
X155758765Y-110539306D01*
X155736719Y-110735851D01*
X155737235Y-110741995D01*
X155748884Y-110880720D01*
X155753268Y-110932934D01*
X155754967Y-110938858D01*
X155793104Y-111071857D01*
X155807783Y-111123050D01*
X155898187Y-111298956D01*
X155902014Y-111303784D01*
X155904407Y-111307498D01*
X155924495Y-111375593D01*
X155908910Y-111436452D01*
X155818567Y-111600787D01*
X155816706Y-111606654D01*
X155816705Y-111606656D01*
X155764623Y-111770839D01*
X155758765Y-111789306D01*
X155736719Y-111985851D01*
X152301468Y-111985851D01*
X152298139Y-111983222D01*
X152289556Y-111977520D01*
X152252602Y-111957120D01*
X152202631Y-111906687D01*
X152187859Y-111837245D01*
X152212975Y-111770839D01*
X152240327Y-111744232D01*
X152277669Y-111717596D01*
X152419860Y-111616173D01*
X152429411Y-111606656D01*
X152563616Y-111472918D01*
X152578096Y-111458489D01*
X152589256Y-111442959D01*
X152705435Y-111281277D01*
X152708453Y-111277077D01*
X152753281Y-111186375D01*
X152805136Y-111081453D01*
X152805137Y-111081451D01*
X152807430Y-111076811D01*
X152840370Y-110968393D01*
X152870865Y-110868023D01*
X152870865Y-110868021D01*
X152872370Y-110863069D01*
X152901529Y-110641590D01*
X152901611Y-110638240D01*
X152903074Y-110578365D01*
X152903074Y-110578361D01*
X152903156Y-110575000D01*
X152884852Y-110352361D01*
X152830431Y-110135702D01*
X152741354Y-109930840D01*
X152667585Y-109816811D01*
X152622822Y-109747617D01*
X152622820Y-109747614D01*
X152620014Y-109743277D01*
X152469670Y-109578051D01*
X152465619Y-109574852D01*
X152465615Y-109574848D01*
X152298414Y-109442800D01*
X152298410Y-109442798D01*
X152294359Y-109439598D01*
X152098789Y-109331638D01*
X152093920Y-109329914D01*
X152093916Y-109329912D01*
X151893087Y-109258795D01*
X151893083Y-109258794D01*
X151888212Y-109257069D01*
X151883119Y-109256162D01*
X151883116Y-109256161D01*
X151673373Y-109218800D01*
X151673367Y-109218799D01*
X151668284Y-109217894D01*
X151594452Y-109216992D01*
X151450081Y-109215228D01*
X151450079Y-109215228D01*
X151444911Y-109215165D01*
X151224091Y-109248955D01*
X151011756Y-109318357D01*
X150813607Y-109421507D01*
X150809474Y-109424610D01*
X150809471Y-109424612D01*
X150662090Y-109535269D01*
X150634965Y-109555635D01*
X150578537Y-109614684D01*
X150554283Y-109640064D01*
X150492759Y-109675494D01*
X150421846Y-109672037D01*
X150364060Y-109630791D01*
X150345207Y-109597243D01*
X150303767Y-109486703D01*
X150300615Y-109478295D01*
X150213261Y-109361739D01*
X150096705Y-109274385D01*
X149960316Y-109223255D01*
X149898134Y-109216500D01*
X148101866Y-109216500D01*
X148039684Y-109223255D01*
X147903295Y-109274385D01*
X147786739Y-109361739D01*
X147699385Y-109478295D01*
X147648255Y-109614684D01*
X147641500Y-109676866D01*
X147641500Y-111473134D01*
X147648255Y-111535316D01*
X147699385Y-111671705D01*
X147786739Y-111788261D01*
X147903295Y-111875615D01*
X147911704Y-111878767D01*
X147911705Y-111878768D01*
X148020451Y-111919535D01*
X148077216Y-111962176D01*
X148101916Y-112028738D01*
X148086709Y-112098087D01*
X148067316Y-112124568D01*
X148017409Y-112176793D01*
X147940629Y-112257138D01*
X147937715Y-112261410D01*
X147937714Y-112261411D01*
X147916684Y-112292240D01*
X147814743Y-112441680D01*
X147720688Y-112644305D01*
X147660989Y-112859570D01*
X147660440Y-112864707D01*
X147659715Y-112871495D01*
X147637251Y-113081695D01*
X146051840Y-113081695D01*
X146050724Y-113081198D01*
X146050722Y-113081197D01*
X145888319Y-113008891D01*
X145888318Y-113008891D01*
X145882288Y-113006206D01*
X145788888Y-112986353D01*
X145701944Y-112967872D01*
X145701939Y-112967872D01*
X145695487Y-112966500D01*
X145504513Y-112966500D01*
X145498061Y-112967872D01*
X145498056Y-112967872D01*
X145411113Y-112986353D01*
X145317712Y-113006206D01*
X145311682Y-113008891D01*
X145311681Y-113008891D01*
X145280234Y-113022892D01*
X145151248Y-113080320D01*
X145080882Y-113089754D01*
X145048753Y-113080320D01*
X144919766Y-113022892D01*
X144888319Y-113008891D01*
X144888318Y-113008891D01*
X144882288Y-113006206D01*
X144788888Y-112986353D01*
X144701944Y-112967872D01*
X144701939Y-112967872D01*
X144695487Y-112966500D01*
X144504513Y-112966500D01*
X144498061Y-112967872D01*
X144498056Y-112967872D01*
X144411113Y-112986353D01*
X144317712Y-113006206D01*
X144311682Y-113008891D01*
X144311681Y-113008891D01*
X144280234Y-113022892D01*
X144151248Y-113080320D01*
X144080882Y-113089754D01*
X144048753Y-113080320D01*
X143919766Y-113022892D01*
X143888319Y-113008891D01*
X143888318Y-113008891D01*
X143882288Y-113006206D01*
X143788888Y-112986353D01*
X143701944Y-112967872D01*
X143701939Y-112967872D01*
X143695487Y-112966500D01*
X143504513Y-112966500D01*
X143498061Y-112967872D01*
X143498056Y-112967872D01*
X143411113Y-112986353D01*
X143317712Y-113006206D01*
X143311682Y-113008891D01*
X143311681Y-113008891D01*
X143149278Y-113081197D01*
X143149276Y-113081198D01*
X143143248Y-113083882D01*
X143137907Y-113087762D01*
X143137906Y-113087763D01*
X143090928Y-113121895D01*
X142988747Y-113196134D01*
X142984326Y-113201044D01*
X142984325Y-113201045D01*
X142886432Y-113309767D01*
X142860960Y-113338056D01*
X142765473Y-113503444D01*
X142706458Y-113685072D01*
X142705768Y-113691633D01*
X142705768Y-113691635D01*
X142691557Y-113826851D01*
X142686496Y-113875000D01*
X142687186Y-113881565D01*
X142705653Y-114057266D01*
X142706458Y-114064928D01*
X142765473Y-114246556D01*
X142768776Y-114252278D01*
X142768777Y-114252279D01*
X142803257Y-114312000D01*
X142819995Y-114380995D01*
X142803257Y-114438000D01*
X142784142Y-114471109D01*
X142765473Y-114503444D01*
X142706458Y-114685072D01*
X142686496Y-114875000D01*
X142687186Y-114881565D01*
X142702356Y-115025896D01*
X142706458Y-115064928D01*
X142765473Y-115246556D01*
X142768776Y-115252277D01*
X142774389Y-115261998D01*
X142791128Y-115330993D01*
X142774390Y-115388000D01*
X142765473Y-115403444D01*
X142706458Y-115585072D01*
X142686496Y-115775000D01*
X125660727Y-115775000D01*
X125722713Y-115699268D01*
X125872927Y-115454142D01*
X125988483Y-115190898D01*
X126002733Y-115140875D01*
X126066068Y-114918534D01*
X126067244Y-114914406D01*
X126098948Y-114691635D01*
X126107146Y-114634036D01*
X126107146Y-114634034D01*
X126107751Y-114629784D01*
X126107831Y-114614684D01*
X126109235Y-114346583D01*
X126109235Y-114346576D01*
X126109257Y-114342297D01*
X126105269Y-114312000D01*
X126084753Y-114156173D01*
X126071732Y-114057266D01*
X126068299Y-114044715D01*
X126007222Y-113821457D01*
X125995871Y-113779964D01*
X125908072Y-113574123D01*
X125884763Y-113519476D01*
X125884761Y-113519472D01*
X125883077Y-113515524D01*
X125759934Y-113309767D01*
X125737643Y-113272521D01*
X125737640Y-113272517D01*
X125735439Y-113268839D01*
X125555687Y-113044472D01*
X125430441Y-112925618D01*
X125350258Y-112849527D01*
X125350255Y-112849525D01*
X125347149Y-112846577D01*
X125149585Y-112704612D01*
X125117172Y-112681321D01*
X125117171Y-112681320D01*
X125113683Y-112678814D01*
X125107806Y-112675702D01*
X125048507Y-112644305D01*
X124859608Y-112544288D01*
X124651816Y-112468247D01*
X124593658Y-112446964D01*
X124593656Y-112446963D01*
X124589627Y-112445489D01*
X124308736Y-112384245D01*
X124277685Y-112381801D01*
X124085718Y-112366693D01*
X124085709Y-112366693D01*
X124083261Y-112366500D01*
X123927729Y-112366500D01*
X123925593Y-112366646D01*
X123925582Y-112366646D01*
X123717452Y-112380835D01*
X123717446Y-112380836D01*
X123713175Y-112381127D01*
X123708980Y-112381996D01*
X123708978Y-112381996D01*
X123591493Y-112406326D01*
X123431658Y-112439426D01*
X123160657Y-112535393D01*
X122905188Y-112667250D01*
X122901687Y-112669711D01*
X122901683Y-112669713D01*
X122787582Y-112749905D01*
X122669977Y-112832559D01*
X122605442Y-112892529D01*
X122465155Y-113022892D01*
X122459378Y-113028260D01*
X122277287Y-113250732D01*
X122127073Y-113495858D01*
X122125347Y-113499791D01*
X122125346Y-113499792D01*
X122022798Y-113733404D01*
X122011517Y-113759102D01*
X122010342Y-113763229D01*
X122010341Y-113763230D01*
X121976632Y-113881565D01*
X121932756Y-114035594D01*
X121892249Y-114320216D01*
X121892227Y-114324505D01*
X121892226Y-114324512D01*
X121891030Y-114552905D01*
X121890743Y-114607703D01*
X120700000Y-114607703D01*
X120700000Y-105794072D01*
X121139171Y-105794072D01*
X121152030Y-106017092D01*
X121153167Y-106022138D01*
X121153168Y-106022144D01*
X121166517Y-106081377D01*
X121201142Y-106235016D01*
X121285186Y-106441993D01*
X121334278Y-106522104D01*
X121399211Y-106628065D01*
X121401907Y-106632465D01*
X121548170Y-106801315D01*
X121552150Y-106804619D01*
X121556901Y-106808564D01*
X121596536Y-106867467D01*
X121598033Y-106938448D01*
X121560917Y-106998970D01*
X121520645Y-107023489D01*
X121473049Y-107041332D01*
X121405215Y-107066762D01*
X121288659Y-107154116D01*
X121201305Y-107270672D01*
X121150175Y-107407061D01*
X121143420Y-107469243D01*
X121143420Y-109265511D01*
X121150175Y-109327693D01*
X121201305Y-109464082D01*
X121288659Y-109580638D01*
X121405215Y-109667992D01*
X121541604Y-109719122D01*
X121603786Y-109725877D01*
X123400054Y-109725877D01*
X123462236Y-109719122D01*
X123598625Y-109667992D01*
X123715181Y-109580638D01*
X123802535Y-109464082D01*
X123844617Y-109351829D01*
X123846518Y-109346759D01*
X123889160Y-109289995D01*
X123955722Y-109265295D01*
X124025070Y-109280503D01*
X124059737Y-109308491D01*
X124088170Y-109341315D01*
X124260046Y-109484009D01*
X124452920Y-109596715D01*
X124457745Y-109598557D01*
X124457746Y-109598558D01*
X124499976Y-109614684D01*
X124661612Y-109676407D01*
X124666680Y-109677438D01*
X124666683Y-109677439D01*
X124722810Y-109688858D01*
X124880517Y-109720944D01*
X124885692Y-109721134D01*
X124885694Y-109721134D01*
X125098593Y-109728941D01*
X125098597Y-109728941D01*
X125103757Y-109729130D01*
X125108877Y-109728474D01*
X125108879Y-109728474D01*
X125320208Y-109701402D01*
X125320209Y-109701402D01*
X125325336Y-109700745D01*
X125330286Y-109699260D01*
X125534349Y-109638038D01*
X125534354Y-109638036D01*
X125539304Y-109636551D01*
X125739914Y-109538273D01*
X125921780Y-109408550D01*
X125948835Y-109381590D01*
X126027532Y-109303167D01*
X126080016Y-109250866D01*
X126099857Y-109223255D01*
X126210373Y-109069454D01*
X126211696Y-109070405D01*
X126258565Y-109027234D01*
X126328500Y-109015002D01*
X126393946Y-109042521D01*
X126421795Y-109074371D01*
X126481907Y-109172465D01*
X126628170Y-109341315D01*
X126800046Y-109484009D01*
X126992920Y-109596715D01*
X126997745Y-109598557D01*
X126997746Y-109598558D01*
X127039976Y-109614684D01*
X127201612Y-109676407D01*
X127206680Y-109677438D01*
X127206683Y-109677439D01*
X127262810Y-109688858D01*
X127420517Y-109720944D01*
X127425692Y-109721134D01*
X127425694Y-109721134D01*
X127638593Y-109728941D01*
X127638597Y-109728941D01*
X127643757Y-109729130D01*
X127648877Y-109728474D01*
X127648879Y-109728474D01*
X127860208Y-109701402D01*
X127860209Y-109701402D01*
X127865336Y-109700745D01*
X127870286Y-109699260D01*
X128074349Y-109638038D01*
X128074354Y-109638036D01*
X128079304Y-109636551D01*
X128279914Y-109538273D01*
X128461780Y-109408550D01*
X128488835Y-109381590D01*
X128567532Y-109303167D01*
X128620016Y-109250866D01*
X128639857Y-109223255D01*
X128750373Y-109069454D01*
X128751696Y-109070405D01*
X128798565Y-109027234D01*
X128868500Y-109015002D01*
X128933946Y-109042521D01*
X128961795Y-109074371D01*
X129021907Y-109172465D01*
X129168170Y-109341315D01*
X129340046Y-109484009D01*
X129532920Y-109596715D01*
X129537745Y-109598557D01*
X129537746Y-109598558D01*
X129579976Y-109614684D01*
X129741612Y-109676407D01*
X129746680Y-109677438D01*
X129746683Y-109677439D01*
X129802810Y-109688858D01*
X129960517Y-109720944D01*
X129965692Y-109721134D01*
X129965694Y-109721134D01*
X130178593Y-109728941D01*
X130178597Y-109728941D01*
X130183757Y-109729130D01*
X130188877Y-109728474D01*
X130188879Y-109728474D01*
X130400208Y-109701402D01*
X130400209Y-109701402D01*
X130405336Y-109700745D01*
X130410286Y-109699260D01*
X130614349Y-109638038D01*
X130614354Y-109638036D01*
X130619304Y-109636551D01*
X130819914Y-109538273D01*
X131001780Y-109408550D01*
X131028835Y-109381590D01*
X131107532Y-109303167D01*
X131160016Y-109250866D01*
X131179857Y-109223255D01*
X131290373Y-109069454D01*
X131291696Y-109070405D01*
X131338565Y-109027234D01*
X131408500Y-109015002D01*
X131473946Y-109042521D01*
X131501795Y-109074371D01*
X131561907Y-109172465D01*
X131708170Y-109341315D01*
X131880046Y-109484009D01*
X132072920Y-109596715D01*
X132077745Y-109598557D01*
X132077746Y-109598558D01*
X132119976Y-109614684D01*
X132281612Y-109676407D01*
X132286680Y-109677438D01*
X132286683Y-109677439D01*
X132342810Y-109688858D01*
X132500517Y-109720944D01*
X132505692Y-109721134D01*
X132505694Y-109721134D01*
X132718593Y-109728941D01*
X132718597Y-109728941D01*
X132723757Y-109729130D01*
X132728877Y-109728474D01*
X132728879Y-109728474D01*
X132940208Y-109701402D01*
X132940209Y-109701402D01*
X132945336Y-109700745D01*
X132950286Y-109699260D01*
X133154349Y-109638038D01*
X133154354Y-109638036D01*
X133159304Y-109636551D01*
X133359914Y-109538273D01*
X133541780Y-109408550D01*
X133568835Y-109381590D01*
X133647532Y-109303167D01*
X133700016Y-109250866D01*
X133719857Y-109223255D01*
X133827355Y-109073654D01*
X133830373Y-109069454D01*
X133851240Y-109027234D01*
X133927056Y-108873830D01*
X133927057Y-108873828D01*
X133929350Y-108869188D01*
X133984139Y-108688858D01*
X133992785Y-108660400D01*
X133992785Y-108660398D01*
X133994290Y-108655446D01*
X134023449Y-108433967D01*
X134025076Y-108367377D01*
X134006772Y-108144738D01*
X133952351Y-107928079D01*
X133863274Y-107723217D01*
X133815461Y-107649310D01*
X133744742Y-107539994D01*
X133744740Y-107539991D01*
X133741934Y-107535654D01*
X133591590Y-107370428D01*
X133587539Y-107367229D01*
X133587535Y-107367225D01*
X133421187Y-107235851D01*
X137986719Y-107235851D01*
X137987235Y-107241995D01*
X138002384Y-107422402D01*
X138003268Y-107432934D01*
X138014250Y-107471233D01*
X138032723Y-107535654D01*
X138057783Y-107623050D01*
X138060602Y-107628535D01*
X138143948Y-107790707D01*
X138148187Y-107798956D01*
X138271035Y-107953953D01*
X138275728Y-107957947D01*
X138275729Y-107957948D01*
X138281711Y-107963039D01*
X138320624Y-108022422D01*
X138321255Y-108093416D01*
X138318776Y-108100407D01*
X138318567Y-108100787D01*
X138317938Y-108102769D01*
X138317934Y-108102781D01*
X138291173Y-108187143D01*
X138258765Y-108289306D01*
X138236719Y-108485851D01*
X138237235Y-108491995D01*
X138249445Y-108637401D01*
X138253268Y-108682934D01*
X138254967Y-108688858D01*
X138302624Y-108855057D01*
X138307783Y-108873050D01*
X138398187Y-109048956D01*
X138521035Y-109203953D01*
X138525728Y-109207947D01*
X138525729Y-109207948D01*
X138657199Y-109319837D01*
X138671650Y-109332136D01*
X138844294Y-109428624D01*
X139032392Y-109489740D01*
X139228777Y-109513158D01*
X139234912Y-109512686D01*
X139234914Y-109512686D01*
X139419830Y-109498457D01*
X139419834Y-109498456D01*
X139425972Y-109497984D01*
X139616463Y-109444798D01*
X139621967Y-109442018D01*
X139621969Y-109442017D01*
X139787495Y-109358404D01*
X139787497Y-109358403D01*
X139792996Y-109355625D01*
X139930528Y-109248173D01*
X139943991Y-109237655D01*
X139948847Y-109233861D01*
X140063713Y-109100787D01*
X140074049Y-109088813D01*
X140074050Y-109088811D01*
X140078078Y-109084145D01*
X140175769Y-108912179D01*
X140238197Y-108724513D01*
X140262985Y-108528295D01*
X140263380Y-108500000D01*
X140244080Y-108303167D01*
X140186916Y-108113831D01*
X140094066Y-107939204D01*
X139992510Y-107814684D01*
X139972955Y-107790707D01*
X139972952Y-107790704D01*
X139969065Y-107785938D01*
X139964325Y-107782017D01*
X139960202Y-107777865D01*
X139926395Y-107715435D01*
X139930050Y-107649310D01*
X139969129Y-107531834D01*
X139988197Y-107474513D01*
X140012985Y-107278295D01*
X140013380Y-107250000D01*
X139994080Y-107053167D01*
X139982748Y-107015632D01*
X139938697Y-106869731D01*
X139936916Y-106863831D01*
X139844066Y-106689204D01*
X139773709Y-106602938D01*
X139722960Y-106540713D01*
X139722957Y-106540710D01*
X139719065Y-106535938D01*
X139712377Y-106530405D01*
X139571425Y-106413799D01*
X139571421Y-106413797D01*
X139566675Y-106409870D01*
X139392701Y-106315802D01*
X139203768Y-106257318D01*
X139197643Y-106256674D01*
X139197642Y-106256674D01*
X139013204Y-106237289D01*
X139013202Y-106237289D01*
X139007075Y-106236645D01*
X138924576Y-106244153D01*
X138816251Y-106254011D01*
X138816248Y-106254012D01*
X138810112Y-106254570D01*
X138804206Y-106256308D01*
X138804202Y-106256309D01*
X138699076Y-106287249D01*
X138620381Y-106310410D01*
X138614923Y-106313263D01*
X138614919Y-106313265D01*
X138524147Y-106360720D01*
X138445110Y-106402040D01*
X138290975Y-106525968D01*
X138163846Y-106677474D01*
X138160879Y-106682872D01*
X138160875Y-106682877D01*
X138143483Y-106714514D01*
X138068567Y-106850787D01*
X138066706Y-106856654D01*
X138066705Y-106856656D01*
X138013782Y-107023489D01*
X138008765Y-107039306D01*
X137996491Y-107148735D01*
X137987434Y-107229481D01*
X137986719Y-107235851D01*
X133421187Y-107235851D01*
X133420334Y-107235177D01*
X133420330Y-107235175D01*
X133416279Y-107231975D01*
X133374489Y-107208906D01*
X133324518Y-107158474D01*
X133309746Y-107089031D01*
X133334862Y-107022625D01*
X133362214Y-106996018D01*
X133537248Y-106871169D01*
X133545120Y-106864516D01*
X133695972Y-106714189D01*
X133702650Y-106706342D01*
X133826923Y-106533397D01*
X133832233Y-106524560D01*
X133926590Y-106333644D01*
X133930389Y-106324049D01*
X133992297Y-106120287D01*
X133994475Y-106110214D01*
X133995906Y-106099339D01*
X133993695Y-106085155D01*
X133980537Y-106081377D01*
X132533920Y-106081377D01*
X132465799Y-106061375D01*
X132419306Y-106007719D01*
X132407920Y-105955377D01*
X132407920Y-105555262D01*
X132915920Y-105555262D01*
X132920395Y-105570501D01*
X132921785Y-105571706D01*
X132929468Y-105573377D01*
X133980264Y-105573377D01*
X133993795Y-105569404D01*
X133995100Y-105560324D01*
X133953134Y-105393252D01*
X133949814Y-105383501D01*
X133864892Y-105188191D01*
X133860025Y-105179116D01*
X133744346Y-105000303D01*
X133738056Y-104992134D01*
X133594726Y-104834617D01*
X133587193Y-104827592D01*
X133420059Y-104695599D01*
X133411472Y-104689894D01*
X133225037Y-104586976D01*
X133215625Y-104582746D01*
X133014879Y-104511657D01*
X133004908Y-104509023D01*
X132933757Y-104496349D01*
X132920460Y-104497809D01*
X132915920Y-104512366D01*
X132915920Y-105555262D01*
X132407920Y-105555262D01*
X132407920Y-104510479D01*
X132404002Y-104497135D01*
X132389726Y-104495148D01*
X132351244Y-104501037D01*
X132341208Y-104503428D01*
X132138788Y-104569589D01*
X132129279Y-104573586D01*
X131940383Y-104671919D01*
X131931658Y-104677413D01*
X131761353Y-104805282D01*
X131753646Y-104812125D01*
X131606510Y-104966094D01*
X131600029Y-104974099D01*
X131495418Y-105127451D01*
X131440507Y-105172453D01*
X131369982Y-105180624D01*
X131306235Y-105149370D01*
X131285538Y-105124886D01*
X131204742Y-104999994D01*
X131204740Y-104999991D01*
X131201934Y-104995654D01*
X131051590Y-104830428D01*
X131047539Y-104827229D01*
X131047535Y-104827225D01*
X130880334Y-104695177D01*
X130880330Y-104695175D01*
X130876279Y-104691975D01*
X130839948Y-104671919D01*
X130824056Y-104663146D01*
X130680709Y-104584015D01*
X130675840Y-104582291D01*
X130675836Y-104582289D01*
X130475007Y-104511172D01*
X130475003Y-104511171D01*
X130470132Y-104509446D01*
X130465039Y-104508539D01*
X130465036Y-104508538D01*
X130255293Y-104471177D01*
X130255287Y-104471176D01*
X130250204Y-104470271D01*
X130176372Y-104469369D01*
X130032001Y-104467605D01*
X130031999Y-104467605D01*
X130026831Y-104467542D01*
X129806011Y-104501332D01*
X129593676Y-104570734D01*
X129395527Y-104673884D01*
X129391394Y-104676987D01*
X129391391Y-104676989D01*
X129367167Y-104695177D01*
X129216885Y-104808012D01*
X129062549Y-104969515D01*
X128955121Y-105126998D01*
X128900213Y-105171998D01*
X128829688Y-105180169D01*
X128765941Y-105148915D01*
X128745244Y-105124431D01*
X128664742Y-104999994D01*
X128664740Y-104999991D01*
X128661934Y-104995654D01*
X128511590Y-104830428D01*
X128507539Y-104827229D01*
X128507535Y-104827225D01*
X128340334Y-104695177D01*
X128340330Y-104695175D01*
X128336279Y-104691975D01*
X128299948Y-104671919D01*
X128284056Y-104663146D01*
X128140709Y-104584015D01*
X128135840Y-104582291D01*
X128135836Y-104582289D01*
X127935007Y-104511172D01*
X127935003Y-104511171D01*
X127930132Y-104509446D01*
X127925039Y-104508539D01*
X127925036Y-104508538D01*
X127715293Y-104471177D01*
X127715287Y-104471176D01*
X127710204Y-104470271D01*
X127636372Y-104469369D01*
X127492001Y-104467605D01*
X127491999Y-104467605D01*
X127486831Y-104467542D01*
X127266011Y-104501332D01*
X127053676Y-104570734D01*
X126855527Y-104673884D01*
X126851394Y-104676987D01*
X126851391Y-104676989D01*
X126827167Y-104695177D01*
X126676885Y-104808012D01*
X126522549Y-104969515D01*
X126415121Y-105126998D01*
X126360213Y-105171998D01*
X126289688Y-105180169D01*
X126225941Y-105148915D01*
X126205244Y-105124431D01*
X126124742Y-104999994D01*
X126124740Y-104999991D01*
X126121934Y-104995654D01*
X125971590Y-104830428D01*
X125967539Y-104827229D01*
X125967535Y-104827225D01*
X125800334Y-104695177D01*
X125800330Y-104695175D01*
X125796279Y-104691975D01*
X125759948Y-104671919D01*
X125744056Y-104663146D01*
X125600709Y-104584015D01*
X125595840Y-104582291D01*
X125595836Y-104582289D01*
X125395007Y-104511172D01*
X125395003Y-104511171D01*
X125390132Y-104509446D01*
X125385039Y-104508539D01*
X125385036Y-104508538D01*
X125175293Y-104471177D01*
X125175287Y-104471176D01*
X125170204Y-104470271D01*
X125096372Y-104469369D01*
X124952001Y-104467605D01*
X124951999Y-104467605D01*
X124946831Y-104467542D01*
X124726011Y-104501332D01*
X124513676Y-104570734D01*
X124315527Y-104673884D01*
X124311394Y-104676987D01*
X124311391Y-104676989D01*
X124287167Y-104695177D01*
X124136885Y-104808012D01*
X123982549Y-104969515D01*
X123875121Y-105126998D01*
X123820213Y-105171998D01*
X123749688Y-105180169D01*
X123685941Y-105148915D01*
X123665244Y-105124431D01*
X123584742Y-104999994D01*
X123584740Y-104999991D01*
X123581934Y-104995654D01*
X123431590Y-104830428D01*
X123427539Y-104827229D01*
X123427535Y-104827225D01*
X123260334Y-104695177D01*
X123260330Y-104695175D01*
X123256279Y-104691975D01*
X123219948Y-104671919D01*
X123204056Y-104663146D01*
X123060709Y-104584015D01*
X123055840Y-104582291D01*
X123055836Y-104582289D01*
X122855007Y-104511172D01*
X122855003Y-104511171D01*
X122850132Y-104509446D01*
X122845039Y-104508539D01*
X122845036Y-104508538D01*
X122635293Y-104471177D01*
X122635287Y-104471176D01*
X122630204Y-104470271D01*
X122556372Y-104469369D01*
X122412001Y-104467605D01*
X122411999Y-104467605D01*
X122406831Y-104467542D01*
X122186011Y-104501332D01*
X121973676Y-104570734D01*
X121775527Y-104673884D01*
X121771394Y-104676987D01*
X121771391Y-104676989D01*
X121747167Y-104695177D01*
X121596885Y-104808012D01*
X121442549Y-104969515D01*
X121316663Y-105154057D01*
X121222608Y-105356682D01*
X121162909Y-105571947D01*
X121139171Y-105794072D01*
X120700000Y-105794072D01*
X120700000Y-103498134D01*
X179966500Y-103498134D01*
X179973255Y-103560316D01*
X180024385Y-103696705D01*
X180111739Y-103813261D01*
X180228295Y-103900615D01*
X180364684Y-103951745D01*
X180426866Y-103958500D01*
X182223134Y-103958500D01*
X182285316Y-103951745D01*
X182421705Y-103900615D01*
X182538261Y-103813261D01*
X182625615Y-103696705D01*
X182647799Y-103637529D01*
X182669598Y-103579382D01*
X182712240Y-103522618D01*
X182778802Y-103497918D01*
X182848150Y-103513126D01*
X182882817Y-103541114D01*
X182911250Y-103573938D01*
X183083126Y-103716632D01*
X183276000Y-103829338D01*
X183484692Y-103909030D01*
X183489760Y-103910061D01*
X183489763Y-103910062D01*
X183584862Y-103929410D01*
X183703597Y-103953567D01*
X183708772Y-103953757D01*
X183708774Y-103953757D01*
X183921673Y-103961564D01*
X183921677Y-103961564D01*
X183926837Y-103961753D01*
X183931957Y-103961097D01*
X183931959Y-103961097D01*
X184143288Y-103934025D01*
X184143289Y-103934025D01*
X184148416Y-103933368D01*
X184153366Y-103931883D01*
X184357429Y-103870661D01*
X184357434Y-103870659D01*
X184362384Y-103869174D01*
X184562994Y-103770896D01*
X184744860Y-103641173D01*
X184903096Y-103483489D01*
X185033453Y-103302077D01*
X185034640Y-103302930D01*
X185081960Y-103259362D01*
X185151897Y-103247145D01*
X185217338Y-103274678D01*
X185245166Y-103306511D01*
X185302694Y-103400388D01*
X185308777Y-103408699D01*
X185448213Y-103569667D01*
X185455580Y-103576883D01*
X185619434Y-103712916D01*
X185627881Y-103718831D01*
X185811756Y-103826279D01*
X185821042Y-103830729D01*
X186020001Y-103906703D01*
X186029899Y-103909579D01*
X186133250Y-103930606D01*
X186147299Y-103929410D01*
X186151000Y-103919065D01*
X186151000Y-103918517D01*
X186659000Y-103918517D01*
X186663064Y-103932359D01*
X186676478Y-103934393D01*
X186683184Y-103933534D01*
X186693262Y-103931392D01*
X186897255Y-103870191D01*
X186906842Y-103866433D01*
X187098095Y-103772739D01*
X187106945Y-103767464D01*
X187280328Y-103643792D01*
X187288200Y-103637139D01*
X187439052Y-103486812D01*
X187445730Y-103478965D01*
X187570003Y-103306020D01*
X187575313Y-103297183D01*
X187669670Y-103106267D01*
X187673469Y-103096672D01*
X187735377Y-102892910D01*
X187737555Y-102882837D01*
X187738986Y-102871962D01*
X187736775Y-102857778D01*
X187723617Y-102854000D01*
X186677115Y-102854000D01*
X186661876Y-102858475D01*
X186660671Y-102859865D01*
X186659000Y-102867548D01*
X186659000Y-103918517D01*
X186151000Y-103918517D01*
X186151000Y-102327885D01*
X186659000Y-102327885D01*
X186663475Y-102343124D01*
X186664865Y-102344329D01*
X186672548Y-102346000D01*
X187723344Y-102346000D01*
X187736875Y-102342027D01*
X187738180Y-102332947D01*
X187696214Y-102165875D01*
X187692894Y-102156124D01*
X187607972Y-101960814D01*
X187603105Y-101951739D01*
X187487426Y-101772926D01*
X187481136Y-101764757D01*
X187337806Y-101607240D01*
X187330273Y-101600215D01*
X187163139Y-101468222D01*
X187154552Y-101462517D01*
X186968117Y-101359599D01*
X186958705Y-101355369D01*
X186757959Y-101284280D01*
X186747988Y-101281646D01*
X186676837Y-101268972D01*
X186663540Y-101270432D01*
X186659000Y-101284989D01*
X186659000Y-102327885D01*
X186151000Y-102327885D01*
X186151000Y-101283102D01*
X186147082Y-101269758D01*
X186132806Y-101267771D01*
X186094324Y-101273660D01*
X186084288Y-101276051D01*
X185881868Y-101342212D01*
X185872359Y-101346209D01*
X185683463Y-101444542D01*
X185674738Y-101450036D01*
X185504433Y-101577905D01*
X185496726Y-101584748D01*
X185349590Y-101738717D01*
X185343109Y-101746722D01*
X185238498Y-101900074D01*
X185183587Y-101945076D01*
X185113062Y-101953247D01*
X185049315Y-101921993D01*
X185028618Y-101897509D01*
X184947822Y-101772617D01*
X184947820Y-101772614D01*
X184945014Y-101768277D01*
X184794670Y-101603051D01*
X184790619Y-101599852D01*
X184790615Y-101599848D01*
X184623414Y-101467800D01*
X184623410Y-101467798D01*
X184619359Y-101464598D01*
X184583028Y-101444542D01*
X184567135Y-101435769D01*
X184423789Y-101356638D01*
X184418920Y-101354914D01*
X184418916Y-101354912D01*
X184218087Y-101283795D01*
X184218083Y-101283794D01*
X184213212Y-101282069D01*
X184208119Y-101281162D01*
X184208116Y-101281161D01*
X183998373Y-101243800D01*
X183998367Y-101243799D01*
X183993284Y-101242894D01*
X183919452Y-101241992D01*
X183775081Y-101240228D01*
X183775079Y-101240228D01*
X183769911Y-101240165D01*
X183549091Y-101273955D01*
X183336756Y-101343357D01*
X183138607Y-101446507D01*
X183134474Y-101449610D01*
X183134471Y-101449612D01*
X182964100Y-101577530D01*
X182959965Y-101580635D01*
X182903537Y-101639684D01*
X182879283Y-101665064D01*
X182817759Y-101700494D01*
X182746846Y-101697037D01*
X182689060Y-101655791D01*
X182670207Y-101622243D01*
X182628767Y-101511703D01*
X182625615Y-101503295D01*
X182538261Y-101386739D01*
X182421705Y-101299385D01*
X182285316Y-101248255D01*
X182223134Y-101241500D01*
X180426866Y-101241500D01*
X180364684Y-101248255D01*
X180228295Y-101299385D01*
X180111739Y-101386739D01*
X180024385Y-101503295D01*
X179973255Y-101639684D01*
X179966500Y-101701866D01*
X179966500Y-103498134D01*
X120700000Y-103498134D01*
X120700000Y-97485851D01*
X125236719Y-97485851D01*
X125237235Y-97491995D01*
X125250612Y-97651300D01*
X125253268Y-97682934D01*
X125307783Y-97873050D01*
X125398187Y-98048956D01*
X125521035Y-98203953D01*
X125671650Y-98332136D01*
X125677027Y-98335141D01*
X125682090Y-98338660D01*
X125681043Y-98340166D01*
X125724718Y-98384709D01*
X125738756Y-98458048D01*
X125736719Y-98476208D01*
X125753268Y-98673291D01*
X125807783Y-98863407D01*
X125898187Y-99039313D01*
X126021035Y-99194310D01*
X126171650Y-99322493D01*
X126344294Y-99418981D01*
X126532392Y-99480097D01*
X126728777Y-99503515D01*
X126734912Y-99503043D01*
X126734914Y-99503043D01*
X126919830Y-99488814D01*
X126919834Y-99488813D01*
X126925972Y-99488341D01*
X127116463Y-99435155D01*
X127121967Y-99432375D01*
X127121969Y-99432374D01*
X127287495Y-99348761D01*
X127287497Y-99348760D01*
X127292996Y-99345982D01*
X127448847Y-99224218D01*
X127578078Y-99074502D01*
X127675769Y-98902536D01*
X127738197Y-98714870D01*
X127762985Y-98518652D01*
X127763380Y-98490357D01*
X127744080Y-98293524D01*
X127686916Y-98104188D01*
X127594066Y-97929561D01*
X127523709Y-97843295D01*
X127472960Y-97781070D01*
X127472957Y-97781067D01*
X127469065Y-97776295D01*
X127316675Y-97650227D01*
X127315998Y-97649861D01*
X127271897Y-97596627D01*
X127263250Y-97535358D01*
X127262298Y-97535291D01*
X127262542Y-97531800D01*
X127262985Y-97528295D01*
X127263380Y-97500000D01*
X127244080Y-97303167D01*
X127186916Y-97113831D01*
X127094066Y-96939204D01*
X127001230Y-96825376D01*
X126972960Y-96790713D01*
X126972957Y-96790710D01*
X126969065Y-96785938D01*
X126962724Y-96780692D01*
X126821425Y-96663799D01*
X126821421Y-96663797D01*
X126816675Y-96659870D01*
X126642701Y-96565802D01*
X126453768Y-96507318D01*
X126447643Y-96506674D01*
X126447642Y-96506674D01*
X126263204Y-96487289D01*
X126263202Y-96487289D01*
X126257075Y-96486645D01*
X126174576Y-96494153D01*
X126066251Y-96504011D01*
X126066248Y-96504012D01*
X126060112Y-96504570D01*
X126054206Y-96506308D01*
X126054202Y-96506309D01*
X125949076Y-96537249D01*
X125870381Y-96560410D01*
X125864923Y-96563263D01*
X125864919Y-96563265D01*
X125824980Y-96584145D01*
X125695110Y-96652040D01*
X125540975Y-96775968D01*
X125413846Y-96927474D01*
X125410879Y-96932872D01*
X125410875Y-96932877D01*
X125366741Y-97013158D01*
X125318567Y-97100787D01*
X125316706Y-97106654D01*
X125316705Y-97106656D01*
X125260627Y-97283436D01*
X125258765Y-97289306D01*
X125236719Y-97485851D01*
X120700000Y-97485851D01*
X120700000Y-95310851D01*
X138961719Y-95310851D01*
X138962235Y-95316995D01*
X138972474Y-95438927D01*
X138978268Y-95507934D01*
X138979967Y-95513858D01*
X139008634Y-95613831D01*
X139032783Y-95698050D01*
X139035602Y-95703535D01*
X139079683Y-95789306D01*
X139123187Y-95873956D01*
X139246035Y-96028953D01*
X139396650Y-96157136D01*
X139569294Y-96253624D01*
X139757392Y-96314740D01*
X139953777Y-96338158D01*
X139959912Y-96337686D01*
X139959914Y-96337686D01*
X140144830Y-96323457D01*
X140144834Y-96323456D01*
X140150972Y-96322984D01*
X140341463Y-96269798D01*
X140346967Y-96267018D01*
X140346969Y-96267017D01*
X140512495Y-96183404D01*
X140512497Y-96183403D01*
X140517996Y-96180625D01*
X140673847Y-96058861D01*
X140736867Y-95985851D01*
X185236719Y-95985851D01*
X185237235Y-95991995D01*
X185251102Y-96157136D01*
X185253268Y-96182934D01*
X185254967Y-96188858D01*
X185297643Y-96337686D01*
X185307783Y-96373050D01*
X185310602Y-96378535D01*
X185375376Y-96504570D01*
X185398187Y-96548956D01*
X185521035Y-96703953D01*
X185525728Y-96707947D01*
X185525729Y-96707948D01*
X185605653Y-96775968D01*
X185671650Y-96832136D01*
X185844294Y-96928624D01*
X186032392Y-96989740D01*
X186228777Y-97013158D01*
X186234912Y-97012686D01*
X186234914Y-97012686D01*
X186419830Y-96998457D01*
X186419834Y-96998456D01*
X186425972Y-96997984D01*
X186616463Y-96944798D01*
X186621967Y-96942018D01*
X186621969Y-96942017D01*
X186787495Y-96858404D01*
X186787497Y-96858403D01*
X186792996Y-96855625D01*
X186798211Y-96851551D01*
X186798431Y-96851463D01*
X186803053Y-96848530D01*
X186803611Y-96849409D01*
X186864205Y-96825376D01*
X186937251Y-96840855D01*
X187094294Y-96928624D01*
X187282392Y-96989740D01*
X187478777Y-97013158D01*
X187484912Y-97012686D01*
X187484914Y-97012686D01*
X187669830Y-96998457D01*
X187669834Y-96998456D01*
X187675972Y-96997984D01*
X187866463Y-96944798D01*
X187871967Y-96942018D01*
X187871969Y-96942017D01*
X188037495Y-96858404D01*
X188037497Y-96858403D01*
X188042996Y-96855625D01*
X188048211Y-96851551D01*
X188048431Y-96851463D01*
X188053053Y-96848530D01*
X188053611Y-96849409D01*
X188114205Y-96825376D01*
X188187251Y-96840855D01*
X188344294Y-96928624D01*
X188532392Y-96989740D01*
X188728777Y-97013158D01*
X188734912Y-97012686D01*
X188734914Y-97012686D01*
X188919830Y-96998457D01*
X188919834Y-96998456D01*
X188925972Y-96997984D01*
X189116463Y-96944798D01*
X189121967Y-96942018D01*
X189121969Y-96942017D01*
X189287495Y-96858404D01*
X189287497Y-96858403D01*
X189292996Y-96855625D01*
X189448847Y-96733861D01*
X189578078Y-96584145D01*
X189675769Y-96412179D01*
X189738197Y-96224513D01*
X189762985Y-96028295D01*
X189763380Y-96000000D01*
X189744080Y-95803167D01*
X189686916Y-95613831D01*
X189594066Y-95439204D01*
X189594588Y-95438927D01*
X189574801Y-95375151D01*
X189591230Y-95310993D01*
X189593216Y-95307498D01*
X189652995Y-95202269D01*
X189672723Y-95167542D01*
X189672725Y-95167537D01*
X189675769Y-95162179D01*
X189738197Y-94974513D01*
X189762985Y-94778295D01*
X189763380Y-94750000D01*
X189744080Y-94553167D01*
X189739691Y-94538628D01*
X189688697Y-94369731D01*
X189686916Y-94363831D01*
X189594066Y-94189204D01*
X189594588Y-94188927D01*
X189574801Y-94125151D01*
X189591230Y-94060993D01*
X189593216Y-94057498D01*
X189631565Y-93989992D01*
X189672723Y-93917542D01*
X189672725Y-93917537D01*
X189675769Y-93912179D01*
X189738197Y-93724513D01*
X189762985Y-93528295D01*
X189763380Y-93500000D01*
X189744080Y-93303167D01*
X189740413Y-93291019D01*
X189703597Y-93169082D01*
X189686916Y-93113831D01*
X189594066Y-92939204D01*
X189504226Y-92829049D01*
X189476672Y-92763618D01*
X189488867Y-92693677D01*
X189506488Y-92667083D01*
X189574049Y-92588813D01*
X189574050Y-92588811D01*
X189578078Y-92584145D01*
X189675769Y-92412179D01*
X189738197Y-92224513D01*
X189762985Y-92028295D01*
X189763380Y-92000000D01*
X189744080Y-91803167D01*
X189686916Y-91613831D01*
X189594066Y-91439204D01*
X189594588Y-91438927D01*
X189574801Y-91375151D01*
X189591230Y-91310993D01*
X189593216Y-91307498D01*
X189631189Y-91240654D01*
X189672723Y-91167542D01*
X189672725Y-91167537D01*
X189675769Y-91162179D01*
X189738197Y-90974513D01*
X189762985Y-90778295D01*
X189763380Y-90750000D01*
X189744080Y-90553167D01*
X189686916Y-90363831D01*
X189594066Y-90189204D01*
X189523709Y-90102938D01*
X189472960Y-90040713D01*
X189472957Y-90040710D01*
X189469065Y-90035938D01*
X189462724Y-90030692D01*
X189321425Y-89913799D01*
X189321421Y-89913797D01*
X189316675Y-89909870D01*
X189142701Y-89815802D01*
X188953768Y-89757318D01*
X188947643Y-89756674D01*
X188947642Y-89756674D01*
X188763204Y-89737289D01*
X188763202Y-89737289D01*
X188757075Y-89736645D01*
X188674576Y-89744153D01*
X188566251Y-89754011D01*
X188566248Y-89754012D01*
X188560112Y-89754570D01*
X188554206Y-89756308D01*
X188554202Y-89756309D01*
X188490726Y-89774991D01*
X188370381Y-89810410D01*
X188364923Y-89813263D01*
X188364919Y-89813265D01*
X188328823Y-89832136D01*
X188195110Y-89902040D01*
X188040975Y-90025968D01*
X187913846Y-90177474D01*
X187910879Y-90182872D01*
X187910875Y-90182877D01*
X187844665Y-90303314D01*
X187818567Y-90350787D01*
X187816706Y-90356654D01*
X187816705Y-90356656D01*
X187796765Y-90419514D01*
X187758765Y-90539306D01*
X187736719Y-90735851D01*
X187737235Y-90741995D01*
X187747070Y-90859116D01*
X187753268Y-90932934D01*
X187765191Y-90974513D01*
X187798599Y-91091020D01*
X187807783Y-91123050D01*
X187898187Y-91298956D01*
X187902014Y-91303784D01*
X187904407Y-91307498D01*
X187924495Y-91375593D01*
X187908910Y-91436452D01*
X187818567Y-91600787D01*
X187816706Y-91606654D01*
X187816705Y-91606656D01*
X187811761Y-91622241D01*
X187758765Y-91789306D01*
X187736719Y-91985851D01*
X187753268Y-92182934D01*
X187799223Y-92343198D01*
X187798773Y-92414190D01*
X187760011Y-92473672D01*
X187695244Y-92502755D01*
X187664934Y-92503236D01*
X187513204Y-92487289D01*
X187513202Y-92487289D01*
X187507075Y-92486645D01*
X187424576Y-92494153D01*
X187316251Y-92504011D01*
X187316248Y-92504012D01*
X187310112Y-92504570D01*
X187304206Y-92506308D01*
X187304202Y-92506309D01*
X187221172Y-92530746D01*
X187120381Y-92560410D01*
X187114923Y-92563263D01*
X187114919Y-92563265D01*
X186950566Y-92649187D01*
X186950561Y-92649190D01*
X186945110Y-92652040D01*
X186942831Y-92653872D01*
X186875950Y-92674113D01*
X186814979Y-92658953D01*
X186796917Y-92649187D01*
X186642701Y-92565802D01*
X186453768Y-92507318D01*
X186447643Y-92506674D01*
X186447642Y-92506674D01*
X186263204Y-92487289D01*
X186263202Y-92487289D01*
X186257075Y-92486645D01*
X186174576Y-92494153D01*
X186066251Y-92504011D01*
X186066248Y-92504012D01*
X186060112Y-92504570D01*
X186054206Y-92506308D01*
X186054202Y-92506309D01*
X185971172Y-92530746D01*
X185870381Y-92560410D01*
X185864923Y-92563263D01*
X185864919Y-92563265D01*
X185825973Y-92583626D01*
X185695110Y-92652040D01*
X185540975Y-92775968D01*
X185413846Y-92927474D01*
X185410879Y-92932872D01*
X185410875Y-92932877D01*
X185356002Y-93032693D01*
X185318567Y-93100787D01*
X185316706Y-93106654D01*
X185316705Y-93106656D01*
X185269361Y-93255903D01*
X185258765Y-93289306D01*
X185236719Y-93485851D01*
X185237613Y-93496495D01*
X185250564Y-93650726D01*
X185253268Y-93682934D01*
X185265191Y-93724513D01*
X185299902Y-93845565D01*
X185307783Y-93873050D01*
X185398187Y-94048956D01*
X185402014Y-94053784D01*
X185404407Y-94057498D01*
X185424495Y-94125593D01*
X185408910Y-94186452D01*
X185318567Y-94350787D01*
X185316706Y-94356654D01*
X185316705Y-94356656D01*
X185262959Y-94526085D01*
X185258765Y-94539306D01*
X185236719Y-94735851D01*
X185237235Y-94741995D01*
X185250234Y-94896799D01*
X185253268Y-94932934D01*
X185262312Y-94964475D01*
X185305276Y-95114306D01*
X185307783Y-95123050D01*
X185398187Y-95298956D01*
X185402014Y-95303784D01*
X185404407Y-95307498D01*
X185424495Y-95375593D01*
X185408910Y-95436452D01*
X185318567Y-95600787D01*
X185316706Y-95606654D01*
X185316705Y-95606656D01*
X185289593Y-95692123D01*
X185258765Y-95789306D01*
X185236719Y-95985851D01*
X140736867Y-95985851D01*
X140803078Y-95909145D01*
X140900769Y-95737179D01*
X140963197Y-95549513D01*
X140987985Y-95353295D01*
X140988380Y-95325000D01*
X140969080Y-95128167D01*
X140911916Y-94938831D01*
X140821868Y-94769474D01*
X140807549Y-94699937D01*
X140823564Y-94648084D01*
X140880838Y-94547264D01*
X140896599Y-94519520D01*
X144376976Y-94519520D01*
X144377666Y-94526085D01*
X144394279Y-94684145D01*
X144396938Y-94709448D01*
X144455953Y-94891076D01*
X144551440Y-95056464D01*
X144555858Y-95061371D01*
X144555859Y-95061372D01*
X144616333Y-95128535D01*
X144679227Y-95198386D01*
X144778323Y-95270384D01*
X144810107Y-95293476D01*
X144833728Y-95310638D01*
X144839756Y-95313322D01*
X144839758Y-95313323D01*
X144978627Y-95375151D01*
X145008192Y-95388314D01*
X145101593Y-95408167D01*
X145188536Y-95426648D01*
X145188541Y-95426648D01*
X145194993Y-95428020D01*
X145385967Y-95428020D01*
X145392419Y-95426648D01*
X145392424Y-95426648D01*
X145479368Y-95408167D01*
X145572768Y-95388314D01*
X145602333Y-95375151D01*
X145741202Y-95313323D01*
X145741204Y-95313322D01*
X145747232Y-95310638D01*
X145770854Y-95293476D01*
X145802637Y-95270384D01*
X145901733Y-95198386D01*
X145964627Y-95128535D01*
X146025101Y-95061372D01*
X146025102Y-95061371D01*
X146029520Y-95056464D01*
X146125007Y-94891076D01*
X146184022Y-94709448D01*
X146186682Y-94684145D01*
X146203294Y-94526085D01*
X146203984Y-94519520D01*
X146187049Y-94358392D01*
X146184712Y-94336155D01*
X146184712Y-94336153D01*
X146184022Y-94329592D01*
X146133258Y-94173357D01*
X146607193Y-94173357D01*
X146607883Y-94179922D01*
X146624304Y-94336155D01*
X146627155Y-94363285D01*
X146686170Y-94544913D01*
X146781657Y-94710301D01*
X146786075Y-94715208D01*
X146786076Y-94715209D01*
X146839706Y-94774771D01*
X146909444Y-94852223D01*
X147063945Y-94964475D01*
X147069973Y-94967159D01*
X147069975Y-94967160D01*
X147232378Y-95039466D01*
X147238409Y-95042151D01*
X147328836Y-95061372D01*
X147418753Y-95080485D01*
X147418758Y-95080485D01*
X147425210Y-95081857D01*
X147616184Y-95081857D01*
X147622636Y-95080485D01*
X147622641Y-95080485D01*
X147712558Y-95061372D01*
X147802985Y-95042151D01*
X147809016Y-95039466D01*
X147971419Y-94967160D01*
X147971421Y-94967159D01*
X147977449Y-94964475D01*
X148131950Y-94852223D01*
X148201688Y-94774771D01*
X148255318Y-94715209D01*
X148255319Y-94715208D01*
X148259737Y-94710301D01*
X148355224Y-94544913D01*
X148414239Y-94363285D01*
X148417091Y-94336155D01*
X148433511Y-94179922D01*
X148434201Y-94173357D01*
X148429134Y-94125151D01*
X148414929Y-93989992D01*
X148414929Y-93989990D01*
X148414239Y-93983429D01*
X148355224Y-93801801D01*
X148259737Y-93636413D01*
X148238109Y-93612392D01*
X148136372Y-93499402D01*
X148136371Y-93499401D01*
X148131950Y-93494491D01*
X148031278Y-93421348D01*
X147982791Y-93386120D01*
X147982790Y-93386119D01*
X147977449Y-93382239D01*
X147971421Y-93379555D01*
X147971419Y-93379554D01*
X147809016Y-93307248D01*
X147809015Y-93307248D01*
X147802985Y-93304563D01*
X147703591Y-93283436D01*
X147622641Y-93266229D01*
X147622636Y-93266229D01*
X147616184Y-93264857D01*
X147425210Y-93264857D01*
X147418758Y-93266229D01*
X147418753Y-93266229D01*
X147337803Y-93283436D01*
X147238409Y-93304563D01*
X147232379Y-93307248D01*
X147232378Y-93307248D01*
X147069975Y-93379554D01*
X147069973Y-93379555D01*
X147063945Y-93382239D01*
X147058604Y-93386119D01*
X147058603Y-93386120D01*
X147010116Y-93421348D01*
X146909444Y-93494491D01*
X146905023Y-93499401D01*
X146905022Y-93499402D01*
X146803286Y-93612392D01*
X146781657Y-93636413D01*
X146686170Y-93801801D01*
X146627155Y-93983429D01*
X146626465Y-93989990D01*
X146626465Y-93989992D01*
X146612260Y-94125151D01*
X146607193Y-94173357D01*
X146133258Y-94173357D01*
X146125007Y-94147964D01*
X146111617Y-94124771D01*
X146072776Y-94057498D01*
X146029520Y-93982576D01*
X145945540Y-93889306D01*
X145906155Y-93845565D01*
X145906154Y-93845564D01*
X145901733Y-93840654D01*
X145747232Y-93728402D01*
X145741204Y-93725718D01*
X145741202Y-93725717D01*
X145578799Y-93653411D01*
X145578798Y-93653411D01*
X145572768Y-93650726D01*
X145479368Y-93630873D01*
X145392424Y-93612392D01*
X145392419Y-93612392D01*
X145385967Y-93611020D01*
X145194993Y-93611020D01*
X145188541Y-93612392D01*
X145188536Y-93612392D01*
X145101593Y-93630873D01*
X145008192Y-93650726D01*
X145002162Y-93653411D01*
X145002161Y-93653411D01*
X144839758Y-93725717D01*
X144839756Y-93725718D01*
X144833728Y-93728402D01*
X144679227Y-93840654D01*
X144674806Y-93845564D01*
X144674805Y-93845565D01*
X144635421Y-93889306D01*
X144551440Y-93982576D01*
X144508184Y-94057498D01*
X144469344Y-94124771D01*
X144455953Y-94147964D01*
X144396938Y-94329592D01*
X144396248Y-94336153D01*
X144396248Y-94336155D01*
X144393911Y-94358392D01*
X144376976Y-94519520D01*
X140896599Y-94519520D01*
X140900769Y-94512179D01*
X140963197Y-94324513D01*
X140987985Y-94128295D01*
X140988380Y-94100000D01*
X140969080Y-93903167D01*
X140911916Y-93713831D01*
X140819066Y-93539204D01*
X140733370Y-93434130D01*
X140697960Y-93390713D01*
X140697957Y-93390710D01*
X140694065Y-93385938D01*
X140682226Y-93376144D01*
X140546425Y-93263799D01*
X140546421Y-93263797D01*
X140541675Y-93259870D01*
X140367701Y-93165802D01*
X140178768Y-93107318D01*
X140172643Y-93106674D01*
X140172642Y-93106674D01*
X139988204Y-93087289D01*
X139988202Y-93087289D01*
X139982075Y-93086645D01*
X139899576Y-93094153D01*
X139791251Y-93104011D01*
X139791248Y-93104012D01*
X139785112Y-93104570D01*
X139779206Y-93106308D01*
X139779202Y-93106309D01*
X139674076Y-93137249D01*
X139595381Y-93160410D01*
X139589923Y-93163263D01*
X139589919Y-93163265D01*
X139546998Y-93185704D01*
X139420110Y-93252040D01*
X139265975Y-93375968D01*
X139138846Y-93527474D01*
X139135879Y-93532872D01*
X139135875Y-93532877D01*
X139075813Y-93642131D01*
X139043567Y-93700787D01*
X139041706Y-93706654D01*
X139041705Y-93706656D01*
X138990802Y-93867123D01*
X138983765Y-93889306D01*
X138961719Y-94085851D01*
X138962235Y-94091995D01*
X138970398Y-94189204D01*
X138978268Y-94282934D01*
X138999426Y-94356722D01*
X139003109Y-94369563D01*
X139032783Y-94473050D01*
X139122432Y-94647486D01*
X139123187Y-94648956D01*
X139122908Y-94649100D01*
X139142078Y-94714085D01*
X139126493Y-94774944D01*
X139086709Y-94847312D01*
X139043567Y-94925787D01*
X139041706Y-94931654D01*
X139041705Y-94931656D01*
X139002114Y-95056464D01*
X138983765Y-95114306D01*
X138961719Y-95310851D01*
X120700000Y-95310851D01*
X120700000Y-92039072D01*
X123709171Y-92039072D01*
X123722030Y-92262092D01*
X123723167Y-92267138D01*
X123723168Y-92267144D01*
X123745175Y-92364791D01*
X123771142Y-92480016D01*
X123813424Y-92584145D01*
X123844173Y-92659870D01*
X123855186Y-92686993D01*
X123857885Y-92691397D01*
X123918700Y-92790638D01*
X123971907Y-92877465D01*
X124118170Y-93046315D01*
X124290046Y-93189009D01*
X124482920Y-93301715D01*
X124487745Y-93303557D01*
X124487746Y-93303558D01*
X124560532Y-93331352D01*
X124691612Y-93381407D01*
X124696680Y-93382438D01*
X124696683Y-93382439D01*
X124803937Y-93404260D01*
X124910517Y-93425944D01*
X124915692Y-93426134D01*
X124915694Y-93426134D01*
X125128593Y-93433941D01*
X125128597Y-93433941D01*
X125133757Y-93434130D01*
X125138877Y-93433474D01*
X125138879Y-93433474D01*
X125350208Y-93406402D01*
X125350209Y-93406402D01*
X125355336Y-93405745D01*
X125405440Y-93390713D01*
X125564349Y-93343038D01*
X125564354Y-93343036D01*
X125569304Y-93341551D01*
X125769914Y-93243273D01*
X125951780Y-93113550D01*
X126060011Y-93005696D01*
X126122382Y-92971781D01*
X126193188Y-92976969D01*
X126249950Y-93019615D01*
X126266932Y-93050718D01*
X126287909Y-93106674D01*
X126311305Y-93169082D01*
X126398659Y-93285638D01*
X126515215Y-93372992D01*
X126651604Y-93424122D01*
X126713786Y-93430877D01*
X128510054Y-93430877D01*
X128572236Y-93424122D01*
X128708625Y-93372992D01*
X128825181Y-93285638D01*
X128912535Y-93169082D01*
X128963665Y-93032693D01*
X128970420Y-92970511D01*
X128970420Y-91999520D01*
X141326976Y-91999520D01*
X141346938Y-92189448D01*
X141405953Y-92371076D01*
X141501440Y-92536464D01*
X141629227Y-92678386D01*
X141725118Y-92748055D01*
X141770039Y-92780692D01*
X141783728Y-92790638D01*
X141789756Y-92793322D01*
X141789758Y-92793323D01*
X141870003Y-92829050D01*
X141958192Y-92868314D01*
X142051593Y-92888167D01*
X142138536Y-92906648D01*
X142138541Y-92906648D01*
X142144993Y-92908020D01*
X142335967Y-92908020D01*
X142342419Y-92906648D01*
X142342424Y-92906648D01*
X142429367Y-92888167D01*
X142522768Y-92868314D01*
X142610957Y-92829050D01*
X142691202Y-92793323D01*
X142691204Y-92793322D01*
X142697232Y-92790638D01*
X142710922Y-92780692D01*
X142755842Y-92748055D01*
X142851733Y-92678386D01*
X142979520Y-92536464D01*
X143075007Y-92371076D01*
X143134022Y-92189448D01*
X143153984Y-91999520D01*
X143134022Y-91809592D01*
X143075007Y-91627964D01*
X142979520Y-91462576D01*
X142960948Y-91441949D01*
X142856155Y-91325565D01*
X142856154Y-91325564D01*
X142851733Y-91320654D01*
X142697232Y-91208402D01*
X142691204Y-91205718D01*
X142691202Y-91205717D01*
X142528799Y-91133411D01*
X142528798Y-91133411D01*
X142522768Y-91130726D01*
X142429368Y-91110873D01*
X142342424Y-91092392D01*
X142342419Y-91092392D01*
X142335967Y-91091020D01*
X142144993Y-91091020D01*
X142138541Y-91092392D01*
X142138536Y-91092392D01*
X142051592Y-91110873D01*
X141958192Y-91130726D01*
X141952162Y-91133411D01*
X141952161Y-91133411D01*
X141789758Y-91205717D01*
X141789756Y-91205718D01*
X141783728Y-91208402D01*
X141629227Y-91320654D01*
X141624806Y-91325564D01*
X141624805Y-91325565D01*
X141520013Y-91441949D01*
X141501440Y-91462576D01*
X141405953Y-91627964D01*
X141346938Y-91809592D01*
X141326976Y-91999520D01*
X128970420Y-91999520D01*
X128970420Y-91174243D01*
X128963665Y-91112061D01*
X128912535Y-90975672D01*
X128825181Y-90859116D01*
X128708625Y-90771762D01*
X128659973Y-90753523D01*
X128590123Y-90727337D01*
X128533359Y-90684695D01*
X128508659Y-90618133D01*
X128523867Y-90548785D01*
X128545413Y-90520104D01*
X128566069Y-90499520D01*
X144472916Y-90499520D01*
X144473606Y-90506085D01*
X144485383Y-90618133D01*
X144492878Y-90689448D01*
X144551893Y-90871076D01*
X144647380Y-91036464D01*
X144651798Y-91041371D01*
X144651799Y-91041372D01*
X144722521Y-91119917D01*
X144775167Y-91178386D01*
X144929668Y-91290638D01*
X144935696Y-91293322D01*
X144935698Y-91293323D01*
X145098101Y-91365629D01*
X145104132Y-91368314D01*
X145197533Y-91388167D01*
X145284476Y-91406648D01*
X145284481Y-91406648D01*
X145290933Y-91408020D01*
X145481907Y-91408020D01*
X145488359Y-91406648D01*
X145488364Y-91406648D01*
X145575308Y-91388167D01*
X145668708Y-91368314D01*
X145674739Y-91365629D01*
X145837142Y-91293323D01*
X145837144Y-91293322D01*
X145843172Y-91290638D01*
X145997673Y-91178386D01*
X146050319Y-91119917D01*
X146121041Y-91041372D01*
X146121042Y-91041371D01*
X146125460Y-91036464D01*
X146220947Y-90871076D01*
X146279962Y-90689448D01*
X146287458Y-90618133D01*
X146299234Y-90506085D01*
X146299924Y-90499520D01*
X146279962Y-90309592D01*
X146220947Y-90127964D01*
X146125460Y-89962576D01*
X146110947Y-89946457D01*
X146002095Y-89825565D01*
X146002094Y-89825564D01*
X145997673Y-89820654D01*
X145843172Y-89708402D01*
X145837144Y-89705718D01*
X145837142Y-89705717D01*
X145674739Y-89633411D01*
X145674738Y-89633411D01*
X145668708Y-89630726D01*
X145575307Y-89610873D01*
X145488364Y-89592392D01*
X145488359Y-89592392D01*
X145481907Y-89591020D01*
X145290933Y-89591020D01*
X145284481Y-89592392D01*
X145284476Y-89592392D01*
X145197533Y-89610873D01*
X145104132Y-89630726D01*
X145098102Y-89633411D01*
X145098101Y-89633411D01*
X144935698Y-89705717D01*
X144935696Y-89705718D01*
X144929668Y-89708402D01*
X144775167Y-89820654D01*
X144770746Y-89825564D01*
X144770745Y-89825565D01*
X144661894Y-89946457D01*
X144647380Y-89962576D01*
X144551893Y-90127964D01*
X144492878Y-90309592D01*
X144472916Y-90499520D01*
X128566069Y-90499520D01*
X128646355Y-90419514D01*
X128650016Y-90415866D01*
X128692563Y-90356656D01*
X128777355Y-90238654D01*
X128780373Y-90234454D01*
X128793915Y-90207055D01*
X128877056Y-90038830D01*
X128877057Y-90038828D01*
X128879350Y-90034188D01*
X128920367Y-89899187D01*
X128942785Y-89825400D01*
X128942785Y-89825398D01*
X128944290Y-89820446D01*
X128973449Y-89598967D01*
X128975076Y-89532377D01*
X128956772Y-89309738D01*
X128902351Y-89093079D01*
X128813274Y-88888217D01*
X128733083Y-88764260D01*
X128694742Y-88704994D01*
X128694740Y-88704991D01*
X128691934Y-88700654D01*
X128541590Y-88535428D01*
X128537539Y-88532229D01*
X128537535Y-88532225D01*
X128370334Y-88400177D01*
X128370330Y-88400175D01*
X128366279Y-88396975D01*
X128324973Y-88374173D01*
X128275004Y-88323741D01*
X128260232Y-88254298D01*
X128285348Y-88187893D01*
X128312700Y-88161286D01*
X128356523Y-88130027D01*
X128461227Y-88055343D01*
X133640177Y-88055343D01*
X133670485Y-88189823D01*
X133673565Y-88199652D01*
X133753688Y-88396975D01*
X133758333Y-88406171D01*
X133869614Y-88587765D01*
X133875697Y-88596076D01*
X134015133Y-88757044D01*
X134022500Y-88764260D01*
X134186354Y-88900293D01*
X134194801Y-88906208D01*
X134378676Y-89013656D01*
X134387962Y-89018106D01*
X134586921Y-89094080D01*
X134596819Y-89096956D01*
X134700170Y-89117983D01*
X134714219Y-89116787D01*
X134717920Y-89106442D01*
X134717920Y-88059492D01*
X134713445Y-88044253D01*
X134712055Y-88043048D01*
X134704372Y-88041377D01*
X133655145Y-88041377D01*
X133641614Y-88045350D01*
X133640177Y-88055343D01*
X128461227Y-88055343D01*
X128491780Y-88033550D01*
X128497604Y-88027747D01*
X128595522Y-87930170D01*
X128650016Y-87875866D01*
X128673886Y-87842648D01*
X128777355Y-87698654D01*
X128780373Y-87694454D01*
X128791175Y-87672599D01*
X128877056Y-87498830D01*
X128877057Y-87498828D01*
X128879350Y-87494188D01*
X128922217Y-87353097D01*
X128942785Y-87285400D01*
X128942785Y-87285398D01*
X128944290Y-87280446D01*
X128973449Y-87058967D01*
X128975076Y-86992377D01*
X128956772Y-86769738D01*
X128902351Y-86553079D01*
X128813274Y-86348217D01*
X128733314Y-86224617D01*
X128694742Y-86164994D01*
X128694740Y-86164991D01*
X128691934Y-86160654D01*
X128541590Y-85995428D01*
X128537539Y-85992229D01*
X128537535Y-85992225D01*
X128370334Y-85860177D01*
X128370330Y-85860175D01*
X128366279Y-85856975D01*
X128324973Y-85834173D01*
X128275004Y-85783741D01*
X128260232Y-85714298D01*
X128285348Y-85647893D01*
X128312700Y-85621286D01*
X128356523Y-85590027D01*
X128491780Y-85493550D01*
X128650016Y-85335866D01*
X128709514Y-85253066D01*
X128737534Y-85214072D01*
X133609171Y-85214072D01*
X133609468Y-85219225D01*
X133609468Y-85219228D01*
X133611419Y-85253065D01*
X133622030Y-85437092D01*
X133623167Y-85442138D01*
X133623168Y-85442144D01*
X133637295Y-85504829D01*
X133671142Y-85655016D01*
X133719108Y-85773143D01*
X133752305Y-85854897D01*
X133755186Y-85861993D01*
X133792605Y-85923055D01*
X133869211Y-86048065D01*
X133871907Y-86052465D01*
X134018170Y-86221315D01*
X134106129Y-86294340D01*
X134176397Y-86352677D01*
X134190046Y-86364009D01*
X134262638Y-86406428D01*
X134263875Y-86407151D01*
X134312599Y-86458789D01*
X134325670Y-86528572D01*
X134298939Y-86594344D01*
X134258482Y-86627704D01*
X134250377Y-86631923D01*
X134241658Y-86637413D01*
X134071353Y-86765282D01*
X134063646Y-86772125D01*
X133916510Y-86926094D01*
X133910024Y-86934104D01*
X133790018Y-87110026D01*
X133784920Y-87119000D01*
X133695258Y-87312160D01*
X133691695Y-87321847D01*
X133636309Y-87521560D01*
X133637832Y-87529984D01*
X133650212Y-87533377D01*
X135099920Y-87533377D01*
X135168041Y-87553379D01*
X135214534Y-87607035D01*
X135225920Y-87659377D01*
X135225920Y-89105894D01*
X135229984Y-89119736D01*
X135243398Y-89121770D01*
X135250104Y-89120911D01*
X135260182Y-89118769D01*
X135464175Y-89057568D01*
X135473762Y-89053810D01*
X135665015Y-88960116D01*
X135673865Y-88954841D01*
X135847248Y-88831169D01*
X135855120Y-88824516D01*
X136005972Y-88674189D01*
X136012650Y-88666342D01*
X136139942Y-88489196D01*
X136141199Y-88490099D01*
X136188293Y-88446739D01*
X136258231Y-88434522D01*
X136323671Y-88462055D01*
X136351499Y-88493888D01*
X136411907Y-88592465D01*
X136558170Y-88761315D01*
X136730046Y-88904009D01*
X136922920Y-89016715D01*
X136927745Y-89018557D01*
X136927746Y-89018558D01*
X136953245Y-89028295D01*
X137131612Y-89096407D01*
X137136680Y-89097438D01*
X137136683Y-89097439D01*
X137231782Y-89116787D01*
X137350517Y-89140944D01*
X137355692Y-89141134D01*
X137355694Y-89141134D01*
X137568593Y-89148941D01*
X137568597Y-89148941D01*
X137573757Y-89149130D01*
X137578877Y-89148474D01*
X137578879Y-89148474D01*
X137790208Y-89121402D01*
X137790209Y-89121402D01*
X137795336Y-89120745D01*
X137800286Y-89119260D01*
X138004349Y-89058038D01*
X138004354Y-89058036D01*
X138009304Y-89056551D01*
X138209914Y-88958273D01*
X138391780Y-88828550D01*
X138411097Y-88809301D01*
X138515458Y-88705303D01*
X138550016Y-88670866D01*
X138660490Y-88517125D01*
X138680373Y-88489454D01*
X138681696Y-88490405D01*
X138728565Y-88447234D01*
X138798500Y-88435002D01*
X138863946Y-88462521D01*
X138891795Y-88494371D01*
X138951907Y-88592465D01*
X139098170Y-88761315D01*
X139270046Y-88904009D01*
X139462920Y-89016715D01*
X139467745Y-89018557D01*
X139467746Y-89018558D01*
X139493245Y-89028295D01*
X139671612Y-89096407D01*
X139676680Y-89097438D01*
X139676683Y-89097439D01*
X139771782Y-89116787D01*
X139890517Y-89140944D01*
X139895692Y-89141134D01*
X139895694Y-89141134D01*
X140108593Y-89148941D01*
X140108597Y-89148941D01*
X140113757Y-89149130D01*
X140118877Y-89148474D01*
X140118879Y-89148474D01*
X140330208Y-89121402D01*
X140330209Y-89121402D01*
X140335336Y-89120745D01*
X140340286Y-89119260D01*
X140544349Y-89058038D01*
X140544354Y-89058036D01*
X140549304Y-89056551D01*
X140749914Y-88958273D01*
X140931780Y-88828550D01*
X140951097Y-88809301D01*
X141055458Y-88705303D01*
X141090016Y-88670866D01*
X141220373Y-88489454D01*
X141233915Y-88462055D01*
X141317056Y-88293830D01*
X141317057Y-88293828D01*
X141319350Y-88289188D01*
X141384290Y-88075446D01*
X141384292Y-88075431D01*
X141417522Y-88014396D01*
X141479792Y-87980294D01*
X141550614Y-87985271D01*
X141607503Y-88027747D01*
X141627847Y-88068651D01*
X141654410Y-88161286D01*
X141657783Y-88173050D01*
X141735257Y-88323796D01*
X141745985Y-88344671D01*
X141759333Y-88414402D01*
X141744334Y-88462966D01*
X141668567Y-88600787D01*
X141666706Y-88606654D01*
X141666705Y-88606656D01*
X141643723Y-88679104D01*
X141608765Y-88789306D01*
X141586719Y-88985851D01*
X141587235Y-88991995D01*
X141600414Y-89148941D01*
X141603268Y-89182934D01*
X141604967Y-89188858D01*
X141639629Y-89309738D01*
X141657783Y-89373050D01*
X141748187Y-89548956D01*
X141871035Y-89703953D01*
X141875728Y-89707947D01*
X141875729Y-89707948D01*
X142008159Y-89820654D01*
X142021650Y-89832136D01*
X142194294Y-89928624D01*
X142382392Y-89989740D01*
X142578777Y-90013158D01*
X142584912Y-90012686D01*
X142584914Y-90012686D01*
X142769830Y-89998457D01*
X142769834Y-89998456D01*
X142775972Y-89997984D01*
X142966463Y-89944798D01*
X142971967Y-89942018D01*
X142971969Y-89942017D01*
X143137495Y-89858404D01*
X143137497Y-89858403D01*
X143142996Y-89855625D01*
X143298847Y-89733861D01*
X143418176Y-89595617D01*
X143424049Y-89588813D01*
X143424050Y-89588811D01*
X143428078Y-89584145D01*
X143525769Y-89412179D01*
X143588197Y-89224513D01*
X143612985Y-89028295D01*
X143613380Y-89000000D01*
X143594080Y-88803167D01*
X143536916Y-88613831D01*
X143453734Y-88457387D01*
X143439415Y-88387850D01*
X143455430Y-88335997D01*
X143522723Y-88217542D01*
X143522725Y-88217537D01*
X143525769Y-88212179D01*
X143588197Y-88024513D01*
X143612985Y-87828295D01*
X143613380Y-87800000D01*
X143594080Y-87603167D01*
X143590152Y-87590154D01*
X151324480Y-87590154D01*
X151331235Y-87652336D01*
X151382365Y-87788725D01*
X151469719Y-87905281D01*
X151586275Y-87992635D01*
X151722664Y-88043765D01*
X151784846Y-88050520D01*
X154881114Y-88050520D01*
X154943296Y-88043765D01*
X155079685Y-87992635D01*
X155196241Y-87905281D01*
X155283595Y-87788725D01*
X155334725Y-87652336D01*
X155341480Y-87590154D01*
X155341480Y-86020938D01*
X156319897Y-86020938D01*
X156335662Y-86294340D01*
X156336487Y-86298545D01*
X156336488Y-86298553D01*
X156364807Y-86442893D01*
X156388385Y-86563073D01*
X156389772Y-86567123D01*
X156389773Y-86567128D01*
X156472009Y-86807318D01*
X156477092Y-86822164D01*
X156479019Y-86825995D01*
X156597860Y-87062285D01*
X156600140Y-87066819D01*
X156602566Y-87070348D01*
X156602569Y-87070354D01*
X156731721Y-87258270D01*
X156755254Y-87292510D01*
X156758141Y-87295683D01*
X156758142Y-87295684D01*
X156934258Y-87489234D01*
X156939562Y-87495063D01*
X157149655Y-87670727D01*
X157153296Y-87673011D01*
X157378004Y-87813971D01*
X157378008Y-87813973D01*
X157381644Y-87816254D01*
X157449524Y-87846903D01*
X157627325Y-87927184D01*
X157627329Y-87927186D01*
X157631237Y-87928950D01*
X157635357Y-87930170D01*
X157635356Y-87930170D01*
X157889703Y-88005511D01*
X157889707Y-88005512D01*
X157893816Y-88006729D01*
X157898050Y-88007377D01*
X157898055Y-88007378D01*
X158160278Y-88047503D01*
X158160280Y-88047503D01*
X158164520Y-88048152D01*
X158303892Y-88050342D01*
X158434051Y-88052387D01*
X158434057Y-88052387D01*
X158438342Y-88052454D01*
X158710215Y-88019554D01*
X158975107Y-87950061D01*
X158979067Y-87948421D01*
X158979072Y-87948419D01*
X159145422Y-87879514D01*
X159228116Y-87845261D01*
X159464562Y-87707093D01*
X159680069Y-87538114D01*
X159684660Y-87533377D01*
X159867666Y-87344529D01*
X159870649Y-87341451D01*
X159873182Y-87338003D01*
X159873186Y-87337998D01*
X160030237Y-87124198D01*
X160032775Y-87120743D01*
X160034821Y-87116975D01*
X160161398Y-86883850D01*
X160161399Y-86883848D01*
X160163448Y-86880074D01*
X160248270Y-86655599D01*
X160258731Y-86627915D01*
X160258732Y-86627911D01*
X160260249Y-86623897D01*
X160309890Y-86407151D01*
X160320429Y-86361137D01*
X160320430Y-86361133D01*
X160321387Y-86356953D01*
X160321895Y-86351268D01*
X160345511Y-86086647D01*
X160345512Y-86086636D01*
X160345731Y-86084181D01*
X160346064Y-86052465D01*
X160346147Y-86044504D01*
X160346147Y-86044503D01*
X160346173Y-86042020D01*
X160344736Y-86020938D01*
X161319897Y-86020938D01*
X161335662Y-86294340D01*
X161336487Y-86298545D01*
X161336488Y-86298553D01*
X161364807Y-86442893D01*
X161388385Y-86563073D01*
X161389772Y-86567123D01*
X161389773Y-86567128D01*
X161472009Y-86807318D01*
X161477092Y-86822164D01*
X161479019Y-86825995D01*
X161597860Y-87062285D01*
X161600140Y-87066819D01*
X161602566Y-87070348D01*
X161602569Y-87070354D01*
X161731721Y-87258270D01*
X161755254Y-87292510D01*
X161758141Y-87295683D01*
X161758142Y-87295684D01*
X161934258Y-87489234D01*
X161939562Y-87495063D01*
X162149655Y-87670727D01*
X162153296Y-87673011D01*
X162378004Y-87813971D01*
X162378008Y-87813973D01*
X162381644Y-87816254D01*
X162449524Y-87846903D01*
X162627325Y-87927184D01*
X162627329Y-87927186D01*
X162631237Y-87928950D01*
X162635357Y-87930170D01*
X162635356Y-87930170D01*
X162889703Y-88005511D01*
X162889707Y-88005512D01*
X162893816Y-88006729D01*
X162898050Y-88007377D01*
X162898055Y-88007378D01*
X163160278Y-88047503D01*
X163160280Y-88047503D01*
X163164520Y-88048152D01*
X163303892Y-88050342D01*
X163434051Y-88052387D01*
X163434057Y-88052387D01*
X163438342Y-88052454D01*
X163710215Y-88019554D01*
X163975107Y-87950061D01*
X163979067Y-87948421D01*
X163979072Y-87948419D01*
X164145422Y-87879514D01*
X164228116Y-87845261D01*
X164464562Y-87707093D01*
X164560747Y-87631674D01*
X167108598Y-87631674D01*
X167115653Y-87641647D01*
X167146659Y-87667571D01*
X167153578Y-87672599D01*
X167378252Y-87813535D01*
X167385787Y-87817576D01*
X167627500Y-87926714D01*
X167635531Y-87929700D01*
X167889812Y-88005022D01*
X167898164Y-88006889D01*
X168160320Y-88047004D01*
X168168854Y-88047720D01*
X168434025Y-88051887D01*
X168442576Y-88051438D01*
X168705863Y-88019577D01*
X168714264Y-88017975D01*
X168970804Y-87950673D01*
X168978906Y-87947946D01*
X169223929Y-87846454D01*
X169231597Y-87842648D01*
X169460578Y-87708842D01*
X169467659Y-87704029D01*
X169547635Y-87641321D01*
X169556105Y-87629462D01*
X169549588Y-87617838D01*
X168345792Y-86414042D01*
X168331848Y-86406428D01*
X168330015Y-86406559D01*
X168323400Y-86410810D01*
X167115890Y-87618320D01*
X167108598Y-87631674D01*
X164560747Y-87631674D01*
X164680069Y-87538114D01*
X164684660Y-87533377D01*
X164867666Y-87344529D01*
X164870649Y-87341451D01*
X164873182Y-87338003D01*
X164873186Y-87337998D01*
X165030237Y-87124198D01*
X165032775Y-87120743D01*
X165034821Y-87116975D01*
X165161398Y-86883850D01*
X165161399Y-86883848D01*
X165163448Y-86880074D01*
X165248270Y-86655599D01*
X165258731Y-86627915D01*
X165258732Y-86627911D01*
X165260249Y-86623897D01*
X165309890Y-86407151D01*
X165320429Y-86361137D01*
X165320430Y-86361133D01*
X165321387Y-86356953D01*
X165321895Y-86351268D01*
X165345511Y-86086647D01*
X165345512Y-86086636D01*
X165345731Y-86084181D01*
X165346064Y-86052465D01*
X165346147Y-86044504D01*
X165346147Y-86044503D01*
X165346173Y-86042020D01*
X165345028Y-86025224D01*
X166320645Y-86025224D01*
X166335912Y-86289989D01*
X166336985Y-86298490D01*
X166388045Y-86558742D01*
X166390256Y-86566994D01*
X166476164Y-86817914D01*
X166479479Y-86825799D01*
X166598644Y-87062733D01*
X166603000Y-87070099D01*
X166732327Y-87258270D01*
X166742581Y-87266614D01*
X166756322Y-87259468D01*
X167960958Y-86054832D01*
X167967336Y-86043152D01*
X168697388Y-86043152D01*
X168697519Y-86044985D01*
X168701770Y-86051600D01*
X169908710Y-87258540D01*
X169920919Y-87265207D01*
X169932419Y-87256517D01*
X170029811Y-87123933D01*
X170034398Y-87116705D01*
X170160942Y-86883641D01*
X170164510Y-86875847D01*
X170258251Y-86627770D01*
X170260728Y-86619564D01*
X170319934Y-86361058D01*
X170321274Y-86352597D01*
X170345011Y-86086636D01*
X170345257Y-86081697D01*
X170345646Y-86044505D01*
X170345503Y-86039539D01*
X170327342Y-85773143D01*
X170326181Y-85764669D01*
X170272399Y-85504964D01*
X170270100Y-85496729D01*
X170181568Y-85246725D01*
X170178171Y-85238874D01*
X170056530Y-85003198D01*
X170052102Y-84995886D01*
X169933011Y-84826437D01*
X169922489Y-84818057D01*
X169909101Y-84825109D01*
X168705002Y-86029208D01*
X168697388Y-86043152D01*
X167967336Y-86043152D01*
X167968572Y-86040888D01*
X167968441Y-86039055D01*
X167964190Y-86032440D01*
X166756794Y-84825044D01*
X166744784Y-84818486D01*
X166733044Y-84827454D01*
X166624915Y-84977931D01*
X166620398Y-84985216D01*
X166496305Y-85219587D01*
X166492819Y-85227415D01*
X166401680Y-85476466D01*
X166399291Y-85484690D01*
X166342792Y-85743815D01*
X166341543Y-85752270D01*
X166320734Y-86016673D01*
X166320645Y-86025224D01*
X165345028Y-86025224D01*
X165342997Y-85995428D01*
X165327839Y-85773075D01*
X165327838Y-85773069D01*
X165327547Y-85768798D01*
X165326017Y-85761407D01*
X165272881Y-85504829D01*
X165272012Y-85500632D01*
X165180597Y-85242485D01*
X165054993Y-84999132D01*
X165049944Y-84991947D01*
X164899988Y-84778582D01*
X164897525Y-84775077D01*
X164827446Y-84699663D01*
X164714026Y-84577608D01*
X164714023Y-84577605D01*
X164711105Y-84574465D01*
X164707790Y-84571751D01*
X164707786Y-84571748D01*
X164564562Y-84454520D01*
X167109564Y-84454520D01*
X167115960Y-84465790D01*
X168320168Y-85669998D01*
X168334112Y-85677612D01*
X168335945Y-85677481D01*
X168342560Y-85673230D01*
X169549584Y-84466206D01*
X169556775Y-84453037D01*
X169549453Y-84442800D01*
X169502213Y-84404135D01*
X169495241Y-84399180D01*
X169269102Y-84260602D01*
X169261532Y-84256644D01*
X169018684Y-84150042D01*
X169010624Y-84147140D01*
X168755572Y-84074487D01*
X168747194Y-84072705D01*
X168484636Y-84035338D01*
X168476091Y-84034711D01*
X168210888Y-84033322D01*
X168202354Y-84033859D01*
X167939413Y-84068476D01*
X167931015Y-84070169D01*
X167675218Y-84140147D01*
X167667123Y-84142966D01*
X167423179Y-84247017D01*
X167415557Y-84250901D01*
X167187993Y-84387095D01*
X167180961Y-84391982D01*
X167118033Y-84442397D01*
X167109564Y-84454520D01*
X164564562Y-84454520D01*
X164546284Y-84439560D01*
X164499185Y-84401010D01*
X164265684Y-84257921D01*
X164257326Y-84254252D01*
X164018853Y-84149569D01*
X164018849Y-84149568D01*
X164014925Y-84147845D01*
X163751546Y-84072820D01*
X163747304Y-84072216D01*
X163747298Y-84072215D01*
X163542367Y-84043049D01*
X163480423Y-84034233D01*
X163336569Y-84033480D01*
X163210857Y-84032822D01*
X163210851Y-84032822D01*
X163206571Y-84032800D01*
X163202327Y-84033359D01*
X163202323Y-84033359D01*
X163128721Y-84043049D01*
X162935058Y-84068545D01*
X162930918Y-84069678D01*
X162930916Y-84069678D01*
X162863017Y-84088253D01*
X162670908Y-84140808D01*
X162666960Y-84142492D01*
X162422962Y-84246566D01*
X162422958Y-84246568D01*
X162419010Y-84248252D01*
X162354165Y-84287061D01*
X162187705Y-84386684D01*
X162187701Y-84386687D01*
X162184023Y-84388888D01*
X161970298Y-84560114D01*
X161781788Y-84758762D01*
X161621982Y-84981156D01*
X161493837Y-85223181D01*
X161492365Y-85227204D01*
X161492363Y-85227208D01*
X161419500Y-85426315D01*
X161399723Y-85480357D01*
X161341384Y-85747927D01*
X161319897Y-86020938D01*
X160344736Y-86020938D01*
X160342997Y-85995428D01*
X160327839Y-85773075D01*
X160327838Y-85773069D01*
X160327547Y-85768798D01*
X160326017Y-85761407D01*
X160272881Y-85504829D01*
X160272012Y-85500632D01*
X160180597Y-85242485D01*
X160054993Y-84999132D01*
X160049944Y-84991947D01*
X159899988Y-84778582D01*
X159897525Y-84775077D01*
X159827446Y-84699663D01*
X159714026Y-84577608D01*
X159714023Y-84577605D01*
X159711105Y-84574465D01*
X159707790Y-84571751D01*
X159707786Y-84571748D01*
X159546284Y-84439560D01*
X159499185Y-84401010D01*
X159265684Y-84257921D01*
X159257326Y-84254252D01*
X159018853Y-84149569D01*
X159018849Y-84149568D01*
X159014925Y-84147845D01*
X158751546Y-84072820D01*
X158747304Y-84072216D01*
X158747298Y-84072215D01*
X158542367Y-84043049D01*
X158480423Y-84034233D01*
X158336569Y-84033480D01*
X158210857Y-84032822D01*
X158210851Y-84032822D01*
X158206571Y-84032800D01*
X158202327Y-84033359D01*
X158202323Y-84033359D01*
X158128721Y-84043049D01*
X157935058Y-84068545D01*
X157930918Y-84069678D01*
X157930916Y-84069678D01*
X157863017Y-84088253D01*
X157670908Y-84140808D01*
X157666960Y-84142492D01*
X157422962Y-84246566D01*
X157422958Y-84246568D01*
X157419010Y-84248252D01*
X157354165Y-84287061D01*
X157187705Y-84386684D01*
X157187701Y-84386687D01*
X157184023Y-84388888D01*
X156970298Y-84560114D01*
X156781788Y-84758762D01*
X156621982Y-84981156D01*
X156493837Y-85223181D01*
X156492365Y-85227204D01*
X156492363Y-85227208D01*
X156419500Y-85426315D01*
X156399723Y-85480357D01*
X156341384Y-85747927D01*
X156319897Y-86020938D01*
X155341480Y-86020938D01*
X155341480Y-84493886D01*
X155334725Y-84431704D01*
X155283595Y-84295315D01*
X155196241Y-84178759D01*
X155079685Y-84091405D01*
X154943296Y-84040275D01*
X154881114Y-84033520D01*
X151784846Y-84033520D01*
X151722664Y-84040275D01*
X151586275Y-84091405D01*
X151469719Y-84178759D01*
X151382365Y-84295315D01*
X151331235Y-84431704D01*
X151324480Y-84493886D01*
X151324480Y-87590154D01*
X143590152Y-87590154D01*
X143589120Y-87586737D01*
X143562579Y-87498830D01*
X143536916Y-87413831D01*
X143444066Y-87239204D01*
X143350053Y-87123933D01*
X143322960Y-87090713D01*
X143322957Y-87090710D01*
X143319065Y-87085938D01*
X143312724Y-87080692D01*
X143171425Y-86963799D01*
X143171421Y-86963797D01*
X143166675Y-86959870D01*
X142992701Y-86865802D01*
X142803768Y-86807318D01*
X142797643Y-86806674D01*
X142797642Y-86806674D01*
X142613204Y-86787289D01*
X142613202Y-86787289D01*
X142607075Y-86786645D01*
X142527740Y-86793865D01*
X142416251Y-86804011D01*
X142416248Y-86804012D01*
X142410112Y-86804570D01*
X142404206Y-86806308D01*
X142404202Y-86806309D01*
X142299076Y-86837249D01*
X142220381Y-86860410D01*
X142214923Y-86863263D01*
X142214919Y-86863265D01*
X142124147Y-86910720D01*
X142045110Y-86952040D01*
X141890975Y-87075968D01*
X141763846Y-87227474D01*
X141760879Y-87232872D01*
X141760875Y-87232877D01*
X141714804Y-87316682D01*
X141668567Y-87400787D01*
X141666706Y-87406654D01*
X141666705Y-87406656D01*
X141646972Y-87468864D01*
X141630256Y-87521560D01*
X141628089Y-87528390D01*
X141588426Y-87587274D01*
X141523224Y-87615366D01*
X141453184Y-87603749D01*
X141400544Y-87556109D01*
X141385783Y-87520987D01*
X141358867Y-87413831D01*
X141342351Y-87348079D01*
X141253274Y-87143217D01*
X141155691Y-86992377D01*
X141134742Y-86959994D01*
X141134740Y-86959991D01*
X141131934Y-86955654D01*
X141128452Y-86951827D01*
X140984718Y-86793865D01*
X140953666Y-86730019D01*
X140962061Y-86659520D01*
X141007237Y-86604752D01*
X141033681Y-86591083D01*
X141140217Y-86551144D01*
X141148625Y-86547992D01*
X141265181Y-86460638D01*
X141352535Y-86344082D01*
X141403665Y-86207693D01*
X141410420Y-86145511D01*
X141410420Y-84349243D01*
X141403665Y-84287061D01*
X141352535Y-84150672D01*
X141265181Y-84034116D01*
X141148625Y-83946762D01*
X141012236Y-83895632D01*
X140950054Y-83888877D01*
X139153786Y-83888877D01*
X139091604Y-83895632D01*
X138955215Y-83946762D01*
X138838659Y-84034116D01*
X138751305Y-84150672D01*
X138748153Y-84159080D01*
X138706839Y-84269284D01*
X138664197Y-84326048D01*
X138597636Y-84350748D01*
X138528287Y-84335540D01*
X138495663Y-84309853D01*
X138445071Y-84254252D01*
X138445062Y-84254243D01*
X138441590Y-84250428D01*
X138437539Y-84247229D01*
X138437535Y-84247225D01*
X138270334Y-84115177D01*
X138270330Y-84115175D01*
X138266279Y-84111975D01*
X138223307Y-84088253D01*
X138197482Y-84073997D01*
X138070709Y-84004015D01*
X138065840Y-84002291D01*
X138065836Y-84002289D01*
X137865007Y-83931172D01*
X137865003Y-83931171D01*
X137860132Y-83929446D01*
X137855039Y-83928539D01*
X137855036Y-83928538D01*
X137645293Y-83891177D01*
X137645287Y-83891176D01*
X137640204Y-83890271D01*
X137566372Y-83889369D01*
X137422001Y-83887605D01*
X137421999Y-83887605D01*
X137416831Y-83887542D01*
X137196011Y-83921332D01*
X136983676Y-83990734D01*
X136953363Y-84006514D01*
X136823730Y-84073997D01*
X136785527Y-84093884D01*
X136781394Y-84096987D01*
X136781391Y-84096989D01*
X136611020Y-84224907D01*
X136606885Y-84228012D01*
X136579955Y-84256193D01*
X136513200Y-84326048D01*
X136452549Y-84389515D01*
X136345121Y-84546998D01*
X136290213Y-84591998D01*
X136219688Y-84600169D01*
X136155941Y-84568915D01*
X136135244Y-84544431D01*
X136054742Y-84419994D01*
X136054740Y-84419991D01*
X136051934Y-84415654D01*
X135901590Y-84250428D01*
X135897539Y-84247229D01*
X135897535Y-84247225D01*
X135730334Y-84115177D01*
X135730330Y-84115175D01*
X135726279Y-84111975D01*
X135683307Y-84088253D01*
X135657482Y-84073997D01*
X135530709Y-84004015D01*
X135525840Y-84002291D01*
X135525836Y-84002289D01*
X135325007Y-83931172D01*
X135325003Y-83931171D01*
X135320132Y-83929446D01*
X135315039Y-83928539D01*
X135315036Y-83928538D01*
X135105293Y-83891177D01*
X135105287Y-83891176D01*
X135100204Y-83890271D01*
X135026372Y-83889369D01*
X134882001Y-83887605D01*
X134881999Y-83887605D01*
X134876831Y-83887542D01*
X134656011Y-83921332D01*
X134443676Y-83990734D01*
X134413363Y-84006514D01*
X134283730Y-84073997D01*
X134245527Y-84093884D01*
X134241394Y-84096987D01*
X134241391Y-84096989D01*
X134071020Y-84224907D01*
X134066885Y-84228012D01*
X134039955Y-84256193D01*
X133973200Y-84326048D01*
X133912549Y-84389515D01*
X133909640Y-84393780D01*
X133909634Y-84393788D01*
X133891758Y-84419994D01*
X133786663Y-84574057D01*
X133757481Y-84636924D01*
X133699311Y-84762242D01*
X133692608Y-84776682D01*
X133632909Y-84991947D01*
X133609171Y-85214072D01*
X128737534Y-85214072D01*
X128777355Y-85158654D01*
X128780373Y-85154454D01*
X128801240Y-85112234D01*
X128877056Y-84958830D01*
X128877057Y-84958828D01*
X128879350Y-84954188D01*
X128944290Y-84740446D01*
X128973449Y-84518967D01*
X128975076Y-84452377D01*
X128956772Y-84229738D01*
X128902351Y-84013079D01*
X128813274Y-83808217D01*
X128691934Y-83620654D01*
X128541590Y-83455428D01*
X128537539Y-83452229D01*
X128537535Y-83452225D01*
X128370334Y-83320177D01*
X128370330Y-83320175D01*
X128366279Y-83316975D01*
X128170709Y-83209015D01*
X128165840Y-83207291D01*
X128165836Y-83207289D01*
X127965007Y-83136172D01*
X127965003Y-83136171D01*
X127960132Y-83134446D01*
X127955039Y-83133539D01*
X127955036Y-83133538D01*
X127745293Y-83096177D01*
X127745287Y-83096176D01*
X127740204Y-83095271D01*
X127666372Y-83094369D01*
X127522001Y-83092605D01*
X127521999Y-83092605D01*
X127516831Y-83092542D01*
X127296011Y-83126332D01*
X127083676Y-83195734D01*
X126885527Y-83298884D01*
X126881394Y-83301987D01*
X126881391Y-83301989D01*
X126857167Y-83320177D01*
X126706885Y-83433012D01*
X126552549Y-83594515D01*
X126445121Y-83751998D01*
X126390213Y-83796998D01*
X126319688Y-83805169D01*
X126255941Y-83773915D01*
X126235244Y-83749431D01*
X126154742Y-83624994D01*
X126154740Y-83624991D01*
X126151934Y-83620654D01*
X126001590Y-83455428D01*
X125997539Y-83452229D01*
X125997535Y-83452225D01*
X125830334Y-83320177D01*
X125830330Y-83320175D01*
X125826279Y-83316975D01*
X125630709Y-83209015D01*
X125625840Y-83207291D01*
X125625836Y-83207289D01*
X125425007Y-83136172D01*
X125425003Y-83136171D01*
X125420132Y-83134446D01*
X125415039Y-83133539D01*
X125415036Y-83133538D01*
X125205293Y-83096177D01*
X125205287Y-83096176D01*
X125200204Y-83095271D01*
X125126372Y-83094369D01*
X124982001Y-83092605D01*
X124981999Y-83092605D01*
X124976831Y-83092542D01*
X124756011Y-83126332D01*
X124543676Y-83195734D01*
X124345527Y-83298884D01*
X124341394Y-83301987D01*
X124341391Y-83301989D01*
X124317167Y-83320177D01*
X124166885Y-83433012D01*
X124012549Y-83594515D01*
X123886663Y-83779057D01*
X123870923Y-83812967D01*
X123817277Y-83928538D01*
X123792608Y-83981682D01*
X123732909Y-84196947D01*
X123709171Y-84419072D01*
X123709468Y-84424225D01*
X123709468Y-84424228D01*
X123721732Y-84636924D01*
X123722030Y-84642092D01*
X123723167Y-84647138D01*
X123723168Y-84647144D01*
X123743039Y-84735316D01*
X123771142Y-84860016D01*
X123855186Y-85066993D01*
X123905939Y-85149815D01*
X123969211Y-85253065D01*
X123971907Y-85257465D01*
X124118170Y-85426315D01*
X124290046Y-85569009D01*
X124363365Y-85611853D01*
X124363875Y-85612151D01*
X124412599Y-85663789D01*
X124425670Y-85733572D01*
X124398939Y-85799344D01*
X124358482Y-85832704D01*
X124350377Y-85836923D01*
X124341658Y-85842413D01*
X124171353Y-85970282D01*
X124163646Y-85977125D01*
X124016510Y-86131094D01*
X124010024Y-86139104D01*
X123890018Y-86315026D01*
X123884920Y-86324000D01*
X123795258Y-86517160D01*
X123791695Y-86526847D01*
X123736309Y-86726560D01*
X123737832Y-86734984D01*
X123750212Y-86738377D01*
X125199920Y-86738377D01*
X125268041Y-86758379D01*
X125314534Y-86812035D01*
X125325920Y-86864377D01*
X125325920Y-89660377D01*
X125305918Y-89728498D01*
X125252262Y-89774991D01*
X125199920Y-89786377D01*
X123755145Y-89786377D01*
X123741614Y-89790350D01*
X123740177Y-89800343D01*
X123770485Y-89934823D01*
X123773565Y-89944652D01*
X123853690Y-90141980D01*
X123858333Y-90151171D01*
X123969614Y-90332765D01*
X123975697Y-90341076D01*
X124115133Y-90502044D01*
X124122500Y-90509260D01*
X124286354Y-90645293D01*
X124294801Y-90651208D01*
X124363889Y-90691580D01*
X124412613Y-90743219D01*
X124425684Y-90813002D01*
X124398953Y-90878773D01*
X124358504Y-90912129D01*
X124345527Y-90918884D01*
X124341394Y-90921987D01*
X124341391Y-90921989D01*
X124182388Y-91041372D01*
X124166885Y-91053012D01*
X124130564Y-91091020D01*
X124020957Y-91205717D01*
X124012549Y-91214515D01*
X123886663Y-91399057D01*
X123839635Y-91500370D01*
X123795528Y-91595392D01*
X123792608Y-91601682D01*
X123732909Y-91816947D01*
X123709171Y-92039072D01*
X120700000Y-92039072D01*
X120700000Y-89266560D01*
X123736309Y-89266560D01*
X123737832Y-89274984D01*
X123750212Y-89278377D01*
X124799805Y-89278377D01*
X124815044Y-89273902D01*
X124816249Y-89272512D01*
X124817920Y-89264829D01*
X124817920Y-87264492D01*
X124813445Y-87249253D01*
X124812055Y-87248048D01*
X124804372Y-87246377D01*
X123755145Y-87246377D01*
X123741614Y-87250350D01*
X123740177Y-87260343D01*
X123770485Y-87394823D01*
X123773565Y-87404652D01*
X123853690Y-87601980D01*
X123858333Y-87611171D01*
X123969614Y-87792765D01*
X123975697Y-87801076D01*
X124115133Y-87962044D01*
X124122500Y-87969260D01*
X124286354Y-88105293D01*
X124294801Y-88111208D01*
X124364399Y-88151878D01*
X124413123Y-88203517D01*
X124426194Y-88273300D01*
X124399463Y-88339071D01*
X124359007Y-88372430D01*
X124350382Y-88376919D01*
X124341658Y-88382413D01*
X124171353Y-88510282D01*
X124163646Y-88517125D01*
X124016510Y-88671094D01*
X124010024Y-88679104D01*
X123890018Y-88855026D01*
X123884920Y-88864000D01*
X123795258Y-89057160D01*
X123791695Y-89066847D01*
X123736309Y-89266560D01*
X120700000Y-89266560D01*
X120700000Y-78607703D01*
X121890743Y-78607703D01*
X121928268Y-78892734D01*
X122004129Y-79170036D01*
X122116923Y-79434476D01*
X122264561Y-79681161D01*
X122444313Y-79905528D01*
X122652851Y-80103423D01*
X122886317Y-80271186D01*
X122890112Y-80273195D01*
X122890113Y-80273196D01*
X122911869Y-80284715D01*
X123140392Y-80405712D01*
X123410373Y-80504511D01*
X123691264Y-80565755D01*
X123719841Y-80568004D01*
X123914282Y-80583307D01*
X123914291Y-80583307D01*
X123916739Y-80583500D01*
X124072271Y-80583500D01*
X124074407Y-80583354D01*
X124074418Y-80583354D01*
X124282548Y-80569165D01*
X124282554Y-80569164D01*
X124286825Y-80568873D01*
X124291020Y-80568004D01*
X124291022Y-80568004D01*
X124427583Y-80539724D01*
X124568342Y-80510574D01*
X124839343Y-80414607D01*
X125094812Y-80282750D01*
X125098313Y-80280289D01*
X125098317Y-80280287D01*
X125212418Y-80200095D01*
X125330023Y-80117441D01*
X125540622Y-79921740D01*
X125722713Y-79699268D01*
X125872927Y-79454142D01*
X125988483Y-79190898D01*
X126067244Y-78914406D01*
X126107751Y-78629784D01*
X126107845Y-78611951D01*
X126107867Y-78607703D01*
X191890743Y-78607703D01*
X191928268Y-78892734D01*
X192004129Y-79170036D01*
X192116923Y-79434476D01*
X192264561Y-79681161D01*
X192444313Y-79905528D01*
X192652851Y-80103423D01*
X192886317Y-80271186D01*
X192890112Y-80273195D01*
X192890113Y-80273196D01*
X192911869Y-80284715D01*
X193140392Y-80405712D01*
X193410373Y-80504511D01*
X193691264Y-80565755D01*
X193719841Y-80568004D01*
X193914282Y-80583307D01*
X193914291Y-80583307D01*
X193916739Y-80583500D01*
X194072271Y-80583500D01*
X194074407Y-80583354D01*
X194074418Y-80583354D01*
X194282548Y-80569165D01*
X194282554Y-80569164D01*
X194286825Y-80568873D01*
X194291020Y-80568004D01*
X194291022Y-80568004D01*
X194427583Y-80539724D01*
X194568342Y-80510574D01*
X194839343Y-80414607D01*
X195094812Y-80282750D01*
X195098313Y-80280289D01*
X195098317Y-80280287D01*
X195212418Y-80200095D01*
X195330023Y-80117441D01*
X195540622Y-79921740D01*
X195722713Y-79699268D01*
X195872927Y-79454142D01*
X195988483Y-79190898D01*
X196067244Y-78914406D01*
X196107751Y-78629784D01*
X196107845Y-78611951D01*
X196109235Y-78346583D01*
X196109235Y-78346576D01*
X196109257Y-78342297D01*
X196071732Y-78057266D01*
X195995871Y-77779964D01*
X195883077Y-77515524D01*
X195735439Y-77268839D01*
X195555687Y-77044472D01*
X195347149Y-76846577D01*
X195113683Y-76678814D01*
X195091843Y-76667250D01*
X195068654Y-76654972D01*
X194859608Y-76544288D01*
X194589627Y-76445489D01*
X194308736Y-76384245D01*
X194277685Y-76381801D01*
X194085718Y-76366693D01*
X194085709Y-76366693D01*
X194083261Y-76366500D01*
X193927729Y-76366500D01*
X193925593Y-76366646D01*
X193925582Y-76366646D01*
X193717452Y-76380835D01*
X193717446Y-76380836D01*
X193713175Y-76381127D01*
X193708980Y-76381996D01*
X193708978Y-76381996D01*
X193572417Y-76410276D01*
X193431658Y-76439426D01*
X193160657Y-76535393D01*
X192905188Y-76667250D01*
X192901687Y-76669711D01*
X192901683Y-76669713D01*
X192891594Y-76676804D01*
X192669977Y-76832559D01*
X192459378Y-77028260D01*
X192277287Y-77250732D01*
X192127073Y-77495858D01*
X192011517Y-77759102D01*
X191932756Y-78035594D01*
X191892249Y-78320216D01*
X191892227Y-78324505D01*
X191892226Y-78324512D01*
X191890765Y-78603417D01*
X191890743Y-78607703D01*
X126107867Y-78607703D01*
X126109235Y-78346583D01*
X126109235Y-78346576D01*
X126109257Y-78342297D01*
X126071732Y-78057266D01*
X125995871Y-77779964D01*
X125883077Y-77515524D01*
X125735439Y-77268839D01*
X125555687Y-77044472D01*
X125347149Y-76846577D01*
X125113683Y-76678814D01*
X125091843Y-76667250D01*
X125068654Y-76654972D01*
X124859608Y-76544288D01*
X124589627Y-76445489D01*
X124308736Y-76384245D01*
X124277685Y-76381801D01*
X124085718Y-76366693D01*
X124085709Y-76366693D01*
X124083261Y-76366500D01*
X123927729Y-76366500D01*
X123925593Y-76366646D01*
X123925582Y-76366646D01*
X123717452Y-76380835D01*
X123717446Y-76380836D01*
X123713175Y-76381127D01*
X123708980Y-76381996D01*
X123708978Y-76381996D01*
X123572417Y-76410276D01*
X123431658Y-76439426D01*
X123160657Y-76535393D01*
X122905188Y-76667250D01*
X122901687Y-76669711D01*
X122901683Y-76669713D01*
X122891594Y-76676804D01*
X122669977Y-76832559D01*
X122459378Y-77028260D01*
X122277287Y-77250732D01*
X122127073Y-77495858D01*
X122011517Y-77759102D01*
X121932756Y-78035594D01*
X121892249Y-78320216D01*
X121892227Y-78324505D01*
X121892226Y-78324512D01*
X121890765Y-78603417D01*
X121890743Y-78607703D01*
X120700000Y-78607703D01*
X120700000Y-75351000D01*
X120720002Y-75282879D01*
X120773658Y-75236386D01*
X120826000Y-75225000D01*
X197074000Y-75225000D01*
X197142121Y-75245002D01*
G37*
%TD.AperFunction*%
M02*
