%TF.GenerationSoftware,KiCad,Pcbnew,(6.0.1)*%
%TF.CreationDate,2022-03-16T21:32:01+01:00*%
%TF.ProjectId,SignalGenerator,5369676e-616c-4476-956e-657261746f72,0.3*%
%TF.SameCoordinates,Original*%
%TF.FileFunction,Copper,L2,Inr*%
%TF.FilePolarity,Positive*%
%FSLAX46Y46*%
G04 Gerber Fmt 4.6, Leading zero omitted, Abs format (unit mm)*
G04 Created by KiCad (PCBNEW (6.0.1)) date 2022-03-16 21:32:01*
%MOMM*%
%LPD*%
G01*
G04 APERTURE LIST*
%TA.AperFunction,ComponentPad*%
%ADD10R,1.700000X1.700000*%
%TD*%
%TA.AperFunction,ComponentPad*%
%ADD11O,1.700000X1.700000*%
%TD*%
%TA.AperFunction,ComponentPad*%
%ADD12R,3.000000X3.000000*%
%TD*%
%TA.AperFunction,ComponentPad*%
%ADD13C,3.000000*%
%TD*%
%TA.AperFunction,ViaPad*%
%ADD14C,1.000000*%
%TD*%
%TA.AperFunction,ViaPad*%
%ADD15C,0.800000*%
%TD*%
G04 APERTURE END LIST*
D10*
X184000000Y-108775000D03*
D11*
X184000000Y-111315000D03*
X184000000Y-113855000D03*
D10*
X177300000Y-106775000D03*
D11*
X177300000Y-109315000D03*
X177300000Y-111855000D03*
D10*
X122501920Y-108367377D03*
D11*
X122501920Y-105827377D03*
X125041920Y-108367377D03*
X125041920Y-105827377D03*
X127581920Y-108367377D03*
X127581920Y-105827377D03*
X130121920Y-108367377D03*
X130121920Y-105827377D03*
X132661920Y-108367377D03*
X132661920Y-105827377D03*
D10*
X127611920Y-92072377D03*
D11*
X125071920Y-92072377D03*
X127611920Y-89532377D03*
X125071920Y-89532377D03*
X127611920Y-86992377D03*
X125071920Y-86992377D03*
X127611920Y-84452377D03*
X125071920Y-84452377D03*
D10*
X173525000Y-115575000D03*
D11*
X176065000Y-115575000D03*
D12*
X153332980Y-86042020D03*
D13*
X158332980Y-86042020D03*
X163332980Y-86042020D03*
X168332980Y-86042020D03*
D10*
X140051920Y-85247377D03*
D11*
X140051920Y-87787377D03*
X137511920Y-85247377D03*
X137511920Y-87787377D03*
X134971920Y-85247377D03*
X134971920Y-87787377D03*
D10*
X181325000Y-102600000D03*
D11*
X183865000Y-102600000D03*
X186405000Y-102600000D03*
D10*
X149425000Y-109650000D03*
D11*
X151965000Y-109650000D03*
X149425000Y-112190000D03*
X151965000Y-112190000D03*
X149425000Y-114730000D03*
X151965000Y-114730000D03*
D14*
X186500000Y-100250000D03*
X181750000Y-81500000D03*
X182000000Y-94000000D03*
X151500000Y-100775000D03*
X161250000Y-105500000D03*
X163750000Y-104250000D03*
X153625000Y-98800000D03*
X179250000Y-80250000D03*
X154000000Y-117175000D03*
X178000000Y-86500000D03*
X182750000Y-93250000D03*
X161250000Y-104250000D03*
X155200000Y-115275000D03*
X180500000Y-80250000D03*
X173050000Y-106230000D03*
X135921920Y-107578080D03*
X178000000Y-81500000D03*
X179250000Y-85250000D03*
X135921920Y-106328080D03*
X173060000Y-107480000D03*
X178000000Y-84000000D03*
X183000000Y-80250000D03*
X144500000Y-107000000D03*
X178075000Y-93075000D03*
X180500000Y-82750000D03*
X187750000Y-100250000D03*
X178000000Y-85250000D03*
X175400000Y-101175000D03*
X178000000Y-80250000D03*
X187750000Y-99000000D03*
X179250000Y-86500000D03*
X138566420Y-102500000D03*
X163750000Y-105500000D03*
X162500000Y-104250000D03*
X179250000Y-82750000D03*
X155200000Y-116475000D03*
X180500000Y-81500000D03*
X176800000Y-93100000D03*
X179250000Y-81500000D03*
X162500000Y-105500000D03*
X179250000Y-84000000D03*
X181750000Y-80250000D03*
X178000000Y-82750000D03*
X186500000Y-99000000D03*
X156400000Y-116975000D03*
X180819516Y-94069516D03*
X160500000Y-112000000D03*
X159250000Y-110750000D03*
X156750000Y-109500000D03*
X158000000Y-110750000D03*
X159250000Y-109500000D03*
X158000000Y-112000000D03*
X156750000Y-112000000D03*
X159250000Y-112000000D03*
X160500000Y-110750000D03*
X160500000Y-109500000D03*
X158000000Y-109500000D03*
X156750000Y-110750000D03*
X173700000Y-112875000D03*
D15*
X148900000Y-100575000D03*
D14*
X141850000Y-108605000D03*
X140430000Y-111401877D03*
D15*
X140500000Y-99075000D03*
X140200000Y-97375000D03*
X146900000Y-99704377D03*
X142240480Y-91999520D03*
X145386420Y-90499520D03*
X147520697Y-94173357D03*
X145290480Y-94519520D03*
%TA.AperFunction,Conductor*%
G36*
X197142121Y-75245002D02*
G01*
X197188614Y-75298658D01*
X197200000Y-75351000D01*
X197200000Y-117599000D01*
X197179998Y-117667121D01*
X197126342Y-117713614D01*
X197074000Y-117725000D01*
X120826000Y-117725000D01*
X120757879Y-117704998D01*
X120711386Y-117651342D01*
X120700000Y-117599000D01*
X120700000Y-114607703D01*
X121890743Y-114607703D01*
X121891302Y-114611947D01*
X121891302Y-114611951D01*
X121898153Y-114663990D01*
X121928268Y-114892734D01*
X122004129Y-115170036D01*
X122005813Y-115173984D01*
X122092263Y-115376661D01*
X122116923Y-115434476D01*
X122128693Y-115454142D01*
X122221353Y-115608965D01*
X122264561Y-115681161D01*
X122444313Y-115905528D01*
X122502483Y-115960729D01*
X122609579Y-116062359D01*
X122652851Y-116103423D01*
X122886317Y-116271186D01*
X122890112Y-116273195D01*
X122890113Y-116273196D01*
X122911869Y-116284715D01*
X123140392Y-116405712D01*
X123164699Y-116414607D01*
X123390078Y-116497084D01*
X123410373Y-116504511D01*
X123691264Y-116565755D01*
X123719841Y-116568004D01*
X123914282Y-116583307D01*
X123914291Y-116583307D01*
X123916739Y-116583500D01*
X124072271Y-116583500D01*
X124074407Y-116583354D01*
X124074418Y-116583354D01*
X124282548Y-116569165D01*
X124282554Y-116569164D01*
X124286825Y-116568873D01*
X124291020Y-116568004D01*
X124291022Y-116568004D01*
X124486802Y-116527460D01*
X124568342Y-116510574D01*
X124674069Y-116473134D01*
X172166500Y-116473134D01*
X172173255Y-116535316D01*
X172224385Y-116671705D01*
X172311739Y-116788261D01*
X172428295Y-116875615D01*
X172564684Y-116926745D01*
X172626866Y-116933500D01*
X174423134Y-116933500D01*
X174485316Y-116926745D01*
X174621705Y-116875615D01*
X174738261Y-116788261D01*
X174825615Y-116671705D01*
X174858682Y-116583500D01*
X174869798Y-116553848D01*
X174912440Y-116497084D01*
X174979001Y-116472384D01*
X175048350Y-116487592D01*
X175083017Y-116515580D01*
X175108218Y-116544673D01*
X175115580Y-116551883D01*
X175279434Y-116687916D01*
X175287881Y-116693831D01*
X175471756Y-116801279D01*
X175481042Y-116805729D01*
X175680001Y-116881703D01*
X175689899Y-116884579D01*
X175793250Y-116905606D01*
X175807299Y-116904410D01*
X175811000Y-116894065D01*
X175811000Y-116893517D01*
X176319000Y-116893517D01*
X176323064Y-116907359D01*
X176336478Y-116909393D01*
X176343184Y-116908534D01*
X176353262Y-116906392D01*
X176557255Y-116845191D01*
X176566842Y-116841433D01*
X176758095Y-116747739D01*
X176766945Y-116742464D01*
X176940328Y-116618792D01*
X176948200Y-116612139D01*
X177099052Y-116461812D01*
X177105730Y-116453965D01*
X177230003Y-116281020D01*
X177235313Y-116272183D01*
X177329670Y-116081267D01*
X177333469Y-116071672D01*
X177395377Y-115867910D01*
X177397555Y-115857837D01*
X177398986Y-115846962D01*
X177396775Y-115832778D01*
X177383617Y-115829000D01*
X176337115Y-115829000D01*
X176321876Y-115833475D01*
X176320671Y-115834865D01*
X176319000Y-115842548D01*
X176319000Y-116893517D01*
X175811000Y-116893517D01*
X175811000Y-115302885D01*
X176319000Y-115302885D01*
X176323475Y-115318124D01*
X176324865Y-115319329D01*
X176332548Y-115321000D01*
X177383344Y-115321000D01*
X177396875Y-115317027D01*
X177398180Y-115307947D01*
X177356214Y-115140875D01*
X177352894Y-115131124D01*
X177267972Y-114935814D01*
X177263105Y-114926739D01*
X177147426Y-114747926D01*
X177141136Y-114739757D01*
X176997806Y-114582240D01*
X176990273Y-114575215D01*
X176823139Y-114443222D01*
X176814552Y-114437517D01*
X176628117Y-114334599D01*
X176618705Y-114330369D01*
X176417959Y-114259280D01*
X176407988Y-114256646D01*
X176336837Y-114243972D01*
X176323540Y-114245432D01*
X176319000Y-114259989D01*
X176319000Y-115302885D01*
X175811000Y-115302885D01*
X175811000Y-114258102D01*
X175807082Y-114244758D01*
X175792806Y-114242771D01*
X175754324Y-114248660D01*
X175744288Y-114251051D01*
X175541868Y-114317212D01*
X175532359Y-114321209D01*
X175343463Y-114419542D01*
X175334738Y-114425036D01*
X175164433Y-114552905D01*
X175156726Y-114559748D01*
X175079478Y-114640584D01*
X175017954Y-114676014D01*
X174947042Y-114672557D01*
X174889255Y-114631311D01*
X174870402Y-114597763D01*
X174828767Y-114486703D01*
X174825615Y-114478295D01*
X174738261Y-114361739D01*
X174621705Y-114274385D01*
X174485316Y-114223255D01*
X174423134Y-114216500D01*
X172626866Y-114216500D01*
X172564684Y-114223255D01*
X172428295Y-114274385D01*
X172311739Y-114361739D01*
X172224385Y-114478295D01*
X172173255Y-114614684D01*
X172166500Y-114676866D01*
X172166500Y-116473134D01*
X124674069Y-116473134D01*
X124839343Y-116414607D01*
X125094812Y-116282750D01*
X125098313Y-116280289D01*
X125098317Y-116280287D01*
X125212417Y-116200096D01*
X125330023Y-116117441D01*
X125540622Y-115921740D01*
X125722713Y-115699268D01*
X125872927Y-115454142D01*
X125880879Y-115436028D01*
X125986757Y-115194830D01*
X125988483Y-115190898D01*
X126002733Y-115140875D01*
X126043441Y-114997966D01*
X148093257Y-114997966D01*
X148123565Y-115132446D01*
X148126645Y-115142275D01*
X148206770Y-115339603D01*
X148211413Y-115348794D01*
X148322694Y-115530388D01*
X148328777Y-115538699D01*
X148468213Y-115699667D01*
X148475580Y-115706883D01*
X148639434Y-115842916D01*
X148647881Y-115848831D01*
X148831756Y-115956279D01*
X148841042Y-115960729D01*
X149040001Y-116036703D01*
X149049899Y-116039579D01*
X149153250Y-116060606D01*
X149167299Y-116059410D01*
X149171000Y-116049065D01*
X149171000Y-116048517D01*
X149679000Y-116048517D01*
X149683064Y-116062359D01*
X149696478Y-116064393D01*
X149703184Y-116063534D01*
X149713262Y-116061392D01*
X149917255Y-116000191D01*
X149926842Y-115996433D01*
X150118095Y-115902739D01*
X150126945Y-115897464D01*
X150300328Y-115773792D01*
X150308200Y-115767139D01*
X150459052Y-115616812D01*
X150465730Y-115608965D01*
X150593022Y-115431819D01*
X150594147Y-115432627D01*
X150641669Y-115388876D01*
X150711607Y-115376661D01*
X150777046Y-115404197D01*
X150804870Y-115436028D01*
X150862690Y-115530383D01*
X150868777Y-115538699D01*
X151008213Y-115699667D01*
X151015580Y-115706883D01*
X151179434Y-115842916D01*
X151187881Y-115848831D01*
X151371756Y-115956279D01*
X151381042Y-115960729D01*
X151580001Y-116036703D01*
X151589899Y-116039579D01*
X151693250Y-116060606D01*
X151707299Y-116059410D01*
X151711000Y-116049065D01*
X151711000Y-116048517D01*
X152219000Y-116048517D01*
X152223064Y-116062359D01*
X152236478Y-116064393D01*
X152243184Y-116063534D01*
X152253262Y-116061392D01*
X152457255Y-116000191D01*
X152466842Y-115996433D01*
X152658095Y-115902739D01*
X152666945Y-115897464D01*
X152840328Y-115773792D01*
X152848200Y-115767139D01*
X152999052Y-115616812D01*
X153005730Y-115608965D01*
X153130003Y-115436020D01*
X153135313Y-115427183D01*
X153229670Y-115236267D01*
X153233469Y-115226672D01*
X153295377Y-115022910D01*
X153297555Y-115012837D01*
X153298986Y-115001962D01*
X153296775Y-114987778D01*
X153283617Y-114984000D01*
X152237115Y-114984000D01*
X152221876Y-114988475D01*
X152220671Y-114989865D01*
X152219000Y-114997548D01*
X152219000Y-116048517D01*
X151711000Y-116048517D01*
X151711000Y-115002115D01*
X151706525Y-114986876D01*
X151705135Y-114985671D01*
X151697452Y-114984000D01*
X149697115Y-114984000D01*
X149681876Y-114988475D01*
X149680671Y-114989865D01*
X149679000Y-114997548D01*
X149679000Y-116048517D01*
X149171000Y-116048517D01*
X149171000Y-115002115D01*
X149166525Y-114986876D01*
X149165135Y-114985671D01*
X149157452Y-114984000D01*
X148108225Y-114984000D01*
X148094694Y-114987973D01*
X148093257Y-114997966D01*
X126043441Y-114997966D01*
X126066068Y-114918534D01*
X126067244Y-114914406D01*
X126107751Y-114629784D01*
X126107789Y-114622706D01*
X126109235Y-114346583D01*
X126109235Y-114346576D01*
X126109257Y-114342297D01*
X126103146Y-114295875D01*
X126092190Y-114212660D01*
X126079209Y-114114062D01*
X139456650Y-114114062D01*
X139473694Y-114287883D01*
X139475918Y-114294568D01*
X139475918Y-114294569D01*
X139482001Y-114312855D01*
X139528824Y-114453610D01*
X139532471Y-114459632D01*
X139532472Y-114459634D01*
X139591486Y-114557077D01*
X139619300Y-114603004D01*
X139740625Y-114728640D01*
X139886771Y-114824275D01*
X139893375Y-114826731D01*
X139893377Y-114826732D01*
X139899309Y-114828938D01*
X140050472Y-114885155D01*
X140057457Y-114886087D01*
X140216612Y-114907323D01*
X140216616Y-114907323D01*
X140223593Y-114908254D01*
X140230604Y-114907616D01*
X140230608Y-114907616D01*
X140390512Y-114893064D01*
X140390515Y-114893063D01*
X140397530Y-114892425D01*
X140427466Y-114882698D01*
X140556941Y-114840629D01*
X140556943Y-114840628D01*
X140563637Y-114838453D01*
X140713659Y-114749022D01*
X140840139Y-114628577D01*
X140936792Y-114483102D01*
X140998813Y-114319830D01*
X141023121Y-114146875D01*
X141023426Y-114125000D01*
X141003957Y-113951433D01*
X140946519Y-113786493D01*
X140853966Y-113638377D01*
X140845501Y-113629852D01*
X140739758Y-113523368D01*
X140730898Y-113514446D01*
X140720193Y-113507652D01*
X140643757Y-113459145D01*
X140583431Y-113420861D01*
X140494789Y-113389297D01*
X140425531Y-113364635D01*
X140425526Y-113364634D01*
X140418896Y-113362273D01*
X140411908Y-113361440D01*
X140411905Y-113361439D01*
X140294334Y-113347420D01*
X140245469Y-113341593D01*
X140238467Y-113342329D01*
X140238465Y-113342329D01*
X140078771Y-113359114D01*
X140078769Y-113359114D01*
X140071771Y-113359850D01*
X139906433Y-113416135D01*
X139885874Y-113428783D01*
X139763677Y-113503959D01*
X139763674Y-113503961D01*
X139757675Y-113507652D01*
X139632888Y-113629852D01*
X139629069Y-113635777D01*
X139629068Y-113635779D01*
X139568208Y-113730215D01*
X139538276Y-113776661D01*
X139535867Y-113783281D01*
X139535865Y-113783284D01*
X139497866Y-113887686D01*
X139478540Y-113940784D01*
X139456650Y-114114062D01*
X126079209Y-114114062D01*
X126071732Y-114057266D01*
X126068299Y-114044715D01*
X126006768Y-113819798D01*
X125995871Y-113779964D01*
X125935114Y-113637522D01*
X125884763Y-113519476D01*
X125884761Y-113519472D01*
X125883077Y-113515524D01*
X125789538Y-113359232D01*
X125737643Y-113272521D01*
X125737640Y-113272517D01*
X125735439Y-113268839D01*
X125555687Y-113044472D01*
X125395995Y-112892930D01*
X125350258Y-112849527D01*
X125350255Y-112849525D01*
X125347149Y-112846577D01*
X125149585Y-112704612D01*
X125117172Y-112681321D01*
X125117171Y-112681320D01*
X125113683Y-112678814D01*
X125091843Y-112667250D01*
X125052396Y-112646364D01*
X124859608Y-112544288D01*
X124589627Y-112445489D01*
X124308736Y-112384245D01*
X124277685Y-112381801D01*
X124085718Y-112366693D01*
X124085709Y-112366693D01*
X124083261Y-112366500D01*
X123927729Y-112366500D01*
X123925593Y-112366646D01*
X123925582Y-112366646D01*
X123717452Y-112380835D01*
X123717446Y-112380836D01*
X123713175Y-112381127D01*
X123708980Y-112381996D01*
X123708978Y-112381996D01*
X123622711Y-112399861D01*
X123431658Y-112439426D01*
X123160657Y-112535393D01*
X123143423Y-112544288D01*
X123030785Y-112602425D01*
X122905188Y-112667250D01*
X122901687Y-112669711D01*
X122901683Y-112669713D01*
X122787582Y-112749905D01*
X122669977Y-112832559D01*
X122642165Y-112858404D01*
X122465155Y-113022892D01*
X122459378Y-113028260D01*
X122277287Y-113250732D01*
X122127073Y-113495858D01*
X122125347Y-113499791D01*
X122125346Y-113499792D01*
X122022798Y-113733404D01*
X122011517Y-113759102D01*
X122010342Y-113763229D01*
X122010341Y-113763230D01*
X121981425Y-113864740D01*
X121932756Y-114035594D01*
X121907010Y-114216500D01*
X121893297Y-114312855D01*
X121892249Y-114320216D01*
X121892227Y-114324505D01*
X121892226Y-114324512D01*
X121890765Y-114603417D01*
X121890743Y-114607703D01*
X120700000Y-114607703D01*
X120700000Y-111387728D01*
X139416719Y-111387728D01*
X139417235Y-111393872D01*
X139429996Y-111545840D01*
X139433268Y-111584811D01*
X139443281Y-111619731D01*
X139480837Y-111750702D01*
X139487783Y-111774927D01*
X139504885Y-111808203D01*
X139574538Y-111943732D01*
X139578187Y-111950833D01*
X139701035Y-112105830D01*
X139705728Y-112109824D01*
X139705729Y-112109825D01*
X139840488Y-112224513D01*
X139851650Y-112234013D01*
X140024294Y-112330501D01*
X140212392Y-112391617D01*
X140408777Y-112415035D01*
X140414912Y-112414563D01*
X140414914Y-112414563D01*
X140599830Y-112400334D01*
X140599834Y-112400333D01*
X140605972Y-112399861D01*
X140796463Y-112346675D01*
X140801967Y-112343895D01*
X140801969Y-112343894D01*
X140967495Y-112260281D01*
X140967497Y-112260280D01*
X140972996Y-112257502D01*
X141102023Y-112156695D01*
X148062251Y-112156695D01*
X148062548Y-112161848D01*
X148062548Y-112161851D01*
X148069651Y-112285031D01*
X148075110Y-112379715D01*
X148076247Y-112384761D01*
X148076248Y-112384767D01*
X148095370Y-112469616D01*
X148124222Y-112597639D01*
X148208266Y-112804616D01*
X148236974Y-112851463D01*
X148321710Y-112989740D01*
X148324987Y-112995088D01*
X148471250Y-113163938D01*
X148643126Y-113306632D01*
X148702955Y-113341593D01*
X148716955Y-113349774D01*
X148765679Y-113401412D01*
X148778750Y-113471195D01*
X148752019Y-113536967D01*
X148711562Y-113570327D01*
X148703457Y-113574546D01*
X148694738Y-113580036D01*
X148524433Y-113707905D01*
X148516726Y-113714748D01*
X148369590Y-113868717D01*
X148363104Y-113876727D01*
X148243098Y-114052649D01*
X148238000Y-114061623D01*
X148148338Y-114254783D01*
X148144775Y-114264470D01*
X148089389Y-114464183D01*
X148090912Y-114472607D01*
X148103292Y-114476000D01*
X151692885Y-114476000D01*
X151708124Y-114471525D01*
X151709329Y-114470135D01*
X151711000Y-114462452D01*
X151711000Y-114457885D01*
X152219000Y-114457885D01*
X152223475Y-114473124D01*
X152224865Y-114474329D01*
X152232548Y-114476000D01*
X153283344Y-114476000D01*
X153296875Y-114472027D01*
X153298180Y-114462947D01*
X153256214Y-114295875D01*
X153252894Y-114286124D01*
X153167972Y-114090814D01*
X153163105Y-114081739D01*
X153047426Y-113902926D01*
X153041136Y-113894757D01*
X152897806Y-113737240D01*
X152890273Y-113730215D01*
X152723139Y-113598222D01*
X152714552Y-113592517D01*
X152677116Y-113571851D01*
X152627146Y-113521419D01*
X152612374Y-113451976D01*
X152637490Y-113385571D01*
X152664842Y-113358964D01*
X152840327Y-113233792D01*
X152848200Y-113227139D01*
X152999052Y-113076812D01*
X153005730Y-113068965D01*
X153130003Y-112896020D01*
X153135313Y-112887183D01*
X153229670Y-112696267D01*
X153233469Y-112686672D01*
X153295377Y-112482910D01*
X153297555Y-112472837D01*
X153298986Y-112461962D01*
X153296775Y-112447778D01*
X153283617Y-112444000D01*
X152237115Y-112444000D01*
X152221876Y-112448475D01*
X152220671Y-112449865D01*
X152219000Y-112457548D01*
X152219000Y-114457885D01*
X151711000Y-114457885D01*
X151711000Y-112062000D01*
X151731002Y-111993879D01*
X151740267Y-111985851D01*
X155736719Y-111985851D01*
X155737235Y-111991995D01*
X155751498Y-112161851D01*
X155753268Y-112182934D01*
X155763436Y-112218393D01*
X155805947Y-112366646D01*
X155807783Y-112373050D01*
X155813805Y-112384767D01*
X155891217Y-112535393D01*
X155898187Y-112548956D01*
X156021035Y-112703953D01*
X156025728Y-112707947D01*
X156025729Y-112707948D01*
X156163302Y-112825031D01*
X156171650Y-112832136D01*
X156344294Y-112928624D01*
X156532392Y-112989740D01*
X156728777Y-113013158D01*
X156734912Y-113012686D01*
X156734914Y-113012686D01*
X156919830Y-112998457D01*
X156919834Y-112998456D01*
X156925972Y-112997984D01*
X157116463Y-112944798D01*
X157121967Y-112942018D01*
X157121969Y-112942017D01*
X157287495Y-112858404D01*
X157287497Y-112858403D01*
X157292996Y-112855625D01*
X157298211Y-112851551D01*
X157298431Y-112851463D01*
X157303053Y-112848530D01*
X157303611Y-112849409D01*
X157364205Y-112825376D01*
X157437251Y-112840855D01*
X157594294Y-112928624D01*
X157782392Y-112989740D01*
X157978777Y-113013158D01*
X157984912Y-113012686D01*
X157984914Y-113012686D01*
X158169830Y-112998457D01*
X158169834Y-112998456D01*
X158175972Y-112997984D01*
X158366463Y-112944798D01*
X158371967Y-112942018D01*
X158371969Y-112942017D01*
X158537495Y-112858404D01*
X158537497Y-112858403D01*
X158542996Y-112855625D01*
X158548211Y-112851551D01*
X158548431Y-112851463D01*
X158553053Y-112848530D01*
X158553611Y-112849409D01*
X158614205Y-112825376D01*
X158687251Y-112840855D01*
X158844294Y-112928624D01*
X159032392Y-112989740D01*
X159228777Y-113013158D01*
X159234912Y-113012686D01*
X159234914Y-113012686D01*
X159419830Y-112998457D01*
X159419834Y-112998456D01*
X159425972Y-112997984D01*
X159616463Y-112944798D01*
X159621967Y-112942018D01*
X159621969Y-112942017D01*
X159787495Y-112858404D01*
X159787497Y-112858403D01*
X159792996Y-112855625D01*
X159798211Y-112851551D01*
X159798431Y-112851463D01*
X159803053Y-112848530D01*
X159803611Y-112849409D01*
X159864205Y-112825376D01*
X159937251Y-112840855D01*
X160094294Y-112928624D01*
X160282392Y-112989740D01*
X160478777Y-113013158D01*
X160484912Y-113012686D01*
X160484914Y-113012686D01*
X160669830Y-112998457D01*
X160669834Y-112998456D01*
X160675972Y-112997984D01*
X160866463Y-112944798D01*
X160871967Y-112942018D01*
X160871969Y-112942017D01*
X161032651Y-112860851D01*
X172686719Y-112860851D01*
X172687235Y-112866995D01*
X172702138Y-113044472D01*
X172703268Y-113057934D01*
X172710092Y-113081731D01*
X172753695Y-113233792D01*
X172757783Y-113248050D01*
X172774885Y-113281326D01*
X172844168Y-113416135D01*
X172848187Y-113423956D01*
X172971035Y-113578953D01*
X172975728Y-113582947D01*
X172975729Y-113582948D01*
X173047878Y-113644351D01*
X173121650Y-113707136D01*
X173294294Y-113803624D01*
X173482392Y-113864740D01*
X173678777Y-113888158D01*
X173684912Y-113887686D01*
X173684914Y-113887686D01*
X173869830Y-113873457D01*
X173869834Y-113873456D01*
X173875972Y-113872984D01*
X174059669Y-113821695D01*
X182637251Y-113821695D01*
X182637548Y-113826848D01*
X182637548Y-113826851D01*
X182644731Y-113951433D01*
X182650110Y-114044715D01*
X182651247Y-114049761D01*
X182651248Y-114049767D01*
X182660499Y-114090814D01*
X182699222Y-114262639D01*
X182737277Y-114356358D01*
X182778503Y-114457885D01*
X182783266Y-114469616D01*
X182791530Y-114483102D01*
X182883655Y-114633436D01*
X182899987Y-114660088D01*
X183046250Y-114828938D01*
X183218126Y-114971632D01*
X183411000Y-115084338D01*
X183619692Y-115164030D01*
X183624760Y-115165061D01*
X183624763Y-115165062D01*
X183731462Y-115186770D01*
X183838597Y-115208567D01*
X183843772Y-115208757D01*
X183843774Y-115208757D01*
X184056673Y-115216564D01*
X184056677Y-115216564D01*
X184061837Y-115216753D01*
X184066957Y-115216097D01*
X184066959Y-115216097D01*
X184278288Y-115189025D01*
X184278289Y-115189025D01*
X184283416Y-115188368D01*
X184288366Y-115186883D01*
X184492429Y-115125661D01*
X184492434Y-115125659D01*
X184497384Y-115124174D01*
X184697994Y-115025896D01*
X184879860Y-114896173D01*
X184889982Y-114886087D01*
X185034435Y-114742137D01*
X185038096Y-114738489D01*
X185097594Y-114655689D01*
X185132075Y-114607703D01*
X191890743Y-114607703D01*
X191891302Y-114611947D01*
X191891302Y-114611951D01*
X191898153Y-114663990D01*
X191928268Y-114892734D01*
X192004129Y-115170036D01*
X192005813Y-115173984D01*
X192092263Y-115376661D01*
X192116923Y-115434476D01*
X192128693Y-115454142D01*
X192221353Y-115608965D01*
X192264561Y-115681161D01*
X192444313Y-115905528D01*
X192502483Y-115960729D01*
X192609579Y-116062359D01*
X192652851Y-116103423D01*
X192886317Y-116271186D01*
X192890112Y-116273195D01*
X192890113Y-116273196D01*
X192911869Y-116284715D01*
X193140392Y-116405712D01*
X193164699Y-116414607D01*
X193390078Y-116497084D01*
X193410373Y-116504511D01*
X193691264Y-116565755D01*
X193719841Y-116568004D01*
X193914282Y-116583307D01*
X193914291Y-116583307D01*
X193916739Y-116583500D01*
X194072271Y-116583500D01*
X194074407Y-116583354D01*
X194074418Y-116583354D01*
X194282548Y-116569165D01*
X194282554Y-116569164D01*
X194286825Y-116568873D01*
X194291020Y-116568004D01*
X194291022Y-116568004D01*
X194486802Y-116527460D01*
X194568342Y-116510574D01*
X194839343Y-116414607D01*
X195094812Y-116282750D01*
X195098313Y-116280289D01*
X195098317Y-116280287D01*
X195212417Y-116200096D01*
X195330023Y-116117441D01*
X195540622Y-115921740D01*
X195722713Y-115699268D01*
X195872927Y-115454142D01*
X195880879Y-115436028D01*
X195986757Y-115194830D01*
X195988483Y-115190898D01*
X196002733Y-115140875D01*
X196066068Y-114918534D01*
X196067244Y-114914406D01*
X196107751Y-114629784D01*
X196107789Y-114622706D01*
X196109235Y-114346583D01*
X196109235Y-114346576D01*
X196109257Y-114342297D01*
X196103146Y-114295875D01*
X196092190Y-114212660D01*
X196071732Y-114057266D01*
X196068299Y-114044715D01*
X196006768Y-113819798D01*
X195995871Y-113779964D01*
X195935114Y-113637522D01*
X195884763Y-113519476D01*
X195884761Y-113519472D01*
X195883077Y-113515524D01*
X195789538Y-113359232D01*
X195737643Y-113272521D01*
X195737640Y-113272517D01*
X195735439Y-113268839D01*
X195555687Y-113044472D01*
X195395995Y-112892930D01*
X195350258Y-112849527D01*
X195350255Y-112849525D01*
X195347149Y-112846577D01*
X195149585Y-112704612D01*
X195117172Y-112681321D01*
X195117171Y-112681320D01*
X195113683Y-112678814D01*
X195091843Y-112667250D01*
X195052396Y-112646364D01*
X194859608Y-112544288D01*
X194589627Y-112445489D01*
X194308736Y-112384245D01*
X194277685Y-112381801D01*
X194085718Y-112366693D01*
X194085709Y-112366693D01*
X194083261Y-112366500D01*
X193927729Y-112366500D01*
X193925593Y-112366646D01*
X193925582Y-112366646D01*
X193717452Y-112380835D01*
X193717446Y-112380836D01*
X193713175Y-112381127D01*
X193708980Y-112381996D01*
X193708978Y-112381996D01*
X193622711Y-112399861D01*
X193431658Y-112439426D01*
X193160657Y-112535393D01*
X193143423Y-112544288D01*
X193030785Y-112602425D01*
X192905188Y-112667250D01*
X192901687Y-112669711D01*
X192901683Y-112669713D01*
X192787582Y-112749905D01*
X192669977Y-112832559D01*
X192642165Y-112858404D01*
X192465155Y-113022892D01*
X192459378Y-113028260D01*
X192277287Y-113250732D01*
X192127073Y-113495858D01*
X192125347Y-113499791D01*
X192125346Y-113499792D01*
X192022798Y-113733404D01*
X192011517Y-113759102D01*
X192010342Y-113763229D01*
X192010341Y-113763230D01*
X191981425Y-113864740D01*
X191932756Y-114035594D01*
X191907010Y-114216500D01*
X191893297Y-114312855D01*
X191892249Y-114320216D01*
X191892227Y-114324505D01*
X191892226Y-114324512D01*
X191890765Y-114603417D01*
X191890743Y-114607703D01*
X185132075Y-114607703D01*
X185165435Y-114561277D01*
X185168453Y-114557077D01*
X185202112Y-114488974D01*
X185265136Y-114361453D01*
X185265137Y-114361451D01*
X185267430Y-114356811D01*
X185332370Y-114143069D01*
X185361529Y-113921590D01*
X185362346Y-113888158D01*
X185363074Y-113858365D01*
X185363074Y-113858361D01*
X185363156Y-113855000D01*
X185344852Y-113632361D01*
X185290431Y-113415702D01*
X185201354Y-113210840D01*
X185125374Y-113093393D01*
X185082822Y-113027617D01*
X185082820Y-113027614D01*
X185080014Y-113023277D01*
X184929670Y-112858051D01*
X184925619Y-112854852D01*
X184925615Y-112854848D01*
X184758414Y-112722800D01*
X184758410Y-112722798D01*
X184754359Y-112719598D01*
X184713053Y-112696796D01*
X184663084Y-112646364D01*
X184648312Y-112576921D01*
X184673428Y-112510516D01*
X184700780Y-112483909D01*
X184764361Y-112438557D01*
X184879860Y-112356173D01*
X184887727Y-112348334D01*
X185006108Y-112230365D01*
X185038096Y-112198489D01*
X185097594Y-112115689D01*
X185165435Y-112021277D01*
X185168453Y-112017077D01*
X185183802Y-111986022D01*
X185265136Y-111821453D01*
X185265137Y-111821451D01*
X185267430Y-111816811D01*
X185332370Y-111603069D01*
X185361529Y-111381590D01*
X185363156Y-111315000D01*
X185344852Y-111092361D01*
X185290431Y-110875702D01*
X185201354Y-110670840D01*
X185129196Y-110559301D01*
X185082822Y-110487617D01*
X185082820Y-110487614D01*
X185080014Y-110483277D01*
X185064163Y-110465857D01*
X184932798Y-110321488D01*
X184901746Y-110257642D01*
X184910141Y-110187143D01*
X184955317Y-110132375D01*
X184981761Y-110118706D01*
X185088297Y-110078767D01*
X185096705Y-110075615D01*
X185213261Y-109988261D01*
X185300615Y-109871705D01*
X185351745Y-109735316D01*
X185358500Y-109673134D01*
X185358500Y-107876866D01*
X185351745Y-107814684D01*
X185300615Y-107678295D01*
X185213261Y-107561739D01*
X185096705Y-107474385D01*
X184960316Y-107423255D01*
X184898134Y-107416500D01*
X183101866Y-107416500D01*
X183039684Y-107423255D01*
X182903295Y-107474385D01*
X182786739Y-107561739D01*
X182699385Y-107678295D01*
X182648255Y-107814684D01*
X182641500Y-107876866D01*
X182641500Y-109673134D01*
X182648255Y-109735316D01*
X182699385Y-109871705D01*
X182786739Y-109988261D01*
X182903295Y-110075615D01*
X182911704Y-110078767D01*
X182911705Y-110078768D01*
X183020451Y-110119535D01*
X183077216Y-110162176D01*
X183101916Y-110228738D01*
X183086709Y-110298087D01*
X183067316Y-110324568D01*
X182940629Y-110457138D01*
X182937715Y-110461410D01*
X182937714Y-110461411D01*
X182919838Y-110487617D01*
X182814743Y-110641680D01*
X182778575Y-110719598D01*
X182726154Y-110832530D01*
X182720688Y-110844305D01*
X182660989Y-111059570D01*
X182637251Y-111281695D01*
X182637548Y-111286848D01*
X182637548Y-111286851D01*
X182644384Y-111405400D01*
X182650110Y-111504715D01*
X182651247Y-111509761D01*
X182651248Y-111509767D01*
X182659378Y-111545840D01*
X182699222Y-111722639D01*
X182783266Y-111929616D01*
X182796268Y-111950833D01*
X182891250Y-112105830D01*
X182899987Y-112120088D01*
X183046250Y-112288938D01*
X183218126Y-112431632D01*
X183249328Y-112449865D01*
X183291445Y-112474476D01*
X183340169Y-112526114D01*
X183353240Y-112595897D01*
X183326509Y-112661669D01*
X183286055Y-112695027D01*
X183273607Y-112701507D01*
X183269474Y-112704610D01*
X183269471Y-112704612D01*
X183099100Y-112832530D01*
X183094965Y-112835635D01*
X182940629Y-112997138D01*
X182937715Y-113001410D01*
X182937714Y-113001411D01*
X182866802Y-113105365D01*
X182814743Y-113181680D01*
X182783935Y-113248050D01*
X182732040Y-113359850D01*
X182720688Y-113384305D01*
X182660989Y-113599570D01*
X182637251Y-113821695D01*
X174059669Y-113821695D01*
X174066463Y-113819798D01*
X174071967Y-113817018D01*
X174071969Y-113817017D01*
X174237495Y-113733404D01*
X174237497Y-113733403D01*
X174242996Y-113730625D01*
X174398847Y-113608861D01*
X174528078Y-113459145D01*
X174625769Y-113287179D01*
X174688197Y-113099513D01*
X174712985Y-112903295D01*
X174713380Y-112875000D01*
X174694080Y-112678167D01*
X174687294Y-112655689D01*
X174655069Y-112548956D01*
X174636916Y-112488831D01*
X174544066Y-112314204D01*
X174446268Y-112194292D01*
X174422960Y-112165713D01*
X174422957Y-112165710D01*
X174419065Y-112160938D01*
X174412724Y-112155692D01*
X174271425Y-112038799D01*
X174271421Y-112038797D01*
X174266675Y-112034870D01*
X174092701Y-111940802D01*
X173903768Y-111882318D01*
X173897643Y-111881674D01*
X173897642Y-111881674D01*
X173713204Y-111862289D01*
X173713202Y-111862289D01*
X173707075Y-111861645D01*
X173624576Y-111869153D01*
X173516251Y-111879011D01*
X173516248Y-111879012D01*
X173510112Y-111879570D01*
X173504206Y-111881308D01*
X173504202Y-111881309D01*
X173399076Y-111912249D01*
X173320381Y-111935410D01*
X173314923Y-111938263D01*
X173314919Y-111938265D01*
X173235613Y-111979726D01*
X173145110Y-112027040D01*
X172990975Y-112150968D01*
X172863846Y-112302474D01*
X172860879Y-112307872D01*
X172860875Y-112307877D01*
X172802366Y-112414306D01*
X172768567Y-112475787D01*
X172766706Y-112481654D01*
X172766705Y-112481656D01*
X172711498Y-112655689D01*
X172708765Y-112664306D01*
X172686719Y-112860851D01*
X161032651Y-112860851D01*
X161037495Y-112858404D01*
X161037497Y-112858403D01*
X161042996Y-112855625D01*
X161188254Y-112742137D01*
X161193991Y-112737655D01*
X161198847Y-112733861D01*
X161315811Y-112598357D01*
X161324049Y-112588813D01*
X161324050Y-112588811D01*
X161328078Y-112584145D01*
X161425769Y-112412179D01*
X161488197Y-112224513D01*
X161512985Y-112028295D01*
X161513380Y-112000000D01*
X161495897Y-111821695D01*
X175937251Y-111821695D01*
X175937548Y-111826848D01*
X175937548Y-111826851D01*
X175944287Y-111943732D01*
X175950110Y-112044715D01*
X175951247Y-112049761D01*
X175951248Y-112049767D01*
X175969572Y-112131074D01*
X175999222Y-112262639D01*
X176050821Y-112389713D01*
X176074682Y-112448475D01*
X176083266Y-112469616D01*
X176199987Y-112660088D01*
X176346250Y-112828938D01*
X176518126Y-112971632D01*
X176711000Y-113084338D01*
X176715825Y-113086180D01*
X176715826Y-113086181D01*
X176750739Y-113099513D01*
X176919692Y-113164030D01*
X176924760Y-113165061D01*
X176924763Y-113165062D01*
X177032017Y-113186883D01*
X177138597Y-113208567D01*
X177143772Y-113208757D01*
X177143774Y-113208757D01*
X177356673Y-113216564D01*
X177356677Y-113216564D01*
X177361837Y-113216753D01*
X177366957Y-113216097D01*
X177366959Y-113216097D01*
X177578288Y-113189025D01*
X177578289Y-113189025D01*
X177583416Y-113188368D01*
X177655029Y-113166883D01*
X177792429Y-113125661D01*
X177792434Y-113125659D01*
X177797384Y-113124174D01*
X177997994Y-113025896D01*
X178179860Y-112896173D01*
X178183971Y-112892077D01*
X178267318Y-112809020D01*
X178338096Y-112738489D01*
X178351671Y-112719598D01*
X178465435Y-112561277D01*
X178468453Y-112557077D01*
X178475175Y-112543477D01*
X178565136Y-112361453D01*
X178565137Y-112361451D01*
X178567430Y-112356811D01*
X178632370Y-112143069D01*
X178661529Y-111921590D01*
X178662556Y-111879570D01*
X178663074Y-111858365D01*
X178663074Y-111858361D01*
X178663156Y-111855000D01*
X178644852Y-111632361D01*
X178590431Y-111415702D01*
X178501354Y-111210840D01*
X178450765Y-111132642D01*
X178382822Y-111027617D01*
X178382820Y-111027614D01*
X178380014Y-111023277D01*
X178229670Y-110858051D01*
X178225619Y-110854852D01*
X178225615Y-110854848D01*
X178058414Y-110722800D01*
X178058410Y-110722798D01*
X178054359Y-110719598D01*
X178013053Y-110696796D01*
X177963084Y-110646364D01*
X177948312Y-110576921D01*
X177973428Y-110510516D01*
X178000780Y-110483909D01*
X178044603Y-110452650D01*
X178179860Y-110356173D01*
X178183971Y-110352077D01*
X178334435Y-110202137D01*
X178338096Y-110198489D01*
X178342796Y-110191949D01*
X178465435Y-110021277D01*
X178468453Y-110017077D01*
X178510037Y-109932939D01*
X178565136Y-109821453D01*
X178565137Y-109821451D01*
X178567430Y-109816811D01*
X178609971Y-109676793D01*
X178630865Y-109608023D01*
X178630865Y-109608021D01*
X178632370Y-109603069D01*
X178661529Y-109381590D01*
X178662380Y-109346759D01*
X178663074Y-109318365D01*
X178663074Y-109318361D01*
X178663156Y-109315000D01*
X178644852Y-109092361D01*
X178590431Y-108875702D01*
X178501354Y-108670840D01*
X178420662Y-108546109D01*
X178382822Y-108487617D01*
X178382820Y-108487614D01*
X178380014Y-108483277D01*
X178376532Y-108479450D01*
X178232798Y-108321488D01*
X178201746Y-108257642D01*
X178210141Y-108187143D01*
X178255317Y-108132375D01*
X178281761Y-108118706D01*
X178388297Y-108078767D01*
X178396705Y-108075615D01*
X178513261Y-107988261D01*
X178600615Y-107871705D01*
X178651745Y-107735316D01*
X178658500Y-107673134D01*
X178658500Y-105876866D01*
X178651745Y-105814684D01*
X178600615Y-105678295D01*
X178513261Y-105561739D01*
X178396705Y-105474385D01*
X178260316Y-105423255D01*
X178198134Y-105416500D01*
X176401866Y-105416500D01*
X176339684Y-105423255D01*
X176203295Y-105474385D01*
X176086739Y-105561739D01*
X175999385Y-105678295D01*
X175948255Y-105814684D01*
X175941500Y-105876866D01*
X175941500Y-107673134D01*
X175948255Y-107735316D01*
X175999385Y-107871705D01*
X176086739Y-107988261D01*
X176203295Y-108075615D01*
X176211704Y-108078767D01*
X176211705Y-108078768D01*
X176320451Y-108119535D01*
X176377216Y-108162176D01*
X176401916Y-108228738D01*
X176386709Y-108298087D01*
X176367316Y-108324568D01*
X176240629Y-108457138D01*
X176237715Y-108461410D01*
X176237714Y-108461411D01*
X176205156Y-108509140D01*
X176114743Y-108641680D01*
X176067716Y-108742992D01*
X176024838Y-108835365D01*
X176020688Y-108844305D01*
X175960989Y-109059570D01*
X175937251Y-109281695D01*
X175937548Y-109286848D01*
X175937548Y-109286851D01*
X175943011Y-109381590D01*
X175950110Y-109504715D01*
X175951247Y-109509761D01*
X175951248Y-109509767D01*
X175972256Y-109602984D01*
X175999222Y-109722639D01*
X176037461Y-109816811D01*
X176076186Y-109912179D01*
X176083266Y-109929616D01*
X176085965Y-109934020D01*
X176174666Y-110078767D01*
X176199987Y-110120088D01*
X176346250Y-110288938D01*
X176518126Y-110431632D01*
X176567608Y-110460547D01*
X176591445Y-110474476D01*
X176640169Y-110526114D01*
X176653240Y-110595897D01*
X176626509Y-110661669D01*
X176586055Y-110695027D01*
X176573607Y-110701507D01*
X176569474Y-110704610D01*
X176569471Y-110704612D01*
X176399100Y-110832530D01*
X176394965Y-110835635D01*
X176240629Y-110997138D01*
X176237715Y-111001410D01*
X176237714Y-111001411D01*
X176179096Y-111087342D01*
X176114743Y-111181680D01*
X176101051Y-111211178D01*
X176030612Y-111362926D01*
X176020688Y-111384305D01*
X175960989Y-111599570D01*
X175937251Y-111821695D01*
X161495897Y-111821695D01*
X161494080Y-111803167D01*
X161436916Y-111613831D01*
X161344066Y-111439204D01*
X161344588Y-111438927D01*
X161324801Y-111375151D01*
X161341230Y-111310993D01*
X161343216Y-111307498D01*
X161395427Y-111215590D01*
X161422723Y-111167542D01*
X161422725Y-111167537D01*
X161425769Y-111162179D01*
X161488197Y-110974513D01*
X161512985Y-110778295D01*
X161513380Y-110750000D01*
X161494080Y-110553167D01*
X161491415Y-110544338D01*
X161468270Y-110467679D01*
X161436916Y-110363831D01*
X161344066Y-110189204D01*
X161344588Y-110188927D01*
X161324801Y-110125151D01*
X161341230Y-110060993D01*
X161343216Y-110057498D01*
X161386627Y-109981081D01*
X161422723Y-109917542D01*
X161422725Y-109917537D01*
X161425769Y-109912179D01*
X161488197Y-109724513D01*
X161512985Y-109528295D01*
X161513380Y-109500000D01*
X161494080Y-109303167D01*
X161486048Y-109276562D01*
X161438697Y-109119731D01*
X161436916Y-109113831D01*
X161344066Y-108939204D01*
X161242325Y-108814457D01*
X161222960Y-108790713D01*
X161222957Y-108790710D01*
X161219065Y-108785938D01*
X161212724Y-108780692D01*
X161071425Y-108663799D01*
X161071421Y-108663797D01*
X161066675Y-108659870D01*
X160892701Y-108565802D01*
X160703768Y-108507318D01*
X160697643Y-108506674D01*
X160697642Y-108506674D01*
X160513204Y-108487289D01*
X160513202Y-108487289D01*
X160507075Y-108486645D01*
X160424960Y-108494118D01*
X160316251Y-108504011D01*
X160316248Y-108504012D01*
X160310112Y-108504570D01*
X160304206Y-108506308D01*
X160304202Y-108506309D01*
X160199076Y-108537249D01*
X160120381Y-108560410D01*
X160114923Y-108563263D01*
X160114919Y-108563265D01*
X159950566Y-108649187D01*
X159950561Y-108649190D01*
X159945110Y-108652040D01*
X159942831Y-108653872D01*
X159875950Y-108674113D01*
X159814979Y-108658953D01*
X159804983Y-108653548D01*
X159642701Y-108565802D01*
X159453768Y-108507318D01*
X159447643Y-108506674D01*
X159447642Y-108506674D01*
X159263204Y-108487289D01*
X159263202Y-108487289D01*
X159257075Y-108486645D01*
X159174960Y-108494118D01*
X159066251Y-108504011D01*
X159066248Y-108504012D01*
X159060112Y-108504570D01*
X159054206Y-108506308D01*
X159054202Y-108506309D01*
X158949076Y-108537249D01*
X158870381Y-108560410D01*
X158864923Y-108563263D01*
X158864919Y-108563265D01*
X158700566Y-108649187D01*
X158700561Y-108649190D01*
X158695110Y-108652040D01*
X158692831Y-108653872D01*
X158625950Y-108674113D01*
X158564979Y-108658953D01*
X158554983Y-108653548D01*
X158392701Y-108565802D01*
X158203768Y-108507318D01*
X158197643Y-108506674D01*
X158197642Y-108506674D01*
X158013204Y-108487289D01*
X158013202Y-108487289D01*
X158007075Y-108486645D01*
X157924960Y-108494118D01*
X157816251Y-108504011D01*
X157816248Y-108504012D01*
X157810112Y-108504570D01*
X157804206Y-108506308D01*
X157804202Y-108506309D01*
X157699076Y-108537249D01*
X157620381Y-108560410D01*
X157614923Y-108563263D01*
X157614919Y-108563265D01*
X157450566Y-108649187D01*
X157450561Y-108649190D01*
X157445110Y-108652040D01*
X157442831Y-108653872D01*
X157375950Y-108674113D01*
X157314979Y-108658953D01*
X157304983Y-108653548D01*
X157142701Y-108565802D01*
X156953768Y-108507318D01*
X156947643Y-108506674D01*
X156947642Y-108506674D01*
X156763204Y-108487289D01*
X156763202Y-108487289D01*
X156757075Y-108486645D01*
X156674960Y-108494118D01*
X156566251Y-108504011D01*
X156566248Y-108504012D01*
X156560112Y-108504570D01*
X156554206Y-108506308D01*
X156554202Y-108506309D01*
X156449076Y-108537249D01*
X156370381Y-108560410D01*
X156364923Y-108563263D01*
X156364919Y-108563265D01*
X156291793Y-108601495D01*
X156195110Y-108652040D01*
X156040975Y-108775968D01*
X155913846Y-108927474D01*
X155910879Y-108932872D01*
X155910875Y-108932877D01*
X155861582Y-109022542D01*
X155818567Y-109100787D01*
X155816706Y-109106654D01*
X155816705Y-109106656D01*
X155786545Y-109201732D01*
X155758765Y-109289306D01*
X155736719Y-109485851D01*
X155737235Y-109491995D01*
X155750503Y-109650000D01*
X155753268Y-109682934D01*
X155766460Y-109728941D01*
X155791657Y-109816811D01*
X155807783Y-109873050D01*
X155898187Y-110048956D01*
X155902014Y-110053784D01*
X155904407Y-110057498D01*
X155924495Y-110125593D01*
X155908910Y-110186452D01*
X155818567Y-110350787D01*
X155816706Y-110356654D01*
X155816705Y-110356656D01*
X155776338Y-110483909D01*
X155758765Y-110539306D01*
X155736719Y-110735851D01*
X155737235Y-110741995D01*
X155752113Y-110919174D01*
X155753268Y-110932934D01*
X155754967Y-110938858D01*
X155788155Y-111054598D01*
X155807783Y-111123050D01*
X155898187Y-111298956D01*
X155902014Y-111303784D01*
X155904407Y-111307498D01*
X155924495Y-111375593D01*
X155908910Y-111436452D01*
X155818567Y-111600787D01*
X155816706Y-111606654D01*
X155816705Y-111606656D01*
X155810445Y-111626390D01*
X155758765Y-111789306D01*
X155736719Y-111985851D01*
X151740267Y-111985851D01*
X151784658Y-111947386D01*
X151837000Y-111936000D01*
X153283344Y-111936000D01*
X153296875Y-111932027D01*
X153298180Y-111922947D01*
X153256214Y-111755875D01*
X153252894Y-111746124D01*
X153167972Y-111550814D01*
X153163105Y-111541739D01*
X153047426Y-111362926D01*
X153041136Y-111354757D01*
X152897806Y-111197240D01*
X152890273Y-111190215D01*
X152723139Y-111058222D01*
X152714556Y-111052520D01*
X152677602Y-111032120D01*
X152627631Y-110981687D01*
X152612859Y-110912245D01*
X152637975Y-110845839D01*
X152665327Y-110819232D01*
X152727659Y-110774771D01*
X152844860Y-110691173D01*
X152869628Y-110666492D01*
X152938001Y-110598357D01*
X153003096Y-110533489D01*
X153008396Y-110526114D01*
X153130435Y-110356277D01*
X153133453Y-110352077D01*
X153160137Y-110298087D01*
X153230136Y-110156453D01*
X153230137Y-110156451D01*
X153232430Y-110151811D01*
X153280486Y-109993642D01*
X153295865Y-109943023D01*
X153295865Y-109943021D01*
X153297370Y-109938069D01*
X153326529Y-109716590D01*
X153326916Y-109700745D01*
X153328074Y-109653365D01*
X153328074Y-109653361D01*
X153328156Y-109650000D01*
X153309852Y-109427361D01*
X153255431Y-109210702D01*
X153166354Y-109005840D01*
X153123245Y-108939204D01*
X153047822Y-108822617D01*
X153047820Y-108822614D01*
X153045014Y-108818277D01*
X152894670Y-108653051D01*
X152890619Y-108649852D01*
X152890615Y-108649848D01*
X152723414Y-108517800D01*
X152723410Y-108517798D01*
X152719359Y-108514598D01*
X152706172Y-108507318D01*
X152655688Y-108479450D01*
X152523789Y-108406638D01*
X152518920Y-108404914D01*
X152518916Y-108404912D01*
X152318087Y-108333795D01*
X152318083Y-108333794D01*
X152313212Y-108332069D01*
X152308119Y-108331162D01*
X152308116Y-108331161D01*
X152098373Y-108293800D01*
X152098367Y-108293799D01*
X152093284Y-108292894D01*
X152019452Y-108291992D01*
X151875081Y-108290228D01*
X151875079Y-108290228D01*
X151869911Y-108290165D01*
X151649091Y-108323955D01*
X151436756Y-108393357D01*
X151408306Y-108408167D01*
X151252909Y-108489062D01*
X151238607Y-108496507D01*
X151234474Y-108499610D01*
X151234471Y-108499612D01*
X151089415Y-108608523D01*
X151059965Y-108630635D01*
X151003537Y-108689684D01*
X150979283Y-108715064D01*
X150917759Y-108750494D01*
X150846846Y-108747037D01*
X150789060Y-108705791D01*
X150770207Y-108672243D01*
X150728767Y-108561703D01*
X150725615Y-108553295D01*
X150638261Y-108436739D01*
X150521705Y-108349385D01*
X150385316Y-108298255D01*
X150323134Y-108291500D01*
X148526866Y-108291500D01*
X148464684Y-108298255D01*
X148328295Y-108349385D01*
X148211739Y-108436739D01*
X148124385Y-108553295D01*
X148073255Y-108689684D01*
X148066500Y-108751866D01*
X148066500Y-110548134D01*
X148073255Y-110610316D01*
X148124385Y-110746705D01*
X148211739Y-110863261D01*
X148328295Y-110950615D01*
X148336704Y-110953767D01*
X148336705Y-110953768D01*
X148445451Y-110994535D01*
X148502216Y-111037176D01*
X148526916Y-111103738D01*
X148511709Y-111173087D01*
X148492316Y-111199568D01*
X148385212Y-111311646D01*
X148365629Y-111332138D01*
X148362715Y-111336410D01*
X148362714Y-111336411D01*
X148305202Y-111420720D01*
X148239743Y-111516680D01*
X148203206Y-111595392D01*
X148188818Y-111626390D01*
X148145688Y-111719305D01*
X148085989Y-111934570D01*
X148062251Y-112156695D01*
X141102023Y-112156695D01*
X141128847Y-112135738D01*
X141231272Y-112017077D01*
X141254049Y-111990690D01*
X141254050Y-111990688D01*
X141258078Y-111986022D01*
X141355769Y-111814056D01*
X141418197Y-111626390D01*
X141442985Y-111430172D01*
X141443380Y-111401877D01*
X141424080Y-111205044D01*
X141418444Y-111186375D01*
X141390059Y-111092361D01*
X141366916Y-111015708D01*
X141274066Y-110841081D01*
X141172953Y-110717104D01*
X141152960Y-110692590D01*
X141152957Y-110692587D01*
X141149065Y-110687815D01*
X141142724Y-110682569D01*
X141001425Y-110565676D01*
X141001421Y-110565674D01*
X140996675Y-110561747D01*
X140822701Y-110467679D01*
X140633768Y-110409195D01*
X140627643Y-110408551D01*
X140627642Y-110408551D01*
X140443204Y-110389166D01*
X140443202Y-110389166D01*
X140437075Y-110388522D01*
X140354576Y-110396030D01*
X140246251Y-110405888D01*
X140246248Y-110405889D01*
X140240112Y-110406447D01*
X140234206Y-110408185D01*
X140234202Y-110408186D01*
X140165769Y-110428327D01*
X140050381Y-110462287D01*
X140044923Y-110465140D01*
X140044919Y-110465142D01*
X140009022Y-110483909D01*
X139875110Y-110553917D01*
X139720975Y-110677845D01*
X139593846Y-110829351D01*
X139590879Y-110834749D01*
X139590875Y-110834754D01*
X139514043Y-110974513D01*
X139498567Y-111002664D01*
X139496706Y-111008531D01*
X139496705Y-111008533D01*
X139440627Y-111185313D01*
X139438765Y-111191183D01*
X139416719Y-111387728D01*
X120700000Y-111387728D01*
X120700000Y-105794072D01*
X121139171Y-105794072D01*
X121152030Y-106017092D01*
X121153167Y-106022138D01*
X121153168Y-106022144D01*
X121166517Y-106081377D01*
X121201142Y-106235016D01*
X121285186Y-106441993D01*
X121335783Y-106524560D01*
X121399211Y-106628065D01*
X121401907Y-106632465D01*
X121548170Y-106801315D01*
X121552150Y-106804619D01*
X121556901Y-106808564D01*
X121596536Y-106867467D01*
X121598033Y-106938448D01*
X121560917Y-106998970D01*
X121520645Y-107023489D01*
X121473049Y-107041332D01*
X121405215Y-107066762D01*
X121288659Y-107154116D01*
X121201305Y-107270672D01*
X121150175Y-107407061D01*
X121143420Y-107469243D01*
X121143420Y-109265511D01*
X121150175Y-109327693D01*
X121201305Y-109464082D01*
X121288659Y-109580638D01*
X121405215Y-109667992D01*
X121541604Y-109719122D01*
X121603786Y-109725877D01*
X123400054Y-109725877D01*
X123462236Y-109719122D01*
X123598625Y-109667992D01*
X123715181Y-109580638D01*
X123802535Y-109464082D01*
X123834716Y-109378240D01*
X123846518Y-109346759D01*
X123889160Y-109289995D01*
X123955722Y-109265295D01*
X124025070Y-109280503D01*
X124059737Y-109308491D01*
X124088170Y-109341315D01*
X124260046Y-109484009D01*
X124452920Y-109596715D01*
X124457745Y-109598557D01*
X124457746Y-109598558D01*
X124507164Y-109617429D01*
X124661612Y-109676407D01*
X124666680Y-109677438D01*
X124666683Y-109677439D01*
X124722810Y-109688858D01*
X124880517Y-109720944D01*
X124885692Y-109721134D01*
X124885694Y-109721134D01*
X125098593Y-109728941D01*
X125098597Y-109728941D01*
X125103757Y-109729130D01*
X125108877Y-109728474D01*
X125108879Y-109728474D01*
X125320208Y-109701402D01*
X125320209Y-109701402D01*
X125325336Y-109700745D01*
X125330286Y-109699260D01*
X125534349Y-109638038D01*
X125534354Y-109638036D01*
X125539304Y-109636551D01*
X125739914Y-109538273D01*
X125921780Y-109408550D01*
X125948835Y-109381590D01*
X126022188Y-109308492D01*
X126080016Y-109250866D01*
X126210373Y-109069454D01*
X126211696Y-109070405D01*
X126258565Y-109027234D01*
X126328500Y-109015002D01*
X126393946Y-109042521D01*
X126421795Y-109074371D01*
X126481907Y-109172465D01*
X126628170Y-109341315D01*
X126800046Y-109484009D01*
X126992920Y-109596715D01*
X126997745Y-109598557D01*
X126997746Y-109598558D01*
X127047164Y-109617429D01*
X127201612Y-109676407D01*
X127206680Y-109677438D01*
X127206683Y-109677439D01*
X127262810Y-109688858D01*
X127420517Y-109720944D01*
X127425692Y-109721134D01*
X127425694Y-109721134D01*
X127638593Y-109728941D01*
X127638597Y-109728941D01*
X127643757Y-109729130D01*
X127648877Y-109728474D01*
X127648879Y-109728474D01*
X127860208Y-109701402D01*
X127860209Y-109701402D01*
X127865336Y-109700745D01*
X127870286Y-109699260D01*
X128074349Y-109638038D01*
X128074354Y-109638036D01*
X128079304Y-109636551D01*
X128279914Y-109538273D01*
X128461780Y-109408550D01*
X128488835Y-109381590D01*
X128562188Y-109308492D01*
X128620016Y-109250866D01*
X128750373Y-109069454D01*
X128751696Y-109070405D01*
X128798565Y-109027234D01*
X128868500Y-109015002D01*
X128933946Y-109042521D01*
X128961795Y-109074371D01*
X129021907Y-109172465D01*
X129168170Y-109341315D01*
X129340046Y-109484009D01*
X129532920Y-109596715D01*
X129537745Y-109598557D01*
X129537746Y-109598558D01*
X129587164Y-109617429D01*
X129741612Y-109676407D01*
X129746680Y-109677438D01*
X129746683Y-109677439D01*
X129802810Y-109688858D01*
X129960517Y-109720944D01*
X129965692Y-109721134D01*
X129965694Y-109721134D01*
X130178593Y-109728941D01*
X130178597Y-109728941D01*
X130183757Y-109729130D01*
X130188877Y-109728474D01*
X130188879Y-109728474D01*
X130400208Y-109701402D01*
X130400209Y-109701402D01*
X130405336Y-109700745D01*
X130410286Y-109699260D01*
X130614349Y-109638038D01*
X130614354Y-109638036D01*
X130619304Y-109636551D01*
X130819914Y-109538273D01*
X131001780Y-109408550D01*
X131028835Y-109381590D01*
X131102188Y-109308492D01*
X131160016Y-109250866D01*
X131290373Y-109069454D01*
X131291696Y-109070405D01*
X131338565Y-109027234D01*
X131408500Y-109015002D01*
X131473946Y-109042521D01*
X131501795Y-109074371D01*
X131561907Y-109172465D01*
X131708170Y-109341315D01*
X131880046Y-109484009D01*
X132072920Y-109596715D01*
X132077745Y-109598557D01*
X132077746Y-109598558D01*
X132127164Y-109617429D01*
X132281612Y-109676407D01*
X132286680Y-109677438D01*
X132286683Y-109677439D01*
X132342810Y-109688858D01*
X132500517Y-109720944D01*
X132505692Y-109721134D01*
X132505694Y-109721134D01*
X132718593Y-109728941D01*
X132718597Y-109728941D01*
X132723757Y-109729130D01*
X132728877Y-109728474D01*
X132728879Y-109728474D01*
X132940208Y-109701402D01*
X132940209Y-109701402D01*
X132945336Y-109700745D01*
X132950286Y-109699260D01*
X133154349Y-109638038D01*
X133154354Y-109638036D01*
X133159304Y-109636551D01*
X133359914Y-109538273D01*
X133541780Y-109408550D01*
X133568835Y-109381590D01*
X133642188Y-109308492D01*
X133700016Y-109250866D01*
X133830373Y-109069454D01*
X133851240Y-109027234D01*
X133927056Y-108873830D01*
X133927057Y-108873828D01*
X133929350Y-108869188D01*
X133991752Y-108663799D01*
X133992785Y-108660400D01*
X133992785Y-108660398D01*
X133994290Y-108655446D01*
X134023449Y-108433967D01*
X134024056Y-108409137D01*
X134024994Y-108370742D01*
X134024994Y-108370738D01*
X134025076Y-108367377D01*
X134006772Y-108144738D01*
X133952351Y-107928079D01*
X133863274Y-107723217D01*
X133791114Y-107611674D01*
X133744742Y-107539994D01*
X133744740Y-107539991D01*
X133741934Y-107535654D01*
X133591590Y-107370428D01*
X133587539Y-107367229D01*
X133587535Y-107367225D01*
X133425253Y-107239062D01*
X138216650Y-107239062D01*
X138233694Y-107412883D01*
X138235918Y-107419568D01*
X138235918Y-107419569D01*
X138237115Y-107423168D01*
X138288824Y-107578610D01*
X138292471Y-107584632D01*
X138292472Y-107584634D01*
X138373768Y-107718869D01*
X138379300Y-107728004D01*
X138500625Y-107853640D01*
X138506517Y-107857495D01*
X138506521Y-107857499D01*
X138564534Y-107895461D01*
X138610583Y-107949498D01*
X138620106Y-108019853D01*
X138601452Y-108069148D01*
X138548276Y-108151661D01*
X138545867Y-108158281D01*
X138545865Y-108158284D01*
X138494981Y-108298087D01*
X138488540Y-108315784D01*
X138466650Y-108489062D01*
X138483694Y-108662883D01*
X138485918Y-108669568D01*
X138485918Y-108669569D01*
X138494321Y-108694830D01*
X138538824Y-108828610D01*
X138542471Y-108834632D01*
X138542472Y-108834634D01*
X138602910Y-108934428D01*
X138629300Y-108978004D01*
X138750625Y-109103640D01*
X138756521Y-109107498D01*
X138881291Y-109189145D01*
X138896771Y-109199275D01*
X138903375Y-109201731D01*
X138903377Y-109201732D01*
X138914730Y-109205954D01*
X139060472Y-109260155D01*
X139067457Y-109261087D01*
X139226612Y-109282323D01*
X139226616Y-109282323D01*
X139233593Y-109283254D01*
X139240604Y-109282616D01*
X139240608Y-109282616D01*
X139400512Y-109268064D01*
X139400515Y-109268063D01*
X139407530Y-109267425D01*
X139471410Y-109246669D01*
X139566941Y-109215629D01*
X139566943Y-109215628D01*
X139573637Y-109213453D01*
X139623407Y-109183784D01*
X139717607Y-109127630D01*
X139717609Y-109127629D01*
X139723659Y-109124022D01*
X139850139Y-109003577D01*
X139935099Y-108875702D01*
X139942891Y-108863974D01*
X139942892Y-108863972D01*
X139946792Y-108858102D01*
X140008813Y-108694830D01*
X140023427Y-108590851D01*
X140836719Y-108590851D01*
X140837235Y-108596995D01*
X140851939Y-108772104D01*
X140853268Y-108787934D01*
X140863213Y-108822617D01*
X140906043Y-108971981D01*
X140907783Y-108978050D01*
X140998187Y-109153956D01*
X141121035Y-109308953D01*
X141125728Y-109312947D01*
X141125729Y-109312948D01*
X141266229Y-109432522D01*
X141271650Y-109437136D01*
X141444294Y-109533624D01*
X141632392Y-109594740D01*
X141828777Y-109618158D01*
X141834912Y-109617686D01*
X141834914Y-109617686D01*
X142019830Y-109603457D01*
X142019834Y-109603456D01*
X142025972Y-109602984D01*
X142216463Y-109549798D01*
X142221967Y-109547018D01*
X142221969Y-109547017D01*
X142387495Y-109463404D01*
X142387497Y-109463403D01*
X142392996Y-109460625D01*
X142548847Y-109338861D01*
X142678078Y-109189145D01*
X142775769Y-109017179D01*
X142838197Y-108829513D01*
X142862985Y-108633295D01*
X142863380Y-108605000D01*
X142844080Y-108408167D01*
X142839124Y-108391750D01*
X142811733Y-108301029D01*
X142786916Y-108218831D01*
X142694066Y-108044204D01*
X142623709Y-107957938D01*
X142572960Y-107895713D01*
X142572957Y-107895710D01*
X142569065Y-107890938D01*
X142562724Y-107885692D01*
X142421425Y-107768799D01*
X142421421Y-107768797D01*
X142416675Y-107764870D01*
X142242701Y-107670802D01*
X142053768Y-107612318D01*
X142047643Y-107611674D01*
X142047642Y-107611674D01*
X141863204Y-107592289D01*
X141863202Y-107592289D01*
X141857075Y-107591645D01*
X141774576Y-107599153D01*
X141666251Y-107609011D01*
X141666248Y-107609012D01*
X141660112Y-107609570D01*
X141654206Y-107611308D01*
X141654202Y-107611309D01*
X141549076Y-107642249D01*
X141470381Y-107665410D01*
X141464923Y-107668263D01*
X141464919Y-107668265D01*
X141381267Y-107711998D01*
X141295110Y-107757040D01*
X141140975Y-107880968D01*
X141013846Y-108032474D01*
X141010879Y-108037872D01*
X141010875Y-108037877D01*
X140944682Y-108158284D01*
X140918567Y-108205787D01*
X140916706Y-108211654D01*
X140916705Y-108211656D01*
X140882406Y-108319779D01*
X140858765Y-108394306D01*
X140836719Y-108590851D01*
X140023427Y-108590851D01*
X140024288Y-108584726D01*
X140032570Y-108525797D01*
X140032570Y-108525794D01*
X140033121Y-108521875D01*
X140033338Y-108506309D01*
X140033371Y-108503963D01*
X140033371Y-108503959D01*
X140033426Y-108500000D01*
X140013957Y-108326433D01*
X140005111Y-108301029D01*
X139974592Y-108213392D01*
X139956519Y-108161493D01*
X139863966Y-108013377D01*
X139855501Y-108004852D01*
X139745860Y-107894443D01*
X139740898Y-107889446D01*
X139727539Y-107880968D01*
X139687025Y-107855257D01*
X139640226Y-107801868D01*
X139629721Y-107731653D01*
X139649591Y-107679145D01*
X139653188Y-107673732D01*
X139670774Y-107647262D01*
X139692891Y-107613974D01*
X139692892Y-107613972D01*
X139696792Y-107608102D01*
X139758813Y-107444830D01*
X139773029Y-107343680D01*
X139782570Y-107275797D01*
X139782570Y-107275794D01*
X139783121Y-107271875D01*
X139783426Y-107250000D01*
X139763957Y-107076433D01*
X139757091Y-107056715D01*
X139708837Y-106918150D01*
X139706519Y-106911493D01*
X139613966Y-106763377D01*
X139605501Y-106754852D01*
X139495860Y-106644443D01*
X139490898Y-106639446D01*
X139480193Y-106632652D01*
X139433590Y-106603077D01*
X139343431Y-106545861D01*
X139308428Y-106533397D01*
X139185531Y-106489635D01*
X139185526Y-106489634D01*
X139178896Y-106487273D01*
X139171908Y-106486440D01*
X139171905Y-106486439D01*
X139054334Y-106472420D01*
X139005469Y-106466593D01*
X138998467Y-106467329D01*
X138998465Y-106467329D01*
X138838771Y-106484114D01*
X138838769Y-106484114D01*
X138831771Y-106484850D01*
X138666433Y-106541135D01*
X138611225Y-106575099D01*
X138523677Y-106628959D01*
X138523674Y-106628961D01*
X138517675Y-106632652D01*
X138392888Y-106754852D01*
X138389069Y-106760777D01*
X138389068Y-106760779D01*
X138302095Y-106895735D01*
X138298276Y-106901661D01*
X138295867Y-106908281D01*
X138295865Y-106908284D01*
X138241841Y-107056715D01*
X138238540Y-107065784D01*
X138216650Y-107239062D01*
X133425253Y-107239062D01*
X133420334Y-107235177D01*
X133420330Y-107235175D01*
X133416279Y-107231975D01*
X133374489Y-107208906D01*
X133324518Y-107158474D01*
X133309746Y-107089031D01*
X133334862Y-107022625D01*
X133362214Y-106996018D01*
X133537248Y-106871169D01*
X133545120Y-106864516D01*
X133695972Y-106714189D01*
X133702650Y-106706342D01*
X133826923Y-106533397D01*
X133832233Y-106524560D01*
X133926590Y-106333644D01*
X133930389Y-106324049D01*
X133992297Y-106120287D01*
X133994475Y-106110214D01*
X133995906Y-106099339D01*
X133993695Y-106085155D01*
X133980537Y-106081377D01*
X132533920Y-106081377D01*
X132465799Y-106061375D01*
X132419306Y-106007719D01*
X132407920Y-105955377D01*
X132407920Y-105555262D01*
X132915920Y-105555262D01*
X132920395Y-105570501D01*
X132921785Y-105571706D01*
X132929468Y-105573377D01*
X133980264Y-105573377D01*
X133993795Y-105569404D01*
X133995100Y-105560324D01*
X133953134Y-105393252D01*
X133949814Y-105383501D01*
X133864892Y-105188191D01*
X133860025Y-105179116D01*
X133744346Y-105000303D01*
X133738056Y-104992134D01*
X133594726Y-104834617D01*
X133587193Y-104827592D01*
X133420059Y-104695599D01*
X133411472Y-104689894D01*
X133225037Y-104586976D01*
X133215625Y-104582746D01*
X133014879Y-104511657D01*
X133004908Y-104509023D01*
X132933757Y-104496349D01*
X132920460Y-104497809D01*
X132915920Y-104512366D01*
X132915920Y-105555262D01*
X132407920Y-105555262D01*
X132407920Y-104510479D01*
X132404002Y-104497135D01*
X132389726Y-104495148D01*
X132351244Y-104501037D01*
X132341208Y-104503428D01*
X132138788Y-104569589D01*
X132129279Y-104573586D01*
X131940383Y-104671919D01*
X131931658Y-104677413D01*
X131761353Y-104805282D01*
X131753646Y-104812125D01*
X131606510Y-104966094D01*
X131600029Y-104974099D01*
X131495418Y-105127451D01*
X131440507Y-105172453D01*
X131369982Y-105180624D01*
X131306235Y-105149370D01*
X131285538Y-105124886D01*
X131204742Y-104999994D01*
X131204740Y-104999991D01*
X131201934Y-104995654D01*
X131051590Y-104830428D01*
X131047539Y-104827229D01*
X131047535Y-104827225D01*
X130880334Y-104695177D01*
X130880330Y-104695175D01*
X130876279Y-104691975D01*
X130839948Y-104671919D01*
X130824056Y-104663146D01*
X130680709Y-104584015D01*
X130675840Y-104582291D01*
X130675836Y-104582289D01*
X130475007Y-104511172D01*
X130475003Y-104511171D01*
X130470132Y-104509446D01*
X130465039Y-104508539D01*
X130465036Y-104508538D01*
X130255293Y-104471177D01*
X130255287Y-104471176D01*
X130250204Y-104470271D01*
X130176372Y-104469369D01*
X130032001Y-104467605D01*
X130031999Y-104467605D01*
X130026831Y-104467542D01*
X129806011Y-104501332D01*
X129593676Y-104570734D01*
X129395527Y-104673884D01*
X129391394Y-104676987D01*
X129391391Y-104676989D01*
X129367167Y-104695177D01*
X129216885Y-104808012D01*
X129062549Y-104969515D01*
X128955121Y-105126998D01*
X128900213Y-105171998D01*
X128829688Y-105180169D01*
X128765941Y-105148915D01*
X128745244Y-105124431D01*
X128664742Y-104999994D01*
X128664740Y-104999991D01*
X128661934Y-104995654D01*
X128511590Y-104830428D01*
X128507539Y-104827229D01*
X128507535Y-104827225D01*
X128340334Y-104695177D01*
X128340330Y-104695175D01*
X128336279Y-104691975D01*
X128299948Y-104671919D01*
X128284056Y-104663146D01*
X128140709Y-104584015D01*
X128135840Y-104582291D01*
X128135836Y-104582289D01*
X127935007Y-104511172D01*
X127935003Y-104511171D01*
X127930132Y-104509446D01*
X127925039Y-104508539D01*
X127925036Y-104508538D01*
X127715293Y-104471177D01*
X127715287Y-104471176D01*
X127710204Y-104470271D01*
X127636372Y-104469369D01*
X127492001Y-104467605D01*
X127491999Y-104467605D01*
X127486831Y-104467542D01*
X127266011Y-104501332D01*
X127053676Y-104570734D01*
X126855527Y-104673884D01*
X126851394Y-104676987D01*
X126851391Y-104676989D01*
X126827167Y-104695177D01*
X126676885Y-104808012D01*
X126522549Y-104969515D01*
X126415121Y-105126998D01*
X126360213Y-105171998D01*
X126289688Y-105180169D01*
X126225941Y-105148915D01*
X126205244Y-105124431D01*
X126124742Y-104999994D01*
X126124740Y-104999991D01*
X126121934Y-104995654D01*
X125971590Y-104830428D01*
X125967539Y-104827229D01*
X125967535Y-104827225D01*
X125800334Y-104695177D01*
X125800330Y-104695175D01*
X125796279Y-104691975D01*
X125759948Y-104671919D01*
X125744056Y-104663146D01*
X125600709Y-104584015D01*
X125595840Y-104582291D01*
X125595836Y-104582289D01*
X125395007Y-104511172D01*
X125395003Y-104511171D01*
X125390132Y-104509446D01*
X125385039Y-104508539D01*
X125385036Y-104508538D01*
X125175293Y-104471177D01*
X125175287Y-104471176D01*
X125170204Y-104470271D01*
X125096372Y-104469369D01*
X124952001Y-104467605D01*
X124951999Y-104467605D01*
X124946831Y-104467542D01*
X124726011Y-104501332D01*
X124513676Y-104570734D01*
X124315527Y-104673884D01*
X124311394Y-104676987D01*
X124311391Y-104676989D01*
X124287167Y-104695177D01*
X124136885Y-104808012D01*
X123982549Y-104969515D01*
X123875121Y-105126998D01*
X123820213Y-105171998D01*
X123749688Y-105180169D01*
X123685941Y-105148915D01*
X123665244Y-105124431D01*
X123584742Y-104999994D01*
X123584740Y-104999991D01*
X123581934Y-104995654D01*
X123431590Y-104830428D01*
X123427539Y-104827229D01*
X123427535Y-104827225D01*
X123260334Y-104695177D01*
X123260330Y-104695175D01*
X123256279Y-104691975D01*
X123219948Y-104671919D01*
X123204056Y-104663146D01*
X123060709Y-104584015D01*
X123055840Y-104582291D01*
X123055836Y-104582289D01*
X122855007Y-104511172D01*
X122855003Y-104511171D01*
X122850132Y-104509446D01*
X122845039Y-104508539D01*
X122845036Y-104508538D01*
X122635293Y-104471177D01*
X122635287Y-104471176D01*
X122630204Y-104470271D01*
X122556372Y-104469369D01*
X122412001Y-104467605D01*
X122411999Y-104467605D01*
X122406831Y-104467542D01*
X122186011Y-104501332D01*
X121973676Y-104570734D01*
X121775527Y-104673884D01*
X121771394Y-104676987D01*
X121771391Y-104676989D01*
X121747167Y-104695177D01*
X121596885Y-104808012D01*
X121442549Y-104969515D01*
X121316663Y-105154057D01*
X121222608Y-105356682D01*
X121162909Y-105571947D01*
X121139171Y-105794072D01*
X120700000Y-105794072D01*
X120700000Y-103498134D01*
X179966500Y-103498134D01*
X179973255Y-103560316D01*
X180024385Y-103696705D01*
X180111739Y-103813261D01*
X180228295Y-103900615D01*
X180364684Y-103951745D01*
X180426866Y-103958500D01*
X182223134Y-103958500D01*
X182285316Y-103951745D01*
X182421705Y-103900615D01*
X182538261Y-103813261D01*
X182625615Y-103696705D01*
X182647799Y-103637529D01*
X182669598Y-103579382D01*
X182712240Y-103522618D01*
X182778802Y-103497918D01*
X182848150Y-103513126D01*
X182882817Y-103541114D01*
X182911250Y-103573938D01*
X183083126Y-103716632D01*
X183276000Y-103829338D01*
X183484692Y-103909030D01*
X183489760Y-103910061D01*
X183489763Y-103910062D01*
X183584862Y-103929410D01*
X183703597Y-103953567D01*
X183708772Y-103953757D01*
X183708774Y-103953757D01*
X183921673Y-103961564D01*
X183921677Y-103961564D01*
X183926837Y-103961753D01*
X183931957Y-103961097D01*
X183931959Y-103961097D01*
X184143288Y-103934025D01*
X184143289Y-103934025D01*
X184148416Y-103933368D01*
X184153366Y-103931883D01*
X184357429Y-103870661D01*
X184357434Y-103870659D01*
X184362384Y-103869174D01*
X184562994Y-103770896D01*
X184744860Y-103641173D01*
X184903096Y-103483489D01*
X185033453Y-103302077D01*
X185034640Y-103302930D01*
X185081960Y-103259362D01*
X185151897Y-103247145D01*
X185217338Y-103274678D01*
X185245166Y-103306511D01*
X185302694Y-103400388D01*
X185308777Y-103408699D01*
X185448213Y-103569667D01*
X185455580Y-103576883D01*
X185619434Y-103712916D01*
X185627881Y-103718831D01*
X185811756Y-103826279D01*
X185821042Y-103830729D01*
X186020001Y-103906703D01*
X186029899Y-103909579D01*
X186133250Y-103930606D01*
X186147299Y-103929410D01*
X186151000Y-103919065D01*
X186151000Y-103918517D01*
X186659000Y-103918517D01*
X186663064Y-103932359D01*
X186676478Y-103934393D01*
X186683184Y-103933534D01*
X186693262Y-103931392D01*
X186897255Y-103870191D01*
X186906842Y-103866433D01*
X187098095Y-103772739D01*
X187106945Y-103767464D01*
X187280328Y-103643792D01*
X187288200Y-103637139D01*
X187439052Y-103486812D01*
X187445730Y-103478965D01*
X187570003Y-103306020D01*
X187575313Y-103297183D01*
X187669670Y-103106267D01*
X187673469Y-103096672D01*
X187735377Y-102892910D01*
X187737555Y-102882837D01*
X187738986Y-102871962D01*
X187736775Y-102857778D01*
X187723617Y-102854000D01*
X186677115Y-102854000D01*
X186661876Y-102858475D01*
X186660671Y-102859865D01*
X186659000Y-102867548D01*
X186659000Y-103918517D01*
X186151000Y-103918517D01*
X186151000Y-102327885D01*
X186659000Y-102327885D01*
X186663475Y-102343124D01*
X186664865Y-102344329D01*
X186672548Y-102346000D01*
X187723344Y-102346000D01*
X187736875Y-102342027D01*
X187738180Y-102332947D01*
X187696214Y-102165875D01*
X187692894Y-102156124D01*
X187607972Y-101960814D01*
X187603105Y-101951739D01*
X187487426Y-101772926D01*
X187481136Y-101764757D01*
X187337806Y-101607240D01*
X187330273Y-101600215D01*
X187163139Y-101468222D01*
X187154552Y-101462517D01*
X186968117Y-101359599D01*
X186958705Y-101355369D01*
X186757959Y-101284280D01*
X186747988Y-101281646D01*
X186676837Y-101268972D01*
X186663540Y-101270432D01*
X186659000Y-101284989D01*
X186659000Y-102327885D01*
X186151000Y-102327885D01*
X186151000Y-101283102D01*
X186147082Y-101269758D01*
X186132806Y-101267771D01*
X186094324Y-101273660D01*
X186084288Y-101276051D01*
X185881868Y-101342212D01*
X185872359Y-101346209D01*
X185683463Y-101444542D01*
X185674738Y-101450036D01*
X185504433Y-101577905D01*
X185496726Y-101584748D01*
X185349590Y-101738717D01*
X185343109Y-101746722D01*
X185238498Y-101900074D01*
X185183587Y-101945076D01*
X185113062Y-101953247D01*
X185049315Y-101921993D01*
X185028618Y-101897509D01*
X184947822Y-101772617D01*
X184947820Y-101772614D01*
X184945014Y-101768277D01*
X184794670Y-101603051D01*
X184790619Y-101599852D01*
X184790615Y-101599848D01*
X184623414Y-101467800D01*
X184623410Y-101467798D01*
X184619359Y-101464598D01*
X184583028Y-101444542D01*
X184523061Y-101411439D01*
X184423789Y-101356638D01*
X184418920Y-101354914D01*
X184418916Y-101354912D01*
X184218087Y-101283795D01*
X184218083Y-101283794D01*
X184213212Y-101282069D01*
X184208119Y-101281162D01*
X184208116Y-101281161D01*
X183998373Y-101243800D01*
X183998367Y-101243799D01*
X183993284Y-101242894D01*
X183919452Y-101241992D01*
X183775081Y-101240228D01*
X183775079Y-101240228D01*
X183769911Y-101240165D01*
X183549091Y-101273955D01*
X183336756Y-101343357D01*
X183300488Y-101362237D01*
X183143819Y-101443794D01*
X183138607Y-101446507D01*
X183134474Y-101449610D01*
X183134471Y-101449612D01*
X182974871Y-101569443D01*
X182959965Y-101580635D01*
X182903537Y-101639684D01*
X182879283Y-101665064D01*
X182817759Y-101700494D01*
X182746846Y-101697037D01*
X182689060Y-101655791D01*
X182670207Y-101622243D01*
X182628767Y-101511703D01*
X182625615Y-101503295D01*
X182538261Y-101386739D01*
X182421705Y-101299385D01*
X182285316Y-101248255D01*
X182223134Y-101241500D01*
X180426866Y-101241500D01*
X180364684Y-101248255D01*
X180228295Y-101299385D01*
X180111739Y-101386739D01*
X180024385Y-101503295D01*
X179973255Y-101639684D01*
X179966500Y-101701866D01*
X179966500Y-103498134D01*
X120700000Y-103498134D01*
X120700000Y-102164062D01*
X161916650Y-102164062D01*
X161933694Y-102337883D01*
X161935918Y-102344568D01*
X161935918Y-102344569D01*
X161961070Y-102420178D01*
X161988824Y-102503610D01*
X161992471Y-102509632D01*
X161992472Y-102509634D01*
X162047200Y-102600000D01*
X162079300Y-102653004D01*
X162200625Y-102778640D01*
X162346771Y-102874275D01*
X162353375Y-102876731D01*
X162353377Y-102876732D01*
X162384894Y-102888453D01*
X162510472Y-102935155D01*
X162517457Y-102936087D01*
X162676612Y-102957323D01*
X162676616Y-102957323D01*
X162683593Y-102958254D01*
X162690604Y-102957616D01*
X162690608Y-102957616D01*
X162850512Y-102943064D01*
X162850515Y-102943063D01*
X162857530Y-102942425D01*
X162887466Y-102932698D01*
X163016941Y-102890629D01*
X163016943Y-102890628D01*
X163023637Y-102888453D01*
X163075095Y-102857778D01*
X163167607Y-102802630D01*
X163167609Y-102802629D01*
X163173659Y-102799022D01*
X163300139Y-102678577D01*
X163396792Y-102533102D01*
X163458813Y-102369830D01*
X163483121Y-102196875D01*
X163483426Y-102175000D01*
X163463957Y-102001433D01*
X163444332Y-101945076D01*
X163408837Y-101843150D01*
X163406519Y-101836493D01*
X163313966Y-101688377D01*
X163305501Y-101679852D01*
X163226053Y-101599848D01*
X163190898Y-101564446D01*
X163180193Y-101557652D01*
X163094539Y-101503295D01*
X163043431Y-101470861D01*
X163015625Y-101460960D01*
X162885531Y-101414635D01*
X162885526Y-101414634D01*
X162878896Y-101412273D01*
X162871908Y-101411440D01*
X162871905Y-101411439D01*
X162724975Y-101393919D01*
X162705469Y-101391593D01*
X162698467Y-101392329D01*
X162698465Y-101392329D01*
X162538771Y-101409114D01*
X162538769Y-101409114D01*
X162531771Y-101409850D01*
X162366433Y-101466135D01*
X162340437Y-101482128D01*
X162223677Y-101553959D01*
X162223674Y-101553961D01*
X162217675Y-101557652D01*
X162092888Y-101679852D01*
X161998276Y-101826661D01*
X161995867Y-101833281D01*
X161995865Y-101833284D01*
X161949448Y-101960814D01*
X161938540Y-101990784D01*
X161916650Y-102164062D01*
X120700000Y-102164062D01*
X120700000Y-97489062D01*
X125466650Y-97489062D01*
X125483694Y-97662883D01*
X125538824Y-97828610D01*
X125542471Y-97834632D01*
X125542472Y-97834634D01*
X125589293Y-97911944D01*
X125629300Y-97978004D01*
X125750625Y-98103640D01*
X125896771Y-98199275D01*
X125903708Y-98201855D01*
X125903895Y-98201994D01*
X125909661Y-98204907D01*
X125909149Y-98205920D01*
X125960586Y-98244343D01*
X125985464Y-98310838D01*
X125984800Y-98335746D01*
X125966650Y-98479419D01*
X125983694Y-98653240D01*
X126038824Y-98818967D01*
X126042471Y-98824989D01*
X126042472Y-98824991D01*
X126098280Y-98917140D01*
X126129300Y-98968361D01*
X126250625Y-99093997D01*
X126396771Y-99189632D01*
X126403375Y-99192088D01*
X126403377Y-99192089D01*
X126425198Y-99200204D01*
X126560472Y-99250512D01*
X126567457Y-99251444D01*
X126726612Y-99272680D01*
X126726616Y-99272680D01*
X126733593Y-99273611D01*
X126740604Y-99272973D01*
X126740608Y-99272973D01*
X126900512Y-99258421D01*
X126900515Y-99258420D01*
X126907530Y-99257782D01*
X126937466Y-99248055D01*
X127066941Y-99205986D01*
X127066943Y-99205985D01*
X127073637Y-99203810D01*
X127223659Y-99114379D01*
X127350139Y-98993934D01*
X127418106Y-98891635D01*
X127442891Y-98854331D01*
X127442892Y-98854329D01*
X127446792Y-98848459D01*
X127508813Y-98685187D01*
X127529492Y-98538056D01*
X127532570Y-98516154D01*
X127532570Y-98516151D01*
X127533121Y-98512232D01*
X127533426Y-98490357D01*
X127513957Y-98316790D01*
X127456519Y-98151850D01*
X127363966Y-98003734D01*
X127240898Y-97879803D01*
X127160231Y-97828610D01*
X127099381Y-97789994D01*
X127093431Y-97786218D01*
X127086795Y-97783855D01*
X127084384Y-97782679D01*
X127031927Y-97734838D01*
X127013662Y-97666231D01*
X127014847Y-97651895D01*
X127027993Y-97558365D01*
X127033121Y-97521875D01*
X127033426Y-97500000D01*
X127019405Y-97375000D01*
X139286496Y-97375000D01*
X139306458Y-97564928D01*
X139365473Y-97746556D01*
X139460960Y-97911944D01*
X139465378Y-97916851D01*
X139465379Y-97916852D01*
X139525000Y-97983068D01*
X139588747Y-98053866D01*
X139743248Y-98166118D01*
X139749274Y-98168801D01*
X139749281Y-98168805D01*
X139836519Y-98207645D01*
X139890615Y-98253625D01*
X139911265Y-98321552D01*
X139891913Y-98389860D01*
X139878907Y-98407062D01*
X139765379Y-98533148D01*
X139760960Y-98538056D01*
X139665473Y-98703444D01*
X139606458Y-98885072D01*
X139605768Y-98891633D01*
X139605768Y-98891635D01*
X139598337Y-98962338D01*
X139586496Y-99075000D01*
X139587186Y-99081565D01*
X139604685Y-99248055D01*
X139606458Y-99264928D01*
X139665473Y-99446556D01*
X139760960Y-99611944D01*
X139888747Y-99753866D01*
X140043248Y-99866118D01*
X140049276Y-99868802D01*
X140049278Y-99868803D01*
X140211681Y-99941109D01*
X140217712Y-99943794D01*
X140311112Y-99963647D01*
X140398056Y-99982128D01*
X140398061Y-99982128D01*
X140404513Y-99983500D01*
X140595487Y-99983500D01*
X140601939Y-99982128D01*
X140601944Y-99982128D01*
X140688888Y-99963647D01*
X140782288Y-99943794D01*
X140788319Y-99941109D01*
X140950722Y-99868803D01*
X140950724Y-99868802D01*
X140956752Y-99866118D01*
X141111253Y-99753866D01*
X141155813Y-99704377D01*
X145986496Y-99704377D01*
X145987186Y-99710942D01*
X146003778Y-99868803D01*
X146006458Y-99894305D01*
X146065473Y-100075933D01*
X146160960Y-100241321D01*
X146288747Y-100383243D01*
X146443248Y-100495495D01*
X146449276Y-100498179D01*
X146449278Y-100498180D01*
X146611681Y-100570486D01*
X146617712Y-100573171D01*
X146711113Y-100593024D01*
X146798056Y-100611505D01*
X146798061Y-100611505D01*
X146804513Y-100612877D01*
X146995487Y-100612877D01*
X147001939Y-100611505D01*
X147001944Y-100611505D01*
X147088887Y-100593024D01*
X147173683Y-100575000D01*
X147986496Y-100575000D01*
X148006458Y-100764928D01*
X148065473Y-100946556D01*
X148160960Y-101111944D01*
X148165378Y-101116851D01*
X148165379Y-101116852D01*
X148282927Y-101247402D01*
X148288747Y-101253866D01*
X148387843Y-101325864D01*
X148433640Y-101359137D01*
X148443248Y-101366118D01*
X148449276Y-101368802D01*
X148449278Y-101368803D01*
X148500466Y-101391593D01*
X148617712Y-101443794D01*
X148703839Y-101462101D01*
X148798056Y-101482128D01*
X148798061Y-101482128D01*
X148804513Y-101483500D01*
X148995487Y-101483500D01*
X149001939Y-101482128D01*
X149001944Y-101482128D01*
X149096161Y-101462101D01*
X149182288Y-101443794D01*
X149299534Y-101391593D01*
X149350722Y-101368803D01*
X149350724Y-101368802D01*
X149356752Y-101366118D01*
X149366361Y-101359137D01*
X149412157Y-101325864D01*
X149511253Y-101253866D01*
X149517073Y-101247402D01*
X149634621Y-101116852D01*
X149634622Y-101116851D01*
X149639040Y-101111944D01*
X149734527Y-100946556D01*
X149793542Y-100764928D01*
X149813504Y-100575000D01*
X149793542Y-100385072D01*
X149734527Y-100203444D01*
X149639040Y-100038056D01*
X149511253Y-99896134D01*
X149356752Y-99783882D01*
X149350724Y-99781198D01*
X149350722Y-99781197D01*
X149188319Y-99708891D01*
X149188318Y-99708891D01*
X149182288Y-99706206D01*
X149088888Y-99686353D01*
X149001944Y-99667872D01*
X149001939Y-99667872D01*
X148995487Y-99666500D01*
X148804513Y-99666500D01*
X148798061Y-99667872D01*
X148798056Y-99667872D01*
X148711112Y-99686353D01*
X148617712Y-99706206D01*
X148611682Y-99708891D01*
X148611681Y-99708891D01*
X148449278Y-99781197D01*
X148449276Y-99781198D01*
X148443248Y-99783882D01*
X148288747Y-99896134D01*
X148160960Y-100038056D01*
X148065473Y-100203444D01*
X148006458Y-100385072D01*
X147986496Y-100575000D01*
X147173683Y-100575000D01*
X147182288Y-100573171D01*
X147188319Y-100570486D01*
X147350722Y-100498180D01*
X147350724Y-100498179D01*
X147356752Y-100495495D01*
X147511253Y-100383243D01*
X147639040Y-100241321D01*
X147734527Y-100075933D01*
X147793542Y-99894305D01*
X147796223Y-99868803D01*
X147812814Y-99710942D01*
X147813504Y-99704377D01*
X147793542Y-99514449D01*
X147734527Y-99332821D01*
X147639040Y-99167433D01*
X147511253Y-99025511D01*
X147356752Y-98913259D01*
X147350724Y-98910575D01*
X147350722Y-98910574D01*
X147188319Y-98838268D01*
X147188318Y-98838268D01*
X147182288Y-98835583D01*
X147088888Y-98815730D01*
X147001944Y-98797249D01*
X147001939Y-98797249D01*
X146995487Y-98795877D01*
X146804513Y-98795877D01*
X146798061Y-98797249D01*
X146798056Y-98797249D01*
X146711112Y-98815730D01*
X146617712Y-98835583D01*
X146611682Y-98838268D01*
X146611681Y-98838268D01*
X146449278Y-98910574D01*
X146449276Y-98910575D01*
X146443248Y-98913259D01*
X146288747Y-99025511D01*
X146160960Y-99167433D01*
X146065473Y-99332821D01*
X146006458Y-99514449D01*
X145986496Y-99704377D01*
X141155813Y-99704377D01*
X141239040Y-99611944D01*
X141334527Y-99446556D01*
X141393542Y-99264928D01*
X141395316Y-99248055D01*
X141412814Y-99081565D01*
X141413504Y-99075000D01*
X141401663Y-98962338D01*
X141394232Y-98891635D01*
X141394232Y-98891633D01*
X141393542Y-98885072D01*
X141334527Y-98703444D01*
X141239040Y-98538056D01*
X141219320Y-98516154D01*
X141115675Y-98401045D01*
X141115674Y-98401044D01*
X141111253Y-98396134D01*
X140956752Y-98283882D01*
X140950726Y-98281199D01*
X140950719Y-98281195D01*
X140863481Y-98242355D01*
X140809385Y-98196375D01*
X140788735Y-98128448D01*
X140808087Y-98060140D01*
X140821093Y-98042938D01*
X140934621Y-97916852D01*
X140934622Y-97916851D01*
X140939040Y-97911944D01*
X141034527Y-97746556D01*
X141093542Y-97564928D01*
X141113504Y-97375000D01*
X141109135Y-97333432D01*
X141094232Y-97191635D01*
X141094232Y-97191633D01*
X141093542Y-97185072D01*
X141034527Y-97003444D01*
X140939040Y-96838056D01*
X140901048Y-96795861D01*
X140815675Y-96701045D01*
X140815674Y-96701044D01*
X140811253Y-96696134D01*
X140689257Y-96607498D01*
X140662094Y-96587763D01*
X140662093Y-96587762D01*
X140656752Y-96583882D01*
X140650724Y-96581198D01*
X140650722Y-96581197D01*
X140488319Y-96508891D01*
X140488318Y-96508891D01*
X140482288Y-96506206D01*
X140373433Y-96483068D01*
X140301944Y-96467872D01*
X140301939Y-96467872D01*
X140295487Y-96466500D01*
X140104513Y-96466500D01*
X140098061Y-96467872D01*
X140098056Y-96467872D01*
X140026567Y-96483068D01*
X139917712Y-96506206D01*
X139911682Y-96508891D01*
X139911681Y-96508891D01*
X139749278Y-96581197D01*
X139749276Y-96581198D01*
X139743248Y-96583882D01*
X139737907Y-96587762D01*
X139737906Y-96587763D01*
X139710743Y-96607498D01*
X139588747Y-96696134D01*
X139584326Y-96701044D01*
X139584325Y-96701045D01*
X139498953Y-96795861D01*
X139460960Y-96838056D01*
X139365473Y-97003444D01*
X139306458Y-97185072D01*
X139305768Y-97191633D01*
X139305768Y-97191635D01*
X139290865Y-97333432D01*
X139286496Y-97375000D01*
X127019405Y-97375000D01*
X127013957Y-97326433D01*
X126956519Y-97161493D01*
X126863966Y-97013377D01*
X126855501Y-97004852D01*
X126745860Y-96894443D01*
X126740898Y-96889446D01*
X126730193Y-96882652D01*
X126652186Y-96833148D01*
X126593431Y-96795861D01*
X126515368Y-96768064D01*
X126435531Y-96739635D01*
X126435526Y-96739634D01*
X126428896Y-96737273D01*
X126421908Y-96736440D01*
X126421905Y-96736439D01*
X126304334Y-96722420D01*
X126255469Y-96716593D01*
X126248467Y-96717329D01*
X126248465Y-96717329D01*
X126088771Y-96734114D01*
X126088769Y-96734114D01*
X126081771Y-96734850D01*
X125916433Y-96791135D01*
X125861225Y-96825099D01*
X125773677Y-96878959D01*
X125773674Y-96878961D01*
X125767675Y-96882652D01*
X125642888Y-97004852D01*
X125548276Y-97151661D01*
X125545867Y-97158281D01*
X125545865Y-97158284D01*
X125490949Y-97309165D01*
X125488540Y-97315784D01*
X125466650Y-97489062D01*
X120700000Y-97489062D01*
X120700000Y-95309062D01*
X139186650Y-95309062D01*
X139203694Y-95482883D01*
X139258824Y-95648610D01*
X139349300Y-95798004D01*
X139470625Y-95923640D01*
X139476521Y-95927498D01*
X139593372Y-96003963D01*
X139616771Y-96019275D01*
X139623375Y-96021731D01*
X139623377Y-96021732D01*
X139623762Y-96021875D01*
X139780472Y-96080155D01*
X139787457Y-96081087D01*
X139946612Y-96102323D01*
X139946616Y-96102323D01*
X139953593Y-96103254D01*
X139960604Y-96102616D01*
X139960608Y-96102616D01*
X140120512Y-96088064D01*
X140120515Y-96088063D01*
X140127530Y-96087425D01*
X140157466Y-96077698D01*
X140286941Y-96035629D01*
X140286943Y-96035628D01*
X140293637Y-96033453D01*
X140368104Y-95989062D01*
X185466650Y-95989062D01*
X185483694Y-96162883D01*
X185538824Y-96328610D01*
X185629300Y-96478004D01*
X185750625Y-96603640D01*
X185896771Y-96699275D01*
X185903375Y-96701731D01*
X185903377Y-96701732D01*
X185945580Y-96717427D01*
X186060472Y-96760155D01*
X186067457Y-96761087D01*
X186226612Y-96782323D01*
X186226616Y-96782323D01*
X186233593Y-96783254D01*
X186240604Y-96782616D01*
X186240608Y-96782616D01*
X186400512Y-96768064D01*
X186400515Y-96768063D01*
X186407530Y-96767425D01*
X186493058Y-96739635D01*
X186566941Y-96715629D01*
X186566943Y-96715628D01*
X186573637Y-96713453D01*
X186723659Y-96624022D01*
X186787584Y-96563147D01*
X186850709Y-96530655D01*
X186921380Y-96537448D01*
X186965113Y-96566866D01*
X187000625Y-96603640D01*
X187146771Y-96699275D01*
X187153375Y-96701731D01*
X187153377Y-96701732D01*
X187195580Y-96717427D01*
X187310472Y-96760155D01*
X187317457Y-96761087D01*
X187476612Y-96782323D01*
X187476616Y-96782323D01*
X187483593Y-96783254D01*
X187490604Y-96782616D01*
X187490608Y-96782616D01*
X187650512Y-96768064D01*
X187650515Y-96768063D01*
X187657530Y-96767425D01*
X187743058Y-96739635D01*
X187816941Y-96715629D01*
X187816943Y-96715628D01*
X187823637Y-96713453D01*
X187973659Y-96624022D01*
X188037584Y-96563147D01*
X188100709Y-96530655D01*
X188171380Y-96537448D01*
X188215113Y-96566866D01*
X188250625Y-96603640D01*
X188396771Y-96699275D01*
X188403375Y-96701731D01*
X188403377Y-96701732D01*
X188445580Y-96717427D01*
X188560472Y-96760155D01*
X188567457Y-96761087D01*
X188726612Y-96782323D01*
X188726616Y-96782323D01*
X188733593Y-96783254D01*
X188740604Y-96782616D01*
X188740608Y-96782616D01*
X188900512Y-96768064D01*
X188900515Y-96768063D01*
X188907530Y-96767425D01*
X188993058Y-96739635D01*
X189066941Y-96715629D01*
X189066943Y-96715628D01*
X189073637Y-96713453D01*
X189223659Y-96624022D01*
X189350139Y-96503577D01*
X189446792Y-96358102D01*
X189508813Y-96194830D01*
X189533121Y-96021875D01*
X189533426Y-96000000D01*
X189513957Y-95826433D01*
X189505821Y-95803068D01*
X189458837Y-95668150D01*
X189456519Y-95661493D01*
X189363966Y-95513377D01*
X189358483Y-95507855D01*
X189315310Y-95464380D01*
X189281503Y-95401949D01*
X189286815Y-95331152D01*
X189317824Y-95284350D01*
X189350139Y-95253577D01*
X189446792Y-95108102D01*
X189508813Y-94944830D01*
X189533121Y-94771875D01*
X189533426Y-94750000D01*
X189513957Y-94576433D01*
X189456519Y-94411493D01*
X189363966Y-94263377D01*
X189355501Y-94254852D01*
X189315310Y-94214380D01*
X189281503Y-94151949D01*
X189286815Y-94081152D01*
X189317824Y-94034350D01*
X189350139Y-94003577D01*
X189446792Y-93858102D01*
X189508813Y-93694830D01*
X189533121Y-93521875D01*
X189533426Y-93500000D01*
X189513957Y-93326433D01*
X189510531Y-93316593D01*
X189458837Y-93168150D01*
X189456519Y-93161493D01*
X189363966Y-93013377D01*
X189356340Y-93005697D01*
X189245860Y-92894443D01*
X189240898Y-92889446D01*
X189230193Y-92882652D01*
X189189812Y-92857026D01*
X189143013Y-92803637D01*
X189132508Y-92733422D01*
X189161632Y-92668674D01*
X189192809Y-92642412D01*
X189217607Y-92627630D01*
X189217609Y-92627629D01*
X189223659Y-92624022D01*
X189350139Y-92503577D01*
X189446792Y-92358102D01*
X189508813Y-92194830D01*
X189523029Y-92093680D01*
X189532570Y-92025797D01*
X189532570Y-92025794D01*
X189533121Y-92021875D01*
X189533426Y-92000000D01*
X189513957Y-91826433D01*
X189456519Y-91661493D01*
X189363966Y-91513377D01*
X189355501Y-91504852D01*
X189315310Y-91464380D01*
X189281503Y-91401949D01*
X189286815Y-91331152D01*
X189317824Y-91284350D01*
X189350139Y-91253577D01*
X189446792Y-91108102D01*
X189508813Y-90944830D01*
X189533121Y-90771875D01*
X189533426Y-90750000D01*
X189513957Y-90576433D01*
X189456519Y-90411493D01*
X189363966Y-90263377D01*
X189355501Y-90254852D01*
X189245860Y-90144443D01*
X189240898Y-90139446D01*
X189230193Y-90132652D01*
X189183590Y-90103077D01*
X189093431Y-90045861D01*
X189046737Y-90029234D01*
X188935531Y-89989635D01*
X188935526Y-89989634D01*
X188928896Y-89987273D01*
X188921908Y-89986440D01*
X188921905Y-89986439D01*
X188804334Y-89972420D01*
X188755469Y-89966593D01*
X188748467Y-89967329D01*
X188748465Y-89967329D01*
X188588771Y-89984114D01*
X188588769Y-89984114D01*
X188581771Y-89984850D01*
X188416433Y-90041135D01*
X188361225Y-90075099D01*
X188273677Y-90128959D01*
X188273674Y-90128961D01*
X188267675Y-90132652D01*
X188142888Y-90254852D01*
X188139069Y-90260777D01*
X188139068Y-90260779D01*
X188087320Y-90341076D01*
X188048276Y-90401661D01*
X188045867Y-90408281D01*
X188045865Y-90408284D01*
X188005166Y-90520104D01*
X187988540Y-90565784D01*
X187966650Y-90739062D01*
X187983694Y-90912883D01*
X188038824Y-91078610D01*
X188042471Y-91084632D01*
X188042472Y-91084634D01*
X188123719Y-91218788D01*
X188129300Y-91228004D01*
X188134190Y-91233068D01*
X188134191Y-91233069D01*
X188186393Y-91287126D01*
X188219325Y-91350023D01*
X188213025Y-91420740D01*
X188183914Y-91464676D01*
X188147925Y-91499919D01*
X188142888Y-91504852D01*
X188048276Y-91651661D01*
X187988540Y-91815784D01*
X187966650Y-91989062D01*
X187983694Y-92162883D01*
X188038824Y-92328610D01*
X188129300Y-92478004D01*
X188250625Y-92603640D01*
X188312521Y-92644144D01*
X188358567Y-92698179D01*
X188368091Y-92768534D01*
X188338067Y-92832869D01*
X188309550Y-92856890D01*
X188267675Y-92882652D01*
X188243171Y-92906648D01*
X188213330Y-92935870D01*
X188150665Y-92969240D01*
X188079906Y-92963434D01*
X188035766Y-92934629D01*
X188009343Y-92908020D01*
X187990898Y-92889446D01*
X187980193Y-92882652D01*
X187933590Y-92853077D01*
X187843431Y-92795861D01*
X187766688Y-92768534D01*
X187685531Y-92739635D01*
X187685526Y-92739634D01*
X187678896Y-92737273D01*
X187671908Y-92736440D01*
X187671905Y-92736439D01*
X187554334Y-92722420D01*
X187505469Y-92716593D01*
X187498467Y-92717329D01*
X187498465Y-92717329D01*
X187338771Y-92734114D01*
X187338769Y-92734114D01*
X187331771Y-92734850D01*
X187166433Y-92791135D01*
X187111225Y-92825099D01*
X187023677Y-92878959D01*
X187023674Y-92878961D01*
X187017675Y-92882652D01*
X186993171Y-92906648D01*
X186963330Y-92935870D01*
X186900665Y-92969240D01*
X186829906Y-92963434D01*
X186785766Y-92934629D01*
X186759343Y-92908020D01*
X186740898Y-92889446D01*
X186730193Y-92882652D01*
X186683590Y-92853077D01*
X186593431Y-92795861D01*
X186516688Y-92768534D01*
X186435531Y-92739635D01*
X186435526Y-92739634D01*
X186428896Y-92737273D01*
X186421908Y-92736440D01*
X186421905Y-92736439D01*
X186304334Y-92722420D01*
X186255469Y-92716593D01*
X186248467Y-92717329D01*
X186248465Y-92717329D01*
X186088771Y-92734114D01*
X186088769Y-92734114D01*
X186081771Y-92734850D01*
X185916433Y-92791135D01*
X185861225Y-92825099D01*
X185773677Y-92878959D01*
X185773674Y-92878961D01*
X185767675Y-92882652D01*
X185642888Y-93004852D01*
X185639069Y-93010777D01*
X185639068Y-93010779D01*
X185620177Y-93040092D01*
X185548276Y-93151661D01*
X185545867Y-93158281D01*
X185545865Y-93158284D01*
X185493661Y-93301715D01*
X185488540Y-93315784D01*
X185466650Y-93489062D01*
X185483694Y-93662883D01*
X185538824Y-93828610D01*
X185542471Y-93834632D01*
X185542472Y-93834634D01*
X185598068Y-93926433D01*
X185629300Y-93978004D01*
X185634190Y-93983068D01*
X185634191Y-93983069D01*
X185686393Y-94037126D01*
X185719325Y-94100023D01*
X185713025Y-94170740D01*
X185683914Y-94214676D01*
X185647925Y-94249919D01*
X185642888Y-94254852D01*
X185639069Y-94260777D01*
X185639068Y-94260779D01*
X185598767Y-94323314D01*
X185548276Y-94401661D01*
X185545867Y-94408281D01*
X185545865Y-94408284D01*
X185527733Y-94458102D01*
X185488540Y-94565784D01*
X185466650Y-94739062D01*
X185483694Y-94912883D01*
X185485918Y-94919568D01*
X185485918Y-94919569D01*
X185503247Y-94971661D01*
X185538824Y-95078610D01*
X185542471Y-95084632D01*
X185542472Y-95084634D01*
X185611363Y-95198386D01*
X185629300Y-95228004D01*
X185634190Y-95233068D01*
X185634191Y-95233069D01*
X185686393Y-95287126D01*
X185719325Y-95350023D01*
X185713025Y-95420740D01*
X185683914Y-95464676D01*
X185647925Y-95499919D01*
X185642888Y-95504852D01*
X185639069Y-95510777D01*
X185639068Y-95510779D01*
X185633544Y-95519351D01*
X185548276Y-95651661D01*
X185545867Y-95658281D01*
X185545865Y-95658284D01*
X185495011Y-95798004D01*
X185488540Y-95815784D01*
X185466650Y-95989062D01*
X140368104Y-95989062D01*
X140443659Y-95944022D01*
X140570139Y-95823577D01*
X140666792Y-95678102D01*
X140728813Y-95514830D01*
X140748606Y-95374000D01*
X140752570Y-95345797D01*
X140752570Y-95345794D01*
X140753121Y-95341875D01*
X140753426Y-95320000D01*
X140733957Y-95146433D01*
X140676519Y-94981493D01*
X140583966Y-94833377D01*
X140553050Y-94802244D01*
X140519244Y-94739817D01*
X140524555Y-94669020D01*
X140555565Y-94622217D01*
X140558744Y-94619190D01*
X140575139Y-94603577D01*
X140630986Y-94519520D01*
X144376976Y-94519520D01*
X144377666Y-94526085D01*
X144385194Y-94597706D01*
X144396938Y-94709448D01*
X144455953Y-94891076D01*
X144459256Y-94896798D01*
X144459257Y-94896799D01*
X144468543Y-94912883D01*
X144551440Y-95056464D01*
X144555858Y-95061371D01*
X144555859Y-95061372D01*
X144574304Y-95081857D01*
X144679227Y-95198386D01*
X144833728Y-95310638D01*
X144839756Y-95313322D01*
X144839758Y-95313323D01*
X144976042Y-95374000D01*
X145008192Y-95388314D01*
X145101593Y-95408167D01*
X145188536Y-95426648D01*
X145188541Y-95426648D01*
X145194993Y-95428020D01*
X145385967Y-95428020D01*
X145392419Y-95426648D01*
X145392424Y-95426648D01*
X145479368Y-95408167D01*
X145572768Y-95388314D01*
X145604918Y-95374000D01*
X145741202Y-95313323D01*
X145741204Y-95313322D01*
X145747232Y-95310638D01*
X145901733Y-95198386D01*
X146006656Y-95081857D01*
X146025101Y-95061372D01*
X146025102Y-95061371D01*
X146029520Y-95056464D01*
X146112417Y-94912883D01*
X146121703Y-94896799D01*
X146121704Y-94896798D01*
X146125007Y-94891076D01*
X146184022Y-94709448D01*
X146195767Y-94597706D01*
X146203294Y-94526085D01*
X146203984Y-94519520D01*
X146187563Y-94363285D01*
X146184712Y-94336155D01*
X146184712Y-94336153D01*
X146184022Y-94329592D01*
X146133258Y-94173357D01*
X146607193Y-94173357D01*
X146607883Y-94179922D01*
X146624304Y-94336155D01*
X146627155Y-94363285D01*
X146686170Y-94544913D01*
X146689473Y-94550635D01*
X146689474Y-94550636D01*
X146704368Y-94576433D01*
X146781657Y-94710301D01*
X146786075Y-94715208D01*
X146786076Y-94715209D01*
X146905022Y-94847312D01*
X146909444Y-94852223D01*
X147063945Y-94964475D01*
X147069973Y-94967159D01*
X147069975Y-94967160D01*
X147102168Y-94981493D01*
X147238409Y-95042151D01*
X147328836Y-95061372D01*
X147418753Y-95080485D01*
X147418758Y-95080485D01*
X147425210Y-95081857D01*
X147616184Y-95081857D01*
X147622636Y-95080485D01*
X147622641Y-95080485D01*
X147712558Y-95061372D01*
X147802985Y-95042151D01*
X147939226Y-94981493D01*
X147971419Y-94967160D01*
X147971421Y-94967159D01*
X147977449Y-94964475D01*
X148131950Y-94852223D01*
X148136372Y-94847312D01*
X148255318Y-94715209D01*
X148255319Y-94715208D01*
X148259737Y-94710301D01*
X148337026Y-94576433D01*
X148351920Y-94550636D01*
X148351921Y-94550635D01*
X148355224Y-94544913D01*
X148414239Y-94363285D01*
X148417091Y-94336155D01*
X148433511Y-94179922D01*
X148434201Y-94173357D01*
X148428374Y-94117914D01*
X148414929Y-93989992D01*
X148414929Y-93989990D01*
X148414239Y-93983429D01*
X148355224Y-93801801D01*
X148259737Y-93636413D01*
X148238109Y-93612392D01*
X148136372Y-93499402D01*
X148136371Y-93499401D01*
X148131950Y-93494491D01*
X148031278Y-93421348D01*
X147982791Y-93386120D01*
X147982790Y-93386119D01*
X147977449Y-93382239D01*
X147971421Y-93379555D01*
X147971419Y-93379554D01*
X147809016Y-93307248D01*
X147809015Y-93307248D01*
X147802985Y-93304563D01*
X147709584Y-93284710D01*
X147622641Y-93266229D01*
X147622636Y-93266229D01*
X147616184Y-93264857D01*
X147425210Y-93264857D01*
X147418758Y-93266229D01*
X147418753Y-93266229D01*
X147331810Y-93284710D01*
X147238409Y-93304563D01*
X147232379Y-93307248D01*
X147232378Y-93307248D01*
X147069975Y-93379554D01*
X147069973Y-93379555D01*
X147063945Y-93382239D01*
X147058604Y-93386119D01*
X147058603Y-93386120D01*
X147010116Y-93421348D01*
X146909444Y-93494491D01*
X146905023Y-93499401D01*
X146905022Y-93499402D01*
X146803286Y-93612392D01*
X146781657Y-93636413D01*
X146686170Y-93801801D01*
X146627155Y-93983429D01*
X146626465Y-93989990D01*
X146626465Y-93989992D01*
X146613020Y-94117914D01*
X146607193Y-94173357D01*
X146133258Y-94173357D01*
X146125007Y-94147964D01*
X146109945Y-94121875D01*
X146086433Y-94081152D01*
X146029520Y-93982576D01*
X145972978Y-93919779D01*
X145906155Y-93845565D01*
X145906154Y-93845564D01*
X145901733Y-93840654D01*
X145747232Y-93728402D01*
X145741204Y-93725718D01*
X145741202Y-93725717D01*
X145578799Y-93653411D01*
X145578798Y-93653411D01*
X145572768Y-93650726D01*
X145479368Y-93630873D01*
X145392424Y-93612392D01*
X145392419Y-93612392D01*
X145385967Y-93611020D01*
X145194993Y-93611020D01*
X145188541Y-93612392D01*
X145188536Y-93612392D01*
X145101593Y-93630873D01*
X145008192Y-93650726D01*
X145002162Y-93653411D01*
X145002161Y-93653411D01*
X144839758Y-93725717D01*
X144839756Y-93725718D01*
X144833728Y-93728402D01*
X144679227Y-93840654D01*
X144674806Y-93845564D01*
X144674805Y-93845565D01*
X144607983Y-93919779D01*
X144551440Y-93982576D01*
X144494527Y-94081152D01*
X144471016Y-94121875D01*
X144455953Y-94147964D01*
X144396938Y-94329592D01*
X144396248Y-94336153D01*
X144396248Y-94336155D01*
X144393397Y-94363285D01*
X144376976Y-94519520D01*
X140630986Y-94519520D01*
X140671792Y-94458102D01*
X140733813Y-94294830D01*
X140749963Y-94179922D01*
X140757570Y-94125797D01*
X140757570Y-94125794D01*
X140758121Y-94121875D01*
X140758426Y-94100000D01*
X140738957Y-93926433D01*
X140681519Y-93761493D01*
X140588966Y-93613377D01*
X140580501Y-93604852D01*
X140480314Y-93503963D01*
X140465898Y-93489446D01*
X140455193Y-93482652D01*
X140408590Y-93453077D01*
X140318431Y-93395861D01*
X140290625Y-93385960D01*
X140160531Y-93339635D01*
X140160526Y-93339634D01*
X140153896Y-93337273D01*
X140146908Y-93336440D01*
X140146905Y-93336439D01*
X140007187Y-93319779D01*
X139980469Y-93316593D01*
X139973467Y-93317329D01*
X139973465Y-93317329D01*
X139813771Y-93334114D01*
X139813769Y-93334114D01*
X139806771Y-93334850D01*
X139641433Y-93391135D01*
X139620099Y-93404260D01*
X139498677Y-93478959D01*
X139498674Y-93478961D01*
X139492675Y-93482652D01*
X139367888Y-93604852D01*
X139364069Y-93610777D01*
X139364068Y-93610779D01*
X139326181Y-93669569D01*
X139273276Y-93751661D01*
X139270867Y-93758281D01*
X139270865Y-93758284D01*
X139232397Y-93863974D01*
X139213540Y-93915784D01*
X139191650Y-94089062D01*
X139208694Y-94262883D01*
X139263824Y-94428610D01*
X139267471Y-94434632D01*
X139267472Y-94434634D01*
X139349319Y-94569779D01*
X139354300Y-94578004D01*
X139359189Y-94583067D01*
X139359190Y-94583068D01*
X139394073Y-94619190D01*
X139427005Y-94682086D01*
X139420705Y-94752803D01*
X139391594Y-94796741D01*
X139362888Y-94824852D01*
X139268276Y-94971661D01*
X139265867Y-94978281D01*
X139265865Y-94978284D01*
X139228667Y-95080485D01*
X139208540Y-95135784D01*
X139186650Y-95309062D01*
X120700000Y-95309062D01*
X120700000Y-92039072D01*
X123709171Y-92039072D01*
X123709468Y-92044225D01*
X123709468Y-92044228D01*
X123721732Y-92256924D01*
X123722030Y-92262092D01*
X123723167Y-92267138D01*
X123723168Y-92267144D01*
X123738378Y-92334634D01*
X123771142Y-92480016D01*
X123855186Y-92686993D01*
X123894243Y-92750729D01*
X123944579Y-92832869D01*
X123971907Y-92877465D01*
X124118170Y-93046315D01*
X124290046Y-93189009D01*
X124482920Y-93301715D01*
X124487745Y-93303557D01*
X124487746Y-93303558D01*
X124530225Y-93319779D01*
X124691612Y-93381407D01*
X124696680Y-93382438D01*
X124696683Y-93382439D01*
X124803937Y-93404260D01*
X124910517Y-93425944D01*
X124915692Y-93426134D01*
X124915694Y-93426134D01*
X125128593Y-93433941D01*
X125128597Y-93433941D01*
X125133757Y-93434130D01*
X125138877Y-93433474D01*
X125138879Y-93433474D01*
X125350208Y-93406402D01*
X125350209Y-93406402D01*
X125355336Y-93405745D01*
X125396164Y-93393496D01*
X125564349Y-93343038D01*
X125564354Y-93343036D01*
X125569304Y-93341551D01*
X125769914Y-93243273D01*
X125951780Y-93113550D01*
X126060011Y-93005696D01*
X126122382Y-92971781D01*
X126193188Y-92976969D01*
X126249950Y-93019615D01*
X126266932Y-93050718D01*
X126311305Y-93169082D01*
X126398659Y-93285638D01*
X126515215Y-93372992D01*
X126651604Y-93424122D01*
X126713786Y-93430877D01*
X128510054Y-93430877D01*
X128572236Y-93424122D01*
X128708625Y-93372992D01*
X128825181Y-93285638D01*
X128912535Y-93169082D01*
X128963665Y-93032693D01*
X128970420Y-92970511D01*
X128970420Y-91999520D01*
X141326976Y-91999520D01*
X141327666Y-92006085D01*
X141344849Y-92169569D01*
X141346938Y-92189448D01*
X141405953Y-92371076D01*
X141501440Y-92536464D01*
X141505858Y-92541371D01*
X141505859Y-92541372D01*
X141575903Y-92619164D01*
X141629227Y-92678386D01*
X141681814Y-92716593D01*
X141753305Y-92768534D01*
X141783728Y-92790638D01*
X141789756Y-92793322D01*
X141789758Y-92793323D01*
X141952161Y-92865629D01*
X141958192Y-92868314D01*
X142025647Y-92882652D01*
X142138536Y-92906648D01*
X142138541Y-92906648D01*
X142144993Y-92908020D01*
X142335967Y-92908020D01*
X142342419Y-92906648D01*
X142342424Y-92906648D01*
X142455313Y-92882652D01*
X142522768Y-92868314D01*
X142528799Y-92865629D01*
X142691202Y-92793323D01*
X142691204Y-92793322D01*
X142697232Y-92790638D01*
X142727656Y-92768534D01*
X142799146Y-92716593D01*
X142851733Y-92678386D01*
X142905057Y-92619164D01*
X142975101Y-92541372D01*
X142975102Y-92541371D01*
X142979520Y-92536464D01*
X143075007Y-92371076D01*
X143134022Y-92189448D01*
X143136112Y-92169569D01*
X143153294Y-92006085D01*
X143153984Y-91999520D01*
X143135792Y-91826433D01*
X143134712Y-91816155D01*
X143134712Y-91816153D01*
X143134022Y-91809592D01*
X143075007Y-91627964D01*
X142979520Y-91462576D01*
X142918475Y-91394778D01*
X142856155Y-91325565D01*
X142856154Y-91325564D01*
X142851733Y-91320654D01*
X142697232Y-91208402D01*
X142691204Y-91205718D01*
X142691202Y-91205717D01*
X142528799Y-91133411D01*
X142528798Y-91133411D01*
X142522768Y-91130726D01*
X142416331Y-91108102D01*
X142342424Y-91092392D01*
X142342419Y-91092392D01*
X142335967Y-91091020D01*
X142144993Y-91091020D01*
X142138541Y-91092392D01*
X142138536Y-91092392D01*
X142064629Y-91108102D01*
X141958192Y-91130726D01*
X141952162Y-91133411D01*
X141952161Y-91133411D01*
X141789758Y-91205717D01*
X141789756Y-91205718D01*
X141783728Y-91208402D01*
X141629227Y-91320654D01*
X141624806Y-91325564D01*
X141624805Y-91325565D01*
X141562486Y-91394778D01*
X141501440Y-91462576D01*
X141405953Y-91627964D01*
X141346938Y-91809592D01*
X141346248Y-91816153D01*
X141346248Y-91816155D01*
X141345168Y-91826433D01*
X141326976Y-91999520D01*
X128970420Y-91999520D01*
X128970420Y-91174243D01*
X128963665Y-91112061D01*
X128912535Y-90975672D01*
X128825181Y-90859116D01*
X128708625Y-90771762D01*
X128662435Y-90754446D01*
X128590123Y-90727337D01*
X128533359Y-90684695D01*
X128508659Y-90618133D01*
X128523867Y-90548785D01*
X128545413Y-90520104D01*
X128566069Y-90499520D01*
X144472916Y-90499520D01*
X144473606Y-90506085D01*
X144485383Y-90618133D01*
X144492878Y-90689448D01*
X144551893Y-90871076D01*
X144555196Y-90876798D01*
X144555197Y-90876799D01*
X144581288Y-90921989D01*
X144647380Y-91036464D01*
X144651798Y-91041371D01*
X144651799Y-91041372D01*
X144679311Y-91071927D01*
X144775167Y-91178386D01*
X144929668Y-91290638D01*
X144935696Y-91293322D01*
X144935698Y-91293323D01*
X145071173Y-91353640D01*
X145104132Y-91368314D01*
X145171587Y-91382652D01*
X145284476Y-91406648D01*
X145284481Y-91406648D01*
X145290933Y-91408020D01*
X145481907Y-91408020D01*
X145488359Y-91406648D01*
X145488364Y-91406648D01*
X145601253Y-91382652D01*
X145668708Y-91368314D01*
X145701667Y-91353640D01*
X145837142Y-91293323D01*
X145837144Y-91293322D01*
X145843172Y-91290638D01*
X145997673Y-91178386D01*
X146093529Y-91071927D01*
X146121041Y-91041372D01*
X146121042Y-91041371D01*
X146125460Y-91036464D01*
X146191552Y-90921989D01*
X146217643Y-90876799D01*
X146217644Y-90876798D01*
X146220947Y-90871076D01*
X146279962Y-90689448D01*
X146287458Y-90618133D01*
X146299234Y-90506085D01*
X146299924Y-90499520D01*
X146279962Y-90309592D01*
X146220947Y-90127964D01*
X146125460Y-89962576D01*
X145997673Y-89820654D01*
X145843172Y-89708402D01*
X145837144Y-89705718D01*
X145837142Y-89705717D01*
X145674739Y-89633411D01*
X145674738Y-89633411D01*
X145668708Y-89630726D01*
X145575307Y-89610873D01*
X145488364Y-89592392D01*
X145488359Y-89592392D01*
X145481907Y-89591020D01*
X145290933Y-89591020D01*
X145284481Y-89592392D01*
X145284476Y-89592392D01*
X145197533Y-89610873D01*
X145104132Y-89630726D01*
X145098102Y-89633411D01*
X145098101Y-89633411D01*
X144935698Y-89705717D01*
X144935696Y-89705718D01*
X144929668Y-89708402D01*
X144775167Y-89820654D01*
X144647380Y-89962576D01*
X144551893Y-90127964D01*
X144492878Y-90309592D01*
X144472916Y-90499520D01*
X128566069Y-90499520D01*
X128646355Y-90419514D01*
X128650016Y-90415866D01*
X128780373Y-90234454D01*
X128793915Y-90207055D01*
X128877056Y-90038830D01*
X128877057Y-90038828D01*
X128879350Y-90034188D01*
X128944290Y-89820446D01*
X128973449Y-89598967D01*
X128975076Y-89532377D01*
X128956772Y-89309738D01*
X128902351Y-89093079D01*
X128813274Y-88888217D01*
X128733083Y-88764260D01*
X128694742Y-88704994D01*
X128694740Y-88704991D01*
X128691934Y-88700654D01*
X128541590Y-88535428D01*
X128537539Y-88532229D01*
X128537535Y-88532225D01*
X128370334Y-88400177D01*
X128370330Y-88400175D01*
X128366279Y-88396975D01*
X128324973Y-88374173D01*
X128275004Y-88323741D01*
X128260232Y-88254298D01*
X128285348Y-88187893D01*
X128312700Y-88161286D01*
X128367879Y-88121927D01*
X128461227Y-88055343D01*
X133640177Y-88055343D01*
X133670485Y-88189823D01*
X133673565Y-88199652D01*
X133753688Y-88396975D01*
X133758333Y-88406171D01*
X133869614Y-88587765D01*
X133875697Y-88596076D01*
X134015133Y-88757044D01*
X134022500Y-88764260D01*
X134186354Y-88900293D01*
X134194801Y-88906208D01*
X134378676Y-89013656D01*
X134387962Y-89018106D01*
X134586921Y-89094080D01*
X134596819Y-89096956D01*
X134700170Y-89117983D01*
X134714219Y-89116787D01*
X134717920Y-89106442D01*
X134717920Y-88059492D01*
X134713445Y-88044253D01*
X134712055Y-88043048D01*
X134704372Y-88041377D01*
X133655145Y-88041377D01*
X133641614Y-88045350D01*
X133640177Y-88055343D01*
X128461227Y-88055343D01*
X128491780Y-88033550D01*
X128518535Y-88006889D01*
X128595522Y-87930170D01*
X128650016Y-87875866D01*
X128673886Y-87842648D01*
X128777355Y-87698654D01*
X128780373Y-87694454D01*
X128791175Y-87672599D01*
X128877056Y-87498830D01*
X128877057Y-87498828D01*
X128879350Y-87494188D01*
X128922217Y-87353097D01*
X128942785Y-87285400D01*
X128942785Y-87285398D01*
X128944290Y-87280446D01*
X128973449Y-87058967D01*
X128973531Y-87055617D01*
X128974994Y-86995742D01*
X128974994Y-86995738D01*
X128975076Y-86992377D01*
X128956772Y-86769738D01*
X128902351Y-86553079D01*
X128813274Y-86348217D01*
X128733314Y-86224617D01*
X128694742Y-86164994D01*
X128694740Y-86164991D01*
X128691934Y-86160654D01*
X128541590Y-85995428D01*
X128537539Y-85992229D01*
X128537535Y-85992225D01*
X128370334Y-85860177D01*
X128370330Y-85860175D01*
X128366279Y-85856975D01*
X128324973Y-85834173D01*
X128275004Y-85783741D01*
X128260232Y-85714298D01*
X128285348Y-85647893D01*
X128312700Y-85621286D01*
X128356523Y-85590027D01*
X128491780Y-85493550D01*
X128650016Y-85335866D01*
X128709514Y-85253066D01*
X128737534Y-85214072D01*
X133609171Y-85214072D01*
X133609468Y-85219225D01*
X133609468Y-85219228D01*
X133611419Y-85253065D01*
X133622030Y-85437092D01*
X133623167Y-85442138D01*
X133623168Y-85442144D01*
X133637295Y-85504829D01*
X133671142Y-85655016D01*
X133719108Y-85773143D01*
X133752305Y-85854897D01*
X133755186Y-85861993D01*
X133792605Y-85923055D01*
X133869211Y-86048065D01*
X133871907Y-86052465D01*
X134018170Y-86221315D01*
X134106129Y-86294340D01*
X134176397Y-86352677D01*
X134190046Y-86364009D01*
X134262638Y-86406428D01*
X134263875Y-86407151D01*
X134312599Y-86458789D01*
X134325670Y-86528572D01*
X134298939Y-86594344D01*
X134258482Y-86627704D01*
X134250377Y-86631923D01*
X134241658Y-86637413D01*
X134071353Y-86765282D01*
X134063646Y-86772125D01*
X133916510Y-86926094D01*
X133910024Y-86934104D01*
X133790018Y-87110026D01*
X133784920Y-87119000D01*
X133695258Y-87312160D01*
X133691695Y-87321847D01*
X133636309Y-87521560D01*
X133637832Y-87529984D01*
X133650212Y-87533377D01*
X135099920Y-87533377D01*
X135168041Y-87553379D01*
X135214534Y-87607035D01*
X135225920Y-87659377D01*
X135225920Y-89105894D01*
X135229984Y-89119736D01*
X135243398Y-89121770D01*
X135250104Y-89120911D01*
X135260182Y-89118769D01*
X135464175Y-89057568D01*
X135473762Y-89053810D01*
X135665015Y-88960116D01*
X135673865Y-88954841D01*
X135847248Y-88831169D01*
X135855120Y-88824516D01*
X136005972Y-88674189D01*
X136012650Y-88666342D01*
X136139942Y-88489196D01*
X136141199Y-88490099D01*
X136188293Y-88446739D01*
X136258231Y-88434522D01*
X136323671Y-88462055D01*
X136351499Y-88493888D01*
X136358218Y-88504852D01*
X136411907Y-88592465D01*
X136558170Y-88761315D01*
X136730046Y-88904009D01*
X136922920Y-89016715D01*
X136927745Y-89018557D01*
X136927746Y-89018558D01*
X136946703Y-89025797D01*
X137131612Y-89096407D01*
X137136680Y-89097438D01*
X137136683Y-89097439D01*
X137231782Y-89116787D01*
X137350517Y-89140944D01*
X137355692Y-89141134D01*
X137355694Y-89141134D01*
X137568593Y-89148941D01*
X137568597Y-89148941D01*
X137573757Y-89149130D01*
X137578877Y-89148474D01*
X137578879Y-89148474D01*
X137790208Y-89121402D01*
X137790209Y-89121402D01*
X137795336Y-89120745D01*
X137800286Y-89119260D01*
X138004349Y-89058038D01*
X138004354Y-89058036D01*
X138009304Y-89056551D01*
X138209914Y-88958273D01*
X138391780Y-88828550D01*
X138550016Y-88670866D01*
X138660490Y-88517125D01*
X138680373Y-88489454D01*
X138681696Y-88490405D01*
X138728565Y-88447234D01*
X138798500Y-88435002D01*
X138863946Y-88462521D01*
X138891795Y-88494371D01*
X138951907Y-88592465D01*
X139098170Y-88761315D01*
X139270046Y-88904009D01*
X139462920Y-89016715D01*
X139467745Y-89018557D01*
X139467746Y-89018558D01*
X139486703Y-89025797D01*
X139671612Y-89096407D01*
X139676680Y-89097438D01*
X139676683Y-89097439D01*
X139771782Y-89116787D01*
X139890517Y-89140944D01*
X139895692Y-89141134D01*
X139895694Y-89141134D01*
X140108593Y-89148941D01*
X140108597Y-89148941D01*
X140113757Y-89149130D01*
X140118877Y-89148474D01*
X140118879Y-89148474D01*
X140330208Y-89121402D01*
X140330209Y-89121402D01*
X140335336Y-89120745D01*
X140340286Y-89119260D01*
X140544349Y-89058038D01*
X140544354Y-89058036D01*
X140549304Y-89056551D01*
X140687066Y-88989062D01*
X141816650Y-88989062D01*
X141833694Y-89162883D01*
X141888824Y-89328610D01*
X141979300Y-89478004D01*
X142100625Y-89603640D01*
X142246771Y-89699275D01*
X142253375Y-89701731D01*
X142253377Y-89701732D01*
X142275198Y-89709847D01*
X142410472Y-89760155D01*
X142417457Y-89761087D01*
X142576612Y-89782323D01*
X142576616Y-89782323D01*
X142583593Y-89783254D01*
X142590604Y-89782616D01*
X142590608Y-89782616D01*
X142750512Y-89768064D01*
X142750515Y-89768063D01*
X142757530Y-89767425D01*
X142877334Y-89728498D01*
X142916941Y-89715629D01*
X142916943Y-89715628D01*
X142923637Y-89713453D01*
X143062413Y-89630726D01*
X143067607Y-89627630D01*
X143067609Y-89627629D01*
X143073659Y-89624022D01*
X143200139Y-89503577D01*
X143296792Y-89358102D01*
X143358813Y-89194830D01*
X143377526Y-89061682D01*
X143382570Y-89025797D01*
X143382570Y-89025794D01*
X143383121Y-89021875D01*
X143383426Y-89000000D01*
X143363957Y-88826433D01*
X143306519Y-88661493D01*
X143213966Y-88513377D01*
X143190829Y-88490077D01*
X143157022Y-88427648D01*
X143162334Y-88356850D01*
X143190719Y-88314010D01*
X143190508Y-88313833D01*
X143192071Y-88311970D01*
X143193346Y-88310045D01*
X143200139Y-88303577D01*
X143269186Y-88199652D01*
X143292891Y-88163974D01*
X143292892Y-88163972D01*
X143296792Y-88158102D01*
X143358813Y-87994830D01*
X143378611Y-87853967D01*
X143382570Y-87825797D01*
X143382570Y-87825794D01*
X143383121Y-87821875D01*
X143383426Y-87800000D01*
X143363957Y-87626433D01*
X143351324Y-87590154D01*
X151324480Y-87590154D01*
X151331235Y-87652336D01*
X151382365Y-87788725D01*
X151469719Y-87905281D01*
X151586275Y-87992635D01*
X151722664Y-88043765D01*
X151784846Y-88050520D01*
X154881114Y-88050520D01*
X154943296Y-88043765D01*
X155079685Y-87992635D01*
X155196241Y-87905281D01*
X155283595Y-87788725D01*
X155334725Y-87652336D01*
X155341480Y-87590154D01*
X155341480Y-86020938D01*
X156319897Y-86020938D01*
X156335662Y-86294340D01*
X156336487Y-86298545D01*
X156336488Y-86298553D01*
X156364807Y-86442893D01*
X156388385Y-86563073D01*
X156389772Y-86567123D01*
X156389773Y-86567128D01*
X156473624Y-86812035D01*
X156477092Y-86822164D01*
X156479019Y-86825995D01*
X156597860Y-87062285D01*
X156600140Y-87066819D01*
X156602566Y-87070348D01*
X156602569Y-87070354D01*
X156731721Y-87258270D01*
X156755254Y-87292510D01*
X156758141Y-87295683D01*
X156758142Y-87295684D01*
X156766484Y-87304852D01*
X156939562Y-87495063D01*
X157149655Y-87670727D01*
X157153296Y-87673011D01*
X157378004Y-87813971D01*
X157378008Y-87813973D01*
X157381644Y-87816254D01*
X157465169Y-87853967D01*
X157627325Y-87927184D01*
X157627329Y-87927186D01*
X157631237Y-87928950D01*
X157635357Y-87930170D01*
X157635356Y-87930170D01*
X157889703Y-88005511D01*
X157889707Y-88005512D01*
X157893816Y-88006729D01*
X157898050Y-88007377D01*
X157898055Y-88007378D01*
X158160278Y-88047503D01*
X158160280Y-88047503D01*
X158164520Y-88048152D01*
X158303892Y-88050342D01*
X158434051Y-88052387D01*
X158434057Y-88052387D01*
X158438342Y-88052454D01*
X158710215Y-88019554D01*
X158975107Y-87950061D01*
X158979067Y-87948421D01*
X158979072Y-87948419D01*
X159145422Y-87879514D01*
X159228116Y-87845261D01*
X159464562Y-87707093D01*
X159680069Y-87538114D01*
X159684660Y-87533377D01*
X159867666Y-87344529D01*
X159870649Y-87341451D01*
X159873182Y-87338003D01*
X159873186Y-87337998D01*
X160030237Y-87124198D01*
X160032775Y-87120743D01*
X160034821Y-87116975D01*
X160161398Y-86883850D01*
X160161399Y-86883848D01*
X160163448Y-86880074D01*
X160248270Y-86655599D01*
X160258731Y-86627915D01*
X160258732Y-86627911D01*
X160260249Y-86623897D01*
X160309890Y-86407151D01*
X160320429Y-86361137D01*
X160320430Y-86361133D01*
X160321387Y-86356953D01*
X160321895Y-86351268D01*
X160345511Y-86086647D01*
X160345512Y-86086636D01*
X160345731Y-86084181D01*
X160346064Y-86052465D01*
X160346147Y-86044504D01*
X160346147Y-86044503D01*
X160346173Y-86042020D01*
X160344736Y-86020938D01*
X161319897Y-86020938D01*
X161335662Y-86294340D01*
X161336487Y-86298545D01*
X161336488Y-86298553D01*
X161364807Y-86442893D01*
X161388385Y-86563073D01*
X161389772Y-86567123D01*
X161389773Y-86567128D01*
X161473624Y-86812035D01*
X161477092Y-86822164D01*
X161479019Y-86825995D01*
X161597860Y-87062285D01*
X161600140Y-87066819D01*
X161602566Y-87070348D01*
X161602569Y-87070354D01*
X161731721Y-87258270D01*
X161755254Y-87292510D01*
X161758141Y-87295683D01*
X161758142Y-87295684D01*
X161766484Y-87304852D01*
X161939562Y-87495063D01*
X162149655Y-87670727D01*
X162153296Y-87673011D01*
X162378004Y-87813971D01*
X162378008Y-87813973D01*
X162381644Y-87816254D01*
X162465169Y-87853967D01*
X162627325Y-87927184D01*
X162627329Y-87927186D01*
X162631237Y-87928950D01*
X162635357Y-87930170D01*
X162635356Y-87930170D01*
X162889703Y-88005511D01*
X162889707Y-88005512D01*
X162893816Y-88006729D01*
X162898050Y-88007377D01*
X162898055Y-88007378D01*
X163160278Y-88047503D01*
X163160280Y-88047503D01*
X163164520Y-88048152D01*
X163303892Y-88050342D01*
X163434051Y-88052387D01*
X163434057Y-88052387D01*
X163438342Y-88052454D01*
X163710215Y-88019554D01*
X163975107Y-87950061D01*
X163979067Y-87948421D01*
X163979072Y-87948419D01*
X164145422Y-87879514D01*
X164228116Y-87845261D01*
X164464562Y-87707093D01*
X164560747Y-87631674D01*
X167108598Y-87631674D01*
X167115653Y-87641647D01*
X167146659Y-87667571D01*
X167153578Y-87672599D01*
X167378252Y-87813535D01*
X167385787Y-87817576D01*
X167627500Y-87926714D01*
X167635531Y-87929700D01*
X167889812Y-88005022D01*
X167898164Y-88006889D01*
X168160320Y-88047004D01*
X168168854Y-88047720D01*
X168434025Y-88051887D01*
X168442576Y-88051438D01*
X168705863Y-88019577D01*
X168714264Y-88017975D01*
X168970804Y-87950673D01*
X168978906Y-87947946D01*
X169223929Y-87846454D01*
X169231597Y-87842648D01*
X169460578Y-87708842D01*
X169467659Y-87704029D01*
X169547635Y-87641321D01*
X169556105Y-87629462D01*
X169549588Y-87617838D01*
X168345792Y-86414042D01*
X168331848Y-86406428D01*
X168330015Y-86406559D01*
X168323400Y-86410810D01*
X167115890Y-87618320D01*
X167108598Y-87631674D01*
X164560747Y-87631674D01*
X164680069Y-87538114D01*
X164684660Y-87533377D01*
X164867666Y-87344529D01*
X164870649Y-87341451D01*
X164873182Y-87338003D01*
X164873186Y-87337998D01*
X165030237Y-87124198D01*
X165032775Y-87120743D01*
X165034821Y-87116975D01*
X165161398Y-86883850D01*
X165161399Y-86883848D01*
X165163448Y-86880074D01*
X165248270Y-86655599D01*
X165258731Y-86627915D01*
X165258732Y-86627911D01*
X165260249Y-86623897D01*
X165309890Y-86407151D01*
X165320429Y-86361137D01*
X165320430Y-86361133D01*
X165321387Y-86356953D01*
X165321895Y-86351268D01*
X165345511Y-86086647D01*
X165345512Y-86086636D01*
X165345731Y-86084181D01*
X165346064Y-86052465D01*
X165346147Y-86044504D01*
X165346147Y-86044503D01*
X165346173Y-86042020D01*
X165345028Y-86025224D01*
X166320645Y-86025224D01*
X166335912Y-86289989D01*
X166336985Y-86298490D01*
X166388045Y-86558742D01*
X166390256Y-86566994D01*
X166476164Y-86817914D01*
X166479479Y-86825799D01*
X166598644Y-87062733D01*
X166603000Y-87070099D01*
X166732327Y-87258270D01*
X166742581Y-87266614D01*
X166756322Y-87259468D01*
X167960958Y-86054832D01*
X167967336Y-86043152D01*
X168697388Y-86043152D01*
X168697519Y-86044985D01*
X168701770Y-86051600D01*
X169908710Y-87258540D01*
X169920919Y-87265207D01*
X169932419Y-87256517D01*
X170029811Y-87123933D01*
X170034398Y-87116705D01*
X170160942Y-86883641D01*
X170164510Y-86875847D01*
X170258251Y-86627770D01*
X170260728Y-86619564D01*
X170319934Y-86361058D01*
X170321274Y-86352597D01*
X170345011Y-86086636D01*
X170345257Y-86081697D01*
X170345646Y-86044505D01*
X170345503Y-86039539D01*
X170327342Y-85773143D01*
X170326181Y-85764669D01*
X170272399Y-85504964D01*
X170270100Y-85496729D01*
X170181568Y-85246725D01*
X170178171Y-85238874D01*
X170056530Y-85003198D01*
X170052102Y-84995886D01*
X169933011Y-84826437D01*
X169922489Y-84818057D01*
X169909101Y-84825109D01*
X168705002Y-86029208D01*
X168697388Y-86043152D01*
X167967336Y-86043152D01*
X167968572Y-86040888D01*
X167968441Y-86039055D01*
X167964190Y-86032440D01*
X166756794Y-84825044D01*
X166744784Y-84818486D01*
X166733044Y-84827454D01*
X166624915Y-84977931D01*
X166620398Y-84985216D01*
X166496305Y-85219587D01*
X166492819Y-85227415D01*
X166401680Y-85476466D01*
X166399291Y-85484690D01*
X166342792Y-85743815D01*
X166341543Y-85752270D01*
X166320734Y-86016673D01*
X166320645Y-86025224D01*
X165345028Y-86025224D01*
X165342997Y-85995428D01*
X165327839Y-85773075D01*
X165327838Y-85773069D01*
X165327547Y-85768798D01*
X165326017Y-85761407D01*
X165272881Y-85504829D01*
X165272012Y-85500632D01*
X165180597Y-85242485D01*
X165054993Y-84999132D01*
X165049944Y-84991947D01*
X164899988Y-84778582D01*
X164897525Y-84775077D01*
X164827446Y-84699663D01*
X164714026Y-84577608D01*
X164714023Y-84577605D01*
X164711105Y-84574465D01*
X164707790Y-84571751D01*
X164707786Y-84571748D01*
X164564562Y-84454520D01*
X167109564Y-84454520D01*
X167115960Y-84465790D01*
X168320168Y-85669998D01*
X168334112Y-85677612D01*
X168335945Y-85677481D01*
X168342560Y-85673230D01*
X169549584Y-84466206D01*
X169556775Y-84453037D01*
X169549453Y-84442800D01*
X169502213Y-84404135D01*
X169495241Y-84399180D01*
X169269102Y-84260602D01*
X169261532Y-84256644D01*
X169018684Y-84150042D01*
X169010624Y-84147140D01*
X168755572Y-84074487D01*
X168747194Y-84072705D01*
X168484636Y-84035338D01*
X168476091Y-84034711D01*
X168210888Y-84033322D01*
X168202354Y-84033859D01*
X167939413Y-84068476D01*
X167931015Y-84070169D01*
X167675218Y-84140147D01*
X167667123Y-84142966D01*
X167423179Y-84247017D01*
X167415557Y-84250901D01*
X167187993Y-84387095D01*
X167180961Y-84391982D01*
X167118033Y-84442397D01*
X167109564Y-84454520D01*
X164564562Y-84454520D01*
X164546284Y-84439560D01*
X164499185Y-84401010D01*
X164265684Y-84257921D01*
X164257326Y-84254252D01*
X164018853Y-84149569D01*
X164018849Y-84149568D01*
X164014925Y-84147845D01*
X163751546Y-84072820D01*
X163747304Y-84072216D01*
X163747298Y-84072215D01*
X163542367Y-84043049D01*
X163480423Y-84034233D01*
X163336569Y-84033480D01*
X163210857Y-84032822D01*
X163210851Y-84032822D01*
X163206571Y-84032800D01*
X163202327Y-84033359D01*
X163202323Y-84033359D01*
X163128721Y-84043049D01*
X162935058Y-84068545D01*
X162930918Y-84069678D01*
X162930916Y-84069678D01*
X162863017Y-84088253D01*
X162670908Y-84140808D01*
X162666960Y-84142492D01*
X162422962Y-84246566D01*
X162422958Y-84246568D01*
X162419010Y-84248252D01*
X162354165Y-84287061D01*
X162187705Y-84386684D01*
X162187701Y-84386687D01*
X162184023Y-84388888D01*
X161970298Y-84560114D01*
X161781788Y-84758762D01*
X161621982Y-84981156D01*
X161493837Y-85223181D01*
X161492365Y-85227204D01*
X161492363Y-85227208D01*
X161419500Y-85426315D01*
X161399723Y-85480357D01*
X161341384Y-85747927D01*
X161319897Y-86020938D01*
X160344736Y-86020938D01*
X160342997Y-85995428D01*
X160327839Y-85773075D01*
X160327838Y-85773069D01*
X160327547Y-85768798D01*
X160326017Y-85761407D01*
X160272881Y-85504829D01*
X160272012Y-85500632D01*
X160180597Y-85242485D01*
X160054993Y-84999132D01*
X160049944Y-84991947D01*
X159899988Y-84778582D01*
X159897525Y-84775077D01*
X159827446Y-84699663D01*
X159714026Y-84577608D01*
X159714023Y-84577605D01*
X159711105Y-84574465D01*
X159707790Y-84571751D01*
X159707786Y-84571748D01*
X159546284Y-84439560D01*
X159499185Y-84401010D01*
X159265684Y-84257921D01*
X159257326Y-84254252D01*
X159018853Y-84149569D01*
X159018849Y-84149568D01*
X159014925Y-84147845D01*
X158751546Y-84072820D01*
X158747304Y-84072216D01*
X158747298Y-84072215D01*
X158542367Y-84043049D01*
X158480423Y-84034233D01*
X158336569Y-84033480D01*
X158210857Y-84032822D01*
X158210851Y-84032822D01*
X158206571Y-84032800D01*
X158202327Y-84033359D01*
X158202323Y-84033359D01*
X158128721Y-84043049D01*
X157935058Y-84068545D01*
X157930918Y-84069678D01*
X157930916Y-84069678D01*
X157863017Y-84088253D01*
X157670908Y-84140808D01*
X157666960Y-84142492D01*
X157422962Y-84246566D01*
X157422958Y-84246568D01*
X157419010Y-84248252D01*
X157354165Y-84287061D01*
X157187705Y-84386684D01*
X157187701Y-84386687D01*
X157184023Y-84388888D01*
X156970298Y-84560114D01*
X156781788Y-84758762D01*
X156621982Y-84981156D01*
X156493837Y-85223181D01*
X156492365Y-85227204D01*
X156492363Y-85227208D01*
X156419500Y-85426315D01*
X156399723Y-85480357D01*
X156341384Y-85747927D01*
X156319897Y-86020938D01*
X155341480Y-86020938D01*
X155341480Y-84493886D01*
X155334725Y-84431704D01*
X155283595Y-84295315D01*
X155196241Y-84178759D01*
X155079685Y-84091405D01*
X154943296Y-84040275D01*
X154881114Y-84033520D01*
X151784846Y-84033520D01*
X151722664Y-84040275D01*
X151586275Y-84091405D01*
X151469719Y-84178759D01*
X151382365Y-84295315D01*
X151331235Y-84431704D01*
X151324480Y-84493886D01*
X151324480Y-87590154D01*
X143351324Y-87590154D01*
X143350134Y-87586737D01*
X143318209Y-87495063D01*
X143306519Y-87461493D01*
X143213966Y-87313377D01*
X143205501Y-87304852D01*
X143095860Y-87194443D01*
X143090898Y-87189446D01*
X143080193Y-87182652D01*
X143013955Y-87140617D01*
X142943431Y-87095861D01*
X142871083Y-87070099D01*
X142785531Y-87039635D01*
X142785526Y-87039634D01*
X142778896Y-87037273D01*
X142771908Y-87036440D01*
X142771905Y-87036439D01*
X142654334Y-87022420D01*
X142605469Y-87016593D01*
X142598467Y-87017329D01*
X142598465Y-87017329D01*
X142438771Y-87034114D01*
X142438769Y-87034114D01*
X142431771Y-87034850D01*
X142266433Y-87091135D01*
X142229174Y-87114057D01*
X142123677Y-87178959D01*
X142123674Y-87178961D01*
X142117675Y-87182652D01*
X141992888Y-87304852D01*
X141989069Y-87310777D01*
X141989068Y-87310779D01*
X141931559Y-87400016D01*
X141898276Y-87451661D01*
X141895867Y-87458281D01*
X141895865Y-87458284D01*
X141846632Y-87593551D01*
X141838540Y-87615784D01*
X141816650Y-87789062D01*
X141833694Y-87962883D01*
X141835918Y-87969568D01*
X141835918Y-87969569D01*
X141852021Y-88017975D01*
X141888824Y-88128610D01*
X141892471Y-88134632D01*
X141892472Y-88134634D01*
X141969336Y-88261551D01*
X141979300Y-88278004D01*
X142011577Y-88311428D01*
X142044509Y-88374322D01*
X142038210Y-88445039D01*
X142009098Y-88488978D01*
X141992888Y-88504852D01*
X141898276Y-88651661D01*
X141895867Y-88658281D01*
X141895865Y-88658284D01*
X141859787Y-88757408D01*
X141838540Y-88815784D01*
X141816650Y-88989062D01*
X140687066Y-88989062D01*
X140749914Y-88958273D01*
X140931780Y-88828550D01*
X141090016Y-88670866D01*
X141220373Y-88489454D01*
X141233915Y-88462055D01*
X141317056Y-88293830D01*
X141317057Y-88293828D01*
X141319350Y-88289188D01*
X141366307Y-88134634D01*
X141382785Y-88080400D01*
X141382785Y-88080398D01*
X141384290Y-88075446D01*
X141413449Y-87853967D01*
X141414338Y-87817576D01*
X141414994Y-87790742D01*
X141414994Y-87790738D01*
X141415076Y-87787377D01*
X141396772Y-87564738D01*
X141342351Y-87348079D01*
X141253274Y-87143217D01*
X141171897Y-87017427D01*
X141134742Y-86959994D01*
X141134740Y-86959991D01*
X141131934Y-86955654D01*
X141112325Y-86934104D01*
X140984718Y-86793865D01*
X140953666Y-86730019D01*
X140962061Y-86659520D01*
X141007237Y-86604752D01*
X141033681Y-86591083D01*
X141140217Y-86551144D01*
X141148625Y-86547992D01*
X141265181Y-86460638D01*
X141352535Y-86344082D01*
X141403665Y-86207693D01*
X141410420Y-86145511D01*
X141410420Y-84349243D01*
X141403665Y-84287061D01*
X141352535Y-84150672D01*
X141265181Y-84034116D01*
X141148625Y-83946762D01*
X141012236Y-83895632D01*
X140950054Y-83888877D01*
X139153786Y-83888877D01*
X139091604Y-83895632D01*
X138955215Y-83946762D01*
X138838659Y-84034116D01*
X138751305Y-84150672D01*
X138748153Y-84159080D01*
X138706839Y-84269284D01*
X138664197Y-84326048D01*
X138597636Y-84350748D01*
X138528287Y-84335540D01*
X138495663Y-84309853D01*
X138445071Y-84254252D01*
X138445062Y-84254243D01*
X138441590Y-84250428D01*
X138437539Y-84247229D01*
X138437535Y-84247225D01*
X138270334Y-84115177D01*
X138270330Y-84115175D01*
X138266279Y-84111975D01*
X138223307Y-84088253D01*
X138197482Y-84073997D01*
X138070709Y-84004015D01*
X138065840Y-84002291D01*
X138065836Y-84002289D01*
X137865007Y-83931172D01*
X137865003Y-83931171D01*
X137860132Y-83929446D01*
X137855039Y-83928539D01*
X137855036Y-83928538D01*
X137645293Y-83891177D01*
X137645287Y-83891176D01*
X137640204Y-83890271D01*
X137566372Y-83889369D01*
X137422001Y-83887605D01*
X137421999Y-83887605D01*
X137416831Y-83887542D01*
X137196011Y-83921332D01*
X136983676Y-83990734D01*
X136953363Y-84006514D01*
X136823730Y-84073997D01*
X136785527Y-84093884D01*
X136781394Y-84096987D01*
X136781391Y-84096989D01*
X136611020Y-84224907D01*
X136606885Y-84228012D01*
X136579955Y-84256193D01*
X136513200Y-84326048D01*
X136452549Y-84389515D01*
X136345121Y-84546998D01*
X136290213Y-84591998D01*
X136219688Y-84600169D01*
X136155941Y-84568915D01*
X136135244Y-84544431D01*
X136054742Y-84419994D01*
X136054740Y-84419991D01*
X136051934Y-84415654D01*
X135901590Y-84250428D01*
X135897539Y-84247229D01*
X135897535Y-84247225D01*
X135730334Y-84115177D01*
X135730330Y-84115175D01*
X135726279Y-84111975D01*
X135683307Y-84088253D01*
X135657482Y-84073997D01*
X135530709Y-84004015D01*
X135525840Y-84002291D01*
X135525836Y-84002289D01*
X135325007Y-83931172D01*
X135325003Y-83931171D01*
X135320132Y-83929446D01*
X135315039Y-83928539D01*
X135315036Y-83928538D01*
X135105293Y-83891177D01*
X135105287Y-83891176D01*
X135100204Y-83890271D01*
X135026372Y-83889369D01*
X134882001Y-83887605D01*
X134881999Y-83887605D01*
X134876831Y-83887542D01*
X134656011Y-83921332D01*
X134443676Y-83990734D01*
X134413363Y-84006514D01*
X134283730Y-84073997D01*
X134245527Y-84093884D01*
X134241394Y-84096987D01*
X134241391Y-84096989D01*
X134071020Y-84224907D01*
X134066885Y-84228012D01*
X134039955Y-84256193D01*
X133973200Y-84326048D01*
X133912549Y-84389515D01*
X133909640Y-84393780D01*
X133909634Y-84393788D01*
X133891758Y-84419994D01*
X133786663Y-84574057D01*
X133757481Y-84636924D01*
X133699311Y-84762242D01*
X133692608Y-84776682D01*
X133632909Y-84991947D01*
X133609171Y-85214072D01*
X128737534Y-85214072D01*
X128777355Y-85158654D01*
X128780373Y-85154454D01*
X128801240Y-85112234D01*
X128877056Y-84958830D01*
X128877057Y-84958828D01*
X128879350Y-84954188D01*
X128944290Y-84740446D01*
X128973449Y-84518967D01*
X128975076Y-84452377D01*
X128956772Y-84229738D01*
X128902351Y-84013079D01*
X128813274Y-83808217D01*
X128691934Y-83620654D01*
X128541590Y-83455428D01*
X128537539Y-83452229D01*
X128537535Y-83452225D01*
X128370334Y-83320177D01*
X128370330Y-83320175D01*
X128366279Y-83316975D01*
X128170709Y-83209015D01*
X128165840Y-83207291D01*
X128165836Y-83207289D01*
X127965007Y-83136172D01*
X127965003Y-83136171D01*
X127960132Y-83134446D01*
X127955039Y-83133539D01*
X127955036Y-83133538D01*
X127745293Y-83096177D01*
X127745287Y-83096176D01*
X127740204Y-83095271D01*
X127666372Y-83094369D01*
X127522001Y-83092605D01*
X127521999Y-83092605D01*
X127516831Y-83092542D01*
X127296011Y-83126332D01*
X127083676Y-83195734D01*
X126885527Y-83298884D01*
X126881394Y-83301987D01*
X126881391Y-83301989D01*
X126857167Y-83320177D01*
X126706885Y-83433012D01*
X126552549Y-83594515D01*
X126445121Y-83751998D01*
X126390213Y-83796998D01*
X126319688Y-83805169D01*
X126255941Y-83773915D01*
X126235244Y-83749431D01*
X126154742Y-83624994D01*
X126154740Y-83624991D01*
X126151934Y-83620654D01*
X126001590Y-83455428D01*
X125997539Y-83452229D01*
X125997535Y-83452225D01*
X125830334Y-83320177D01*
X125830330Y-83320175D01*
X125826279Y-83316975D01*
X125630709Y-83209015D01*
X125625840Y-83207291D01*
X125625836Y-83207289D01*
X125425007Y-83136172D01*
X125425003Y-83136171D01*
X125420132Y-83134446D01*
X125415039Y-83133539D01*
X125415036Y-83133538D01*
X125205293Y-83096177D01*
X125205287Y-83096176D01*
X125200204Y-83095271D01*
X125126372Y-83094369D01*
X124982001Y-83092605D01*
X124981999Y-83092605D01*
X124976831Y-83092542D01*
X124756011Y-83126332D01*
X124543676Y-83195734D01*
X124345527Y-83298884D01*
X124341394Y-83301987D01*
X124341391Y-83301989D01*
X124317167Y-83320177D01*
X124166885Y-83433012D01*
X124012549Y-83594515D01*
X123886663Y-83779057D01*
X123870923Y-83812967D01*
X123817277Y-83928538D01*
X123792608Y-83981682D01*
X123732909Y-84196947D01*
X123709171Y-84419072D01*
X123709468Y-84424225D01*
X123709468Y-84424228D01*
X123721732Y-84636924D01*
X123722030Y-84642092D01*
X123723167Y-84647138D01*
X123723168Y-84647144D01*
X123743039Y-84735316D01*
X123771142Y-84860016D01*
X123855186Y-85066993D01*
X123905939Y-85149815D01*
X123969211Y-85253065D01*
X123971907Y-85257465D01*
X124118170Y-85426315D01*
X124290046Y-85569009D01*
X124363365Y-85611853D01*
X124363875Y-85612151D01*
X124412599Y-85663789D01*
X124425670Y-85733572D01*
X124398939Y-85799344D01*
X124358482Y-85832704D01*
X124350377Y-85836923D01*
X124341658Y-85842413D01*
X124171353Y-85970282D01*
X124163646Y-85977125D01*
X124016510Y-86131094D01*
X124010024Y-86139104D01*
X123890018Y-86315026D01*
X123884920Y-86324000D01*
X123795258Y-86517160D01*
X123791695Y-86526847D01*
X123736309Y-86726560D01*
X123737832Y-86734984D01*
X123750212Y-86738377D01*
X125199920Y-86738377D01*
X125268041Y-86758379D01*
X125314534Y-86812035D01*
X125325920Y-86864377D01*
X125325920Y-89660377D01*
X125305918Y-89728498D01*
X125252262Y-89774991D01*
X125199920Y-89786377D01*
X123755145Y-89786377D01*
X123741614Y-89790350D01*
X123740177Y-89800343D01*
X123770485Y-89934823D01*
X123773565Y-89944652D01*
X123853690Y-90141980D01*
X123858333Y-90151171D01*
X123969614Y-90332765D01*
X123975697Y-90341076D01*
X124115133Y-90502044D01*
X124122500Y-90509260D01*
X124286354Y-90645293D01*
X124294801Y-90651208D01*
X124363889Y-90691580D01*
X124412613Y-90743219D01*
X124425684Y-90813002D01*
X124398953Y-90878773D01*
X124358504Y-90912129D01*
X124345527Y-90918884D01*
X124341394Y-90921987D01*
X124341391Y-90921989D01*
X124182388Y-91041372D01*
X124166885Y-91053012D01*
X124136666Y-91084634D01*
X124020957Y-91205717D01*
X124012549Y-91214515D01*
X123886663Y-91399057D01*
X123792608Y-91601682D01*
X123732909Y-91816947D01*
X123709171Y-92039072D01*
X120700000Y-92039072D01*
X120700000Y-89266560D01*
X123736309Y-89266560D01*
X123737832Y-89274984D01*
X123750212Y-89278377D01*
X124799805Y-89278377D01*
X124815044Y-89273902D01*
X124816249Y-89272512D01*
X124817920Y-89264829D01*
X124817920Y-87264492D01*
X124813445Y-87249253D01*
X124812055Y-87248048D01*
X124804372Y-87246377D01*
X123755145Y-87246377D01*
X123741614Y-87250350D01*
X123740177Y-87260343D01*
X123770485Y-87394823D01*
X123773565Y-87404652D01*
X123853690Y-87601980D01*
X123858333Y-87611171D01*
X123969614Y-87792765D01*
X123975697Y-87801076D01*
X124115133Y-87962044D01*
X124122500Y-87969260D01*
X124286354Y-88105293D01*
X124294801Y-88111208D01*
X124364399Y-88151878D01*
X124413123Y-88203517D01*
X124426194Y-88273300D01*
X124399463Y-88339071D01*
X124359007Y-88372430D01*
X124350382Y-88376919D01*
X124341658Y-88382413D01*
X124171353Y-88510282D01*
X124163646Y-88517125D01*
X124016510Y-88671094D01*
X124010024Y-88679104D01*
X123890018Y-88855026D01*
X123884920Y-88864000D01*
X123795258Y-89057160D01*
X123791695Y-89066847D01*
X123736309Y-89266560D01*
X120700000Y-89266560D01*
X120700000Y-78607703D01*
X121890743Y-78607703D01*
X121928268Y-78892734D01*
X122004129Y-79170036D01*
X122116923Y-79434476D01*
X122264561Y-79681161D01*
X122444313Y-79905528D01*
X122652851Y-80103423D01*
X122886317Y-80271186D01*
X122890112Y-80273195D01*
X122890113Y-80273196D01*
X122911869Y-80284715D01*
X123140392Y-80405712D01*
X123410373Y-80504511D01*
X123691264Y-80565755D01*
X123719841Y-80568004D01*
X123914282Y-80583307D01*
X123914291Y-80583307D01*
X123916739Y-80583500D01*
X124072271Y-80583500D01*
X124074407Y-80583354D01*
X124074418Y-80583354D01*
X124282548Y-80569165D01*
X124282554Y-80569164D01*
X124286825Y-80568873D01*
X124291020Y-80568004D01*
X124291022Y-80568004D01*
X124427583Y-80539724D01*
X124568342Y-80510574D01*
X124839343Y-80414607D01*
X125094812Y-80282750D01*
X125098313Y-80280289D01*
X125098317Y-80280287D01*
X125212418Y-80200095D01*
X125330023Y-80117441D01*
X125540622Y-79921740D01*
X125722713Y-79699268D01*
X125872927Y-79454142D01*
X125988483Y-79190898D01*
X126067244Y-78914406D01*
X126107751Y-78629784D01*
X126107845Y-78611951D01*
X126107867Y-78607703D01*
X191890743Y-78607703D01*
X191928268Y-78892734D01*
X192004129Y-79170036D01*
X192116923Y-79434476D01*
X192264561Y-79681161D01*
X192444313Y-79905528D01*
X192652851Y-80103423D01*
X192886317Y-80271186D01*
X192890112Y-80273195D01*
X192890113Y-80273196D01*
X192911869Y-80284715D01*
X193140392Y-80405712D01*
X193410373Y-80504511D01*
X193691264Y-80565755D01*
X193719841Y-80568004D01*
X193914282Y-80583307D01*
X193914291Y-80583307D01*
X193916739Y-80583500D01*
X194072271Y-80583500D01*
X194074407Y-80583354D01*
X194074418Y-80583354D01*
X194282548Y-80569165D01*
X194282554Y-80569164D01*
X194286825Y-80568873D01*
X194291020Y-80568004D01*
X194291022Y-80568004D01*
X194427583Y-80539724D01*
X194568342Y-80510574D01*
X194839343Y-80414607D01*
X195094812Y-80282750D01*
X195098313Y-80280289D01*
X195098317Y-80280287D01*
X195212418Y-80200095D01*
X195330023Y-80117441D01*
X195540622Y-79921740D01*
X195722713Y-79699268D01*
X195872927Y-79454142D01*
X195988483Y-79190898D01*
X196067244Y-78914406D01*
X196107751Y-78629784D01*
X196107845Y-78611951D01*
X196109235Y-78346583D01*
X196109235Y-78346576D01*
X196109257Y-78342297D01*
X196071732Y-78057266D01*
X195995871Y-77779964D01*
X195883077Y-77515524D01*
X195735439Y-77268839D01*
X195555687Y-77044472D01*
X195347149Y-76846577D01*
X195113683Y-76678814D01*
X195091843Y-76667250D01*
X195068654Y-76654972D01*
X194859608Y-76544288D01*
X194589627Y-76445489D01*
X194308736Y-76384245D01*
X194277685Y-76381801D01*
X194085718Y-76366693D01*
X194085709Y-76366693D01*
X194083261Y-76366500D01*
X193927729Y-76366500D01*
X193925593Y-76366646D01*
X193925582Y-76366646D01*
X193717452Y-76380835D01*
X193717446Y-76380836D01*
X193713175Y-76381127D01*
X193708980Y-76381996D01*
X193708978Y-76381996D01*
X193572417Y-76410276D01*
X193431658Y-76439426D01*
X193160657Y-76535393D01*
X192905188Y-76667250D01*
X192901687Y-76669711D01*
X192901683Y-76669713D01*
X192891594Y-76676804D01*
X192669977Y-76832559D01*
X192459378Y-77028260D01*
X192277287Y-77250732D01*
X192127073Y-77495858D01*
X192011517Y-77759102D01*
X191932756Y-78035594D01*
X191892249Y-78320216D01*
X191892227Y-78324505D01*
X191892226Y-78324512D01*
X191890765Y-78603417D01*
X191890743Y-78607703D01*
X126107867Y-78607703D01*
X126109235Y-78346583D01*
X126109235Y-78346576D01*
X126109257Y-78342297D01*
X126071732Y-78057266D01*
X125995871Y-77779964D01*
X125883077Y-77515524D01*
X125735439Y-77268839D01*
X125555687Y-77044472D01*
X125347149Y-76846577D01*
X125113683Y-76678814D01*
X125091843Y-76667250D01*
X125068654Y-76654972D01*
X124859608Y-76544288D01*
X124589627Y-76445489D01*
X124308736Y-76384245D01*
X124277685Y-76381801D01*
X124085718Y-76366693D01*
X124085709Y-76366693D01*
X124083261Y-76366500D01*
X123927729Y-76366500D01*
X123925593Y-76366646D01*
X123925582Y-76366646D01*
X123717452Y-76380835D01*
X123717446Y-76380836D01*
X123713175Y-76381127D01*
X123708980Y-76381996D01*
X123708978Y-76381996D01*
X123572417Y-76410276D01*
X123431658Y-76439426D01*
X123160657Y-76535393D01*
X122905188Y-76667250D01*
X122901687Y-76669711D01*
X122901683Y-76669713D01*
X122891594Y-76676804D01*
X122669977Y-76832559D01*
X122459378Y-77028260D01*
X122277287Y-77250732D01*
X122127073Y-77495858D01*
X122011517Y-77759102D01*
X121932756Y-78035594D01*
X121892249Y-78320216D01*
X121892227Y-78324505D01*
X121892226Y-78324512D01*
X121890765Y-78603417D01*
X121890743Y-78607703D01*
X120700000Y-78607703D01*
X120700000Y-75351000D01*
X120720002Y-75282879D01*
X120773658Y-75236386D01*
X120826000Y-75225000D01*
X197074000Y-75225000D01*
X197142121Y-75245002D01*
G37*
%TD.AperFunction*%
M02*
