%TF.GenerationSoftware,KiCad,Pcbnew,(6.0.1)*%
%TF.CreationDate,2022-03-15T18:58:51+01:00*%
%TF.ProjectId,SignalGenerator,5369676e-616c-4476-956e-657261746f72,0.3*%
%TF.SameCoordinates,Original*%
%TF.FileFunction,Copper,L3,Inr*%
%TF.FilePolarity,Positive*%
%FSLAX46Y46*%
G04 Gerber Fmt 4.6, Leading zero omitted, Abs format (unit mm)*
G04 Created by KiCad (PCBNEW (6.0.1)) date 2022-03-15 18:58:51*
%MOMM*%
%LPD*%
G01*
G04 APERTURE LIST*
%TA.AperFunction,ComponentPad*%
%ADD10R,1.700000X1.700000*%
%TD*%
%TA.AperFunction,ComponentPad*%
%ADD11O,1.700000X1.700000*%
%TD*%
%TA.AperFunction,ComponentPad*%
%ADD12R,3.000000X3.000000*%
%TD*%
%TA.AperFunction,ComponentPad*%
%ADD13C,3.000000*%
%TD*%
%TA.AperFunction,ViaPad*%
%ADD14C,1.000000*%
%TD*%
%TA.AperFunction,ViaPad*%
%ADD15C,0.800000*%
%TD*%
G04 APERTURE END LIST*
D10*
X149425000Y-109650000D03*
D11*
X151965000Y-109650000D03*
X149425000Y-112190000D03*
X151965000Y-112190000D03*
X149425000Y-114730000D03*
X151965000Y-114730000D03*
D10*
X184000000Y-108775000D03*
D11*
X184000000Y-111315000D03*
X184000000Y-113855000D03*
D10*
X177300000Y-106775000D03*
D11*
X177300000Y-109315000D03*
X177300000Y-111855000D03*
D10*
X122501920Y-108367377D03*
D11*
X122501920Y-105827377D03*
X125041920Y-108367377D03*
X125041920Y-105827377D03*
X127581920Y-108367377D03*
X127581920Y-105827377D03*
X130121920Y-108367377D03*
X130121920Y-105827377D03*
X132661920Y-108367377D03*
X132661920Y-105827377D03*
D10*
X127611920Y-92072377D03*
D11*
X125071920Y-92072377D03*
X127611920Y-89532377D03*
X125071920Y-89532377D03*
X127611920Y-86992377D03*
X125071920Y-86992377D03*
X127611920Y-84452377D03*
X125071920Y-84452377D03*
D10*
X173525000Y-115575000D03*
D11*
X176065000Y-115575000D03*
D12*
X153332980Y-86042020D03*
D13*
X158332980Y-86042020D03*
X163332980Y-86042020D03*
X168332980Y-86042020D03*
D10*
X140051920Y-85247377D03*
D11*
X140051920Y-87787377D03*
X137511920Y-85247377D03*
X137511920Y-87787377D03*
X134971920Y-85247377D03*
X134971920Y-87787377D03*
D10*
X181325000Y-102600000D03*
D11*
X183865000Y-102600000D03*
X186405000Y-102600000D03*
D14*
X140240000Y-114125000D03*
X141850000Y-108605000D03*
X140430000Y-111401877D03*
X162700000Y-102175000D03*
D15*
X140500000Y-99075000D03*
X148900000Y-100575000D03*
X140200000Y-97375000D03*
X146900000Y-99704377D03*
D14*
X188750000Y-96000000D03*
X139250000Y-108500000D03*
X187500000Y-94750000D03*
X187500000Y-96000000D03*
X142600000Y-87800000D03*
X188750000Y-92000000D03*
X188750000Y-93500000D03*
X186250000Y-96000000D03*
X139975000Y-95325000D03*
X188750000Y-90750000D03*
X142600000Y-89000000D03*
X186250000Y-94750000D03*
X126250000Y-97500000D03*
X187500000Y-93500000D03*
X188750000Y-94750000D03*
X139975000Y-94100000D03*
X186250000Y-93500000D03*
X139000000Y-107250000D03*
X126750000Y-98490357D03*
X160500000Y-112000000D03*
X159250000Y-110750000D03*
X156750000Y-109500000D03*
X158000000Y-110750000D03*
X159250000Y-109500000D03*
X158000000Y-112000000D03*
X156750000Y-112000000D03*
X159250000Y-112000000D03*
X160500000Y-110750000D03*
X160500000Y-109500000D03*
X158000000Y-109500000D03*
X156750000Y-110750000D03*
X173700000Y-112875000D03*
D15*
X142240480Y-91999520D03*
X145386420Y-90499520D03*
X147520697Y-94173357D03*
X145290480Y-94519520D03*
%TA.AperFunction,Conductor*%
G36*
X197142121Y-75245002D02*
G01*
X197188614Y-75298658D01*
X197200000Y-75351000D01*
X197200000Y-117599000D01*
X197179998Y-117667121D01*
X197126342Y-117713614D01*
X197074000Y-117725000D01*
X120826000Y-117725000D01*
X120757879Y-117704998D01*
X120711386Y-117651342D01*
X120700000Y-117599000D01*
X120700000Y-114607703D01*
X121890743Y-114607703D01*
X121891302Y-114611947D01*
X121891302Y-114611951D01*
X121898153Y-114663990D01*
X121928268Y-114892734D01*
X122004129Y-115170036D01*
X122005813Y-115173984D01*
X122104412Y-115405144D01*
X122116923Y-115434476D01*
X122264561Y-115681161D01*
X122444313Y-115905528D01*
X122461397Y-115921740D01*
X122630839Y-116082534D01*
X122652851Y-116103423D01*
X122886317Y-116271186D01*
X122890112Y-116273195D01*
X122890113Y-116273196D01*
X122911869Y-116284715D01*
X123140392Y-116405712D01*
X123410373Y-116504511D01*
X123691264Y-116565755D01*
X123719841Y-116568004D01*
X123914282Y-116583307D01*
X123914291Y-116583307D01*
X123916739Y-116583500D01*
X124072271Y-116583500D01*
X124074407Y-116583354D01*
X124074418Y-116583354D01*
X124282548Y-116569165D01*
X124282554Y-116569164D01*
X124286825Y-116568873D01*
X124291020Y-116568004D01*
X124291022Y-116568004D01*
X124541585Y-116516115D01*
X124568342Y-116510574D01*
X124674069Y-116473134D01*
X172166500Y-116473134D01*
X172173255Y-116535316D01*
X172224385Y-116671705D01*
X172311739Y-116788261D01*
X172428295Y-116875615D01*
X172564684Y-116926745D01*
X172626866Y-116933500D01*
X174423134Y-116933500D01*
X174485316Y-116926745D01*
X174621705Y-116875615D01*
X174738261Y-116788261D01*
X174825615Y-116671705D01*
X174858682Y-116583500D01*
X174869598Y-116554382D01*
X174912240Y-116497618D01*
X174978802Y-116472918D01*
X175048150Y-116488126D01*
X175082817Y-116516114D01*
X175111250Y-116548938D01*
X175283126Y-116691632D01*
X175476000Y-116804338D01*
X175684692Y-116884030D01*
X175689760Y-116885061D01*
X175689763Y-116885062D01*
X175797017Y-116906883D01*
X175903597Y-116928567D01*
X175908772Y-116928757D01*
X175908774Y-116928757D01*
X176121673Y-116936564D01*
X176121677Y-116936564D01*
X176126837Y-116936753D01*
X176131957Y-116936097D01*
X176131959Y-116936097D01*
X176343288Y-116909025D01*
X176343289Y-116909025D01*
X176348416Y-116908368D01*
X176353366Y-116906883D01*
X176557429Y-116845661D01*
X176557434Y-116845659D01*
X176562384Y-116844174D01*
X176762994Y-116745896D01*
X176944860Y-116616173D01*
X176977648Y-116583500D01*
X177088616Y-116472918D01*
X177103096Y-116458489D01*
X177233453Y-116277077D01*
X177236365Y-116271186D01*
X177330136Y-116081453D01*
X177330137Y-116081451D01*
X177332430Y-116076811D01*
X177384470Y-115905528D01*
X177395865Y-115868023D01*
X177395865Y-115868021D01*
X177397370Y-115863069D01*
X177426529Y-115641590D01*
X177426611Y-115638240D01*
X177428074Y-115578365D01*
X177428074Y-115578361D01*
X177428156Y-115575000D01*
X177409852Y-115352361D01*
X177355431Y-115135702D01*
X177266354Y-114930840D01*
X177145014Y-114743277D01*
X176994670Y-114578051D01*
X176990619Y-114574852D01*
X176990615Y-114574848D01*
X176823414Y-114442800D01*
X176823410Y-114442798D01*
X176819359Y-114439598D01*
X176623789Y-114331638D01*
X176618920Y-114329914D01*
X176618916Y-114329912D01*
X176418087Y-114258795D01*
X176418083Y-114258794D01*
X176413212Y-114257069D01*
X176408119Y-114256162D01*
X176408116Y-114256161D01*
X176198373Y-114218800D01*
X176198367Y-114218799D01*
X176193284Y-114217894D01*
X176119452Y-114216992D01*
X175975081Y-114215228D01*
X175975079Y-114215228D01*
X175969911Y-114215165D01*
X175749091Y-114248955D01*
X175536756Y-114318357D01*
X175338607Y-114421507D01*
X175334474Y-114424610D01*
X175334471Y-114424612D01*
X175224260Y-114507361D01*
X175159965Y-114555635D01*
X175103537Y-114614684D01*
X175079283Y-114640064D01*
X175017759Y-114675494D01*
X174946846Y-114672037D01*
X174889060Y-114630791D01*
X174870207Y-114597243D01*
X174828767Y-114486703D01*
X174825615Y-114478295D01*
X174738261Y-114361739D01*
X174621705Y-114274385D01*
X174485316Y-114223255D01*
X174423134Y-114216500D01*
X172626866Y-114216500D01*
X172564684Y-114223255D01*
X172428295Y-114274385D01*
X172311739Y-114361739D01*
X172224385Y-114478295D01*
X172173255Y-114614684D01*
X172166500Y-114676866D01*
X172166500Y-116473134D01*
X124674069Y-116473134D01*
X124839343Y-116414607D01*
X125094812Y-116282750D01*
X125098313Y-116280289D01*
X125098317Y-116280287D01*
X125212417Y-116200096D01*
X125330023Y-116117441D01*
X125500162Y-115959338D01*
X125537479Y-115924661D01*
X125537481Y-115924658D01*
X125540622Y-115921740D01*
X125722713Y-115699268D01*
X125872927Y-115454142D01*
X125880455Y-115436994D01*
X125986757Y-115194830D01*
X125988483Y-115190898D01*
X126018313Y-115086181D01*
X126051884Y-114968327D01*
X126067244Y-114914406D01*
X126098228Y-114696695D01*
X148062251Y-114696695D01*
X148062548Y-114701848D01*
X148062548Y-114701851D01*
X148068011Y-114796590D01*
X148075110Y-114919715D01*
X148076247Y-114924761D01*
X148076248Y-114924767D01*
X148086065Y-114968327D01*
X148124222Y-115137639D01*
X148208266Y-115344616D01*
X148259019Y-115427438D01*
X148322291Y-115530688D01*
X148324987Y-115535088D01*
X148471250Y-115703938D01*
X148643126Y-115846632D01*
X148836000Y-115959338D01*
X149044692Y-116039030D01*
X149049760Y-116040061D01*
X149049763Y-116040062D01*
X149157017Y-116061883D01*
X149263597Y-116083567D01*
X149268772Y-116083757D01*
X149268774Y-116083757D01*
X149481673Y-116091564D01*
X149481677Y-116091564D01*
X149486837Y-116091753D01*
X149491957Y-116091097D01*
X149491959Y-116091097D01*
X149703288Y-116064025D01*
X149703289Y-116064025D01*
X149708416Y-116063368D01*
X149713366Y-116061883D01*
X149917429Y-116000661D01*
X149917434Y-116000659D01*
X149922384Y-115999174D01*
X150122994Y-115900896D01*
X150304860Y-115771173D01*
X150463096Y-115613489D01*
X150522594Y-115530689D01*
X150593453Y-115432077D01*
X150594776Y-115433028D01*
X150641645Y-115389857D01*
X150711580Y-115377625D01*
X150777026Y-115405144D01*
X150804875Y-115436994D01*
X150864987Y-115535088D01*
X151011250Y-115703938D01*
X151183126Y-115846632D01*
X151376000Y-115959338D01*
X151584692Y-116039030D01*
X151589760Y-116040061D01*
X151589763Y-116040062D01*
X151697017Y-116061883D01*
X151803597Y-116083567D01*
X151808772Y-116083757D01*
X151808774Y-116083757D01*
X152021673Y-116091564D01*
X152021677Y-116091564D01*
X152026837Y-116091753D01*
X152031957Y-116091097D01*
X152031959Y-116091097D01*
X152243288Y-116064025D01*
X152243289Y-116064025D01*
X152248416Y-116063368D01*
X152253366Y-116061883D01*
X152457429Y-116000661D01*
X152457434Y-116000659D01*
X152462384Y-115999174D01*
X152662994Y-115900896D01*
X152844860Y-115771173D01*
X153003096Y-115613489D01*
X153062594Y-115530689D01*
X153130435Y-115436277D01*
X153133453Y-115432077D01*
X153154320Y-115389857D01*
X153230136Y-115236453D01*
X153230137Y-115236451D01*
X153232430Y-115231811D01*
X153297370Y-115018069D01*
X153326529Y-114796590D01*
X153327832Y-114743277D01*
X153328074Y-114733365D01*
X153328074Y-114733361D01*
X153328156Y-114730000D01*
X153309852Y-114507361D01*
X153255431Y-114290702D01*
X153166354Y-114085840D01*
X153126906Y-114024862D01*
X153047822Y-113902617D01*
X153047820Y-113902614D01*
X153045014Y-113898277D01*
X152894670Y-113733051D01*
X152890619Y-113729852D01*
X152890615Y-113729848D01*
X152723414Y-113597800D01*
X152723410Y-113597798D01*
X152719359Y-113594598D01*
X152678053Y-113571796D01*
X152628084Y-113521364D01*
X152613312Y-113451921D01*
X152638428Y-113385516D01*
X152665780Y-113358909D01*
X152709603Y-113327650D01*
X152844860Y-113231173D01*
X152859331Y-113216753D01*
X152950741Y-113125661D01*
X153003096Y-113073489D01*
X153039454Y-113022892D01*
X153130435Y-112896277D01*
X153133453Y-112892077D01*
X153154320Y-112849857D01*
X153230136Y-112696453D01*
X153230137Y-112696451D01*
X153232430Y-112691811D01*
X153277251Y-112544288D01*
X153295865Y-112483023D01*
X153295865Y-112483021D01*
X153297370Y-112478069D01*
X153326529Y-112256590D01*
X153327462Y-112218393D01*
X153328074Y-112193365D01*
X153328074Y-112193361D01*
X153328156Y-112190000D01*
X153311372Y-111985851D01*
X155736719Y-111985851D01*
X155737235Y-111991995D01*
X155751498Y-112161851D01*
X155753268Y-112182934D01*
X155763436Y-112218393D01*
X155805947Y-112366646D01*
X155807783Y-112373050D01*
X155813805Y-112384767D01*
X155891217Y-112535393D01*
X155898187Y-112548956D01*
X156021035Y-112703953D01*
X156025728Y-112707947D01*
X156025729Y-112707948D01*
X156163302Y-112825031D01*
X156171650Y-112832136D01*
X156344294Y-112928624D01*
X156532392Y-112989740D01*
X156728777Y-113013158D01*
X156734912Y-113012686D01*
X156734914Y-113012686D01*
X156919830Y-112998457D01*
X156919834Y-112998456D01*
X156925972Y-112997984D01*
X157116463Y-112944798D01*
X157121967Y-112942018D01*
X157121969Y-112942017D01*
X157287495Y-112858404D01*
X157287497Y-112858403D01*
X157292996Y-112855625D01*
X157298211Y-112851551D01*
X157298431Y-112851463D01*
X157303053Y-112848530D01*
X157303611Y-112849409D01*
X157364205Y-112825376D01*
X157437251Y-112840855D01*
X157594294Y-112928624D01*
X157782392Y-112989740D01*
X157978777Y-113013158D01*
X157984912Y-113012686D01*
X157984914Y-113012686D01*
X158169830Y-112998457D01*
X158169834Y-112998456D01*
X158175972Y-112997984D01*
X158366463Y-112944798D01*
X158371967Y-112942018D01*
X158371969Y-112942017D01*
X158537495Y-112858404D01*
X158537497Y-112858403D01*
X158542996Y-112855625D01*
X158548211Y-112851551D01*
X158548431Y-112851463D01*
X158553053Y-112848530D01*
X158553611Y-112849409D01*
X158614205Y-112825376D01*
X158687251Y-112840855D01*
X158844294Y-112928624D01*
X159032392Y-112989740D01*
X159228777Y-113013158D01*
X159234912Y-113012686D01*
X159234914Y-113012686D01*
X159419830Y-112998457D01*
X159419834Y-112998456D01*
X159425972Y-112997984D01*
X159616463Y-112944798D01*
X159621967Y-112942018D01*
X159621969Y-112942017D01*
X159787495Y-112858404D01*
X159787497Y-112858403D01*
X159792996Y-112855625D01*
X159798211Y-112851551D01*
X159798431Y-112851463D01*
X159803053Y-112848530D01*
X159803611Y-112849409D01*
X159864205Y-112825376D01*
X159937251Y-112840855D01*
X160094294Y-112928624D01*
X160282392Y-112989740D01*
X160478777Y-113013158D01*
X160484912Y-113012686D01*
X160484914Y-113012686D01*
X160669830Y-112998457D01*
X160669834Y-112998456D01*
X160675972Y-112997984D01*
X160866463Y-112944798D01*
X160871967Y-112942018D01*
X160871969Y-112942017D01*
X161032651Y-112860851D01*
X172686719Y-112860851D01*
X172687235Y-112866995D01*
X172702138Y-113044472D01*
X172703268Y-113057934D01*
X172710092Y-113081731D01*
X172752944Y-113231173D01*
X172757783Y-113248050D01*
X172774885Y-113281326D01*
X172830375Y-113389297D01*
X172848187Y-113423956D01*
X172971035Y-113578953D01*
X172975728Y-113582947D01*
X172975729Y-113582948D01*
X173039854Y-113637522D01*
X173121650Y-113707136D01*
X173294294Y-113803624D01*
X173482392Y-113864740D01*
X173678777Y-113888158D01*
X173684912Y-113887686D01*
X173684914Y-113887686D01*
X173869830Y-113873457D01*
X173869834Y-113873456D01*
X173875972Y-113872984D01*
X174059669Y-113821695D01*
X182637251Y-113821695D01*
X182637548Y-113826848D01*
X182637548Y-113826851D01*
X182649346Y-114031466D01*
X182650110Y-114044715D01*
X182651247Y-114049761D01*
X182651248Y-114049767D01*
X182671119Y-114137939D01*
X182699222Y-114262639D01*
X182783266Y-114469616D01*
X182806396Y-114507361D01*
X182876978Y-114622540D01*
X182899987Y-114660088D01*
X183046250Y-114828938D01*
X183218126Y-114971632D01*
X183411000Y-115084338D01*
X183619692Y-115164030D01*
X183624760Y-115165061D01*
X183624763Y-115165062D01*
X183731462Y-115186770D01*
X183838597Y-115208567D01*
X183843772Y-115208757D01*
X183843774Y-115208757D01*
X184056673Y-115216564D01*
X184056677Y-115216564D01*
X184061837Y-115216753D01*
X184066957Y-115216097D01*
X184066959Y-115216097D01*
X184278288Y-115189025D01*
X184278289Y-115189025D01*
X184283416Y-115188368D01*
X184288366Y-115186883D01*
X184492429Y-115125661D01*
X184492434Y-115125659D01*
X184497384Y-115124174D01*
X184697994Y-115025896D01*
X184879860Y-114896173D01*
X185038096Y-114738489D01*
X185097594Y-114655689D01*
X185132075Y-114607703D01*
X191890743Y-114607703D01*
X191891302Y-114611947D01*
X191891302Y-114611951D01*
X191898153Y-114663990D01*
X191928268Y-114892734D01*
X192004129Y-115170036D01*
X192005813Y-115173984D01*
X192104412Y-115405144D01*
X192116923Y-115434476D01*
X192264561Y-115681161D01*
X192444313Y-115905528D01*
X192461397Y-115921740D01*
X192630839Y-116082534D01*
X192652851Y-116103423D01*
X192886317Y-116271186D01*
X192890112Y-116273195D01*
X192890113Y-116273196D01*
X192911869Y-116284715D01*
X193140392Y-116405712D01*
X193410373Y-116504511D01*
X193691264Y-116565755D01*
X193719841Y-116568004D01*
X193914282Y-116583307D01*
X193914291Y-116583307D01*
X193916739Y-116583500D01*
X194072271Y-116583500D01*
X194074407Y-116583354D01*
X194074418Y-116583354D01*
X194282548Y-116569165D01*
X194282554Y-116569164D01*
X194286825Y-116568873D01*
X194291020Y-116568004D01*
X194291022Y-116568004D01*
X194541585Y-116516115D01*
X194568342Y-116510574D01*
X194839343Y-116414607D01*
X195094812Y-116282750D01*
X195098313Y-116280289D01*
X195098317Y-116280287D01*
X195212417Y-116200096D01*
X195330023Y-116117441D01*
X195500162Y-115959338D01*
X195537479Y-115924661D01*
X195537481Y-115924658D01*
X195540622Y-115921740D01*
X195722713Y-115699268D01*
X195872927Y-115454142D01*
X195880455Y-115436994D01*
X195986757Y-115194830D01*
X195988483Y-115190898D01*
X196018313Y-115086181D01*
X196051884Y-114968327D01*
X196067244Y-114914406D01*
X196107751Y-114629784D01*
X196107831Y-114614684D01*
X196109235Y-114346583D01*
X196109235Y-114346576D01*
X196109257Y-114342297D01*
X196107627Y-114329912D01*
X196075494Y-114085840D01*
X196071732Y-114057266D01*
X196068299Y-114044715D01*
X196022256Y-113876411D01*
X195995871Y-113779964D01*
X195967894Y-113714373D01*
X195884763Y-113519476D01*
X195884761Y-113519472D01*
X195883077Y-113515524D01*
X195749625Y-113292542D01*
X195737643Y-113272521D01*
X195737640Y-113272517D01*
X195735439Y-113268839D01*
X195555687Y-113044472D01*
X195402572Y-112899171D01*
X195350258Y-112849527D01*
X195350255Y-112849525D01*
X195347149Y-112846577D01*
X195149585Y-112704612D01*
X195117172Y-112681321D01*
X195117171Y-112681320D01*
X195113683Y-112678814D01*
X195091843Y-112667250D01*
X195052396Y-112646364D01*
X194859608Y-112544288D01*
X194693202Y-112483392D01*
X194593658Y-112446964D01*
X194593656Y-112446963D01*
X194589627Y-112445489D01*
X194308736Y-112384245D01*
X194277685Y-112381801D01*
X194085718Y-112366693D01*
X194085709Y-112366693D01*
X194083261Y-112366500D01*
X193927729Y-112366500D01*
X193925593Y-112366646D01*
X193925582Y-112366646D01*
X193717452Y-112380835D01*
X193717446Y-112380836D01*
X193713175Y-112381127D01*
X193708980Y-112381996D01*
X193708978Y-112381996D01*
X193622711Y-112399861D01*
X193431658Y-112439426D01*
X193160657Y-112535393D01*
X193143423Y-112544288D01*
X193030785Y-112602425D01*
X192905188Y-112667250D01*
X192901687Y-112669711D01*
X192901683Y-112669713D01*
X192787582Y-112749905D01*
X192669977Y-112832559D01*
X192632920Y-112866995D01*
X192465155Y-113022892D01*
X192459378Y-113028260D01*
X192277287Y-113250732D01*
X192127073Y-113495858D01*
X192125347Y-113499791D01*
X192125346Y-113499792D01*
X192022953Y-113733051D01*
X192011517Y-113759102D01*
X192010342Y-113763229D01*
X192010341Y-113763230D01*
X191981425Y-113864740D01*
X191932756Y-114035594D01*
X191892249Y-114320216D01*
X191892227Y-114324505D01*
X191892226Y-114324512D01*
X191890765Y-114603417D01*
X191890743Y-114607703D01*
X185132075Y-114607703D01*
X185165435Y-114561277D01*
X185168453Y-114557077D01*
X185190474Y-114512522D01*
X185265136Y-114361453D01*
X185265137Y-114361451D01*
X185267430Y-114356811D01*
X185309636Y-114217894D01*
X185330865Y-114148023D01*
X185330865Y-114148021D01*
X185332370Y-114143069D01*
X185361529Y-113921590D01*
X185362346Y-113888158D01*
X185363074Y-113858365D01*
X185363074Y-113858361D01*
X185363156Y-113855000D01*
X185344852Y-113632361D01*
X185290431Y-113415702D01*
X185201354Y-113210840D01*
X185125374Y-113093393D01*
X185082822Y-113027617D01*
X185082820Y-113027614D01*
X185080014Y-113023277D01*
X184929670Y-112858051D01*
X184925619Y-112854852D01*
X184925615Y-112854848D01*
X184758414Y-112722800D01*
X184758410Y-112722798D01*
X184754359Y-112719598D01*
X184713053Y-112696796D01*
X184663084Y-112646364D01*
X184648312Y-112576921D01*
X184673428Y-112510516D01*
X184700780Y-112483909D01*
X184764361Y-112438557D01*
X184879860Y-112356173D01*
X184887727Y-112348334D01*
X185006108Y-112230365D01*
X185038096Y-112198489D01*
X185097594Y-112115689D01*
X185165435Y-112021277D01*
X185168453Y-112017077D01*
X185183802Y-111986022D01*
X185265136Y-111821453D01*
X185265137Y-111821451D01*
X185267430Y-111816811D01*
X185332370Y-111603069D01*
X185361529Y-111381590D01*
X185363156Y-111315000D01*
X185344852Y-111092361D01*
X185290431Y-110875702D01*
X185201354Y-110670840D01*
X185129196Y-110559301D01*
X185082822Y-110487617D01*
X185082820Y-110487614D01*
X185080014Y-110483277D01*
X185064163Y-110465857D01*
X184932798Y-110321488D01*
X184901746Y-110257642D01*
X184910141Y-110187143D01*
X184955317Y-110132375D01*
X184981761Y-110118706D01*
X185088297Y-110078767D01*
X185096705Y-110075615D01*
X185213261Y-109988261D01*
X185300615Y-109871705D01*
X185351745Y-109735316D01*
X185358500Y-109673134D01*
X185358500Y-107876866D01*
X185351745Y-107814684D01*
X185300615Y-107678295D01*
X185213261Y-107561739D01*
X185096705Y-107474385D01*
X184960316Y-107423255D01*
X184898134Y-107416500D01*
X183101866Y-107416500D01*
X183039684Y-107423255D01*
X182903295Y-107474385D01*
X182786739Y-107561739D01*
X182699385Y-107678295D01*
X182648255Y-107814684D01*
X182641500Y-107876866D01*
X182641500Y-109673134D01*
X182648255Y-109735316D01*
X182699385Y-109871705D01*
X182786739Y-109988261D01*
X182903295Y-110075615D01*
X182911704Y-110078767D01*
X182911705Y-110078768D01*
X183020451Y-110119535D01*
X183077216Y-110162176D01*
X183101916Y-110228738D01*
X183086709Y-110298087D01*
X183067316Y-110324568D01*
X182940629Y-110457138D01*
X182937715Y-110461410D01*
X182937714Y-110461411D01*
X182919838Y-110487617D01*
X182814743Y-110641680D01*
X182778575Y-110719598D01*
X182726154Y-110832530D01*
X182720688Y-110844305D01*
X182660989Y-111059570D01*
X182637251Y-111281695D01*
X182637548Y-111286848D01*
X182637548Y-111286851D01*
X182649812Y-111499547D01*
X182650110Y-111504715D01*
X182651247Y-111509761D01*
X182651248Y-111509767D01*
X182666777Y-111578670D01*
X182699222Y-111722639D01*
X182783266Y-111929616D01*
X182806396Y-111967361D01*
X182891250Y-112105830D01*
X182899987Y-112120088D01*
X183046250Y-112288938D01*
X183218126Y-112431632D01*
X183241840Y-112445489D01*
X183291445Y-112474476D01*
X183340169Y-112526114D01*
X183353240Y-112595897D01*
X183326509Y-112661669D01*
X183286055Y-112695027D01*
X183273607Y-112701507D01*
X183269474Y-112704610D01*
X183269471Y-112704612D01*
X183099100Y-112832530D01*
X183094965Y-112835635D01*
X182940629Y-112997138D01*
X182937715Y-113001410D01*
X182937714Y-113001411D01*
X182866802Y-113105365D01*
X182814743Y-113181680D01*
X182720688Y-113384305D01*
X182660989Y-113599570D01*
X182637251Y-113821695D01*
X174059669Y-113821695D01*
X174066463Y-113819798D01*
X174071967Y-113817018D01*
X174071969Y-113817017D01*
X174237495Y-113733404D01*
X174237497Y-113733403D01*
X174242996Y-113730625D01*
X174398847Y-113608861D01*
X174528078Y-113459145D01*
X174625769Y-113287179D01*
X174688197Y-113099513D01*
X174712985Y-112903295D01*
X174713380Y-112875000D01*
X174694080Y-112678167D01*
X174687294Y-112655689D01*
X174655069Y-112548956D01*
X174636916Y-112488831D01*
X174544066Y-112314204D01*
X174445512Y-112193365D01*
X174422960Y-112165713D01*
X174422957Y-112165710D01*
X174419065Y-112160938D01*
X174412724Y-112155692D01*
X174271425Y-112038799D01*
X174271421Y-112038797D01*
X174266675Y-112034870D01*
X174092701Y-111940802D01*
X173903768Y-111882318D01*
X173897643Y-111881674D01*
X173897642Y-111881674D01*
X173713204Y-111862289D01*
X173713202Y-111862289D01*
X173707075Y-111861645D01*
X173624576Y-111869153D01*
X173516251Y-111879011D01*
X173516248Y-111879012D01*
X173510112Y-111879570D01*
X173504206Y-111881308D01*
X173504202Y-111881309D01*
X173399076Y-111912249D01*
X173320381Y-111935410D01*
X173314923Y-111938263D01*
X173314919Y-111938265D01*
X173235613Y-111979726D01*
X173145110Y-112027040D01*
X172990975Y-112150968D01*
X172863846Y-112302474D01*
X172860879Y-112307872D01*
X172860875Y-112307877D01*
X172802366Y-112414306D01*
X172768567Y-112475787D01*
X172766706Y-112481654D01*
X172766705Y-112481656D01*
X172711498Y-112655689D01*
X172708765Y-112664306D01*
X172686719Y-112860851D01*
X161032651Y-112860851D01*
X161037495Y-112858404D01*
X161037497Y-112858403D01*
X161042996Y-112855625D01*
X161188254Y-112742137D01*
X161193991Y-112737655D01*
X161198847Y-112733861D01*
X161315811Y-112598357D01*
X161324049Y-112588813D01*
X161324050Y-112588811D01*
X161328078Y-112584145D01*
X161425769Y-112412179D01*
X161488197Y-112224513D01*
X161512985Y-112028295D01*
X161513380Y-112000000D01*
X161495897Y-111821695D01*
X175937251Y-111821695D01*
X175937548Y-111826848D01*
X175937548Y-111826851D01*
X175944287Y-111943732D01*
X175950110Y-112044715D01*
X175951247Y-112049761D01*
X175951248Y-112049767D01*
X175969572Y-112131074D01*
X175999222Y-112262639D01*
X176083266Y-112469616D01*
X176199987Y-112660088D01*
X176346250Y-112828938D01*
X176518126Y-112971632D01*
X176711000Y-113084338D01*
X176715825Y-113086180D01*
X176715826Y-113086181D01*
X176750739Y-113099513D01*
X176919692Y-113164030D01*
X176924760Y-113165061D01*
X176924763Y-113165062D01*
X177032017Y-113186883D01*
X177138597Y-113208567D01*
X177143772Y-113208757D01*
X177143774Y-113208757D01*
X177356673Y-113216564D01*
X177356677Y-113216564D01*
X177361837Y-113216753D01*
X177366957Y-113216097D01*
X177366959Y-113216097D01*
X177578288Y-113189025D01*
X177578289Y-113189025D01*
X177583416Y-113188368D01*
X177653839Y-113167240D01*
X177792429Y-113125661D01*
X177792434Y-113125659D01*
X177797384Y-113124174D01*
X177997994Y-113025896D01*
X178179860Y-112896173D01*
X178183971Y-112892077D01*
X178267318Y-112809020D01*
X178338096Y-112738489D01*
X178351671Y-112719598D01*
X178465435Y-112561277D01*
X178468453Y-112557077D01*
X178475175Y-112543477D01*
X178565136Y-112361453D01*
X178565137Y-112361451D01*
X178567430Y-112356811D01*
X178632370Y-112143069D01*
X178661529Y-111921590D01*
X178662556Y-111879570D01*
X178663074Y-111858365D01*
X178663074Y-111858361D01*
X178663156Y-111855000D01*
X178644852Y-111632361D01*
X178590431Y-111415702D01*
X178501354Y-111210840D01*
X178450765Y-111132642D01*
X178382822Y-111027617D01*
X178382820Y-111027614D01*
X178380014Y-111023277D01*
X178229670Y-110858051D01*
X178225619Y-110854852D01*
X178225615Y-110854848D01*
X178058414Y-110722800D01*
X178058410Y-110722798D01*
X178054359Y-110719598D01*
X178013053Y-110696796D01*
X177963084Y-110646364D01*
X177948312Y-110576921D01*
X177973428Y-110510516D01*
X178000780Y-110483909D01*
X178044603Y-110452650D01*
X178179860Y-110356173D01*
X178183971Y-110352077D01*
X178334435Y-110202137D01*
X178338096Y-110198489D01*
X178342796Y-110191949D01*
X178465435Y-110021277D01*
X178468453Y-110017077D01*
X178510037Y-109932939D01*
X178565136Y-109821453D01*
X178565137Y-109821451D01*
X178567430Y-109816811D01*
X178609971Y-109676793D01*
X178630865Y-109608023D01*
X178630865Y-109608021D01*
X178632370Y-109603069D01*
X178661529Y-109381590D01*
X178662380Y-109346759D01*
X178663074Y-109318365D01*
X178663074Y-109318361D01*
X178663156Y-109315000D01*
X178644852Y-109092361D01*
X178590431Y-108875702D01*
X178501354Y-108670840D01*
X178402348Y-108517800D01*
X178382822Y-108487617D01*
X178382820Y-108487614D01*
X178380014Y-108483277D01*
X178376532Y-108479450D01*
X178232798Y-108321488D01*
X178201746Y-108257642D01*
X178210141Y-108187143D01*
X178255317Y-108132375D01*
X178281761Y-108118706D01*
X178388297Y-108078767D01*
X178396705Y-108075615D01*
X178513261Y-107988261D01*
X178600615Y-107871705D01*
X178651745Y-107735316D01*
X178658500Y-107673134D01*
X178658500Y-105876866D01*
X178651745Y-105814684D01*
X178600615Y-105678295D01*
X178513261Y-105561739D01*
X178396705Y-105474385D01*
X178260316Y-105423255D01*
X178198134Y-105416500D01*
X176401866Y-105416500D01*
X176339684Y-105423255D01*
X176203295Y-105474385D01*
X176086739Y-105561739D01*
X175999385Y-105678295D01*
X175948255Y-105814684D01*
X175941500Y-105876866D01*
X175941500Y-107673134D01*
X175948255Y-107735316D01*
X175999385Y-107871705D01*
X176086739Y-107988261D01*
X176203295Y-108075615D01*
X176211704Y-108078767D01*
X176211705Y-108078768D01*
X176320451Y-108119535D01*
X176377216Y-108162176D01*
X176401916Y-108228738D01*
X176386709Y-108298087D01*
X176367316Y-108324568D01*
X176240629Y-108457138D01*
X176237715Y-108461410D01*
X176237714Y-108461411D01*
X176205156Y-108509140D01*
X176114743Y-108641680D01*
X176067716Y-108742992D01*
X176024838Y-108835365D01*
X176020688Y-108844305D01*
X175960989Y-109059570D01*
X175937251Y-109281695D01*
X175937548Y-109286848D01*
X175937548Y-109286851D01*
X175943011Y-109381590D01*
X175950110Y-109504715D01*
X175951247Y-109509761D01*
X175951248Y-109509767D01*
X175972256Y-109602984D01*
X175999222Y-109722639D01*
X176037461Y-109816811D01*
X176076186Y-109912179D01*
X176083266Y-109929616D01*
X176085965Y-109934020D01*
X176174666Y-110078767D01*
X176199987Y-110120088D01*
X176346250Y-110288938D01*
X176518126Y-110431632D01*
X176567608Y-110460547D01*
X176591445Y-110474476D01*
X176640169Y-110526114D01*
X176653240Y-110595897D01*
X176626509Y-110661669D01*
X176586055Y-110695027D01*
X176573607Y-110701507D01*
X176569474Y-110704610D01*
X176569471Y-110704612D01*
X176399100Y-110832530D01*
X176394965Y-110835635D01*
X176240629Y-110997138D01*
X176237715Y-111001410D01*
X176237714Y-111001411D01*
X176179096Y-111087342D01*
X176114743Y-111181680D01*
X176101051Y-111211178D01*
X176032770Y-111358277D01*
X176020688Y-111384305D01*
X175960989Y-111599570D01*
X175937251Y-111821695D01*
X161495897Y-111821695D01*
X161494080Y-111803167D01*
X161436916Y-111613831D01*
X161344066Y-111439204D01*
X161344588Y-111438927D01*
X161324801Y-111375151D01*
X161341230Y-111310993D01*
X161343216Y-111307498D01*
X161395427Y-111215590D01*
X161422723Y-111167542D01*
X161422725Y-111167537D01*
X161425769Y-111162179D01*
X161488197Y-110974513D01*
X161512985Y-110778295D01*
X161513380Y-110750000D01*
X161494080Y-110553167D01*
X161491415Y-110544338D01*
X161468270Y-110467679D01*
X161436916Y-110363831D01*
X161344066Y-110189204D01*
X161344588Y-110188927D01*
X161324801Y-110125151D01*
X161341230Y-110060993D01*
X161343216Y-110057498D01*
X161386627Y-109981081D01*
X161422723Y-109917542D01*
X161422725Y-109917537D01*
X161425769Y-109912179D01*
X161488197Y-109724513D01*
X161512985Y-109528295D01*
X161513380Y-109500000D01*
X161494080Y-109303167D01*
X161486048Y-109276562D01*
X161453290Y-109168065D01*
X161436916Y-109113831D01*
X161344066Y-108939204D01*
X161242325Y-108814457D01*
X161222960Y-108790713D01*
X161222957Y-108790710D01*
X161219065Y-108785938D01*
X161212724Y-108780692D01*
X161071425Y-108663799D01*
X161071421Y-108663797D01*
X161066675Y-108659870D01*
X160892701Y-108565802D01*
X160703768Y-108507318D01*
X160697643Y-108506674D01*
X160697642Y-108506674D01*
X160513204Y-108487289D01*
X160513202Y-108487289D01*
X160507075Y-108486645D01*
X160424960Y-108494118D01*
X160316251Y-108504011D01*
X160316248Y-108504012D01*
X160310112Y-108504570D01*
X160304206Y-108506308D01*
X160304202Y-108506309D01*
X160199076Y-108537249D01*
X160120381Y-108560410D01*
X160114923Y-108563263D01*
X160114919Y-108563265D01*
X159950566Y-108649187D01*
X159950561Y-108649190D01*
X159945110Y-108652040D01*
X159942831Y-108653872D01*
X159875950Y-108674113D01*
X159814979Y-108658953D01*
X159804983Y-108653548D01*
X159642701Y-108565802D01*
X159453768Y-108507318D01*
X159447643Y-108506674D01*
X159447642Y-108506674D01*
X159263204Y-108487289D01*
X159263202Y-108487289D01*
X159257075Y-108486645D01*
X159174960Y-108494118D01*
X159066251Y-108504011D01*
X159066248Y-108504012D01*
X159060112Y-108504570D01*
X159054206Y-108506308D01*
X159054202Y-108506309D01*
X158949076Y-108537249D01*
X158870381Y-108560410D01*
X158864923Y-108563263D01*
X158864919Y-108563265D01*
X158700566Y-108649187D01*
X158700561Y-108649190D01*
X158695110Y-108652040D01*
X158692831Y-108653872D01*
X158625950Y-108674113D01*
X158564979Y-108658953D01*
X158554983Y-108653548D01*
X158392701Y-108565802D01*
X158203768Y-108507318D01*
X158197643Y-108506674D01*
X158197642Y-108506674D01*
X158013204Y-108487289D01*
X158013202Y-108487289D01*
X158007075Y-108486645D01*
X157924960Y-108494118D01*
X157816251Y-108504011D01*
X157816248Y-108504012D01*
X157810112Y-108504570D01*
X157804206Y-108506308D01*
X157804202Y-108506309D01*
X157699076Y-108537249D01*
X157620381Y-108560410D01*
X157614923Y-108563263D01*
X157614919Y-108563265D01*
X157450566Y-108649187D01*
X157450561Y-108649190D01*
X157445110Y-108652040D01*
X157442831Y-108653872D01*
X157375950Y-108674113D01*
X157314979Y-108658953D01*
X157304983Y-108653548D01*
X157142701Y-108565802D01*
X156953768Y-108507318D01*
X156947643Y-108506674D01*
X156947642Y-108506674D01*
X156763204Y-108487289D01*
X156763202Y-108487289D01*
X156757075Y-108486645D01*
X156674960Y-108494118D01*
X156566251Y-108504011D01*
X156566248Y-108504012D01*
X156560112Y-108504570D01*
X156554206Y-108506308D01*
X156554202Y-108506309D01*
X156449076Y-108537249D01*
X156370381Y-108560410D01*
X156364923Y-108563263D01*
X156364919Y-108563265D01*
X156291793Y-108601495D01*
X156195110Y-108652040D01*
X156040975Y-108775968D01*
X155913846Y-108927474D01*
X155910879Y-108932872D01*
X155910875Y-108932877D01*
X155861582Y-109022542D01*
X155818567Y-109100787D01*
X155816706Y-109106654D01*
X155816705Y-109106656D01*
X155792239Y-109183784D01*
X155758765Y-109289306D01*
X155736719Y-109485851D01*
X155737235Y-109491995D01*
X155752525Y-109674080D01*
X155753268Y-109682934D01*
X155766460Y-109728941D01*
X155791657Y-109816811D01*
X155807783Y-109873050D01*
X155898187Y-110048956D01*
X155902014Y-110053784D01*
X155904407Y-110057498D01*
X155924495Y-110125593D01*
X155908910Y-110186452D01*
X155818567Y-110350787D01*
X155816706Y-110356654D01*
X155816705Y-110356656D01*
X155776338Y-110483909D01*
X155758765Y-110539306D01*
X155736719Y-110735851D01*
X155737235Y-110741995D01*
X155752333Y-110921797D01*
X155753268Y-110932934D01*
X155754967Y-110938858D01*
X155788155Y-111054598D01*
X155807783Y-111123050D01*
X155898187Y-111298956D01*
X155902014Y-111303784D01*
X155904407Y-111307498D01*
X155924495Y-111375593D01*
X155908910Y-111436452D01*
X155818567Y-111600787D01*
X155816706Y-111606654D01*
X155816705Y-111606656D01*
X155782460Y-111714610D01*
X155758765Y-111789306D01*
X155736719Y-111985851D01*
X153311372Y-111985851D01*
X153309852Y-111967361D01*
X153255431Y-111750702D01*
X153166354Y-111545840D01*
X153070953Y-111398372D01*
X153047822Y-111362617D01*
X153047820Y-111362614D01*
X153045014Y-111358277D01*
X152894670Y-111193051D01*
X152890619Y-111189852D01*
X152890615Y-111189848D01*
X152723414Y-111057800D01*
X152723410Y-111057798D01*
X152719359Y-111054598D01*
X152678053Y-111031796D01*
X152628084Y-110981364D01*
X152613312Y-110911921D01*
X152638428Y-110845516D01*
X152665780Y-110818909D01*
X152727659Y-110774771D01*
X152844860Y-110691173D01*
X152869628Y-110666492D01*
X152938001Y-110598357D01*
X153003096Y-110533489D01*
X153008396Y-110526114D01*
X153130435Y-110356277D01*
X153133453Y-110352077D01*
X153160137Y-110298087D01*
X153230136Y-110156453D01*
X153230137Y-110156451D01*
X153232430Y-110151811D01*
X153280486Y-109993642D01*
X153295865Y-109943023D01*
X153295865Y-109943021D01*
X153297370Y-109938069D01*
X153326529Y-109716590D01*
X153326941Y-109699736D01*
X153328074Y-109653365D01*
X153328074Y-109653361D01*
X153328156Y-109650000D01*
X153309852Y-109427361D01*
X153255431Y-109210702D01*
X153166354Y-109005840D01*
X153123245Y-108939204D01*
X153047822Y-108822617D01*
X153047820Y-108822614D01*
X153045014Y-108818277D01*
X152894670Y-108653051D01*
X152890619Y-108649852D01*
X152890615Y-108649848D01*
X152723414Y-108517800D01*
X152723410Y-108517798D01*
X152719359Y-108514598D01*
X152706172Y-108507318D01*
X152655688Y-108479450D01*
X152523789Y-108406638D01*
X152518920Y-108404914D01*
X152518916Y-108404912D01*
X152318087Y-108333795D01*
X152318083Y-108333794D01*
X152313212Y-108332069D01*
X152308119Y-108331162D01*
X152308116Y-108331161D01*
X152098373Y-108293800D01*
X152098367Y-108293799D01*
X152093284Y-108292894D01*
X152019452Y-108291992D01*
X151875081Y-108290228D01*
X151875079Y-108290228D01*
X151869911Y-108290165D01*
X151649091Y-108323955D01*
X151436756Y-108393357D01*
X151408306Y-108408167D01*
X151255685Y-108487617D01*
X151238607Y-108496507D01*
X151234474Y-108499610D01*
X151234471Y-108499612D01*
X151066335Y-108625852D01*
X151059965Y-108630635D01*
X151003537Y-108689684D01*
X150979283Y-108715064D01*
X150917759Y-108750494D01*
X150846846Y-108747037D01*
X150789060Y-108705791D01*
X150770207Y-108672243D01*
X150728767Y-108561703D01*
X150725615Y-108553295D01*
X150638261Y-108436739D01*
X150521705Y-108349385D01*
X150385316Y-108298255D01*
X150323134Y-108291500D01*
X148526866Y-108291500D01*
X148464684Y-108298255D01*
X148328295Y-108349385D01*
X148211739Y-108436739D01*
X148124385Y-108553295D01*
X148073255Y-108689684D01*
X148066500Y-108751866D01*
X148066500Y-110548134D01*
X148073255Y-110610316D01*
X148124385Y-110746705D01*
X148211739Y-110863261D01*
X148328295Y-110950615D01*
X148336704Y-110953767D01*
X148336705Y-110953768D01*
X148445451Y-110994535D01*
X148502216Y-111037176D01*
X148526916Y-111103738D01*
X148511709Y-111173087D01*
X148492316Y-111199568D01*
X148385212Y-111311646D01*
X148365629Y-111332138D01*
X148362720Y-111336403D01*
X148362714Y-111336411D01*
X148305202Y-111420720D01*
X148239743Y-111516680D01*
X148203206Y-111595392D01*
X148188818Y-111626390D01*
X148145688Y-111719305D01*
X148085989Y-111934570D01*
X148062251Y-112156695D01*
X148062548Y-112161848D01*
X148062548Y-112161851D01*
X148069651Y-112285031D01*
X148075110Y-112379715D01*
X148076247Y-112384761D01*
X148076248Y-112384767D01*
X148095370Y-112469616D01*
X148124222Y-112597639D01*
X148208266Y-112804616D01*
X148246492Y-112866995D01*
X148322291Y-112990688D01*
X148324987Y-112995088D01*
X148471250Y-113163938D01*
X148643126Y-113306632D01*
X148713595Y-113347811D01*
X148716445Y-113349476D01*
X148765169Y-113401114D01*
X148778240Y-113470897D01*
X148751509Y-113536669D01*
X148711055Y-113570027D01*
X148698607Y-113576507D01*
X148694474Y-113579610D01*
X148694471Y-113579612D01*
X148529943Y-113703143D01*
X148519965Y-113710635D01*
X148494894Y-113736870D01*
X148385212Y-113851646D01*
X148365629Y-113872138D01*
X148239743Y-114056680D01*
X148224003Y-114090590D01*
X148164940Y-114217831D01*
X148145688Y-114259305D01*
X148085989Y-114474570D01*
X148062251Y-114696695D01*
X126098228Y-114696695D01*
X126107751Y-114629784D01*
X126107831Y-114614684D01*
X126109235Y-114346583D01*
X126109235Y-114346576D01*
X126109257Y-114342297D01*
X126107627Y-114329912D01*
X126075494Y-114085840D01*
X126071732Y-114057266D01*
X126068299Y-114044715D01*
X126022256Y-113876411D01*
X125995871Y-113779964D01*
X125967894Y-113714373D01*
X125884763Y-113519476D01*
X125884761Y-113519472D01*
X125883077Y-113515524D01*
X125749625Y-113292542D01*
X125737643Y-113272521D01*
X125737640Y-113272517D01*
X125735439Y-113268839D01*
X125555687Y-113044472D01*
X125402572Y-112899171D01*
X125350258Y-112849527D01*
X125350255Y-112849525D01*
X125347149Y-112846577D01*
X125149585Y-112704612D01*
X125117172Y-112681321D01*
X125117171Y-112681320D01*
X125113683Y-112678814D01*
X125091843Y-112667250D01*
X125052396Y-112646364D01*
X124859608Y-112544288D01*
X124693202Y-112483392D01*
X124593658Y-112446964D01*
X124593656Y-112446963D01*
X124589627Y-112445489D01*
X124308736Y-112384245D01*
X124277685Y-112381801D01*
X124085718Y-112366693D01*
X124085709Y-112366693D01*
X124083261Y-112366500D01*
X123927729Y-112366500D01*
X123925593Y-112366646D01*
X123925582Y-112366646D01*
X123717452Y-112380835D01*
X123717446Y-112380836D01*
X123713175Y-112381127D01*
X123708980Y-112381996D01*
X123708978Y-112381996D01*
X123622711Y-112399861D01*
X123431658Y-112439426D01*
X123160657Y-112535393D01*
X123143423Y-112544288D01*
X123030785Y-112602425D01*
X122905188Y-112667250D01*
X122901687Y-112669711D01*
X122901683Y-112669713D01*
X122787582Y-112749905D01*
X122669977Y-112832559D01*
X122632920Y-112866995D01*
X122465155Y-113022892D01*
X122459378Y-113028260D01*
X122277287Y-113250732D01*
X122127073Y-113495858D01*
X122125347Y-113499791D01*
X122125346Y-113499792D01*
X122022953Y-113733051D01*
X122011517Y-113759102D01*
X122010342Y-113763229D01*
X122010341Y-113763230D01*
X121981425Y-113864740D01*
X121932756Y-114035594D01*
X121892249Y-114320216D01*
X121892227Y-114324505D01*
X121892226Y-114324512D01*
X121890765Y-114603417D01*
X121890743Y-114607703D01*
X120700000Y-114607703D01*
X120700000Y-111387728D01*
X139416719Y-111387728D01*
X139417235Y-111393872D01*
X139429996Y-111545840D01*
X139433268Y-111584811D01*
X139443281Y-111619731D01*
X139480837Y-111750702D01*
X139487783Y-111774927D01*
X139504885Y-111808203D01*
X139574538Y-111943732D01*
X139578187Y-111950833D01*
X139701035Y-112105830D01*
X139705728Y-112109824D01*
X139705729Y-112109825D01*
X139840488Y-112224513D01*
X139851650Y-112234013D01*
X140024294Y-112330501D01*
X140212392Y-112391617D01*
X140408777Y-112415035D01*
X140414912Y-112414563D01*
X140414914Y-112414563D01*
X140599830Y-112400334D01*
X140599834Y-112400333D01*
X140605972Y-112399861D01*
X140796463Y-112346675D01*
X140801967Y-112343895D01*
X140801969Y-112343894D01*
X140967495Y-112260281D01*
X140967497Y-112260280D01*
X140972996Y-112257502D01*
X141128847Y-112135738D01*
X141231272Y-112017077D01*
X141254049Y-111990690D01*
X141254050Y-111990688D01*
X141258078Y-111986022D01*
X141355769Y-111814056D01*
X141418197Y-111626390D01*
X141442985Y-111430172D01*
X141443380Y-111401877D01*
X141424080Y-111205044D01*
X141418444Y-111186375D01*
X141390059Y-111092361D01*
X141366916Y-111015708D01*
X141274066Y-110841081D01*
X141172953Y-110717104D01*
X141152960Y-110692590D01*
X141152957Y-110692587D01*
X141149065Y-110687815D01*
X141142724Y-110682569D01*
X141001425Y-110565676D01*
X141001421Y-110565674D01*
X140996675Y-110561747D01*
X140822701Y-110467679D01*
X140633768Y-110409195D01*
X140627643Y-110408551D01*
X140627642Y-110408551D01*
X140443204Y-110389166D01*
X140443202Y-110389166D01*
X140437075Y-110388522D01*
X140354576Y-110396030D01*
X140246251Y-110405888D01*
X140246248Y-110405889D01*
X140240112Y-110406447D01*
X140234206Y-110408185D01*
X140234202Y-110408186D01*
X140165769Y-110428327D01*
X140050381Y-110462287D01*
X140044923Y-110465140D01*
X140044919Y-110465142D01*
X140009022Y-110483909D01*
X139875110Y-110553917D01*
X139720975Y-110677845D01*
X139593846Y-110829351D01*
X139590879Y-110834749D01*
X139590875Y-110834754D01*
X139514043Y-110974513D01*
X139498567Y-111002664D01*
X139496706Y-111008531D01*
X139496705Y-111008533D01*
X139440627Y-111185313D01*
X139438765Y-111191183D01*
X139416719Y-111387728D01*
X120700000Y-111387728D01*
X120700000Y-105794072D01*
X121139171Y-105794072D01*
X121139468Y-105799225D01*
X121139468Y-105799228D01*
X121144931Y-105893967D01*
X121152030Y-106017092D01*
X121153167Y-106022138D01*
X121153168Y-106022144D01*
X121173039Y-106110316D01*
X121201142Y-106235016D01*
X121285186Y-106441993D01*
X121335939Y-106524815D01*
X121399211Y-106628065D01*
X121401907Y-106632465D01*
X121548170Y-106801315D01*
X121552150Y-106804619D01*
X121556901Y-106808564D01*
X121596536Y-106867467D01*
X121598033Y-106938448D01*
X121560917Y-106998970D01*
X121520645Y-107023489D01*
X121479833Y-107038789D01*
X121405215Y-107066762D01*
X121288659Y-107154116D01*
X121201305Y-107270672D01*
X121150175Y-107407061D01*
X121143420Y-107469243D01*
X121143420Y-109265511D01*
X121150175Y-109327693D01*
X121201305Y-109464082D01*
X121288659Y-109580638D01*
X121405215Y-109667992D01*
X121541604Y-109719122D01*
X121603786Y-109725877D01*
X123400054Y-109725877D01*
X123462236Y-109719122D01*
X123598625Y-109667992D01*
X123715181Y-109580638D01*
X123802535Y-109464082D01*
X123824719Y-109404906D01*
X123846518Y-109346759D01*
X123889160Y-109289995D01*
X123955722Y-109265295D01*
X124025070Y-109280503D01*
X124059737Y-109308491D01*
X124088170Y-109341315D01*
X124260046Y-109484009D01*
X124452920Y-109596715D01*
X124457745Y-109598557D01*
X124457746Y-109598558D01*
X124507164Y-109617429D01*
X124661612Y-109676407D01*
X124666680Y-109677438D01*
X124666683Y-109677439D01*
X124722810Y-109688858D01*
X124880517Y-109720944D01*
X124885692Y-109721134D01*
X124885694Y-109721134D01*
X125098593Y-109728941D01*
X125098597Y-109728941D01*
X125103757Y-109729130D01*
X125108877Y-109728474D01*
X125108879Y-109728474D01*
X125320208Y-109701402D01*
X125320209Y-109701402D01*
X125325336Y-109700745D01*
X125330286Y-109699260D01*
X125534349Y-109638038D01*
X125534354Y-109638036D01*
X125539304Y-109636551D01*
X125739914Y-109538273D01*
X125921780Y-109408550D01*
X125948835Y-109381590D01*
X126022188Y-109308492D01*
X126080016Y-109250866D01*
X126210373Y-109069454D01*
X126211696Y-109070405D01*
X126258565Y-109027234D01*
X126328500Y-109015002D01*
X126393946Y-109042521D01*
X126421795Y-109074371D01*
X126481907Y-109172465D01*
X126628170Y-109341315D01*
X126800046Y-109484009D01*
X126992920Y-109596715D01*
X126997745Y-109598557D01*
X126997746Y-109598558D01*
X127047164Y-109617429D01*
X127201612Y-109676407D01*
X127206680Y-109677438D01*
X127206683Y-109677439D01*
X127262810Y-109688858D01*
X127420517Y-109720944D01*
X127425692Y-109721134D01*
X127425694Y-109721134D01*
X127638593Y-109728941D01*
X127638597Y-109728941D01*
X127643757Y-109729130D01*
X127648877Y-109728474D01*
X127648879Y-109728474D01*
X127860208Y-109701402D01*
X127860209Y-109701402D01*
X127865336Y-109700745D01*
X127870286Y-109699260D01*
X128074349Y-109638038D01*
X128074354Y-109638036D01*
X128079304Y-109636551D01*
X128279914Y-109538273D01*
X128461780Y-109408550D01*
X128488835Y-109381590D01*
X128562188Y-109308492D01*
X128620016Y-109250866D01*
X128750373Y-109069454D01*
X128751696Y-109070405D01*
X128798565Y-109027234D01*
X128868500Y-109015002D01*
X128933946Y-109042521D01*
X128961795Y-109074371D01*
X129021907Y-109172465D01*
X129168170Y-109341315D01*
X129340046Y-109484009D01*
X129532920Y-109596715D01*
X129537745Y-109598557D01*
X129537746Y-109598558D01*
X129587164Y-109617429D01*
X129741612Y-109676407D01*
X129746680Y-109677438D01*
X129746683Y-109677439D01*
X129802810Y-109688858D01*
X129960517Y-109720944D01*
X129965692Y-109721134D01*
X129965694Y-109721134D01*
X130178593Y-109728941D01*
X130178597Y-109728941D01*
X130183757Y-109729130D01*
X130188877Y-109728474D01*
X130188879Y-109728474D01*
X130400208Y-109701402D01*
X130400209Y-109701402D01*
X130405336Y-109700745D01*
X130410286Y-109699260D01*
X130614349Y-109638038D01*
X130614354Y-109638036D01*
X130619304Y-109636551D01*
X130819914Y-109538273D01*
X131001780Y-109408550D01*
X131028835Y-109381590D01*
X131102188Y-109308492D01*
X131160016Y-109250866D01*
X131290373Y-109069454D01*
X131291560Y-109070307D01*
X131338880Y-109026739D01*
X131408817Y-109014522D01*
X131474258Y-109042055D01*
X131502086Y-109073888D01*
X131559614Y-109167765D01*
X131565697Y-109176076D01*
X131705133Y-109337044D01*
X131712500Y-109344260D01*
X131876354Y-109480293D01*
X131884801Y-109486208D01*
X132068676Y-109593656D01*
X132077962Y-109598106D01*
X132276921Y-109674080D01*
X132286819Y-109676956D01*
X132390170Y-109697983D01*
X132404219Y-109696787D01*
X132407920Y-109686442D01*
X132407920Y-109685894D01*
X132915920Y-109685894D01*
X132919984Y-109699736D01*
X132933398Y-109701770D01*
X132940104Y-109700911D01*
X132950182Y-109698769D01*
X133154175Y-109637568D01*
X133163762Y-109633810D01*
X133355015Y-109540116D01*
X133363865Y-109534841D01*
X133537248Y-109411169D01*
X133545120Y-109404516D01*
X133695972Y-109254189D01*
X133702650Y-109246342D01*
X133826923Y-109073397D01*
X133832233Y-109064560D01*
X133926590Y-108873644D01*
X133930389Y-108864049D01*
X133992297Y-108660287D01*
X133994475Y-108650214D01*
X133995906Y-108639339D01*
X133993695Y-108625155D01*
X133980537Y-108621377D01*
X132934035Y-108621377D01*
X132918796Y-108625852D01*
X132917591Y-108627242D01*
X132915920Y-108634925D01*
X132915920Y-109685894D01*
X132407920Y-109685894D01*
X132407920Y-108590851D01*
X140836719Y-108590851D01*
X140839658Y-108625852D01*
X140851939Y-108772104D01*
X140853268Y-108787934D01*
X140861969Y-108818277D01*
X140905811Y-108971172D01*
X140907783Y-108978050D01*
X140998187Y-109153956D01*
X141121035Y-109308953D01*
X141125728Y-109312947D01*
X141125729Y-109312948D01*
X141266229Y-109432522D01*
X141271650Y-109437136D01*
X141444294Y-109533624D01*
X141632392Y-109594740D01*
X141828777Y-109618158D01*
X141834912Y-109617686D01*
X141834914Y-109617686D01*
X142019830Y-109603457D01*
X142019834Y-109603456D01*
X142025972Y-109602984D01*
X142216463Y-109549798D01*
X142221967Y-109547018D01*
X142221969Y-109547017D01*
X142387495Y-109463404D01*
X142387497Y-109463403D01*
X142392996Y-109460625D01*
X142548847Y-109338861D01*
X142678078Y-109189145D01*
X142775769Y-109017179D01*
X142838197Y-108829513D01*
X142862985Y-108633295D01*
X142863380Y-108605000D01*
X142844080Y-108408167D01*
X142839124Y-108391750D01*
X142811733Y-108301029D01*
X142786916Y-108218831D01*
X142694066Y-108044204D01*
X142595623Y-107923501D01*
X142572960Y-107895713D01*
X142572957Y-107895710D01*
X142569065Y-107890938D01*
X142562724Y-107885692D01*
X142421425Y-107768799D01*
X142421421Y-107768797D01*
X142416675Y-107764870D01*
X142242701Y-107670802D01*
X142053768Y-107612318D01*
X142047643Y-107611674D01*
X142047642Y-107611674D01*
X141863204Y-107592289D01*
X141863202Y-107592289D01*
X141857075Y-107591645D01*
X141774576Y-107599153D01*
X141666251Y-107609011D01*
X141666248Y-107609012D01*
X141660112Y-107609570D01*
X141654206Y-107611308D01*
X141654202Y-107611309D01*
X141549076Y-107642249D01*
X141470381Y-107665410D01*
X141464923Y-107668263D01*
X141464919Y-107668265D01*
X141381267Y-107711998D01*
X141295110Y-107757040D01*
X141140975Y-107880968D01*
X141013846Y-108032474D01*
X141010879Y-108037872D01*
X141010875Y-108037877D01*
X140969369Y-108113377D01*
X140918567Y-108205787D01*
X140916706Y-108211654D01*
X140916705Y-108211656D01*
X140881864Y-108321488D01*
X140858765Y-108394306D01*
X140836719Y-108590851D01*
X132407920Y-108590851D01*
X132407920Y-108239377D01*
X132427922Y-108171256D01*
X132481578Y-108124763D01*
X132533920Y-108113377D01*
X133980264Y-108113377D01*
X133993795Y-108109404D01*
X133995100Y-108100324D01*
X133953134Y-107933252D01*
X133949814Y-107923501D01*
X133864892Y-107728191D01*
X133860025Y-107719116D01*
X133744346Y-107540303D01*
X133738056Y-107532134D01*
X133594726Y-107374617D01*
X133587193Y-107367592D01*
X133420059Y-107235599D01*
X133411476Y-107229897D01*
X133374522Y-107209497D01*
X133324551Y-107159064D01*
X133309779Y-107089622D01*
X133334895Y-107023216D01*
X133362247Y-106996609D01*
X133385960Y-106979695D01*
X133541780Y-106868550D01*
X133700016Y-106710866D01*
X133759514Y-106628066D01*
X133827355Y-106533654D01*
X133830373Y-106529454D01*
X133851240Y-106487234D01*
X133927056Y-106333830D01*
X133927057Y-106333828D01*
X133929350Y-106329188D01*
X133994290Y-106115446D01*
X134023449Y-105893967D01*
X134023531Y-105890617D01*
X134024994Y-105830742D01*
X134024994Y-105830738D01*
X134025076Y-105827377D01*
X134006772Y-105604738D01*
X133952351Y-105388079D01*
X133863274Y-105183217D01*
X133741934Y-104995654D01*
X133591590Y-104830428D01*
X133587539Y-104827229D01*
X133587535Y-104827225D01*
X133420334Y-104695177D01*
X133420330Y-104695175D01*
X133416279Y-104691975D01*
X133220709Y-104584015D01*
X133215840Y-104582291D01*
X133215836Y-104582289D01*
X133015007Y-104511172D01*
X133015003Y-104511171D01*
X133010132Y-104509446D01*
X133005039Y-104508539D01*
X133005036Y-104508538D01*
X132795293Y-104471177D01*
X132795287Y-104471176D01*
X132790204Y-104470271D01*
X132716372Y-104469369D01*
X132572001Y-104467605D01*
X132571999Y-104467605D01*
X132566831Y-104467542D01*
X132346011Y-104501332D01*
X132133676Y-104570734D01*
X131935527Y-104673884D01*
X131931394Y-104676987D01*
X131931391Y-104676989D01*
X131907167Y-104695177D01*
X131756885Y-104808012D01*
X131602549Y-104969515D01*
X131495121Y-105126998D01*
X131440213Y-105171998D01*
X131369688Y-105180169D01*
X131305941Y-105148915D01*
X131285244Y-105124431D01*
X131204742Y-104999994D01*
X131204740Y-104999991D01*
X131201934Y-104995654D01*
X131051590Y-104830428D01*
X131047539Y-104827229D01*
X131047535Y-104827225D01*
X130880334Y-104695177D01*
X130880330Y-104695175D01*
X130876279Y-104691975D01*
X130680709Y-104584015D01*
X130675840Y-104582291D01*
X130675836Y-104582289D01*
X130475007Y-104511172D01*
X130475003Y-104511171D01*
X130470132Y-104509446D01*
X130465039Y-104508539D01*
X130465036Y-104508538D01*
X130255293Y-104471177D01*
X130255287Y-104471176D01*
X130250204Y-104470271D01*
X130176372Y-104469369D01*
X130032001Y-104467605D01*
X130031999Y-104467605D01*
X130026831Y-104467542D01*
X129806011Y-104501332D01*
X129593676Y-104570734D01*
X129395527Y-104673884D01*
X129391394Y-104676987D01*
X129391391Y-104676989D01*
X129367167Y-104695177D01*
X129216885Y-104808012D01*
X129062549Y-104969515D01*
X128955121Y-105126998D01*
X128900213Y-105171998D01*
X128829688Y-105180169D01*
X128765941Y-105148915D01*
X128745244Y-105124431D01*
X128664742Y-104999994D01*
X128664740Y-104999991D01*
X128661934Y-104995654D01*
X128511590Y-104830428D01*
X128507539Y-104827229D01*
X128507535Y-104827225D01*
X128340334Y-104695177D01*
X128340330Y-104695175D01*
X128336279Y-104691975D01*
X128140709Y-104584015D01*
X128135840Y-104582291D01*
X128135836Y-104582289D01*
X127935007Y-104511172D01*
X127935003Y-104511171D01*
X127930132Y-104509446D01*
X127925039Y-104508539D01*
X127925036Y-104508538D01*
X127715293Y-104471177D01*
X127715287Y-104471176D01*
X127710204Y-104470271D01*
X127636372Y-104469369D01*
X127492001Y-104467605D01*
X127491999Y-104467605D01*
X127486831Y-104467542D01*
X127266011Y-104501332D01*
X127053676Y-104570734D01*
X126855527Y-104673884D01*
X126851394Y-104676987D01*
X126851391Y-104676989D01*
X126827167Y-104695177D01*
X126676885Y-104808012D01*
X126522549Y-104969515D01*
X126415121Y-105126998D01*
X126360213Y-105171998D01*
X126289688Y-105180169D01*
X126225941Y-105148915D01*
X126205244Y-105124431D01*
X126124742Y-104999994D01*
X126124740Y-104999991D01*
X126121934Y-104995654D01*
X125971590Y-104830428D01*
X125967539Y-104827229D01*
X125967535Y-104827225D01*
X125800334Y-104695177D01*
X125800330Y-104695175D01*
X125796279Y-104691975D01*
X125600709Y-104584015D01*
X125595840Y-104582291D01*
X125595836Y-104582289D01*
X125395007Y-104511172D01*
X125395003Y-104511171D01*
X125390132Y-104509446D01*
X125385039Y-104508539D01*
X125385036Y-104508538D01*
X125175293Y-104471177D01*
X125175287Y-104471176D01*
X125170204Y-104470271D01*
X125096372Y-104469369D01*
X124952001Y-104467605D01*
X124951999Y-104467605D01*
X124946831Y-104467542D01*
X124726011Y-104501332D01*
X124513676Y-104570734D01*
X124315527Y-104673884D01*
X124311394Y-104676987D01*
X124311391Y-104676989D01*
X124287167Y-104695177D01*
X124136885Y-104808012D01*
X123982549Y-104969515D01*
X123875121Y-105126998D01*
X123820213Y-105171998D01*
X123749688Y-105180169D01*
X123685941Y-105148915D01*
X123665244Y-105124431D01*
X123584742Y-104999994D01*
X123584740Y-104999991D01*
X123581934Y-104995654D01*
X123431590Y-104830428D01*
X123427539Y-104827229D01*
X123427535Y-104827225D01*
X123260334Y-104695177D01*
X123260330Y-104695175D01*
X123256279Y-104691975D01*
X123060709Y-104584015D01*
X123055840Y-104582291D01*
X123055836Y-104582289D01*
X122855007Y-104511172D01*
X122855003Y-104511171D01*
X122850132Y-104509446D01*
X122845039Y-104508539D01*
X122845036Y-104508538D01*
X122635293Y-104471177D01*
X122635287Y-104471176D01*
X122630204Y-104470271D01*
X122556372Y-104469369D01*
X122412001Y-104467605D01*
X122411999Y-104467605D01*
X122406831Y-104467542D01*
X122186011Y-104501332D01*
X121973676Y-104570734D01*
X121775527Y-104673884D01*
X121771394Y-104676987D01*
X121771391Y-104676989D01*
X121747167Y-104695177D01*
X121596885Y-104808012D01*
X121442549Y-104969515D01*
X121316663Y-105154057D01*
X121222608Y-105356682D01*
X121162909Y-105571947D01*
X121139171Y-105794072D01*
X120700000Y-105794072D01*
X120700000Y-103498134D01*
X179966500Y-103498134D01*
X179973255Y-103560316D01*
X180024385Y-103696705D01*
X180111739Y-103813261D01*
X180228295Y-103900615D01*
X180364684Y-103951745D01*
X180426866Y-103958500D01*
X182223134Y-103958500D01*
X182285316Y-103951745D01*
X182421705Y-103900615D01*
X182538261Y-103813261D01*
X182625615Y-103696705D01*
X182647799Y-103637529D01*
X182669598Y-103579382D01*
X182712240Y-103522618D01*
X182778802Y-103497918D01*
X182848150Y-103513126D01*
X182882817Y-103541114D01*
X182911250Y-103573938D01*
X183083126Y-103716632D01*
X183276000Y-103829338D01*
X183484692Y-103909030D01*
X183489760Y-103910061D01*
X183489763Y-103910062D01*
X183597017Y-103931883D01*
X183703597Y-103953567D01*
X183708772Y-103953757D01*
X183708774Y-103953757D01*
X183921673Y-103961564D01*
X183921677Y-103961564D01*
X183926837Y-103961753D01*
X183931957Y-103961097D01*
X183931959Y-103961097D01*
X184143288Y-103934025D01*
X184143289Y-103934025D01*
X184148416Y-103933368D01*
X184153366Y-103931883D01*
X184357429Y-103870661D01*
X184357434Y-103870659D01*
X184362384Y-103869174D01*
X184562994Y-103770896D01*
X184744860Y-103641173D01*
X184903096Y-103483489D01*
X185033453Y-103302077D01*
X185034776Y-103303028D01*
X185081645Y-103259857D01*
X185151580Y-103247625D01*
X185217026Y-103275144D01*
X185244875Y-103306994D01*
X185304987Y-103405088D01*
X185451250Y-103573938D01*
X185623126Y-103716632D01*
X185816000Y-103829338D01*
X186024692Y-103909030D01*
X186029760Y-103910061D01*
X186029763Y-103910062D01*
X186137017Y-103931883D01*
X186243597Y-103953567D01*
X186248772Y-103953757D01*
X186248774Y-103953757D01*
X186461673Y-103961564D01*
X186461677Y-103961564D01*
X186466837Y-103961753D01*
X186471957Y-103961097D01*
X186471959Y-103961097D01*
X186683288Y-103934025D01*
X186683289Y-103934025D01*
X186688416Y-103933368D01*
X186693366Y-103931883D01*
X186897429Y-103870661D01*
X186897434Y-103870659D01*
X186902384Y-103869174D01*
X187102994Y-103770896D01*
X187284860Y-103641173D01*
X187443096Y-103483489D01*
X187573453Y-103302077D01*
X187594320Y-103259857D01*
X187670136Y-103106453D01*
X187670137Y-103106451D01*
X187672430Y-103101811D01*
X187737370Y-102888069D01*
X187766529Y-102666590D01*
X187768156Y-102600000D01*
X187749852Y-102377361D01*
X187695431Y-102160702D01*
X187606354Y-101955840D01*
X187485014Y-101768277D01*
X187334670Y-101603051D01*
X187330619Y-101599852D01*
X187330615Y-101599848D01*
X187163414Y-101467800D01*
X187163410Y-101467798D01*
X187159359Y-101464598D01*
X187121673Y-101443794D01*
X187107135Y-101435769D01*
X186963789Y-101356638D01*
X186958920Y-101354914D01*
X186958916Y-101354912D01*
X186758087Y-101283795D01*
X186758083Y-101283794D01*
X186753212Y-101282069D01*
X186748119Y-101281162D01*
X186748116Y-101281161D01*
X186538373Y-101243800D01*
X186538367Y-101243799D01*
X186533284Y-101242894D01*
X186459452Y-101241992D01*
X186315081Y-101240228D01*
X186315079Y-101240228D01*
X186309911Y-101240165D01*
X186089091Y-101273955D01*
X185876756Y-101343357D01*
X185846443Y-101359137D01*
X185683819Y-101443794D01*
X185678607Y-101446507D01*
X185674474Y-101449610D01*
X185674471Y-101449612D01*
X185504100Y-101577530D01*
X185499965Y-101580635D01*
X185496393Y-101584373D01*
X185388729Y-101697037D01*
X185345629Y-101742138D01*
X185238201Y-101899621D01*
X185183293Y-101944621D01*
X185112768Y-101952792D01*
X185049021Y-101921538D01*
X185028324Y-101897054D01*
X184947822Y-101772617D01*
X184947820Y-101772614D01*
X184945014Y-101768277D01*
X184794670Y-101603051D01*
X184790619Y-101599852D01*
X184790615Y-101599848D01*
X184623414Y-101467800D01*
X184623410Y-101467798D01*
X184619359Y-101464598D01*
X184581673Y-101443794D01*
X184567135Y-101435769D01*
X184423789Y-101356638D01*
X184418920Y-101354914D01*
X184418916Y-101354912D01*
X184218087Y-101283795D01*
X184218083Y-101283794D01*
X184213212Y-101282069D01*
X184208119Y-101281162D01*
X184208116Y-101281161D01*
X183998373Y-101243800D01*
X183998367Y-101243799D01*
X183993284Y-101242894D01*
X183919452Y-101241992D01*
X183775081Y-101240228D01*
X183775079Y-101240228D01*
X183769911Y-101240165D01*
X183549091Y-101273955D01*
X183336756Y-101343357D01*
X183306443Y-101359137D01*
X183143819Y-101443794D01*
X183138607Y-101446507D01*
X183134474Y-101449610D01*
X183134471Y-101449612D01*
X182964100Y-101577530D01*
X182959965Y-101580635D01*
X182903537Y-101639684D01*
X182879283Y-101665064D01*
X182817759Y-101700494D01*
X182746846Y-101697037D01*
X182689060Y-101655791D01*
X182670207Y-101622243D01*
X182628767Y-101511703D01*
X182625615Y-101503295D01*
X182538261Y-101386739D01*
X182421705Y-101299385D01*
X182285316Y-101248255D01*
X182223134Y-101241500D01*
X180426866Y-101241500D01*
X180364684Y-101248255D01*
X180228295Y-101299385D01*
X180111739Y-101386739D01*
X180024385Y-101503295D01*
X179973255Y-101639684D01*
X179966500Y-101701866D01*
X179966500Y-103498134D01*
X120700000Y-103498134D01*
X120700000Y-97375000D01*
X139286496Y-97375000D01*
X139306458Y-97564928D01*
X139365473Y-97746556D01*
X139460960Y-97911944D01*
X139588747Y-98053866D01*
X139743248Y-98166118D01*
X139749274Y-98168801D01*
X139749281Y-98168805D01*
X139836519Y-98207645D01*
X139890615Y-98253625D01*
X139911265Y-98321552D01*
X139891913Y-98389860D01*
X139878907Y-98407062D01*
X139760960Y-98538056D01*
X139665473Y-98703444D01*
X139606458Y-98885072D01*
X139605768Y-98891633D01*
X139605768Y-98891635D01*
X139592106Y-99021628D01*
X139586496Y-99075000D01*
X139606458Y-99264928D01*
X139665473Y-99446556D01*
X139760960Y-99611944D01*
X139888747Y-99753866D01*
X140043248Y-99866118D01*
X140049276Y-99868802D01*
X140049278Y-99868803D01*
X140211681Y-99941109D01*
X140217712Y-99943794D01*
X140311112Y-99963647D01*
X140398056Y-99982128D01*
X140398061Y-99982128D01*
X140404513Y-99983500D01*
X140595487Y-99983500D01*
X140601939Y-99982128D01*
X140601944Y-99982128D01*
X140688888Y-99963647D01*
X140782288Y-99943794D01*
X140788319Y-99941109D01*
X140950722Y-99868803D01*
X140950724Y-99868802D01*
X140956752Y-99866118D01*
X141111253Y-99753866D01*
X141155813Y-99704377D01*
X145986496Y-99704377D01*
X145987186Y-99710942D01*
X146003778Y-99868803D01*
X146006458Y-99894305D01*
X146065473Y-100075933D01*
X146160960Y-100241321D01*
X146288747Y-100383243D01*
X146443248Y-100495495D01*
X146449276Y-100498179D01*
X146449278Y-100498180D01*
X146611681Y-100570486D01*
X146617712Y-100573171D01*
X146711113Y-100593024D01*
X146798056Y-100611505D01*
X146798061Y-100611505D01*
X146804513Y-100612877D01*
X146995487Y-100612877D01*
X147001939Y-100611505D01*
X147001944Y-100611505D01*
X147088887Y-100593024D01*
X147173683Y-100575000D01*
X147986496Y-100575000D01*
X148006458Y-100764928D01*
X148065473Y-100946556D01*
X148160960Y-101111944D01*
X148165378Y-101116851D01*
X148165379Y-101116852D01*
X148282927Y-101247402D01*
X148288747Y-101253866D01*
X148387843Y-101325864D01*
X148433640Y-101359137D01*
X148443248Y-101366118D01*
X148449276Y-101368802D01*
X148449278Y-101368803D01*
X148505690Y-101393919D01*
X148617712Y-101443794D01*
X148703839Y-101462101D01*
X148798056Y-101482128D01*
X148798061Y-101482128D01*
X148804513Y-101483500D01*
X148995487Y-101483500D01*
X149001939Y-101482128D01*
X149001944Y-101482128D01*
X149096161Y-101462101D01*
X149182288Y-101443794D01*
X149294310Y-101393919D01*
X149350722Y-101368803D01*
X149350724Y-101368802D01*
X149356752Y-101366118D01*
X149366361Y-101359137D01*
X149412157Y-101325864D01*
X149511253Y-101253866D01*
X149517073Y-101247402D01*
X149634621Y-101116852D01*
X149634622Y-101116851D01*
X149639040Y-101111944D01*
X149734527Y-100946556D01*
X149793542Y-100764928D01*
X149813504Y-100575000D01*
X149793542Y-100385072D01*
X149734527Y-100203444D01*
X149639040Y-100038056D01*
X149511253Y-99896134D01*
X149356752Y-99783882D01*
X149350724Y-99781198D01*
X149350722Y-99781197D01*
X149188319Y-99708891D01*
X149188318Y-99708891D01*
X149182288Y-99706206D01*
X149088888Y-99686353D01*
X149001944Y-99667872D01*
X149001939Y-99667872D01*
X148995487Y-99666500D01*
X148804513Y-99666500D01*
X148798061Y-99667872D01*
X148798056Y-99667872D01*
X148711112Y-99686353D01*
X148617712Y-99706206D01*
X148611682Y-99708891D01*
X148611681Y-99708891D01*
X148449278Y-99781197D01*
X148449276Y-99781198D01*
X148443248Y-99783882D01*
X148288747Y-99896134D01*
X148160960Y-100038056D01*
X148065473Y-100203444D01*
X148006458Y-100385072D01*
X147986496Y-100575000D01*
X147173683Y-100575000D01*
X147182288Y-100573171D01*
X147188319Y-100570486D01*
X147350722Y-100498180D01*
X147350724Y-100498179D01*
X147356752Y-100495495D01*
X147511253Y-100383243D01*
X147639040Y-100241321D01*
X147734527Y-100075933D01*
X147793542Y-99894305D01*
X147796223Y-99868803D01*
X147812814Y-99710942D01*
X147813504Y-99704377D01*
X147793542Y-99514449D01*
X147734527Y-99332821D01*
X147639040Y-99167433D01*
X147511253Y-99025511D01*
X147356752Y-98913259D01*
X147350724Y-98910575D01*
X147350722Y-98910574D01*
X147188319Y-98838268D01*
X147188318Y-98838268D01*
X147182288Y-98835583D01*
X147088888Y-98815730D01*
X147001944Y-98797249D01*
X147001939Y-98797249D01*
X146995487Y-98795877D01*
X146804513Y-98795877D01*
X146798061Y-98797249D01*
X146798056Y-98797249D01*
X146711112Y-98815730D01*
X146617712Y-98835583D01*
X146611682Y-98838268D01*
X146611681Y-98838268D01*
X146449278Y-98910574D01*
X146449276Y-98910575D01*
X146443248Y-98913259D01*
X146288747Y-99025511D01*
X146160960Y-99167433D01*
X146065473Y-99332821D01*
X146006458Y-99514449D01*
X145986496Y-99704377D01*
X141155813Y-99704377D01*
X141239040Y-99611944D01*
X141334527Y-99446556D01*
X141393542Y-99264928D01*
X141413504Y-99075000D01*
X141407894Y-99021628D01*
X141394232Y-98891635D01*
X141394232Y-98891633D01*
X141393542Y-98885072D01*
X141334527Y-98703444D01*
X141239040Y-98538056D01*
X141111253Y-98396134D01*
X140956752Y-98283882D01*
X140950726Y-98281199D01*
X140950719Y-98281195D01*
X140863481Y-98242355D01*
X140809385Y-98196375D01*
X140788735Y-98128448D01*
X140808087Y-98060140D01*
X140821093Y-98042938D01*
X140934621Y-97916852D01*
X140934622Y-97916851D01*
X140939040Y-97911944D01*
X141034527Y-97746556D01*
X141093542Y-97564928D01*
X141113504Y-97375000D01*
X141093542Y-97185072D01*
X141034527Y-97003444D01*
X140939040Y-96838056D01*
X140811253Y-96696134D01*
X140656752Y-96583882D01*
X140650724Y-96581198D01*
X140650722Y-96581197D01*
X140488319Y-96508891D01*
X140488318Y-96508891D01*
X140482288Y-96506206D01*
X140388887Y-96486353D01*
X140301944Y-96467872D01*
X140301939Y-96467872D01*
X140295487Y-96466500D01*
X140104513Y-96466500D01*
X140098061Y-96467872D01*
X140098056Y-96467872D01*
X140011112Y-96486353D01*
X139917712Y-96506206D01*
X139911682Y-96508891D01*
X139911681Y-96508891D01*
X139749278Y-96581197D01*
X139749276Y-96581198D01*
X139743248Y-96583882D01*
X139588747Y-96696134D01*
X139460960Y-96838056D01*
X139365473Y-97003444D01*
X139306458Y-97185072D01*
X139286496Y-97375000D01*
X120700000Y-97375000D01*
X120700000Y-94519520D01*
X144376976Y-94519520D01*
X144396938Y-94709448D01*
X144455953Y-94891076D01*
X144551440Y-95056464D01*
X144555858Y-95061371D01*
X144555859Y-95061372D01*
X144574304Y-95081857D01*
X144679227Y-95198386D01*
X144833728Y-95310638D01*
X144839756Y-95313322D01*
X144839758Y-95313323D01*
X145002161Y-95385629D01*
X145008192Y-95388314D01*
X145101593Y-95408167D01*
X145188536Y-95426648D01*
X145188541Y-95426648D01*
X145194993Y-95428020D01*
X145385967Y-95428020D01*
X145392419Y-95426648D01*
X145392424Y-95426648D01*
X145479368Y-95408167D01*
X145572768Y-95388314D01*
X145578799Y-95385629D01*
X145741202Y-95313323D01*
X145741204Y-95313322D01*
X145747232Y-95310638D01*
X145901733Y-95198386D01*
X146006656Y-95081857D01*
X146025101Y-95061372D01*
X146025102Y-95061371D01*
X146029520Y-95056464D01*
X146125007Y-94891076D01*
X146184022Y-94709448D01*
X146203984Y-94519520D01*
X146187563Y-94363285D01*
X146184712Y-94336155D01*
X146184712Y-94336153D01*
X146184022Y-94329592D01*
X146133258Y-94173357D01*
X146607193Y-94173357D01*
X146607883Y-94179922D01*
X146624304Y-94336155D01*
X146627155Y-94363285D01*
X146686170Y-94544913D01*
X146781657Y-94710301D01*
X146909444Y-94852223D01*
X147063945Y-94964475D01*
X147069973Y-94967159D01*
X147069975Y-94967160D01*
X147232378Y-95039466D01*
X147238409Y-95042151D01*
X147328836Y-95061372D01*
X147418753Y-95080485D01*
X147418758Y-95080485D01*
X147425210Y-95081857D01*
X147616184Y-95081857D01*
X147622636Y-95080485D01*
X147622641Y-95080485D01*
X147712558Y-95061372D01*
X147802985Y-95042151D01*
X147809016Y-95039466D01*
X147971419Y-94967160D01*
X147971421Y-94967159D01*
X147977449Y-94964475D01*
X148131950Y-94852223D01*
X148259737Y-94710301D01*
X148355224Y-94544913D01*
X148414239Y-94363285D01*
X148417091Y-94336155D01*
X148433511Y-94179922D01*
X148434201Y-94173357D01*
X148414239Y-93983429D01*
X148355224Y-93801801D01*
X148259737Y-93636413D01*
X148238109Y-93612392D01*
X148136372Y-93499402D01*
X148136371Y-93499401D01*
X148131950Y-93494491D01*
X148031278Y-93421348D01*
X147982791Y-93386120D01*
X147982790Y-93386119D01*
X147977449Y-93382239D01*
X147971421Y-93379555D01*
X147971419Y-93379554D01*
X147809016Y-93307248D01*
X147809015Y-93307248D01*
X147802985Y-93304563D01*
X147709584Y-93284710D01*
X147622641Y-93266229D01*
X147622636Y-93266229D01*
X147616184Y-93264857D01*
X147425210Y-93264857D01*
X147418758Y-93266229D01*
X147418753Y-93266229D01*
X147331810Y-93284710D01*
X147238409Y-93304563D01*
X147232379Y-93307248D01*
X147232378Y-93307248D01*
X147069975Y-93379554D01*
X147069973Y-93379555D01*
X147063945Y-93382239D01*
X147058604Y-93386119D01*
X147058603Y-93386120D01*
X147010116Y-93421348D01*
X146909444Y-93494491D01*
X146905023Y-93499401D01*
X146905022Y-93499402D01*
X146803286Y-93612392D01*
X146781657Y-93636413D01*
X146686170Y-93801801D01*
X146627155Y-93983429D01*
X146607193Y-94173357D01*
X146133258Y-94173357D01*
X146125007Y-94147964D01*
X146029520Y-93982576D01*
X145901733Y-93840654D01*
X145747232Y-93728402D01*
X145741204Y-93725718D01*
X145741202Y-93725717D01*
X145578799Y-93653411D01*
X145578798Y-93653411D01*
X145572768Y-93650726D01*
X145479368Y-93630873D01*
X145392424Y-93612392D01*
X145392419Y-93612392D01*
X145385967Y-93611020D01*
X145194993Y-93611020D01*
X145188541Y-93612392D01*
X145188536Y-93612392D01*
X145101593Y-93630873D01*
X145008192Y-93650726D01*
X145002162Y-93653411D01*
X145002161Y-93653411D01*
X144839758Y-93725717D01*
X144839756Y-93725718D01*
X144833728Y-93728402D01*
X144679227Y-93840654D01*
X144551440Y-93982576D01*
X144455953Y-94147964D01*
X144396938Y-94329592D01*
X144396248Y-94336153D01*
X144396248Y-94336155D01*
X144393397Y-94363285D01*
X144376976Y-94519520D01*
X120700000Y-94519520D01*
X120700000Y-92039072D01*
X123709171Y-92039072D01*
X123722030Y-92262092D01*
X123723167Y-92267138D01*
X123723168Y-92267144D01*
X123745175Y-92364791D01*
X123771142Y-92480016D01*
X123855186Y-92686993D01*
X123857885Y-92691397D01*
X123918700Y-92790638D01*
X123971907Y-92877465D01*
X124118170Y-93046315D01*
X124290046Y-93189009D01*
X124482920Y-93301715D01*
X124691612Y-93381407D01*
X124696680Y-93382438D01*
X124696683Y-93382439D01*
X124803937Y-93404260D01*
X124910517Y-93425944D01*
X124915692Y-93426134D01*
X124915694Y-93426134D01*
X125128593Y-93433941D01*
X125128597Y-93433941D01*
X125133757Y-93434130D01*
X125138877Y-93433474D01*
X125138879Y-93433474D01*
X125350208Y-93406402D01*
X125350209Y-93406402D01*
X125355336Y-93405745D01*
X125360286Y-93404260D01*
X125564349Y-93343038D01*
X125564354Y-93343036D01*
X125569304Y-93341551D01*
X125769914Y-93243273D01*
X125951780Y-93113550D01*
X126060011Y-93005696D01*
X126122382Y-92971781D01*
X126193188Y-92976969D01*
X126249950Y-93019615D01*
X126266932Y-93050718D01*
X126311305Y-93169082D01*
X126398659Y-93285638D01*
X126515215Y-93372992D01*
X126651604Y-93424122D01*
X126713786Y-93430877D01*
X128510054Y-93430877D01*
X128572236Y-93424122D01*
X128708625Y-93372992D01*
X128825181Y-93285638D01*
X128912535Y-93169082D01*
X128963665Y-93032693D01*
X128970420Y-92970511D01*
X128970420Y-91999520D01*
X141326976Y-91999520D01*
X141346938Y-92189448D01*
X141405953Y-92371076D01*
X141501440Y-92536464D01*
X141629227Y-92678386D01*
X141783728Y-92790638D01*
X141789756Y-92793322D01*
X141789758Y-92793323D01*
X141952161Y-92865629D01*
X141958192Y-92868314D01*
X142051593Y-92888167D01*
X142138536Y-92906648D01*
X142138541Y-92906648D01*
X142144993Y-92908020D01*
X142335967Y-92908020D01*
X142342419Y-92906648D01*
X142342424Y-92906648D01*
X142429367Y-92888167D01*
X142522768Y-92868314D01*
X142528799Y-92865629D01*
X142691202Y-92793323D01*
X142691204Y-92793322D01*
X142697232Y-92790638D01*
X142851733Y-92678386D01*
X142979520Y-92536464D01*
X143075007Y-92371076D01*
X143134022Y-92189448D01*
X143153984Y-91999520D01*
X143134022Y-91809592D01*
X143075007Y-91627964D01*
X142979520Y-91462576D01*
X142918475Y-91394778D01*
X142856155Y-91325565D01*
X142856154Y-91325564D01*
X142851733Y-91320654D01*
X142697232Y-91208402D01*
X142691204Y-91205718D01*
X142691202Y-91205717D01*
X142528799Y-91133411D01*
X142528798Y-91133411D01*
X142522768Y-91130726D01*
X142429368Y-91110873D01*
X142342424Y-91092392D01*
X142342419Y-91092392D01*
X142335967Y-91091020D01*
X142144993Y-91091020D01*
X142138541Y-91092392D01*
X142138536Y-91092392D01*
X142051592Y-91110873D01*
X141958192Y-91130726D01*
X141952162Y-91133411D01*
X141952161Y-91133411D01*
X141789758Y-91205717D01*
X141789756Y-91205718D01*
X141783728Y-91208402D01*
X141629227Y-91320654D01*
X141624806Y-91325564D01*
X141624805Y-91325565D01*
X141562486Y-91394778D01*
X141501440Y-91462576D01*
X141405953Y-91627964D01*
X141346938Y-91809592D01*
X141326976Y-91999520D01*
X128970420Y-91999520D01*
X128970420Y-91174243D01*
X128963665Y-91112061D01*
X128912535Y-90975672D01*
X128825181Y-90859116D01*
X128708625Y-90771762D01*
X128589607Y-90727144D01*
X128532843Y-90684502D01*
X128508143Y-90617941D01*
X128523350Y-90548592D01*
X128544897Y-90519912D01*
X128565360Y-90499520D01*
X144472916Y-90499520D01*
X144492878Y-90689448D01*
X144551893Y-90871076D01*
X144647380Y-91036464D01*
X144651798Y-91041371D01*
X144651799Y-91041372D01*
X144679579Y-91072225D01*
X144775167Y-91178386D01*
X144929668Y-91290638D01*
X144935696Y-91293322D01*
X144935698Y-91293323D01*
X145098101Y-91365629D01*
X145104132Y-91368314D01*
X145197533Y-91388167D01*
X145284476Y-91406648D01*
X145284481Y-91406648D01*
X145290933Y-91408020D01*
X145481907Y-91408020D01*
X145488359Y-91406648D01*
X145488364Y-91406648D01*
X145575308Y-91388167D01*
X145668708Y-91368314D01*
X145674739Y-91365629D01*
X145837142Y-91293323D01*
X145837144Y-91293322D01*
X145843172Y-91290638D01*
X145997673Y-91178386D01*
X146093261Y-91072225D01*
X146121041Y-91041372D01*
X146121042Y-91041371D01*
X146125460Y-91036464D01*
X146220947Y-90871076D01*
X146279962Y-90689448D01*
X146299924Y-90499520D01*
X146279962Y-90309592D01*
X146220947Y-90127964D01*
X146125460Y-89962576D01*
X145997673Y-89820654D01*
X145862015Y-89722092D01*
X145848514Y-89712283D01*
X145848513Y-89712282D01*
X145843172Y-89708402D01*
X145837144Y-89705718D01*
X145837142Y-89705717D01*
X145674739Y-89633411D01*
X145674738Y-89633411D01*
X145668708Y-89630726D01*
X145575307Y-89610873D01*
X145488364Y-89592392D01*
X145488359Y-89592392D01*
X145481907Y-89591020D01*
X145290933Y-89591020D01*
X145284481Y-89592392D01*
X145284476Y-89592392D01*
X145197533Y-89610873D01*
X145104132Y-89630726D01*
X145098102Y-89633411D01*
X145098101Y-89633411D01*
X144935698Y-89705717D01*
X144935696Y-89705718D01*
X144929668Y-89708402D01*
X144924327Y-89712282D01*
X144924326Y-89712283D01*
X144910825Y-89722092D01*
X144775167Y-89820654D01*
X144647380Y-89962576D01*
X144551893Y-90127964D01*
X144492878Y-90309592D01*
X144472916Y-90499520D01*
X128565360Y-90499520D01*
X128645972Y-90419189D01*
X128652650Y-90411342D01*
X128776923Y-90238397D01*
X128782233Y-90229560D01*
X128876590Y-90038644D01*
X128880389Y-90029049D01*
X128942297Y-89825287D01*
X128944475Y-89815214D01*
X128945906Y-89804339D01*
X128943695Y-89790155D01*
X128930537Y-89786377D01*
X127483920Y-89786377D01*
X127415799Y-89766375D01*
X127369306Y-89712719D01*
X127357920Y-89660377D01*
X127357920Y-89260262D01*
X127865920Y-89260262D01*
X127870395Y-89275501D01*
X127871785Y-89276706D01*
X127879468Y-89278377D01*
X128930264Y-89278377D01*
X128943795Y-89274404D01*
X128945100Y-89265324D01*
X128903134Y-89098252D01*
X128899814Y-89088501D01*
X128814892Y-88893191D01*
X128810025Y-88884116D01*
X128694346Y-88705303D01*
X128688056Y-88697134D01*
X128544726Y-88539617D01*
X128537193Y-88532592D01*
X128370059Y-88400599D01*
X128361472Y-88394894D01*
X128324036Y-88374228D01*
X128274066Y-88323796D01*
X128259294Y-88254353D01*
X128284410Y-88187948D01*
X128311762Y-88161341D01*
X128487247Y-88036169D01*
X128495120Y-88029516D01*
X128645972Y-87879189D01*
X128652650Y-87871342D01*
X128736917Y-87754072D01*
X133609171Y-87754072D01*
X133609468Y-87759225D01*
X133609468Y-87759228D01*
X133620377Y-87948419D01*
X133622030Y-87977092D01*
X133623167Y-87982138D01*
X133623168Y-87982144D01*
X133638999Y-88052387D01*
X133671142Y-88195016D01*
X133723411Y-88323741D01*
X133745005Y-88376919D01*
X133755186Y-88401993D01*
X133805783Y-88484560D01*
X133869211Y-88588065D01*
X133871907Y-88592465D01*
X134018170Y-88761315D01*
X134190046Y-88904009D01*
X134382920Y-89016715D01*
X134591612Y-89096407D01*
X134596680Y-89097438D01*
X134596683Y-89097439D01*
X134691782Y-89116787D01*
X134810517Y-89140944D01*
X134815692Y-89141134D01*
X134815694Y-89141134D01*
X135028593Y-89148941D01*
X135028597Y-89148941D01*
X135033757Y-89149130D01*
X135038877Y-89148474D01*
X135038879Y-89148474D01*
X135250208Y-89121402D01*
X135250209Y-89121402D01*
X135255336Y-89120745D01*
X135260286Y-89119260D01*
X135464349Y-89058038D01*
X135464354Y-89058036D01*
X135469304Y-89056551D01*
X135669914Y-88958273D01*
X135851780Y-88828550D01*
X136010016Y-88670866D01*
X136069514Y-88588066D01*
X136140373Y-88489454D01*
X136141696Y-88490405D01*
X136188565Y-88447234D01*
X136258500Y-88435002D01*
X136323946Y-88462521D01*
X136351795Y-88494371D01*
X136411907Y-88592465D01*
X136558170Y-88761315D01*
X136730046Y-88904009D01*
X136922920Y-89016715D01*
X137131612Y-89096407D01*
X137136680Y-89097438D01*
X137136683Y-89097439D01*
X137231782Y-89116787D01*
X137350517Y-89140944D01*
X137355692Y-89141134D01*
X137355694Y-89141134D01*
X137568593Y-89148941D01*
X137568597Y-89148941D01*
X137573757Y-89149130D01*
X137578877Y-89148474D01*
X137578879Y-89148474D01*
X137790208Y-89121402D01*
X137790209Y-89121402D01*
X137795336Y-89120745D01*
X137800286Y-89119260D01*
X138004349Y-89058038D01*
X138004354Y-89058036D01*
X138009304Y-89056551D01*
X138209914Y-88958273D01*
X138391780Y-88828550D01*
X138550016Y-88670866D01*
X138609514Y-88588066D01*
X138680373Y-88489454D01*
X138681560Y-88490307D01*
X138728880Y-88446739D01*
X138798817Y-88434522D01*
X138864258Y-88462055D01*
X138892086Y-88493888D01*
X138949614Y-88587765D01*
X138955697Y-88596076D01*
X139095133Y-88757044D01*
X139102500Y-88764260D01*
X139266354Y-88900293D01*
X139274801Y-88906208D01*
X139458676Y-89013656D01*
X139467962Y-89018106D01*
X139666921Y-89094080D01*
X139676819Y-89096956D01*
X139780170Y-89117983D01*
X139794219Y-89116787D01*
X139797920Y-89106442D01*
X139797920Y-89105894D01*
X140305920Y-89105894D01*
X140309984Y-89119736D01*
X140323398Y-89121770D01*
X140330104Y-89120911D01*
X140340182Y-89118769D01*
X140544175Y-89057568D01*
X140553762Y-89053810D01*
X140745015Y-88960116D01*
X140753865Y-88954841D01*
X140927248Y-88831169D01*
X140935120Y-88824516D01*
X141085972Y-88674189D01*
X141092650Y-88666342D01*
X141216923Y-88493397D01*
X141222233Y-88484560D01*
X141316590Y-88293644D01*
X141320389Y-88284049D01*
X141382297Y-88080287D01*
X141384475Y-88070214D01*
X141385906Y-88059339D01*
X141383695Y-88045155D01*
X141370537Y-88041377D01*
X140324035Y-88041377D01*
X140308796Y-88045852D01*
X140307591Y-88047242D01*
X140305920Y-88054925D01*
X140305920Y-89105894D01*
X139797920Y-89105894D01*
X139797920Y-87659377D01*
X139817922Y-87591256D01*
X139823193Y-87586689D01*
X151324981Y-87586689D01*
X151325351Y-87593510D01*
X151330875Y-87644372D01*
X151334501Y-87659624D01*
X151379656Y-87780074D01*
X151388194Y-87795669D01*
X151464695Y-87897744D01*
X151477256Y-87910305D01*
X151579331Y-87986806D01*
X151594926Y-87995344D01*
X151715374Y-88040498D01*
X151730629Y-88044125D01*
X151781494Y-88049651D01*
X151788308Y-88050020D01*
X153060865Y-88050020D01*
X153076104Y-88045545D01*
X153077309Y-88044155D01*
X153078980Y-88036472D01*
X153078980Y-88031904D01*
X153586980Y-88031904D01*
X153591455Y-88047143D01*
X153592845Y-88048348D01*
X153600528Y-88050019D01*
X154877649Y-88050019D01*
X154884470Y-88049649D01*
X154935332Y-88044125D01*
X154950584Y-88040499D01*
X155071034Y-87995344D01*
X155086629Y-87986806D01*
X155188704Y-87910305D01*
X155201265Y-87897744D01*
X155277766Y-87795669D01*
X155286304Y-87780074D01*
X155331458Y-87659626D01*
X155335085Y-87644371D01*
X155340611Y-87593506D01*
X155340980Y-87586692D01*
X155340980Y-86314135D01*
X155336505Y-86298896D01*
X155335115Y-86297691D01*
X155327432Y-86296020D01*
X153605095Y-86296020D01*
X153589856Y-86300495D01*
X153588651Y-86301885D01*
X153586980Y-86309568D01*
X153586980Y-88031904D01*
X153078980Y-88031904D01*
X153078980Y-86314135D01*
X153074505Y-86298896D01*
X153073115Y-86297691D01*
X153065432Y-86296020D01*
X151343096Y-86296020D01*
X151327857Y-86300495D01*
X151326652Y-86301885D01*
X151324981Y-86309568D01*
X151324981Y-87586689D01*
X139823193Y-87586689D01*
X139871578Y-87544763D01*
X139923920Y-87533377D01*
X141370264Y-87533377D01*
X141383795Y-87529404D01*
X141385100Y-87520324D01*
X141343134Y-87353252D01*
X141339814Y-87343501D01*
X141254892Y-87148191D01*
X141250025Y-87139116D01*
X141134346Y-86960303D01*
X141128056Y-86952134D01*
X140984213Y-86794054D01*
X140953161Y-86730208D01*
X140961555Y-86659710D01*
X141006732Y-86604941D01*
X141033176Y-86591272D01*
X141119619Y-86558866D01*
X141148625Y-86547992D01*
X141265181Y-86460638D01*
X141352535Y-86344082D01*
X141403665Y-86207693D01*
X141410420Y-86145511D01*
X141410420Y-86020938D01*
X156319897Y-86020938D01*
X156335662Y-86294340D01*
X156336487Y-86298545D01*
X156336488Y-86298553D01*
X156364807Y-86442893D01*
X156388385Y-86563073D01*
X156389772Y-86567123D01*
X156389773Y-86567128D01*
X156468523Y-86797136D01*
X156477092Y-86822164D01*
X156600140Y-87066819D01*
X156602566Y-87070348D01*
X156602569Y-87070354D01*
X156723547Y-87246377D01*
X156755254Y-87292510D01*
X156939562Y-87495063D01*
X156942857Y-87497818D01*
X156942858Y-87497819D01*
X156980634Y-87529404D01*
X157149655Y-87670727D01*
X157153296Y-87673011D01*
X157378004Y-87813971D01*
X157378008Y-87813973D01*
X157381644Y-87816254D01*
X157449524Y-87846903D01*
X157627325Y-87927184D01*
X157627329Y-87927186D01*
X157631237Y-87928950D01*
X157635357Y-87930170D01*
X157635356Y-87930170D01*
X157889703Y-88005511D01*
X157889707Y-88005512D01*
X157893816Y-88006729D01*
X157898050Y-88007377D01*
X157898055Y-88007378D01*
X158160278Y-88047503D01*
X158160280Y-88047503D01*
X158164520Y-88048152D01*
X158303892Y-88050342D01*
X158434051Y-88052387D01*
X158434057Y-88052387D01*
X158438342Y-88052454D01*
X158710215Y-88019554D01*
X158975107Y-87950061D01*
X158979067Y-87948421D01*
X158979072Y-87948419D01*
X159145422Y-87879514D01*
X159228116Y-87845261D01*
X159464562Y-87707093D01*
X159680069Y-87538114D01*
X159684660Y-87533377D01*
X159804039Y-87410187D01*
X159870649Y-87341451D01*
X159873182Y-87338003D01*
X159873186Y-87337998D01*
X160030237Y-87124198D01*
X160032775Y-87120743D01*
X160060134Y-87070354D01*
X160161398Y-86883850D01*
X160161399Y-86883848D01*
X160163448Y-86880074D01*
X160230999Y-86701306D01*
X160258731Y-86627915D01*
X160258732Y-86627911D01*
X160260249Y-86623897D01*
X160307798Y-86416286D01*
X160320429Y-86361137D01*
X160320430Y-86361133D01*
X160321387Y-86356953D01*
X160321895Y-86351268D01*
X160345511Y-86086647D01*
X160345511Y-86086645D01*
X160345731Y-86084181D01*
X160346064Y-86052465D01*
X160346147Y-86044504D01*
X160346147Y-86044503D01*
X160346173Y-86042020D01*
X160344736Y-86020938D01*
X161319897Y-86020938D01*
X161335662Y-86294340D01*
X161336487Y-86298545D01*
X161336488Y-86298553D01*
X161364807Y-86442893D01*
X161388385Y-86563073D01*
X161389772Y-86567123D01*
X161389773Y-86567128D01*
X161468523Y-86797136D01*
X161477092Y-86822164D01*
X161600140Y-87066819D01*
X161602566Y-87070348D01*
X161602569Y-87070354D01*
X161723547Y-87246377D01*
X161755254Y-87292510D01*
X161939562Y-87495063D01*
X161942857Y-87497818D01*
X161942858Y-87497819D01*
X161980634Y-87529404D01*
X162149655Y-87670727D01*
X162153296Y-87673011D01*
X162378004Y-87813971D01*
X162378008Y-87813973D01*
X162381644Y-87816254D01*
X162449524Y-87846903D01*
X162627325Y-87927184D01*
X162627329Y-87927186D01*
X162631237Y-87928950D01*
X162635357Y-87930170D01*
X162635356Y-87930170D01*
X162889703Y-88005511D01*
X162889707Y-88005512D01*
X162893816Y-88006729D01*
X162898050Y-88007377D01*
X162898055Y-88007378D01*
X163160278Y-88047503D01*
X163160280Y-88047503D01*
X163164520Y-88048152D01*
X163303892Y-88050342D01*
X163434051Y-88052387D01*
X163434057Y-88052387D01*
X163438342Y-88052454D01*
X163710215Y-88019554D01*
X163975107Y-87950061D01*
X163979067Y-87948421D01*
X163979072Y-87948419D01*
X164145422Y-87879514D01*
X164228116Y-87845261D01*
X164464562Y-87707093D01*
X164680069Y-87538114D01*
X164684660Y-87533377D01*
X164804039Y-87410187D01*
X164870649Y-87341451D01*
X164873182Y-87338003D01*
X164873186Y-87337998D01*
X165030237Y-87124198D01*
X165032775Y-87120743D01*
X165060134Y-87070354D01*
X165161398Y-86883850D01*
X165161399Y-86883848D01*
X165163448Y-86880074D01*
X165230999Y-86701306D01*
X165258731Y-86627915D01*
X165258732Y-86627911D01*
X165260249Y-86623897D01*
X165307798Y-86416286D01*
X165320429Y-86361137D01*
X165320430Y-86361133D01*
X165321387Y-86356953D01*
X165321895Y-86351268D01*
X165345511Y-86086647D01*
X165345511Y-86086645D01*
X165345731Y-86084181D01*
X165346064Y-86052465D01*
X165346147Y-86044504D01*
X165346147Y-86044503D01*
X165346173Y-86042020D01*
X165344736Y-86020938D01*
X166319897Y-86020938D01*
X166335662Y-86294340D01*
X166336487Y-86298545D01*
X166336488Y-86298553D01*
X166364807Y-86442893D01*
X166388385Y-86563073D01*
X166389772Y-86567123D01*
X166389773Y-86567128D01*
X166468523Y-86797136D01*
X166477092Y-86822164D01*
X166600140Y-87066819D01*
X166602566Y-87070348D01*
X166602569Y-87070354D01*
X166723547Y-87246377D01*
X166755254Y-87292510D01*
X166939562Y-87495063D01*
X166942857Y-87497818D01*
X166942858Y-87497819D01*
X166980634Y-87529404D01*
X167149655Y-87670727D01*
X167153296Y-87673011D01*
X167378004Y-87813971D01*
X167378008Y-87813973D01*
X167381644Y-87816254D01*
X167449524Y-87846903D01*
X167627325Y-87927184D01*
X167627329Y-87927186D01*
X167631237Y-87928950D01*
X167635357Y-87930170D01*
X167635356Y-87930170D01*
X167889703Y-88005511D01*
X167889707Y-88005512D01*
X167893816Y-88006729D01*
X167898050Y-88007377D01*
X167898055Y-88007378D01*
X168160278Y-88047503D01*
X168160280Y-88047503D01*
X168164520Y-88048152D01*
X168303892Y-88050342D01*
X168434051Y-88052387D01*
X168434057Y-88052387D01*
X168438342Y-88052454D01*
X168710215Y-88019554D01*
X168975107Y-87950061D01*
X168979067Y-87948421D01*
X168979072Y-87948419D01*
X169145422Y-87879514D01*
X169228116Y-87845261D01*
X169464562Y-87707093D01*
X169680069Y-87538114D01*
X169684660Y-87533377D01*
X169804039Y-87410187D01*
X169870649Y-87341451D01*
X169873182Y-87338003D01*
X169873186Y-87337998D01*
X170030237Y-87124198D01*
X170032775Y-87120743D01*
X170060134Y-87070354D01*
X170161398Y-86883850D01*
X170161399Y-86883848D01*
X170163448Y-86880074D01*
X170230999Y-86701306D01*
X170258731Y-86627915D01*
X170258732Y-86627911D01*
X170260249Y-86623897D01*
X170307798Y-86416286D01*
X170320429Y-86361137D01*
X170320430Y-86361133D01*
X170321387Y-86356953D01*
X170321895Y-86351268D01*
X170345511Y-86086647D01*
X170345511Y-86086645D01*
X170345731Y-86084181D01*
X170346064Y-86052465D01*
X170346147Y-86044504D01*
X170346147Y-86044503D01*
X170346173Y-86042020D01*
X170342997Y-85995428D01*
X170327839Y-85773075D01*
X170327838Y-85773069D01*
X170327547Y-85768798D01*
X170326017Y-85761407D01*
X170272881Y-85504829D01*
X170272012Y-85500632D01*
X170180597Y-85242485D01*
X170054993Y-84999132D01*
X170049944Y-84991947D01*
X169899988Y-84778582D01*
X169897525Y-84775077D01*
X169827446Y-84699663D01*
X169714026Y-84577608D01*
X169714023Y-84577605D01*
X169711105Y-84574465D01*
X169707790Y-84571751D01*
X169707786Y-84571748D01*
X169502503Y-84403726D01*
X169499185Y-84401010D01*
X169265684Y-84257921D01*
X169257326Y-84254252D01*
X169018853Y-84149569D01*
X169018849Y-84149568D01*
X169014925Y-84147845D01*
X168751546Y-84072820D01*
X168747304Y-84072216D01*
X168747298Y-84072215D01*
X168545824Y-84043541D01*
X168480423Y-84034233D01*
X168336569Y-84033480D01*
X168210857Y-84032822D01*
X168210851Y-84032822D01*
X168206571Y-84032800D01*
X168202327Y-84033359D01*
X168202323Y-84033359D01*
X168094396Y-84047568D01*
X167935058Y-84068545D01*
X167930918Y-84069678D01*
X167930916Y-84069678D01*
X167861398Y-84088696D01*
X167670908Y-84140808D01*
X167666960Y-84142492D01*
X167422962Y-84246566D01*
X167422958Y-84246568D01*
X167419010Y-84248252D01*
X167354165Y-84287061D01*
X167187705Y-84386684D01*
X167187701Y-84386687D01*
X167184023Y-84388888D01*
X166970298Y-84560114D01*
X166781788Y-84758762D01*
X166621982Y-84981156D01*
X166493837Y-85223181D01*
X166492365Y-85227204D01*
X166492363Y-85227208D01*
X166419500Y-85426315D01*
X166399723Y-85480357D01*
X166341384Y-85747927D01*
X166319897Y-86020938D01*
X165344736Y-86020938D01*
X165342997Y-85995428D01*
X165327839Y-85773075D01*
X165327838Y-85773069D01*
X165327547Y-85768798D01*
X165326017Y-85761407D01*
X165272881Y-85504829D01*
X165272012Y-85500632D01*
X165180597Y-85242485D01*
X165054993Y-84999132D01*
X165049944Y-84991947D01*
X164899988Y-84778582D01*
X164897525Y-84775077D01*
X164827446Y-84699663D01*
X164714026Y-84577608D01*
X164714023Y-84577605D01*
X164711105Y-84574465D01*
X164707790Y-84571751D01*
X164707786Y-84571748D01*
X164502503Y-84403726D01*
X164499185Y-84401010D01*
X164265684Y-84257921D01*
X164257326Y-84254252D01*
X164018853Y-84149569D01*
X164018849Y-84149568D01*
X164014925Y-84147845D01*
X163751546Y-84072820D01*
X163747304Y-84072216D01*
X163747298Y-84072215D01*
X163545824Y-84043541D01*
X163480423Y-84034233D01*
X163336569Y-84033480D01*
X163210857Y-84032822D01*
X163210851Y-84032822D01*
X163206571Y-84032800D01*
X163202327Y-84033359D01*
X163202323Y-84033359D01*
X163094396Y-84047568D01*
X162935058Y-84068545D01*
X162930918Y-84069678D01*
X162930916Y-84069678D01*
X162861398Y-84088696D01*
X162670908Y-84140808D01*
X162666960Y-84142492D01*
X162422962Y-84246566D01*
X162422958Y-84246568D01*
X162419010Y-84248252D01*
X162354165Y-84287061D01*
X162187705Y-84386684D01*
X162187701Y-84386687D01*
X162184023Y-84388888D01*
X161970298Y-84560114D01*
X161781788Y-84758762D01*
X161621982Y-84981156D01*
X161493837Y-85223181D01*
X161492365Y-85227204D01*
X161492363Y-85227208D01*
X161419500Y-85426315D01*
X161399723Y-85480357D01*
X161341384Y-85747927D01*
X161319897Y-86020938D01*
X160344736Y-86020938D01*
X160342997Y-85995428D01*
X160327839Y-85773075D01*
X160327838Y-85773069D01*
X160327547Y-85768798D01*
X160326017Y-85761407D01*
X160272881Y-85504829D01*
X160272012Y-85500632D01*
X160180597Y-85242485D01*
X160054993Y-84999132D01*
X160049944Y-84991947D01*
X159899988Y-84778582D01*
X159897525Y-84775077D01*
X159827446Y-84699663D01*
X159714026Y-84577608D01*
X159714023Y-84577605D01*
X159711105Y-84574465D01*
X159707790Y-84571751D01*
X159707786Y-84571748D01*
X159502503Y-84403726D01*
X159499185Y-84401010D01*
X159265684Y-84257921D01*
X159257326Y-84254252D01*
X159018853Y-84149569D01*
X159018849Y-84149568D01*
X159014925Y-84147845D01*
X158751546Y-84072820D01*
X158747304Y-84072216D01*
X158747298Y-84072215D01*
X158545824Y-84043541D01*
X158480423Y-84034233D01*
X158336569Y-84033480D01*
X158210857Y-84032822D01*
X158210851Y-84032822D01*
X158206571Y-84032800D01*
X158202327Y-84033359D01*
X158202323Y-84033359D01*
X158094396Y-84047568D01*
X157935058Y-84068545D01*
X157930918Y-84069678D01*
X157930916Y-84069678D01*
X157861398Y-84088696D01*
X157670908Y-84140808D01*
X157666960Y-84142492D01*
X157422962Y-84246566D01*
X157422958Y-84246568D01*
X157419010Y-84248252D01*
X157354165Y-84287061D01*
X157187705Y-84386684D01*
X157187701Y-84386687D01*
X157184023Y-84388888D01*
X156970298Y-84560114D01*
X156781788Y-84758762D01*
X156621982Y-84981156D01*
X156493837Y-85223181D01*
X156492365Y-85227204D01*
X156492363Y-85227208D01*
X156419500Y-85426315D01*
X156399723Y-85480357D01*
X156341384Y-85747927D01*
X156319897Y-86020938D01*
X141410420Y-86020938D01*
X141410420Y-85769905D01*
X151324980Y-85769905D01*
X151329455Y-85785144D01*
X151330845Y-85786349D01*
X151338528Y-85788020D01*
X153060865Y-85788020D01*
X153076104Y-85783545D01*
X153077309Y-85782155D01*
X153078980Y-85774472D01*
X153078980Y-85769905D01*
X153586980Y-85769905D01*
X153591455Y-85785144D01*
X153592845Y-85786349D01*
X153600528Y-85788020D01*
X155322864Y-85788020D01*
X155338103Y-85783545D01*
X155339308Y-85782155D01*
X155340979Y-85774472D01*
X155340979Y-84497351D01*
X155340609Y-84490530D01*
X155335085Y-84439668D01*
X155331459Y-84424416D01*
X155286304Y-84303966D01*
X155277766Y-84288371D01*
X155201265Y-84186296D01*
X155188704Y-84173735D01*
X155086629Y-84097234D01*
X155071034Y-84088696D01*
X154950586Y-84043542D01*
X154935331Y-84039915D01*
X154884466Y-84034389D01*
X154877652Y-84034020D01*
X153605095Y-84034020D01*
X153589856Y-84038495D01*
X153588651Y-84039885D01*
X153586980Y-84047568D01*
X153586980Y-85769905D01*
X153078980Y-85769905D01*
X153078980Y-84052136D01*
X153074505Y-84036897D01*
X153073115Y-84035692D01*
X153065432Y-84034021D01*
X151788311Y-84034021D01*
X151781490Y-84034391D01*
X151730628Y-84039915D01*
X151715376Y-84043541D01*
X151594926Y-84088696D01*
X151579331Y-84097234D01*
X151477256Y-84173735D01*
X151464695Y-84186296D01*
X151388194Y-84288371D01*
X151379656Y-84303966D01*
X151334502Y-84424414D01*
X151330875Y-84439669D01*
X151325349Y-84490534D01*
X151324980Y-84497348D01*
X151324980Y-85769905D01*
X141410420Y-85769905D01*
X141410420Y-84349243D01*
X141403665Y-84287061D01*
X141352535Y-84150672D01*
X141265181Y-84034116D01*
X141148625Y-83946762D01*
X141012236Y-83895632D01*
X140950054Y-83888877D01*
X139153786Y-83888877D01*
X139091604Y-83895632D01*
X138955215Y-83946762D01*
X138838659Y-84034116D01*
X138751305Y-84150672D01*
X138748153Y-84159080D01*
X138706839Y-84269284D01*
X138664197Y-84326048D01*
X138597636Y-84350748D01*
X138528287Y-84335540D01*
X138495663Y-84309853D01*
X138445071Y-84254252D01*
X138445062Y-84254243D01*
X138441590Y-84250428D01*
X138437539Y-84247229D01*
X138437535Y-84247225D01*
X138270334Y-84115177D01*
X138270330Y-84115175D01*
X138266279Y-84111975D01*
X138070709Y-84004015D01*
X138065840Y-84002291D01*
X138065836Y-84002289D01*
X137865007Y-83931172D01*
X137865003Y-83931171D01*
X137860132Y-83929446D01*
X137855039Y-83928539D01*
X137855036Y-83928538D01*
X137645293Y-83891177D01*
X137645287Y-83891176D01*
X137640204Y-83890271D01*
X137566372Y-83889369D01*
X137422001Y-83887605D01*
X137421999Y-83887605D01*
X137416831Y-83887542D01*
X137196011Y-83921332D01*
X136983676Y-83990734D01*
X136953363Y-84006514D01*
X136823730Y-84073997D01*
X136785527Y-84093884D01*
X136781394Y-84096987D01*
X136781391Y-84096989D01*
X136611020Y-84224907D01*
X136606885Y-84228012D01*
X136579955Y-84256193D01*
X136513200Y-84326048D01*
X136452549Y-84389515D01*
X136345121Y-84546998D01*
X136290213Y-84591998D01*
X136219688Y-84600169D01*
X136155941Y-84568915D01*
X136135244Y-84544431D01*
X136054742Y-84419994D01*
X136054740Y-84419991D01*
X136051934Y-84415654D01*
X135901590Y-84250428D01*
X135897539Y-84247229D01*
X135897535Y-84247225D01*
X135730334Y-84115177D01*
X135730330Y-84115175D01*
X135726279Y-84111975D01*
X135530709Y-84004015D01*
X135525840Y-84002291D01*
X135525836Y-84002289D01*
X135325007Y-83931172D01*
X135325003Y-83931171D01*
X135320132Y-83929446D01*
X135315039Y-83928539D01*
X135315036Y-83928538D01*
X135105293Y-83891177D01*
X135105287Y-83891176D01*
X135100204Y-83890271D01*
X135026372Y-83889369D01*
X134882001Y-83887605D01*
X134881999Y-83887605D01*
X134876831Y-83887542D01*
X134656011Y-83921332D01*
X134443676Y-83990734D01*
X134413363Y-84006514D01*
X134283730Y-84073997D01*
X134245527Y-84093884D01*
X134241394Y-84096987D01*
X134241391Y-84096989D01*
X134071020Y-84224907D01*
X134066885Y-84228012D01*
X134039955Y-84256193D01*
X133973200Y-84326048D01*
X133912549Y-84389515D01*
X133909640Y-84393780D01*
X133909634Y-84393788D01*
X133838990Y-84497348D01*
X133786663Y-84574057D01*
X133757481Y-84636924D01*
X133699311Y-84762242D01*
X133692608Y-84776682D01*
X133632909Y-84991947D01*
X133609171Y-85214072D01*
X133609468Y-85219225D01*
X133609468Y-85219228D01*
X133610809Y-85242485D01*
X133622030Y-85437092D01*
X133623167Y-85442138D01*
X133623168Y-85442144D01*
X133637295Y-85504829D01*
X133671142Y-85655016D01*
X133723332Y-85783545D01*
X133752305Y-85854897D01*
X133755186Y-85861993D01*
X133792605Y-85923055D01*
X133869211Y-86048065D01*
X133871907Y-86052465D01*
X134018170Y-86221315D01*
X134130747Y-86314778D01*
X134176397Y-86352677D01*
X134190046Y-86364009D01*
X134260515Y-86405188D01*
X134263365Y-86406853D01*
X134312089Y-86458491D01*
X134325160Y-86528274D01*
X134298429Y-86594046D01*
X134257975Y-86627404D01*
X134245527Y-86633884D01*
X134241394Y-86636987D01*
X134241391Y-86636989D01*
X134091190Y-86749763D01*
X134066885Y-86768012D01*
X134019012Y-86818108D01*
X133956188Y-86883850D01*
X133912549Y-86929515D01*
X133909640Y-86933780D01*
X133909634Y-86933788D01*
X133891758Y-86959994D01*
X133786663Y-87114057D01*
X133770819Y-87148191D01*
X133718954Y-87259925D01*
X133692608Y-87316682D01*
X133632909Y-87531947D01*
X133609171Y-87754072D01*
X128736917Y-87754072D01*
X128776923Y-87698397D01*
X128782233Y-87689560D01*
X128876590Y-87498644D01*
X128880389Y-87489049D01*
X128942297Y-87285287D01*
X128944475Y-87275214D01*
X128945906Y-87264339D01*
X128943695Y-87250155D01*
X128930537Y-87246377D01*
X127884035Y-87246377D01*
X127868796Y-87250852D01*
X127867591Y-87252242D01*
X127865920Y-87259925D01*
X127865920Y-89260262D01*
X127357920Y-89260262D01*
X127357920Y-86864377D01*
X127377922Y-86796256D01*
X127431578Y-86749763D01*
X127483920Y-86738377D01*
X128930264Y-86738377D01*
X128943795Y-86734404D01*
X128945100Y-86725324D01*
X128903134Y-86558252D01*
X128899814Y-86548501D01*
X128814892Y-86353191D01*
X128810025Y-86344116D01*
X128694346Y-86165303D01*
X128688056Y-86157134D01*
X128544726Y-85999617D01*
X128537193Y-85992592D01*
X128370059Y-85860599D01*
X128361476Y-85854897D01*
X128324522Y-85834497D01*
X128274551Y-85784064D01*
X128259779Y-85714622D01*
X128284895Y-85648216D01*
X128312247Y-85621609D01*
X128335717Y-85604868D01*
X128491780Y-85493550D01*
X128650016Y-85335866D01*
X128709514Y-85253066D01*
X128777355Y-85158654D01*
X128780373Y-85154454D01*
X128801240Y-85112234D01*
X128877056Y-84958830D01*
X128877057Y-84958828D01*
X128879350Y-84954188D01*
X128944290Y-84740446D01*
X128973449Y-84518967D01*
X128975076Y-84452377D01*
X128956772Y-84229738D01*
X128902351Y-84013079D01*
X128813274Y-83808217D01*
X128691934Y-83620654D01*
X128541590Y-83455428D01*
X128537539Y-83452229D01*
X128537535Y-83452225D01*
X128370334Y-83320177D01*
X128370330Y-83320175D01*
X128366279Y-83316975D01*
X128170709Y-83209015D01*
X128165840Y-83207291D01*
X128165836Y-83207289D01*
X127965007Y-83136172D01*
X127965003Y-83136171D01*
X127960132Y-83134446D01*
X127955039Y-83133539D01*
X127955036Y-83133538D01*
X127745293Y-83096177D01*
X127745287Y-83096176D01*
X127740204Y-83095271D01*
X127666372Y-83094369D01*
X127522001Y-83092605D01*
X127521999Y-83092605D01*
X127516831Y-83092542D01*
X127296011Y-83126332D01*
X127083676Y-83195734D01*
X126885527Y-83298884D01*
X126881394Y-83301987D01*
X126881391Y-83301989D01*
X126857167Y-83320177D01*
X126706885Y-83433012D01*
X126552549Y-83594515D01*
X126445121Y-83751998D01*
X126390213Y-83796998D01*
X126319688Y-83805169D01*
X126255941Y-83773915D01*
X126235244Y-83749431D01*
X126154742Y-83624994D01*
X126154740Y-83624991D01*
X126151934Y-83620654D01*
X126001590Y-83455428D01*
X125997539Y-83452229D01*
X125997535Y-83452225D01*
X125830334Y-83320177D01*
X125830330Y-83320175D01*
X125826279Y-83316975D01*
X125630709Y-83209015D01*
X125625840Y-83207291D01*
X125625836Y-83207289D01*
X125425007Y-83136172D01*
X125425003Y-83136171D01*
X125420132Y-83134446D01*
X125415039Y-83133539D01*
X125415036Y-83133538D01*
X125205293Y-83096177D01*
X125205287Y-83096176D01*
X125200204Y-83095271D01*
X125126372Y-83094369D01*
X124982001Y-83092605D01*
X124981999Y-83092605D01*
X124976831Y-83092542D01*
X124756011Y-83126332D01*
X124543676Y-83195734D01*
X124345527Y-83298884D01*
X124341394Y-83301987D01*
X124341391Y-83301989D01*
X124317167Y-83320177D01*
X124166885Y-83433012D01*
X124012549Y-83594515D01*
X123886663Y-83779057D01*
X123870923Y-83812967D01*
X123817277Y-83928538D01*
X123792608Y-83981682D01*
X123732909Y-84196947D01*
X123709171Y-84419072D01*
X123709468Y-84424225D01*
X123709468Y-84424228D01*
X123721732Y-84636924D01*
X123722030Y-84642092D01*
X123723167Y-84647138D01*
X123723168Y-84647144D01*
X123743039Y-84735316D01*
X123771142Y-84860016D01*
X123855186Y-85066993D01*
X123905939Y-85149815D01*
X123969211Y-85253065D01*
X123971907Y-85257465D01*
X124118170Y-85426315D01*
X124290046Y-85569009D01*
X124360515Y-85610188D01*
X124363365Y-85611853D01*
X124412089Y-85663491D01*
X124425160Y-85733274D01*
X124398429Y-85799046D01*
X124357975Y-85832404D01*
X124345527Y-85838884D01*
X124341394Y-85841987D01*
X124341391Y-85841989D01*
X124171020Y-85969907D01*
X124166885Y-85973012D01*
X124163313Y-85976750D01*
X124063015Y-86081706D01*
X124012549Y-86134515D01*
X124009635Y-86138787D01*
X124009634Y-86138788D01*
X123924476Y-86263626D01*
X123886663Y-86319057D01*
X123867331Y-86360704D01*
X123794990Y-86516551D01*
X123792608Y-86521682D01*
X123732909Y-86736947D01*
X123709171Y-86959072D01*
X123709468Y-86964225D01*
X123709468Y-86964228D01*
X123720075Y-87148191D01*
X123722030Y-87182092D01*
X123723167Y-87187138D01*
X123723168Y-87187144D01*
X123736517Y-87246377D01*
X123771142Y-87400016D01*
X123819994Y-87520324D01*
X123849710Y-87593506D01*
X123855186Y-87606993D01*
X123971907Y-87797465D01*
X124118170Y-87966315D01*
X124290046Y-88109009D01*
X124360515Y-88150188D01*
X124363365Y-88151853D01*
X124412089Y-88203491D01*
X124425160Y-88273274D01*
X124398429Y-88339046D01*
X124357975Y-88372404D01*
X124345527Y-88378884D01*
X124341394Y-88381987D01*
X124341391Y-88381989D01*
X124171020Y-88509907D01*
X124166885Y-88513012D01*
X124012549Y-88674515D01*
X124009635Y-88678787D01*
X124009634Y-88678788D01*
X123956003Y-88757408D01*
X123886663Y-88859057D01*
X123864586Y-88906619D01*
X123794990Y-89056551D01*
X123792608Y-89061682D01*
X123732909Y-89276947D01*
X123709171Y-89499072D01*
X123709468Y-89504225D01*
X123709468Y-89504228D01*
X123714552Y-89592392D01*
X123722030Y-89722092D01*
X123723167Y-89727138D01*
X123723168Y-89727144D01*
X123736517Y-89786377D01*
X123771142Y-89940016D01*
X123855186Y-90146993D01*
X123971907Y-90337465D01*
X124118170Y-90506315D01*
X124290046Y-90649009D01*
X124348018Y-90682885D01*
X124363365Y-90691853D01*
X124412089Y-90743491D01*
X124425160Y-90813274D01*
X124398429Y-90879046D01*
X124357975Y-90912404D01*
X124345527Y-90918884D01*
X124341394Y-90921987D01*
X124341391Y-90921989D01*
X124182388Y-91041372D01*
X124166885Y-91053012D01*
X124130564Y-91091020D01*
X124020957Y-91205717D01*
X124012549Y-91214515D01*
X123886663Y-91399057D01*
X123792608Y-91601682D01*
X123732909Y-91816947D01*
X123709171Y-92039072D01*
X120700000Y-92039072D01*
X120700000Y-78607703D01*
X121890743Y-78607703D01*
X121928268Y-78892734D01*
X122004129Y-79170036D01*
X122116923Y-79434476D01*
X122264561Y-79681161D01*
X122444313Y-79905528D01*
X122652851Y-80103423D01*
X122886317Y-80271186D01*
X122890112Y-80273195D01*
X122890113Y-80273196D01*
X122911869Y-80284715D01*
X123140392Y-80405712D01*
X123410373Y-80504511D01*
X123691264Y-80565755D01*
X123719841Y-80568004D01*
X123914282Y-80583307D01*
X123914291Y-80583307D01*
X123916739Y-80583500D01*
X124072271Y-80583500D01*
X124074407Y-80583354D01*
X124074418Y-80583354D01*
X124282548Y-80569165D01*
X124282554Y-80569164D01*
X124286825Y-80568873D01*
X124291020Y-80568004D01*
X124291022Y-80568004D01*
X124427583Y-80539724D01*
X124568342Y-80510574D01*
X124839343Y-80414607D01*
X125094812Y-80282750D01*
X125098313Y-80280289D01*
X125098317Y-80280287D01*
X125212418Y-80200095D01*
X125330023Y-80117441D01*
X125540622Y-79921740D01*
X125722713Y-79699268D01*
X125872927Y-79454142D01*
X125988483Y-79190898D01*
X126067244Y-78914406D01*
X126107751Y-78629784D01*
X126107845Y-78611951D01*
X126107867Y-78607703D01*
X191890743Y-78607703D01*
X191928268Y-78892734D01*
X192004129Y-79170036D01*
X192116923Y-79434476D01*
X192264561Y-79681161D01*
X192444313Y-79905528D01*
X192652851Y-80103423D01*
X192886317Y-80271186D01*
X192890112Y-80273195D01*
X192890113Y-80273196D01*
X192911869Y-80284715D01*
X193140392Y-80405712D01*
X193410373Y-80504511D01*
X193691264Y-80565755D01*
X193719841Y-80568004D01*
X193914282Y-80583307D01*
X193914291Y-80583307D01*
X193916739Y-80583500D01*
X194072271Y-80583500D01*
X194074407Y-80583354D01*
X194074418Y-80583354D01*
X194282548Y-80569165D01*
X194282554Y-80569164D01*
X194286825Y-80568873D01*
X194291020Y-80568004D01*
X194291022Y-80568004D01*
X194427583Y-80539724D01*
X194568342Y-80510574D01*
X194839343Y-80414607D01*
X195094812Y-80282750D01*
X195098313Y-80280289D01*
X195098317Y-80280287D01*
X195212418Y-80200095D01*
X195330023Y-80117441D01*
X195540622Y-79921740D01*
X195722713Y-79699268D01*
X195872927Y-79454142D01*
X195988483Y-79190898D01*
X196067244Y-78914406D01*
X196107751Y-78629784D01*
X196107845Y-78611951D01*
X196109235Y-78346583D01*
X196109235Y-78346576D01*
X196109257Y-78342297D01*
X196071732Y-78057266D01*
X195995871Y-77779964D01*
X195883077Y-77515524D01*
X195735439Y-77268839D01*
X195555687Y-77044472D01*
X195347149Y-76846577D01*
X195113683Y-76678814D01*
X195091843Y-76667250D01*
X195068654Y-76654972D01*
X194859608Y-76544288D01*
X194589627Y-76445489D01*
X194308736Y-76384245D01*
X194277685Y-76381801D01*
X194085718Y-76366693D01*
X194085709Y-76366693D01*
X194083261Y-76366500D01*
X193927729Y-76366500D01*
X193925593Y-76366646D01*
X193925582Y-76366646D01*
X193717452Y-76380835D01*
X193717446Y-76380836D01*
X193713175Y-76381127D01*
X193708980Y-76381996D01*
X193708978Y-76381996D01*
X193572417Y-76410276D01*
X193431658Y-76439426D01*
X193160657Y-76535393D01*
X192905188Y-76667250D01*
X192901687Y-76669711D01*
X192901683Y-76669713D01*
X192891594Y-76676804D01*
X192669977Y-76832559D01*
X192459378Y-77028260D01*
X192277287Y-77250732D01*
X192127073Y-77495858D01*
X192011517Y-77759102D01*
X191932756Y-78035594D01*
X191892249Y-78320216D01*
X191892227Y-78324505D01*
X191892226Y-78324512D01*
X191890765Y-78603417D01*
X191890743Y-78607703D01*
X126107867Y-78607703D01*
X126109235Y-78346583D01*
X126109235Y-78346576D01*
X126109257Y-78342297D01*
X126071732Y-78057266D01*
X125995871Y-77779964D01*
X125883077Y-77515524D01*
X125735439Y-77268839D01*
X125555687Y-77044472D01*
X125347149Y-76846577D01*
X125113683Y-76678814D01*
X125091843Y-76667250D01*
X125068654Y-76654972D01*
X124859608Y-76544288D01*
X124589627Y-76445489D01*
X124308736Y-76384245D01*
X124277685Y-76381801D01*
X124085718Y-76366693D01*
X124085709Y-76366693D01*
X124083261Y-76366500D01*
X123927729Y-76366500D01*
X123925593Y-76366646D01*
X123925582Y-76366646D01*
X123717452Y-76380835D01*
X123717446Y-76380836D01*
X123713175Y-76381127D01*
X123708980Y-76381996D01*
X123708978Y-76381996D01*
X123572417Y-76410276D01*
X123431658Y-76439426D01*
X123160657Y-76535393D01*
X122905188Y-76667250D01*
X122901687Y-76669711D01*
X122901683Y-76669713D01*
X122891594Y-76676804D01*
X122669977Y-76832559D01*
X122459378Y-77028260D01*
X122277287Y-77250732D01*
X122127073Y-77495858D01*
X122011517Y-77759102D01*
X121932756Y-78035594D01*
X121892249Y-78320216D01*
X121892227Y-78324505D01*
X121892226Y-78324512D01*
X121890765Y-78603417D01*
X121890743Y-78607703D01*
X120700000Y-78607703D01*
X120700000Y-75351000D01*
X120720002Y-75282879D01*
X120773658Y-75236386D01*
X120826000Y-75225000D01*
X197074000Y-75225000D01*
X197142121Y-75245002D01*
G37*
%TD.AperFunction*%
M02*
