%TF.GenerationSoftware,KiCad,Pcbnew,(6.0.1)*%
%TF.CreationDate,2022-03-16T21:32:01+01:00*%
%TF.ProjectId,SignalGenerator,5369676e-616c-4476-956e-657261746f72,0.3*%
%TF.SameCoordinates,Original*%
%TF.FileFunction,Soldermask,Bot*%
%TF.FilePolarity,Negative*%
%FSLAX46Y46*%
G04 Gerber Fmt 4.6, Leading zero omitted, Abs format (unit mm)*
G04 Created by KiCad (PCBNEW (6.0.1)) date 2022-03-16 21:32:01*
%MOMM*%
%LPD*%
G01*
G04 APERTURE LIST*
%ADD10R,1.700000X1.700000*%
%ADD11O,1.700000X1.700000*%
%ADD12C,3.200000*%
%ADD13R,3.000000X3.000000*%
%ADD14C,3.000000*%
G04 APERTURE END LIST*
D10*
X184000000Y-108775000D03*
D11*
X184000000Y-111315000D03*
X184000000Y-113855000D03*
D10*
X177300000Y-106775000D03*
D11*
X177300000Y-109315000D03*
X177300000Y-111855000D03*
D10*
X122501920Y-108367377D03*
D11*
X122501920Y-105827377D03*
X125041920Y-108367377D03*
X125041920Y-105827377D03*
X127581920Y-108367377D03*
X127581920Y-105827377D03*
X130121920Y-108367377D03*
X130121920Y-105827377D03*
X132661920Y-108367377D03*
X132661920Y-105827377D03*
D12*
X124000000Y-114475000D03*
D10*
X127611920Y-92072377D03*
D11*
X125071920Y-92072377D03*
X127611920Y-89532377D03*
X125071920Y-89532377D03*
X127611920Y-86992377D03*
X125071920Y-86992377D03*
X127611920Y-84452377D03*
X125071920Y-84452377D03*
D10*
X173525000Y-115575000D03*
D11*
X176065000Y-115575000D03*
D12*
X124000000Y-78475000D03*
X194000000Y-114475000D03*
D13*
X153332980Y-86042020D03*
D14*
X158332980Y-86042020D03*
X163332980Y-86042020D03*
X168332980Y-86042020D03*
D10*
X140051920Y-85247377D03*
D11*
X140051920Y-87787377D03*
X137511920Y-85247377D03*
X137511920Y-87787377D03*
X134971920Y-85247377D03*
X134971920Y-87787377D03*
D10*
X181325000Y-102600000D03*
D11*
X183865000Y-102600000D03*
X186405000Y-102600000D03*
D10*
X149425000Y-109650000D03*
D11*
X151965000Y-109650000D03*
X149425000Y-112190000D03*
X151965000Y-112190000D03*
X149425000Y-114730000D03*
X151965000Y-114730000D03*
D12*
X194000000Y-78475000D03*
M02*
